<?xml version="1.0" encoding="UTF-8" standalone="no"?>
<svg
   version="1.1"
   width="1127.9595"
   height="1051.1898"
   id="svg140"
   sodipodi:docname="1_standard.svg"
   inkscape:version="1.1.1 (26b7af14f2, 2022-01-19)"
   xmlns:inkscape="http://www.inkscape.org/namespaces/inkscape"
   xmlns:sodipodi="http://sodipodi.sourceforge.net/DTD/sodipodi-0.dtd"
   xmlns="http://www.w3.org/2000/svg"
   xmlns:svg="http://www.w3.org/2000/svg">
  <sodipodi:namedview
     id="namedview142"
     pagecolor="#ffffff"
     bordercolor="#666666"
     borderopacity="1.0"
     inkscape:pageshadow="2"
     inkscape:pageopacity="0.0"
     inkscape:pagecheckerboard="0"
     showgrid="false"
     inkscape:zoom="0.5"
     inkscape:cx="708"
     inkscape:cy="732"
     inkscape:window-width="1920"
     inkscape:window-height="1043"
     inkscape:window-x="0"
     inkscape:window-y="153"
     inkscape:window-maximized="1"
     inkscape:current-layer="g138" />
  <defs
     id="defs2">
    <rect
       x="1443.0721"
       y="39.982376"
       width="235.68906"
       height="103.2741"
       id="rect3639-3" />
    <rect
       x="1443.0721"
       y="39.982376"
       width="235.68906"
       height="103.2741"
       id="rect3639-5-6" />
    <rect
       x="1443.0721"
       y="39.982376"
       width="235.68906"
       height="103.2741"
       id="rect27185-7-7" />
    <rect
       x="1443.0721"
       y="39.982376"
       width="235.68906"
       height="103.2741"
       id="rect27185-7-6-9-5" />
    <rect
       x="1443.0721"
       y="39.982376"
       width="235.68906"
       height="103.2741"
       id="rect27185-4-5" />
    <rect
       x="1443.0721"
       y="39.982376"
       width="235.68906"
       height="103.2741"
       id="rect27185-7-8-6" />
    <rect
       x="1443.0721"
       y="39.982376"
       width="235.68906"
       height="103.2741"
       id="rect27185-7-6-9-5-3" />
    <rect
       x="1443.0721"
       y="39.982376"
       width="235.68906"
       height="103.2741"
       id="rect27185-7-6-9-5-5" />
    <rect
       x="1443.0721"
       y="39.982376"
       width="235.68906"
       height="103.2741"
       id="rect27185-7-6-9-5-3-3" />
    <rect
       x="1443.0721"
       y="39.982376"
       width="235.68906"
       height="103.2741"
       id="rect3639-3-2" />
    <rect
       x="1443.0721"
       y="39.982376"
       width="235.68906"
       height="103.2741"
       id="rect27185-7-7-7" />
    <rect
       x="1443.0721"
       y="39.982376"
       width="235.68906"
       height="103.2741"
       id="rect27185-7-6-9-5-0" />
    <rect
       x="1443.0721"
       y="39.982376"
       width="235.68906"
       height="103.2741"
       id="rect27185-7-6-9-4-3" />
    <rect
       x="1443.0721"
       y="39.982376"
       width="235.68906"
       height="103.2741"
       id="rect27185-7-6-9-4-9-1" />
    <rect
       x="1443.0721"
       y="39.982376"
       width="235.68906"
       height="103.2741"
       id="rect27185-7-6-9-4-9-5-2" />
    <rect
       x="1443.0721"
       y="39.982376"
       width="235.68906"
       height="103.2741"
       id="rect3639-7" />
    <rect
       x="1443.0721"
       y="39.982376"
       width="235.68906"
       height="103.2741"
       id="rect27598" />
    <rect
       x="1443.0721"
       y="39.982376"
       width="235.68906"
       height="103.2741"
       id="rect3639-3-5" />
    <rect
       x="1443.0721"
       y="39.982376"
       width="235.68906"
       height="103.2741"
       id="rect3639-5-6-9" />
    <rect
       x="1443.0721"
       y="39.982376"
       width="235.68906"
       height="103.2741"
       id="rect27185-7-7-3" />
    <rect
       x="1443.0721"
       y="39.982376"
       width="235.68906"
       height="103.2741"
       id="rect27185-7-6-9-5-5-3" />
    <rect
       x="1443.0721"
       y="39.982376"
       width="235.68906"
       height="103.2741"
       id="rect27185-7-6-9-4-3-6" />
    <rect
       x="1443.0721"
       y="39.982376"
       width="235.68906"
       height="103.2741"
       id="rect27185-4-5-6" />
    <rect
       x="1443.0721"
       y="39.982376"
       width="235.68906"
       height="103.2741"
       id="rect27185-7-8-6-0" />
    <rect
       x="1443.0721"
       y="39.982376"
       width="235.68906"
       height="103.2741"
       id="rect27185-7-6-9-8-2" />
    <rect
       x="1443.0721"
       y="39.982376"
       width="235.68906"
       height="103.2741"
       id="rect27185-7-6-9-4-1-9" />
    <rect
       x="1443.0721"
       y="39.982376"
       width="235.68906"
       height="103.2741"
       id="rect27185-7-6-9-4-9-1-2" />
    <rect
       x="1443.0721"
       y="39.982376"
       width="235.68906"
       height="103.2741"
       id="rect27185-7-6-9-4-9-5-2-9" />
    <rect
       x="1443.0721"
       y="39.982376"
       width="235.68906"
       height="103.2741"
       id="rect27185-7-8-6-2" />
    <rect
       x="1443.0721"
       y="39.982376"
       width="235.68906"
       height="103.2741"
       id="rect27185-4-5-0" />
  </defs>
  <g
     transform="matrix(0.89853566,-1.7914269,1.7914269,0.89853566,-1735.5176,1881.8093)"
     id="g138">
    <path
       fill="none"
       stroke="#50e2e2"
       paint-order="fill stroke markers"
       d="m 1042.4891,487.83155 107.0651,34.209"
       stroke-opacity="1"
       stroke-linejoin="round"
       stroke-miterlimit="10"
       stroke-width="4.21145"
       id="path4"
       style="stroke:#fa8072;stroke-width:3.77172;stroke-miterlimit:10;stroke-dasharray:none;stroke-opacity:1" />
    <path
       fill="none"
       stroke="#e28150"
       paint-order="fill stroke markers"
       d="m 1044.0543,475.05485 97.8514,-49.00952"
       stroke-opacity="1"
       stroke-linejoin="round"
       stroke-miterlimit="10"
       stroke-width="3.39797"
       id="path8"
       style="stroke:#a07be9;stroke-width:3.77172;stroke-miterlimit:10;stroke-dasharray:none;stroke-opacity:1" />
    <path
       fill="none"
       stroke="#e2e250"
       paint-order="fill stroke markers"
       d="m 1163.7139,541.40002 5.8423,58.34344"
       stroke-opacity="1"
       stroke-linejoin="round"
       stroke-miterlimit="10"
       stroke-width="3.38063"
       id="path12-2"
       style="stroke:#2ad4ff;stroke-width:3.77172;stroke-miterlimit:10;stroke-dasharray:none;stroke-opacity:1" />
    <path
       fill="none"
       stroke="#e2e250"
       paint-order="fill stroke markers"
       d="m 1181.2503,623.03178 44.077,38.9425"
       stroke-opacity="1"
       stroke-linejoin="round"
       stroke-miterlimit="10"
       stroke-width="2.59786"
       id="path12-5-8"
       style="stroke:#2ad4ff;stroke-width:3.77172;stroke-miterlimit:10;stroke-dasharray:none;stroke-opacity:1" />
    <path
       fill="none"
       stroke="#81e250"
       paint-order="fill stroke markers"
       d="m 1131.0498,836.29387 49.7211,-24.59029"
       stroke-opacity="1"
       stroke-linejoin="round"
       stroke-miterlimit="10"
       stroke-width="2.36496"
       id="path16"
       style="stroke:#e2e250;stroke-width:3.77172;stroke-miterlimit:10;stroke-dasharray:none;stroke-opacity:1" />
    <path
       fill="none"
       stroke="#e28150"
       paint-order="fill stroke markers"
       d="m 1205.6779,798.81474 98.5409,-49.23678"
       stroke-opacity="1"
       stroke-linejoin="round"
       stroke-miterlimit="10"
       stroke-width="3.38445"
       id="path20"
       style="stroke:#a07be9;stroke-width:3.77172;stroke-miterlimit:10;stroke-dasharray:none;stroke-opacity:1" />
    <path
       fill="none"
       stroke="#50e2e2"
       paint-order="fill stroke markers"
       d="m 1198.825,790.51569 35.9815,-112.3531"
       stroke-opacity="1"
       stroke-linejoin="round"
       stroke-miterlimit="10"
       stroke-width="4.24081"
       id="path24"
       style="stroke:#fa8072;stroke-width:3.77172;stroke-miterlimit:10;stroke-dasharray:none;stroke-opacity:1" />
    <path
       fill="none"
       stroke="#50e2e2"
       paint-order="fill stroke markers"
       d="m 1098.2384,649.95923 -99.82759,49.85785"
       stroke-opacity="1"
       stroke-linejoin="round"
       stroke-miterlimit="10"
       stroke-width="3.55412"
       id="path32"
       style="stroke:#fa8072;stroke-width:3.77172;stroke-miterlimit:10;stroke-dasharray:none;stroke-opacity:1" />
    <path
       fill="none"
       stroke="#e2e250"
       paint-order="fill stroke markers"
       d="M 983.70247,690.62431 958.7005,530.45667"
       stroke-opacity="1"
       stroke-linejoin="round"
       stroke-miterlimit="10"
       stroke-width="6.26648"
       id="path36"
       style="stroke:#2ad4ff;stroke-width:3.77172;stroke-miterlimit:10;stroke-dasharray:none;stroke-opacity:1" />
    <path
       fill="none"
       stroke="#e2e250"
       paint-order="fill stroke markers"
       d="M 996.53161,717.0068 1110.6532,832.76998"
       stroke-opacity="1"
       stroke-linejoin="round"
       stroke-miterlimit="10"
       stroke-width="6.81826"
       id="path40"
       style="stroke:#2ad4ff;stroke-width:3.77172;stroke-miterlimit:10;stroke-dasharray:none;stroke-opacity:1" />
    <path
       fill="none"
       stroke="#e2e250"
       paint-order="fill stroke markers"
       d="M 999.78707,698.7332 924.0791,735.63194"
       stroke-opacity="1"
       stroke-linejoin="round"
       stroke-miterlimit="10"
       stroke-width="3"
       id="path44"
       style="stroke:#2ad4ff;stroke-width:3.77172;stroke-miterlimit:10;stroke-dasharray:none;stroke-opacity:1" />
    <path
       fill="none"
       stroke="#e28150"
       paint-order="fill stroke markers"
       d="m 1388.208,706.27632 -78.9658,39.6186"
       stroke-opacity="1"
       stroke-linejoin="round"
       stroke-miterlimit="10"
       stroke-width="3"
       id="path48"
       style="stroke:#a07be9;stroke-width:3.77172;stroke-miterlimit:10;stroke-dasharray:none;stroke-opacity:1" />
    <path
       fill="#e28150"
       stroke="none"
       paint-order="stroke fill markers"
       d="m 1341.8539,723.96204 -6.3534,8.88112 10.9141,0.0963 z"
       fill-opacity="1"
       id="path50"
       style="fill:#a07be9;fill-opacity:1;stroke-width:1.1352" />
    <path
       fill="#e28150"
       stroke="none"
       paint-order="stroke fill markers"
       d="m 956.43045,714.19406 -6.37712,8.86404 10.91372,0.12555 z"
       fill-opacity="1"
       id="path50-36"
       style="fill:#2ad4ff;fill-opacity:1;stroke-width:1.1352" />
    <path
       fill="#e28150"
       stroke="none"
       paint-order="stroke fill markers"
       d="m 1057.1661,664.74546 -6.4049,8.84403 10.9133,0.15973 z"
       fill-opacity="1"
       id="path50-36-2"
       style="fill:#fa8072;fill-opacity:1;stroke-width:1.1352" />
    <path
       fill="#e28150"
       stroke="none"
       paint-order="stroke fill markers"
       d="m 1139.4586,623.46846 -6.343,8.88848 10.9141,0.0836 z"
       fill-opacity="1"
       id="path50-36-2-6"
       style="fill:#e2e250;fill-opacity:1;stroke-width:1.1352" />
    <path
       fill="#e28150"
       stroke="none"
       paint-order="stroke fill markers"
       d="m 898.32919,742.07298 -6.3338,8.89505 10.9142,0.0723 z"
       fill-opacity="1"
       id="path50-36-6"
       style="fill:#e2e250;fill-opacity:1;stroke-width:1.1352" />
    <path
       fill="#e28150"
       stroke="none"
       paint-order="stroke fill markers"
       d="m 1253.3205,780.66759 6.4812,-8.78826 -10.9115,-0.25417 z"
       fill-opacity="1"
       id="path50-5"
       style="fill:#a07be9;fill-opacity:1;stroke-width:1.1352" />
    <path
       fill="#e28150"
       stroke="none"
       paint-order="stroke fill markers"
       d="m 1155.4381,829.94408 6.4812,-8.78826 -10.9115,-0.25417 z"
       fill-opacity="1"
       id="path50-5-2"
       style="fill:#e2e250;fill-opacity:1;stroke-width:1.1352" />
    <path
       fill="#e28150"
       stroke="none"
       paint-order="stroke fill markers"
       d="m 1182.9792,399.81749 -6.3338,8.89505 10.9142,0.0723 z"
       fill-opacity="1"
       id="path50-2"
       style="fill:#a07be9;fill-opacity:1;stroke-width:1.1352" />
    <path
       fill="#e28150"
       stroke="none"
       paint-order="stroke fill markers"
       d="m 1094.0572,455.54746 6.4812,-8.78826 -10.9115,-0.25417 z"
       fill-opacity="1"
       id="path50-5-7"
       style="fill:#a07be9;fill-opacity:1;stroke-width:1.1352" />
    <path
       fill="#e28150"
       stroke="none"
       paint-order="stroke fill markers"
       d="m 1099.035,511.19879 10.8544,-1.19204 -7.2094,-8.19449 z"
       fill-opacity="1"
       id="path50-5-7-1"
       style="fill:#fa8072;fill-opacity:1;stroke-width:1.1352" />
    <path
       fill="#e28150"
       stroke="none"
       paint-order="stroke fill markers"
       d="m 1152.5005,471.06507 4.9852,9.71527 5.084,-9.65805 z"
       fill-opacity="1"
       id="path50-5-7-1-8"
       style="fill:#2ad4ff;fill-opacity:1;stroke-width:1.1352" />
    <path
       fill="#e28150"
       stroke="none"
       paint-order="stroke fill markers"
       d="m 1160.9415,561.29109 5.4062,9.48743 4.6558,-9.87158 z"
       fill-opacity="1"
       id="path50-5-7-1-8-7"
       style="fill:#2ad4ff;fill-opacity:1;stroke-width:1.1352" />
    <path
       fill="#e28150"
       stroke="none"
       paint-order="stroke fill markers"
       d="m 996.25733,504.85018 6.38497,-8.85839 -10.91357,-0.13521 z"
       fill-opacity="1"
       id="path50-5-2-0"
       style="fill:#e2e250;fill-opacity:1;stroke-width:1.1352" />
    <path
       fill="#e28150"
       stroke="none"
       paint-order="stroke fill markers"
       d="m 1058.3708,786.63588 10.1342,4.06657 -2.4941,-10.62566 z"
       fill-opacity="1"
       id="path50-5-2-1"
       style="fill:#2ad4ff;fill-opacity:1;stroke-width:1.1352" />
    <path
       fill="#e28150"
       stroke="none"
       paint-order="stroke fill markers"
       d="m 972.96276,589.69092 -6.72919,-8.59982 -3.16988,10.44399 z"
       fill-opacity="1"
       id="path50-5-2-1-9"
       style="fill:#2ad4ff;fill-opacity:1;stroke-width:1.1352" />
    <path
       fill="#e28150"
       stroke="none"
       paint-order="stroke fill markers"
       d="m 1220.6875,739.85788 -2.6186,-10.60106 -7.1679,8.23086 z"
       fill-opacity="1"
       id="path50-5-6"
       style="fill:#fa8072;fill-opacity:1;stroke-width:1.1352" />
    <path
       fill="#e28150"
       stroke="none"
       paint-order="stroke fill markers"
       d="m 1283.6845,705.8599 -10.7527,-1.90236 4.6197,9.88857 z"
       fill-opacity="1"
       id="path50-3"
       style="fill:#2ad4ff;fill-opacity:1;stroke-width:1.1352" />
    <path
       fill="#e28150"
       stroke="none"
       paint-order="stroke fill markers"
       d="m 1212.2137,643.57501 -10.8002,-1.61016 4.8861,9.75971 z"
       fill-opacity="1"
       id="path50-3-9"
       style="fill:#2ad4ff;fill-opacity:1;stroke-width:1.1352" />
    <path
       fill="none"
       stroke="#81e250"
       paint-order="fill stroke markers"
       d="m 968.9318,512.87179 67.9548,-34.00934"
       stroke-opacity="1"
       stroke-linejoin="round"
       stroke-miterlimit="10"
       stroke-width="2.75442"
       id="path56"
       style="stroke:#e2e250;stroke-width:3.77172;stroke-miterlimit:10;stroke-dasharray:none;stroke-opacity:1" />
    <path
       fill="none"
       stroke="#81e250"
       paint-order="fill stroke markers"
       d="m 925.50404,734.1713 -48.05825,23.88152"
       stroke-opacity="1"
       stroke-linejoin="round"
       stroke-miterlimit="10"
       stroke-width="2.51715"
       id="path60"
       style="stroke:#e2e250;stroke-width:3.77172;stroke-miterlimit:10;stroke-dasharray:none;stroke-opacity:1" />
    <path
       fill="none"
       stroke="#81e250"
       paint-order="fill stroke markers"
       d="m 1155.7247,620.9332 -31.7812,15.93287"
       stroke-opacity="1"
       stroke-linejoin="round"
       stroke-miterlimit="10"
       stroke-width="1.93707"
       id="path64"
       style="stroke:#e2e250;stroke-width:3.77172;stroke-miterlimit:10;stroke-dasharray:none;stroke-opacity:1" />
    <path
       fill="none"
       stroke="#e28150"
       paint-order="fill stroke markers"
       d="m 1229.0007,382.44961 -76.7538,38.4088"
       stroke-opacity="1"
       stroke-linejoin="round"
       stroke-miterlimit="10"
       stroke-width="3"
       id="path68"
       style="stroke:#a07be9;stroke-width:3.77172;stroke-miterlimit:10;stroke-dasharray:none;stroke-opacity:1" />
    <path
       fill="#8150e2"
       stroke="none"
       paint-order="stroke fill markers"
       d="m 879.08065,764.86267 -0.0462,1.17689 -0.13844,1.16963 -0.22977,1.15516 -0.3197,1.13358 -0.40766,1.105 -0.49309,1.0696 -0.5755,1.02762 -0.65435,0.9793 -0.72916,0.92494 -0.79949,0.86489 -0.86488,0.79948 -0.92494,0.72917 -0.9793,0.65435 -1.02762,0.57549 -1.06961,0.4931 -1.105,0.40765 -1.13357,0.3197 -1.15516,0.22978 -1.16964,0.13843 -1.17688,0.0462 -1.17689,-0.0462 -1.16963,-0.13843 -1.15516,-0.22978 -1.13358,-0.3197 -1.10499,-0.40765 -1.06961,-0.4931 -1.02762,-0.57549 -0.9793,-0.65435 -0.92494,-0.72917 -0.86488,-0.79948 -0.79949,-0.86489 -0.72917,-0.92494 -0.65434,-0.9793 -0.5755,-1.02762 -0.49309,-1.0696 -0.40766,-1.105 -0.3197,-1.13358 -0.22978,-1.15516 -0.13843,-1.16963 -0.0462,-1.17689 0.0462,-1.17688 0.13843,-1.16963 0.22978,-1.15517 0.3197,-1.13357 0.40766,-1.105 0.49309,-1.0696 0.5755,-1.02762 0.65434,-0.97931 0.72917,-0.92494 0.79949,-0.86488 0.86488,-0.79949 0.92494,-0.72916 0.9793,-0.65435 1.02762,-0.57549 1.06961,-0.4931 1.10499,-0.40765 1.13358,-0.31971 1.15516,-0.22977 1.16963,-0.13844 1.17689,-0.0462 1.17688,0.0462 1.16964,0.13844 1.15516,0.22977 1.13357,0.31971 1.105,0.40765 1.06961,0.4931 1.02762,0.57549 0.9793,0.65435 0.92494,0.72916 0.86488,0.79949 0.79949,0.86488 0.72916,0.92494 0.65435,0.97931 0.5755,1.02762 0.49309,1.0696 0.40766,1.105 0.3197,1.13357 0.22977,1.15517 0.13844,1.16963 z"
       fill-opacity="1"
       id="path76"
       style="fill:#fa8072;fill-opacity:1" />
    <text
       fill="#000000"
       stroke="none"
       font-family="'Helvetica Neue', Helvetica, sans-serif"
       font-size="8px"
       font-style="normal"
       font-weight="normal"
       text-decoration="normal"
       x="1087.9906"
       y="-436.94144"
       text-anchor="middle"
       dominant-baseline="text-after-edge"
       fill-opacity="1"
       id="text78"
       transform="rotate(63.053663)"
       style="font-size:11.9752px">YFP</text>
    <path
       fill="#8d5235"
       stroke="none"
       paint-order="stroke fill markers"
       d="m 939.86765,735.04514 -0.0462,1.17688 -0.13844,1.16963 -0.22977,1.15517 -0.3197,1.13357 -0.40766,1.105 -0.49309,1.06961 -0.5755,1.02762 -0.65435,0.9793 -0.72916,0.92494 -0.79949,0.86488 -0.86488,0.79949 -0.92494,0.72916 -0.9793,0.65435 -1.02762,0.5755 -1.06961,0.49309 -1.105,0.40766 -1.13357,0.3197 -1.15517,0.22977 -1.16963,0.13844 -1.17688,0.0462 -1.17689,-0.0462 -1.16963,-0.13844 -1.15516,-0.22977 -1.13358,-0.3197 -1.10499,-0.40766 -1.06961,-0.49309 -1.02762,-0.5755 -0.9793,-0.65435 -0.92494,-0.72916 -0.86488,-0.79949 -0.79949,-0.86488 -0.72917,-0.92494 -0.65434,-0.9793 -0.5755,-1.02762 -0.4931,-1.06961 -0.40765,-1.105 -0.3197,-1.13357 -0.22978,-1.15517 -0.13843,-1.16963 -0.0462,-1.17688 0.0462,-1.17689 0.13843,-1.16963 0.22978,-1.15516 0.3197,-1.13358 0.40765,-1.10499 0.4931,-1.06961 0.5755,-1.02762 0.65434,-0.9793 0.72917,-0.92494 0.79949,-0.86488 0.86488,-0.79949 0.92494,-0.72917 0.9793,-0.65434 1.02762,-0.5755 1.06961,-0.4931 1.10499,-0.40765 1.13358,-0.3197 1.15516,-0.22978 1.16963,-0.13843 1.17689,-0.0462 1.17688,0.0462 1.16963,0.13843 1.15517,0.22978 1.13357,0.3197 1.105,0.40765 1.06961,0.4931 1.02762,0.5755 0.9793,0.65434 0.92494,0.72917 0.86488,0.79949 0.79949,0.86488 0.72916,0.92494 0.65435,0.9793 0.5755,1.02762 0.49309,1.06961 0.40766,1.10499 0.3197,1.13358 0.22977,1.15516 0.13844,1.16963 z"
       fill-opacity="1"
       id="path80"
       style="fill:#e2e250;fill-opacity:1" />
    <text
       fill="#000000"
       stroke="none"
       font-family="'Helvetica Neue', Helvetica, sans-serif"
       font-size="8px"
       font-style="normal"
       font-weight="normal"
       text-decoration="normal"
       x="1085.5144"
       y="-504.39966"
       text-anchor="middle"
       dominant-baseline="text-after-edge"
       fill-opacity="1"
       id="text82"
       transform="rotate(62.994911)"
       style="font-size:11.9752px">yfp</text>
    <path
       fill="#8150e2"
       stroke="none"
       paint-order="stroke fill markers"
       d="m 1046.5221,481.4468 -0.046,1.17689 -0.1385,1.16963 -0.2297,1.15516 -0.3197,1.13358 -0.4077,1.10499 -0.4931,1.06961 -0.5755,1.02762 -0.6543,0.9793 -0.7292,0.92494 -0.7995,0.86488 -0.8649,0.79949 -0.9249,0.72917 -0.9793,0.65435 -1.0276,0.57549 -1.0696,0.4931 -1.105,0.40765 -1.1336,0.3197 -1.1552,0.22978 -1.1696,0.13843 -1.1769,0.0462 -1.1769,-0.0462 -1.1696,-0.13843 -1.1552,-0.22978 -1.1335,-0.3197 -1.105,-0.40765 -1.0696,-0.4931 -1.0277,-0.57549 -0.9793,-0.65435 -0.9249,-0.72917 -0.8649,-0.79949 -0.7995,-0.86488 -0.7291,-0.92494 -0.6544,-0.9793 -0.5755,-1.02762 -0.4931,-1.06961 -0.4076,-1.10499 -0.3197,-1.13358 -0.2298,-1.15516 -0.1384,-1.16963 -0.046,-1.17689 0.046,-1.17688 0.1384,-1.16963 0.2298,-1.15517 0.3197,-1.13357 0.4076,-1.105 0.4931,-1.0696 0.5755,-1.02763 0.6544,-0.9793 0.7291,-0.92494 0.7995,-0.86488 0.8649,-0.79949 0.9249,-0.72916 0.9793,-0.65435 1.0277,-0.57549 1.0696,-0.4931 1.105,-0.40765 1.1335,-0.31971 1.1552,-0.22977 1.1696,-0.13844 1.1769,-0.0462 1.1769,0.0462 1.1696,0.13844 1.1552,0.22977 1.1336,0.31971 1.105,0.40765 1.0696,0.4931 1.0276,0.57549 0.9793,0.65435 0.9249,0.72916 0.8649,0.79949 0.7995,0.86488 0.7292,0.92494 0.6543,0.9793 0.5755,1.02763 0.4931,1.0696 0.4077,1.105 0.3197,1.13357 0.2297,1.15517 0.1385,1.16963 z"
       fill-opacity="1"
       id="path84"
       style="fill:#fa8072;fill-opacity:1" />
    <text
       fill="#000000"
       stroke="none"
       font-family="'Helvetica Neue', Helvetica, sans-serif"
       font-size="8px"
       font-style="normal"
       font-weight="normal"
       text-decoration="normal"
       x="1231.749"
       y="-690.10364"
       text-anchor="middle"
       dominant-baseline="text-after-edge"
       fill-opacity="1"
       id="text86"
       transform="rotate(63.84947)"
       style="font-size:11.9752px">TetR</text>
    <path
       fill="#8150e2"
       stroke="none"
       paint-order="stroke fill markers"
       d="m 1126.6033,643.14937 -0.046,1.17689 -0.1384,1.16963 -0.2298,1.15516 -0.3197,1.13358 -0.4077,1.105 -0.4931,1.0696 -0.5755,1.02762 -0.6543,0.9793 -0.7292,0.92494 -0.7995,0.86489 -0.8648,0.79948 -0.925,0.72917 -0.9793,0.65435 -1.0276,0.57549 -1.0696,0.4931 -1.105,0.40765 -1.1336,0.3197 -1.1551,0.22978 -1.1697,0.13843 -1.1769,0.0462 -1.1768,-0.0462 -1.1697,-0.13843 -1.1551,-0.22978 -1.1336,-0.3197 -1.105,-0.40765 -1.0696,-0.4931 -1.0276,-0.57549 -0.9793,-0.65435 -0.925,-0.72917 -0.8649,-0.79948 -0.7994,-0.86489 -0.7292,-0.92494 -0.6544,-0.9793 -0.5755,-1.02762 -0.493,-1.0696 -0.4077,-1.105 -0.3197,-1.13358 -0.2298,-1.15516 -0.1384,-1.16963 -0.046,-1.17689 0.046,-1.17688 0.1384,-1.16963 0.2298,-1.15517 0.3197,-1.13357 0.4077,-1.105 0.493,-1.0696 0.5755,-1.02762 0.6544,-0.9793 0.7292,-0.92495 0.7994,-0.86488 0.8649,-0.79949 0.925,-0.72916 0.9793,-0.65435 1.0276,-0.57549 1.0696,-0.4931 1.105,-0.40765 1.1336,-0.3197 1.1551,-0.22978 1.1697,-0.13844 1.1768,-0.0462 1.1769,0.0462 1.1697,0.13844 1.1551,0.22978 1.1336,0.3197 1.105,0.40765 1.0696,0.4931 1.0276,0.57549 0.9793,0.65435 0.925,0.72916 0.8648,0.79949 0.7995,0.86488 0.7292,0.92495 0.6543,0.9793 0.5755,1.02762 0.4931,1.0696 0.4077,1.105 0.3197,1.13357 0.2298,1.15517 0.1384,1.16963 z"
       fill-opacity="1"
       id="path88"
       style="fill:#fa8072;fill-opacity:1" />
    <text
       fill="#000000"
       stroke="none"
       font-family="'Helvetica Neue', Helvetica, sans-serif"
       font-size="8px"
       font-style="normal"
       font-weight="normal"
       text-decoration="normal"
       x="1088.8232"
       y="-706.66132"
       text-anchor="middle"
       dominant-baseline="text-after-edge"
       fill-opacity="1"
       id="text90"
       transform="rotate(62.727494)"
       style="font-size:11.9752px">CI</text>
    <path
       fill="#81e250"
       stroke="none"
       paint-order="stroke fill markers"
       d="m 1331.8063,743.15884 -0.046,1.17689 -0.1385,1.16963 -0.2297,1.15516 -0.3197,1.13357 -0.4077,1.105 -0.4931,1.06961 -0.5755,1.02762 -0.6543,0.9793 -0.7292,0.92494 -0.7995,0.86488 -0.8649,0.79949 -0.9249,0.72916 -0.9793,0.65435 -1.0276,0.5755 -1.0696,0.49309 -1.105,0.40766 -1.1336,0.3197 -1.1552,0.22977 -1.1696,0.13844 -1.1769,0.0462 -1.1769,-0.0462 -1.1696,-0.13844 -1.1552,-0.22977 -1.1335,-0.3197 -1.105,-0.40766 -1.0696,-0.49309 -1.0277,-0.5755 -0.9793,-0.65435 -0.9249,-0.72916 -0.8649,-0.79949 -0.7995,-0.86488 -0.7291,-0.92494 -0.6544,-0.9793 -0.5755,-1.02762 -0.4931,-1.06961 -0.4076,-1.105 -0.3197,-1.13357 -0.2298,-1.15516 -0.1384,-1.16963 -0.046,-1.17689 0.046,-1.17689 0.1384,-1.16963 0.2298,-1.15516 0.3197,-1.13358 0.4076,-1.10499 0.4931,-1.06961 0.5755,-1.02762 0.6544,-0.9793 0.7291,-0.92494 0.7995,-0.86488 0.8649,-0.79949 0.9249,-0.72917 0.9793,-0.65434 1.0277,-0.5755 1.0696,-0.49309 1.105,-0.40766 1.1335,-0.3197 1.1552,-0.22978 1.1696,-0.13843 1.1769,-0.0462 1.1769,0.0462 1.1696,0.13843 1.1552,0.22978 1.1336,0.3197 1.105,0.40766 1.0696,0.49309 1.0276,0.5755 0.9793,0.65434 0.9249,0.72917 0.8649,0.79949 0.7995,0.86488 0.7292,0.92494 0.6543,0.9793 0.5755,1.02762 0.4931,1.06961 0.4077,1.10499 0.3197,1.13358 0.2297,1.15516 0.1385,1.16963 z"
       fill-opacity="1"
       id="path92"
       style="fill:#2ad4ff;fill-opacity:0.999275" />
    <text
       fill="#000000"
       stroke="none"
       font-family="'Helvetica Neue', Helvetica, sans-serif"
       font-size="8px"
       font-style="normal"
       font-weight="normal"
       text-decoration="normal"
       x="917.47723"
       y="-860.94244"
       text-anchor="middle"
       dominant-baseline="text-after-edge"
       fill-opacity="1"
       id="text94"
       transform="rotate(63.54896)"
       style="font-size:11.9752px">Ara-arac</text>
    <path
       fill="#8d5235"
       stroke="none"
       paint-order="stroke fill markers"
       d="m 1133.1841,842.5776 -0.046,1.17688 -0.1384,1.16963 -0.2298,1.15517 -0.3197,1.13357 -0.4076,1.105 -0.4931,1.06961 -0.5755,1.02762 -0.6544,0.9793 -0.7291,0.92494 -0.7995,0.86488 -0.8649,0.79949 -0.9249,0.72916 -0.9793,0.65435 -1.0277,0.5755 -1.0696,0.49309 -1.105,0.40766 -1.1335,0.3197 -1.1552,0.22977 -1.1696,0.13844 -1.1769,0.0462 -1.1769,-0.0462 -1.1696,-0.13844 -1.1552,-0.22977 -1.1336,-0.3197 -1.105,-0.40766 -1.0696,-0.49309 -1.0276,-0.5755 -0.9793,-0.65435 -0.9249,-0.72916 -0.8649,-0.79949 -0.7995,-0.86488 -0.7292,-0.92494 -0.6543,-0.9793 -0.5755,-1.02762 -0.4931,-1.06961 -0.4077,-1.105 -0.3197,-1.13357 -0.2297,-1.15517 -0.1385,-1.16963 -0.046,-1.17688 0.046,-1.17689 0.1385,-1.16963 0.2297,-1.15516 0.3197,-1.13358 0.4077,-1.10499 0.4931,-1.06961 0.5755,-1.02762 0.6543,-0.9793 0.7292,-0.92494 0.7995,-0.86488 0.8649,-0.79949 0.9249,-0.72917 0.9793,-0.65434 1.0276,-0.5755 1.0696,-0.4931 1.105,-0.40765 1.1336,-0.3197 1.1552,-0.22978 1.1696,-0.13843 1.1769,-0.0462 1.1769,0.0462 1.1696,0.13843 1.1552,0.22978 1.1335,0.3197 1.105,0.40765 1.0696,0.4931 1.0277,0.5755 0.9793,0.65434 0.9249,0.72917 0.8649,0.79949 0.7995,0.86488 0.7291,0.92494 0.6544,0.9793 0.5755,1.02762 0.4931,1.06961 0.4076,1.10499 0.3197,1.13358 0.2298,1.15516 0.1384,1.16963 z"
       fill-opacity="1"
       id="path96"
       style="fill:#e2e250;fill-opacity:1" />
    <text
       fill="#000000"
       stroke="none"
       font-family="'Helvetica Neue', Helvetica, sans-serif"
       font-size="8px"
       font-style="normal"
       font-weight="normal"
       text-decoration="normal"
       x="1230.8831"
       y="-645.71417"
       text-anchor="middle"
       dominant-baseline="text-after-edge"
       fill-opacity="1"
       id="text98"
       transform="rotate(63.843638)"
       style="font-size:11.9752px">tetR</text>
    <path
       fill="#50e281"
       stroke="none"
       paint-order="stroke fill markers"
       d="m 1231.2956,388.33924 -0.046,1.17689 -0.1384,1.16963 -0.2298,1.15516 -0.3197,1.13357 -0.4077,1.105 -0.4931,1.06961 -0.5754,1.02762 -0.6544,0.9793 -0.7292,0.92494 -0.7994,0.86488 -0.8649,0.79949 -0.925,0.72916 -0.9793,0.65435 -1.0276,0.5755 -1.0696,0.49309 -1.105,0.40766 -1.1336,0.3197 -1.1551,0.22977 -1.1697,0.13844 -1.1769,0.0462 -1.1768,-0.0462 -1.1697,-0.13844 -1.1551,-0.22977 -1.1336,-0.3197 -1.105,-0.40766 -1.0696,-0.49309 -1.0276,-0.5755 -0.9793,-0.65435 -0.925,-0.72916 -0.8649,-0.79949 -0.7994,-0.86488 -0.7292,-0.92494 -0.6544,-0.9793 -0.5754,-1.02762 -0.4931,-1.06961 -0.4077,-1.105 -0.3197,-1.13357 -0.2298,-1.15516 -0.1384,-1.16963 -0.046,-1.17689 0.046,-1.17689 0.1384,-1.16963 0.2298,-1.15516 0.3197,-1.13358 0.4077,-1.10499 0.4931,-1.06961 0.5754,-1.02762 0.6544,-0.9793 0.7292,-0.92494 0.7994,-0.86488 0.8649,-0.79949 0.925,-0.72917 0.9793,-0.65434 1.0276,-0.5755 1.0696,-0.49309 1.105,-0.40766 1.1336,-0.3197 1.1551,-0.22978 1.1697,-0.13843 1.1768,-0.0462 1.1769,0.0462 1.1697,0.13843 1.1551,0.22978 1.1336,0.3197 1.105,0.40766 1.0696,0.49309 1.0276,0.5755 0.9793,0.65434 0.925,0.72917 0.8649,0.79949 0.7994,0.86488 0.7292,0.92494 0.6544,0.9793 0.5754,1.02762 0.4931,1.06961 0.4077,1.10499 0.3197,1.13358 0.2298,1.15516 0.1384,1.16963 z"
       fill-opacity="1"
       id="path100"
       style="fill:#a07be9;fill-opacity:1" />
    <text
       fill="#000000"
       stroke="none"
       font-family="'Helvetica Neue', Helvetica, sans-serif"
       font-size="8px"
       font-style="normal"
       font-weight="normal"
       text-decoration="normal"
       x="1253.4659"
       y="-924.16174"
       text-anchor="middle"
       dominant-baseline="text-after-edge"
       fill-opacity="1"
       id="text102"
       transform="rotate(63.377997)"
       style="font-size:11.9752px">ATC</text>
    <path
       fill="#8150e2"
       stroke="none"
       paint-order="stroke fill markers"
       d="m 1209.1469,804.88614 -0.046,1.17689 -0.1385,1.16963 -0.2297,1.15516 -0.3197,1.13358 -0.4077,1.10499 -0.4931,1.06961 -0.5755,1.02762 -0.6543,0.9793 -0.7292,0.92494 -0.7995,0.86488 -0.8649,0.79949 -0.9249,0.72917 -0.9793,0.65434 -1.0276,0.5755 -1.0696,0.49309 -1.105,0.40766 -1.1336,0.3197 -1.1552,0.22978 -1.1696,0.13843 -1.1769,0.0462 -1.1769,-0.0462 -1.1696,-0.13843 -1.1552,-0.22978 -1.1335,-0.3197 -1.105,-0.40766 -1.0696,-0.49309 -1.0277,-0.5755 -0.9793,-0.65434 -0.9249,-0.72917 -0.8649,-0.79949 -0.7995,-0.86488 -0.7291,-0.92494 -0.6544,-0.9793 -0.5755,-1.02762 -0.4931,-1.06961 -0.4076,-1.10499 -0.3197,-1.13358 -0.2298,-1.15516 -0.1384,-1.16963 -0.046,-1.17689 0.046,-1.17689 0.1384,-1.16963 0.2298,-1.15516 0.3197,-1.13357 0.4076,-1.105 0.4931,-1.06961 0.5755,-1.02762 0.6544,-0.9793 0.7291,-0.92494 0.7995,-0.86488 0.8649,-0.79949 0.9249,-0.72916 0.9793,-0.65435 1.0277,-0.5755 1.0696,-0.49309 1.105,-0.40766 1.1335,-0.3197 1.1552,-0.22977 1.1696,-0.13844 1.1769,-0.0462 1.1769,0.0462 1.1696,0.13844 1.1552,0.22977 1.1336,0.3197 1.105,0.40766 1.0696,0.49309 1.0276,0.5755 0.9793,0.65435 0.9249,0.72916 0.8649,0.79949 0.7995,0.86488 0.7292,0.92494 0.6543,0.9793 0.5755,1.02762 0.4931,1.06961 0.4077,1.105 0.3197,1.13357 0.2297,1.15516 0.1385,1.16963 z"
       fill-opacity="1"
       id="path104"
       style="fill:#fa8072;fill-opacity:1" />
    <text
       fill="#000000"
       stroke="none"
       font-family="'Helvetica Neue', Helvetica, sans-serif"
       font-size="8px"
       font-style="normal"
       font-weight="normal"
       text-decoration="normal"
       x="896.18872"
       y="-699.85114"
       text-anchor="middle"
       dominant-baseline="text-after-edge"
       fill-opacity="1"
       id="text106"
       transform="rotate(64.593298)"
       style="font-size:11.9752px">AraC</text>
    <path
       fill="#8d5235"
       stroke="none"
       paint-order="stroke fill markers"
       d="m 970.49979,519.24934 -0.0462,1.17689 -0.13844,1.16963 -0.22977,1.15516 -0.31971,1.13358 -0.40765,1.10499 -0.4931,1.06961 -0.57549,1.02762 -0.65435,0.9793 -0.72916,0.92494 -0.79949,0.86488 -0.86488,0.79949 -0.92494,0.72917 -0.97931,0.65434 -1.02762,0.5755 -1.0696,0.49309 -1.105,0.40766 -1.13357,0.3197 -1.15517,0.22978 -1.16963,0.13843 -1.17688,0.0462 -1.17689,-0.0462 -1.16963,-0.13843 -1.15516,-0.22978 -1.13358,-0.3197 -1.10499,-0.40766 -1.06961,-0.49309 -1.02762,-0.5755 -0.9793,-0.65434 -0.92494,-0.72917 -0.86489,-0.79949 -0.79948,-0.86488 -0.72917,-0.92494 -0.65435,-0.9793 -0.57549,-1.02762 -0.4931,-1.06961 -0.40765,-1.10499 -0.3197,-1.13358 -0.22978,-1.15516 -0.13843,-1.16963 -0.0462,-1.17689 0.0462,-1.17688 0.13843,-1.16964 0.22978,-1.15516 0.3197,-1.13357 0.40765,-1.105 0.4931,-1.06961 0.57549,-1.02762 0.65435,-0.9793 0.72917,-0.92494 0.79948,-0.86488 0.86489,-0.79949 0.92494,-0.72916 0.9793,-0.65435 1.02762,-0.5755 1.06961,-0.49309 1.10499,-0.40766 1.13358,-0.3197 1.15516,-0.22977 1.16963,-0.13844 1.17689,-0.0462 1.17688,0.0462 1.16963,0.13844 1.15517,0.22977 1.13357,0.3197 1.105,0.40766 1.0696,0.49309 1.02762,0.5755 0.97931,0.65435 0.92494,0.72916 0.86488,0.79949 0.79949,0.86488 0.72916,0.92494 0.65435,0.9793 0.57549,1.02762 0.4931,1.06961 0.40765,1.105 0.31971,1.13357 0.22977,1.15516 0.13844,1.16964 z"
       fill-opacity="1"
       id="path108"
       style="fill:#e2e250;fill-opacity:1" />
    <text
       fill="#000000"
       stroke="none"
       font-family="'Helvetica Neue', Helvetica, sans-serif"
       font-size="8px"
       font-style="normal"
       font-weight="normal"
       text-decoration="normal"
       x="906.56195"
       y="-638.37579"
       text-anchor="middle"
       dominant-baseline="text-after-edge"
       fill-opacity="1"
       id="text110"
       transform="rotate(63.684712)"
       style="font-size:11.9752px">araC</text>
    <path
       fill="#81e250"
       stroke="none"
       paint-order="stroke fill markers"
       d="m 1169.9375,419.61489 -0.046,1.17689 -0.1384,1.16963 -0.2298,1.15516 -0.3197,1.13357 -0.4076,1.105 -0.4931,1.06961 -0.5755,1.02762 -0.6544,0.9793 -0.7291,0.92494 -0.7995,0.86488 -0.8649,0.79949 -0.925,0.72916 -0.9793,0.65435 -1.0276,0.5755 -1.0696,0.49309 -1.105,0.40766 -1.1336,0.3197 -1.1551,0.22977 -1.1696,0.13844 -1.1769,0.0462 -1.1769,-0.0462 -1.1696,-0.13844 -1.1552,-0.22977 -1.1336,-0.3197 -1.105,-0.40766 -1.0696,-0.49309 -1.0276,-0.5755 -0.9793,-0.65435 -0.925,-0.72916 -0.8648,-0.79949 -0.7995,-0.86488 -0.7292,-0.92494 -0.6543,-0.9793 -0.5755,-1.02762 -0.4931,-1.06961 -0.4077,-1.105 -0.3197,-1.13357 -0.2298,-1.15516 -0.1384,-1.16963 -0.046,-1.17689 0.046,-1.17689 0.1384,-1.16963 0.2298,-1.15516 0.3197,-1.13358 0.4077,-1.10499 0.4931,-1.06961 0.5755,-1.02762 0.6543,-0.9793 0.7292,-0.92494 0.7995,-0.86488 0.8648,-0.79949 0.925,-0.72917 0.9793,-0.65434 1.0276,-0.5755 1.0696,-0.49309 1.105,-0.40766 1.1336,-0.3197 1.1552,-0.22978 1.1696,-0.13843 1.1769,-0.0462 1.1769,0.0462 1.1696,0.13843 1.1551,0.22978 1.1336,0.3197 1.105,0.40766 1.0696,0.49309 1.0276,0.5755 0.9793,0.65434 0.925,0.72917 0.8649,0.79949 0.7995,0.86488 0.7291,0.92494 0.6544,0.9793 0.5755,1.02762 0.4931,1.06961 0.4076,1.10499 0.3197,1.13358 0.2298,1.15516 0.1384,1.16963 z"
       fill-opacity="1"
       id="path112"
       style="fill:#2ad4ff;fill-opacity:1" />
    <text
       fill="#000000"
       stroke="none"
       font-family="'Helvetica Neue', Helvetica, sans-serif"
       font-size="8px"
       font-style="normal"
       font-weight="normal"
       text-decoration="normal"
       x="1231.1289"
       y="-858.6748"
       text-anchor="middle"
       dominant-baseline="text-after-edge"
       fill-opacity="1"
       id="text114"
       transform="rotate(63.455991)"
       style="font-size:11.9752px">atc-tetr</text>
    <path
       fill="#8d5235"
       stroke="none"
       paint-order="stroke fill markers"
       d="m 1184.556,614.74342 -0.046,1.17689 -0.1385,1.16963 -0.2298,1.15516 -0.3197,1.13357 -0.4076,1.105 -0.4931,1.06961 -0.5755,1.02762 -0.6543,0.9793 -0.7292,0.92494 -0.7995,0.86488 -0.8649,0.79949 -0.9249,0.72916 -0.9793,0.65435 -1.0276,0.5755 -1.0696,0.49309 -1.105,0.40766 -1.1336,0.3197 -1.1552,0.22977 -1.1696,0.13844 -1.1769,0.0462 -1.1769,-0.0462 -1.1696,-0.13844 -1.1552,-0.22977 -1.1336,-0.3197 -1.105,-0.40766 -1.0696,-0.49309 -1.0276,-0.5755 -0.9793,-0.65435 -0.9249,-0.72916 -0.8649,-0.79949 -0.7995,-0.86488 -0.7292,-0.92494 -0.6543,-0.9793 -0.5755,-1.02762 -0.4931,-1.06961 -0.4076,-1.105 -0.3197,-1.13357 -0.2298,-1.15516 -0.1385,-1.16963 -0.046,-1.17689 0.046,-1.17689 0.1385,-1.16963 0.2298,-1.15516 0.3197,-1.13358 0.4076,-1.10499 0.4931,-1.06961 0.5755,-1.02762 0.6543,-0.9793 0.7292,-0.92494 0.7995,-0.86488 0.8649,-0.79949 0.9249,-0.72917 0.9793,-0.65434 1.0276,-0.5755 1.0696,-0.49309 1.105,-0.40766 1.1336,-0.3197 1.1552,-0.22978 1.1696,-0.13843 1.1769,-0.0462 1.1769,0.0462 1.1696,0.13843 1.1552,0.22978 1.1336,0.3197 1.105,0.40766 1.0696,0.49309 1.0276,0.5755 0.9793,0.65434 0.9249,0.72917 0.8649,0.79949 0.7995,0.86488 0.7292,0.92494 0.6543,0.9793 0.5755,1.02762 0.4931,1.06961 0.4076,1.10499 0.3197,1.13358 0.2298,1.15516 0.1385,1.16963 z"
       fill-opacity="1"
       id="path116"
       style="fill:#e2e250;fill-opacity:1" />
    <text
       fill="#000000"
       stroke="none"
       font-family="'Helvetica Neue', Helvetica, sans-serif"
       font-size="8px"
       font-style="normal"
       font-weight="normal"
       text-decoration="normal"
       x="1072.5122"
       y="-784.74316"
       text-anchor="middle"
       dominant-baseline="text-after-edge"
       fill-opacity="1"
       id="text118"
       transform="rotate(63.443357)"
       style="font-size:11.9752px">CI-LVA</text>
    <path
       fill="#c06335"
       stroke="none"
       paint-order="stroke fill markers"
       d="m 1178.8198,526.6758 -0.046,1.17689 -0.1384,1.16963 -0.2298,1.15516 -0.3197,1.13358 -0.4076,1.10499 -0.4931,1.06961 -0.5755,1.02762 -0.6544,0.9793 -0.7291,0.92494 -0.7995,0.86488 -0.8649,0.79949 -0.925,0.72917 -0.9793,0.65435 -1.0276,0.57549 -1.0696,0.4931 -1.105,0.40765 -1.1335,0.3197 -1.1552,0.22978 -1.1696,0.13843 -1.1769,0.0462 -1.1769,-0.0462 -1.1696,-0.13843 -1.1552,-0.22978 -1.1336,-0.3197 -1.105,-0.40765 -1.0696,-0.4931 -1.0276,-0.57549 -0.9793,-0.65435 -0.925,-0.72917 -0.8648,-0.79949 -0.7995,-0.86488 -0.7292,-0.92494 -0.6543,-0.9793 -0.5755,-1.02762 -0.4931,-1.06961 -0.4077,-1.10499 -0.3197,-1.13358 -0.2298,-1.15516 -0.1384,-1.16963 -0.046,-1.17689 0.046,-1.17688 0.1384,-1.16963 0.2298,-1.15517 0.3197,-1.13357 0.4077,-1.105 0.4931,-1.0696 0.5755,-1.02763 0.6543,-0.9793 0.7292,-0.92494 0.7995,-0.86488 0.8648,-0.79949 0.925,-0.72916 0.9793,-0.65435 1.0276,-0.57549 1.0696,-0.4931 1.105,-0.40765 1.1336,-0.31971 1.1552,-0.22977 1.1696,-0.13844 1.1769,-0.0462 1.1769,0.0462 1.1696,0.13844 1.1552,0.22977 1.1335,0.31971 1.105,0.40765 1.0696,0.4931 1.0276,0.57549 0.9793,0.65435 0.925,0.72916 0.8649,0.79949 0.7995,0.86488 0.7291,0.92494 0.6544,0.9793 0.5755,1.02763 0.4931,1.0696 0.4076,1.105 0.3197,1.13357 0.2298,1.15517 0.1384,1.16963 z"
       fill-opacity="1"
       id="path120"
       style="fill:#50e281;fill-opacity:1" />
    <text
       fill="#000000"
       stroke="none"
       font-family="'Helvetica Neue', Helvetica, sans-serif"
       font-size="8px"
       font-style="normal"
       font-weight="normal"
       text-decoration="normal"
       x="1134.645"
       y="-846.12067"
       text-anchor="middle"
       dominant-baseline="text-after-edge"
       fill-opacity="1"
       id="text122"
       transform="rotate(64.760365)"
       style="font-size:10.6446px">pTet</text>
    <path
       fill="#50e281"
       stroke="none"
       paint-order="stroke fill markers"
       d="m 1390.7048,712.44136 -0.046,1.17688 -0.1384,1.16963 -0.2298,1.15517 -0.3197,1.13357 -0.4076,1.105 -0.4931,1.0696 -0.5755,1.02763 -0.6544,0.9793 -0.7292,0.92494 -0.7994,0.86488 -0.8649,0.79949 -0.925,0.72916 -0.9793,0.65435 -1.0276,0.57549 -1.0696,0.4931 -1.105,0.40765 -1.1336,0.31971 -1.1551,0.22977 -1.1697,0.13844 -1.1768,0.0462 -1.1769,-0.0462 -1.1697,-0.13844 -1.1551,-0.22977 -1.1336,-0.31971 -1.105,-0.40765 -1.0696,-0.4931 -1.0276,-0.57549 -0.9793,-0.65435 -0.925,-0.72916 -0.8648,-0.79949 -0.7995,-0.86488 -0.7292,-0.92494 -0.6543,-0.9793 -0.5755,-1.02763 -0.4931,-1.0696 -0.4077,-1.105 -0.3197,-1.13357 -0.2298,-1.15517 -0.1384,-1.16963 -0.046,-1.17688 0.046,-1.17689 0.1384,-1.16963 0.2298,-1.15516 0.3197,-1.13358 0.4077,-1.10499 0.4931,-1.06961 0.5755,-1.02762 0.6543,-0.9793 0.7292,-0.92494 0.7995,-0.86489 0.8648,-0.79948 0.925,-0.72917 0.9793,-0.65435 1.0276,-0.57549 1.0696,-0.4931 1.105,-0.40765 1.1336,-0.3197 1.1551,-0.22978 1.1697,-0.13843 1.1769,-0.0462 1.1768,0.0462 1.1697,0.13843 1.1551,0.22978 1.1336,0.3197 1.105,0.40765 1.0696,0.4931 1.0276,0.57549 0.9793,0.65435 0.925,0.72917 0.8649,0.79948 0.7994,0.86489 0.7292,0.92494 0.6544,0.9793 0.5755,1.02762 0.4931,1.06961 0.4076,1.10499 0.3197,1.13358 0.2298,1.15516 0.1384,1.16963 z"
       fill-opacity="1"
       id="path124"
       style="fill:#a07be9;fill-opacity:1" />
    <text
       fill="#000000"
       stroke="none"
       font-family="'Helvetica Neue', Helvetica, sans-serif"
       font-size="8px"
       font-style="normal"
       font-weight="normal"
       text-decoration="normal"
       x="890.68597"
       y="-927.97729"
       text-anchor="middle"
       dominant-baseline="text-after-edge"
       fill-opacity="1"
       id="text126"
       transform="rotate(63.427128)"
       style="font-size:11.9752px">arabinose</text>
    <path
       fill="#c06335"
       stroke="none"
       paint-order="stroke fill markers"
       d="m 1251.7331,671.716 -0.046,1.17688 -0.1384,1.16964 -0.2298,1.15516 -0.3197,1.13357 -0.4077,1.105 -0.4931,1.06961 -0.5755,1.02762 -0.6543,0.9793 -0.7292,0.92494 -0.7995,0.86488 -0.8648,0.79949 -0.925,0.72916 -0.9793,0.65435 -1.0276,0.5755 -1.0696,0.49309 -1.105,0.40766 -1.1336,0.3197 -1.1551,0.22977 -1.1697,0.13844 -1.1769,0.0462 -1.1768,-0.0462 -1.1697,-0.13844 -1.1551,-0.22977 -1.1336,-0.3197 -1.105,-0.40766 -1.0696,-0.49309 -1.0276,-0.5755 -0.9793,-0.65435 -0.925,-0.72916 -0.8649,-0.79949 -0.7994,-0.86488 -0.7292,-0.92494 -0.6544,-0.9793 -0.5755,-1.02762 -0.493,-1.06961 -0.4077,-1.105 -0.3197,-1.13357 -0.2298,-1.15516 -0.1384,-1.16964 -0.046,-1.17688 0.046,-1.17689 0.1384,-1.16963 0.2298,-1.15516 0.3197,-1.13358 0.4077,-1.10499 0.493,-1.06961 0.5755,-1.02762 0.6544,-0.9793 0.7292,-0.92494 0.7994,-0.86488 0.8649,-0.79949 0.925,-0.72917 0.9793,-0.65434 1.0276,-0.5755 1.0696,-0.49309 1.105,-0.40766 1.1336,-0.3197 1.1551,-0.22978 1.1697,-0.13843 1.1768,-0.0462 1.1769,0.0462 1.1697,0.13843 1.1551,0.22978 1.1336,0.3197 1.105,0.40766 1.0696,0.49309 1.0276,0.5755 0.9793,0.65434 0.925,0.72917 0.8648,0.79949 0.7995,0.86488 0.7292,0.92494 0.6543,0.9793 0.5755,1.02762 0.4931,1.06961 0.4077,1.10499 0.3197,1.13358 0.2298,1.15516 0.1384,1.16963 z"
       fill-opacity="1"
       id="path128"
       style="fill:#50e281;fill-opacity:1" />
    <text
       fill="#000000"
       stroke="none"
       font-family="'Helvetica Neue', Helvetica, sans-serif"
       font-size="8px"
       font-style="normal"
       font-weight="normal"
       text-decoration="normal"
       x="1008.358"
       y="-797.91589"
       text-anchor="middle"
       dominant-baseline="text-after-edge"
       fill-opacity="1"
       id="text130"
       transform="rotate(62.238286)"
       style="font-size:10.6446px">PBad</text>
    <path
       fill="#c06335"
       stroke="none"
       paint-order="stroke fill markers"
       d="m 1002.4028,705.13633 -0.046,1.17689 -0.1384,1.16963 -0.2298,1.15516 -0.3197,1.13358 -0.4077,1.105 -0.4931,1.0696 -0.5755,1.02762 -0.65432,0.9793 -0.72922,0.92494 -0.79952,0.86489 -0.86482,0.79948 -0.92502,0.72917 -0.97932,0.65435 -1.02762,0.57549 -1.06962,0.4931 -1.10502,0.40765 -1.13364,0.3197 -1.15512,0.22978 -1.16972,0.13843 -1.17694,0.0462 -1.17682,-0.0462 -1.16972,-0.13843 -1.15514,-0.22978 -1.13362,-0.3197 -1.10502,-0.40765 -1.06962,-0.4931 -1.02762,-0.57549 -0.97934,-0.65435 -0.92502,-0.72917 -0.86492,-0.79948 -0.7995,-0.86489 -0.72912,-0.92494 -0.65442,-0.9793 -0.57542,-1.02762 -0.4931,-1.0696 -0.40772,-1.105 -0.3197,-1.13358 -0.2298,-1.15516 -0.1384,-1.16963 -0.046,-1.17689 0.046,-1.17688 0.1384,-1.16963 0.2298,-1.15517 0.3197,-1.13357 0.40772,-1.105 0.4931,-1.0696 0.57542,-1.02762 0.65442,-0.9793 0.72912,-0.92495 0.7995,-0.86488 0.86492,-0.79949 0.92502,-0.72916 0.97934,-0.65435 1.02762,-0.57549 1.06962,-0.4931 1.10502,-0.40765 1.13362,-0.3197 1.15514,-0.22978 1.16972,-0.13844 1.17682,-0.0462 1.17694,0.0462 1.16972,0.13844 1.15512,0.22978 1.13364,0.3197 1.10502,0.40765 1.06962,0.4931 1.02762,0.57549 0.97932,0.65435 0.92502,0.72916 0.86482,0.79949 0.79952,0.86488 0.72922,0.92495 0.65432,0.9793 0.5755,1.02762 0.4931,1.0696 0.4077,1.105 0.3197,1.13357 0.2298,1.15517 0.1384,1.16963 z"
       fill-opacity="1"
       id="path132"
       style="fill:#50e281;fill-opacity:1" />
    <text
       fill="#000000"
       stroke="none"
       font-family="'Helvetica Neue', Helvetica, sans-serif"
       font-size="8px"
       font-style="normal"
       font-weight="normal"
       text-decoration="normal"
       x="1110.3107"
       y="-582.73224"
       text-anchor="middle"
       dominant-baseline="text-after-edge"
       fill-opacity="1"
       id="text134"
       transform="rotate(63.200383)"
       style="font-size:11.9752px">BBa_J23117</text>
    <g
       transform="matrix(0.49896716,0,0,0.49896716,646.66531,243.82713)"
       id="g136" />
    <path
       fill="none"
       stroke="#e2e250"
       paint-order="fill stroke markers"
       d="m 1306.1999,732.55224 -58.0605,-51.09452"
       stroke-opacity="1"
       stroke-linejoin="round"
       stroke-miterlimit="10"
       stroke-width="3.16869"
       id="path52"
       style="stroke:#2ad4ff;stroke-width:3.77172;stroke-miterlimit:10;stroke-dasharray:none;stroke-opacity:1" />
    <path
       fill="none"
       stroke="#e2e250"
       paint-order="fill stroke markers"
       d="m 1153.7609,434.56865 7.4152,77.16619"
       stroke-opacity="1"
       stroke-linejoin="round"
       stroke-miterlimit="10"
       stroke-width="3.47711"
       id="path28-2"
       style="stroke:#2ad4ff;stroke-width:3.77172;stroke-miterlimit:10;stroke-dasharray:none;stroke-opacity:1" />
    <g
       id="g1778"
       transform="matrix(0.4197083,0.83678006,-0.83678006,0.4197083,1310.3809,139.68478)">
      <text
         xml:space="preserve"
         transform="matrix(0.53875344,0,0,0.53875344,-160.76151,178.41179)"
         id="text3637-4"
         style="font-style:normal;font-weight:normal;font-size:37.3333px;line-height:1.25;font-family:sans-serif;white-space:pre;shape-inside:url(#rect3639-3);fill:#000000;fill-opacity:1;stroke:none"><tspan
           x="1443.0723"
           y="73.013644"
           id="tspan2395">Node Color</tspan></text>
      <text
         xml:space="preserve"
         transform="matrix(0.53875344,0,0,0.53875344,-162.72393,276.70193)"
         id="text3637-7-7"
         style="font-style:normal;font-weight:normal;font-size:37.3333px;line-height:1.25;font-family:sans-serif;white-space:pre;shape-inside:url(#rect3639-5-6);fill:#000000;fill-opacity:1;stroke:none"><tspan
           x="1443.0723"
           y="73.013644"
           id="tspan2397">Edge Color</tspan></text>
      <rect
         id="rect18643-7-6"
         width="29.16246"
         height="8.8964348"
         x="620.71167"
         y="225.32191"
         style="fill:#e2e250;fill-opacity:1;stroke:none;stroke-width:0.365162;stroke-miterlimit:4;stroke-dasharray:none;stroke-opacity:1"
         ry="1.5751116" />
      <text
         xml:space="preserve"
         transform="matrix(0.53875344,0,0,0.53875344,-115.59535,202.18611)"
         id="text27183-1-5"
         style="font-style:normal;font-weight:normal;font-size:21.3333px;line-height:1.25;font-family:sans-serif;white-space:pre;shape-inside:url(#rect27185-7-7);fill:#000000;fill-opacity:1;stroke:none"><tspan
           x="1443.0723"
           y="58.857392"
           id="tspan2399">CDS</tspan></text>
      <rect
         id="rect18643-7-1-9-6"
         width="29.16246"
         height="8.8964348"
         x="620.935"
         y="240.38498"
         style="fill:#50e281;fill-opacity:1;stroke:none;stroke-width:0.365162;stroke-miterlimit:4;stroke-dasharray:none;stroke-opacity:1"
         ry="1.5751116" />
      <text
         xml:space="preserve"
         transform="matrix(0.53875344,0,0,0.53875344,-115.37206,217.24919)"
         id="text27183-1-7-8-9"
         style="font-style:normal;font-weight:normal;font-size:21.3333px;line-height:1.25;font-family:sans-serif;white-space:pre;shape-inside:url(#rect27185-7-6-9-5);fill:#000000;fill-opacity:1;stroke:none"><tspan
           x="1443.0723"
           y="58.857392"
           id="tspan2401">Promoter</tspan></text>
      <rect
         id="rect18643-7-1-9-6-6"
         width="29.16246"
         height="8.8964348"
         x="620.62817"
         y="255.78209"
         style="fill:#fa8072;fill-opacity:1;stroke:none;stroke-width:0.365162;stroke-miterlimit:4;stroke-dasharray:none;stroke-opacity:1"
         ry="1.5751116" />
      <text
         xml:space="preserve"
         transform="matrix(0.53875344,0,0,0.53875344,-115.6778,232.6463)"
         id="text27183-1-7-8-9-7"
         style="font-style:normal;font-weight:normal;font-size:21.3333px;line-height:1.25;font-family:sans-serif;white-space:pre;shape-inside:url(#rect27185-7-6-9-5-3);fill:#000000;fill-opacity:1;stroke:none"><tspan
           x="1443.0723"
           y="58.857392"
           id="tspan2403">Protein</tspan></text>
      <rect
         id="rect18643-7-1-9-6-5"
         width="29.16246"
         height="8.8964348"
         x="620.62817"
         y="270.5126"
         style="fill:#a07be9;fill-opacity:1;stroke:none;stroke-width:0.365162;stroke-miterlimit:4;stroke-dasharray:none;stroke-opacity:1"
         ry="1.5751116" />
      <text
         xml:space="preserve"
         transform="matrix(0.53875344,0,0,0.53875344,-115.67889,247.37683)"
         id="text27183-1-7-8-9-6"
         style="font-style:normal;font-weight:normal;font-size:21.3333px;line-height:1.25;font-family:sans-serif;white-space:pre;shape-inside:url(#rect27185-7-6-9-5-5);fill:#000000;fill-opacity:1;stroke:none"><tspan
           x="1443.0723"
           y="58.857392"
           id="tspan2405">Small Molecule</tspan></text>
      <rect
         id="rect18643-7-1-9-6-6-2"
         width="29.16246"
         height="8.8964348"
         x="620.32135"
         y="285.9097"
         style="fill:#2ad4ff;fill-opacity:1;stroke:none;stroke-width:0.365162;stroke-miterlimit:4;stroke-dasharray:none;stroke-opacity:1"
         ry="1.5751116" />
      <text
         xml:space="preserve"
         transform="matrix(0.53875344,0,0,0.53875344,-115.98463,262.77394)"
         id="text27183-1-7-8-9-7-9"
         style="font-style:normal;font-weight:normal;font-size:21.3333px;line-height:1.25;font-family:sans-serif;white-space:pre;shape-inside:url(#rect27185-7-6-9-5-3-3);fill:#000000;fill-opacity:1;stroke:none"><tspan
           x="1443.0723"
           y="58.857392"
           id="tspan2407">Complex</tspan></text>
      <rect
         id="rect18643-9-5"
         width="29.16246"
         height="8.8964348"
         x="619.18982"
         y="328.99731"
         style="fill:#fa8072;fill-opacity:1;stroke:none;stroke-width:0.365162;stroke-miterlimit:4;stroke-dasharray:none;stroke-opacity:1"
         ry="1.5751116" />
      <text
         xml:space="preserve"
         transform="matrix(0.53875344,0,0,0.53875344,-117.11721,305.86158)"
         id="text27183-2-2"
         style="font-style:normal;font-weight:normal;font-size:21.3333px;line-height:1.25;font-family:sans-serif;white-space:pre;shape-inside:url(#rect27185-4-5);fill:#000000;fill-opacity:1;stroke:none"><tspan
           x="1443.0723"
           y="58.857392"
           id="tspan2409">Repression</tspan></text>
      <rect
         id="rect18643-7-1-5"
         width="29.16246"
         height="8.8964348"
         x="619.61084"
         y="343.36575"
         style="fill:#2ad4ff;fill-opacity:1;stroke:none;stroke-width:0.365162;stroke-miterlimit:4;stroke-dasharray:none;stroke-opacity:1"
         ry="1.5751116" />
      <text
         xml:space="preserve"
         transform="matrix(0.53875344,0,0,0.53875344,-116.69619,320.23002)"
         id="text27183-1-1-4"
         style="font-style:normal;font-weight:normal;font-size:21.3333px;line-height:1.25;font-family:sans-serif;white-space:pre;shape-inside:url(#rect27185-7-8-6);fill:#000000;fill-opacity:1;stroke:none"><tspan
           x="1443.0723"
           y="58.857392"
           id="tspan2411">Activation</tspan></text>
      <rect
         id="rect18643-9-5-2"
         width="29.16246"
         height="8.8964348"
         x="619.61084"
         y="358.09628"
         style="fill:#a07be9;fill-opacity:1;stroke:none;stroke-width:0.365162;stroke-miterlimit:4;stroke-dasharray:none;stroke-opacity:1"
         ry="1.5751116" />
      <text
         xml:space="preserve"
         transform="matrix(0.53875344,0,0,0.53875344,-116.69618,334.96056)"
         id="text27183-2-2-3"
         style="font-style:normal;font-weight:normal;font-size:21.3333px;line-height:1.25;font-family:sans-serif;white-space:pre;shape-inside:url(#rect27185-4-5-0);fill:#000000;fill-opacity:1;stroke:none"><tspan
           x="1443.0723"
           y="58.857392"
           id="tspan2413">Bind</tspan></text>
      <rect
         id="rect18643-7-1-5-7"
         width="29.16246"
         height="8.8964348"
         x="620.03186"
         y="372.46475"
         style="fill:#e2e250;fill-opacity:1;stroke:none;stroke-width:0.365162;stroke-miterlimit:4;stroke-dasharray:none;stroke-opacity:1"
         ry="1.5751116" />
      <text
         xml:space="preserve"
         transform="matrix(0.53875344,0,0,0.53875344,-116.27516,349.32901)"
         id="text27183-1-1-4-5"
         style="font-style:normal;font-weight:normal;font-size:21.3333px;line-height:1.25;font-family:sans-serif;white-space:pre;shape-inside:url(#rect27185-7-8-6-2);fill:#000000;fill-opacity:1;stroke:none"><tspan
           x="1443.0723"
           y="58.857392"
           id="tspan2415">Protein Production</tspan></text>
    </g>
  </g>
</svg>
