<?xml version="1.0" encoding="UTF-8" standalone="no"?>
<svg
   version="1.1"
   width="1582.799"
   height="980.6037"
   id="svg44"
   sodipodi:docname="3_ppi.svg"
   inkscape:version="1.1.1 (26b7af14f2, 2022-01-19)"
   xmlns:inkscape="http://www.inkscape.org/namespaces/inkscape"
   xmlns:sodipodi="http://sodipodi.sourceforge.net/DTD/sodipodi-0.dtd"
   xmlns="http://www.w3.org/2000/svg"
   xmlns:svg="http://www.w3.org/2000/svg">
  <sodipodi:namedview
     id="namedview46"
     pagecolor="#ffffff"
     bordercolor="#666666"
     borderopacity="1.0"
     inkscape:pageshadow="2"
     inkscape:pageopacity="0.0"
     inkscape:pagecheckerboard="0"
     showgrid="false"
     inkscape:zoom="3.3744409"
     inkscape:cx="549.42435"
     inkscape:cy="886.22089"
     inkscape:window-width="2492"
     inkscape:window-height="1376"
     inkscape:window-x="1988"
     inkscape:window-y="27"
     inkscape:window-maximized="1"
     inkscape:current-layer="g42" />
  <defs
     id="defs2">
    <rect
       x="1443.0721"
       y="39.982376"
       width="235.68906"
       height="103.2741"
       id="rect3639-3" />
    <rect
       x="1443.0721"
       y="39.982376"
       width="235.68906"
       height="103.2741"
       id="rect3639-5-6" />
    <rect
       x="1443.0721"
       y="39.982376"
       width="235.68906"
       height="103.2741"
       id="rect27185-7-7" />
    <rect
       x="1443.0721"
       y="39.982376"
       width="235.68906"
       height="103.2741"
       id="rect27185-7-6-9-5" />
    <rect
       x="1443.0721"
       y="39.982376"
       width="235.68906"
       height="103.2741"
       id="rect27185-7-6-9-4-3" />
    <rect
       x="1443.0721"
       y="39.982376"
       width="235.68906"
       height="103.2741"
       id="rect27185-4-5" />
    <rect
       x="1443.0721"
       y="39.982376"
       width="235.68906"
       height="103.2741"
       id="rect27185-7-8-6" />
    <rect
       x="1443.0721"
       y="39.982376"
       width="235.68906"
       height="103.2741"
       id="rect27185-7-6-9-8-2" />
    <rect
       x="1443.0721"
       y="39.982376"
       width="235.68906"
       height="103.2741"
       id="rect27185-7-6-9-4-1-9" />
    <rect
       x="1443.0721"
       y="39.982376"
       width="235.68906"
       height="103.2741"
       id="rect27185-7-6-9-4-9-1" />
    <rect
       x="1443.0721"
       y="39.982376"
       width="235.68906"
       height="103.2741"
       id="rect27185-7-6-9-4-9-5-2" />
  </defs>
  <g
     transform="matrix(2.994045,-5.3108844,5.3108844,2.994045,-6096.4463,4494.6466)"
     id="g42">
    <path
       fill="none"
       stroke="#50e2e2"
       paint-order="fill stroke markers"
       d="m 1126.7685,546.91493 q 14.7315,39.27037 0,78.54074"
       stroke-opacity="1"
       stroke-linejoin="round"
       stroke-miterlimit="10"
       stroke-width="3"
       id="path4"
       style="stroke:#fa8072;stroke-width:2.95241;stroke-miterlimit:10;stroke-dasharray:none;stroke-opacity:1" />
    <path
       fill="#50e2e2"
       stroke="none"
       paint-order="stroke fill markers"
       d="m 1129.7842,577.4853 4.35,8.7 4.35,-8.7 z"
       fill-opacity="1"
       id="path6"
       style="fill:#fa8072;fill-opacity:1" />
    <path
       fill="none"
       stroke="#50e2e2"
       paint-order="fill stroke markers"
       d="m 1116.2315,625.45567 q -14.7315,-39.27037 0,-78.54074"
       stroke-opacity="1"
       stroke-linejoin="round"
       stroke-miterlimit="10"
       stroke-width="3"
       id="path8"
       style="stroke:#fa8072;stroke-width:2.95241;stroke-miterlimit:10;stroke-dasharray:none;stroke-opacity:1" />
    <path
       fill="#50e2e2"
       stroke="none"
       paint-order="stroke fill markers"
       d="m 1113.2158,594.8853 -4.35,-8.7 -4.35,8.7 z"
       fill-opacity="1"
       id="path10"
       style="fill:#fa8072;fill-opacity:1" />
    <path
       fill="none"
       stroke="#50e2e2"
       paint-order="fill stroke markers"
       d="m 1136.297,641.95954 q 41.3749,6.8773 68.0183,39.27037"
       stroke-opacity="1"
       stroke-linejoin="round"
       stroke-miterlimit="10"
       stroke-width="3"
       id="path12"
       style="stroke:#fa8072;stroke-width:2.95241;stroke-miterlimit:10;stroke-dasharray:none;stroke-opacity:1" />
    <path
       fill="#50e2e2"
       stroke="none"
       paint-order="stroke fill markers"
       d="m 1164.2796,654.63299 9.7094,0.58279 -5.3594,-8.11721 z"
       fill-opacity="1"
       id="path14"
       style="fill:#fa8072;fill-opacity:1" />
    <path
       fill="none"
       stroke="#50e2e2"
       paint-order="fill stroke markers"
       d="m 1108.6226,647.22824 -36.2728,20.76726"
       stroke-opacity="1"
       stroke-linejoin="round"
       stroke-miterlimit="10"
       stroke-width="2.23197"
       id="path16"
       style="stroke:#fa8072;stroke-width:2.95241;stroke-miterlimit:10;stroke-dasharray:none;stroke-opacity:1" />
    <path
       fill="#50e2e2"
       stroke="none"
       paint-order="stroke fill markers"
       d="m 1092.2768,651.68373 -5.3594,8.11721 9.7094,-0.58279 z"
       fill-opacity="1"
       id="path18"
       style="fill:#fa8072;fill-opacity:1" />
    <path
       fill="none"
       stroke="#50e2e2"
       paint-order="fill stroke markers"
       d="m 1199.0468,690.35516 q -41.3749,-6.8773 -68.0183,-39.27037"
       stroke-opacity="1"
       stroke-linejoin="round"
       stroke-miterlimit="10"
       stroke-width="3"
       id="path20"
       style="stroke:#fa8072;stroke-width:2.95241;stroke-miterlimit:10;stroke-dasharray:none;stroke-opacity:1" />
    <path
       fill="#50e2e2"
       stroke="none"
       paint-order="stroke fill markers"
       d="m 1171.0642,677.68171 -9.7094,-0.58279 5.3594,8.11721 z"
       fill-opacity="1"
       id="path22"
       style="fill:#fa8072;fill-opacity:1" />
    <path
       fill="#e28150"
       stroke="none"
       paint-order="stroke fill markers"
       d="m 1136.5,532.8706 -0.046,1.17688 -0.1385,1.16963 -0.2298,1.15517 -0.3197,1.13357 -0.4076,1.105 -0.4931,1.0696 -0.5755,1.02763 -0.6543,0.9793 -0.7292,0.92494 -0.7995,0.86488 -0.8649,0.79949 -0.9249,0.72916 -0.9793,0.65435 -1.0276,0.57549 -1.0696,0.4931 -1.105,0.40765 -1.1336,0.31971 -1.1552,0.22977 -1.1696,0.13844 -1.1769,0.0462 -1.1769,-0.0462 -1.1696,-0.13844 -1.1552,-0.22977 -1.1336,-0.31971 -1.105,-0.40765 -1.0696,-0.4931 -1.0276,-0.57549 -0.9793,-0.65435 -0.9249,-0.72916 -0.8649,-0.79949 -0.7995,-0.86488 -0.7292,-0.92494 -0.6543,-0.9793 -0.5755,-1.02763 -0.4931,-1.0696 -0.4076,-1.105 -0.3197,-1.13357 -0.2298,-1.15517 -0.1385,-1.16963 -0.046,-1.17688 0.046,-1.17689 0.1385,-1.16963 0.2298,-1.15516 0.3197,-1.13358 0.4076,-1.10499 0.4931,-1.06961 0.5755,-1.02762 0.6543,-0.9793 0.7292,-0.92494 0.7995,-0.86489 0.8649,-0.79948 0.9249,-0.72917 0.9793,-0.65435 1.0276,-0.57549 1.0696,-0.4931 1.105,-0.40765 1.1336,-0.3197 1.1552,-0.22978 1.1696,-0.13843 1.1769,-0.0462 1.1769,0.0462 1.1696,0.13843 1.1552,0.22978 1.1336,0.3197 1.105,0.40765 1.0696,0.4931 1.0276,0.57549 0.9793,0.65435 0.9249,0.72917 0.8649,0.79948 0.7995,0.86489 0.7292,0.92494 0.6543,0.9793 0.5755,1.02762 0.4931,1.06961 0.4076,1.10499 0.3197,1.13358 0.2298,1.15516 0.1385,1.16963 z"
       fill-opacity="1"
       id="path24"
       style="fill:#fa8072;fill-opacity:1" />
    <text
       fill="#000000"
       stroke="none"
       font-family="'Helvetica Neue', Helvetica, sans-serif"
       font-size="8px"
       font-style="normal"
       font-weight="normal"
       text-decoration="normal"
       x="1029.6104"
       y="-709.59772"
       text-anchor="middle"
       dominant-baseline="text-after-edge"
       fill-opacity="1"
       id="text26"
       transform="rotate(59.502658)">AraC</text>
    <path
       fill="#e28150"
       stroke="none"
       paint-order="stroke fill markers"
       d="m 1136.5,639.5 -0.046,1.17689 -0.1385,1.16963 -0.2298,1.15516 -0.3197,1.13357 -0.4076,1.105 -0.4931,1.06961 -0.5755,1.02762 -0.6543,0.9793 -0.7292,0.92494 -0.7995,0.86488 -0.8649,0.79949 -0.9249,0.72916 -0.9793,0.65435 -1.0276,0.5755 -1.0696,0.49309 -1.105,0.40766 -1.1336,0.3197 -1.1552,0.22978 -1.1696,0.13843 -1.1769,0.0462 -1.1769,-0.0462 -1.1696,-0.13843 -1.1552,-0.22978 -1.1336,-0.3197 -1.105,-0.40766 -1.0696,-0.49309 -1.0276,-0.5755 -0.9793,-0.65435 -0.9249,-0.72916 -0.8649,-0.79949 -0.7995,-0.86488 -0.7292,-0.92494 -0.6543,-0.9793 -0.5755,-1.02762 -0.4931,-1.06961 -0.4076,-1.105 -0.3197,-1.13357 -0.2298,-1.15516 -0.1385,-1.16963 -0.046,-1.17689 0.046,-1.17689 0.1385,-1.16963 0.2298,-1.15516 0.3197,-1.13357 0.4076,-1.105 0.4931,-1.06961 0.5755,-1.02762 0.6543,-0.9793 0.7292,-0.92494 0.7995,-0.86488 0.8649,-0.79949 0.9249,-0.72916 0.9793,-0.65435 1.0276,-0.5755 1.0696,-0.49309 1.105,-0.40766 1.1336,-0.3197 1.1552,-0.22978 1.1696,-0.13843 1.1769,-0.0462 1.1769,0.0462 1.1696,0.13843 1.1552,0.22978 1.1336,0.3197 1.105,0.40766 1.0696,0.49309 1.0276,0.5755 0.9793,0.65435 0.9249,0.72916 0.8649,0.79949 0.7995,0.86488 0.7292,0.92494 0.6543,0.9793 0.5755,1.02762 0.4931,1.06961 0.4076,1.105 0.3197,1.13357 0.2298,1.15516 0.1385,1.16963 z"
       fill-opacity="1"
       id="path28"
       style="fill:#fa8072;fill-opacity:1" />
    <text
       fill="#000000"
       stroke="none"
       font-family="'Helvetica Neue', Helvetica, sans-serif"
       font-size="8px"
       font-style="normal"
       font-weight="normal"
       text-decoration="normal"
       x="1119.9314"
       y="-656.37482"
       text-anchor="middle"
       dominant-baseline="text-after-edge"
       fill-opacity="1"
       id="text30"
       transform="rotate(59.502658)">CI-LVA</text>
    <path
       fill="#e28150"
       stroke="none"
       paint-order="stroke fill markers"
       d="m 1227.1525,694.01951 -0.046,1.17689 -0.1384,1.16963 -0.2298,1.15516 -0.3197,1.13358 -0.4076,1.10499 -0.4931,1.06961 -0.5755,1.02762 -0.6544,0.9793 -0.7291,0.92494 -0.7995,0.86488 -0.8649,0.79949 -0.9249,0.72917 -0.9793,0.65434 -1.0277,0.5755 -1.0696,0.49309 -1.105,0.40766 -1.1335,0.3197 -1.1552,0.22978 -1.1696,0.13843 -1.1769,0.0462 -1.1769,-0.0462 -1.1696,-0.13843 -1.1552,-0.22978 -1.1336,-0.3197 -1.105,-0.40766 -1.0696,-0.49309 -1.0276,-0.5755 -0.9793,-0.65434 -0.9249,-0.72917 -0.8649,-0.79949 -0.7995,-0.86488 -0.7292,-0.92494 -0.6543,-0.9793 -0.5755,-1.02762 -0.4931,-1.06961 -0.4077,-1.10499 -0.3197,-1.13358 -0.2298,-1.15516 -0.1384,-1.16963 -0.046,-1.17689 0.046,-1.17688 0.1384,-1.16964 0.2298,-1.15516 0.3197,-1.13357 0.4077,-1.105 0.4931,-1.06961 0.5755,-1.02762 0.6543,-0.9793 0.7292,-0.92494 0.7995,-0.86488 0.8649,-0.79949 0.9249,-0.72916 0.9793,-0.65435 1.0276,-0.5755 1.0696,-0.49309 1.105,-0.40766 1.1336,-0.3197 1.1552,-0.22977 1.1696,-0.13844 1.1769,-0.0462 1.1769,0.0462 1.1696,0.13844 1.1552,0.22977 1.1335,0.3197 1.105,0.40766 1.0696,0.49309 1.0277,0.5755 0.9793,0.65435 0.9249,0.72916 0.8649,0.79949 0.7995,0.86488 0.7291,0.92494 0.6544,0.9793 0.5755,1.02762 0.4931,1.06961 0.4076,1.105 0.3197,1.13357 0.2298,1.15516 0.1384,1.16964 z"
       fill-opacity="1"
       id="path32"
       style="fill:#fa8072;fill-opacity:1" />
    <text
       fill="#000000"
       stroke="none"
       font-family="'Helvetica Neue', Helvetica, sans-serif"
       font-size="8px"
       font-style="normal"
       font-weight="normal"
       text-decoration="normal"
       x="1213.0791"
       y="-706.15295"
       text-anchor="middle"
       dominant-baseline="text-after-edge"
       fill-opacity="1"
       id="text34"
       transform="rotate(59.502658)">TetR</text>
    <path
       fill="#e28150"
       stroke="none"
       paint-order="stroke fill markers"
       d="m 1074.7368,675.577 -0.046,1.17689 -0.1384,1.16963 -0.2298,1.15516 -0.3197,1.13358 -0.4077,1.10499 -0.4931,1.06961 -0.5755,1.02762 -0.6543,0.9793 -0.7292,0.92494 -0.7995,0.86488 -0.8649,0.79949 -0.9249,0.72917 -0.9793,0.65434 -1.0276,0.5755 -1.0696,0.49309 -1.105,0.40766 -1.1336,0.3197 -1.1552,0.22978 -1.1696,0.13843 -1.1769,0.0462 -1.1769,-0.0462 -1.1696,-0.13843 -1.1552,-0.22978 -1.1335,-0.3197 -1.105,-0.40766 -1.0696,-0.49309 -1.0277,-0.5755 -0.9793,-0.65434 -0.9249,-0.72917 -0.8649,-0.79949 -0.7995,-0.86488 -0.7291,-0.92494 -0.6544,-0.9793 -0.5755,-1.02762 -0.4931,-1.06961 -0.4076,-1.10499 -0.3197,-1.13358 -0.2298,-1.15516 -0.1384,-1.16963 -0.046,-1.17689 0.046,-1.17688 0.1384,-1.16964 0.2298,-1.15516 0.3197,-1.13357 0.4076,-1.105 0.4931,-1.06961 0.5755,-1.02762 0.6544,-0.9793 0.7291,-0.92494 0.7995,-0.86488 0.8649,-0.79949 0.9249,-0.72916 0.9793,-0.65435 1.0277,-0.5755 1.0696,-0.49309 1.105,-0.40766 1.1335,-0.3197 1.1552,-0.22977 1.1696,-0.13844 1.1769,-0.0462 1.1769,0.0462 1.1696,0.13844 1.1552,0.22977 1.1336,0.3197 1.105,0.40766 1.0696,0.49309 1.0276,0.5755 0.9793,0.65435 0.9249,0.72916 0.8649,0.79949 0.7995,0.86488 0.7292,0.92494 0.6543,0.9793 0.5755,1.02762 0.4931,1.06961 0.4077,1.105 0.3197,1.13357 0.2298,1.15516 0.1384,1.16964 z"
       fill-opacity="1"
       id="path36"
       style="fill:#fa8072;fill-opacity:1" />
    <text
       fill="#000000"
       stroke="none"
       font-family="'Helvetica Neue', Helvetica, sans-serif"
       font-size="8px"
       font-style="normal"
       font-weight="normal"
       text-decoration="normal"
       x="1120.7737"
       y="-599.69818"
       text-anchor="middle"
       dominant-baseline="text-after-edge"
       fill-opacity="1"
       id="text38"
       transform="rotate(60.329439)">YFP</text>
    <g
       transform="matrix(0.16402306,0,0,0.16402306,951.6554,503.9499)"
       id="g40" />
    <text
       xml:space="preserve"
       transform="matrix(0.19270236,0.34181847,-0.34181847,0.19270236,906.69926,191.60495)"
       id="text3637-4"
       style="font-style:normal;font-weight:normal;font-size:37.3333px;line-height:1.25;font-family:sans-serif;white-space:pre;shape-inside:url(#rect3639-3);fill:#000000;fill-opacity:1;stroke:none"><tspan
         x="1443.0723"
         y="73.013644"
         id="tspan2543">Node Color</tspan></text>
    <text
       xml:space="preserve"
       transform="matrix(0.19270236,0.34181847,-0.34181847,0.19270236,881.48708,205.64931)"
       id="text3637-7-7"
       style="font-style:normal;font-weight:normal;font-size:37.3333px;line-height:1.25;font-family:sans-serif;white-space:pre;shape-inside:url(#rect3639-5-6);fill:#000000;fill-opacity:1;stroke:none"><tspan
         x="1443.0723"
         y="73.013644"
         id="tspan2545">Edge Color</tspan></text>
    <rect
       id="rect18643-7-1-9-4-37"
       width="21.240164"
       height="6.4796224"
       x="1181.6002"
       y="-660.18542"
       style="fill:#fa8072;fill-opacity:1;stroke:none;stroke-width:0.265962;stroke-miterlimit:4;stroke-dasharray:none;stroke-opacity:1"
       ry="1.1472156"
       transform="rotate(60.587592)" />
    <text
       xml:space="preserve"
       transform="matrix(0.19270236,0.34181847,-0.34181847,0.19270236,906.68104,229.65529)"
       id="text27183-1-7-8-1-4"
       style="font-style:normal;font-weight:normal;font-size:21.3333px;line-height:1.25;font-family:sans-serif;white-space:pre;shape-inside:url(#rect27185-7-6-9-4-3);fill:#000000;fill-opacity:1;stroke:none"><tspan
         x="1443.0723"
         y="58.857392"
         id="tspan2547">Protein</tspan></text>
    <rect
       id="rect18643-9-5"
       width="21.240164"
       height="6.4796224"
       x="1181.4536"
       y="-632.58582"
       style="fill:#fa8072;fill-opacity:1;stroke:none;stroke-width:0.265962;stroke-miterlimit:4;stroke-dasharray:none;stroke-opacity:1"
       ry="1.1472156"
       transform="rotate(60.587592)" />
    <text
       xml:space="preserve"
       transform="matrix(0.19270236,0.34181847,-0.34181847,0.19270236,882.56563,243.08223)"
       id="text27183-2-2"
       style="font-style:normal;font-weight:normal;font-size:21.3333px;line-height:1.25;font-family:sans-serif;white-space:pre;shape-inside:url(#rect27185-4-5);fill:#000000;fill-opacity:1;stroke:none"><tspan
         x="1443.0723"
         y="58.857392"
         id="tspan2549">Repression</tspan></text>
  </g>
</svg>
