<?xml version="1.0" encoding="UTF-8" standalone="no"?>
<svg
   version="1.1"
   width="1497.2091"
   height="899.47119"
   id="svg48"
   sodipodi:docname="4_io.svg"
   inkscape:version="1.1.1 (26b7af14f2, 2022-01-19)"
   xmlns:inkscape="http://www.inkscape.org/namespaces/inkscape"
   xmlns:sodipodi="http://sodipodi.sourceforge.net/DTD/sodipodi-0.dtd"
   xmlns="http://www.w3.org/2000/svg"
   xmlns:svg="http://www.w3.org/2000/svg">
  <sodipodi:namedview
     id="namedview50"
     pagecolor="#ffffff"
     bordercolor="#666666"
     borderopacity="1.0"
     inkscape:pageshadow="2"
     inkscape:pageopacity="0.0"
     inkscape:pagecheckerboard="0"
     showgrid="false"
     inkscape:zoom="0.42180512"
     inkscape:cx="386.43438"
     inkscape:cy="254.85703"
     inkscape:window-width="2492"
     inkscape:window-height="1376"
     inkscape:window-x="1988"
     inkscape:window-y="27"
     inkscape:window-maximized="1"
     inkscape:current-layer="g46" />
  <defs
     id="defs2">
    <rect
       x="1443.0721"
       y="39.982376"
       width="235.68906"
       height="103.2741"
       id="rect3639-3" />
    <rect
       x="1443.0721"
       y="39.982376"
       width="235.68906"
       height="103.2741"
       id="rect27185-7-7" />
    <rect
       x="1443.0721"
       y="39.982376"
       width="235.68906"
       height="103.2741"
       id="rect27185-7-6-9-5" />
    <rect
       x="1443.0721"
       y="39.982376"
       width="235.68906"
       height="103.2741"
       id="rect27185-7-6-9-4-3" />
    <rect
       x="1443.0721"
       y="39.982376"
       width="235.68906"
       height="103.2741"
       id="rect27185-7-6-9-4-9-1" />
    <rect
       x="1443.0721"
       y="39.982376"
       width="235.68906"
       height="103.2741"
       id="rect27185-7-6-9-4-9-5-2" />
    <rect
       x="1443.0721"
       y="39.982376"
       width="235.68906"
       height="103.2741"
       id="rect3639-7" />
    <rect
       x="1443.0721"
       y="39.982376"
       width="235.68906"
       height="103.2741"
       id="rect27598" />
    <rect
       x="1443.0721"
       y="39.982376"
       width="235.68906"
       height="103.2741"
       id="rect3639-3-5" />
    <rect
       x="1443.0721"
       y="39.982376"
       width="235.68906"
       height="103.2741"
       id="rect3639-5-6" />
    <rect
       x="1443.0721"
       y="39.982376"
       width="235.68906"
       height="103.2741"
       id="rect27185-7-7-3" />
    <rect
       x="1443.0721"
       y="39.982376"
       width="235.68906"
       height="103.2741"
       id="rect27185-7-6-9-5-5" />
    <rect
       x="1443.0721"
       y="39.982376"
       width="235.68906"
       height="103.2741"
       id="rect27185-7-6-9-4-3-6" />
    <rect
       x="1443.0721"
       y="39.982376"
       width="235.68906"
       height="103.2741"
       id="rect27185-4-5" />
    <rect
       x="1443.0721"
       y="39.982376"
       width="235.68906"
       height="103.2741"
       id="rect27185-7-8-6" />
    <rect
       x="1443.0721"
       y="39.982376"
       width="235.68906"
       height="103.2741"
       id="rect27185-7-6-9-8-2" />
    <rect
       x="1443.0721"
       y="39.982376"
       width="235.68906"
       height="103.2741"
       id="rect27185-7-6-9-4-1-9" />
    <rect
       x="1443.0721"
       y="39.982376"
       width="235.68906"
       height="103.2741"
       id="rect27185-7-6-9-4-9-1-2" />
    <rect
       x="1443.0721"
       y="39.982376"
       width="235.68906"
       height="103.2741"
       id="rect27185-7-6-9-4-9-5-2-9" />
  </defs>
  <g
     transform="matrix(6.234799,0,0,6.234799,-696.08964,159.81234)"
     id="g46">
    <path
       fill="none"
       stroke="#50e2e2"
       paint-order="fill stroke markers"
       d="m 144.29305,48.375601 48.03923,42.701543"
       stroke-opacity="1"
       stroke-linejoin="round"
       stroke-miterlimit="10"
       stroke-width="3"
       id="path16"
       style="stroke:#fa8072;stroke-width:4.24339;stroke-miterlimit:10;stroke-dasharray:none;stroke-opacity:1" />
    <path
       fill="#50e2e2"
       stroke="none"
       paint-order="stroke fill markers"
       d="m 161.26872,70.510855 11.21711,3.019992 -4.31428,-10.785687 z"
       fill-opacity="1"
       id="path18"
       style="fill:#fa8072;fill-opacity:1;stroke-width:1.19427" />
    <path
       fill="none"
       stroke="#50e2e2"
       paint-order="fill stroke markers"
       d="M 260.90253,47.588447 212.4818,91.414308"
       stroke-opacity="1"
       stroke-linejoin="round"
       stroke-miterlimit="10"
       stroke-width="2.10604"
       id="path16-3"
       style="stroke:#fa8072;stroke-width:4.24339;stroke-miterlimit:10;stroke-dasharray:none;stroke-opacity:1" />
    <path
       fill="#50e2e2"
       stroke="none"
       paint-order="stroke fill markers"
       d="m 240.42743,58.87192 -3.06276,10.856889 10.52319,-4.06388 z"
       fill-opacity="1"
       id="path18-6"
       style="fill:#fa8072;fill-opacity:1;stroke-width:1.15974" />
    <path
       fill="#50e2e2"
       stroke="none"
       paint-order="stroke fill markers"
       d="m 218.27751,100.74345 -0.0462,1.17688 -0.13843,1.16964 -0.22978,1.15516 -0.3197,1.13357 -0.40766,1.105 -0.49309,1.06961 -0.5755,1.02762 -0.65435,0.9793 -0.72916,0.92494 -0.79949,0.86488 -0.86488,0.79949 -0.92494,0.72916 -0.9793,0.65435 -1.02762,0.5755 -1.06961,0.49309 -1.105,0.40766 -1.13357,0.3197 -1.15516,0.22978 -1.16963,0.13843 -1.17693,0.0462 -1.17689,-0.0462 -1.16963,-0.13843 -1.15516,-0.22978 -1.13357,-0.3197 -1.105,-0.40766 -1.06961,-0.49309 -1.02762,-0.5755 -0.9793,-0.65435 -0.92494,-0.72916 -0.86488,-0.79949 -0.79949,-0.86488 -0.72916,-0.92494 -0.65435,-0.9793 -0.5755,-1.02762 -0.49309,-1.06961 -0.40766,-1.105 -0.3197,-1.13357 -0.22978,-1.15516 -0.13843,-1.16964 -0.0462,-1.17692 0.0462,-1.17689 0.13843,-1.16963 0.22978,-1.15516 0.3197,-1.133577 0.40766,-1.104996 0.49309,-1.069606 0.5755,-1.027621 0.65435,-0.979301 0.72916,-0.924942 0.79949,-0.864881 0.86488,-0.799487 0.92494,-0.729166 0.9793,-0.654347 1.02762,-0.575496 1.06961,-0.493095 1.105,-0.407655 1.13357,-0.319701 1.15516,-0.229776 1.16963,-0.138435 1.17693,-0.04624 1.17689,0.04624 1.16963,0.138435 1.15516,0.229776 1.13357,0.319701 1.105,0.407655 1.06961,0.493095 1.02762,0.575496 0.9793,0.654347 0.92494,0.729166 0.86488,0.799487 0.79949,0.864881 0.72916,0.924942 0.65435,0.979301 0.5755,1.027621 0.49309,1.069606 0.40766,1.104996 0.3197,1.133577 0.22978,1.15516 0.13843,1.16963 z"
       fill-opacity="1"
       id="path24"
       style="fill:#fa8072;fill-opacity:1" />
    <text
       fill="#000000"
       stroke="none"
       font-family="'Helvetica Neue', Helvetica, sans-serif"
       font-size="8px"
       font-style="normal"
       font-weight="normal"
       text-decoration="normal"
       x="202.67215"
       y="86.986526"
       text-anchor="middle"
       dominant-baseline="text-after-edge"
       fill-opacity="1"
       id="text26">YFP</text>
    <path
       fill="#50e2e2"
       stroke="none"
       paint-order="stroke fill markers"
       d="m 151.02796,38.292343 -0.0462,1.176887 -0.13843,1.16963 -0.22978,1.155164 -0.3197,1.133574 -0.40766,1.104997 -0.49309,1.069606 -0.5755,1.027621 -0.65435,0.9793 -0.72916,0.924942 -0.79949,0.864881 -0.86488,0.799488 -0.92494,0.729165 -0.9793,0.654348 -1.02762,0.575495 -1.06961,0.493095 -1.105,0.407655 -1.13357,0.319701 -1.15516,0.229776 -1.16963,0.138435 -1.17689,0.04624 -1.17689,-0.04624 -1.16963,-0.138435 -1.15516,-0.229776 -1.13357,-0.319701 -1.105,-0.407655 -1.06961,-0.493095 -1.02762,-0.575495 -0.9793,-0.654348 -0.92494,-0.729165 -0.86488,-0.799488 -0.79949,-0.864881 -0.72916,-0.924942 -0.65435,-0.9793 -0.57554,-1.027621 -0.49309,-1.069606 -0.40766,-1.104997 -0.3197,-1.133574 -0.22977,-1.155164 -0.13844,-1.16963 -0.0462,-1.176887 0.0462,-1.176886 0.13844,-1.169631 0.22977,-1.155163 0.3197,-1.133575 0.40766,-1.104996 0.49309,-1.069605 0.5755,-1.027621 0.65435,-0.979299 0.72916,-0.924942 0.79949,-0.864881 0.86488,-0.799488 0.92494,-0.729165 0.9793,-0.654348 1.02762,-0.575495 1.06961,-0.493095 1.105,-0.407655 1.13357,-0.319701 1.15516,-0.229776 1.16963,-0.138435 1.17689,-0.04624 1.17689,0.04624 1.16963,0.138435 1.15516,0.229776 1.13357,0.319701 1.105,0.407655 1.06961,0.493095 1.02762,0.575495 0.9793,0.654348 0.92494,0.729165 0.86488,0.799488 0.79949,0.864881 0.72916,0.924942 0.65435,0.979299 0.5755,1.027621 0.49309,1.069605 0.40766,1.104996 0.3197,1.133575 0.22978,1.155163 0.13843,1.169631 z"
       fill-opacity="1"
       id="path32"
       style="fill:#a07be9;fill-opacity:1" />
    <text
       fill="#000000"
       stroke="none"
       font-family="'Helvetica Neue', Helvetica, sans-serif"
       font-size="8px"
       font-style="normal"
       font-weight="normal"
       text-decoration="normal"
       x="136.02795"
       y="23.292345"
       text-anchor="middle"
       dominant-baseline="text-after-edge"
       fill-opacity="1"
       id="text34">arabinose</text>
    <path
       fill="#50e2e2"
       stroke="none"
       paint-order="stroke fill markers"
       d="m 284.19763,38.462058 -0.0462,1.176886 -0.13843,1.169631 -0.22978,1.155164 -0.3197,1.133574 -0.40765,1.104997 -0.4931,1.069606 -0.57549,1.027621 -0.65435,0.9793 -0.72917,0.924942 -0.79948,0.864881 -0.86489,0.799488 -0.92494,0.729165 -0.9793,0.654348 -1.02762,0.575495 -1.0696,0.493095 -1.105,0.407655 -1.13358,0.319701 -1.15516,0.229776 -1.16963,0.138435 -1.17689,0.04624 -1.17688,-0.04624 -1.16963,-0.138435 -1.15517,-0.229776 -1.13357,-0.319701 -1.105,-0.407655 -1.0696,-0.493095 -1.02762,-0.575495 -0.9793,-0.654348 -0.92495,-0.729165 -0.86488,-0.799488 -0.79949,-0.864881 -0.72916,-0.924942 -0.65435,-0.9793 -0.57549,-1.027621 -0.4931,-1.069606 -0.40765,-1.104997 -0.3197,-1.133574 -0.22978,-1.155164 -0.13844,-1.169631 -0.0462,-1.176886 0.0462,-1.176886 0.13844,-1.169631 0.22978,-1.155163 0.3197,-1.133575 0.40765,-1.104996 0.4931,-1.069606 0.57549,-1.02762 0.65435,-0.979299 0.72916,-0.924942 0.79949,-0.864881 0.86488,-0.799487 0.92495,-0.729166 0.9793,-0.654347 1.02762,-0.575496 1.0696,-0.493095 1.105,-0.407655 1.13357,-0.319701 1.15517,-0.229776 1.16963,-0.138435 1.17688,-0.04624 1.17689,0.04624 1.16963,0.138435 1.15516,0.229776 1.13358,0.319701 1.105,0.407655 1.0696,0.493095 1.02762,0.575496 0.9793,0.654347 0.92494,0.729166 0.86489,0.799487 0.79948,0.864881 0.72917,0.924942 0.65435,0.979299 0.57549,1.02762 0.4931,1.069606 0.40765,1.104996 0.3197,1.133575 0.22978,1.155163 0.13843,1.169631 z"
       fill-opacity="1"
       id="path40"
       style="fill:#a07be9;fill-opacity:1" />
    <text
       fill="#000000"
       stroke="none"
       font-family="'Helvetica Neue', Helvetica, sans-serif"
       font-size="8px"
       font-style="normal"
       font-weight="normal"
       text-decoration="normal"
       x="269.30713"
       y="24.711964"
       text-anchor="middle"
       dominant-baseline="text-after-edge"
       fill-opacity="1"
       id="text42">ATC</text>
    <g
       transform="matrix(0.16039009,0,0,0.16039009,-38.2915,-62.32036)"
       id="g44" />
    <text
       xml:space="preserve"
       transform="matrix(0.29141154,0,0,0.29141154,-139.92616,-38.643575)"
       id="text3637-4-1"
       style="font-style:normal;font-weight:normal;font-size:37.3333px;line-height:1.25;font-family:sans-serif;white-space:pre;shape-inside:url(#rect3639-3-5);fill:#000000;fill-opacity:1;stroke:none"><tspan
         x="1443.0723"
         y="73.013644"
         id="tspan2531">Node Color</tspan></text>
    <text
       xml:space="preserve"
       transform="matrix(0.29141154,0,0,0.29141154,-140.03557,-12.843901)"
       id="text3637-7-7"
       style="font-style:normal;font-weight:normal;font-size:37.3333px;line-height:1.25;font-family:sans-serif;white-space:pre;shape-inside:url(#rect3639-5-6);fill:#000000;fill-opacity:1;stroke:none"><tspan
         x="1443.0723"
         y="73.013644"
         id="tspan2533">Edge Color</tspan></text>
    <rect
       id="rect18643-7-1-9-4-37-3"
       width="15.773965"
       height="4.812078"
       x="282.95151"
       y="-14.920696"
       style="fill:#fa8072;fill-opacity:1;stroke:none;stroke-width:0.197516;stroke-miterlimit:4;stroke-dasharray:none;stroke-opacity:1"
       ry="0.85197735" />
    <text
       xml:space="preserve"
       transform="matrix(0.29141154,0,0,0.29141154,-115.317,-27.434839)"
       id="text27183-1-7-8-1-4-6"
       style="font-style:normal;font-weight:normal;font-size:21.3333px;line-height:1.25;font-family:sans-serif;white-space:pre;shape-inside:url(#rect27185-7-6-9-4-3-6);fill:#000000;fill-opacity:1;stroke:none"><tspan
         x="1443.0723"
         y="58.857392"
         id="tspan2535">Protein</tspan></text>
    <rect
       id="rect18643-9-5"
       width="15.773965"
       height="4.812078"
       x="282.90158"
       y="15.442701"
       style="fill:#fa8072;fill-opacity:1;stroke:none;stroke-width:0.197516;stroke-miterlimit:4;stroke-dasharray:none;stroke-opacity:1"
       ry="0.85197735" />
    <text
       xml:space="preserve"
       transform="matrix(0.29141154,0,0,0.29141154,-115.36691,2.9285407)"
       id="text27183-2-2"
       style="font-style:normal;font-weight:normal;font-size:21.3333px;line-height:1.25;font-family:sans-serif;white-space:pre;shape-inside:url(#rect27185-4-5);fill:#000000;fill-opacity:1;stroke:none"><tspan
         x="1443.0723"
         y="58.857392"
         id="tspan2537">Repression</tspan></text>
    <rect
       id="rect18643-7-1-9-4-1-0-0"
       width="15.773965"
       height="4.812078"
       x="282.98328"
       y="-7.0952258"
       style="fill:#a07be9;fill-opacity:1;stroke:none;stroke-width:0.197516;stroke-miterlimit:4;stroke-dasharray:none;stroke-opacity:1"
       ry="0.85197735" />
    <text
       xml:space="preserve"
       transform="matrix(0.29141154,0,0,0.29141154,-115.28529,-19.609369)"
       id="text27183-1-7-8-1-7-7-6"
       style="font-style:normal;font-weight:normal;font-size:21.3333px;line-height:1.25;font-family:sans-serif;white-space:pre;shape-inside:url(#rect27185-7-6-9-4-9-1-2);fill:#000000;fill-opacity:1;stroke:none"><tspan
         x="1443.0723"
         y="58.857392"
         id="tspan2539">Small Molecule</tspan></text>
  </g>
</svg>
