<?xml version="1.0" encoding="UTF-8" standalone="no"?>
<svg
   version="1.1"
   width="1120.936"
   height="1057.9004"
   id="svg768"
   sodipodi:docname="full_example (2) (3rd copy).svg"
   inkscape:export-filename="/home/mcrowther/Downloads/cyto (4).png"
   inkscape:export-xdpi="96"
   inkscape:export-ydpi="96"
   inkscape:version="1.1.1 (26b7af14f2, 2022-01-19)"
   xmlns:inkscape="http://www.inkscape.org/namespaces/inkscape"
   xmlns:sodipodi="http://sodipodi.sourceforge.net/DTD/sodipodi-0.dtd"
   xmlns="http://www.w3.org/2000/svg"
   xmlns:svg="http://www.w3.org/2000/svg">
  <sodipodi:namedview
     id="namedview770"
     pagecolor="#ffffff"
     bordercolor="#666666"
     borderopacity="1.0"
     inkscape:pageshadow="2"
     inkscape:pageopacity="0.0"
     inkscape:pagecheckerboard="0"
     showgrid="false"
     width="300px"
     inkscape:zoom="0.32421875"
     inkscape:cx="-408.6747"
     inkscape:cy="835.85542"
     inkscape:window-width="1920"
     inkscape:window-height="1043"
     inkscape:window-x="0"
     inkscape:window-y="153"
     inkscape:window-maximized="1"
     inkscape:current-layer="svg768" />
  <defs
     id="defs630">
    <rect
       x="1443.0721"
       y="39.982376"
       width="235.68906"
       height="103.2741"
       id="rect3639" />
    <rect
       x="1443.0721"
       y="39.982376"
       width="235.68906"
       height="103.2741"
       id="rect3639-7" />
    <rect
       x="1443.0721"
       y="39.982376"
       width="235.68906"
       height="103.2741"
       id="rect27185" />
    <rect
       x="1443.0721"
       y="39.982376"
       width="235.68906"
       height="103.2741"
       id="rect27598" />
    <rect
       x="1443.0721"
       y="39.982376"
       width="235.68906"
       height="103.2741"
       id="rect27185-7" />
    <rect
       x="1443.0721"
       y="39.982376"
       width="235.68906"
       height="103.2741"
       id="rect27185-7-6" />
    <rect
       x="1443.0721"
       y="39.982376"
       width="235.68906"
       height="103.2741"
       id="rect27185-7-6-9" />
    <rect
       x="1443.0721"
       y="39.982376"
       width="235.68906"
       height="103.2741"
       id="rect27185-7-6-9-4" />
    <rect
       x="1443.0721"
       y="39.982376"
       width="235.68906"
       height="103.2741"
       id="rect27185-7-6-9-4-9" />
    <rect
       x="1443.0721"
       y="39.982376"
       width="235.68906"
       height="103.2741"
       id="rect27185-7-6-9-4-9-5" />
    <rect
       x="1443.0721"
       y="39.982376"
       width="235.68906"
       height="103.2741"
       id="rect3639-5" />
    <rect
       x="1443.0721"
       y="39.982376"
       width="235.68906"
       height="103.2741"
       id="rect27185-4" />
    <rect
       x="1443.0721"
       y="39.982376"
       width="235.68906"
       height="103.2741"
       id="rect27185-7-8" />
    <rect
       x="1443.0721"
       y="39.982376"
       width="235.68906"
       height="103.2741"
       id="rect27185-7-6-9-8" />
    <rect
       x="1443.0721"
       y="39.982376"
       width="235.68906"
       height="103.2741"
       id="rect27185-7-6-9-4-1" />
    <rect
       x="1443.0721"
       y="39.982376"
       width="235.68906"
       height="103.2741"
       id="rect27185-7-3" />
    <rect
       x="1443.0721"
       y="39.982376"
       width="235.68906"
       height="103.2741"
       id="rect27185-7-6-9-6" />
  </defs>
  <g
     transform="matrix(6.074382,0,0,6.1745225,-867.02096,-1071.1902)"
     id="g43919">
    <path
       fill="none"
       stroke="#888888"
       paint-order="fill stroke markers"
       d="m 249.61143,279.18758 2.25777,35.66111"
       stroke-opacity="1"
       stroke-linejoin="round"
       stroke-miterlimit="10"
       stroke-width="3"
       id="path43785" />
    <path
       fill="#888888"
       stroke="none"
       paint-order="stroke fill markers"
       d="m 245.8493,288.61037 4.89102,8.40776 3.79159,-8.95747 z"
       fill-opacity="1"
       id="path43787" />
    <path
       fill="none"
       stroke="#888888"
       paint-order="fill stroke markers"
       d="m 239.30942,252.49158 -14.24408,-17.8556"
       stroke-opacity="1"
       stroke-linejoin="round"
       stroke-miterlimit="10"
       stroke-width="3"
       id="path43789" />
    <path
       fill="#888888"
       stroke="none"
       paint-order="stroke fill markers"
       d="m 241.01337,247.65212 -8.82599,-4.08834 2.02493,9.51379 z"
       fill-opacity="1"
       id="path43791" />
    <path
       fill="none"
       stroke="#888888"
       paint-order="fill stroke markers"
       d="m 236.27889,272.68026 -34.37237,23.48721"
       stroke-opacity="1"
       stroke-linejoin="round"
       stroke-miterlimit="10"
       stroke-width="3"
       id="path43793" />
    <path
       fill="#888888"
       stroke="none"
       paint-order="stroke fill markers"
       d="m 223.82168,275.92391 -4.72897,8.49996 9.63735,-1.3168 z"
       fill-opacity="1"
       id="path43795" />
    <path
       fill="none"
       stroke="#888888"
       paint-order="fill stroke markers"
       d="m 254.27289,278.12929 12.96656,32.15906"
       stroke-opacity="1"
       stroke-linejoin="round"
       stroke-miterlimit="10"
       stroke-width="3"
       id="path43797" />
    <path
       fill="#888888"
       stroke="none"
       paint-order="stroke fill markers"
       d="m 253.46841,287.76669 7.28776,6.44213 0.78105,-9.69548 z"
       fill-opacity="1"
       id="path43799" />
    <path
       fill="none"
       stroke="#888888"
       paint-order="fill stroke markers"
       d="M 233.67407,263.65883 172.72353,261.387"
       stroke-opacity="1"
       stroke-linejoin="round"
       stroke-miterlimit="10"
       stroke-width="3"
       id="path43801" />
    <path
       fill="#888888"
       stroke="none"
       paint-order="stroke fill markers"
       d="m 212.05479,258.49999 -8.85599,4.02293 8.53194,4.67103 z"
       fill-opacity="1"
       id="path43803" />
    <path
       fill="none"
       stroke="#888888"
       paint-order="fill stroke markers"
       d="M 234.79127,258.51169 205.87085,246.6164"
       stroke-opacity="1"
       stroke-linejoin="round"
       stroke-miterlimit="10"
       stroke-width="3"
       id="path43805" />
    <path
       fill="#888888"
       stroke="none"
       paint-order="stroke fill markers"
       d="m 230.03174,251.85045 -9.70068,0.71359 6.39128,7.3324 z"
       fill-opacity="1"
       id="path43807" />
    <path
       fill="none"
       stroke="#888888"
       paint-order="fill stroke markers"
       d="m 240.80327,276.99308 -22.95032,37.30126"
       stroke-opacity="1"
       stroke-linejoin="round"
       stroke-miterlimit="10"
       stroke-width="3"
       id="path43809" />
    <path
       fill="#888888"
       stroke="none"
       paint-order="stroke fill markers"
       d="m 230.18223,285.95439 -0.85412,9.68932 8.26393,-5.13029 z"
       fill-opacity="1"
       id="path43811" />
    <path
       fill="none"
       stroke="#888888"
       paint-order="fill stroke markers"
       d="m 262.84233,269.11299 35.24801,12.17"
       stroke-opacity="1"
       stroke-linejoin="round"
       stroke-miterlimit="10"
       stroke-width="3"
       id="path43813" />
    <path
       fill="#888888"
       stroke="none"
       paint-order="stroke fill markers"
       d="m 270.82303,276.47045 9.6433,-1.27246 -6.80395,-6.95117 z"
       fill-opacity="1"
       id="path43815" />
    <path
       fill="none"
       stroke="#888888"
       paint-order="fill stroke markers"
       d="m 244.73278,249.74177 -7.99556,-29.44433"
       stroke-opacity="1"
       stroke-linejoin="round"
       stroke-miterlimit="10"
       stroke-width="3"
       id="path43817" />
    <path
       fill="#888888"
       stroke="none"
       paint-order="stroke fill markers"
       d="m 247.21289,242.2756 -6.47789,-7.256 -1.91807,9.53591 z"
       fill-opacity="1"
       id="path43819" />
    <path
       fill="none"
       stroke="#888888"
       paint-order="fill stroke markers"
       d="m 248.91126,249.21959 0.64982,-39.36111"
       stroke-opacity="1"
       stroke-linejoin="round"
       stroke-miterlimit="10"
       stroke-width="3"
       id="path43821" />
    <path
       fill="#888888"
       stroke="none"
       paint-order="stroke fill markers"
       d="m 253.44197,238.30966 -4.2058,-8.77062 -4.49302,8.62701 z"
       fill-opacity="1"
       id="path43823" />
    <path
       fill="none"
       stroke="#888888"
       paint-order="fill stroke markers"
       d="m 245.53895,278.88848 -6.19041,29.06487"
       stroke-opacity="1"
       stroke-linejoin="round"
       stroke-miterlimit="10"
       stroke-width="3"
       id="path43825" />
    <path
       fill="#888888"
       stroke="none"
       paint-order="stroke fill markers"
       d="m 240.00151,284.00561 2.44224,9.41531 6.0669,-7.60298 z"
       fill-opacity="1"
       id="path43827" />
    <path
       fill="none"
       stroke="#888888"
       paint-order="fill stroke markers"
       d="M 236.59686,255.3073 189.34149,220.41344"
       stroke-opacity="1"
       stroke-linejoin="round"
       stroke-miterlimit="10"
       stroke-width="3"
       id="path43829" />
    <path
       fill="#888888"
       stroke="none"
       paint-order="stroke fill markers"
       d="m 222.55189,239.52894 -9.58271,-1.66857 4.41477,8.66731 z"
       fill-opacity="1"
       id="path43831" />
    <path
       fill="none"
       stroke="#888888"
       paint-order="fill stroke markers"
       d="M 258.63436,253.01107 281.5428,227.26334"
       stroke-opacity="1"
       stroke-linejoin="round"
       stroke-miterlimit="10"
       stroke-width="3"
       id="path43833" />
    <path
       fill="#888888"
       stroke="none"
       paint-order="stroke fill markers"
       d="m 267.55545,249.52847 2.53313,-9.39126 -9.03289,3.60825 z"
       fill-opacity="1"
       id="path43835" />
    <path
       fill="none"
       stroke="#888888"
       paint-order="fill stroke markers"
       d="m 262.15222,270.77946 -8.02461,-3.90381"
       stroke-opacity="1"
       stroke-linejoin="round"
       stroke-miterlimit="10"
       stroke-width="3"
       id="path43837" />
    <path
       fill="#888888"
       stroke="none"
       paint-order="stroke fill markers"
       d="m 267.86623,268.72178 -9.72632,0.10578 5.92041,7.71759 z"
       fill-opacity="1"
       id="path43839" />
    <path
       fill="none"
       stroke="#888888"
       paint-order="fill stroke markers"
       d="m 233.69913,265.24845 -30.25482,2.08423"
       stroke-opacity="1"
       stroke-linejoin="round"
       stroke-miterlimit="10"
       stroke-width="3"
       id="path43841" />
    <path
       fill="#888888"
       stroke="none"
       paint-order="stroke fill markers"
       d="m 226.95219,261.35293 -8.38047,4.93764 8.97839,3.74179 z"
       fill-opacity="1"
       id="path43843" />
    <path
       fill="none"
       stroke="#888888"
       paint-order="fill stroke markers"
       d="m 263.42212,261.53654 30.68951,-5.57504"
       stroke-opacity="1"
       stroke-linejoin="round"
       stroke-miterlimit="10"
       stroke-width="3"
       id="path43845" />
    <path
       fill="#888888"
       stroke="none"
       paint-order="stroke fill markers"
       d="m 270.98446,264.58396 7.78242,-5.83494 -9.33741,-2.72497 z"
       fill-opacity="1"
       id="path43847" />
    <path
       fill="#7df5df"
       stroke="none"
       paint-order="stroke fill markers"
       d="m 192.2747,211.50319 -0.0462,1.17689 -0.13844,1.16963 -0.22977,1.15516 -0.31971,1.13358 -0.40765,1.10499 -0.4931,1.06961 -0.57549,1.02762 -0.65435,0.9793 -0.72916,0.92494 -0.79949,0.86488 -0.86488,0.79949 -0.92494,0.72917 -0.9793,0.65434 -1.02763,0.5755 -1.0696,0.4931 -1.105,0.40765 -1.13357,0.3197 -1.15517,0.22978 -1.16963,0.13843 -1.17688,0.0462 -1.17689,-0.0462 -1.16963,-0.13843 -1.15516,-0.22978 -1.13358,-0.3197 -1.10499,-0.40765 -1.06961,-0.4931 -1.02762,-0.5755 -0.9793,-0.65434 -0.92494,-0.72917 -0.86488,-0.79949 -0.79949,-0.86488 -0.72917,-0.92494 -0.65435,-0.9793 -0.57549,-1.02762 -0.4931,-1.06961 -0.40765,-1.10499 -0.3197,-1.13358 -0.22978,-1.15516 -0.13843,-1.16963 -0.0462,-1.17689 0.0462,-1.17688 0.13843,-1.16963 0.22978,-1.15517 0.3197,-1.13357 0.40765,-1.105 0.4931,-1.06961 0.57549,-1.02762 0.65435,-0.9793 0.72917,-0.92494 0.79949,-0.86488 0.86488,-0.79949 0.92494,-0.72916 0.9793,-0.65435 1.02762,-0.5755 1.06961,-0.49309 1.10499,-0.40766 1.13358,-0.3197 1.15516,-0.22977 1.16963,-0.13844 1.17689,-0.0462 1.17688,0.0462 1.16963,0.13844 1.15517,0.22977 1.13357,0.3197 1.105,0.40766 1.0696,0.49309 1.02763,0.5755 0.9793,0.65435 0.92494,0.72916 0.86488,0.79949 0.79949,0.86488 0.72916,0.92494 0.65435,0.9793 0.57549,1.02762 0.4931,1.06961 0.40765,1.105 0.31971,1.13357 0.22977,1.15517 0.13844,1.16963 z"
       fill-opacity="1"
       id="path43849" />
    <text
       fill="#000000"
       stroke="none"
       font-family="'Helvetica Neue', Helvetica, sans-serif"
       font-size="6.375px"
       font-style="normal"
       font-weight="normal"
       text-decoration="normal"
       x="177.2747"
       y="196.50319"
       text-anchor="middle"
       dominant-baseline="text-after-edge"
       fill-opacity="1"
       id="text43851">BBa_J23117</text>
    <path
       fill="#7df5df"
       stroke="none"
       paint-order="stroke fill markers"
       d="m 204.52175,304.63018 -0.0462,1.17689 -0.13843,1.16963 -0.22978,1.15516 -0.3197,1.13358 -0.40765,1.10499 -0.4931,1.06961 -0.57549,1.02762 -0.65435,0.9793 -0.72917,0.92494 -0.79949,0.86488 -0.86488,0.79949 -0.92494,0.72917 -0.9793,0.65434 -1.02762,0.5755 -1.06961,0.49309 -1.10499,0.40766 -1.13358,0.3197 -1.15516,0.22978 -1.16963,0.13843 -1.17689,0.0462 -1.17688,-0.0462 -1.16963,-0.13843 -1.15517,-0.22978 -1.13357,-0.3197 -1.105,-0.40766 -1.0696,-0.49309 -1.02763,-0.5755 -0.9793,-0.65434 -0.92494,-0.72917 -0.86488,-0.79949 -0.79949,-0.86488 -0.72916,-0.92494 -0.65435,-0.9793 -0.5755,-1.02762 -0.49309,-1.06961 -0.40766,-1.10499 -0.3197,-1.13358 -0.22977,-1.15516 -0.13844,-1.16963 -0.0462,-1.17689 0.0462,-1.17689 0.13844,-1.16963 0.22977,-1.15516 0.3197,-1.13357 0.40766,-1.105 0.49309,-1.06961 0.5755,-1.02762 0.65435,-0.9793 0.72916,-0.92494 0.79949,-0.86488 0.86488,-0.79949 0.92494,-0.72916 0.9793,-0.65435 1.02763,-0.5755 1.0696,-0.49309 1.105,-0.40766 1.13357,-0.3197 1.15517,-0.22977 1.16963,-0.13844 1.17688,-0.0462 1.17689,0.0462 1.16963,0.13844 1.15516,0.22977 1.13358,0.3197 1.10499,0.40766 1.06961,0.49309 1.02762,0.5755 0.9793,0.65435 0.92494,0.72916 0.86488,0.79949 0.79949,0.86488 0.72917,0.92494 0.65435,0.9793 0.57549,1.02762 0.4931,1.06961 0.40765,1.105 0.3197,1.13357 0.22978,1.15516 0.13843,1.16963 z"
       fill-opacity="1"
       id="path43853" />
    <text
       fill="#000000"
       stroke="none"
       font-family="'Helvetica Neue', Helvetica, sans-serif"
       font-size="6.375px"
       font-style="normal"
       font-weight="normal"
       text-decoration="normal"
       x="189.52176"
       y="289.63019"
       text-anchor="middle"
       dominant-baseline="text-after-edge"
       fill-opacity="1"
       id="text43855">tetR_p</text>
    <path
       fill="#7df5df"
       stroke="none"
       paint-order="stroke fill markers"
       d="m 251.22384,322.62428 -0.0462,1.17689 -0.13844,1.16963 -0.22978,1.15516 -0.3197,1.13358 -0.40765,1.10499 -0.4931,1.06961 -0.57549,1.02762 -0.65435,0.9793 -0.72916,0.92494 -0.79949,0.86488 -0.86488,0.79949 -0.92495,0.72917 -0.9793,0.65434 -1.02762,0.5755 -1.0696,0.4931 -1.105,0.40765 -1.13357,0.3197 -1.15517,0.22978 -1.16963,0.13843 -1.17688,0.0462 -1.17689,-0.0462 -1.16963,-0.13843 -1.15516,-0.22978 -1.13358,-0.3197 -1.105,-0.40765 -1.0696,-0.4931 -1.02762,-0.5755 -0.9793,-0.65434 -0.92495,-0.72917 -0.86488,-0.79949 -0.79948,-0.86488 -0.72917,-0.92494 -0.65435,-0.9793 -0.57549,-1.02762 -0.4931,-1.06961 -0.40765,-1.10499 -0.3197,-1.13358 -0.22978,-1.15516 -0.13843,-1.16963 -0.0462,-1.17689 0.0462,-1.17688 0.13843,-1.16963 0.22978,-1.15517 0.3197,-1.13357 0.40765,-1.105 0.4931,-1.06961 0.57549,-1.02762 0.65435,-0.9793 0.72917,-0.92494 0.79948,-0.86488 0.86488,-0.79949 0.92495,-0.72916 0.9793,-0.65435 1.02762,-0.5755 1.0696,-0.49309 1.105,-0.40766 1.13358,-0.3197 1.15516,-0.22977 1.16963,-0.13844 1.17689,-0.0462 1.17688,0.0462 1.16963,0.13844 1.15517,0.22977 1.13357,0.3197 1.105,0.40766 1.0696,0.49309 1.02762,0.5755 0.9793,0.65435 0.92495,0.72916 0.86488,0.79949 0.79949,0.86488 0.72916,0.92494 0.65435,0.9793 0.57549,1.02762 0.4931,1.06961 0.40765,1.105 0.3197,1.13357 0.22978,1.15517 0.13844,1.16963 z"
       fill-opacity="1"
       id="path43857" />
    <text
       fill="#000000"
       stroke="none"
       font-family="'Helvetica Neue', Helvetica, sans-serif"
       font-size="6.375px"
       font-style="normal"
       font-weight="normal"
       text-decoration="normal"
       x="236.22383"
       y="307.62427"
       text-anchor="middle"
       dominant-baseline="text-after-edge"
       fill-opacity="1"
       id="text43859">CI_LVA</text>
    <path
       fill="#7df5df"
       stroke="none"
       paint-order="stroke fill markers"
       d="m 282.61617,273.43756 -0.0462,1.17689 -0.13844,1.16963 -0.22977,1.15516 -0.3197,1.13358 -0.40766,1.10499 -0.49309,1.06961 -0.5755,1.02762 -0.65435,0.9793 -0.72916,0.92494 -0.79949,0.86488 -0.86488,0.79949 -0.92494,0.72917 -0.9793,0.65434 -1.02762,0.5755 -1.06961,0.4931 -1.105,0.40765 -1.13357,0.3197 -1.15517,0.22978 -1.16963,0.13843 -1.17688,0.0462 -1.17689,-0.0462 -1.16963,-0.13843 -1.15516,-0.22978 -1.13358,-0.3197 -1.10499,-0.40765 -1.06961,-0.4931 -1.02762,-0.5755 -0.9793,-0.65434 -0.92494,-0.72917 -0.86488,-0.79949 -0.79949,-0.86488 -0.72917,-0.92494 -0.65434,-0.9793 -0.5755,-1.02762 -0.4931,-1.06961 -0.40765,-1.10499 -0.3197,-1.13358 -0.22978,-1.15516 -0.13843,-1.16963 -0.0462,-1.17689 0.0462,-1.17688 0.13843,-1.16963 0.22978,-1.15517 0.3197,-1.13357 0.40765,-1.105 0.4931,-1.06961 0.5755,-1.02762 0.65434,-0.9793 0.72917,-0.92494 0.79949,-0.86488 0.86488,-0.79949 0.92494,-0.72916 0.9793,-0.65435 1.02762,-0.5755 1.06961,-0.49309 1.10499,-0.40766 1.13358,-0.3197 1.15516,-0.22977 1.16963,-0.13844 1.17689,-0.0462 1.17688,0.0462 1.16963,0.13844 1.15517,0.22977 1.13357,0.3197 1.105,0.40766 1.06961,0.49309 1.02762,0.5755 0.9793,0.65435 0.92494,0.72916 0.86488,0.79949 0.79949,0.86488 0.72916,0.92494 0.65435,0.9793 0.5755,1.02762 0.49309,1.06961 0.40766,1.105 0.3197,1.13357 0.22977,1.15517 0.13844,1.16963 z"
       fill-opacity="1"
       id="path43861" />
    <text
       fill="#000000"
       stroke="none"
       font-family="'Helvetica Neue', Helvetica, sans-serif"
       font-size="6.375px"
       font-style="normal"
       font-weight="normal"
       text-decoration="normal"
       x="267.61618"
       y="258.43756"
       text-anchor="middle"
       dominant-baseline="text-after-edge"
       fill-opacity="1"
       id="text43863">Ara_arac</text>
    <path
       fill="#7df5df"
       stroke="none"
       paint-order="stroke fill markers"
       d="m 230.71111,222.91002 -0.0462,1.17689 -0.13844,1.16963 -0.22977,1.15516 -0.31971,1.13357 -0.40765,1.105 -0.49309,1.06961 -0.5755,1.02762 -0.65435,0.9793 -0.72916,0.92494 -0.79949,0.86488 -0.86488,0.79949 -0.92494,0.72916 -0.9793,0.65435 -1.02763,0.5755 -1.0696,0.49309 -1.105,0.40766 -1.13357,0.3197 -1.15517,0.22977 -1.16963,0.13844 -1.17688,0.0462 -1.17689,-0.0462 -1.16963,-0.13844 -1.15516,-0.22977 -1.13358,-0.3197 -1.10499,-0.40766 -1.06961,-0.49309 -1.02762,-0.5755 -0.9793,-0.65435 -0.92494,-0.72916 -0.86488,-0.79949 -0.79949,-0.86488 -0.72917,-0.92494 -0.65435,-0.9793 -0.57549,-1.02762 -0.4931,-1.06961 -0.40765,-1.105 -0.3197,-1.13357 -0.22978,-1.15516 -0.13843,-1.16963 -0.0462,-1.17689 0.0462,-1.17689 0.13843,-1.16963 0.22978,-1.15516 0.3197,-1.13358 0.40765,-1.10499 0.4931,-1.06961 0.57549,-1.02762 0.65435,-0.9793 0.72917,-0.92494 0.79949,-0.86488 0.86488,-0.79949 0.92494,-0.72917 0.9793,-0.65434 1.02762,-0.5755 1.06961,-0.49309 1.10499,-0.40766 1.13358,-0.3197 1.15516,-0.22978 1.16963,-0.13843 1.17689,-0.0462 1.17688,0.0462 1.16963,0.13843 1.15517,0.22978 1.13357,0.3197 1.105,0.40766 1.0696,0.49309 1.02763,0.5755 0.9793,0.65434 0.92494,0.72917 0.86488,0.79949 0.79949,0.86488 0.72916,0.92494 0.65435,0.9793 0.5755,1.02762 0.49309,1.06961 0.40765,1.10499 0.31971,1.13358 0.22977,1.15516 0.13844,1.16963 z"
       fill-opacity="1"
       id="path43865" />
    <text
       fill="#000000"
       stroke="none"
       font-family="'Helvetica Neue', Helvetica, sans-serif"
       font-size="6.375px"
       font-style="normal"
       font-weight="normal"
       text-decoration="normal"
       x="215.71111"
       y="207.91002"
       text-anchor="middle"
       dominant-baseline="text-after-edge"
       fill-opacity="1"
       id="text43867">CI_p</text>
    <path
       fill="#7df5df"
       stroke="none"
       paint-order="stroke fill markers"
       d="m 206.99846,240.91054 -0.0462,1.17689 -0.13843,1.16963 -0.22978,1.15516 -0.3197,1.13357 -0.40766,1.105 -0.49309,1.06961 -0.5755,1.02762 -0.65434,0.9793 -0.72917,0.92494 -0.79949,0.86488 -0.86488,0.79949 -0.92494,0.72916 -0.9793,0.65435 -1.02762,0.5755 -1.06961,0.49309 -1.10499,0.40766 -1.13358,0.3197 -1.15516,0.22977 -1.16963,0.13844 -1.17689,0.0462 -1.17689,-0.0462 -1.16963,-0.13844 -1.15516,-0.22977 -1.13357,-0.3197 -1.105,-0.40766 -1.06961,-0.49309 -1.02762,-0.5755 -0.9793,-0.65435 -0.92494,-0.72916 -0.86488,-0.79949 -0.79949,-0.86488 -0.72916,-0.92494 -0.65435,-0.9793 -0.5755,-1.02762 -0.49309,-1.06961 -0.40766,-1.105 -0.3197,-1.13357 -0.22977,-1.15516 -0.13844,-1.16963 -0.0462,-1.17689 0.0462,-1.17689 0.13844,-1.16963 0.22977,-1.15516 0.3197,-1.13358 0.40766,-1.10499 0.49309,-1.06961 0.5755,-1.02762 0.65435,-0.9793 0.72916,-0.92494 0.79949,-0.86488 0.86488,-0.79949 0.92494,-0.72917 0.9793,-0.65434 1.02762,-0.5755 1.06961,-0.49309 1.105,-0.40766 1.13357,-0.3197 1.15516,-0.22978 1.16963,-0.13843 1.17689,-0.0462 1.17689,0.0462 1.16963,0.13843 1.15516,0.22978 1.13358,0.3197 1.10499,0.40766 1.06961,0.49309 1.02762,0.5755 0.9793,0.65434 0.92494,0.72917 0.86488,0.79949 0.79949,0.86488 0.72917,0.92494 0.65434,0.9793 0.5755,1.02762 0.49309,1.06961 0.40766,1.10499 0.3197,1.13358 0.22978,1.15516 0.13843,1.16963 z"
       fill-opacity="1"
       id="path43869" />
    <text
       fill="#000000"
       stroke="none"
       font-family="'Helvetica Neue', Helvetica, sans-serif"
       font-size="6.375px"
       font-style="normal"
       font-weight="normal"
       text-decoration="normal"
       x="191.99846"
       y="225.91054"
       text-anchor="middle"
       dominant-baseline="text-after-edge"
       fill-opacity="1"
       id="text43871">PBad</text>
    <path
       fill="#7df5df"
       stroke="none"
       paint-order="stroke fill markers"
       d="m 203.47978,268.36358 -0.0462,1.17689 -0.13844,1.16963 -0.22977,1.15516 -0.3197,1.13358 -0.40766,1.10499 -0.49309,1.06961 -0.5755,1.02762 -0.65435,0.9793 -0.72916,0.92494 -0.79949,0.86488 -0.86488,0.79949 -0.92494,0.72917 -0.9793,0.65434 -1.02762,0.5755 -1.06961,0.49309 -1.105,0.40766 -1.13357,0.3197 -1.15516,0.22978 -1.16963,0.13843 -1.17689,0.0462 -1.17689,-0.0462 -1.16963,-0.13843 -1.15516,-0.22978 -1.13358,-0.3197 -1.10499,-0.40766 -1.06961,-0.49309 -1.02762,-0.5755 -0.9793,-0.65434 -0.92494,-0.72917 -0.86488,-0.79949 -0.79949,-0.86488 -0.72917,-0.92494 -0.65434,-0.9793 -0.5755,-1.02762 -0.49309,-1.06961 -0.40766,-1.10499 -0.3197,-1.13358 -0.22978,-1.15516 -0.13843,-1.16963 -0.0462,-1.17689 0.0462,-1.17688 0.13843,-1.16964 0.22978,-1.15516 0.3197,-1.13357 0.40766,-1.105 0.49309,-1.06961 0.5755,-1.02762 0.65434,-0.9793 0.72917,-0.92494 0.79949,-0.86488 0.86488,-0.79949 0.92494,-0.72916 0.9793,-0.65435 1.02762,-0.5755 1.06961,-0.49309 1.10499,-0.40766 1.13358,-0.3197 1.15516,-0.22977 1.16963,-0.13844 1.17689,-0.0462 1.17689,0.0462 1.16963,0.13844 1.15516,0.22977 1.13357,0.3197 1.105,0.40766 1.06961,0.49309 1.02762,0.5755 0.9793,0.65435 0.92494,0.72916 0.86488,0.79949 0.79949,0.86488 0.72916,0.92494 0.65435,0.9793 0.5755,1.02762 0.49309,1.06961 0.40766,1.105 0.3197,1.13357 0.22977,1.15516 0.13844,1.16964 z"
       fill-opacity="1"
       id="path43873" />
    <text
       fill="#000000"
       stroke="none"
       font-family="'Helvetica Neue', Helvetica, sans-serif"
       font-size="6.375px"
       font-style="normal"
       font-weight="normal"
       text-decoration="normal"
       x="188.47978"
       y="253.36359"
       text-anchor="middle"
       dominant-baseline="text-after-edge"
       fill-opacity="1"
       id="text43875">elowitz_RBS</text>
    <path
       fill="#7df5df"
       stroke="none"
       paint-order="stroke fill markers"
       d="m 264.80868,194.86052 -0.0462,1.17689 -0.13844,1.16963 -0.22977,1.15517 -0.31971,1.13357 -0.40765,1.105 -0.49309,1.0696 -0.5755,1.02762 -0.65435,0.9793 -0.72916,0.92495 -0.79949,0.86488 -0.86488,0.79948 -0.92494,0.72917 -0.9793,0.65435 -1.02763,0.57549 -1.0696,0.4931 -1.105,0.40765 -1.13357,0.3197 -1.15517,0.22978 -1.16963,0.13843 -1.17688,0.0462 -1.17689,-0.0462 -1.16963,-0.13843 -1.15516,-0.22978 -1.13358,-0.3197 -1.10499,-0.40765 -1.06961,-0.4931 -1.02762,-0.57549 -0.9793,-0.65435 -0.92494,-0.72917 -0.86488,-0.79948 -0.79949,-0.86488 -0.72917,-0.92495 -0.65435,-0.9793 -0.57549,-1.02762 -0.4931,-1.0696 -0.40765,-1.105 -0.3197,-1.13357 -0.22978,-1.15517 -0.13843,-1.16963 -0.0462,-1.17689 0.0462,-1.17688 0.13843,-1.16963 0.22978,-1.15517 0.3197,-1.13357 0.40765,-1.105 0.4931,-1.0696 0.57549,-1.02762 0.65435,-0.9793 0.72917,-0.92495 0.79949,-0.86488 0.86488,-0.79948 0.92494,-0.72917 0.9793,-0.65435 1.02762,-0.57549 1.06961,-0.4931 1.10499,-0.40765 1.13358,-0.3197 1.15516,-0.22978 1.16963,-0.13844 1.17689,-0.0462 1.17688,0.0462 1.16963,0.13844 1.15517,0.22978 1.13357,0.3197 1.105,0.40765 1.0696,0.4931 1.02763,0.57549 0.9793,0.65435 0.92494,0.72917 0.86488,0.79948 0.79949,0.86488 0.72916,0.92495 0.65435,0.9793 0.5755,1.02762 0.49309,1.0696 0.40765,1.105 0.31971,1.13357 0.22977,1.15517 0.13844,1.16963 z"
       fill-opacity="1"
       id="path43877" />
    <text
       fill="#000000"
       stroke="none"
       font-family="'Helvetica Neue', Helvetica, sans-serif"
       font-size="6.375px"
       font-style="normal"
       font-weight="normal"
       text-decoration="normal"
       x="249.80867"
       y="179.86052"
       text-anchor="middle"
       dominant-baseline="text-after-edge"
       fill-opacity="1"
       id="text43879">BBa_B0033</text>
    <path
       fill="#7df5df"
       stroke="none"
       paint-order="stroke fill markers"
       d="m 327.26901,286.17843 -0.0462,1.17688 -0.13843,1.16963 -0.22978,1.15517 -0.3197,1.13357 -0.40766,1.105 -0.49309,1.0696 -0.5755,1.02762 -0.65435,0.9793 -0.72916,0.92495 -0.79949,0.86488 -0.86488,0.79949 -0.92494,0.72916 -0.9793,0.65435 -1.02762,0.57549 -1.06961,0.4931 -1.105,0.40765 -1.13357,0.3197 -1.15516,0.22978 -1.16963,0.13844 -1.17689,0.0462 -1.17689,-0.0462 -1.16963,-0.13844 -1.15516,-0.22978 -1.13357,-0.3197 -1.105,-0.40765 -1.06961,-0.4931 -1.02762,-0.57549 -0.9793,-0.65435 -0.92494,-0.72916 -0.86488,-0.79949 -0.79949,-0.86488 -0.72916,-0.92495 -0.65435,-0.9793 -0.5755,-1.02762 -0.49309,-1.0696 -0.40766,-1.105 -0.3197,-1.13357 -0.22978,-1.15517 -0.13843,-1.16963 -0.0462,-1.17688 0.0462,-1.17689 0.13843,-1.16963 0.22978,-1.15516 0.3197,-1.13358 0.40766,-1.105 0.49309,-1.0696 0.5755,-1.02762 0.65435,-0.9793 0.72916,-0.92494 0.79949,-0.86489 0.86488,-0.79948 0.92494,-0.72917 0.9793,-0.65435 1.02762,-0.57549 1.06961,-0.4931 1.105,-0.40765 1.13357,-0.3197 1.15516,-0.22978 1.16963,-0.13843 1.17689,-0.0462 1.17689,0.0462 1.16963,0.13843 1.15516,0.22978 1.13357,0.3197 1.105,0.40765 1.06961,0.4931 1.02762,0.57549 0.9793,0.65435 0.92494,0.72917 0.86488,0.79948 0.79949,0.86489 0.72916,0.92494 0.65435,0.9793 0.5755,1.02762 0.49309,1.0696 0.40766,1.105 0.3197,1.13358 0.22978,1.15516 0.13843,1.16963 z"
       fill-opacity="1"
       id="path43881" />
    <text
       fill="#000000"
       stroke="none"
       font-family="'Helvetica Neue', Helvetica, sans-serif"
       font-size="6.375px"
       font-style="normal"
       font-weight="normal"
       text-decoration="normal"
       x="312.26901"
       y="271.17844"
       text-anchor="middle"
       dominant-baseline="text-after-edge"
       fill-opacity="1"
       id="text43883">pTet</text>
    <path
       fill="#7df5df"
       stroke="none"
       paint-order="stroke fill markers"
       d="m 263.66366,264.21755 -0.0462,1.17689 -0.13844,1.16963 -0.22977,1.15516 -0.3197,1.13357 -0.40766,1.105 -0.49309,1.06961 -0.5755,1.02762 -0.65435,0.9793 -0.72916,0.92494 -0.79949,0.86488 -0.86488,0.79949 -0.92494,0.72916 -0.9793,0.65435 -1.02762,0.5755 -1.06961,0.49309 -1.105,0.40766 -1.13357,0.3197 -1.15516,0.22977 -1.16964,0.13844 -1.17688,0.0462 -1.17689,-0.0462 -1.16963,-0.13844 -1.15516,-0.22977 -1.13358,-0.3197 -1.10499,-0.40766 -1.06961,-0.49309 -1.02762,-0.5755 -0.9793,-0.65435 -0.92494,-0.72916 -0.86488,-0.79949 -0.79949,-0.86488 -0.72917,-0.92494 -0.65434,-0.9793 -0.5755,-1.02762 -0.49309,-1.06961 -0.40766,-1.105 -0.3197,-1.13357 -0.22978,-1.15516 -0.13843,-1.16963 -0.0462,-1.17689 0.0462,-1.17689 0.13843,-1.16963 0.22978,-1.15516 0.3197,-1.13358 0.40766,-1.10499 0.49309,-1.06961 0.5755,-1.02762 0.65434,-0.9793 0.72917,-0.92494 0.79949,-0.86488 0.86488,-0.79949 0.92494,-0.72917 0.9793,-0.65434 1.02762,-0.5755 1.06961,-0.49309 1.10499,-0.40766 1.13358,-0.3197 1.15516,-0.22978 1.16963,-0.13843 1.17689,-0.0462 1.17688,0.0462 1.16964,0.13843 1.15516,0.22978 1.13357,0.3197 1.105,0.40766 1.06961,0.49309 1.02762,0.5755 0.9793,0.65434 0.92494,0.72917 0.86488,0.79949 0.79949,0.86488 0.72916,0.92494 0.65435,0.9793 0.5755,1.02762 0.49309,1.06961 0.40766,1.10499 0.3197,1.13358 0.22977,1.15516 0.13844,1.16963 z"
       fill-opacity="1"
       id="path43885" />
    <text
       fill="#000000"
       stroke="none"
       font-family="'Helvetica Neue', Helvetica, sans-serif"
       font-size="6.375px"
       font-style="normal"
       font-weight="normal"
       text-decoration="normal"
       x="248.66367"
       y="249.21754"
       text-anchor="middle"
       dominant-baseline="text-after-edge"
       fill-opacity="1"
       id="text43887">NOR_gate_module</text>
    <path
       fill="#7df5df"
       stroke="none"
       paint-order="stroke fill markers"
       d="m 267.81697,329.81871 -0.0462,1.17689 -0.13843,1.16963 -0.22978,1.15516 -0.3197,1.13358 -0.40765,1.105 -0.4931,1.0696 -0.57549,1.02762 -0.65435,0.9793 -0.72917,0.92495 -0.79948,0.86488 -0.86489,0.79948 -0.92494,0.72917 -0.9793,0.65435 -1.02762,0.57549 -1.0696,0.4931 -1.105,0.40765 -1.13358,0.3197 -1.15516,0.22978 -1.16963,0.13843 -1.17689,0.0462 -1.17688,-0.0462 -1.16963,-0.13843 -1.15517,-0.22978 -1.13357,-0.3197 -1.105,-0.40765 -1.0696,-0.4931 -1.02762,-0.57549 -0.9793,-0.65435 -0.92495,-0.72917 -0.86488,-0.79948 -0.79949,-0.86488 -0.72916,-0.92495 -0.65435,-0.9793 -0.57549,-1.02762 -0.4931,-1.0696 -0.40765,-1.105 -0.3197,-1.13358 -0.22978,-1.15516 -0.13844,-1.16963 -0.0462,-1.17689 0.0462,-1.17688 0.13844,-1.16963 0.22978,-1.15517 0.3197,-1.13357 0.40765,-1.105 0.4931,-1.0696 0.57549,-1.02762 0.65435,-0.9793 0.72916,-0.92495 0.79949,-0.86488 0.86488,-0.79949 0.92495,-0.72916 0.9793,-0.65435 1.02762,-0.57549 1.0696,-0.4931 1.105,-0.40765 1.13357,-0.3197 1.15517,-0.22978 1.16963,-0.13844 1.17688,-0.0462 1.17689,0.0462 1.16963,0.13844 1.15516,0.22978 1.13358,0.3197 1.105,0.40765 1.0696,0.4931 1.02762,0.57549 0.9793,0.65435 0.92494,0.72916 0.86489,0.79949 0.79948,0.86488 0.72917,0.92495 0.65435,0.9793 0.57549,1.02762 0.4931,1.0696 0.40765,1.105 0.3197,1.13357 0.22978,1.15517 0.13843,1.16963 z"
       fill-opacity="1"
       id="path43889" />
    <text
       fill="#000000"
       stroke="none"
       font-family="'Helvetica Neue', Helvetica, sans-serif"
       font-size="6.375px"
       font-style="normal"
       font-weight="normal"
       text-decoration="normal"
       x="252.81697"
       y="314.81873"
       text-anchor="middle"
       dominant-baseline="text-after-edge"
       fill-opacity="1"
       id="text43891">ATC</text>
    <path
       fill="#7df5df"
       stroke="none"
       paint-order="stroke fill markers"
       d="m 247.80635,205.82166 -0.0462,1.17688 -0.13844,1.16963 -0.22977,1.15517 -0.31971,1.13357 -0.40765,1.105 -0.4931,1.06961 -0.57549,1.02762 -0.65435,0.9793 -0.72916,0.92494 -0.79949,0.86488 -0.86488,0.79949 -0.92494,0.72916 -0.9793,0.65435 -1.02763,0.5755 -1.0696,0.49309 -1.105,0.40766 -1.13357,0.3197 -1.15517,0.22977 -1.16963,0.13844 -1.17688,0.0462 -1.17689,-0.0462 -1.16963,-0.13844 -1.15516,-0.22977 -1.13358,-0.3197 -1.10499,-0.40766 -1.06961,-0.49309 -1.02762,-0.5755 -0.9793,-0.65435 -0.92494,-0.72916 -0.86488,-0.79949 -0.79949,-0.86488 -0.72917,-0.92494 -0.65435,-0.9793 -0.57549,-1.02762 -0.4931,-1.06961 -0.40765,-1.105 -0.3197,-1.13357 -0.22978,-1.15517 -0.13843,-1.16963 -0.0462,-1.17688 0.0462,-1.17689 0.13843,-1.16963 0.22978,-1.15516 0.3197,-1.13358 0.40765,-1.10499 0.4931,-1.06961 0.57549,-1.02762 0.65435,-0.9793 0.72917,-0.92494 0.79949,-0.86488 0.86488,-0.79949 0.92494,-0.72917 0.9793,-0.65434 1.02762,-0.5755 1.06961,-0.4931 1.10499,-0.40765 1.13358,-0.3197 1.15516,-0.22978 1.16963,-0.13843 1.17689,-0.0462 1.17688,0.0462 1.16963,0.13843 1.15517,0.22978 1.13357,0.3197 1.105,0.40765 1.0696,0.4931 1.02763,0.5755 0.9793,0.65434 0.92494,0.72917 0.86488,0.79949 0.79949,0.86488 0.72916,0.92494 0.65435,0.9793 0.57549,1.02762 0.4931,1.06961 0.40765,1.10499 0.31971,1.13358 0.22977,1.15516 0.13844,1.16963 z"
       fill-opacity="1"
       id="path43893" />
    <text
       fill="#000000"
       stroke="none"
       font-family="'Helvetica Neue', Helvetica, sans-serif"
       font-size="6.375px"
       font-style="normal"
       font-weight="normal"
       text-decoration="normal"
       x="232.80635"
       y="190.82166"
       text-anchor="middle"
       dominant-baseline="text-after-edge"
       fill-opacity="1"
       id="text43895">BBa_B0015</text>
    <path
       fill="#7df5df"
       stroke="none"
       paint-order="stroke fill markers"
       d="m 306.5135,216.05686 -0.0462,1.17689 -0.13844,1.16963 -0.22977,1.15516 -0.3197,1.13358 -0.40766,1.10499 -0.49309,1.06961 -0.5755,1.02762 -0.65435,0.9793 -0.72916,0.92494 -0.79949,0.86488 -0.86488,0.79949 -0.92494,0.72917 -0.9793,0.65434 -1.02762,0.5755 -1.06961,0.4931 -1.105,0.40765 -1.13357,0.3197 -1.15516,0.22978 -1.16964,0.13843 -1.17688,0.0462 -1.17689,-0.0462 -1.16963,-0.13843 -1.15516,-0.22978 -1.13358,-0.3197 -1.10499,-0.40765 -1.06961,-0.4931 -1.02762,-0.5755 -0.9793,-0.65434 -0.92494,-0.72917 -0.86488,-0.79949 -0.79949,-0.86488 -0.72917,-0.92494 -0.65434,-0.9793 -0.5755,-1.02762 -0.49309,-1.06961 -0.40766,-1.10499 -0.3197,-1.13358 -0.22978,-1.15516 -0.13843,-1.16963 -0.0462,-1.17689 0.0462,-1.17688 0.13843,-1.16963 0.22978,-1.15517 0.3197,-1.13357 0.40766,-1.105 0.49309,-1.06961 0.5755,-1.02762 0.65434,-0.9793 0.72917,-0.92494 0.79949,-0.86488 0.86488,-0.79949 0.92494,-0.72916 0.9793,-0.65435 1.02762,-0.5755 1.06961,-0.49309 1.10499,-0.40766 1.13358,-0.3197 1.15516,-0.22977 1.16963,-0.13844 1.17689,-0.0462 1.17688,0.0462 1.16964,0.13844 1.15516,0.22977 1.13357,0.3197 1.105,0.40766 1.06961,0.49309 1.02762,0.5755 0.9793,0.65435 0.92494,0.72916 0.86488,0.79949 0.79949,0.86488 0.72916,0.92494 0.65435,0.9793 0.5755,1.02762 0.49309,1.06961 0.40766,1.105 0.3197,1.13357 0.22977,1.15517 0.13844,1.16963 z"
       fill-opacity="1"
       id="path43897" />
    <text
       fill="#000000"
       stroke="none"
       font-family="'Helvetica Neue', Helvetica, sans-serif"
       font-size="6.375px"
       font-style="normal"
       font-weight="normal"
       text-decoration="normal"
       x="291.51349"
       y="201.05687"
       text-anchor="middle"
       dominant-baseline="text-after-edge"
       fill-opacity="1"
       id="text43899">tetR</text>
    <path
       fill="#7df5df"
       stroke="none"
       paint-order="stroke fill markers"
       d="m 323.87009,253.28048 -0.0462,1.17689 -0.13843,1.16963 -0.22978,1.15516 -0.3197,1.13358 -0.40765,1.10499 -0.4931,1.06961 -0.57549,1.02762 -0.65435,0.9793 -0.72917,0.92494 -0.79949,0.86488 -0.86488,0.79949 -0.92494,0.72917 -0.9793,0.65434 -1.02762,0.5755 -1.06961,0.4931 -1.10499,0.40765 -1.13358,0.3197 -1.15516,0.22978 -1.16963,0.13843 -1.17689,0.0462 -1.17688,-0.0462 -1.16963,-0.13843 -1.15517,-0.22978 -1.13357,-0.3197 -1.105,-0.40765 -1.0696,-0.4931 -1.02763,-0.5755 -0.9793,-0.65434 -0.92494,-0.72917 -0.86488,-0.79949 -0.79949,-0.86488 -0.72916,-0.92494 -0.65435,-0.9793 -0.57549,-1.02762 -0.4931,-1.06961 -0.40765,-1.10499 -0.31971,-1.13358 -0.22977,-1.15516 -0.13844,-1.16963 -0.0462,-1.17689 0.0462,-1.17688 0.13844,-1.16963 0.22977,-1.15517 0.31971,-1.13357 0.40765,-1.105 0.4931,-1.06961 0.57549,-1.02762 0.65435,-0.9793 0.72916,-0.92494 0.79949,-0.86488 0.86488,-0.79949 0.92494,-0.72916 0.9793,-0.65435 1.02763,-0.5755 1.0696,-0.49309 1.105,-0.40766 1.13357,-0.3197 1.15517,-0.22977 1.16963,-0.13844 1.17688,-0.0462 1.17689,0.0462 1.16963,0.13844 1.15516,0.22977 1.13358,0.3197 1.10499,0.40766 1.06961,0.49309 1.02762,0.5755 0.9793,0.65435 0.92494,0.72916 0.86488,0.79949 0.79949,0.86488 0.72917,0.92494 0.65435,0.9793 0.57549,1.02762 0.4931,1.06961 0.40765,1.105 0.3197,1.13357 0.22978,1.15517 0.13843,1.16963 z"
       fill-opacity="1"
       id="path43901" />
    <text
       fill="#000000"
       stroke="none"
       font-family="'Helvetica Neue', Helvetica, sans-serif"
       font-size="6.375px"
       font-style="normal"
       font-weight="normal"
       text-decoration="normal"
       x="308.87009"
       y="238.28049"
       text-anchor="middle"
       dominant-baseline="text-after-edge"
       fill-opacity="1"
       id="text43903">atc_tetr</text>
    <path
       fill="#7df5df"
       stroke="none"
       paint-order="stroke fill markers"
       d="m 172.73394,260.82828 -0.0462,1.17689 -0.13843,1.16963 -0.22978,1.15516 -0.3197,1.13358 -0.40766,1.10499 -0.49309,1.06961 -0.5755,1.02762 -0.65434,0.9793 -0.72917,0.92494 -0.79949,0.86488 -0.86488,0.79949 -0.92494,0.72917 -0.9793,0.65434 -1.02762,0.5755 -1.06961,0.49309 -1.10499,0.40766 -1.13358,0.3197 -1.15516,0.22978 -1.16963,0.13843 -1.17689,0.0462 -1.17689,-0.0462 -1.16963,-0.13843 -1.15516,-0.22978 -1.13357,-0.3197 -1.105,-0.40766 -1.06961,-0.49309 -1.02762,-0.5755 -0.9793,-0.65434 -0.92494,-0.72917 -0.86488,-0.79949 -0.79949,-0.86488 -0.72916,-0.92494 -0.65435,-0.9793 -0.5755,-1.02762 -0.49309,-1.06961 -0.40766,-1.10499 -0.3197,-1.13358 -0.22977,-1.15516 -0.13844,-1.16963 -0.0462,-1.17689 0.0462,-1.17689 0.13844,-1.16963 0.22977,-1.15516 0.3197,-1.13357 0.40766,-1.105 0.49309,-1.06961 0.5755,-1.02762 0.65435,-0.9793 0.72916,-0.92494 0.79949,-0.86488 0.86488,-0.79949 0.92494,-0.72916 0.9793,-0.65435 1.02762,-0.5755 1.06961,-0.49309 1.105,-0.40766 1.13357,-0.3197 1.15516,-0.22977 1.16963,-0.13844 1.17689,-0.0462 1.17689,0.0462 1.16963,0.13844 1.15516,0.22977 1.13358,0.3197 1.10499,0.40766 1.06961,0.49309 1.02762,0.5755 0.9793,0.65435 0.92494,0.72916 0.86488,0.79949 0.79949,0.86488 0.72917,0.92494 0.65434,0.9793 0.5755,1.02762 0.49309,1.06961 0.40766,1.105 0.3197,1.13357 0.22978,1.15516 0.13843,1.16963 z"
       fill-opacity="1"
       id="path43905" />
    <text
       fill="#000000"
       stroke="none"
       font-family="'Helvetica Neue', Helvetica, sans-serif"
       font-size="6.375px"
       font-style="normal"
       font-weight="normal"
       text-decoration="normal"
       x="157.73395"
       y="245.82828"
       text-anchor="middle"
       dominant-baseline="text-after-edge"
       fill-opacity="1"
       id="text43907">arabinose</text>
    <path
       fill="#7df5df"
       stroke="none"
       paint-order="stroke fill markers"
       d="m 224.99255,327.06987 -0.0462,1.17689 -0.13843,1.16963 -0.22978,1.15516 -0.3197,1.13358 -0.40765,1.10499 -0.4931,1.06961 -0.57549,1.02762 -0.65435,0.9793 -0.72917,0.92494 -0.79948,0.86488 -0.86488,0.79949 -0.92495,0.72917 -0.9793,0.65435 -1.02762,0.57549 -1.0696,0.4931 -1.105,0.40765 -1.13357,0.3197 -1.15517,0.22978 -1.16963,0.13843 -1.17689,0.0462 -1.17688,-0.0462 -1.16963,-0.13843 -1.15517,-0.22978 -1.13357,-0.3197 -1.105,-0.40765 -1.0696,-0.4931 -1.02762,-0.57549 -0.9793,-0.65435 -0.92495,-0.72917 -0.86488,-0.79949 -0.79948,-0.86488 -0.72917,-0.92494 -0.65435,-0.9793 -0.57549,-1.02762 -0.4931,-1.06961 -0.40765,-1.10499 -0.3197,-1.13358 -0.22978,-1.15516 -0.13844,-1.16963 -0.0462,-1.17689 0.0462,-1.17688 0.13844,-1.16963 0.22978,-1.15517 0.3197,-1.13357 0.40765,-1.105 0.4931,-1.0696 0.57549,-1.02763 0.65435,-0.9793 0.72917,-0.92494 0.79948,-0.86488 0.86488,-0.79949 0.92495,-0.72916 0.9793,-0.65435 1.02762,-0.57549 1.0696,-0.4931 1.105,-0.40765 1.13357,-0.31971 1.15517,-0.22977 1.16963,-0.13844 1.17688,-0.0462 1.17689,0.0462 1.16963,0.13844 1.15517,0.22977 1.13357,0.31971 1.105,0.40765 1.0696,0.4931 1.02762,0.57549 0.9793,0.65435 0.92495,0.72916 0.86488,0.79949 0.79948,0.86488 0.72917,0.92494 0.65435,0.9793 0.57549,1.02763 0.4931,1.0696 0.40765,1.105 0.3197,1.13357 0.22978,1.15517 0.13843,1.16963 z"
       fill-opacity="1"
       id="path43909" />
    <text
       fill="#000000"
       stroke="none"
       font-family="'Helvetica Neue', Helvetica, sans-serif"
       font-size="6.375px"
       font-style="normal"
       font-weight="normal"
       text-decoration="normal"
       x="209.99255"
       y="312.06989"
       text-anchor="middle"
       dominant-baseline="text-after-edge"
       fill-opacity="1"
       id="text43911">araC</text>
    <path
       fill="#7df5df"
       stroke="none"
       paint-order="stroke fill markers"
       d="m 287.84868,324.20009 -0.0462,1.17689 -0.13844,1.16963 -0.22978,1.15517 -0.3197,1.13357 -0.40765,1.105 -0.4931,1.0696 -0.57549,1.02762 -0.65435,0.9793 -0.72917,0.92495 -0.79948,0.86488 -0.86488,0.79948 -0.92495,0.72917 -0.9793,0.65435 -1.02762,0.57549 -1.0696,0.4931 -1.105,0.40765 -1.13357,0.3197 -1.15517,0.22978 -1.16963,0.13843 -1.17688,0.0462 -1.17689,-0.0462 -1.16963,-0.13843 -1.15517,-0.22978 -1.13357,-0.3197 -1.105,-0.40765 -1.0696,-0.4931 -1.02762,-0.57549 -0.9793,-0.65435 -0.92495,-0.72917 -0.86488,-0.79948 -0.79948,-0.86488 -0.72917,-0.92495 -0.65435,-0.9793 -0.57549,-1.02762 -0.4931,-1.0696 -0.40765,-1.105 -0.3197,-1.13357 -0.22978,-1.15517 -0.13843,-1.16963 -0.0462,-1.17689 0.0462,-1.17688 0.13843,-1.16963 0.22978,-1.15517 0.3197,-1.13357 0.40765,-1.105 0.4931,-1.0696 0.57549,-1.02762 0.65435,-0.9793 0.72917,-0.92495 0.79948,-0.86488 0.86488,-0.79948 0.92495,-0.72917 0.9793,-0.65435 1.02762,-0.57549 1.0696,-0.4931 1.105,-0.40765 1.13357,-0.3197 1.15517,-0.22978 1.16963,-0.13844 1.17689,-0.0462 1.17688,0.0462 1.16963,0.13844 1.15517,0.22978 1.13357,0.3197 1.105,0.40765 1.0696,0.4931 1.02762,0.57549 0.9793,0.65435 0.92495,0.72917 0.86488,0.79948 0.79948,0.86488 0.72917,0.92495 0.65435,0.9793 0.57549,1.02762 0.4931,1.0696 0.40765,1.105 0.3197,1.13357 0.22978,1.15517 0.13844,1.16963 z"
       fill-opacity="1"
       id="path43913" />
    <text
       fill="#000000"
       stroke="none"
       font-family="'Helvetica Neue', Helvetica, sans-serif"
       font-size="6.375px"
       font-style="normal"
       font-weight="normal"
       text-decoration="normal"
       x="272.84866"
       y="309.2001"
       text-anchor="middle"
       dominant-baseline="text-after-edge"
       fill-opacity="1"
       id="text43915">araC_p</text>
    <g
       transform="matrix(0.1758964,0,0,0.1758964,-11.741675,48.861007)"
       id="g43917" />
  </g>
</svg>
