<?xml version="1.0" encoding="UTF-8" standalone="no"?>
<svg
   version="1.1"
   width="1000"
   height="1000"
   id="svg768"
   sodipodi:docname="full_example (2) (another copy).svg"
   inkscape:export-filename="/home/mcrowther/Downloads/cyto (4).png"
   inkscape:export-xdpi="96"
   inkscape:export-ydpi="96"
   inkscape:version="1.1.1 (26b7af14f2, 2022-01-19)"
   xmlns:inkscape="http://www.inkscape.org/namespaces/inkscape"
   xmlns:sodipodi="http://sodipodi.sourceforge.net/DTD/sodipodi-0.dtd"
   xmlns="http://www.w3.org/2000/svg"
   xmlns:svg="http://www.w3.org/2000/svg">
  <sodipodi:namedview
     id="namedview770"
     pagecolor="#ffffff"
     bordercolor="#666666"
     borderopacity="1.0"
     inkscape:pageshadow="2"
     inkscape:pageopacity="0.0"
     inkscape:pagecheckerboard="0"
     showgrid="false"
     width="300px"
     inkscape:zoom="0.32421875"
     inkscape:cx="606.07229"
     inkscape:cy="-246.74699"
     inkscape:window-width="1920"
     inkscape:window-height="1043"
     inkscape:window-x="0"
     inkscape:window-y="153"
     inkscape:window-maximized="1"
     inkscape:current-layer="svg768" />
  <defs
     id="defs630">
    <rect
       x="1443.0721"
       y="39.982376"
       width="235.68906"
       height="103.2741"
       id="rect3639" />
    <rect
       x="1443.0721"
       y="39.982376"
       width="235.68906"
       height="103.2741"
       id="rect3639-7" />
    <rect
       x="1443.0721"
       y="39.982376"
       width="235.68906"
       height="103.2741"
       id="rect27185" />
    <rect
       x="1443.0721"
       y="39.982376"
       width="235.68906"
       height="103.2741"
       id="rect27598" />
    <rect
       x="1443.0721"
       y="39.982376"
       width="235.68906"
       height="103.2741"
       id="rect27185-7" />
    <rect
       x="1443.0721"
       y="39.982376"
       width="235.68906"
       height="103.2741"
       id="rect27185-7-6" />
    <rect
       x="1443.0721"
       y="39.982376"
       width="235.68906"
       height="103.2741"
       id="rect27185-7-6-9" />
    <rect
       x="1443.0721"
       y="39.982376"
       width="235.68906"
       height="103.2741"
       id="rect27185-7-6-9-4" />
    <rect
       x="1443.0721"
       y="39.982376"
       width="235.68906"
       height="103.2741"
       id="rect27185-7-6-9-4-9" />
    <rect
       x="1443.0721"
       y="39.982376"
       width="235.68906"
       height="103.2741"
       id="rect27185-7-6-9-4-9-5" />
    <rect
       x="1443.0721"
       y="39.982376"
       width="235.68906"
       height="103.2741"
       id="rect3639-5" />
    <rect
       x="1443.0721"
       y="39.982376"
       width="235.68906"
       height="103.2741"
       id="rect27185-4" />
    <rect
       x="1443.0721"
       y="39.982376"
       width="235.68906"
       height="103.2741"
       id="rect27185-7-8" />
    <rect
       x="1443.0721"
       y="39.982376"
       width="235.68906"
       height="103.2741"
       id="rect27185-7-6-9-8" />
    <rect
       x="1443.0721"
       y="39.982376"
       width="235.68906"
       height="103.2741"
       id="rect27185-7-6-9-4-1" />
    <rect
       x="1443.0721"
       y="39.982376"
       width="235.68906"
       height="103.2741"
       id="rect27185-7-3" />
    <rect
       x="1443.0721"
       y="39.982376"
       width="235.68906"
       height="103.2741"
       id="rect27185-7-6-9-6" />
  </defs>
  <g
     transform="matrix(4.2547271,0,0,4.1423648,-7669.0771,-3625.0182)"
     id="g766"
     inkscape:export-filename="/home/mcrowther/Downloads/g766.png"
     inkscape:export-xdpi="96"
     inkscape:export-ydpi="96">
    <path
       fill="none"
       stroke="#888888"
       paint-order="fill stroke markers"
       d="m 1914.2597,1012.8582 -27.7509,66.9966"
       stroke-opacity="1"
       stroke-linejoin="round"
       stroke-miterlimit="10"
       stroke-width="3"
       id="path632" />
    <path
       fill="#888888"
       stroke="none"
       paint-order="stroke fill markers"
       d="m 1899.6948,1036.6541 0.6895,9.7024 7.3482,-6.3731 z"
       fill-opacity="1"
       id="path634" />
    <path
       fill="none"
       stroke="#888888"
       paint-order="fill stroke markers"
       d="m 1935,999 h 72.5166"
       stroke-opacity="1"
       stroke-linejoin="round"
       stroke-miterlimit="10"
       stroke-width="3"
       id="path636" />
    <path
       fill="#888888"
       stroke="none"
       paint-order="stroke fill markers"
       d="m 1962.5583,1003.35 8.7,-4.35 -8.7,-4.35 z"
       fill-opacity="1"
       id="path638" />
    <path
       fill="none"
       stroke="#888888"
       paint-order="fill stroke markers"
       d="m 1925.7403,985.14181 27.7509,-66.99662"
       stroke-opacity="1"
       stroke-linejoin="round"
       stroke-miterlimit="10"
       stroke-width="3"
       id="path640" />
    <path
       fill="#888888"
       stroke="none"
       paint-order="stroke fill markers"
       d="m 1940.3052,961.34592 -0.6895,-9.70242 -7.3482,6.37308 z"
       fill-opacity="1"
       id="path642" />
    <path
       fill="none"
       stroke="#888888"
       paint-order="fill stroke markers"
       d="m 1914.2597,985.14181 -27.7509,-66.99662"
       stroke-opacity="1"
       stroke-linejoin="round"
       stroke-miterlimit="10"
       stroke-width="3"
       id="path644" />
    <path
       fill="#888888"
       stroke="none"
       paint-order="stroke fill markers"
       d="m 1907.7325,958.01658 -7.3482,-6.37308 -0.6895,9.70242 z"
       fill-opacity="1"
       id="path646" />
    <path
       fill="none"
       stroke="#888888"
       paint-order="fill stroke markers"
       d="m 1906.1418,993.25975 -66.9966,-27.75091"
       stroke-opacity="1"
       stroke-linejoin="round"
       stroke-miterlimit="10"
       stroke-width="3"
       id="path648" />
    <path
       fill="#888888"
       stroke="none"
       paint-order="stroke fill markers"
       d="m 1882.3459,978.69476 -9.7024,0.68953 6.3731,7.34823 z"
       fill-opacity="1"
       id="path650" />
    <path
       fill="none"
       stroke="#888888"
       paint-order="fill stroke markers"
       d="m 1933.8582,1004.7403 66.9966,27.7509"
       stroke-opacity="1"
       stroke-linejoin="round"
       stroke-miterlimit="10"
       stroke-width="3"
       id="path652" />
    <path
       fill="#888888"
       stroke="none"
       paint-order="stroke fill markers"
       d="m 1957.6541,1019.3052 9.7024,-0.6895 -6.3731,-7.3482 z"
       fill-opacity="1"
       id="path654" />
    <path
       fill="none"
       stroke="#888888"
       paint-order="fill stroke markers"
       d="m 1909.3934,988.3934 -51.277,-51.27699"
       stroke-opacity="1"
       stroke-linejoin="round"
       stroke-miterlimit="10"
       stroke-width="3"
       id="path656" />
    <path
       fill="#888888"
       stroke="none"
       paint-order="stroke fill markers"
       d="m 1892.9826,965.83082 -9.2277,-3.07592 3.0759,9.22775 z"
       fill-opacity="1"
       id="path658" />
    <path
       fill="none"
       stroke="#888888"
       paint-order="fill stroke markers"
       d="m 1920,1014 v 72.5166"
       stroke-opacity="1"
       stroke-linejoin="round"
       stroke-miterlimit="10"
       stroke-width="3"
       id="path660" />
    <path
       fill="#888888"
       stroke="none"
       paint-order="stroke fill markers"
       d="m 1915.65,1041.5583 4.35,8.7 4.35,-8.7 z"
       fill-opacity="1"
       id="path662" />
    <path
       fill="none"
       stroke="#888888"
       paint-order="fill stroke markers"
       d="m 1909.3934,1009.6066 -51.277,51.277"
       stroke-opacity="1"
       stroke-linejoin="round"
       stroke-miterlimit="10"
       stroke-width="3"
       id="path664" />
    <path
       fill="#888888"
       stroke="none"
       paint-order="stroke fill markers"
       d="m 1886.8308,1026.0174 -3.0759,9.2277 9.2277,-3.0759 z"
       fill-opacity="1"
       id="path666" />
    <path
       fill="none"
       stroke="#888888"
       paint-order="fill stroke markers"
       d="m 1925.7403,1012.8582 27.7509,66.9966"
       stroke-opacity="1"
       stroke-linejoin="round"
       stroke-miterlimit="10"
       stroke-width="3"
       id="path668" />
    <path
       fill="#888888"
       stroke="none"
       paint-order="stroke fill markers"
       d="m 1932.2675,1039.9834 7.3482,6.3731 0.6895,-9.7024 z"
       fill-opacity="1"
       id="path670" />
    <path
       fill="none"
       stroke="#888888"
       paint-order="fill stroke markers"
       d="m 1930.6066,988.3934 51.277,-51.27699"
       stroke-opacity="1"
       stroke-linejoin="round"
       stroke-miterlimit="10"
       stroke-width="3"
       id="path672" />
    <path
       fill="#888888"
       stroke="none"
       paint-order="stroke fill markers"
       d="m 1953.1692,971.98265 3.0759,-9.22775 -9.2277,3.07592 z"
       fill-opacity="1"
       id="path674" />
    <path
       fill="none"
       stroke="#888888"
       paint-order="fill stroke markers"
       d="M 1920,984 V 911.48338"
       stroke-opacity="1"
       stroke-linejoin="round"
       stroke-miterlimit="10"
       stroke-width="3"
       id="path676" />
    <path
       fill="#888888"
       stroke="none"
       paint-order="stroke fill markers"
       d="m 1924.35,956.44169 -4.35,-8.7 -4.35,8.7 z"
       fill-opacity="1"
       id="path678" />
    <path
       fill="none"
       stroke="#888888"
       paint-order="fill stroke markers"
       d="m 1906.1418,1004.7403 -66.9966,27.7509"
       stroke-opacity="1"
       stroke-linejoin="round"
       stroke-miterlimit="10"
       stroke-width="3"
       id="path680" />
    <path
       fill="#888888"
       stroke="none"
       paint-order="stroke fill markers"
       d="m 1879.0166,1011.2675 -6.3731,7.3482 9.7024,0.6895 z"
       fill-opacity="1"
       id="path682" />
    <path
       fill="none"
       stroke="#888888"
       paint-order="fill stroke markers"
       d="m 1933.8582,993.25975 66.9966,-27.75091"
       stroke-opacity="1"
       stroke-linejoin="round"
       stroke-miterlimit="10"
       stroke-width="3"
       id="path684" />
    <path
       fill="#888888"
       stroke="none"
       paint-order="stroke fill markers"
       d="m 1960.9834,986.73252 6.3731,-7.34823 -9.7024,-0.68953 z"
       fill-opacity="1"
       id="path686" />
    <path
       fill="none"
       stroke="#888888"
       paint-order="fill stroke markers"
       d="m 1930.6066,1009.6066 51.277,51.277"
       stroke-opacity="1"
       stroke-linejoin="round"
       stroke-miterlimit="10"
       stroke-width="3"
       id="path688" />
    <path
       fill="#888888"
       stroke="none"
       paint-order="stroke fill markers"
       d="m 1947.0174,1032.1692 9.2277,3.0759 -3.0759,-9.2277 z"
       fill-opacity="1"
       id="path690" />
    <path
       fill="none"
       stroke="#888888"
       paint-order="fill stroke markers"
       d="m 1905,999 h -72.5166"
       stroke-opacity="1"
       stroke-linejoin="round"
       stroke-miterlimit="10"
       stroke-width="3"
       id="path692" />
    <path
       fill="#888888"
       stroke="none"
       paint-order="stroke fill markers"
       d="m 1877.4417,994.65 -8.7,4.35 8.7,4.35 z"
       fill-opacity="1"
       id="path694" />
    <path
       fill="#7df5df"
       stroke="none"
       paint-order="stroke fill markers"
       d="m 1935,896.48338 -0.046,1.17689 -0.1385,1.16963 -0.2298,1.15516 -0.3197,1.13358 -0.4076,1.10499 -0.4931,1.06961 -0.5755,1.02762 -0.6543,0.9793 -0.7292,0.92494 -0.7995,0.86488 -0.8649,0.79949 -0.9249,0.72917 -0.9793,0.65434 -1.0276,0.5755 -1.0696,0.4931 -1.105,0.40765 -1.1336,0.3197 -1.1552,0.22978 -1.1696,0.13843 -1.1769,0.0462 -1.1769,-0.0462 -1.1696,-0.13843 -1.1552,-0.22978 -1.1336,-0.3197 -1.105,-0.40765 -1.0696,-0.4931 -1.0276,-0.5755 -0.9793,-0.65434 -0.9249,-0.72917 -0.8649,-0.79949 -0.7995,-0.86488 -0.7292,-0.92494 -0.6543,-0.9793 -0.5755,-1.02762 -0.4931,-1.06961 -0.4076,-1.10499 -0.3197,-1.13358 -0.2298,-1.15516 -0.1385,-1.16963 -0.046,-1.17689 0.046,-1.17688 0.1385,-1.16963 0.2298,-1.15517 0.3197,-1.13357 0.4076,-1.105 0.4931,-1.06961 0.5755,-1.02762 0.6543,-0.9793 0.7292,-0.92494 0.7995,-0.86488 0.8649,-0.79949 0.9249,-0.72916 0.9793,-0.65435 1.0276,-0.5755 1.0696,-0.49309 1.105,-0.40766 1.1336,-0.3197 1.1552,-0.22977 1.1696,-0.13844 1.1769,-0.0462 1.1769,0.0462 1.1696,0.13844 1.1552,0.22977 1.1336,0.3197 1.105,0.40766 1.0696,0.49309 1.0276,0.5755 0.9793,0.65435 0.9249,0.72916 0.8649,0.79949 0.7995,0.86488 0.7292,0.92494 0.6543,0.9793 0.5755,1.02762 0.4931,1.06961 0.4076,1.105 0.3197,1.13357 0.2298,1.15517 0.1385,1.16963 z"
       fill-opacity="1"
       id="path696" />
    <text
       fill="#000000"
       stroke="none"
       font-family="'Helvetica Neue', Helvetica, sans-serif"
       font-size="6.375px"
       font-style="normal"
       font-weight="normal"
       text-decoration="normal"
       x="1920"
       y="881.4834"
       text-anchor="middle"
       dominant-baseline="text-after-edge"
       fill-opacity="1"
       id="text698">BBa_J23117</text>
    <path
       fill="#7df5df"
       stroke="none"
       paint-order="stroke fill markers"
       d="m 1974.2314,904.28699 -0.046,1.17689 -0.1385,1.16963 -0.2297,1.15517 -0.3197,1.13357 -0.4077,1.105 -0.4931,1.0696 -0.5755,1.02762 -0.6543,0.9793 -0.7292,0.92495 -0.7995,0.86488 -0.8649,0.79948 -0.9249,0.72917 -0.9793,0.65435 -1.0276,0.57549 -1.0696,0.4931 -1.105,0.40765 -1.1336,0.3197 -1.1552,0.22978 -1.1696,0.13843 -1.1769,0.0462 -1.1769,-0.0462 -1.1696,-0.13843 -1.1552,-0.22978 -1.1335,-0.3197 -1.105,-0.40765 -1.0696,-0.4931 -1.0277,-0.57549 -0.9793,-0.65435 -0.9249,-0.72917 -0.8649,-0.79948 -0.7995,-0.86488 -0.7291,-0.92495 -0.6544,-0.9793 -0.5755,-1.02762 -0.4931,-1.0696 -0.4076,-1.105 -0.3197,-1.13357 -0.2298,-1.15517 -0.1384,-1.16963 -0.046,-1.17689 0.046,-1.17688 0.1384,-1.16963 0.2298,-1.15517 0.3197,-1.13357 0.4076,-1.105 0.4931,-1.0696 0.5755,-1.02762 0.6544,-0.9793 0.7291,-0.92495 0.7995,-0.86488 0.8649,-0.79948 0.9249,-0.72917 0.9793,-0.65435 1.0277,-0.57549 1.0696,-0.4931 1.105,-0.40765 1.1335,-0.3197 1.1552,-0.22978 1.1696,-0.13844 1.1769,-0.0462 1.1769,0.0462 1.1696,0.13844 1.1552,0.22978 1.1336,0.3197 1.105,0.40765 1.0696,0.4931 1.0276,0.57549 0.9793,0.65435 0.9249,0.72917 0.8649,0.79948 0.7995,0.86488 0.7292,0.92495 0.6543,0.9793 0.5755,1.02762 0.4931,1.0696 0.4077,1.105 0.3197,1.13357 0.2297,1.15517 0.1385,1.16963 z"
       fill-opacity="1"
       id="path700" />
    <text
       fill="#000000"
       stroke="none"
       font-family="'Helvetica Neue', Helvetica, sans-serif"
       font-size="6.375px"
       font-style="normal"
       font-weight="normal"
       text-decoration="normal"
       x="1959.2314"
       y="889.28699"
       text-anchor="middle"
       dominant-baseline="text-after-edge"
       fill-opacity="1"
       id="text702">tetR_p</text>
    <path
       fill="#7df5df"
       stroke="none"
       paint-order="stroke fill markers"
       d="m 2007.4902,926.5098 -0.046,1.17689 -0.1385,1.16963 -0.2298,1.15516 -0.3197,1.13358 -0.4076,1.105 -0.4931,1.0696 -0.5755,1.02762 -0.6543,0.9793 -0.7292,0.92495 -0.7995,0.86488 -0.8649,0.79948 -0.9249,0.72917 -0.9793,0.65435 -1.0276,0.57549 -1.0697,0.4931 -1.1049,0.40765 -1.1336,0.3197 -1.1552,0.22978 -1.1696,0.13843 -1.1769,0.0462 -1.1769,-0.0462 -1.1696,-0.13843 -1.1552,-0.22978 -1.1336,-0.3197 -1.105,-0.40765 -1.0696,-0.4931 -1.0276,-0.57549 -0.9793,-0.65435 -0.9249,-0.72917 -0.8649,-0.79948 -0.7995,-0.86488 -0.7292,-0.92495 -0.6543,-0.9793 -0.5755,-1.02762 -0.4931,-1.0696 -0.4077,-1.105 -0.3197,-1.13358 -0.2297,-1.15516 -0.1385,-1.16963 -0.046,-1.17689 0.046,-1.17688 0.1385,-1.16963 0.2297,-1.15517 0.3197,-1.13357 0.4077,-1.105 0.4931,-1.0696 0.5755,-1.02762 0.6543,-0.9793 0.7292,-0.92495 0.7995,-0.86488 0.8649,-0.79949 0.9249,-0.72916 0.9793,-0.65435 1.0276,-0.57549 1.0696,-0.4931 1.105,-0.40765 1.1336,-0.3197 1.1552,-0.22978 1.1696,-0.13844 1.1769,-0.0462 1.1769,0.0462 1.1696,0.13844 1.1552,0.22978 1.1336,0.3197 1.1049,0.40765 1.0697,0.4931 1.0276,0.57549 0.9793,0.65435 0.9249,0.72916 0.8649,0.79949 0.7995,0.86488 0.7292,0.92495 0.6543,0.9793 0.5755,1.02762 0.4931,1.0696 0.4076,1.105 0.3197,1.13357 0.2298,1.15517 0.1385,1.16963 z"
       fill-opacity="1"
       id="path704" />
    <text
       fill="#000000"
       stroke="none"
       font-family="'Helvetica Neue', Helvetica, sans-serif"
       font-size="6.375px"
       font-style="normal"
       font-weight="normal"
       text-decoration="normal"
       x="1992.4902"
       y="911.50983"
       text-anchor="middle"
       dominant-baseline="text-after-edge"
       fill-opacity="1"
       id="text706">CI_LVA</text>
    <path
       fill="#7df5df"
       stroke="none"
       paint-order="stroke fill markers"
       d="m 2029.713,959.76859 -0.046,1.17689 -0.1385,1.16963 -0.2297,1.15516 -0.3197,1.13357 -0.4077,1.105 -0.4931,1.06961 -0.5755,1.02762 -0.6543,0.9793 -0.7292,0.92494 -0.7995,0.86488 -0.8649,0.79949 -0.9249,0.72916 -0.9793,0.65435 -1.0276,0.5755 -1.0696,0.49309 -1.105,0.40766 -1.1336,0.3197 -1.1552,0.22977 -1.1696,0.13844 -1.1769,0.0462 -1.1769,-0.0462 -1.1696,-0.13844 -1.1552,-0.22977 -1.1335,-0.3197 -1.105,-0.40766 -1.0697,-0.49309 -1.0276,-0.5755 -0.9793,-0.65435 -0.9249,-0.72916 -0.8649,-0.79949 -0.7995,-0.86488 -0.7291,-0.92494 -0.6544,-0.9793 -0.5755,-1.02762 -0.4931,-1.06961 -0.4076,-1.105 -0.3197,-1.13357 -0.2298,-1.15516 -0.1385,-1.16963 -0.046,-1.17689 0.046,-1.17689 0.1385,-1.16963 0.2298,-1.15516 0.3197,-1.13358 0.4076,-1.10499 0.4931,-1.06961 0.5755,-1.02762 0.6544,-0.9793 0.7291,-0.92494 0.7995,-0.86488 0.8649,-0.79949 0.9249,-0.72917 0.9793,-0.65434 1.0276,-0.5755 1.0697,-0.49309 1.105,-0.40766 1.1335,-0.3197 1.1552,-0.22978 1.1696,-0.13843 1.1769,-0.0462 1.1769,0.0462 1.1696,0.13843 1.1552,0.22978 1.1336,0.3197 1.105,0.40766 1.0696,0.49309 1.0276,0.5755 0.9793,0.65434 0.9249,0.72917 0.8649,0.79949 0.7995,0.86488 0.7292,0.92494 0.6543,0.9793 0.5755,1.02762 0.4931,1.06961 0.4077,1.10499 0.3197,1.13358 0.2297,1.15516 0.1385,1.16963 z"
       fill-opacity="1"
       id="path708" />
    <text
       fill="#000000"
       stroke="none"
       font-family="'Helvetica Neue', Helvetica, sans-serif"
       font-size="6.375px"
       font-style="normal"
       font-weight="normal"
       text-decoration="normal"
       x="2014.713"
       y="944.76862"
       text-anchor="middle"
       dominant-baseline="text-after-edge"
       fill-opacity="1"
       id="text710">Ara_arac</text>
    <path
       fill="#7df5df"
       stroke="none"
       paint-order="stroke fill markers"
       d="m 2037.5166,999 -0.046,1.1769 -0.1385,1.1696 -0.2297,1.1552 -0.3197,1.1336 -0.4077,1.105 -0.4931,1.0696 -0.5755,1.0276 -0.6543,0.9793 -0.7292,0.9249 -0.7995,0.8649 -0.8649,0.7995 -0.9249,0.7292 -0.9793,0.6543 -1.0276,0.5755 -1.0696,0.4931 -1.105,0.4076 -1.1336,0.3197 -1.1552,0.2298 -1.1696,0.1385 -1.1769,0.046 -1.1769,-0.046 -1.1696,-0.1385 -1.1552,-0.2298 -1.1335,-0.3197 -1.105,-0.4076 -1.0696,-0.4931 -1.0277,-0.5755 -0.9793,-0.6543 -0.9249,-0.7292 -0.8649,-0.7995 -0.7995,-0.8649 -0.7291,-0.9249 -0.6544,-0.9793 -0.5755,-1.0276 -0.4931,-1.0696 -0.4076,-1.105 -0.3197,-1.1336 -0.2298,-1.1552 -0.1384,-1.1696 -0.046,-1.1769 0.046,-1.17689 0.1384,-1.16963 0.2298,-1.15516 0.3197,-1.13357 0.4076,-1.105 0.4931,-1.06961 0.5755,-1.02762 0.6544,-0.9793 0.7291,-0.92494 0.7995,-0.86488 0.8649,-0.79949 0.9249,-0.72916 0.9793,-0.65435 1.0277,-0.5755 1.0696,-0.49309 1.105,-0.40766 1.1335,-0.3197 1.1552,-0.22978 1.1696,-0.13843 1.1769,-0.0462 1.1769,0.0462 1.1696,0.13843 1.1552,0.22978 1.1336,0.3197 1.105,0.40766 1.0696,0.49309 1.0276,0.5755 0.9793,0.65435 0.9249,0.72916 0.8649,0.79949 0.7995,0.86488 0.7292,0.92494 0.6543,0.9793 0.5755,1.02762 0.4931,1.06961 0.4077,1.105 0.3197,1.13357 0.2297,1.15516 0.1385,1.16963 z"
       fill-opacity="1"
       id="path712" />
    <text
       fill="#000000"
       stroke="none"
       font-family="'Helvetica Neue', Helvetica, sans-serif"
       font-size="6.375px"
       font-style="normal"
       font-weight="normal"
       text-decoration="normal"
       x="2022.5166"
       y="984"
       text-anchor="middle"
       dominant-baseline="text-after-edge"
       fill-opacity="1"
       id="text714">CI_p</text>
    <path
       fill="#7df5df"
       stroke="none"
       paint-order="stroke fill markers"
       d="m 2029.713,1038.2314 -0.046,1.1769 -0.1385,1.1696 -0.2297,1.1552 -0.3197,1.1336 -0.4077,1.105 -0.4931,1.0696 -0.5755,1.0276 -0.6543,0.9793 -0.7292,0.9249 -0.7995,0.8649 -0.8649,0.7995 -0.9249,0.7292 -0.9793,0.6543 -1.0276,0.5755 -1.0696,0.4931 -1.105,0.4077 -1.1336,0.3197 -1.1552,0.2297 -1.1696,0.1385 -1.1769,0.046 -1.1769,-0.046 -1.1696,-0.1385 -1.1552,-0.2297 -1.1335,-0.3197 -1.105,-0.4077 -1.0697,-0.4931 -1.0276,-0.5755 -0.9793,-0.6543 -0.9249,-0.7292 -0.8649,-0.7995 -0.7995,-0.8649 -0.7291,-0.9249 -0.6544,-0.9793 -0.5755,-1.0276 -0.4931,-1.0696 -0.4076,-1.105 -0.3197,-1.1336 -0.2298,-1.1552 -0.1385,-1.1696 -0.046,-1.1769 0.046,-1.1769 0.1385,-1.1696 0.2298,-1.1552 0.3197,-1.1335 0.4076,-1.105 0.4931,-1.0696 0.5755,-1.0277 0.6544,-0.9793 0.7291,-0.9249 0.7995,-0.8649 0.8649,-0.7995 0.9249,-0.7291 0.9793,-0.6544 1.0276,-0.5755 1.0697,-0.4931 1.105,-0.4076 1.1335,-0.3197 1.1552,-0.2298 1.1696,-0.1384 1.1769,-0.046 1.1769,0.046 1.1696,0.1384 1.1552,0.2298 1.1336,0.3197 1.105,0.4076 1.0696,0.4931 1.0276,0.5755 0.9793,0.6544 0.9249,0.7291 0.8649,0.7995 0.7995,0.8649 0.7292,0.9249 0.6543,0.9793 0.5755,1.0277 0.4931,1.0696 0.4077,1.105 0.3197,1.1335 0.2297,1.1552 0.1385,1.1696 z"
       fill-opacity="1"
       id="path716" />
    <text
       fill="#000000"
       stroke="none"
       font-family="'Helvetica Neue', Helvetica, sans-serif"
       font-size="6.375px"
       font-style="normal"
       font-weight="normal"
       text-decoration="normal"
       x="2014.713"
       y="1023.2314"
       text-anchor="middle"
       dominant-baseline="text-after-edge"
       fill-opacity="1"
       id="text718">PBad</text>
    <path
       fill="#7df5df"
       stroke="none"
       paint-order="stroke fill markers"
       d="m 2007.4902,1071.4902 -0.046,1.1769 -0.1385,1.1696 -0.2298,1.1552 -0.3197,1.1336 -0.4076,1.1049 -0.4931,1.0697 -0.5755,1.0276 -0.6543,0.9793 -0.7292,0.9249 -0.7995,0.8649 -0.8649,0.7995 -0.9249,0.7292 -0.9793,0.6543 -1.0276,0.5755 -1.0697,0.4931 -1.1049,0.4076 -1.1336,0.3197 -1.1552,0.2298 -1.1696,0.1385 -1.1769,0.046 -1.1769,-0.046 -1.1696,-0.1385 -1.1552,-0.2298 -1.1336,-0.3197 -1.105,-0.4076 -1.0696,-0.4931 -1.0276,-0.5755 -0.9793,-0.6543 -0.9249,-0.7292 -0.8649,-0.7995 -0.7995,-0.8649 -0.7292,-0.9249 -0.6543,-0.9793 -0.5755,-1.0276 -0.4931,-1.0697 -0.4077,-1.1049 -0.3197,-1.1336 -0.2297,-1.1552 -0.1385,-1.1696 -0.046,-1.1769 0.046,-1.1769 0.1385,-1.1696 0.2297,-1.1552 0.3197,-1.1336 0.4077,-1.105 0.4931,-1.0696 0.5755,-1.0276 0.6543,-0.9793 0.7292,-0.9249 0.7995,-0.8649 0.8649,-0.7995 0.9249,-0.7292 0.9793,-0.6543 1.0276,-0.5755 1.0696,-0.4931 1.105,-0.4077 1.1336,-0.3197 1.1552,-0.2297 1.1696,-0.1385 1.1769,-0.046 1.1769,0.046 1.1696,0.1385 1.1552,0.2297 1.1336,0.3197 1.1049,0.4077 1.0697,0.4931 1.0276,0.5755 0.9793,0.6543 0.9249,0.7292 0.8649,0.7995 0.7995,0.8649 0.7292,0.9249 0.6543,0.9793 0.5755,1.0276 0.4931,1.0696 0.4076,1.105 0.3197,1.1336 0.2298,1.1552 0.1385,1.1696 z"
       fill-opacity="1"
       id="path720" />
    <text
       fill="#000000"
       stroke="none"
       font-family="'Helvetica Neue', Helvetica, sans-serif"
       font-size="6.375px"
       font-style="normal"
       font-weight="normal"
       text-decoration="normal"
       x="1992.4902"
       y="1056.4902"
       text-anchor="middle"
       dominant-baseline="text-after-edge"
       fill-opacity="1"
       id="text722">elowitz_RBS</text>
    <path
       fill="#7df5df"
       stroke="none"
       paint-order="stroke fill markers"
       d="m 1974.2314,1093.713 -0.046,1.1769 -0.1385,1.1696 -0.2297,1.1552 -0.3197,1.1336 -0.4077,1.105 -0.4931,1.0696 -0.5755,1.0276 -0.6543,0.9793 -0.7292,0.9249 -0.7995,0.8649 -0.8649,0.7995 -0.9249,0.7292 -0.9793,0.6543 -1.0276,0.5755 -1.0696,0.4931 -1.105,0.4077 -1.1336,0.3197 -1.1552,0.2297 -1.1696,0.1385 -1.1769,0.046 -1.1769,-0.046 -1.1696,-0.1385 -1.1552,-0.2297 -1.1335,-0.3197 -1.105,-0.4077 -1.0696,-0.4931 -1.0277,-0.5755 -0.9793,-0.6543 -0.9249,-0.7292 -0.8649,-0.7995 -0.7995,-0.8649 -0.7291,-0.9249 -0.6544,-0.9793 -0.5755,-1.0276 -0.4931,-1.0696 -0.4076,-1.105 -0.3197,-1.1336 -0.2298,-1.1552 -0.1384,-1.1696 -0.046,-1.1769 0.046,-1.1769 0.1384,-1.1696 0.2298,-1.1552 0.3197,-1.1335 0.4076,-1.105 0.4931,-1.0697 0.5755,-1.0276 0.6544,-0.9793 0.7291,-0.9249 0.7995,-0.8649 0.8649,-0.7995 0.9249,-0.7291 0.9793,-0.6544 1.0277,-0.5755 1.0696,-0.4931 1.105,-0.4076 1.1335,-0.3197 1.1552,-0.2298 1.1696,-0.1385 1.1769,-0.046 1.1769,0.046 1.1696,0.1385 1.1552,0.2298 1.1336,0.3197 1.105,0.4076 1.0696,0.4931 1.0276,0.5755 0.9793,0.6544 0.9249,0.7291 0.8649,0.7995 0.7995,0.8649 0.7292,0.9249 0.6543,0.9793 0.5755,1.0276 0.4931,1.0697 0.4077,1.105 0.3197,1.1335 0.2297,1.1552 0.1385,1.1696 z"
       fill-opacity="1"
       id="path724" />
    <text
       fill="#000000"
       stroke="none"
       font-family="'Helvetica Neue', Helvetica, sans-serif"
       font-size="6.375px"
       font-style="normal"
       font-weight="normal"
       text-decoration="normal"
       x="1959.2314"
       y="1078.713"
       text-anchor="middle"
       dominant-baseline="text-after-edge"
       fill-opacity="1"
       id="text726">BBa_B0033</text>
    <path
       fill="#7df5df"
       stroke="none"
       paint-order="stroke fill markers"
       d="m 1935,1101.5166 -0.046,1.1769 -0.1385,1.1696 -0.2298,1.1552 -0.3197,1.1336 -0.4076,1.105 -0.4931,1.0696 -0.5755,1.0276 -0.6543,0.9793 -0.7292,0.9249 -0.7995,0.8649 -0.8649,0.7995 -0.9249,0.7292 -0.9793,0.6543 -1.0276,0.5755 -1.0696,0.4931 -1.105,0.4077 -1.1336,0.3197 -1.1552,0.2297 -1.1696,0.1385 -1.1769,0.046 -1.1769,-0.046 -1.1696,-0.1385 -1.1552,-0.2297 -1.1336,-0.3197 -1.105,-0.4077 -1.0696,-0.4931 -1.0276,-0.5755 -0.9793,-0.6543 -0.9249,-0.7292 -0.8649,-0.7995 -0.7995,-0.8649 -0.7292,-0.9249 -0.6543,-0.9793 -0.5755,-1.0276 -0.4931,-1.0696 -0.4076,-1.105 -0.3197,-1.1336 -0.2298,-1.1552 -0.1385,-1.1696 -0.046,-1.1769 0.046,-1.1769 0.1385,-1.1696 0.2298,-1.1552 0.3197,-1.1335 0.4076,-1.105 0.4931,-1.0696 0.5755,-1.0277 0.6543,-0.9793 0.7292,-0.9249 0.7995,-0.8649 0.8649,-0.7995 0.9249,-0.7291 0.9793,-0.6544 1.0276,-0.5755 1.0696,-0.4931 1.105,-0.4076 1.1336,-0.3197 1.1552,-0.2298 1.1696,-0.1384 1.1769,-0.046 1.1769,0.046 1.1696,0.1384 1.1552,0.2298 1.1336,0.3197 1.105,0.4076 1.0696,0.4931 1.0276,0.5755 0.9793,0.6544 0.9249,0.7291 0.8649,0.7995 0.7995,0.8649 0.7292,0.9249 0.6543,0.9793 0.5755,1.0277 0.4931,1.0696 0.4076,1.105 0.3197,1.1335 0.2298,1.1552 0.1385,1.1696 z"
       fill-opacity="1"
       id="path728" />
    <text
       fill="#000000"
       stroke="none"
       font-family="'Helvetica Neue', Helvetica, sans-serif"
       font-size="6.375px"
       font-style="normal"
       font-weight="normal"
       text-decoration="normal"
       x="1920"
       y="1086.5166"
       text-anchor="middle"
       dominant-baseline="text-after-edge"
       fill-opacity="1"
       id="text730">pTet</text>
    <path
       fill="#7df5df"
       stroke="none"
       paint-order="stroke fill markers"
       d="m 1935,999 -0.046,1.1769 -0.1385,1.1696 -0.2298,1.1552 -0.3197,1.1336 -0.4076,1.105 -0.4931,1.0696 -0.5755,1.0276 -0.6543,0.9793 -0.7292,0.9249 -0.7995,0.8649 -0.8649,0.7995 -0.9249,0.7292 -0.9793,0.6543 -1.0276,0.5755 -1.0696,0.4931 -1.105,0.4076 -1.1336,0.3197 -1.1552,0.2298 -1.1696,0.1385 -1.1769,0.046 -1.1769,-0.046 -1.1696,-0.1385 -1.1552,-0.2298 -1.1336,-0.3197 -1.105,-0.4076 -1.0696,-0.4931 -1.0276,-0.5755 -0.9793,-0.6543 -0.9249,-0.7292 -0.8649,-0.7995 -0.7995,-0.8649 -0.7292,-0.9249 -0.6543,-0.9793 -0.5755,-1.0276 -0.4931,-1.0696 -0.4076,-1.105 -0.3197,-1.1336 -0.2298,-1.1552 -0.1385,-1.1696 L 1905,999 l 0.046,-1.17689 0.1385,-1.16963 0.2298,-1.15516 0.3197,-1.13357 0.4076,-1.105 0.4931,-1.06961 0.5755,-1.02762 0.6543,-0.9793 0.7292,-0.92494 0.7995,-0.86488 0.8649,-0.79949 0.9249,-0.72916 0.9793,-0.65435 1.0276,-0.5755 1.0696,-0.49309 1.105,-0.40766 1.1336,-0.3197 1.1552,-0.22978 1.1696,-0.13843 L 1920,984 l 1.1769,0.0462 1.1696,0.13843 1.1552,0.22978 1.1336,0.3197 1.105,0.40766 1.0696,0.49309 1.0276,0.5755 0.9793,0.65435 0.9249,0.72916 0.8649,0.79949 0.7995,0.86488 0.7292,0.92494 0.6543,0.9793 0.5755,1.02762 0.4931,1.06961 0.4076,1.105 0.3197,1.13357 0.2298,1.15516 0.1385,1.16963 z"
       fill-opacity="1"
       id="path732" />
    <text
       fill="#000000"
       stroke="none"
       font-family="'Helvetica Neue', Helvetica, sans-serif"
       font-size="6.375px"
       font-style="normal"
       font-weight="normal"
       text-decoration="normal"
       x="1920"
       y="984"
       text-anchor="middle"
       dominant-baseline="text-after-edge"
       fill-opacity="1"
       id="text734">NOR_gate_module</text>
    <path
       fill="#7df5df"
       stroke="none"
       paint-order="stroke fill markers"
       d="m 1895.7686,1093.713 -0.046,1.1769 -0.1384,1.1696 -0.2298,1.1552 -0.3197,1.1336 -0.4076,1.105 -0.4931,1.0696 -0.5755,1.0276 -0.6544,0.9793 -0.7291,0.9249 -0.7995,0.8649 -0.8649,0.7995 -0.9249,0.7292 -0.9793,0.6543 -1.0277,0.5755 -1.0696,0.4931 -1.105,0.4077 -1.1335,0.3197 -1.1552,0.2297 -1.1696,0.1385 -1.1769,0.046 -1.1769,-0.046 -1.1696,-0.1385 -1.1552,-0.2297 -1.1336,-0.3197 -1.105,-0.4077 -1.0696,-0.4931 -1.0276,-0.5755 -0.9793,-0.6543 -0.9249,-0.7292 -0.8649,-0.7995 -0.7995,-0.8649 -0.7292,-0.9249 -0.6543,-0.9793 -0.5755,-1.0276 -0.4931,-1.0696 -0.4077,-1.105 -0.3197,-1.1336 -0.2297,-1.1552 -0.1385,-1.1696 -0.046,-1.1769 0.046,-1.1769 0.1385,-1.1696 0.2297,-1.1552 0.3197,-1.1335 0.4077,-1.105 0.4931,-1.0697 0.5755,-1.0276 0.6543,-0.9793 0.7292,-0.9249 0.7995,-0.8649 0.8649,-0.7995 0.9249,-0.7291 0.9793,-0.6544 1.0276,-0.5755 1.0696,-0.4931 1.105,-0.4076 1.1336,-0.3197 1.1552,-0.2298 1.1696,-0.1385 1.1769,-0.046 1.1769,0.046 1.1696,0.1385 1.1552,0.2298 1.1335,0.3197 1.105,0.4076 1.0696,0.4931 1.0277,0.5755 0.9793,0.6544 0.9249,0.7291 0.8649,0.7995 0.7995,0.8649 0.7291,0.9249 0.6544,0.9793 0.5755,1.0276 0.4931,1.0697 0.4076,1.105 0.3197,1.1335 0.2298,1.1552 0.1384,1.1696 z"
       fill-opacity="1"
       id="path736" />
    <text
       fill="#000000"
       stroke="none"
       font-family="'Helvetica Neue', Helvetica, sans-serif"
       font-size="6.375px"
       font-style="normal"
       font-weight="normal"
       text-decoration="normal"
       x="1880.7686"
       y="1078.713"
       text-anchor="middle"
       dominant-baseline="text-after-edge"
       fill-opacity="1"
       id="text738">ATC</text>
    <path
       fill="#7df5df"
       stroke="none"
       paint-order="stroke fill markers"
       d="m 1862.5098,1071.4902 -0.046,1.1769 -0.1385,1.1696 -0.2297,1.1552 -0.3197,1.1336 -0.4077,1.1049 -0.4931,1.0697 -0.5755,1.0276 -0.6543,0.9793 -0.7292,0.9249 -0.7995,0.8649 -0.8649,0.7995 -0.9249,0.7292 -0.9793,0.6543 -1.0276,0.5755 -1.0696,0.4931 -1.105,0.4076 -1.1336,0.3197 -1.1552,0.2298 -1.1696,0.1385 -1.1769,0.046 -1.1769,-0.046 -1.1696,-0.1385 -1.1552,-0.2298 -1.1336,-0.3197 -1.1049,-0.4076 -1.0697,-0.4931 -1.0276,-0.5755 -0.9793,-0.6543 -0.9249,-0.7292 -0.8649,-0.7995 -0.7995,-0.8649 -0.7292,-0.9249 -0.6543,-0.9793 -0.5755,-1.0276 -0.4931,-1.0697 -0.4076,-1.1049 -0.3197,-1.1336 -0.2298,-1.1552 -0.1385,-1.1696 -0.046,-1.1769 0.046,-1.1769 0.1385,-1.1696 0.2298,-1.1552 0.3197,-1.1336 0.4076,-1.105 0.4931,-1.0696 0.5755,-1.0276 0.6543,-0.9793 0.7292,-0.9249 0.7995,-0.8649 0.8649,-0.7995 0.9249,-0.7292 0.9793,-0.6543 1.0276,-0.5755 1.0697,-0.4931 1.1049,-0.4077 1.1336,-0.3197 1.1552,-0.2297 1.1696,-0.1385 1.1769,-0.046 1.1769,0.046 1.1696,0.1385 1.1552,0.2297 1.1336,0.3197 1.105,0.4077 1.0696,0.4931 1.0276,0.5755 0.9793,0.6543 0.9249,0.7292 0.8649,0.7995 0.7995,0.8649 0.7292,0.9249 0.6543,0.9793 0.5755,1.0276 0.4931,1.0696 0.4077,1.105 0.3197,1.1336 0.2297,1.1552 0.1385,1.1696 z"
       fill-opacity="1"
       id="path740" />
    <text
       fill="#000000"
       stroke="none"
       font-family="'Helvetica Neue', Helvetica, sans-serif"
       font-size="6.375px"
       font-style="normal"
       font-weight="normal"
       text-decoration="normal"
       x="1847.5098"
       y="1056.4902"
       text-anchor="middle"
       dominant-baseline="text-after-edge"
       fill-opacity="1"
       id="text742">BBa_B0015</text>
    <path
       fill="#7df5df"
       stroke="none"
       paint-order="stroke fill markers"
       d="m 1840.287,1038.2314 -0.046,1.1769 -0.1385,1.1696 -0.2298,1.1552 -0.3197,1.1336 -0.4076,1.105 -0.4931,1.0696 -0.5755,1.0276 -0.6544,0.9793 -0.7291,0.9249 -0.7995,0.8649 -0.8649,0.7995 -0.9249,0.7292 -0.9793,0.6543 -1.0276,0.5755 -1.0697,0.4931 -1.105,0.4077 -1.1335,0.3197 -1.1552,0.2297 -1.1696,0.1385 -1.1769,0.046 -1.1769,-0.046 -1.1696,-0.1385 -1.1552,-0.2297 -1.1336,-0.3197 -1.105,-0.4077 -1.0696,-0.4931 -1.0276,-0.5755 -0.9793,-0.6543 -0.9249,-0.7292 -0.8649,-0.7995 -0.7995,-0.8649 -0.7292,-0.9249 -0.6543,-0.9793 -0.5755,-1.0276 -0.4931,-1.0696 -0.4077,-1.105 -0.3197,-1.1336 -0.2297,-1.1552 -0.1385,-1.1696 -0.046,-1.1769 0.046,-1.1769 0.1385,-1.1696 0.2297,-1.1552 0.3197,-1.1335 0.4077,-1.105 0.4931,-1.0696 0.5755,-1.0277 0.6543,-0.9793 0.7292,-0.9249 0.7995,-0.8649 0.8649,-0.7995 0.9249,-0.7291 0.9793,-0.6544 1.0276,-0.5755 1.0696,-0.4931 1.105,-0.4076 1.1336,-0.3197 1.1552,-0.2298 1.1696,-0.1384 1.1769,-0.046 1.1769,0.046 1.1696,0.1384 1.1552,0.2298 1.1335,0.3197 1.105,0.4076 1.0697,0.4931 1.0276,0.5755 0.9793,0.6544 0.9249,0.7291 0.8649,0.7995 0.7995,0.8649 0.7291,0.9249 0.6544,0.9793 0.5755,1.0277 0.4931,1.0696 0.4076,1.105 0.3197,1.1335 0.2298,1.1552 0.1385,1.1696 z"
       fill-opacity="1"
       id="path744" />
    <text
       fill="#000000"
       stroke="none"
       font-family="'Helvetica Neue', Helvetica, sans-serif"
       font-size="6.375px"
       font-style="normal"
       font-weight="normal"
       text-decoration="normal"
       x="1825.287"
       y="1023.2314"
       text-anchor="middle"
       dominant-baseline="text-after-edge"
       fill-opacity="1"
       id="text746">tetR</text>
    <path
       fill="#7df5df"
       stroke="none"
       paint-order="stroke fill markers"
       d="m 1832.4834,999 -0.046,1.1769 -0.1384,1.1696 -0.2298,1.1552 -0.3197,1.1336 -0.4076,1.105 -0.4931,1.0696 -0.5755,1.0276 -0.6544,0.9793 -0.7291,0.9249 -0.7995,0.8649 -0.8649,0.7995 -0.9249,0.7292 -0.9793,0.6543 -1.0277,0.5755 -1.0696,0.4931 -1.105,0.4076 -1.1335,0.3197 -1.1552,0.2298 -1.1696,0.1385 -1.1769,0.046 -1.1769,-0.046 -1.1696,-0.1385 -1.1552,-0.2298 -1.1336,-0.3197 -1.105,-0.4076 -1.0696,-0.4931 -1.0276,-0.5755 -0.9793,-0.6543 -0.9249,-0.7292 -0.8649,-0.7995 -0.7995,-0.8649 -0.7292,-0.9249 -0.6543,-0.9793 -0.5755,-1.0276 -0.4931,-1.0696 -0.4077,-1.105 -0.3197,-1.1336 -0.2297,-1.1552 -0.1385,-1.1696 -0.046,-1.1769 0.046,-1.17689 0.1385,-1.16963 0.2297,-1.15516 0.3197,-1.13357 0.4077,-1.105 0.4931,-1.06961 0.5755,-1.02762 0.6543,-0.9793 0.7292,-0.92494 0.7995,-0.86488 0.8649,-0.79949 0.9249,-0.72916 0.9793,-0.65435 1.0276,-0.5755 1.0696,-0.49309 1.105,-0.40766 1.1336,-0.3197 1.1552,-0.22978 1.1696,-0.13843 1.1769,-0.0462 1.1769,0.0462 1.1696,0.13843 1.1552,0.22978 1.1335,0.3197 1.105,0.40766 1.0696,0.49309 1.0277,0.5755 0.9793,0.65435 0.9249,0.72916 0.8649,0.79949 0.7995,0.86488 0.7291,0.92494 0.6544,0.9793 0.5755,1.02762 0.4931,1.06961 0.4076,1.105 0.3197,1.13357 0.2298,1.15516 0.1384,1.16963 z"
       fill-opacity="1"
       id="path748" />
    <text
       fill="#000000"
       stroke="none"
       font-family="'Helvetica Neue', Helvetica, sans-serif"
       font-size="6.375px"
       font-style="normal"
       font-weight="normal"
       text-decoration="normal"
       x="1817.4834"
       y="984"
       text-anchor="middle"
       dominant-baseline="text-after-edge"
       fill-opacity="1"
       id="text750">atc_tetr</text>
    <path
       fill="#7df5df"
       stroke="none"
       paint-order="stroke fill markers"
       d="m 1840.287,959.76859 -0.046,1.17689 -0.1385,1.16963 -0.2298,1.15516 -0.3197,1.13357 -0.4076,1.105 -0.4931,1.06961 -0.5755,1.02762 -0.6544,0.9793 -0.7291,0.92494 -0.7995,0.86488 -0.8649,0.79949 -0.9249,0.72916 -0.9793,0.65435 -1.0276,0.5755 -1.0697,0.49309 -1.105,0.40766 -1.1335,0.3197 -1.1552,0.22977 -1.1696,0.13844 -1.1769,0.0462 -1.1769,-0.0462 -1.1696,-0.13844 -1.1552,-0.22977 -1.1336,-0.3197 -1.105,-0.40766 -1.0696,-0.49309 -1.0276,-0.5755 -0.9793,-0.65435 -0.9249,-0.72916 -0.8649,-0.79949 -0.7995,-0.86488 -0.7292,-0.92494 -0.6543,-0.9793 -0.5755,-1.02762 -0.4931,-1.06961 -0.4077,-1.105 -0.3197,-1.13357 -0.2297,-1.15516 -0.1385,-1.16963 -0.046,-1.17689 0.046,-1.17689 0.1385,-1.16963 0.2297,-1.15516 0.3197,-1.13358 0.4077,-1.10499 0.4931,-1.06961 0.5755,-1.02762 0.6543,-0.9793 0.7292,-0.92494 0.7995,-0.86488 0.8649,-0.79949 0.9249,-0.72917 0.9793,-0.65434 1.0276,-0.5755 1.0696,-0.49309 1.105,-0.40766 1.1336,-0.3197 1.1552,-0.22978 1.1696,-0.13843 1.1769,-0.0462 1.1769,0.0462 1.1696,0.13843 1.1552,0.22978 1.1335,0.3197 1.105,0.40766 1.0697,0.49309 1.0276,0.5755 0.9793,0.65434 0.9249,0.72917 0.8649,0.79949 0.7995,0.86488 0.7291,0.92494 0.6544,0.9793 0.5755,1.02762 0.4931,1.06961 0.4076,1.10499 0.3197,1.13358 0.2298,1.15516 0.1385,1.16963 z"
       fill-opacity="1"
       id="path752" />
    <text
       fill="#000000"
       stroke="none"
       font-family="'Helvetica Neue', Helvetica, sans-serif"
       font-size="6.375px"
       font-style="normal"
       font-weight="normal"
       text-decoration="normal"
       x="1825.287"
       y="944.76862"
       text-anchor="middle"
       dominant-baseline="text-after-edge"
       fill-opacity="1"
       id="text754">arabinose</text>
    <path
       fill="#7df5df"
       stroke="none"
       paint-order="stroke fill markers"
       d="m 1862.5098,926.5098 -0.046,1.17689 -0.1385,1.16963 -0.2297,1.15516 -0.3197,1.13358 -0.4077,1.105 -0.4931,1.0696 -0.5755,1.02762 -0.6543,0.9793 -0.7292,0.92495 -0.7995,0.86488 -0.8649,0.79948 -0.9249,0.72917 -0.9793,0.65435 -1.0276,0.57549 -1.0696,0.4931 -1.105,0.40765 -1.1336,0.3197 -1.1552,0.22978 -1.1696,0.13843 -1.1769,0.0462 -1.1769,-0.0462 -1.1696,-0.13843 -1.1552,-0.22978 -1.1336,-0.3197 -1.1049,-0.40765 -1.0697,-0.4931 -1.0276,-0.57549 -0.9793,-0.65435 -0.9249,-0.72917 -0.8649,-0.79948 -0.7995,-0.86488 -0.7292,-0.92495 -0.6543,-0.9793 -0.5755,-1.02762 -0.4931,-1.0696 -0.4076,-1.105 -0.3197,-1.13358 -0.2298,-1.15516 -0.1385,-1.16963 -0.046,-1.17689 0.046,-1.17688 0.1385,-1.16963 0.2298,-1.15517 0.3197,-1.13357 0.4076,-1.105 0.4931,-1.0696 0.5755,-1.02762 0.6543,-0.9793 0.7292,-0.92495 0.7995,-0.86488 0.8649,-0.79949 0.9249,-0.72916 0.9793,-0.65435 1.0276,-0.57549 1.0697,-0.4931 1.1049,-0.40765 1.1336,-0.3197 1.1552,-0.22978 1.1696,-0.13844 1.1769,-0.0462 1.1769,0.0462 1.1696,0.13844 1.1552,0.22978 1.1336,0.3197 1.105,0.40765 1.0696,0.4931 1.0276,0.57549 0.9793,0.65435 0.9249,0.72916 0.8649,0.79949 0.7995,0.86488 0.7292,0.92495 0.6543,0.9793 0.5755,1.02762 0.4931,1.0696 0.4077,1.105 0.3197,1.13357 0.2297,1.15517 0.1385,1.16963 z"
       fill-opacity="1"
       id="path756" />
    <text
       fill="#000000"
       stroke="none"
       font-family="'Helvetica Neue', Helvetica, sans-serif"
       font-size="6.375px"
       font-style="normal"
       font-weight="normal"
       text-decoration="normal"
       x="1847.5098"
       y="911.50983"
       text-anchor="middle"
       dominant-baseline="text-after-edge"
       fill-opacity="1"
       id="text758">araC</text>
    <path
       fill="#7df5df"
       stroke="none"
       paint-order="stroke fill markers"
       d="m 1895.7686,904.28699 -0.046,1.17689 -0.1384,1.16963 -0.2298,1.15517 -0.3197,1.13357 -0.4076,1.105 -0.4931,1.0696 -0.5755,1.02762 -0.6544,0.9793 -0.7291,0.92495 -0.7995,0.86488 -0.8649,0.79948 -0.9249,0.72917 -0.9793,0.65435 -1.0277,0.57549 -1.0696,0.4931 -1.105,0.40765 -1.1335,0.3197 -1.1552,0.22978 -1.1696,0.13843 -1.1769,0.0462 -1.1769,-0.0462 -1.1696,-0.13843 -1.1552,-0.22978 -1.1336,-0.3197 -1.105,-0.40765 -1.0696,-0.4931 -1.0276,-0.57549 -0.9793,-0.65435 -0.9249,-0.72917 -0.8649,-0.79948 -0.7995,-0.86488 -0.7292,-0.92495 -0.6543,-0.9793 -0.5755,-1.02762 -0.4931,-1.0696 -0.4077,-1.105 -0.3197,-1.13357 -0.2297,-1.15517 -0.1385,-1.16963 -0.046,-1.17689 0.046,-1.17688 0.1385,-1.16963 0.2297,-1.15517 0.3197,-1.13357 0.4077,-1.105 0.4931,-1.0696 0.5755,-1.02762 0.6543,-0.9793 0.7292,-0.92495 0.7995,-0.86488 0.8649,-0.79948 0.9249,-0.72917 0.9793,-0.65435 1.0276,-0.57549 1.0696,-0.4931 1.105,-0.40765 1.1336,-0.3197 1.1552,-0.22978 1.1696,-0.13844 1.1769,-0.0462 1.1769,0.0462 1.1696,0.13844 1.1552,0.22978 1.1335,0.3197 1.105,0.40765 1.0696,0.4931 1.0277,0.57549 0.9793,0.65435 0.9249,0.72917 0.8649,0.79948 0.7995,0.86488 0.7291,0.92495 0.6544,0.9793 0.5755,1.02762 0.4931,1.0696 0.4076,1.105 0.3197,1.13357 0.2298,1.15517 0.1384,1.16963 z"
       fill-opacity="1"
       id="path760" />
    <text
       fill="#000000"
       stroke="none"
       font-family="'Helvetica Neue', Helvetica, sans-serif"
       font-size="6.375px"
       font-style="normal"
       font-weight="normal"
       text-decoration="normal"
       x="1880.7686"
       y="889.28699"
       text-anchor="middle"
       dominant-baseline="text-after-edge"
       fill-opacity="1"
       id="text762">araC_p</text>
    <g
       transform="matrix(0.12540415,0,0,0.12540415,1711.4529,872.47692)"
       id="g764" />
  </g>
</svg>
