<?xml version="1.0" encoding="UTF-8" standalone="no"?>
<!-- Created with Inkscape (http://www.inkscape.org/) -->

<svg
   width="413.01044mm"
   height="131.99393mm"
   viewBox="0 0 413.01044 131.99395"
   version="1.1"
   id="svg5"
   inkscape:version="1.1.1 (26b7af14f2, 2022-01-19)"
   sodipodi:docname="hierarchy.svg"
   inkscape:export-filename="C:\Users\matty\Downloads\heirarchy_text2 (1).png"
   inkscape:export-xdpi="96"
   inkscape:export-ydpi="96"
   xmlns:inkscape="http://www.inkscape.org/namespaces/inkscape"
   xmlns:sodipodi="http://sodipodi.sourceforge.net/DTD/sodipodi-0.dtd"
   xmlns="http://www.w3.org/2000/svg"
   xmlns:svg="http://www.w3.org/2000/svg">
  <sodipodi:namedview
     id="namedview7"
     pagecolor="#ffffff"
     bordercolor="#666666"
     borderopacity="1.0"
     inkscape:pageshadow="2"
     inkscape:pageopacity="0.0"
     inkscape:pagecheckerboard="0"
     inkscape:document-units="mm"
     showgrid="false"
     height="130mm"
     width="450mm"
     inkscape:zoom="1.0998546"
     inkscape:cx="784.19456"
     inkscape:cy="235.03107"
     inkscape:window-width="2492"
     inkscape:window-height="1376"
     inkscape:window-x="1988"
     inkscape:window-y="27"
     inkscape:window-maximized="1"
     inkscape:current-layer="g209" />
  <defs
     id="defs2">
    <rect
       x="1443.0721"
       y="39.982376"
       width="235.68906"
       height="103.2741"
       id="rect3639" />
    <rect
       x="1443.0721"
       y="39.982376"
       width="235.68906"
       height="103.2741"
       id="rect3639-7" />
    <rect
       x="1443.0721"
       y="39.982376"
       width="235.68906"
       height="103.2741"
       id="rect27185" />
    <rect
       x="1443.0721"
       y="39.982376"
       width="235.68906"
       height="103.2741"
       id="rect27598" />
    <rect
       x="1443.0721"
       y="39.982376"
       width="235.68906"
       height="103.2741"
       id="rect27185-7" />
    <rect
       x="1443.0721"
       y="39.982376"
       width="235.68906"
       height="103.2741"
       id="rect27185-7-6" />
    <rect
       x="1443.0721"
       y="39.982376"
       width="235.68906"
       height="103.2741"
       id="rect27185-7-6-9" />
  </defs>
  <g
     inkscape:label="Layer 1"
     inkscape:groupmode="layer"
     id="layer1"
     transform="translate(-31.59009,7.4547503)">
    <g
       transform="matrix(0.44340211,0,0,0.44340211,17.172835,6.0168225)"
       id="g209">
      <path
         fill="none"
         stroke="#c2c2c2"
         paint-order="fill stroke markers"
         d="M 389.62608,130.81659 164.8705,189.12995"
         stroke-opacity="1"
         stroke-linejoin="round"
         stroke-miterlimit="10"
         stroke-width="2.40356"
         id="path11"
         style="stroke-width:3.85671;stroke-miterlimit:10;stroke-dasharray:none" />
      <path
         fill="none"
         stroke="#c2c2c2"
         paint-order="fill stroke markers"
         d="m 389.13772,124.64919 -327.104802,69.117"
         stroke-opacity="1"
         stroke-linejoin="round"
         stroke-miterlimit="10"
         stroke-width="2.40356"
         id="path11-1"
         style="stroke-width:4.05952;stroke-miterlimit:10;stroke-dasharray:none" />
      <path
         fill="none"
         stroke="#c2c2c2"
         paint-order="fill stroke markers"
         d="M 675.51252,191.20324 426.1466,130.59972"
         stroke-opacity="1"
         stroke-linejoin="round"
         stroke-miterlimit="10"
         stroke-width="2.40356"
         id="path11-3"
         style="stroke-width:3.98449;stroke-miterlimit:10;stroke-dasharray:none" />
      <path
         fill="#c2c2c2"
         stroke="none"
         paint-order="stroke fill markers"
         d="m 307.40376,147.64627 -7.53272,6.15391 9.44276,2.33383 z"
         fill-opacity="1"
         id="path13" />
      <path
         fill="#c2c2c2"
         stroke="none"
         paint-order="stroke fill markers"
         d="m 305.26348,137.49201 -7.53272,6.15391 9.44276,2.33383 z"
         fill-opacity="1"
         id="path13-8" />
      <path
         fill="none"
         stroke="#c2c2c2"
         paint-order="fill stroke markers"
         d="M 391.27545,135.19391 261.15906,187.89404"
         stroke-opacity="1"
         stroke-linejoin="round"
         stroke-miterlimit="10"
         stroke-width="2.71952"
         id="path15"
         style="stroke-width:3.78408;stroke-miterlimit:10;stroke-dasharray:none" />
      <path
         fill="#c2c2c2"
         stroke="none"
         paint-order="stroke fill markers"
         d="m 315.9037,161.94937 -6.70759,7.04421 9.65992,1.13955 z"
         fill-opacity="1"
         id="path17" />
      <path
         fill="none"
         stroke="#c2c2c2"
         paint-order="fill stroke markers"
         d="m 409.07751,146.23592 -0.24821,39.39056"
         stroke-opacity="1"
         stroke-linejoin="round"
         stroke-miterlimit="10"
         stroke-width="2.69842"
         id="path19-9"
         style="stroke-width:4.05952;stroke-miterlimit:10;stroke-dasharray:none" />
      <path
         fill="none"
         stroke="#c2c2c2"
         paint-order="fill stroke markers"
         d="m 426.1446,136.71815 187.40101,54.26002"
         stroke-opacity="1"
         stroke-linejoin="round"
         stroke-miterlimit="10"
         stroke-width="2.68455"
         id="path27"
         style="stroke-width:4.15075;stroke-miterlimit:10;stroke-dasharray:none" />
      <path
         fill="#c2c2c2"
         stroke="none"
         paint-order="stroke fill markers"
         d="m 502.57147,163.07005 9.69054,-0.8403 -6.48656,-7.24825 z"
         fill-opacity="1"
         id="path29" />
      <path
         fill="#c2c2c2"
         stroke="none"
         paint-order="stroke fill markers"
         d="m 506.06317,154.11833 9.71126,-0.55129 -6.26779,-7.43823 z"
         fill-opacity="1"
         id="path33" />
      <path
         fill="none"
         stroke="#c2c2c2"
         paint-order="fill stroke markers"
         d="m 400.82686,200.50558 -53.03904,42.83886"
         stroke-opacity="1"
         stroke-linejoin="round"
         stroke-miterlimit="10"
         stroke-width="2.06146"
         id="path35"
         style="stroke-width:4.17698;stroke-miterlimit:10;stroke-dasharray:none" />
      <path
         fill="#c2c2c2"
         stroke="none"
         paint-order="stroke fill markers"
         d="m 376.33051,214.58562 -4.32844,8.71075 9.56564,-1.7637 z"
         fill-opacity="1"
         id="path37" />
      <path
         fill="none"
         stroke="#c2c2c2"
         paint-order="fill stroke markers"
         d="m 404.87282,203.67726 -16.75927,37.84337"
         stroke-opacity="1"
         stroke-linejoin="round"
         stroke-miterlimit="10"
         stroke-width="2.09845"
         id="path39"
         style="stroke-width:4.17698;stroke-miterlimit:10;stroke-dasharray:none" />
      <path
         fill="#c2c2c2"
         stroke="none"
         paint-order="stroke fill markers"
         d="m 392.51679,221.46555 0.57124,9.71011 7.42532,-6.28306 z"
         fill-opacity="1"
         id="path41" />
      <path
         fill="none"
         stroke="#c2c2c2"
         paint-order="fill stroke markers"
         d="m 413.06071,203.5383 17.61714,38.08193"
         stroke-opacity="1"
         stroke-linejoin="round"
         stroke-miterlimit="10"
         stroke-width="2.0538"
         id="path43"
         style="stroke-width:4.17698;stroke-miterlimit:10;stroke-dasharray:none" />
      <path
         fill="#c2c2c2"
         stroke="none"
         paint-order="stroke fill markers"
         d="m 418.38656,225.12388 7.63425,6.02746 0.2414,-9.7239 z"
         fill-opacity="1"
         id="path45" />
      <path
         fill="none"
         stroke="#c2c2c2"
         paint-order="fill stroke markers"
         d="m 416.6037,200.75382 56.62223,42.48368"
         stroke-opacity="1"
         stroke-linejoin="round"
         stroke-miterlimit="10"
         stroke-width="2.27576"
         id="path47"
         style="stroke-width:4.17698;stroke-miterlimit:10;stroke-dasharray:none" />
      <path
         fill="#c2c2c2"
         stroke="none"
         paint-order="stroke fill markers"
         d="m 437.17336,221.17416 9.50544,2.06377 -4.05226,-8.84261 z"
         fill-opacity="1"
         id="path49" />
      <path
         fill="none"
         stroke="#c2c2c2"
         paint-order="fill stroke markers"
         d="m 249.002,201.8414 -34.01892,40.43417"
         stroke-opacity="1"
         stroke-linejoin="round"
         stroke-miterlimit="10"
         stroke-width="2.32006"
         id="path51"
         style="stroke-width:4.31595;stroke-miterlimit:10;stroke-dasharray:none" />
      <path
         fill="#c2c2c2"
         stroke="none"
         paint-order="stroke fill markers"
         d="m 232.2757,214.77201 -1.94483,9.53048 8.79128,-4.16242 z"
         fill-opacity="1"
         id="path53" />
      <path
         fill="none"
         stroke="#c2c2c2"
         paint-order="fill stroke markers"
         d="m 254.87962,203.75766 0.0869,37.6552"
         stroke-opacity="1"
         stroke-linejoin="round"
         stroke-miterlimit="10"
         stroke-width="2.62788"
         id="path55"
         style="stroke-width:4.17698;stroke-miterlimit:10;stroke-dasharray:none" />
      <path
         fill="#c2c2c2"
         stroke="none"
         paint-order="stroke fill markers"
         d="m 250.87633,220.42804 4.733,8.49772 3.95838,-8.88503 z"
         fill-opacity="1"
         id="path57" />
      <path
         fill="none"
         stroke="#c2c2c2"
         paint-order="fill stroke markers"
         d="m 261.39608,201.33666 36.46165,40.20637"
         stroke-opacity="1"
         stroke-linejoin="round"
         stroke-miterlimit="10"
         stroke-width="2.37631"
         id="path59"
         style="stroke-width:4.17698;stroke-miterlimit:10;stroke-dasharray:none" />
      <path
         fill="#c2c2c2"
         stroke="none"
         paint-order="stroke fill markers"
         d="m 273.20042,220.39301 8.96878,3.76477 -2.36945,-9.43389 z"
         fill-opacity="1"
         id="path61" />
      <path
         fill="none"
         stroke="#c2c2c2"
         paint-order="fill stroke markers"
         d="M 613.50013,199.82394 568.0413,244.17711"
         stroke-opacity="1"
         stroke-linejoin="round"
         stroke-miterlimit="10"
         stroke-width="2.70154"
         id="path63"
         style="stroke-width:4.06403;stroke-miterlimit:10;stroke-dasharray:none" />
      <path
         fill="#c2c2c2"
         stroke="none"
         paint-order="stroke fill markers"
         d="m 595.45261,210.74985 -2.96474,9.26407 9.1901,-3.18665 z"
         fill-opacity="1"
         id="path65" />
      <path
         fill="none"
         stroke="#c2c2c2"
         paint-order="fill stroke markers"
         d="m 623.51204,199.03823 48.22935,44.32222"
         stroke-opacity="1"
         stroke-linejoin="round"
         stroke-miterlimit="10"
         stroke-width="2.69921"
         id="path67"
         style="stroke-width:4.06854;stroke-miterlimit:10;stroke-dasharray:none" />
      <path
         fill="#c2c2c2"
         stroke="none"
         paint-order="stroke fill markers"
         d="m 637.91767,218.0169 9.20414,3.14587 -3.00578,-9.25083 z"
         fill-opacity="1"
         id="path69" />
      <path
         fill="none"
         stroke="#c2c2c2"
         paint-order="fill stroke markers"
         d="m 810.2353,146.3105 0.0115,48.60404"
         stroke-opacity="1"
         stroke-linejoin="round"
         stroke-miterlimit="10"
         stroke-width="3"
         id="path71"
         style="stroke-width:4.17698;stroke-miterlimit:10;stroke-dasharray:none" />
      <path
         fill="#c2c2c2"
         stroke="none"
         paint-order="stroke fill markers"
         d="m 805.53007,162.10256 4.71096,8.50996 3.98139,-8.87475 z"
         fill-opacity="1"
         id="path73" />
      <path
         fill="none"
         stroke="#c2c2c2"
         paint-order="fill stroke markers"
         d="m 796.66581,141.4898 -48.59076,47.70248"
         stroke-opacity="1"
         stroke-linejoin="round"
         stroke-miterlimit="10"
         stroke-width="2.81519"
         id="path75"
         style="stroke-width:4.17698;stroke-miterlimit:10;stroke-dasharray:none" />
      <path
         fill="#c2c2c2"
         stroke="none"
         paint-order="stroke fill markers"
         d="m 772.48353,158.89574 -2.31657,9.44701 8.94755,-3.81494 z"
         fill-opacity="1"
         id="path77" />
      <path
         fill="none"
         stroke="#c2c2c2"
         paint-order="fill stroke markers"
         d="m 821.92109,140.86945 53.88053,46.37739"
         stroke-opacity="1"
         stroke-linejoin="round"
         stroke-miterlimit="10"
         stroke-width="2.69264"
         id="path79"
         style="stroke-width:4.2543;stroke-miterlimit:10;stroke-dasharray:none" />
      <path
         fill="#c2c2c2"
         stroke="none"
         paint-order="stroke fill markers"
         d="m 840.41182,162.0822 9.1161,3.39231 -2.7558,-9.32833 z"
         fill-opacity="1"
         id="path81" />
      <path
         fill="none"
         stroke="#c2c2c2"
         paint-order="fill stroke markers"
         d="m 806.56475,201.42936 -32.86262,43.31955"
         stroke-opacity="1"
         stroke-linejoin="round"
         stroke-miterlimit="10"
         stroke-width="2.70704"
         id="path83"
         style="stroke-width:4.17698;stroke-miterlimit:10;stroke-dasharray:none" />
      <path
         fill="#c2c2c2"
         stroke="none"
         paint-order="stroke fill markers"
         d="m 788.24117,218.00846 -0.82042,9.69224 8.24604,-5.15901 z"
         fill-opacity="1"
         id="path85" />
      <path
         fill="none"
         stroke="#c2c2c2"
         paint-order="fill stroke markers"
         d="m 816.92417,201.34872 33.13445,42.53043"
         stroke-opacity="1"
         stroke-linejoin="round"
         stroke-miterlimit="10"
         stroke-width="2.7161"
         id="path87"
         style="stroke-width:4.17698;stroke-miterlimit:10;stroke-dasharray:none" />
      <path
         fill="#c2c2c2"
         stroke="none"
         paint-order="stroke fill markers"
         d="m 827.33862,221.37764 8.3229,5.03406 -0.9665,-9.67876 z"
         fill-opacity="1"
         id="path89" />
      <path
         fill="none"
         stroke="#c2c2c2"
         paint-order="fill stroke markers"
         d="M 595.26678,33.992409 419.4402,110.87246"
         stroke-opacity="1"
         stroke-linejoin="round"
         stroke-miterlimit="10"
         stroke-width="3.28731"
         id="path91"
         style="stroke-width:4.09032;stroke-miterlimit:10;stroke-dasharray:none" />
      <path
         fill="#c2c2c2"
         stroke="none"
         paint-order="stroke fill markers"
         d="m 498.14082,72.112402 -5.79755,7.810315 9.72678,-0.04816 z"
         fill-opacity="1"
         id="path93" />
      <path
         fill="#c2c2c2"
         stroke="none"
         paint-order="stroke fill markers"
         d="m 490.72131,48.187366 -7.4841,6.212956 9.46082,2.259502 z"
         fill-opacity="1"
         id="path97" />
      <path
         fill="none"
         stroke="#c2c2c2"
         paint-order="fill stroke markers"
         d="M 609.96937,28.178769 935.14506,117.99174"
         stroke-opacity="1"
         stroke-linejoin="round"
         stroke-miterlimit="10"
         stroke-width="2.73744"
         id="path99"
         style="stroke-width:4.10282;stroke-miterlimit:10;stroke-dasharray:none" />
      <path
         fill="none"
         stroke="#c2c2c2"
         paint-order="fill stroke markers"
         d="M 239.31124,112.49034 582.48807,33.033154"
         stroke-opacity="1"
         stroke-linejoin="round"
         stroke-miterlimit="10"
         stroke-width="2.73744"
         id="path99-0"
         style="stroke-width:3.90968;stroke-miterlimit:10;stroke-dasharray:none" />
      <path
         fill="#c2c2c2"
         stroke="none"
         paint-order="stroke fill markers"
         d="m 695.56662,56.283374 9.69284,-0.813304 -6.46635,-7.266285 z"
         fill-opacity="1"
         id="path101" />
      <path
         fill="none"
         stroke="#c2c2c2"
         paint-order="fill stroke markers"
         d="m 618.60909,37.112581 174.7806,77.459889"
         stroke-opacity="1"
         stroke-linejoin="round"
         stroke-miterlimit="10"
         stroke-width="3.30556"
         id="path103"
         style="stroke-width:4.05952;stroke-miterlimit:10;stroke-dasharray:none" />
      <path
         fill="#c2c2c2"
         stroke="none"
         paint-order="stroke fill markers"
         d="m 688.27293,72.394765 9.71328,0.514525 -5.41635,-8.079335 z"
         fill-opacity="1"
         id="path105" />
      <path
         fill="#e28150"
         stroke="none"
         paint-order="stroke fill markers"
         d="m 569.28269,247.99771 -0.02,0.50998 -0.06,0.50684 -0.0996,0.50057 -0.13853,0.49122 -0.17665,0.47883 -0.21368,0.4635 -0.24938,0.4453 -0.28355,0.42436 -0.31597,0.40081 -0.34645,0.37478 -0.37478,0.34645 -0.40081,0.31597 -0.42436,0.28355 -0.4453,0.24938 -0.4635,0.21368 -0.47883,0.17665 -0.49122,0.13853 -0.50057,0.0996 -0.50684,0.06 -0.50998,0.02 -0.50998,-0.02 -0.50684,-0.06 -0.50057,-0.0996 -0.49122,-0.13853 -0.47883,-0.17665 -0.4635,-0.21368 -0.4453,-0.24938 -0.42436,-0.28355 -0.40081,-0.31597 -0.37478,-0.34645 -0.34645,-0.37478 -0.31597,-0.40081 -0.28355,-0.42436 -0.24938,-0.4453 -0.21368,-0.4635 -0.17665,-0.47883 -0.13853,-0.49122 -0.0996,-0.50057 -0.06,-0.50684 -0.02,-0.50998 0.02,-0.50998 0.06,-0.50684 0.0996,-0.50057 0.13853,-0.49122 0.17665,-0.47883 0.21368,-0.4635 0.24938,-0.4453 0.28355,-0.42436 0.31597,-0.40081 0.34645,-0.37478 0.37478,-0.34645 0.40081,-0.31597 0.42436,-0.28355 0.4453,-0.24938 0.4635,-0.21368 0.47883,-0.17665 0.49122,-0.13853 0.50057,-0.0996 0.50684,-0.06 0.50998,-0.02 0.50998,0.02 0.50684,0.06 0.50057,0.0996 0.49122,0.13853 0.47883,0.17665 0.4635,0.21368 0.4453,0.24938 0.42436,0.28355 0.40081,0.31597 0.37478,0.34645 0.34645,0.37478 0.31597,0.40081 0.28355,0.42436 0.24938,0.4453 0.21368,0.4635 0.17665,0.47883 0.13853,0.49122 0.0996,0.50057 0.06,0.50684 z"
         fill-opacity="1"
         id="path107" />
      <text
         fill="#000000"
         stroke="none"
         font-family="'Helvetica Neue', Helvetica, sans-serif"
         font-size="8px"
         font-style="normal"
         font-weight="normal"
         text-decoration="normal"
         x="566.24823"
         y="267.48169"
         text-anchor="middle"
         dominant-baseline="text-after-edge"
         fill-opacity="1"
         id="text109"
         style="font-size:12.7299px">Restriction_sites</text>
      <path
         fill="#e28150"
         stroke="none"
         paint-order="stroke fill markers"
         d="m 624,22.5 -0.0694,1.76533 -0.20765,1.754445 -0.34467,1.732746 -0.47955,1.700361 -0.61148,1.657495 -0.73964,1.604409 -0.86325,1.541432 -0.98152,1.46895 -1.09375,1.387413 -1.19923,1.297322 -1.29732,1.199231 -1.38741,1.093748 -1.46895,0.981522 -1.54143,0.863243 -1.60441,0.739642 -1.6575,0.611483 -1.70036,0.479551 -1.73274,0.344665 -1.75445,0.207652 L 601.5,45 l -1.76533,-0.06936 -1.75445,-0.207652 -1.73274,-0.344665 -1.70036,-0.479551 -1.6575,-0.611483 -1.60441,-0.739642 -1.54143,-0.863243 -1.46895,-0.981522 -1.38741,-1.093748 -1.29732,-1.199231 -1.19923,-1.297322 -1.09375,-1.387413 -0.98152,-1.46895 -0.86325,-1.541432 -0.73964,-1.604409 -0.61148,-1.657495 -0.47955,-1.700361 -0.34467,-1.732746 L 579.06936,24.26533 579,22.5 l 0.0694,-1.76533 0.20765,-1.754445 0.34467,-1.732746 0.47955,-1.700361 0.61148,-1.657495 0.73964,-1.604409 0.86325,-1.541432 0.98152,-1.4689502 1.09375,-1.3874129 1.19923,-1.2973215 1.29732,-1.1992316 1.38741,-1.0937482 1.46895,-0.9815213 1.54143,-0.8632431 1.60441,-0.7396427 1.6575,-0.6114821 1.70036,-0.47955161 1.73274,-0.34466445 1.75445,-0.20765235 L 601.5,0 l 1.76533,0.06935999 1.75445,0.20765235 1.73274,0.34466445 1.70036,0.47955161 1.6575,0.6114821 1.60441,0.7396427 1.54143,0.8632431 1.46895,0.9815213 1.38741,1.0937482 1.29732,1.1992316 1.19923,1.2973215 1.09375,1.3874129 0.98152,1.4689502 0.86325,1.541432 0.73964,1.604409 0.61148,1.657495 0.47955,1.700361 0.34467,1.732746 0.20765,1.754445 z"
         fill-opacity="1"
         id="path111" />
      <text
         fill="#000000"
         stroke="none"
         font-family="'Helvetica Neue', Helvetica, sans-serif"
         font-size="8px"
         font-style="normal"
         font-weight="normal"
         text-decoration="normal"
         x="601.5"
         y="0"
         text-anchor="middle"
         dominant-baseline="text-after-edge"
         fill-opacity="1"
         id="text113"
         style="font-size:12.7299px">all_or_nothing</text>
      <path
         fill="#e28150"
         stroke="none"
         paint-order="stroke fill markers"
         d="m 682.83759,247.95665 -0.02,0.50998 -0.06,0.50684 -0.0996,0.50057 -0.13854,0.49122 -0.17665,0.47883 -0.21368,0.46349 -0.24938,0.44531 -0.28355,0.42436 -0.31597,0.40081 -0.34645,0.37478 -0.37478,0.34645 -0.4008,0.31597 -0.42437,0.28355 -0.4453,0.24938 -0.4635,0.21367 -0.47883,0.17665 -0.49121,0.13854 -0.50058,0.0996 -0.50684,0.06 -0.50998,0.02 -0.50998,-0.02 -0.50684,-0.06 -0.50057,-0.0996 -0.49122,-0.13854 -0.47883,-0.17665 -0.4635,-0.21367 -0.4453,-0.24938 -0.42436,-0.28355 -0.40081,-0.31597 -0.37478,-0.34645 -0.34645,-0.37478 -0.31597,-0.40081 -0.28355,-0.42436 -0.24938,-0.44531 -0.21368,-0.46349 -0.17665,-0.47883 -0.13853,-0.49122 -0.0996,-0.50057 -0.06,-0.50684 -0.02,-0.50998 0.02,-0.50999 0.06,-0.50684 0.0996,-0.50057 0.13853,-0.49121 0.17665,-0.47884 0.21368,-0.46349 0.24938,-0.4453 0.28355,-0.42437 0.31597,-0.40081 0.34645,-0.37478 0.37478,-0.34644 0.40081,-0.31597 0.42436,-0.28355 0.4453,-0.24939 0.4635,-0.21367 0.47883,-0.17665 0.49122,-0.13854 0.50057,-0.0996 0.50684,-0.06 0.50998,-0.02 0.50998,0.02 0.50684,0.06 0.50058,0.0996 0.49121,0.13854 0.47883,0.17665 0.4635,0.21367 0.4453,0.24939 0.42437,0.28355 0.4008,0.31597 0.37478,0.34644 0.34645,0.37478 0.31597,0.40081 0.28355,0.42437 0.24938,0.4453 0.21368,0.46349 0.17665,0.47884 0.13854,0.49121 0.0996,0.50057 0.06,0.50684 z"
         fill-opacity="1"
         id="path115" />
      <text
         fill="#000000"
         stroke="none"
         font-family="'Helvetica Neue', Helvetica, sans-serif"
         font-size="8px"
         font-style="normal"
         font-weight="normal"
         text-decoration="normal"
         x="676.33771"
         y="267.71188"
         text-anchor="middle"
         dominant-baseline="text-after-edge"
         fill-opacity="1"
         id="text117"
         style="font-size:12.7299px">PBS_F24</text>
      <path
         fill="#e28150"
         stroke="none"
         paint-order="stroke fill markers"
         d="m 829.57692,126.34946 -0.062,1.56918 -0.1846,1.55951 -0.3064,1.54022 -0.4263,1.51143 -0.5435,1.47333 -0.6575,1.42614 -0.7673,1.37016 -0.87246,1.30574 -0.97222,1.23325 -1.06598,1.15318 -1.15318,1.06598 -1.23325,0.97222 -1.30574,0.87246 -1.37016,0.76733 -1.42614,0.65746 -1.47333,0.54354 -1.51143,0.42627 -1.54022,0.30637 -1.55951,0.18458 -1.56923,0.0616 -1.56918,-0.0616 -1.55951,-0.18458 -1.54022,-0.30637 -1.51143,-0.42627 -1.47333,-0.54354 -1.42614,-0.65746 -1.37016,-0.76733 -1.30574,-0.87246 -1.23325,-0.97222 -1.15318,-1.06598 -1.06598,-1.15318 -0.97222,-1.23325 -0.87246,-1.30574 -0.76733,-1.37016 -0.65746,-1.42614 -0.54354,-1.47333 -0.42627,-1.51143 -0.30637,-1.54022 -0.18458,-1.55951 -0.0616,-1.56923 0.0616,-1.56918 0.18458,-1.55952 0.30637,-1.54022 0.42627,-1.51143 0.54354,-1.47334 0.65746,-1.42615 0.76733,-1.37016 0.87246,-1.30574 0.97222,-1.23326 1.06598,-1.15318 1.15318,-1.06598 1.23325,-0.97222 1.30574,-0.87247 1.37016,-0.76732 1.42614,-0.65747 1.47333,-0.54353 1.51143,-0.42627 1.54022,-0.30637 1.55951,-0.18458 1.56923,-0.0616 1.56918,0.0616 1.55951,0.18458 1.54022,0.30637 1.51143,0.42627 1.47333,0.54353 1.42614,0.65747 1.37016,0.76732 1.30574,0.87247 1.23325,0.97222 1.15318,1.06598 1.06598,1.15319 0.97222,1.23325 0.87246,1.30574 0.7673,1.37016 0.6575,1.42615 0.5435,1.47334 0.4263,1.51143 0.3064,1.54022 0.1846,1.55952 z"
         fill-opacity="1"
         id="path119" />
      <text
         fill="#000000"
         stroke="none"
         font-family="'Helvetica Neue', Helvetica, sans-serif"
         font-size="8px"
         font-style="normal"
         font-weight="normal"
         text-decoration="normal"
         x="814.35052"
         y="106.34944"
         text-anchor="middle"
         dominant-baseline="text-after-edge"
         fill-opacity="1"
         id="text121"
         style="font-size:12.7299px">PA1_04s</text>
      <path
         fill="#e2e250"
         stroke="none"
         paint-order="stroke fill markers"
         d="m 821.67932,195.33701 -0.0308,0.78459 -0.0923,0.77976 -0.15318,0.7701 -0.21314,0.75572 -0.27177,0.73667 -0.32873,0.71307 -0.38366,0.68508 -0.43623,0.65286 -0.48611,0.61663 -0.53299,0.57659 -0.57659,0.53299 -0.61663,0.48611 -0.65287,0.43623 -0.68508,0.38367 -0.71307,0.32873 -0.73666,0.27177 -0.75572,0.21313 -0.77011,0.15318 -0.77975,0.0923 -0.78459,0.0308 -0.78459,-0.0308 -0.77976,-0.0923 -0.77011,-0.15318 -0.75571,-0.21313 -0.73667,-0.27177 -0.71307,-0.32873 -0.68508,-0.38367 -0.65286,-0.43623 -0.61663,-0.48611 -0.57659,-0.53299 -0.53299,-0.57659 -0.48611,-0.61663 -0.43623,-0.65286 -0.38367,-0.68508 -0.32873,-0.71307 -0.27177,-0.73667 -0.21313,-0.75572 -0.15319,-0.7701 -0.0923,-0.77976 -0.0308,-0.78459 0.0308,-0.78459 0.0923,-0.77975 0.15319,-0.77011 0.21313,-0.75572 0.27177,-0.73666 0.32873,-0.71307 0.38367,-0.68508 0.43623,-0.65287 0.48611,-0.61663 0.53299,-0.57659 0.57659,-0.53299 0.61663,-0.48611 0.65286,-0.43623 0.68508,-0.38366 0.71307,-0.32873 0.73667,-0.27177 0.75571,-0.21314 0.77011,-0.15318 0.77976,-0.0923 0.78459,-0.0308 0.78459,0.0308 0.77975,0.0923 0.77011,0.15318 0.75572,0.21314 0.73666,0.27177 0.71307,0.32873 0.68508,0.38366 0.65287,0.43623 0.61663,0.48611 0.57659,0.53299 0.53299,0.57659 0.48611,0.61663 0.43623,0.65287 0.38366,0.68508 0.32873,0.71307 0.27177,0.73666 0.21314,0.75572 0.15318,0.77011 0.0923,0.77975 z"
         fill-opacity="1"
         id="path123" />
      <text
         fill="#000000"
         stroke="none"
         font-family="'Helvetica Neue', Helvetica, sans-serif"
         font-size="8px"
         font-style="normal"
         font-weight="normal"
         text-decoration="normal"
         x="811.67926"
         y="185.33699"
         text-anchor="middle"
         dominant-baseline="text-after-edge"
         fill-opacity="1"
         id="text125"
         style="font-size:12.7299px">sRNA_cassette</text>
      <path
         fill="#e28150"
         stroke="none"
         paint-order="stroke fill markers"
         d="m 429.07607,126.21842 -0.0616,1.56918 -0.18458,1.55951 -0.30637,1.54022 -0.42627,1.51143 -0.54354,1.47333 -0.65746,1.42614 -0.76733,1.37016 -0.87246,1.30574 -0.97222,1.23325 -1.06598,1.15318 -1.15318,1.06598 -1.23325,0.97222 -1.30574,0.87246 -1.37016,0.76733 -1.42614,0.65746 -1.47333,0.54354 -1.51143,0.42627 -1.54022,0.30637 -1.55951,0.18458 -1.56923,0.0616 -1.56918,-0.0616 -1.55951,-0.18458 -1.54022,-0.30637 -1.51143,-0.42627 -1.47333,-0.54354 -1.42614,-0.65746 -1.37016,-0.76733 -1.30574,-0.87246 -1.23325,-0.97222 -1.15318,-1.06598 -1.06598,-1.15318 -0.97222,-1.23325 -0.87246,-1.30574 -0.76733,-1.37016 -0.65746,-1.42614 -0.54354,-1.47333 -0.42627,-1.51143 -0.30637,-1.54022 -0.18458,-1.55951 -0.0616,-1.56923 0.0616,-1.56918 0.18458,-1.55951 0.30637,-1.54023 0.42627,-1.51143 0.54354,-1.47334 0.65746,-1.42614 0.76733,-1.37017 0.87246,-1.30574 0.97222,-1.23326 1.06598,-1.15318 1.15318,-1.06598 1.23325,-0.97222 1.30574,-0.87246 1.37016,-0.76733 1.42614,-0.65746 1.47333,-0.54354 1.51143,-0.42627 1.54022,-0.30637 1.55951,-0.18458 1.56923,-0.0616 1.56918,0.0616 1.55951,0.18458 1.54022,0.30637 1.51143,0.42627 1.47333,0.54354 1.42614,0.65746 1.37016,0.76733 1.30574,0.87246 1.23325,0.97222 1.15318,1.06598 1.06598,1.15319 0.97222,1.23325 0.87246,1.30574 0.76733,1.37017 0.65746,1.42614 0.54354,1.47334 0.42627,1.51143 0.30637,1.54023 0.18458,1.55951 z"
         fill-opacity="1"
         id="path127" />
      <text
         fill="#000000"
         stroke="none"
         font-family="'Helvetica Neue', Helvetica, sans-serif"
         font-size="8px"
         font-style="normal"
         font-weight="normal"
         text-decoration="normal"
         x="409.07608"
         y="106.21843"
         text-anchor="middle"
         dominant-baseline="text-after-edge"
         fill-opacity="1"
         id="text129"
         style="font-size:12.7299px">Pm</text>
      <path
         fill="#e2e250"
         stroke="none"
         paint-order="stroke fill markers"
         d="m 418.62009,195.29558 -0.0308,0.78459 -0.0923,0.77975 -0.15318,0.77011 -0.21313,0.75572 -0.27177,0.73666 -0.32873,0.71307 -0.38366,0.68509 -0.43624,0.65286 -0.48611,0.61663 -0.53298,0.57659 -0.57659,0.53299 -0.61662,0.48611 -0.65287,0.43623 -0.68508,0.38367 -0.71307,0.32873 -0.73666,0.27177 -0.75571,0.21313 -0.77011,0.15318 -0.77975,0.0923 -0.78458,0.0308 -0.7846,-0.0308 -0.77975,-0.0923 -0.7701,-0.15318 -0.75572,-0.21313 -0.73666,-0.27177 -0.71306,-0.32873 -0.68508,-0.38367 -0.65287,-0.43623 -0.61662,-0.48611 -0.57659,-0.53299 -0.53299,-0.57659 -0.48611,-0.61663 -0.43623,-0.65286 -0.38366,-0.68509 -0.32873,-0.71307 -0.27177,-0.73666 -0.21313,-0.75572 -0.15319,-0.77011 -0.0923,-0.77975 -0.0308,-0.78461 0.0308,-0.78459 0.0923,-0.77975 0.15319,-0.77011 0.21313,-0.75572 0.27177,-0.73666 0.32873,-0.71307 0.38366,-0.68509 0.43623,-0.65286 0.48611,-0.61663 0.53299,-0.57659 0.57659,-0.53299 0.61662,-0.48611 0.65287,-0.43623 0.68508,-0.38367 0.71306,-0.32873 0.73666,-0.27177 0.75572,-0.21313 0.7701,-0.15318 0.77975,-0.0923 0.78459,-0.0308 0.78459,0.0308 0.77975,0.0923 0.77011,0.15318 0.75571,0.21313 0.73666,0.27177 0.71307,0.32873 0.68508,0.38367 0.65287,0.43623 0.61662,0.48611 0.57659,0.53299 0.53298,0.57659 0.48611,0.61663 0.43624,0.65286 0.38366,0.68509 0.32873,0.71307 0.27177,0.73666 0.21313,0.75572 0.15318,0.77011 0.0923,0.77975 z"
         fill-opacity="1"
         id="path131" />
      <text
         fill="#000000"
         stroke="none"
         font-family="'Helvetica Neue', Helvetica, sans-serif"
         font-size="8px"
         font-style="normal"
         font-weight="normal"
         text-decoration="normal"
         x="408.8118"
         y="185.67921"
         text-anchor="middle"
         dominant-baseline="text-after-edge"
         fill-opacity="1"
         id="text133"
         style="font-size:12.7299px">gfp_cassette</text>
      <path
         fill="#e2e250"
         stroke="none"
         paint-order="stroke fill markers"
         d="m 264.87985,194.94465 -0.0308,0.78459 -0.0923,0.77975 -0.15318,0.77011 -0.21313,0.75572 -0.27177,0.73666 -0.32873,0.71307 -0.38367,0.68509 -0.43623,0.65286 -0.48611,0.61663 -0.53299,0.57659 -0.57659,0.53299 -0.61663,0.48611 -0.65286,0.43623 -0.68509,0.38367 -0.71307,0.32873 -0.73666,0.27177 -0.75572,0.21313 -0.77011,0.15318 -0.77975,0.0923 -0.78461,0.0308 -0.78459,-0.0308 -0.77975,-0.0923 -0.77011,-0.15318 -0.75572,-0.21313 -0.73666,-0.27177 -0.71307,-0.32873 -0.68509,-0.38367 -0.65286,-0.43623 -0.61663,-0.48611 -0.57659,-0.53299 -0.53299,-0.57659 -0.48611,-0.61663 -0.43623,-0.65286 -0.38367,-0.68509 -0.32873,-0.71307 -0.27177,-0.73666 -0.21313,-0.75572 -0.15318,-0.77011 -0.0923,-0.77975 -0.0308,-0.78461 0.0308,-0.78459 0.0923,-0.77975 0.15318,-0.77011 0.21313,-0.75572 0.27177,-0.73666 0.32873,-0.71307 0.38367,-0.68509 0.43623,-0.65286 0.48611,-0.61663 0.53299,-0.57659 0.57659,-0.53299 0.61663,-0.48611 0.65286,-0.43623 0.68509,-0.38367 0.71307,-0.32873 0.73666,-0.27177 0.75572,-0.21313 0.77011,-0.15318 0.77975,-0.0923 0.78461,-0.0308 0.78459,0.0308 0.77975,0.0923 0.77011,0.15318 0.75572,0.21313 0.73666,0.27177 0.71307,0.32873 0.68509,0.38367 0.65286,0.43623 0.61663,0.48611 0.57659,0.53299 0.53299,0.57659 0.48611,0.61663 0.43623,0.65286 0.38367,0.68509 0.32873,0.71307 0.27177,0.73666 0.21313,0.75572 0.15318,0.77011 0.0923,0.77975 z"
         fill-opacity="1"
         id="path135" />
      <text
         fill="#000000"
         stroke="none"
         font-family="'Helvetica Neue', Helvetica, sans-serif"
         font-size="8px"
         font-style="normal"
         font-weight="normal"
         text-decoration="normal"
         x="254.87979"
         y="183.75124"
         text-anchor="middle"
         dominant-baseline="text-after-edge"
         fill-opacity="1"
         id="text137"
         style="font-size:12.7299px">LacI_cassette</text>
      <path
         fill="#81e250"
         stroke="none"
         paint-order="stroke fill markers"
         d="m 694.42259,195.74316 -0.0308,0.78459 -0.0923,0.77975 -0.15318,0.77011 -0.21313,0.75572 -0.27177,0.73666 -0.32873,0.71307 -0.38367,0.68509 -0.43623,0.65286 -0.48611,0.61663 -0.53299,0.57659 -0.57659,0.53299 -0.61663,0.48611 -0.65286,0.43623 -0.68509,0.38367 -0.71307,0.32873 -0.73666,0.27177 -0.75572,0.21313 -0.77011,0.15318 -0.77975,0.0923 -0.78461,0.0308 -0.78459,-0.0308 -0.77975,-0.0923 -0.77011,-0.15318 -0.75572,-0.21313 -0.73666,-0.27177 -0.71307,-0.32873 -0.68509,-0.38367 -0.65286,-0.43623 -0.61663,-0.48611 -0.57659,-0.53299 -0.53299,-0.57659 -0.48611,-0.61663 -0.43623,-0.65286 -0.38367,-0.68509 -0.32873,-0.71307 -0.27177,-0.73666 -0.21313,-0.75572 -0.15318,-0.77011 -0.0923,-0.77975 -0.0308,-0.78461 0.0308,-0.78459 0.0923,-0.77975 0.15318,-0.77011 0.21313,-0.75572 0.27177,-0.73666 0.32873,-0.71307 0.38367,-0.68509 0.43623,-0.65286 0.48611,-0.61663 0.53299,-0.57659 0.57659,-0.53299 0.61663,-0.48611 0.65286,-0.43623 0.68509,-0.38367 0.71307,-0.32873 0.73666,-0.27177 0.75572,-0.21313 0.77011,-0.15318 0.77975,-0.0923 0.78461,-0.0308 0.78459,0.0308 0.77975,0.0923 0.77011,0.15318 0.75572,0.21313 0.73666,0.27177 0.71307,0.32873 0.68509,0.38367 0.65286,0.43623 0.61663,0.48611 0.57659,0.53299 0.53299,0.57659 0.48611,0.61663 0.43623,0.65286 0.38367,0.68509 0.32873,0.71307 0.27177,0.73666 0.21313,0.75572 0.15318,0.77011 0.0923,0.77975 z"
         fill-opacity="1"
         id="path139"
         style="fill:#ff65ac;fill-opacity:1" />
      <text
         fill="#000000"
         stroke="none"
         font-family="'Helvetica Neue', Helvetica, sans-serif"
         font-size="8px"
         font-style="normal"
         font-weight="normal"
         text-decoration="normal"
         x="684.42261"
         y="220.35234"
         text-anchor="middle"
         dominant-baseline="text-after-edge"
         fill-opacity="1"
         id="text141"
         style="font-size:12.7299px">T500</text>
      <path
         fill="#e28150"
         stroke="none"
         paint-order="stroke fill markers"
         d="m 168.71509,194.86101 -0.0308,0.78459 -0.0923,0.77975 -0.15318,0.77011 -0.21313,0.75572 -0.27177,0.73666 -0.32873,0.71307 -0.38367,0.68509 -0.43623,0.65286 -0.48611,0.61663 -0.53299,0.57659 -0.57659,0.53299 -0.61663,0.48611 -0.65286,0.43623 -0.68509,0.38367 -0.71307,0.32873 -0.73666,0.27177 -0.75572,0.21313 -0.77011,0.15318 -0.77975,0.0923 -0.78461,0.0308 -0.78459,-0.0308 -0.77975,-0.0923 -0.77011,-0.15318 -0.75572,-0.21313 -0.73666,-0.27177 -0.71307,-0.32873 -0.68509,-0.38367 -0.65286,-0.43623 -0.61663,-0.48611 -0.57659,-0.53299 -0.53299,-0.57659 -0.48611,-0.61663 -0.43623,-0.65286 -0.38367,-0.68509 -0.32873,-0.71307 -0.27177,-0.73666 -0.21313,-0.75572 -0.15318,-0.77011 -0.0923,-0.77975 -0.0308,-0.78461 0.0308,-0.78459 0.0923,-0.77975 0.15318,-0.77011 0.21313,-0.75572 0.27177,-0.73666 0.32873,-0.71307 0.38367,-0.68509 0.43623,-0.65286 0.48611,-0.61663 0.53299,-0.57659 0.57659,-0.53299 0.61663,-0.48611 0.65286,-0.43623 0.68509,-0.38367 0.71307,-0.32873 0.73666,-0.27177 0.75572,-0.21313 0.77011,-0.15318 0.77975,-0.0923 0.78461,-0.0308 0.78459,0.0308 0.77975,0.0923 0.77011,0.15318 0.75572,0.21313 0.73666,0.27177 0.71307,0.32873 0.68509,0.38367 0.65286,0.43623 0.61663,0.48611 0.57659,0.53299 0.53299,0.57659 0.48611,0.61663 0.43623,0.65286 0.38367,0.68509 0.32873,0.71307 0.27177,0.73666 0.21313,0.75572 0.15318,0.77011 0.0923,0.77975 z"
         fill-opacity="1"
         id="path143" />
      <text
         fill="#000000"
         stroke="none"
         font-family="'Helvetica Neue', Helvetica, sans-serif"
         font-size="8px"
         font-style="normal"
         font-weight="normal"
         text-decoration="normal"
         x="157.63556"
         y="217.57167"
         text-anchor="middle"
         dominant-baseline="text-after-edge"
         fill-opacity="1"
         id="text145"
         style="font-size:12.7299px">RBS_cassette</text>
      <path
         fill="#e28150"
         stroke="none"
         paint-order="stroke fill markers"
         d="m 629.10373,195.81875 -0.0308,0.78459 -0.0923,0.77975 -0.15318,0.77011 -0.21313,0.75572 -0.27177,0.73666 -0.32873,0.71307 -0.38367,0.68509 -0.43623,0.65286 -0.48611,0.61663 -0.53299,0.57659 -0.57659,0.53299 -0.61663,0.48611 -0.65286,0.43623 -0.68509,0.38367 -0.71307,0.32873 -0.73666,0.27177 -0.75572,0.21313 -0.77011,0.15318 -0.77975,0.0923 -0.78461,0.0308 -0.78459,-0.0308 -0.77975,-0.0923 -0.77011,-0.15318 -0.75572,-0.21313 -0.73666,-0.27177 -0.71307,-0.32873 -0.68509,-0.38367 -0.65286,-0.43623 -0.61663,-0.48611 -0.57659,-0.53299 -0.53299,-0.57659 -0.48611,-0.61663 -0.43623,-0.65286 -0.38367,-0.68509 -0.32873,-0.71307 -0.27177,-0.73666 -0.21313,-0.75572 -0.15318,-0.77011 -0.0923,-0.77975 -0.0308,-0.78461 0.0308,-0.78459 0.0923,-0.77975 0.15318,-0.77011 0.21313,-0.75572 0.27177,-0.73666 0.32873,-0.71307 0.38367,-0.68509 0.43623,-0.65286 0.48611,-0.61663 0.53299,-0.57659 0.57659,-0.53299 0.61663,-0.48611 0.65286,-0.43623 0.68509,-0.38367 0.71307,-0.32873 0.73666,-0.27177 0.75572,-0.21313 0.77011,-0.15318 0.77975,-0.0923 0.78461,-0.0308 0.78459,0.0308 0.77975,0.0923 0.77011,0.15318 0.75572,0.21313 0.73666,0.27177 0.71307,0.32873 0.68509,0.38367 0.65286,0.43623 0.61663,0.48611 0.57659,0.53299 0.53299,0.57659 0.48611,0.61663 0.43623,0.65286 0.38367,0.68509 0.32873,0.71307 0.27177,0.73666 0.21313,0.75572 0.15318,0.77011 0.0923,0.77975 z"
         fill-opacity="1"
         id="path147" />
      <text
         fill="#000000"
         stroke="none"
         font-family="'Helvetica Neue', Helvetica, sans-serif"
         font-size="8px"
         font-style="normal"
         font-weight="normal"
         text-decoration="normal"
         x="619.10382"
         y="187.01216"
         text-anchor="middle"
         dominant-baseline="text-after-edge"
         fill-opacity="1"
         id="text149"
         style="font-size:12.7299px">MCS</text>
      <path
         fill="#50e281"
         stroke="none"
         paint-order="stroke fill markers"
         d="m 63.613778,195.20637 -0.0308,0.78459 -0.0923,0.77975 -0.15318,0.77011 -0.21313,0.75572 -0.27177,0.73666 -0.32873,0.71307 -0.38367,0.68509 -0.43623,0.65286 -0.48611,0.61663 -0.53299,0.57659 -0.57659,0.53299 -0.61663,0.48611 -0.65286,0.43623 -0.68509,0.38367 -0.71307,0.32873 -0.73666,0.27177 -0.75572,0.21313 -0.77012,0.15318 -0.77975,0.0923 -0.78461,0.0308 -0.78459,-0.0308 -0.77975,-0.0923 -0.77012,-0.15318 -0.75572,-0.21313 -0.73666,-0.27177 -0.71308,-0.32873 -0.68509,-0.38367 -0.65286,-0.43623 -0.61663,-0.48611 -0.57659,-0.53299 -0.53299,-0.57659 -0.48612,-0.61663 -0.43623,-0.65286 -0.38367,-0.68509 -0.32873,-0.71307 -0.27177,-0.73666 -0.21313,-0.75572 -0.15318,-0.77011 -0.0923,-0.77975 -0.0308,-0.78461 0.0308,-0.78459 0.0923,-0.77975 0.15318,-0.77011 0.21313,-0.75572 0.27177,-0.73666 0.32873,-0.71307 0.38367,-0.68509 0.43623,-0.65286 0.48612,-0.61663 0.53299,-0.57659 0.57659,-0.53299 0.61663,-0.48611 0.65286,-0.43623 0.68509,-0.38367 0.71308,-0.32873 0.73666,-0.27177 0.75572,-0.21313 0.77012,-0.15318 0.77975,-0.0923 0.78461,-0.0308 0.78459,0.0308 0.77975,0.0923 0.77012,0.15318 0.75572,0.21313 0.73666,0.27177 0.71307,0.32873 0.68509,0.38367 0.65286,0.43623 0.61663,0.48611 0.57659,0.53299 0.53299,0.57659 0.48611,0.61663 0.43623,0.65286 0.38367,0.68509 0.32873,0.71307 0.27177,0.73666 0.21313,0.75572 0.15318,0.77011 0.0923,0.77975 z"
         fill-opacity="1"
         id="path151" />
      <text
         fill="#000000"
         stroke="none"
         font-family="'Helvetica Neue', Helvetica, sans-serif"
         font-size="8px"
         font-style="normal"
         font-weight="normal"
         text-decoration="normal"
         x="54.474106"
         y="217.94991"
         text-anchor="middle"
         dominant-baseline="text-after-edge"
         fill-opacity="1"
         id="text153"
         style="font-size:12.7299px">XylSPm</text>
      <path
         fill="#50e281"
         stroke="none"
         paint-order="stroke fill markers"
         d="m 891.67932,195.33701 -0.031,0.78459 -0.092,0.77976 -0.1532,0.7701 -0.2131,0.75572 -0.2718,0.73667 -0.3287,0.71307 -0.3837,0.68508 -0.4362,0.65286 -0.4861,0.61663 -0.533,0.57659 -0.5766,0.53299 -0.6166,0.48611 -0.6529,0.43623 -0.6851,0.38367 -0.713,0.32873 -0.7367,0.27177 -0.7557,0.21313 -0.7701,0.15318 -0.7798,0.0923 -0.7846,0.0308 -0.7846,-0.0308 -0.7797,-0.0923 -0.7701,-0.15318 -0.7557,-0.21313 -0.7367,-0.27177 -0.7131,-0.32873 -0.6851,-0.38367 -0.6528,-0.43623 -0.6167,-0.48611 -0.5765,-0.53299 -0.533,-0.57659 -0.4861,-0.61663 -0.4363,-0.65286 -0.3836,-0.68508 -0.3288,-0.71307 -0.2717,-0.73667 -0.2132,-0.75572 -0.1532,-0.7701 -0.092,-0.77976 -0.031,-0.78459 0.031,-0.78459 0.092,-0.77975 0.1532,-0.77011 0.2132,-0.75572 0.2717,-0.73666 0.3288,-0.71307 0.3836,-0.68508 0.4363,-0.65287 0.4861,-0.61663 0.533,-0.57659 0.5765,-0.53299 0.6167,-0.48611 0.6528,-0.43623 0.6851,-0.38366 0.7131,-0.32873 0.7367,-0.27177 0.7557,-0.21314 0.7701,-0.15318 0.7797,-0.0923 0.7846,-0.0308 0.7846,0.0308 0.7798,0.0923 0.7701,0.15318 0.7557,0.21314 0.7367,0.27177 0.713,0.32873 0.6851,0.38366 0.6529,0.43623 0.6166,0.48611 0.5766,0.53299 0.533,0.57659 0.4861,0.61663 0.4362,0.65287 0.3837,0.68508 0.3287,0.71307 0.2718,0.73666 0.2131,0.75572 0.1532,0.77011 0.092,0.77975 z"
         fill-opacity="1"
         id="path155" />
      <text
         fill="#000000"
         stroke="none"
         font-family="'Helvetica Neue', Helvetica, sans-serif"
         font-size="8px"
         font-style="normal"
         font-weight="normal"
         text-decoration="normal"
         x="892.4201"
         y="218.75276"
         text-anchor="middle"
         dominant-baseline="text-after-edge"
         fill-opacity="1"
         id="text157"
         style="font-size:12.7299px">PA1_04s</text>
      <path
         fill="#e28150"
         stroke="none"
         paint-order="stroke fill markers"
         d="m 776.91128,247.42137 -0.02,0.50998 -0.06,0.50684 -0.0996,0.50057 -0.13853,0.49122 -0.17665,0.47883 -0.21368,0.4635 -0.24938,0.4453 -0.28355,0.42436 -0.31597,0.40081 -0.34645,0.37478 -0.37478,0.34645 -0.40081,0.31597 -0.42436,0.28355 -0.4453,0.24938 -0.4635,0.21367 -0.47883,0.17666 -0.49122,0.13853 -0.50057,0.0996 -0.50684,0.06 -0.50998,0.02 -0.50999,-0.02 -0.50683,-0.06 -0.50058,-0.0996 -0.49121,-0.13853 -0.47883,-0.17666 -0.4635,-0.21367 -0.4453,-0.24938 -0.42437,-0.28355 -0.4008,-0.31597 -0.37479,-0.34645 -0.34644,-0.37478 -0.31597,-0.40081 -0.28355,-0.42436 -0.24938,-0.4453 -0.21368,-0.4635 -0.17665,-0.47883 -0.13854,-0.49122 -0.0996,-0.50057 -0.06,-0.50684 -0.02,-0.50998 0.02,-0.50999 0.06,-0.50684 0.0996,-0.50057 0.13854,-0.49121 0.17665,-0.47883 0.21368,-0.4635 0.24938,-0.4453 0.28355,-0.42437 0.31597,-0.4008 0.34644,-0.37479 0.37479,-0.34644 0.4008,-0.31597 0.42437,-0.28355 0.4453,-0.24938 0.4635,-0.21368 0.47883,-0.17665 0.49121,-0.13854 0.50058,-0.0996 0.50683,-0.06 0.50999,-0.02 0.50998,0.02 0.50684,0.06 0.50057,0.0996 0.49122,0.13854 0.47883,0.17665 0.4635,0.21368 0.4453,0.24938 0.42436,0.28355 0.40081,0.31597 0.37478,0.34644 0.34645,0.37479 0.31597,0.4008 0.28355,0.42437 0.24938,0.4453 0.21368,0.4635 0.17665,0.47883 0.13853,0.49121 0.0996,0.50057 0.06,0.50684 z"
         fill-opacity="1"
         id="path159" />
      <text
         fill="#000000"
         stroke="none"
         font-family="'Helvetica Neue', Helvetica, sans-serif"
         font-size="8px"
         font-style="normal"
         font-weight="normal"
         text-decoration="normal"
         x="770.41125"
         y="267.17661"
         text-anchor="middle"
         dominant-baseline="text-after-edge"
         fill-opacity="1"
         id="text161"
         style="font-size:12.7299px">MICc_scaffold</text>
      <path
         fill="#e28150"
         stroke="none"
         paint-order="stroke fill markers"
         d="m 306.19231,247.67909 -0.02,0.50998 -0.06,0.50684 -0.0996,0.50057 -0.13854,0.49122 -0.17665,0.47883 -0.21368,0.4635 -0.24938,0.4453 -0.28355,0.42436 -0.31597,0.40081 -0.34645,0.37478 -0.37478,0.34645 -0.4008,0.31597 -0.42437,0.28355 -0.4453,0.24938 -0.4635,0.21368 -0.47883,0.17665 -0.49121,0.13853 -0.50058,0.0996 -0.50684,0.06 -0.50998,0.02 -0.50998,-0.02 -0.50684,-0.06 -0.50057,-0.0996 -0.49122,-0.13853 -0.47883,-0.17665 -0.4635,-0.21368 -0.4453,-0.24938 -0.42436,-0.28355 -0.40081,-0.31597 -0.37478,-0.34645 -0.34645,-0.37478 -0.31597,-0.40081 -0.28355,-0.42436 -0.24938,-0.4453 -0.21368,-0.4635 -0.17665,-0.47883 -0.13853,-0.49122 -0.0996,-0.50057 -0.06,-0.50684 -0.02,-0.50998 0.02,-0.50999 0.06,-0.50684 0.0996,-0.50057 0.13853,-0.49121 0.17665,-0.47883 0.21368,-0.4635 0.24938,-0.4453 0.28355,-0.42437 0.31597,-0.4008 0.34645,-0.37479 0.37478,-0.34644 0.40081,-0.31597 0.42436,-0.28355 0.4453,-0.24938 0.4635,-0.21368 0.47883,-0.17665 0.49122,-0.13854 0.50057,-0.0996 0.50684,-0.06 0.50998,-0.02 0.50998,0.02 0.50684,0.06 0.50058,0.0996 0.49121,0.13854 0.47883,0.17665 0.4635,0.21368 0.4453,0.24938 0.42437,0.28355 0.4008,0.31597 0.37478,0.34644 0.34645,0.37479 0.31597,0.4008 0.28355,0.42437 0.24938,0.4453 0.21368,0.4635 0.17665,0.47883 0.13854,0.49121 0.0996,0.50057 0.06,0.50684 z"
         fill-opacity="1"
         id="path163" />
      <text
         fill="#000000"
         stroke="none"
         font-family="'Helvetica Neue', Helvetica, sans-serif"
         font-size="8px"
         font-style="normal"
         font-weight="normal"
         text-decoration="normal"
         x="298.87845"
         y="267.97687"
         text-anchor="middle"
         dominant-baseline="text-after-edge"
         fill-opacity="1"
         id="text165"
         style="font-size:12.7299px">Coupling</text>
      <path
         fill="#e28150"
         stroke="none"
         paint-order="stroke fill markers"
         d="m 859.93492,247.1497 -0.02,0.50998 -0.06,0.50684 -0.1,0.50057 -0.1385,0.49122 -0.1767,0.47883 -0.2136,0.4635 -0.2494,0.4453 -0.2836,0.42436 -0.3159,0.40081 -0.3465,0.37478 -0.3748,0.34645 -0.4008,0.31597 -0.4243,0.28355 -0.4453,0.24938 -0.4635,0.21368 -0.4789,0.17665 -0.4912,0.13853 -0.5006,0.0996 -0.5068,0.06 -0.51,0.02 -0.51,-0.02 -0.5068,-0.06 -0.5006,-0.0996 -0.4912,-0.13853 -0.4788,-0.17665 -0.4635,-0.21368 -0.4453,-0.24938 -0.4244,-0.28355 -0.4008,-0.31597 -0.3748,-0.34645 -0.3464,-0.37478 -0.316,-0.40081 -0.2835,-0.42436 -0.2494,-0.4453 -0.2137,-0.4635 -0.1767,-0.47883 -0.1385,-0.49122 -0.1,-0.50057 -0.06,-0.50684 -0.02,-0.50998 0.02,-0.50999 0.06,-0.50684 0.1,-0.50057 0.1385,-0.49121 0.1767,-0.47883 0.2137,-0.4635 0.2494,-0.4453 0.2835,-0.42437 0.316,-0.4008 0.3464,-0.37479 0.3748,-0.34644 0.4008,-0.31597 0.4244,-0.28355 0.4453,-0.24938 0.4635,-0.21368 0.4788,-0.17665 0.4912,-0.13854 0.5006,-0.0996 0.5068,-0.06 0.51,-0.02 0.51,0.02 0.5068,0.06 0.5006,0.0996 0.4912,0.13854 0.4789,0.17665 0.4635,0.21368 0.4453,0.24938 0.4243,0.28355 0.4008,0.31597 0.3748,0.34644 0.3465,0.37479 0.3159,0.4008 0.2836,0.42437 0.2494,0.4453 0.2136,0.4635 0.1767,0.47883 0.1385,0.49121 0.1,0.50057 0.06,0.50684 z"
         fill-opacity="1"
         id="path167" />
      <text
         fill="#000000"
         stroke="none"
         font-family="'Helvetica Neue', Helvetica, sans-serif"
         font-size="8px"
         font-style="normal"
         font-weight="normal"
         text-decoration="normal"
         x="864.17572"
         y="266.90494"
         text-anchor="middle"
         dominant-baseline="text-after-edge"
         fill-opacity="1"
         id="text169"
         style="font-size:12.7299px">sRNA_target</text>
      <path
         fill="#e28150"
         stroke="none"
         paint-order="stroke fill markers"
         d="m 349.69163,247.94063 -0.02,0.50999 -0.06,0.50684 -0.0996,0.50057 -0.13854,0.49121 -0.17665,0.47884 -0.21367,0.46349 -0.24938,0.4453 -0.28355,0.42437 -0.31597,0.40081 -0.34645,0.37478 -0.37478,0.34644 -0.4008,0.31597 -0.42437,0.28355 -0.4453,0.24939 -0.46349,0.21367 -0.47883,0.17665 -0.49121,0.13854 -0.50057,0.0996 -0.50684,0.06 -0.50998,0.02 -0.50999,-0.02 -0.50683,-0.06 -0.50057,-0.0996 -0.49122,-0.13854 -0.47883,-0.17665 -0.46349,-0.21367 -0.4453,-0.24939 -0.42437,-0.28355 -0.4008,-0.31597 -0.37478,-0.34644 -0.34645,-0.37478 -0.31597,-0.40081 -0.28355,-0.42437 -0.24938,-0.4453 -0.21367,-0.46349 -0.17665,-0.47884 -0.13854,-0.49121 -0.0996,-0.50057 -0.06,-0.50684 -0.02,-0.50999 0.02,-0.50998 0.06,-0.50684 0.0996,-0.50057 0.13854,-0.49122 0.17665,-0.47883 0.21367,-0.4635 0.24938,-0.4453 0.28355,-0.42436 0.31597,-0.40081 0.34645,-0.37478 0.37478,-0.34645 0.4008,-0.31597 0.42437,-0.28355 0.4453,-0.24938 0.46349,-0.21367 0.47883,-0.17665 0.49122,-0.13854 0.50057,-0.0996 0.50683,-0.06 0.50999,-0.02 0.50998,0.02 0.50684,0.06 0.50057,0.0996 0.49121,0.13854 0.47883,0.17665 0.46349,0.21367 0.4453,0.24938 0.42437,0.28355 0.4008,0.31597 0.37478,0.34645 0.34645,0.37478 0.31597,0.40081 0.28355,0.42436 0.24938,0.4453 0.21367,0.4635 0.17665,0.47883 0.13854,0.49122 0.0996,0.50057 0.06,0.50684 z"
         fill-opacity="1"
         id="path171" />
      <text
         fill="#000000"
         stroke="none"
         font-family="'Helvetica Neue', Helvetica, sans-serif"
         font-size="8px"
         font-style="normal"
         font-weight="normal"
         text-decoration="normal"
         x="344.00531"
         y="268.07553"
         text-anchor="middle"
         dominant-baseline="text-after-edge"
         fill-opacity="1"
         id="text173"
         style="font-size:12.7299px">ATG</text>
      <path
         fill="#e2e250"
         stroke="none"
         paint-order="stroke fill markers"
         d="m 438.69525,247.94063 -0.02,0.50999 -0.06,0.50684 -0.0996,0.50057 -0.13854,0.49121 -0.17665,0.47884 -0.21368,0.46349 -0.24938,0.4453 -0.28355,0.42437 -0.31597,0.40081 -0.34644,0.37478 -0.37479,0.34644 -0.4008,0.31597 -0.42437,0.28355 -0.4453,0.24939 -0.4635,0.21367 -0.47883,0.17665 -0.49121,0.13854 -0.50057,0.0996 -0.50684,0.06 -0.50999,0.02 -0.50998,-0.02 -0.50684,-0.06 -0.50057,-0.0996 -0.49122,-0.13854 -0.47883,-0.17665 -0.4635,-0.21367 -0.4453,-0.24939 -0.42436,-0.28355 -0.40081,-0.31597 -0.37478,-0.34644 -0.34644,-0.37478 -0.31597,-0.40081 -0.28355,-0.42437 -0.24938,-0.4453 -0.21368,-0.46349 -0.17665,-0.47884 -0.13853,-0.49121 -0.0996,-0.50057 -0.06,-0.50684 -0.02,-0.50999 0.02,-0.50998 0.06,-0.50684 0.0996,-0.50057 0.13853,-0.49122 0.17665,-0.47883 0.21368,-0.4635 0.24938,-0.4453 0.28355,-0.42436 0.31597,-0.40081 0.34644,-0.37478 0.37478,-0.34645 0.40081,-0.31597 0.42436,-0.28355 0.4453,-0.24938 0.4635,-0.21367 0.47883,-0.17665 0.49122,-0.13854 0.50057,-0.0996 0.50684,-0.06 0.50998,-0.02 0.50999,0.02 0.50684,0.06 0.50057,0.0996 0.49121,0.13854 0.47883,0.17665 0.4635,0.21367 0.4453,0.24938 0.42437,0.28355 0.4008,0.31597 0.37479,0.34645 0.34644,0.37478 0.31597,0.40081 0.28355,0.42436 0.24938,0.4453 0.21368,0.4635 0.17665,0.47883 0.13854,0.49122 0.0996,0.50057 0.06,0.50684 z"
         fill-opacity="1"
         id="path175" />
      <text
         fill="#000000"
         stroke="none"
         font-family="'Helvetica Neue', Helvetica, sans-serif"
         font-size="8px"
         font-style="normal"
         font-weight="normal"
         text-decoration="normal"
         x="427.31323"
         y="267.15335"
         text-anchor="middle"
         dominant-baseline="text-after-edge"
         fill-opacity="1"
         id="text177"
         style="font-size:12.7299px">msfGFP</text>
      <path
         fill="#e28150"
         stroke="none"
         paint-order="stroke fill markers"
         d="m 217.26167,247.21821 -0.02,0.50999 -0.06,0.50684 -0.0996,0.50057 -0.13854,0.49121 -0.17665,0.47884 -0.21367,0.46349 -0.24938,0.4453 -0.28355,0.42437 -0.31597,0.40081 -0.34645,0.37478 -0.37478,0.34644 -0.40081,0.31597 -0.42436,0.28355 -0.44531,0.24939 -0.46349,0.21367 -0.47883,0.17665 -0.49122,0.13854 -0.50057,0.0996 -0.50684,0.06 -0.50998,0.02 -0.50999,-0.02 -0.50684,-0.06 -0.50057,-0.0996 -0.49121,-0.13854 -0.47884,-0.17665 -0.46349,-0.21367 -0.4453,-0.24939 -0.42437,-0.28355 -0.40081,-0.31597 -0.37478,-0.34644 -0.34644,-0.37478 -0.31597,-0.40081 -0.28355,-0.42437 -0.24939,-0.4453 -0.21367,-0.46349 -0.17665,-0.47884 -0.13854,-0.49121 -0.0996,-0.50057 -0.06,-0.50684 -0.02,-0.50999 0.02,-0.50998 0.06,-0.50684 0.0996,-0.50057 0.13854,-0.49122 0.17665,-0.47883 0.21367,-0.4635 0.24939,-0.4453 0.28355,-0.42436 0.31597,-0.40081 0.34644,-0.37478 0.37478,-0.34645 0.40081,-0.31597 0.42437,-0.28355 0.4453,-0.24938 0.46349,-0.21367 0.47884,-0.17665 0.49121,-0.13854 0.50057,-0.0996 0.50684,-0.06 0.50999,-0.02 0.50998,0.02 0.50684,0.06 0.50057,0.0996 0.49122,0.13854 0.47883,0.17665 0.46349,0.21367 0.44531,0.24938 0.42436,0.28355 0.40081,0.31597 0.37478,0.34645 0.34645,0.37478 0.31597,0.40081 0.28355,0.42436 0.24938,0.4453 0.21367,0.4635 0.17665,0.47883 0.13854,0.49122 0.0996,0.50057 0.06,0.50684 z"
         fill-opacity="1"
         id="path179" />
      <text
         fill="#000000"
         stroke="none"
         font-family="'Helvetica Neue', Helvetica, sans-serif"
         font-size="8px"
         font-style="normal"
         font-weight="normal"
         text-decoration="normal"
         x="208.37479"
         y="266.97345"
         text-anchor="middle"
         dominant-baseline="text-after-edge"
         fill-opacity="1"
         id="text181"
         style="font-size:12.7299px">Spacer</text>
      <path
         fill="#e28150"
         stroke="none"
         paint-order="stroke fill markers"
         d="m 393.59672,247.94063 -0.02,0.50999 -0.06,0.50684 -0.0996,0.50057 -0.13853,0.49121 -0.17665,0.47884 -0.21368,0.46349 -0.24938,0.4453 -0.28355,0.42437 -0.31597,0.40081 -0.34645,0.37478 -0.37478,0.34644 -0.4008,0.31597 -0.42437,0.28355 -0.44529,0.24939 -0.4635,0.21367 -0.47883,0.17665 -0.49122,0.13854 -0.50057,0.0996 -0.50684,0.06 -0.50998,0.02 -0.50999,-0.02 -0.50683,-0.06 -0.50057,-0.0996 -0.49122,-0.13854 -0.47883,-0.17665 -0.46349,-0.21367 -0.4453,-0.24939 -0.42437,-0.28355 -0.4008,-0.31597 -0.37478,-0.34644 -0.34645,-0.37478 -0.31597,-0.40081 -0.28355,-0.42437 -0.24938,-0.4453 -0.21367,-0.46349 -0.17665,-0.47884 -0.13854,-0.49121 -0.0996,-0.50057 -0.06,-0.50684 -0.02,-0.50999 0.02,-0.50998 0.06,-0.50684 0.0996,-0.50057 0.13854,-0.49122 0.17665,-0.47883 0.21367,-0.4635 0.24938,-0.4453 0.28355,-0.42436 0.31597,-0.40081 0.34645,-0.37478 0.37478,-0.34645 0.4008,-0.31597 0.42437,-0.28355 0.4453,-0.24938 0.46349,-0.21367 0.47883,-0.17665 0.49122,-0.13854 0.50057,-0.0996 0.50683,-0.06 0.50999,-0.02 0.50998,0.02 0.50684,0.06 0.50057,0.0996 0.49122,0.13854 0.47883,0.17665 0.4635,0.21367 0.44529,0.24938 0.42437,0.28355 0.4008,0.31597 0.37478,0.34645 0.34645,0.37478 0.31597,0.40081 0.28355,0.42436 0.24938,0.4453 0.21368,0.4635 0.17665,0.47883 0.13853,0.49122 0.0996,0.50057 0.06,0.50684 z"
         fill-opacity="1"
         id="path183" />
      <text
         fill="#000000"
         stroke="none"
         font-family="'Helvetica Neue', Helvetica, sans-serif"
         font-size="8px"
         font-style="normal"
         font-weight="normal"
         text-decoration="normal"
         x="382.86548"
         y="266.99045"
         text-anchor="middle"
         dominant-baseline="text-after-edge"
         fill-opacity="1"
         id="text185"
         style="font-size:12.7299px">NheI</text>
      <path
         fill="#e28150"
         stroke="none"
         paint-order="stroke fill markers"
         d="m 484.32213,247.83369 -0.02,0.50999 -0.06,0.50684 -0.0996,0.50057 -0.13854,0.49121 -0.17665,0.47883 -0.21367,0.4635 -0.24939,0.4453 -0.28355,0.42437 -0.31597,0.4008 -0.34644,0.37479 -0.37478,0.34644 -0.40081,0.31597 -0.42437,0.28355 -0.4453,0.24938 -0.4635,0.21368 -0.47883,0.17665 -0.49121,0.13854 -0.50057,0.0996 -0.50684,0.06 -0.50999,0.02 -0.50998,-0.02 -0.50684,-0.06 -0.50057,-0.0996 -0.49122,-0.13854 -0.47883,-0.17665 -0.4635,-0.21368 -0.4453,-0.24938 -0.42436,-0.28355 -0.40081,-0.31597 -0.37478,-0.34644 -0.34645,-0.37479 -0.31597,-0.4008 -0.28355,-0.42437 -0.24938,-0.4453 -0.21367,-0.4635 -0.17665,-0.47883 -0.13854,-0.49121 -0.0996,-0.50057 -0.06,-0.50684 -0.02,-0.50999 0.02,-0.50998 0.06,-0.50684 0.0996,-0.50057 0.13854,-0.49122 0.17665,-0.47883 0.21367,-0.4635 0.24938,-0.4453 0.28355,-0.42436 0.31597,-0.40081 0.34645,-0.37478 0.37478,-0.34645 0.40081,-0.31597 0.42436,-0.28355 0.4453,-0.24938 0.4635,-0.21368 0.47883,-0.17665 0.49122,-0.13853 0.50057,-0.0996 0.50684,-0.06 0.50998,-0.02 0.50999,0.02 0.50684,0.06 0.50057,0.0996 0.49121,0.13853 0.47883,0.17665 0.4635,0.21368 0.4453,0.24938 0.42437,0.28355 0.40081,0.31597 0.37478,0.34645 0.34644,0.37478 0.31597,0.40081 0.28355,0.42436 0.24939,0.4453 0.21367,0.4635 0.17665,0.47883 0.13854,0.49122 0.0996,0.50057 0.06,0.50684 z"
         fill-opacity="1"
         id="path187" />
      <text
         fill="#000000"
         stroke="none"
         font-family="'Helvetica Neue', Helvetica, sans-serif"
         font-size="8px"
         font-style="normal"
         font-weight="normal"
         text-decoration="normal"
         x="474.93097"
         y="266.89502"
         text-anchor="middle"
         dominant-baseline="text-after-edge"
         fill-opacity="1"
         id="text189"
         style="font-size:12.7299px">EcoRI</text>
      <path
         fill="#e28150"
         stroke="none"
         paint-order="stroke fill markers"
         d="m 246.07905,126.35728 -0.0616,1.56918 -0.18458,1.55951 -0.30637,1.54022 -0.42627,1.51143 -0.54354,1.47333 -0.65746,1.42614 -0.76733,1.37016 -0.87246,1.30574 -0.97222,1.23325 -1.06598,1.15318 -1.15318,1.06598 -1.23325,0.97222 -1.30574,0.87246 -1.37016,0.76733 -1.42614,0.65746 -1.47333,0.54354 -1.51143,0.42627 -1.54022,0.30637 -1.55951,0.18458 -1.56923,0.0616 -1.56918,-0.0616 -1.55951,-0.18458 -1.54022,-0.30637 -1.51143,-0.42627 -1.47333,-0.54354 -1.42614,-0.65746 -1.37016,-0.76733 -1.30574,-0.87246 -1.23325,-0.97222 -1.15318,-1.06598 -1.06598,-1.15318 -0.97222,-1.23325 -0.87246,-1.30574 -0.76733,-1.37016 -0.65746,-1.42614 -0.54354,-1.47333 -0.42627,-1.51143 -0.30637,-1.54022 -0.18458,-1.55951 -0.0616,-1.56923 0.0616,-1.56918 0.18458,-1.55951 0.30637,-1.54022 0.42627,-1.51144 0.54354,-1.47333 0.65746,-1.42615 0.76733,-1.37016 0.87246,-1.30575 0.97222,-1.23325 1.06598,-1.15319 1.15318,-1.06597 1.23325,-0.97223 1.30574,-0.87246 1.37016,-0.76733 1.42614,-0.65746 1.47333,-0.54354 1.51143,-0.42626 1.54022,-0.30637 1.55951,-0.18458 1.56923,-0.0616 1.56918,0.0616 1.55951,0.18458 1.54022,0.30637 1.51143,0.42626 1.47333,0.54354 1.42614,0.65746 1.37016,0.76733 1.30574,0.87246 1.23325,0.97223 1.15318,1.06598 1.06598,1.15318 0.97222,1.23325 0.87246,1.30575 0.76733,1.37016 0.65746,1.42615 0.54354,1.47333 0.42627,1.51144 0.30637,1.54022 0.18458,1.55951 z"
         fill-opacity="1"
         id="path191" />
      <text
         fill="#000000"
         stroke="none"
         font-family="'Helvetica Neue', Helvetica, sans-serif"
         font-size="8px"
         font-style="normal"
         font-weight="normal"
         text-decoration="normal"
         x="224.88557"
         y="107.55068"
         text-anchor="middle"
         dominant-baseline="text-after-edge"
         fill-opacity="1"
         id="text193"
         style="font-size:12.7299px">PacI</text>
      <path
         fill="#81e250"
         stroke="none"
         paint-order="stroke fill markers"
         d="m 751.67932,195.33701 -0.0308,0.78459 -0.0923,0.77976 -0.15318,0.7701 -0.21314,0.75572 -0.27177,0.73667 -0.32873,0.71307 -0.38366,0.68508 -0.43623,0.65286 -0.48611,0.61663 -0.53299,0.57659 -0.57659,0.53299 -0.61663,0.48611 -0.65287,0.43623 -0.68508,0.38367 -0.71307,0.32873 -0.73666,0.27177 -0.75572,0.21313 -0.77011,0.15318 -0.77975,0.0923 -0.78459,0.0308 -0.78459,-0.0308 -0.77976,-0.0923 -0.77011,-0.15318 -0.75571,-0.21313 -0.73667,-0.27177 -0.71307,-0.32873 -0.68508,-0.38367 -0.65286,-0.43623 -0.61663,-0.48611 -0.57659,-0.53299 -0.53299,-0.57659 -0.48611,-0.61663 -0.43623,-0.65286 -0.38367,-0.68508 -0.32873,-0.71307 -0.27177,-0.73667 -0.21313,-0.75572 -0.15319,-0.7701 -0.0923,-0.77976 -0.0308,-0.78459 0.0308,-0.78459 0.0923,-0.77975 0.15319,-0.77011 0.21313,-0.75572 0.27177,-0.73666 0.32873,-0.71307 0.38367,-0.68508 0.43623,-0.65287 0.48611,-0.61663 0.53299,-0.57659 0.57659,-0.53299 0.61663,-0.48611 0.65286,-0.43623 0.68508,-0.38366 0.71307,-0.32873 0.73667,-0.27177 0.75571,-0.21314 0.77011,-0.15318 0.77976,-0.0923 0.78459,-0.0308 0.78459,0.0308 0.77975,0.0923 0.77011,0.15318 0.75572,0.21314 0.73666,0.27177 0.71307,0.32873 0.68508,0.38366 0.65287,0.43623 0.61663,0.48611 0.57659,0.53299 0.53299,0.57659 0.48611,0.61663 0.43623,0.65287 0.38366,0.68508 0.32873,0.71307 0.27177,0.73666 0.21314,0.75572 0.15318,0.77011 0.0923,0.77975 z"
         fill-opacity="1"
         id="path195"
         style="fill:#ff65ac;fill-opacity:1" />
      <text
         fill="#000000"
         stroke="none"
         font-family="'Helvetica Neue', Helvetica, sans-serif"
         font-size="8px"
         font-style="normal"
         font-weight="normal"
         text-decoration="normal"
         x="733.32532"
         y="218.75276"
         text-anchor="middle"
         dominant-baseline="text-after-edge"
         fill-opacity="1"
         id="text197"
         style="font-size:12.7299px">T1_TE</text>
      <path
         fill="#e2e250"
         stroke="none"
         paint-order="stroke fill markers"
         d="m 261.97651,247.89287 -0.02,0.50998 -0.06,0.50684 -0.0996,0.50057 -0.13854,0.49122 -0.17665,0.47883 -0.21368,0.46349 -0.24938,0.44531 -0.28355,0.42436 -0.31597,0.40081 -0.34644,0.37478 -0.37479,0.34644 -0.4008,0.31598 -0.42437,0.28355 -0.4453,0.24938 -0.4635,0.21367 -0.47883,0.17665 -0.49121,0.13854 -0.50057,0.0996 -0.50684,0.06 -0.50999,0.02 -0.50998,-0.02 -0.50684,-0.06 -0.50057,-0.0996 -0.49122,-0.13854 -0.47883,-0.17665 -0.4635,-0.21367 -0.4453,-0.24938 -0.42436,-0.28355 -0.40081,-0.31598 -0.37478,-0.34644 -0.34645,-0.37478 -0.31597,-0.40081 -0.28355,-0.42436 -0.24938,-0.44531 -0.21368,-0.46349 -0.17665,-0.47883 -0.13853,-0.49122 -0.0996,-0.50057 -0.06,-0.50684 -0.02,-0.50998 0.02,-0.50999 0.06,-0.50684 0.0996,-0.50057 0.13853,-0.49122 0.17665,-0.47883 0.21368,-0.46349 0.24938,-0.44531 0.28355,-0.42436 0.31597,-0.40081 0.34645,-0.37478 0.37478,-0.34644 0.40081,-0.31598 0.42436,-0.28355 0.4453,-0.24938 0.4635,-0.21367 0.47883,-0.17665 0.49122,-0.13854 0.50057,-0.0996 0.50684,-0.06 0.50998,-0.02 0.50999,0.02 0.50684,0.06 0.50057,0.0996 0.49121,0.13854 0.47883,0.17665 0.4635,0.21367 0.4453,0.24938 0.42437,0.28355 0.4008,0.31598 0.37479,0.34644 0.34644,0.37478 0.31597,0.40081 0.28355,0.42436 0.24938,0.44531 0.21368,0.46349 0.17665,0.47883 0.13854,0.49122 0.0996,0.50057 0.06,0.50684 z"
         fill-opacity="1"
         id="path199" />
      <text
         fill="#000000"
         stroke="none"
         font-family="'Helvetica Neue', Helvetica, sans-serif"
         font-size="8px"
         font-style="normal"
         font-weight="normal"
         text-decoration="normal"
         x="253.03687"
         y="267.33972"
         text-anchor="middle"
         dominant-baseline="text-after-edge"
         fill-opacity="1"
         id="text201"
         style="font-size:12.7299px">LacI</text>
      <path
         fill="#e28150"
         stroke="none"
         paint-order="stroke fill markers"
         d="m 963.9731,126.92612 -0.062,1.56918 -0.1846,1.55951 -0.3063,1.54022 -0.4263,1.51143 -0.5435,1.47333 -0.6575,1.42614 -0.7673,1.37016 -0.8725,1.30574 -0.9722,1.23325 -1.066,1.15318 -1.1532,1.06598 -1.2332,0.97222 -1.3058,0.87246 -1.3701,0.76733 -1.4262,0.65746 -1.4733,0.54354 -1.5114,0.42627 -1.5402,0.30637 -1.5595,0.18458 -1.5693,0.0616 -1.5692,-0.0616 -1.5595,-0.18458 -1.54019,-0.30637 -1.51143,-0.42627 -1.47333,-0.54354 -1.42614,-0.65746 -1.37016,-0.76733 -1.30574,-0.87246 -1.23325,-0.97222 -1.15318,-1.06598 -1.06598,-1.15318 -0.97222,-1.23325 -0.87246,-1.30574 -0.76733,-1.37016 -0.65746,-1.42614 -0.54354,-1.47333 -0.42627,-1.51143 -0.30637,-1.54022 -0.18458,-1.55951 -0.0616,-1.56923 0.0616,-1.56918 0.18458,-1.55952 0.30637,-1.54022 0.42627,-1.51144 0.54354,-1.47333 0.65746,-1.42615 0.76733,-1.37017 0.87246,-1.30574 0.97222,-1.23325 1.06598,-1.15319 1.15318,-1.06598 1.23325,-0.97222 1.30574,-0.87246 1.37016,-0.76733 1.42614,-0.65746 1.47333,-0.54354 1.51143,-0.42627 1.54019,-0.30637 1.5595,-0.18458 1.5693,-0.0616 1.5692,0.0616 1.5595,0.18458 1.5402,0.30637 1.5114,0.42627 1.4733,0.54354 1.4262,0.65746 1.3701,0.76733 1.3058,0.87246 1.2332,0.97222 1.1532,1.06598 1.066,1.15319 0.9722,1.23325 0.8725,1.30574 0.7673,1.37017 0.6575,1.42615 0.5435,1.47333 0.4263,1.51144 0.3063,1.54022 0.1846,1.55952 z"
         fill-opacity="1"
         id="path203" />
      <text
         fill="#000000"
         stroke="none"
         font-family="'Helvetica Neue', Helvetica, sans-serif"
         font-size="8px"
         font-style="normal"
         font-weight="normal"
         text-decoration="normal"
         x="946.36005"
         y="106.9261"
         text-anchor="middle"
         dominant-baseline="text-after-edge"
         fill-opacity="1"
         id="text205"
         style="font-size:12.7299px">SpeI</text>
      <g
         transform="matrix(0.59671195,0,0,0.59671195,-174.66258,-205.37894)"
         id="g207" />
    </g>
    <text
       xml:space="preserve"
       transform="matrix(0.26889059,0,0,0.26889059,-21.828791,-19.460469)"
       id="text3637"
       style="font-style:normal;font-weight:normal;font-size:37.3333px;line-height:1.25;font-family:sans-serif;white-space:pre;shape-inside:url(#rect3639);fill:#000000;fill-opacity:1;stroke:none"><tspan
         x="1443.0723"
         y="73.013644"
         id="tspan2183">Node Color</tspan></text>
    <text
       xml:space="preserve"
       transform="matrix(0.26458332,0,0,0.26458332,20.066915,7.7552789)"
       id="text3637-2"
       style="font-style:normal;font-weight:normal;font-size:21.3333px;line-height:1.25;font-family:sans-serif;white-space:pre;shape-inside:url(#rect3639-7);fill:#000000;fill-opacity:1;stroke:none" />
    <rect
       id="rect18643"
       width="14.554916"
       height="4.4401898"
       x="367.99274"
       y="5.3855047"
       style="fill:#e28150;fill-opacity:1;stroke:none;stroke-width:0.182251;stroke-miterlimit:4;stroke-dasharray:none;stroke-opacity:1"
       ry="0.78613448" />
    <text
       xml:space="preserve"
       transform="matrix(0.26889059,0,0,0.26889059,0.5034003,-6.1615161)"
       id="text27183"
       style="font-style:normal;font-weight:normal;font-size:21.3333px;line-height:1.25;font-family:sans-serif;white-space:pre;shape-inside:url(#rect27185);fill:#000000;fill-opacity:1;stroke:none"><tspan
         x="1443.0723"
         y="58.857392"
         id="tspan2185">DNA</tspan></text>
    <rect
       id="rect18643-7"
       width="14.554916"
       height="4.4401898"
       x="368.20288"
       y="12.556756"
       style="fill:#e2e250;fill-opacity:1;stroke:none;stroke-width:0.182251;stroke-miterlimit:4;stroke-dasharray:none;stroke-opacity:1"
       ry="0.78613448" />
    <text
       xml:space="preserve"
       transform="matrix(0.26889059,0,0,0.26889059,0.71352311,1.0097438)"
       id="text27183-1"
       style="font-style:normal;font-weight:normal;font-size:21.3333px;line-height:1.25;font-family:sans-serif;white-space:pre;shape-inside:url(#rect27185-7);fill:#000000;fill-opacity:1;stroke:none"><tspan
         x="1443.0723"
         y="58.857392"
         id="tspan2187">CDS</tspan></text>
    <rect
       id="rect18643-7-1"
       width="14.554916"
       height="4.4401898"
       x="368.07803"
       y="19.88966"
       style="fill:#ff65ac;fill-opacity:1;stroke:none;stroke-width:0.182251;stroke-miterlimit:4;stroke-dasharray:none;stroke-opacity:1"
       ry="0.78613448" />
    <text
       xml:space="preserve"
       transform="matrix(0.26889059,0,0,0.26889059,0.58866602,8.3426515)"
       id="text27183-1-7"
       style="font-style:normal;font-weight:normal;font-size:21.3333px;line-height:1.25;font-family:sans-serif;white-space:pre;shape-inside:url(#rect27185-7-6);fill:#000000;fill-opacity:1;stroke:none"><tspan
         x="1443.0723"
         y="58.857392"
         id="tspan2189">Terminator</tspan></text>
    <rect
       id="rect18643-7-1-9"
       width="14.554916"
       height="4.4401898"
       x="368.26135"
       y="27.514122"
       style="fill:#50e281;fill-opacity:1;stroke:none;stroke-width:0.182251;stroke-miterlimit:4;stroke-dasharray:none;stroke-opacity:1"
       ry="0.78613448" />
    <text
       xml:space="preserve"
       transform="matrix(0.26889059,0,0,0.26889059,0.77194269,15.967114)"
       id="text27183-1-7-8"
       style="font-style:normal;font-weight:normal;font-size:21.3333px;line-height:1.25;font-family:sans-serif;white-space:pre;shape-inside:url(#rect27185-7-6-9);fill:#000000;fill-opacity:1;stroke:none"><tspan
         x="1443.0723"
         y="58.857392"
         id="tspan2191">Promoter</tspan></text>
    <text
       xml:space="preserve"
       transform="matrix(0.26458332,0,0,0.26458332,20.066915,7.7552789)"
       id="text27596"
       style="font-style:normal;font-weight:normal;font-size:21.3333px;line-height:1.25;font-family:sans-serif;white-space:pre;shape-inside:url(#rect27598);fill:#000000;fill-opacity:1;stroke:none" />
  </g>
</svg>
