<?xml version="1.0" encoding="UTF-8" standalone="no"?>
<!-- Created with Inkscape (http://www.inkscape.org/) -->

<svg
   width="265.14548mm"
   height="231.81049mm"
   viewBox="0 0 265.14548 231.81049"
   version="1.1"
   id="svg5"
   inkscape:version="1.1.1 (eb90963e84, 2021-10-02)"
   sodipodi:docname="standard_text.svg"
   xmlns:inkscape="http://www.inkscape.org/namespaces/inkscape"
   xmlns:sodipodi="http://sodipodi.sourceforge.net/DTD/sodipodi-0.dtd"
   xmlns="http://www.w3.org/2000/svg"
   xmlns:svg="http://www.w3.org/2000/svg">
  <sodipodi:namedview
     id="namedview7"
     pagecolor="#ffffff"
     bordercolor="#666666"
     borderopacity="1.0"
     inkscape:pageshadow="2"
     inkscape:pageopacity="0.0"
     inkscape:pagecheckerboard="0"
     inkscape:document-units="mm"
     showgrid="false"
     height="400mm"
     width="430mm"
     inkscape:zoom="1"
     inkscape:cx="434.5"
     inkscape:cy="363"
     inkscape:window-width="2560"
     inkscape:window-height="1403"
     inkscape:window-x="0"
     inkscape:window-y="0"
     inkscape:window-maximized="1"
     inkscape:current-layer="g67320" />
  <defs
     id="defs2">
    <rect
       x="1443.0721"
       y="39.982376"
       width="235.68906"
       height="103.2741"
       id="rect3639" />
    <rect
       x="1443.0721"
       y="39.982376"
       width="235.68906"
       height="103.2741"
       id="rect3639-7" />
    <rect
       x="1443.0721"
       y="39.982376"
       width="235.68906"
       height="103.2741"
       id="rect27185" />
    <rect
       x="1443.0721"
       y="39.982376"
       width="235.68906"
       height="103.2741"
       id="rect27598" />
    <rect
       x="1443.0721"
       y="39.982376"
       width="235.68906"
       height="103.2741"
       id="rect27185-7" />
    <rect
       x="1443.0721"
       y="39.982376"
       width="235.68906"
       height="103.2741"
       id="rect27185-7-6" />
    <rect
       x="1443.0721"
       y="39.982376"
       width="235.68906"
       height="103.2741"
       id="rect27185-7-6-9" />
    <rect
       x="1443.0721"
       y="39.982376"
       width="235.68906"
       height="103.2741"
       id="rect27185-7-6-9-4" />
    <rect
       x="1443.0721"
       y="39.982376"
       width="235.68906"
       height="103.2741"
       id="rect27185-7-6-9-4-9" />
    <rect
       x="1443.0721"
       y="39.982376"
       width="235.68906"
       height="103.2741"
       id="rect27185-7-6-9-4-9-5" />
    <rect
       x="1443.0721"
       y="39.982376"
       width="235.68906"
       height="103.2741"
       id="rect3639-5" />
    <rect
       x="1443.0721"
       y="39.982376"
       width="235.68906"
       height="103.2741"
       id="rect27185-4" />
    <rect
       x="1443.0721"
       y="39.982376"
       width="235.68906"
       height="103.2741"
       id="rect27185-7-8" />
    <rect
       x="1443.0721"
       y="39.982376"
       width="235.68906"
       height="103.2741"
       id="rect27185-7-6-9-8" />
    <rect
       x="1443.0721"
       y="39.982376"
       width="235.68906"
       height="103.2741"
       id="rect27185-7-6-9-4-1" />
    <rect
       x="1443.0721"
       y="39.982376"
       width="235.68906"
       height="103.2741"
       id="rect3639-3" />
    <rect
       x="1443.0721"
       y="39.982376"
       width="235.68906"
       height="103.2741"
       id="rect3639-5-6" />
    <rect
       x="1443.0721"
       y="39.982376"
       width="235.68906"
       height="103.2741"
       id="rect27185-7-7" />
    <rect
       x="1443.0721"
       y="39.982376"
       width="235.68906"
       height="103.2741"
       id="rect27185-7-6-9-5" />
    <rect
       x="1443.0721"
       y="39.982376"
       width="235.68906"
       height="103.2741"
       id="rect27185-7-6-9-4-3" />
    <rect
       x="1443.0721"
       y="39.982376"
       width="235.68906"
       height="103.2741"
       id="rect27185-4-5" />
    <rect
       x="1443.0721"
       y="39.982376"
       width="235.68906"
       height="103.2741"
       id="rect27185-7-8-6" />
    <rect
       x="1443.0721"
       y="39.982376"
       width="235.68906"
       height="103.2741"
       id="rect27185-7-6-9-8-2" />
    <rect
       x="1443.0721"
       y="39.982376"
       width="235.68906"
       height="103.2741"
       id="rect27185-7-6-9-4-1-9" />
    <rect
       x="1443.0721"
       y="39.982376"
       width="235.68906"
       height="103.2741"
       id="rect27185-7-6-9-4-9-1" />
    <rect
       x="1443.0721"
       y="39.982376"
       width="235.68906"
       height="103.2741"
       id="rect27185-7-6-9-4-9-5-2" />
  </defs>
  <g
     inkscape:label="Layer 1"
     inkscape:groupmode="layer"
     id="layer1"
     transform="translate(-108.27704,-53.558784)">
    <g
       transform="matrix(0.44340211,0,0,0.44340211,17.172835,6.0168225)"
       id="g209">
      <g
         transform="matrix(0.59671195,0,0,0.59671195,-174.66258,-205.37894)"
         id="g207" />
      <g
         transform="matrix(0.86594268,0,0,0.86594268,86.434443,-71.848424)"
         id="g67320">
        <text
           fill="#000000"
           stroke="none"
           font-family="'Helvetica Neue', Helvetica, sans-serif"
           font-size="8px"
           font-style="normal"
           font-weight="normal"
           text-decoration="normal"
           x="306.50256"
           y="714.60596"
           text-anchor="middle"
           dominant-baseline="text-after-edge"
           fill-opacity="1"
           id="text67248-4"
           style="font-size:11.9442px">YFP</text>
        <text
           fill="#000000"
           stroke="none"
           font-family="'Helvetica Neue', Helvetica, sans-serif"
           font-size="8px"
           font-style="normal"
           font-weight="normal"
           text-decoration="normal"
           x="157.10309"
           y="219.7019"
           text-anchor="middle"
           dominant-baseline="text-after-edge"
           fill-opacity="1"
           id="text67296-8"
           style="font-size:11.9442px">Ara</text>
        <g
           transform="matrix(0.68908942,0,0,0.68908942,-367.92555,64.369515)"
           id="g67318" />
        <path
           fill="none"
           stroke="#50e2e2"
           paint-order="fill stroke markers"
           d="m 340.64896,245.40973 0.20162,80.80933"
           stroke-opacity="1"
           stroke-linejoin="round"
           stroke-miterlimit="10"
           stroke-width="2.99615"
           id="path67118-7"
           style="stroke:#a07be9;stroke-width:4.68798;stroke-miterlimit:10;stroke-dasharray:none;stroke-opacity:1" />
        <path
           fill="none"
           stroke="#e28150"
           paint-order="fill stroke markers"
           d="M 339.52241,342.83211 443.39837,379.6131"
           stroke-opacity="1"
           stroke-linejoin="round"
           stroke-miterlimit="10"
           stroke-width="2.75595"
           id="path67122-0"
           style="stroke:#2ad4ff;stroke-width:4.68798;stroke-miterlimit:10;stroke-dasharray:none;stroke-opacity:1" />
        <path
           fill="none"
           stroke="#50e2e2"
           paint-order="fill stroke markers"
           d="m 387.72198,297.77251 -48.36599,41.76626"
           stroke-opacity="1"
           stroke-linejoin="round"
           stroke-miterlimit="10"
           stroke-width="3.99924"
           id="path67126-9"
           style="stroke:#a07be9;stroke-width:4.68798;stroke-miterlimit:10;stroke-dasharray:none;stroke-opacity:1" />
        <path
           fill="none"
           stroke="#e2e250"
           paint-order="fill stroke markers"
           d="m 406.76164,304.19989 42.55653,68.47308"
           stroke-opacity="1"
           stroke-linejoin="round"
           stroke-miterlimit="10"
           stroke-width="3.04378"
           id="path67130-3"
           style="stroke:#fa8072;stroke-width:4.68798;stroke-miterlimit:10;stroke-dasharray:none;stroke-opacity:1" />
        <path
           fill="none"
           stroke="#e28150"
           paint-order="fill stroke markers"
           d="M 566.29739,344.27711 471.2301,380.03112"
           stroke-opacity="1"
           stroke-linejoin="round"
           stroke-miterlimit="10"
           stroke-width="2.37151"
           id="path67134-6"
           style="stroke:#2ad4ff;stroke-width:4.68798;stroke-miterlimit:10;stroke-dasharray:none;stroke-opacity:1" />
        <path
           fill="none"
           stroke="#81e250"
           paint-order="fill stroke markers"
           d="m 456.51401,394.64572 -0.16562,131.64051"
           stroke-opacity="1"
           stroke-linejoin="round"
           stroke-miterlimit="10"
           stroke-width="4.88603"
           id="path67138-0"
           style="stroke:#e2e250;stroke-width:4.68798;stroke-miterlimit:10;stroke-dasharray:none;stroke-opacity:1" />
        <path
           fill="none"
           stroke="#81e250"
           paint-order="fill stroke markers"
           d="m 158.11695,624.61961 v 50"
           stroke-opacity="1"
           stroke-linejoin="round"
           stroke-miterlimit="10"
           stroke-width="3"
           id="path67142-6"
           style="stroke:#e2e250;stroke-width:4.68798;stroke-miterlimit:10;stroke-dasharray:none;stroke-opacity:1" />
        <path
           fill="none"
           stroke="#e2e250"
           paint-order="fill stroke markers"
           d="m 169.17748,677.37982 141.03407,54.91653"
           stroke-opacity="1"
           stroke-linejoin="round"
           stroke-miterlimit="10"
           stroke-width="2.78976"
           id="path67146-2"
           style="stroke:#fa8072;stroke-width:4.68798;stroke-miterlimit:10;stroke-dasharray:none;stroke-opacity:1" />
        <path
           fill="none"
           stroke="#81e250"
           paint-order="fill stroke markers"
           d="m 306.19129,459.80869 v 50"
           stroke-opacity="1"
           stroke-linejoin="round"
           stroke-miterlimit="10"
           stroke-width="3"
           id="path67150-6"
           style="stroke:#e2e250;stroke-width:4.68798;stroke-miterlimit:10;stroke-dasharray:none;stroke-opacity:1" />
        <path
           fill="none"
           stroke="#e2e250"
           paint-order="fill stroke markers"
           d="M 310.91322,523.32138 164.28129,609.56771"
           stroke-opacity="1"
           stroke-linejoin="round"
           stroke-miterlimit="10"
           stroke-width="2.33019"
           id="path67154-1"
           style="stroke:#fa8072;stroke-width:4.68798;stroke-miterlimit:10;stroke-dasharray:none;stroke-opacity:1" />
        <path
           fill="none"
           stroke="#e2e250"
           paint-order="fill stroke markers"
           d="M 308.21044,527.98245 445.26245,600.8023"
           stroke-opacity="1"
           stroke-linejoin="round"
           stroke-miterlimit="10"
           stroke-width="2.1506"
           id="path67158-8"
           style="stroke:#fa8072;stroke-width:4.68798;stroke-miterlimit:10;stroke-dasharray:none;stroke-opacity:1" />
        <path
           fill="none"
           stroke="#e2e250"
           paint-order="fill stroke markers"
           d="m 318.98094,452.64617 137.05201,72.81985"
           stroke-opacity="1"
           stroke-linejoin="round"
           stroke-miterlimit="10"
           stroke-width="2.1506"
           id="path67158-6"
           style="stroke:#fa8072;stroke-width:4.68798;stroke-miterlimit:10;stroke-dasharray:none;stroke-opacity:1" />
        <path
           fill="none"
           stroke="#e28150"
           paint-order="fill stroke markers"
           d="M 170.82146,347.2503 305.13189,447.74118"
           stroke-opacity="1"
           stroke-linejoin="round"
           stroke-miterlimit="10"
           stroke-width="2.57667"
           id="path67162-7"
           style="stroke:#2ad4ff;stroke-width:4.68798;stroke-miterlimit:10;stroke-dasharray:none;stroke-opacity:1" />
        <path
           fill="none"
           stroke="#e28150"
           paint-order="fill stroke markers"
           d="m 158.12457,353.48051 0.0344,241.41917"
           stroke-opacity="1"
           stroke-linejoin="round"
           stroke-miterlimit="10"
           stroke-width="2.51389"
           id="path67166-9"
           style="stroke:#2ad4ff;stroke-width:4.68798;stroke-miterlimit:10;stroke-dasharray:none;stroke-opacity:1" />
        <path
           fill="none"
           stroke="#e2e250"
           paint-order="fill stroke markers"
           d="M 443.39579,680.70357 317.81814,725.26552"
           stroke-opacity="1"
           stroke-linejoin="round"
           stroke-miterlimit="10"
           stroke-width="1.5802"
           id="path67170-2"
           style="stroke:#fa8072;stroke-width:4.68798;stroke-miterlimit:10;stroke-dasharray:none;stroke-opacity:1" />
        <path
           fill="none"
           stroke="#81e250"
           paint-order="fill stroke markers"
           d="m 306.83669,741.90988 0.0996,38.61667"
           stroke-opacity="1"
           stroke-linejoin="round"
           stroke-miterlimit="10"
           stroke-width="1.94602"
           id="path67174-0"
           style="stroke:#e2e250;stroke-width:4.68798;stroke-miterlimit:10;stroke-dasharray:none;stroke-opacity:1" />
        <path
           fill="none"
           stroke="#50e2e2"
           paint-order="fill stroke markers"
           d="m 157.98889,245.45278 0.0776,80.25602"
           stroke-opacity="1"
           stroke-linejoin="round"
           stroke-miterlimit="10"
           stroke-width="3.07928"
           id="path67178-2"
           style="stroke:#a07be9;stroke-width:4.68798;stroke-miterlimit:10;stroke-dasharray:none;stroke-opacity:1" />
        <path
           fill="#50e2e2"
           stroke="none"
           paint-order="stroke fill markers"
           d="m 150.66289,269.94865 7.49324,14.92007 7.44012,-14.94663 z"
           fill-opacity="1"
           id="path67180-3"
           style="fill:#a07be9;fill-opacity:1;stroke-width:1.71648" />
        <path
           fill="#50e2e2"
           stroke="none"
           paint-order="stroke fill markers"
           d="m 150.49376,406.97235 7.49324,14.92007 7.44013,-14.94663 z"
           fill-opacity="1"
           id="path67180-2"
           style="fill:#2ad4ff;fill-opacity:1;stroke-width:1.71648" />
        <path
           fill="#50e2e2"
           stroke="none"
           paint-order="stroke fill markers"
           d="m 150.6817,633.52724 7.49324,14.92007 7.44012,-14.94663 z"
           fill-opacity="1"
           id="path67180-2-2"
           style="fill:#e2e250;fill-opacity:1;stroke-width:1.71648" />
        <path
           fill="#50e2e2"
           stroke="none"
           paint-order="stroke fill markers"
           d="m 299.31341,751.32186 7.49323,14.92007 7.44013,-14.94663 z"
           fill-opacity="1"
           id="path67180-2-2-7"
           style="fill:#e2e250;fill-opacity:1;stroke-width:1.71648" />
        <path
           fill="#50e2e2"
           stroke="none"
           paint-order="stroke fill markers"
           d="m 448.61877,632.08725 7.49323,14.92007 7.44013,-14.94663 z"
           fill-opacity="1"
           id="path67180-2-2-6"
           style="fill:#e2e250;fill-opacity:1;stroke-width:1.71648" />
        <path
           fill="#50e2e2"
           stroke="none"
           paint-order="stroke fill markers"
           d="m 448.54886,555.36766 7.49323,14.92007 7.44013,-14.94663 z"
           fill-opacity="1"
           id="path67180-2-2-6-9"
           style="fill:#fa8072;fill-opacity:1;stroke-width:1.71648" />
        <path
           fill="#50e2e2"
           stroke="none"
           paint-order="stroke fill markers"
           d="m 394.73715,689.55309 -10.77105,12.75702 16.66825,0.96263 z"
           fill-opacity="1"
           id="path67180-2-2-6-1"
           style="fill:#fa8072;fill-opacity:1;stroke-width:1.71648" />
        <path
           fill="#50e2e2"
           stroke="none"
           paint-order="stroke fill markers"
           d="m 220.73529,705.36116 16.60534,-1.73775 -11.3534,-12.24163 z"
           fill-opacity="1"
           id="path67180-2-2-6-1-8"
           style="fill:#fa8072;fill-opacity:1;stroke-width:1.71648" />
        <path
           fill="#50e2e2"
           stroke="none"
           paint-order="stroke fill markers"
           d="m 195.43631,530.18769 -1.65358,16.61393 14.2833,-8.64549 z"
           fill-opacity="1"
           id="path67180-2-93"
           style="fill:#fa8072;fill-opacity:1;stroke-width:1.71648" />
        <path
           fill="#50e2e2"
           stroke="none"
           paint-order="stroke fill markers"
           d="m 239.13524,557.11144 -9.18886,13.93993 16.66527,-1.01286 z"
           fill-opacity="1"
           id="path67180-2-93-6"
           style="fill:#fa8072;fill-opacity:1;stroke-width:1.71648" />
        <path
           fill="#50e2e2"
           stroke="none"
           paint-order="stroke fill markers"
           d="m 358.87199,563.12648 16.69413,0.25017 -9.81634,-13.50542 z"
           fill-opacity="1"
           id="path67180-2-93-6-6"
           style="fill:#fa8072;fill-opacity:1;stroke-width:1.71648" />
        <path
           fill="#50e2e2"
           stroke="none"
           paint-order="stroke fill markers"
           d="m 387.16567,480.44573 -16.68673,-0.55661 9.56674,13.68337 z"
           fill-opacity="1"
           id="path67180-2-93-6-0"
           style="fill:#fa8072;fill-opacity:1;stroke-width:1.71648" />
        <path
           fill="#50e2e2"
           stroke="none"
           paint-order="stroke fill markers"
           d="m 218.84501,444.41806 7.49323,14.92007 7.44013,-14.94663 z"
           fill-opacity="1"
           id="path67180-2-7"
           style="fill:#e2e250;fill-opacity:1;stroke-width:1.71648" />
        <path
           fill="#50e2e2"
           stroke="none"
           paint-order="stroke fill markers"
           d="m 267.79002,476.83598 8.77257,-14.2056 -16.62803,1.50531 z"
           fill-opacity="1"
           id="path67180-2-7-0"
           style="fill:#fa8072;fill-opacity:1;stroke-width:1.71648" />
        <path
           fill="#50e2e2"
           stroke="none"
           paint-order="stroke fill markers"
           d="m 198.4966,376.64611 16.38189,3.22347 -7.25036,-15.0396 z"
           fill-opacity="1"
           id="path67180-2-9"
           style="fill:#2ad4ff;fill-opacity:1;stroke-width:1.71648" />
        <path
           fill="#50e2e2"
           stroke="none"
           paint-order="stroke fill markers"
           d="m 194.66756,405.66728 -11.74202,-11.86938 -2.45029,16.51525 z"
           fill-opacity="1"
           id="path67180-2-9-1"
           style="fill:#a07be9;fill-opacity:1;stroke-width:1.71648" />
        <path
           fill="none"
           stroke="#50e2e2"
           paint-order="fill stroke markers"
           d="M 218.13481,486.96804 191.87578,419.18373 159.42939,335.42754"
           stroke-opacity="1"
           stroke-linejoin="round"
           stroke-miterlimit="10"
           stroke-width="1.66309"
           id="path67182-7"
           style="stroke:#a07be9;stroke-width:4.68798;stroke-miterlimit:10;stroke-dasharray:none;stroke-opacity:1"
           sodipodi:nodetypes="ccc" />
        <path
           fill="#50e2e2"
           stroke="none"
           paint-order="stroke fill markers"
           d="m 146.84025,362.00741 -8.02418,-5.49773 0.41632,9.71798 z"
           fill-opacity="1"
           id="path67184-5"
           style="fill:#000000;fill-opacity:0" />
        <path
           fill="none"
           stroke="#e2e250"
           paint-order="fill stroke markers"
           d="m 219.45591,496.0838 76.95731,-45.19086"
           stroke-opacity="1"
           stroke-linejoin="round"
           stroke-miterlimit="10"
           stroke-width="2.80187"
           id="path67186-9"
           style="stroke:#fa8072;stroke-width:4.68798;stroke-miterlimit:10;stroke-dasharray:none;stroke-opacity:1" />
        <path
           fill="none"
           stroke="#e2e250"
           paint-order="fill stroke markers"
           d="M 225.43006,492.86194 161.50401,602.64302"
           stroke-opacity="1"
           stroke-linejoin="round"
           stroke-miterlimit="10"
           stroke-width="2.22596"
           id="path67190-2"
           style="stroke:#fa8072;stroke-width:4.68798;stroke-miterlimit:10;stroke-dasharray:none;stroke-opacity:1" />
        <path
           fill="none"
           stroke="#e2e250"
           paint-order="fill stroke markers"
           d="m 505.76719,300.49906 -41.01684,71.84359"
           stroke-opacity="1"
           stroke-linejoin="round"
           stroke-miterlimit="10"
           stroke-width="3.1913"
           id="path67194-2"
           style="stroke:#fa8072;stroke-width:4.68798;stroke-miterlimit:10;stroke-dasharray:none;stroke-opacity:1" />
        <path
           fill="none"
           stroke="#50e2e2"
           paint-order="fill stroke markers"
           d="m 523.8965,293.84963 48.75379,40.38148"
           stroke-opacity="1"
           stroke-linejoin="round"
           stroke-miterlimit="10"
           stroke-width="3.22233"
           id="path67198-8"
           style="stroke:#a07be9;stroke-width:4.68798;stroke-miterlimit:10;stroke-dasharray:none;stroke-opacity:1" />
        <path
           fill="none"
           stroke="#81e250"
           paint-order="fill stroke markers"
           d="M 456.02739,623.73021 V 674.6328"
           stroke-opacity="1"
           stroke-linejoin="round"
           stroke-miterlimit="10"
           stroke-width="3.02696"
           id="path67202-9"
           style="stroke:#e2e250;stroke-width:4.68798;stroke-miterlimit:10;stroke-dasharray:none;stroke-opacity:1" />
        <path
           fill="none"
           stroke="#50e2e2"
           paint-order="fill stroke markers"
           d="m 575.10217,247.35295 -0.1032,76.24333"
           stroke-opacity="1"
           stroke-linejoin="round"
           stroke-miterlimit="10"
           stroke-width="2.89709"
           id="path67206-7"
           style="stroke:#a07be9;stroke-width:4.68798;stroke-miterlimit:10;stroke-dasharray:none;stroke-opacity:1" />
        <path
           fill="none"
           stroke="#81e250"
           paint-order="fill stroke markers"
           d="m 398.99986,236.38256 0.12039,41.02616"
           stroke-opacity="1"
           stroke-linejoin="round"
           stroke-miterlimit="10"
           stroke-width="3"
           id="path67210-3"
           style="stroke:#e2e250;stroke-width:4.68798;stroke-miterlimit:10;stroke-dasharray:none;stroke-opacity:1" />
        <path
           fill="none"
           stroke="#e2e250"
           paint-order="fill stroke markers"
           d="m 456.33001,537.7968 -0.10185,56.87441"
           stroke-opacity="1"
           stroke-linejoin="round"
           stroke-miterlimit="10"
           stroke-width="1.57425"
           id="path67218-6"
           style="stroke:#fa8072;stroke-width:4.68798;stroke-miterlimit:10;stroke-dasharray:none;stroke-opacity:1" />
        <path
           fill="none"
           stroke="#81e250"
           paint-order="fill stroke markers"
           d="m 513.44073,234.69593 0.17949,42.17682"
           stroke-opacity="1"
           stroke-linejoin="round"
           stroke-miterlimit="10"
           stroke-width="3"
           id="path67222-1"
           style="stroke:#e2e250;stroke-width:4.68798;stroke-miterlimit:10;stroke-dasharray:none;stroke-opacity:1" />
        <path
           fill="none"
           stroke="#81e250"
           paint-order="fill stroke markers"
           d="m 226.32475,403.99531 0.0483,77.3813"
           stroke-opacity="1"
           stroke-linejoin="round"
           stroke-miterlimit="10"
           stroke-width="1.4793"
           id="path67226-2"
           style="stroke:#e2e250;stroke-width:4.68798;stroke-miterlimit:10;stroke-dasharray:none;stroke-opacity:1" />
        <path
           fill="#e2e250"
           stroke="none"
           paint-order="stroke fill markers"
           d="m 472.23021,385.41658 -0.0462,1.17688 -0.13843,1.16963 -0.22978,1.15517 -0.3197,1.13357 -0.40765,1.105 -0.4931,1.0696 -0.5755,1.02762 -0.65434,0.9793 -0.72917,0.92495 -0.79949,0.86488 -0.86488,0.79949 -0.92494,0.72916 -0.9793,0.65435 -1.02762,0.57549 -1.06961,0.4931 -1.10499,0.40765 -1.13358,0.3197 -1.15516,0.22978 -1.16963,0.13844 -1.17689,0.0462 -1.17688,-0.0462 -1.16963,-0.13844 -1.15517,-0.22978 -1.13357,-0.3197 -1.105,-0.40765 -1.06961,-0.4931 -1.02762,-0.57549 -0.9793,-0.65435 -0.92494,-0.72916 -0.86488,-0.79949 -0.79949,-0.86488 -0.72916,-0.92495 -0.65435,-0.9793 -0.5755,-1.02762 -0.49309,-1.0696 -0.40766,-1.105 -0.3197,-1.13357 -0.22977,-1.15517 -0.13844,-1.16963 -0.0462,-1.17688 0.0462,-1.17689 0.13844,-1.16963 0.22977,-1.15516 0.3197,-1.13358 0.40766,-1.105 0.49309,-1.0696 0.5755,-1.02762 0.65435,-0.9793 0.72916,-0.92495 0.79949,-0.86488 0.86488,-0.79948 0.92494,-0.72917 0.9793,-0.65435 1.02762,-0.57549 1.06961,-0.4931 1.105,-0.40765 1.13357,-0.3197 1.15517,-0.22978 1.16963,-0.13843 1.17688,-0.0462 1.17689,0.0462 1.16963,0.13843 1.15516,0.22978 1.13358,0.3197 1.10499,0.40765 1.06961,0.4931 1.02762,0.57549 0.9793,0.65435 0.92494,0.72917 0.86488,0.79948 0.79949,0.86488 0.72917,0.92495 0.65434,0.9793 0.5755,1.02762 0.4931,1.0696 0.40765,1.105 0.3197,1.13358 0.22978,1.15516 0.13843,1.16963 z"
           fill-opacity="1"
           id="path67230-9" />
        <path
           fill="#e2e250"
           stroke="none"
           paint-order="stroke fill markers"
           d="m 321.19129,444.80869 -0.0462,1.17689 -0.13843,1.16963 -0.22978,1.15516 -0.3197,1.13358 -0.40765,1.105 -0.4931,1.0696 -0.57549,1.02762 -0.65435,0.9793 -0.72917,0.92494 -0.79948,0.86489 -0.86489,0.79948 -0.92494,0.72917 -0.9793,0.65435 -1.02762,0.57549 -1.0696,0.4931 -1.105,0.40765 -1.13358,0.3197 -1.15516,0.22978 -1.16963,0.13843 -1.17689,0.0462 -1.17688,-0.0462 -1.16963,-0.13843 -1.15517,-0.22978 -1.13357,-0.3197 -1.105,-0.40765 -1.0696,-0.4931 -1.02762,-0.57549 -0.9793,-0.65435 -0.92495,-0.72917 -0.86488,-0.79948 -0.79949,-0.86489 -0.72916,-0.92494 -0.65435,-0.9793 -0.57549,-1.02762 -0.4931,-1.0696 -0.40765,-1.105 -0.3197,-1.13358 -0.22978,-1.15516 -0.13844,-1.16963 -0.0462,-1.17689 0.0462,-1.17688 0.13844,-1.16963 0.22978,-1.15517 0.3197,-1.13357 0.40765,-1.105 0.4931,-1.0696 0.57549,-1.02762 0.65435,-0.97931 0.72916,-0.92494 0.79949,-0.86488 0.86488,-0.79949 0.92495,-0.72916 0.9793,-0.65435 1.02762,-0.57549 1.0696,-0.4931 1.105,-0.40765 1.13357,-0.31971 1.15517,-0.22977 1.16963,-0.13844 1.17688,-0.0462 1.17689,0.0462 1.16963,0.13844 1.15516,0.22977 1.13358,0.31971 1.105,0.40765 1.0696,0.4931 1.02762,0.57549 0.9793,0.65435 0.92494,0.72916 0.86489,0.79949 0.79948,0.86488 0.72917,0.92494 0.65435,0.97931 0.57549,1.02762 0.4931,1.0696 0.40765,1.105 0.3197,1.13357 0.22978,1.15517 0.13843,1.16963 z"
           fill-opacity="1"
           id="path67234-3" />
        <path
           fill="#e2e250"
           stroke="none"
           paint-order="stroke fill markers"
           d="m 472.40553,609.63276 -0.0462,1.17688 -0.13843,1.16963 -0.22978,1.15517 -0.3197,1.13357 -0.40766,1.105 -0.49309,1.0696 -0.5755,1.02762 -0.65434,0.97931 -0.72917,0.92494 -0.79949,0.86488 -0.86488,0.79949 -0.92494,0.72916 -0.9793,0.65435 -1.02762,0.57549 -1.06961,0.4931 -1.10499,0.40765 -1.13358,0.31971 -1.15516,0.22977 -1.16963,0.13844 -1.17689,0.0462 -1.17689,-0.0462 -1.16963,-0.13844 -1.15516,-0.22977 -1.13357,-0.31971 -1.105,-0.40765 -1.06961,-0.4931 -1.02762,-0.57549 -0.9793,-0.65435 -0.92494,-0.72916 -0.86488,-0.79949 -0.79949,-0.86488 -0.72916,-0.92494 -0.65435,-0.97931 -0.5755,-1.02762 -0.49309,-1.0696 -0.40766,-1.105 -0.3197,-1.13357 -0.22977,-1.15517 -0.13844,-1.16963 -0.0462,-1.17688 0.0462,-1.17689 0.13844,-1.16963 0.22977,-1.15516 0.3197,-1.13358 0.40766,-1.105 0.49309,-1.0696 0.5755,-1.02762 0.65435,-0.9793 0.72916,-0.92494 0.79949,-0.86489 0.86488,-0.79948 0.92494,-0.72917 0.9793,-0.65435 1.02762,-0.57549 1.06961,-0.4931 1.105,-0.40765 1.13357,-0.3197 1.15516,-0.22978 1.16963,-0.13843 1.17689,-0.0462 1.17689,0.0462 1.16963,0.13843 1.15516,0.22978 1.13358,0.3197 1.10499,0.40765 1.06961,0.4931 1.02762,0.57549 0.9793,0.65435 0.92494,0.72917 0.86488,0.79948 0.79949,0.86489 0.72917,0.92494 0.65434,0.9793 0.5755,1.02762 0.49309,1.0696 0.40766,1.105 0.3197,1.13358 0.22978,1.15516 0.13843,1.16963 z"
           fill-opacity="1"
           id="path67238-1" />
        <path
           fill="#e2e250"
           stroke="none"
           paint-order="stroke fill markers"
           d="m 173.42072,609.63276 -0.0462,1.17688 -0.13843,1.16963 -0.22978,1.15517 -0.3197,1.13357 -0.40765,1.105 -0.4931,1.0696 -0.57549,1.02762 -0.65435,0.97931 -0.72917,0.92494 -0.79949,0.86488 -0.86488,0.79949 -0.92494,0.72916 -0.9793,0.65435 -1.02762,0.57549 -1.06961,0.4931 -1.10499,0.40765 -1.13358,0.31971 -1.15516,0.22977 -1.16963,0.13844 -1.17689,0.0462 -1.17688,-0.0462 -1.16963,-0.13844 -1.15517,-0.22977 -1.13357,-0.31971 -1.105,-0.40765 -1.0696,-0.4931 -1.02762,-0.57549 -0.9793,-0.65435 -0.92495,-0.72916 -0.86488,-0.79949 -0.79949,-0.86488 -0.72916,-0.92494 -0.65435,-0.97931 -0.5755,-1.02762 -0.49309,-1.0696 -0.40766,-1.105 -0.3197,-1.13357 -0.22977,-1.15517 -0.13844,-1.16963 -0.0462,-1.17688 0.0462,-1.17689 0.13844,-1.16963 0.22977,-1.15516 0.3197,-1.13358 0.40766,-1.105 0.49309,-1.0696 0.5755,-1.02762 0.65435,-0.9793 0.72916,-0.92494 0.79949,-0.86489 0.86488,-0.79948 0.92495,-0.72917 0.9793,-0.65435 1.02762,-0.57549 1.0696,-0.4931 1.105,-0.40765 1.13357,-0.3197 1.15517,-0.22978 1.16963,-0.13843 1.17688,-0.0462 1.17689,0.0462 1.16963,0.13843 1.15516,0.22978 1.13358,0.3197 1.10499,0.40765 1.06961,0.4931 1.02762,0.57549 0.9793,0.65435 0.92494,0.72917 0.86488,0.79948 0.79949,0.86489 0.72917,0.92494 0.65435,0.9793 0.57549,1.02762 0.4931,1.0696 0.40765,1.105 0.3197,1.13358 0.22978,1.15516 0.13843,1.16963 z"
           fill-opacity="1"
           id="path67242-9" />
        <path
           fill="#e2e250"
           stroke="none"
           paint-order="stroke fill markers"
           d="m 321.83665,726.90992 -0.0462,1.17688 -0.13843,1.16964 -0.22978,1.15516 -0.3197,1.13357 -0.40765,1.105 -0.4931,1.06961 -0.57549,1.02762 -0.65435,0.9793 -0.72917,0.92494 -0.79948,0.86488 -0.86488,0.79949 -0.92495,0.72916 -0.9793,0.65435 -1.02762,0.5755 -1.0696,0.49309 -1.105,0.40766 -1.13357,0.3197 -1.15517,0.22977 -1.16963,0.13844 -1.17689,0.0462 -1.17688,-0.0462 -1.16963,-0.13844 -1.15517,-0.22977 -1.13357,-0.3197 -1.105,-0.40766 -1.0696,-0.49309 -1.02762,-0.5755 -0.9793,-0.65435 -0.92495,-0.72916 -0.86488,-0.79949 -0.79948,-0.86488 -0.72917,-0.92494 -0.65435,-0.9793 -0.57549,-1.02762 -0.4931,-1.06961 -0.40765,-1.105 -0.3197,-1.13357 -0.22978,-1.15516 -0.13844,-1.16964 -0.0462,-1.17688 0.0462,-1.17689 0.13844,-1.16963 0.22978,-1.15516 0.3197,-1.13358 0.40765,-1.10499 0.4931,-1.06961 0.57549,-1.02762 0.65435,-0.9793 0.72917,-0.92494 0.79948,-0.86488 0.86488,-0.79949 0.92495,-0.72917 0.9793,-0.65434 1.02762,-0.5755 1.0696,-0.49309 1.105,-0.40766 1.13357,-0.3197 1.15517,-0.22978 1.16963,-0.13843 1.17688,-0.0462 1.17689,0.0462 1.16963,0.13843 1.15517,0.22978 1.13357,0.3197 1.105,0.40766 1.0696,0.49309 1.02762,0.5755 0.9793,0.65434 0.92495,0.72917 0.86488,0.79949 0.79948,0.86488 0.72917,0.92494 0.65435,0.9793 0.57549,1.02762 0.4931,1.06961 0.40765,1.10499 0.3197,1.13358 0.22978,1.15516 0.13843,1.16963 z"
           fill-opacity="1"
           id="path67246-4" />
        <path
           fill="#e2e250"
           stroke="none"
           paint-order="stroke fill markers"
           d="m 413.63662,232.41044 -0.0462,1.17688 -0.13844,1.16963 -0.22977,1.15517 -0.3197,1.13357 -0.40766,1.105 -0.49309,1.0696 -0.5755,1.02762 -0.65435,0.9793 -0.72916,0.92495 -0.79949,0.86488 -0.86488,0.79949 -0.92494,0.72916 -0.9793,0.65435 -1.02762,0.57549 -1.06961,0.4931 -1.105,0.40765 -1.13357,0.3197 -1.15516,0.22978 -1.16963,0.13844 -1.17689,0.0462 -1.17689,-0.0462 -1.16963,-0.13844 -1.15516,-0.22978 -1.13358,-0.3197 -1.10499,-0.40765 -1.06961,-0.4931 -1.02762,-0.57549 -0.9793,-0.65435 -0.92494,-0.72916 -0.86488,-0.79949 -0.79949,-0.86488 -0.72917,-0.92495 -0.65434,-0.9793 -0.5755,-1.02762 -0.49309,-1.0696 -0.40766,-1.105 -0.3197,-1.13357 -0.22978,-1.15517 -0.13843,-1.16963 -0.0462,-1.17688 0.0462,-1.17689 0.13843,-1.16963 0.22978,-1.15517 0.3197,-1.13357 0.40766,-1.105 0.49309,-1.06961 0.5755,-1.02762 0.65434,-0.9793 0.72917,-0.92494 0.79949,-0.86488 0.86488,-0.79949 0.92494,-0.72917 0.9793,-0.65435 1.02762,-0.57549 1.06961,-0.4931 1.10499,-0.40765 1.13358,-0.3197 1.15516,-0.22978 1.16963,-0.13844 1.17689,-0.0462 1.17689,0.0462 1.16963,0.13844 1.15516,0.22978 1.13357,0.3197 1.105,0.40765 1.06961,0.4931 1.02762,0.57549 0.9793,0.65435 0.92494,0.72917 0.86488,0.79949 0.79949,0.86488 0.72916,0.92494 0.65435,0.9793 0.5755,1.02762 0.49309,1.06961 0.40766,1.105 0.3197,1.13357 0.22977,1.15517 0.13844,1.16963 z"
           fill-opacity="1"
           id="path67250-7"
           style="fill:#50e281;fill-opacity:1" />
        <path
           fill="#e2e250"
           stroke="none"
           paint-order="stroke fill markers"
           d="m 528.95657,233.23397 -0.0462,1.17689 -0.13844,1.16963 -0.22977,1.15517 -0.3197,1.13357 -0.40766,1.105 -0.49309,1.0696 -0.5755,1.02762 -0.65435,0.9793 -0.72916,0.92495 -0.79949,0.86488 -0.86488,0.79948 -0.92494,0.72917 -0.9793,0.65435 -1.02763,0.57549 -1.0696,0.4931 -1.105,0.40765 -1.13357,0.3197 -1.15517,0.22978 -1.16963,0.13844 -1.17688,0.0462 -1.17689,-0.0462 -1.16963,-0.13844 -1.15516,-0.22978 -1.13358,-0.3197 -1.10499,-0.40765 -1.06961,-0.4931 -1.02762,-0.57549 -0.9793,-0.65435 -0.92494,-0.72917 -0.86488,-0.79948 -0.79949,-0.86488 -0.72917,-0.92495 -0.65435,-0.9793 -0.57549,-1.02762 -0.4931,-1.0696 -0.40765,-1.105 -0.3197,-1.13357 -0.22978,-1.15517 -0.13843,-1.16963 -0.0462,-1.17689 0.0462,-1.17688 0.13843,-1.16964 0.22978,-1.15516 0.3197,-1.13358 0.40765,-1.105 0.4931,-1.0696 0.57549,-1.02762 0.65435,-0.9793 0.72917,-0.92495 0.79949,-0.86488 0.86488,-0.79949 0.92494,-0.72916 0.9793,-0.65435 1.02762,-0.5755 1.06961,-0.49309 1.10499,-0.40766 1.13358,-0.3197 1.15516,-0.22978 1.16963,-0.13843 1.17689,-0.0462 1.17688,0.0462 1.16963,0.13843 1.15517,0.22978 1.13357,0.3197 1.105,0.40766 1.0696,0.49309 1.02763,0.5755 0.9793,0.65435 0.92494,0.72916 0.86488,0.79949 0.79949,0.86488 0.72916,0.92495 0.65435,0.9793 0.5755,1.02762 0.49309,1.0696 0.40766,1.105 0.3197,1.13358 0.22977,1.15516 0.13844,1.16964 z"
           fill-opacity="1"
           id="path67254-8"
           style="fill:#50e281;fill-opacity:1" />
        <path
           fill="#e2e250"
           stroke="none"
           paint-order="stroke fill markers"
           d="m 241.34898,419.01621 -0.0462,1.17689 -0.13844,1.16963 -0.22978,1.15516 -0.3197,1.13358 -0.40765,1.10499 -0.4931,1.06961 -0.57549,1.02762 -0.65435,0.9793 -0.72917,0.92494 -0.79949,0.86488 -0.86488,0.79949 -0.92494,0.72917 -0.9793,0.65435 -1.02762,0.57549 -1.06961,0.4931 -1.105,0.40765 -1.13357,0.3197 -1.15517,0.22978 -1.16963,0.13843 -1.17689,0.0462 -1.17688,-0.0462 -1.16963,-0.13843 -1.15517,-0.22978 -1.13357,-0.3197 -1.105,-0.40765 -1.06961,-0.4931 -1.02762,-0.57549 -0.9793,-0.65435 -0.92494,-0.72917 -0.86488,-0.79949 -0.79949,-0.86488 -0.72917,-0.92494 -0.65435,-0.9793 -0.57549,-1.02762 -0.4931,-1.06961 -0.40765,-1.10499 -0.3197,-1.13358 -0.22978,-1.15516 -0.13844,-1.16963 -0.0462,-1.17689 0.0462,-1.17689 0.13844,-1.16963 0.22978,-1.15516 0.3197,-1.13358 0.40765,-1.10499 0.4931,-1.06961 0.57549,-1.02762 0.65435,-0.9793 0.72917,-0.92495 0.79949,-0.86488 0.86488,-0.79949 0.92494,-0.72916 0.9793,-0.65435 1.02762,-0.5755 1.06961,-0.49309 1.105,-0.40766 1.13357,-0.3197 1.15517,-0.22977 1.16963,-0.13844 1.17688,-0.0462 1.17689,0.0462 1.16963,0.13844 1.15517,0.22977 1.13357,0.3197 1.105,0.40766 1.06961,0.49309 1.02762,0.5755 0.9793,0.65435 0.92494,0.72916 0.86488,0.79949 0.79949,0.86488 0.72917,0.92495 0.65435,0.9793 0.57549,1.02762 0.4931,1.06961 0.40765,1.10499 0.3197,1.13358 0.22978,1.15516 0.13844,1.16963 z"
           fill-opacity="1"
           id="path67258-4"
           style="fill:#50e281;fill-opacity:1" />
        <path
           fill="#a07be9"
           stroke="none"
           paint-order="stroke fill markers"
           d="m 355.59826,232.07455 -0.0462,1.17689 -0.13844,1.16963 -0.22977,1.15517 -0.3197,1.13357 -0.40766,1.105 -0.49309,1.0696 -0.5755,1.02762 -0.65435,0.9793 -0.72916,0.92495 -0.79949,0.86488 -0.86488,0.79949 -0.92494,0.72916 -0.9793,0.65435 -1.02762,0.57549 -1.06961,0.4931 -1.105,0.40765 -1.13357,0.3197 -1.15516,0.22978 -1.16963,0.13844 -1.17689,0.0462 -1.17689,-0.0462 -1.16963,-0.13844 -1.15516,-0.22978 -1.13358,-0.3197 -1.10499,-0.40765 -1.06961,-0.4931 -1.02762,-0.57549 -0.9793,-0.65435 -0.92494,-0.72916 -0.86488,-0.79949 -0.79949,-0.86488 -0.72917,-0.92495 -0.65434,-0.9793 -0.5755,-1.02762 -0.49309,-1.0696 -0.40766,-1.105 -0.3197,-1.13357 -0.22978,-1.15517 -0.13843,-1.16963 -0.0462,-1.17689 0.0462,-1.17688 0.13843,-1.16963 0.22978,-1.15517 0.3197,-1.13357 0.40766,-1.105 0.49309,-1.06961 0.5755,-1.02762 0.65434,-0.9793 0.72917,-0.92494 0.79949,-0.86489 0.86488,-0.79948 0.92494,-0.72917 0.9793,-0.65435 1.02762,-0.57549 1.06961,-0.4931 1.10499,-0.40765 1.13358,-0.3197 1.15516,-0.22978 1.16963,-0.13843 1.17689,-0.0462 1.17689,0.0462 1.16963,0.13843 1.15516,0.22978 1.13357,0.3197 1.105,0.40765 1.06961,0.4931 1.02762,0.57549 0.9793,0.65435 0.92494,0.72917 0.86488,0.79948 0.79949,0.86489 0.72916,0.92494 0.65435,0.9793 0.5755,1.02762 0.49309,1.06961 0.40766,1.105 0.3197,1.13357 0.22977,1.15517 0.13844,1.16963 z"
           fill-opacity="1"
           id="path67262-5" />
        <path
           fill="#50e281"
           stroke="none"
           paint-order="stroke fill markers"
           d="m 355.85055,339.8733 -0.0462,1.17689 -0.13844,1.16963 -0.22977,1.15516 -0.3197,1.13358 -0.40766,1.10499 -0.49309,1.06961 -0.5755,1.02762 -0.65435,0.9793 -0.72916,0.92494 -0.79949,0.86488 -0.86488,0.79949 -0.92494,0.72917 -0.9793,0.65434 -1.02762,0.5755 -1.06961,0.49309 -1.105,0.40766 -1.13357,0.3197 -1.15516,0.22978 -1.16964,0.13843 -1.17688,0.0462 -1.17689,-0.0462 -1.16963,-0.13843 -1.15516,-0.22978 -1.13358,-0.3197 -1.10499,-0.40766 -1.06961,-0.49309 -1.02762,-0.5755 -0.9793,-0.65434 -0.92494,-0.72917 -0.86488,-0.79949 -0.79949,-0.86488 -0.72917,-0.92494 -0.65434,-0.9793 -0.5755,-1.02762 -0.49309,-1.06961 -0.40766,-1.10499 -0.3197,-1.13358 -0.22978,-1.15516 -0.13843,-1.16963 -0.0462,-1.17689 0.0462,-1.17689 0.13843,-1.16963 0.22978,-1.15516 0.3197,-1.13357 0.40766,-1.105 0.49309,-1.06961 0.5755,-1.02762 0.65434,-0.9793 0.72917,-0.92494 0.79949,-0.86488 0.86488,-0.79949 0.92494,-0.72916 0.9793,-0.65435 1.02762,-0.5755 1.06961,-0.49309 1.10499,-0.40766 1.13358,-0.3197 1.15516,-0.22977 1.16963,-0.13844 1.17689,-0.0462 1.17688,0.0462 1.16964,0.13844 1.15516,0.22977 1.13357,0.3197 1.105,0.40766 1.06961,0.49309 1.02762,0.5755 0.9793,0.65435 0.92494,0.72916 0.86488,0.79949 0.79949,0.86488 0.72916,0.92494 0.65435,0.9793 0.5755,1.02762 0.49309,1.06961 0.40766,1.105 0.3197,1.13357 0.22977,1.15516 0.13844,1.16963 z"
           fill-opacity="1"
           id="path67266-0"
           style="fill:#2ad4ff;fill-opacity:1" />
        <path
           fill="#e250e2"
           stroke="none"
           paint-order="stroke fill markers"
           d="m 413.92412,291.41029 -0.0462,1.17689 -0.13843,1.16963 -0.22978,1.15516 -0.3197,1.13357 -0.40765,1.105 -0.4931,1.06961 -0.57549,1.02762 -0.65435,0.9793 -0.72917,0.92494 -0.79948,0.86488 -0.86488,0.79949 -0.92495,0.72916 -0.9793,0.65435 -1.02762,0.5755 -1.0696,0.49309 -1.105,0.40766 -1.13358,0.3197 -1.15516,0.22977 -1.16963,0.13844 -1.17689,0.0462 -1.17688,-0.0462 -1.16963,-0.13844 -1.15517,-0.22977 -1.13357,-0.3197 -1.105,-0.40766 -1.0696,-0.49309 -1.02762,-0.5755 -0.9793,-0.65435 -0.92495,-0.72916 -0.86488,-0.79949 -0.79949,-0.86488 -0.72916,-0.92494 -0.65435,-0.9793 -0.57549,-1.02762 -0.4931,-1.06961 -0.40765,-1.105 -0.3197,-1.13357 -0.22978,-1.15516 -0.13844,-1.16963 -0.0462,-1.17689 0.0462,-1.17689 0.13844,-1.16963 0.22978,-1.15516 0.3197,-1.13358 0.40765,-1.10499 0.4931,-1.06961 0.57549,-1.02762 0.65435,-0.9793 0.72916,-0.92494 0.79949,-0.86488 0.86488,-0.79949 0.92495,-0.72917 0.9793,-0.65434 1.02762,-0.5755 1.0696,-0.49309 1.105,-0.40766 1.13357,-0.3197 1.15517,-0.22978 1.16963,-0.13843 1.17688,-0.0462 1.17689,0.0462 1.16963,0.13843 1.15516,0.22978 1.13358,0.3197 1.105,0.40766 1.0696,0.49309 1.02762,0.5755 0.9793,0.65434 0.92495,0.72917 0.86488,0.79949 0.79948,0.86488 0.72917,0.92494 0.65435,0.9793 0.57549,1.02762 0.4931,1.06961 0.40765,1.10499 0.3197,1.13358 0.22978,1.15516 0.13843,1.16963 z"
           fill-opacity="1"
           id="path67270-3"
           style="fill:#fa8072;fill-opacity:1" />
        <path
           fill="#50e281"
           stroke="none"
           paint-order="stroke fill markers"
           d="m 588.82204,338.55004 -0.0462,1.17688 -0.13843,1.16963 -0.22978,1.15517 -0.3197,1.13357 -0.40765,1.105 -0.4931,1.06961 -0.57549,1.02762 -0.65435,0.9793 -0.72917,0.92494 -0.79949,0.86488 -0.86488,0.79949 -0.92494,0.72916 -0.9793,0.65435 -1.02762,0.5755 -1.06961,0.49309 -1.10499,0.40766 -1.13358,0.3197 -1.15516,0.22977 -1.16963,0.13844 -1.17689,0.0462 -1.17688,-0.0462 -1.16963,-0.13844 -1.15517,-0.22977 -1.13357,-0.3197 -1.105,-0.40766 -1.0696,-0.49309 -1.02763,-0.5755 -0.9793,-0.65435 -0.92494,-0.72916 -0.86488,-0.79949 -0.79949,-0.86488 -0.72916,-0.92494 -0.65435,-0.9793 -0.5755,-1.02762 -0.49309,-1.06961 -0.40765,-1.105 -0.31971,-1.13357 -0.22977,-1.15517 -0.13844,-1.16963 -0.0462,-1.17688 0.0462,-1.17689 0.13844,-1.16963 0.22977,-1.15516 0.31971,-1.13358 0.40765,-1.10499 0.49309,-1.06961 0.5755,-1.02762 0.65435,-0.9793 0.72916,-0.92494 0.79949,-0.86488 0.86488,-0.79949 0.92494,-0.72917 0.9793,-0.65434 1.02763,-0.5755 1.0696,-0.4931 1.105,-0.40765 1.13357,-0.3197 1.15517,-0.22978 1.16963,-0.13843 1.17688,-0.0462 1.17689,0.0462 1.16963,0.13843 1.15516,0.22978 1.13358,0.3197 1.10499,0.40765 1.06961,0.4931 1.02762,0.5755 0.9793,0.65434 0.92494,0.72917 0.86488,0.79949 0.79949,0.86488 0.72917,0.92494 0.65435,0.9793 0.57549,1.02762 0.4931,1.06961 0.40765,1.10499 0.3197,1.13358 0.22978,1.15516 0.13843,1.16963 z"
           fill-opacity="1"
           id="path67274-6"
           style="fill:#2ad4ff;fill-opacity:1" />
        <path
           fill="#e250e2"
           stroke="none"
           paint-order="stroke fill markers"
           d="m 173.42072,673.0946 -0.0462,1.17688 -0.13843,1.16963 -0.22978,1.15517 -0.3197,1.13357 -0.40765,1.105 -0.4931,1.0696 -0.57549,1.02762 -0.65435,0.97931 -0.72917,0.92494 -0.79949,0.86488 -0.86488,0.79949 -0.92494,0.72916 -0.9793,0.65435 -1.02762,0.57549 -1.06961,0.4931 -1.10499,0.40765 -1.13358,0.31971 -1.15516,0.22977 -1.16963,0.13844 -1.17689,0.0462 -1.17688,-0.0462 -1.16963,-0.13844 -1.15517,-0.22977 -1.13357,-0.31971 -1.10499,-0.40765 -1.06961,-0.4931 -1.02762,-0.57549 -0.9793,-0.65435 -0.92495,-0.72916 -0.86488,-0.79949 -0.79949,-0.86488 -0.72916,-0.92494 -0.65435,-0.97931 -0.5755,-1.02762 -0.49309,-1.0696 -0.40766,-1.105 -0.3197,-1.13357 -0.22977,-1.15517 -0.13844,-1.16963 -0.0462,-1.17688 0.0462,-1.17689 0.13844,-1.16963 0.22977,-1.15516 0.3197,-1.13358 0.40766,-1.105 0.49309,-1.0696 0.5755,-1.02762 0.65435,-0.9793 0.72916,-0.92494 0.79949,-0.86489 0.86488,-0.79948 0.92495,-0.72917 0.9793,-0.65435 1.02762,-0.57549 1.06961,-0.4931 1.10499,-0.40765 1.13357,-0.3197 1.15517,-0.22978 1.16963,-0.13843 1.17688,-0.0462 1.17689,0.0462 1.16963,0.13843 1.15516,0.22978 1.13358,0.3197 1.10499,0.40765 1.06961,0.4931 1.02762,0.57549 0.9793,0.65435 0.92494,0.72917 0.86488,0.79948 0.79949,0.86489 0.72917,0.92494 0.65435,0.9793 0.57549,1.02762 0.4931,1.0696 0.40765,1.105 0.3197,1.13358 0.22978,1.15516 0.13843,1.16963 z"
           fill-opacity="1"
           id="path67278-1"
           style="fill:#fa8072;fill-opacity:1" />
        <path
           fill="#e250e2"
           stroke="none"
           paint-order="stroke fill markers"
           d="m 321.19129,524.80869 -0.0462,1.17689 -0.13843,1.16963 -0.22978,1.15516 -0.3197,1.13358 -0.40765,1.105 -0.4931,1.0696 -0.57549,1.02762 -0.65435,0.9793 -0.72917,0.92494 -0.79948,0.86489 -0.86489,0.79948 -0.92494,0.72917 -0.9793,0.65435 -1.02762,0.57549 -1.0696,0.4931 -1.105,0.40765 -1.13358,0.3197 -1.15516,0.22978 -1.16963,0.13843 -1.17689,0.0462 -1.17688,-0.0462 -1.16963,-0.13843 -1.15517,-0.22978 -1.13357,-0.3197 -1.105,-0.40765 -1.0696,-0.4931 -1.02762,-0.57549 -0.9793,-0.65435 -0.92495,-0.72917 -0.86488,-0.79948 -0.79949,-0.86489 -0.72916,-0.92494 -0.65435,-0.9793 -0.57549,-1.02762 -0.4931,-1.0696 -0.40765,-1.105 -0.3197,-1.13358 -0.22978,-1.15516 -0.13844,-1.16963 -0.0462,-1.17689 0.0462,-1.17688 0.13844,-1.16963 0.22978,-1.15517 0.3197,-1.13357 0.40765,-1.105 0.4931,-1.0696 0.57549,-1.02762 0.65435,-0.97931 0.72916,-0.92494 0.79949,-0.86488 0.86488,-0.79949 0.92495,-0.72916 0.9793,-0.65435 1.02762,-0.57549 1.0696,-0.4931 1.105,-0.40765 1.13357,-0.31971 1.15517,-0.22977 1.16963,-0.13844 1.17688,-0.0462 1.17689,0.0462 1.16963,0.13844 1.15516,0.22977 1.13358,0.31971 1.105,0.40765 1.0696,0.4931 1.02762,0.57549 0.9793,0.65435 0.92494,0.72916 0.86489,0.79949 0.79948,0.86488 0.72917,0.92494 0.65435,0.97931 0.57549,1.02762 0.4931,1.0696 0.40765,1.105 0.3197,1.13357 0.22978,1.15517 0.13843,1.16963 z"
           fill-opacity="1"
           id="path67282-0"
           style="fill:#fa8072;fill-opacity:1" />
        <path
           fill="#50e281"
           stroke="none"
           paint-order="stroke fill markers"
           d="m 173.16241,339.48082 -0.0462,1.17689 -0.13844,1.16963 -0.22977,1.15516 -0.3197,1.13358 -0.40766,1.10499 -0.49309,1.06961 -0.5755,1.02762 -0.65435,0.9793 -0.72916,0.92494 -0.79949,0.86488 -0.86488,0.79949 -0.92494,0.72917 -0.9793,0.65434 -1.02762,0.5755 -1.06961,0.4931 -1.105,0.40765 -1.13357,0.3197 -1.15516,0.22978 -1.16963,0.13843 -1.17689,0.0462 -1.17689,-0.0462 -1.16963,-0.13843 -1.15516,-0.22978 -1.13358,-0.3197 -1.10499,-0.40765 -1.06961,-0.4931 -1.02762,-0.5755 -0.9793,-0.65434 -0.92494,-0.72917 -0.86488,-0.79949 -0.79949,-0.86488 -0.72917,-0.92494 -0.65434,-0.9793 -0.5755,-1.02762 -0.49309,-1.06961 -0.40766,-1.10499 -0.3197,-1.13358 -0.22978,-1.15516 -0.13843,-1.16963 -0.0462,-1.17689 0.0462,-1.17688 0.13843,-1.16963 0.22978,-1.15517 0.3197,-1.13357 0.40766,-1.105 0.49309,-1.06961 0.5755,-1.02762 0.65434,-0.9793 0.72917,-0.92494 0.79949,-0.86488 0.86488,-0.79949 0.92494,-0.72916 0.9793,-0.65435 1.02762,-0.5755 1.06961,-0.49309 1.10499,-0.40766 1.13358,-0.3197 1.15516,-0.22977 1.16963,-0.13844 1.17689,-0.0462 1.17689,0.0462 1.16963,0.13844 1.15516,0.22977 1.13357,0.3197 1.105,0.40766 1.06961,0.49309 1.02762,0.5755 0.9793,0.65435 0.92494,0.72916 0.86488,0.79949 0.79949,0.86488 0.72916,0.92494 0.65435,0.9793 0.5755,1.02762 0.49309,1.06961 0.40766,1.105 0.3197,1.13357 0.22977,1.15517 0.13844,1.16963 z"
           fill-opacity="1"
           id="path67286-6"
           style="fill:#2ad4ff;fill-opacity:1" />
        <path
           fill="#e250e2"
           stroke="none"
           paint-order="stroke fill markers"
           d="m 471.02735,673.0946 -0.0462,1.17688 -0.13843,1.16963 -0.22978,1.15517 -0.3197,1.13357 -0.40766,1.105 -0.49309,1.0696 -0.5755,1.02762 -0.65434,0.97931 -0.72917,0.92494 -0.79949,0.86488 -0.86488,0.79949 -0.92494,0.72916 -0.9793,0.65435 -1.02762,0.57549 -1.06961,0.4931 -1.10499,0.40765 -1.13358,0.31971 -1.15516,0.22977 -1.16963,0.13844 -1.17689,0.0462 -1.17689,-0.0462 -1.16963,-0.13844 -1.15516,-0.22977 -1.13357,-0.31971 -1.105,-0.40765 -1.06961,-0.4931 -1.02762,-0.57549 -0.9793,-0.65435 -0.92494,-0.72916 -0.86488,-0.79949 -0.79949,-0.86488 -0.72916,-0.92494 -0.65435,-0.97931 -0.5755,-1.02762 -0.49309,-1.0696 -0.40766,-1.105 -0.3197,-1.13357 -0.22977,-1.15517 -0.13844,-1.16963 -0.0462,-1.17688 0.0462,-1.17689 0.13844,-1.16963 0.22977,-1.15516 0.3197,-1.13358 0.40766,-1.105 0.49309,-1.0696 0.5755,-1.02762 0.65435,-0.9793 0.72916,-0.92494 0.79949,-0.86489 0.86488,-0.79948 0.92494,-0.72917 0.9793,-0.65435 1.02762,-0.57549 1.06961,-0.4931 1.105,-0.40765 1.13357,-0.3197 1.15516,-0.22978 1.16963,-0.13843 1.17689,-0.0462 1.17689,0.0462 1.16963,0.13843 1.15516,0.22978 1.13358,0.3197 1.10499,0.40765 1.06961,0.4931 1.02762,0.57549 0.9793,0.65435 0.92494,0.72917 0.86488,0.79948 0.79949,0.86489 0.72917,0.92494 0.65434,0.9793 0.5755,1.02762 0.49309,1.0696 0.40766,1.105 0.3197,1.13358 0.22978,1.15516 0.13843,1.16963 z"
           fill-opacity="1"
           id="path67290-3"
           style="fill:#fa8072;fill-opacity:1" />
        <path
           fill="#a07be9"
           stroke="none"
           paint-order="stroke fill markers"
           d="m 173.06246,233.14451 -0.0462,1.17689 -0.13844,1.16963 -0.22977,1.15516 -0.3197,1.13358 -0.40766,1.10499 -0.49309,1.06961 -0.5755,1.02762 -0.65435,0.9793 -0.72916,0.92494 -0.79949,0.86488 -0.86488,0.79949 -0.92494,0.72917 -0.9793,0.65434 -1.02763,0.5755 -1.0696,0.49309 -1.105,0.40766 -1.13357,0.3197 -1.15517,0.22978 -1.16963,0.13843 -1.17688,0.0462 -1.17689,-0.0462 -1.16963,-0.13843 -1.15516,-0.22978 -1.13358,-0.3197 -1.10499,-0.40766 -1.06961,-0.49309 -1.02762,-0.5755 -0.9793,-0.65434 -0.92494,-0.72917 -0.86488,-0.79949 -0.79949,-0.86488 -0.72916,-0.92494 -0.65435,-0.9793 -0.5755,-1.02762 -0.49309,-1.06961 -0.40766,-1.10499 -0.3197,-1.13358 -0.22977,-1.15516 -0.13844,-1.16963 -0.0462,-1.17689 0.0462,-1.17688 0.13844,-1.16964 0.22977,-1.15516 0.3197,-1.13358 0.40766,-1.10499 0.49309,-1.06961 0.5755,-1.02762 0.65435,-0.9793 0.72916,-0.92495 0.79949,-0.86488 0.86488,-0.79949 0.92494,-0.72916 0.9793,-0.65435 1.02762,-0.5755 1.06961,-0.49309 1.10499,-0.40766 1.13358,-0.3197 1.15516,-0.22977 1.16963,-0.13844 1.17689,-0.0462 1.17688,0.0462 1.16963,0.13844 1.15517,0.22977 1.13357,0.3197 1.105,0.40766 1.0696,0.49309 1.02763,0.5755 0.9793,0.65435 0.92494,0.72916 0.86488,0.79949 0.79949,0.86488 0.72916,0.92495 0.65435,0.9793 0.5755,1.02762 0.49309,1.06961 0.40766,1.10499 0.3197,1.13358 0.22977,1.15516 0.13844,1.16964 z"
           fill-opacity="1"
           id="path67294-2" />
        <path
           fill="#e250e2"
           stroke="none"
           paint-order="stroke fill markers"
           d="m 241.37302,496.37657 -0.0462,1.17689 -0.13844,1.16963 -0.22977,1.15516 -0.31971,1.13358 -0.40765,1.10499 -0.4931,1.06961 -0.57549,1.02762 -0.65435,0.9793 -0.72917,0.92494 -0.79948,0.86489 -0.86489,0.79948 -0.92494,0.72917 -0.9793,0.65435 -1.02762,0.57549 -1.06961,0.4931 -1.105,0.40765 -1.13357,0.3197 -1.15517,0.22978 -1.16963,0.13843 -1.17688,0.0462 -1.17689,-0.0462 -1.16963,-0.13843 -1.15517,-0.22978 -1.13357,-0.3197 -1.105,-0.40765 -1.06961,-0.4931 -1.02762,-0.57549 -0.9793,-0.65435 -0.92494,-0.72917 -0.86488,-0.79948 -0.79949,-0.86489 -0.72917,-0.92494 -0.65435,-0.9793 -0.57549,-1.02762 -0.4931,-1.06961 -0.40765,-1.10499 -0.3197,-1.13358 -0.22978,-1.15516 -0.13844,-1.16963 -0.0462,-1.17689 0.0462,-1.17688 0.13844,-1.16963 0.22978,-1.15517 0.3197,-1.13357 0.40765,-1.105 0.4931,-1.0696 0.57549,-1.02763 0.65435,-0.9793 0.72917,-0.92494 0.79949,-0.86488 0.86488,-0.79949 0.92494,-0.72916 0.9793,-0.65435 1.02762,-0.57549 1.06961,-0.4931 1.105,-0.40765 1.13357,-0.31971 1.15517,-0.22977 1.16963,-0.13844 1.17689,-0.0462 1.17688,0.0462 1.16963,0.13844 1.15517,0.22977 1.13357,0.31971 1.105,0.40765 1.06961,0.4931 1.02762,0.57549 0.9793,0.65435 0.92494,0.72916 0.86489,0.79949 0.79948,0.86488 0.72917,0.92494 0.65435,0.9793 0.57549,1.02763 0.4931,1.0696 0.40765,1.105 0.31971,1.13357 0.22977,1.15517 0.13844,1.16963 z"
           fill-opacity="1"
           id="path67298-0"
           style="fill:#fa8072;fill-opacity:1" />
        <path
           fill="#e250e2"
           stroke="none"
           paint-order="stroke fill markers"
           d="m 529.79707,291.82651 -0.0462,1.17688 -0.13844,1.16963 -0.22977,1.15517 -0.3197,1.13357 -0.40766,1.105 -0.49309,1.0696 -0.5755,1.02762 -0.65435,0.9793 -0.72916,0.92495 -0.79949,0.86488 -0.86488,0.79949 -0.92494,0.72916 -0.9793,0.65435 -1.02763,0.57549 -1.0696,0.4931 -1.105,0.40765 -1.13357,0.3197 -1.15517,0.22978 -1.16963,0.13844 -1.17688,0.0462 -1.17689,-0.0462 -1.16963,-0.13844 -1.15516,-0.22978 -1.13358,-0.3197 -1.10499,-0.40765 -1.06961,-0.4931 -1.02762,-0.57549 -0.9793,-0.65435 -0.92494,-0.72916 -0.86488,-0.79949 -0.79949,-0.86488 -0.72917,-0.92495 -0.65434,-0.9793 -0.5755,-1.02762 -0.4931,-1.0696 -0.40765,-1.105 -0.3197,-1.13357 -0.22978,-1.15517 -0.13843,-1.16963 -0.0462,-1.17688 0.0462,-1.17689 0.13843,-1.16963 0.22978,-1.15516 0.3197,-1.13358 0.40765,-1.105 0.4931,-1.0696 0.5755,-1.02762 0.65434,-0.9793 0.72917,-0.92494 0.79949,-0.86489 0.86488,-0.79948 0.92494,-0.72917 0.9793,-0.65435 1.02762,-0.57549 1.06961,-0.4931 1.10499,-0.40765 1.13358,-0.3197 1.15516,-0.22978 1.16963,-0.13843 1.17689,-0.0462 1.17688,0.0462 1.16963,0.13843 1.15517,0.22978 1.13357,0.3197 1.105,0.40765 1.0696,0.4931 1.02763,0.57549 0.9793,0.65435 0.92494,0.72917 0.86488,0.79948 0.79949,0.86489 0.72916,0.92494 0.65435,0.9793 0.5755,1.02762 0.49309,1.0696 0.40766,1.105 0.3197,1.13358 0.22977,1.15516 0.13844,1.16963 z"
           fill-opacity="1"
           id="path67302-6"
           style="fill:#fa8072;fill-opacity:1" />
        <path
           fill="#a07be9"
           stroke="none"
           paint-order="stroke fill markers"
           d="m 590.10213,232.35299 -0.0462,1.17689 -0.13843,1.16963 -0.22978,1.15516 -0.3197,1.13358 -0.40766,1.105 -0.49309,1.0696 -0.5755,1.02762 -0.65434,0.9793 -0.72917,0.92494 -0.79949,0.86489 -0.86488,0.79948 -0.92494,0.72917 -0.9793,0.65435 -1.02762,0.57549 -1.06961,0.4931 -1.10499,0.40765 -1.13358,0.3197 -1.15516,0.22978 -1.16963,0.13843 -1.17689,0.0462 -1.17689,-0.0462 -1.16963,-0.13843 -1.15516,-0.22978 -1.13357,-0.3197 -1.105,-0.40765 -1.06961,-0.4931 -1.02762,-0.57549 -0.9793,-0.65435 -0.92494,-0.72917 -0.86488,-0.79948 -0.79949,-0.86489 -0.72916,-0.92494 -0.65435,-0.9793 -0.5755,-1.02762 -0.49309,-1.0696 -0.40766,-1.105 -0.3197,-1.13358 -0.22977,-1.15516 -0.13844,-1.16963 -0.0462,-1.17689 0.0462,-1.17689 0.13844,-1.16963 0.22977,-1.15516 0.3197,-1.13358 0.40766,-1.105 0.49309,-1.0696 0.5755,-1.02762 0.65435,-0.97931 0.72916,-0.92494 0.79949,-0.86488 0.86488,-0.79949 0.92494,-0.72916 0.9793,-0.65435 1.02762,-0.5755 1.06961,-0.49309 1.105,-0.40766 1.13357,-0.3197 1.15516,-0.22977 1.16963,-0.13844 1.17689,-0.0462 1.17689,0.0462 1.16963,0.13844 1.15516,0.22977 1.13358,0.3197 1.10499,0.40766 1.06961,0.49309 1.02762,0.5755 0.9793,0.65435 0.92494,0.72916 0.86488,0.79949 0.79949,0.86488 0.72917,0.92494 0.65434,0.97931 0.5755,1.02762 0.49309,1.0696 0.40766,1.105 0.3197,1.13358 0.22978,1.15516 0.13843,1.16963 z"
           fill-opacity="1"
           id="path67306-1" />
        <path
           fill="#e250e2"
           stroke="none"
           paint-order="stroke fill markers"
           d="m 321.93623,795.52598 -0.0462,1.17688 -0.13844,1.16963 -0.22977,1.15517 -0.3197,1.13357 -0.40766,1.105 -0.49309,1.06961 -0.5755,1.02762 -0.65435,0.9793 -0.72916,0.92494 -0.79949,0.86488 -0.86488,0.79949 -0.92494,0.72916 -0.9793,0.65435 -1.02762,0.5755 -1.06961,0.49309 -1.105,0.40766 -1.13357,0.3197 -1.15516,0.22977 -1.16964,0.13844 -1.17688,0.0462 -1.17689,-0.0462 -1.16963,-0.13844 -1.15516,-0.22977 -1.13358,-0.3197 -1.10499,-0.40766 -1.06961,-0.49309 -1.02762,-0.5755 -0.9793,-0.65435 -0.92494,-0.72916 -0.86488,-0.79949 -0.79949,-0.86488 -0.72917,-0.92494 -0.65434,-0.9793 -0.5755,-1.02762 -0.49309,-1.06961 -0.40766,-1.105 -0.3197,-1.13357 -0.22978,-1.15517 -0.13843,-1.16963 -0.0462,-1.17688 0.0462,-1.17689 0.13843,-1.16963 0.22978,-1.15516 0.3197,-1.13358 0.40766,-1.10499 0.49309,-1.06961 0.5755,-1.02762 0.65434,-0.9793 0.72917,-0.92494 0.79949,-0.86488 0.86488,-0.79949 0.92494,-0.72917 0.9793,-0.65434 1.02762,-0.5755 1.06961,-0.4931 1.10499,-0.40765 1.13358,-0.3197 1.15516,-0.22978 1.16963,-0.13843 1.17689,-0.0462 1.17688,0.0462 1.16964,0.13843 1.15516,0.22978 1.13357,0.3197 1.105,0.40765 1.06961,0.4931 1.02762,0.5755 0.9793,0.65434 0.92494,0.72917 0.86488,0.79949 0.79949,0.86488 0.72916,0.92494 0.65435,0.9793 0.5755,1.02762 0.49309,1.06961 0.40766,1.10499 0.3197,1.13358 0.22977,1.15516 0.13844,1.16963 z"
           fill-opacity="1"
           id="path67310-5"
           style="fill:#fa8072;fill-opacity:1" />
        <path
           fill="#e250e2"
           stroke="none"
           paint-order="stroke fill markers"
           d="m 471.48741,525.41001 -0.0462,1.17689 -0.13843,1.16963 -0.22978,1.15516 -0.3197,1.13358 -0.40766,1.10499 -0.49309,1.06961 -0.5755,1.02762 -0.65434,0.9793 -0.72917,0.92494 -0.79949,0.86488 -0.86488,0.79949 -0.92494,0.72917 -0.9793,0.65434 -1.02762,0.5755 -1.06961,0.49309 -1.10499,0.40766 -1.13358,0.3197 -1.15516,0.22978 -1.16963,0.13843 -1.17689,0.0462 -1.17689,-0.0462 -1.16963,-0.13843 -1.15516,-0.22978 -1.13357,-0.3197 -1.105,-0.40766 -1.06961,-0.49309 -1.02762,-0.5755 -0.9793,-0.65434 -0.92494,-0.72917 -0.86488,-0.79949 -0.79949,-0.86488 -0.72916,-0.92494 -0.65435,-0.9793 -0.5755,-1.02762 -0.49309,-1.06961 -0.40766,-1.10499 -0.3197,-1.13358 -0.22977,-1.15516 -0.13844,-1.16963 -0.0462,-1.17689 0.0462,-1.17689 0.13844,-1.16963 0.22977,-1.15516 0.3197,-1.13357 0.40766,-1.105 0.49309,-1.06961 0.5755,-1.02762 0.65435,-0.9793 0.72916,-0.92494 0.79949,-0.86488 0.86488,-0.79949 0.92494,-0.72916 0.9793,-0.65435 1.02762,-0.5755 1.06961,-0.49309 1.105,-0.40766 1.13357,-0.3197 1.15516,-0.22978 1.16963,-0.13843 1.17689,-0.0462 1.17689,0.0462 1.16963,0.13843 1.15516,0.22978 1.13358,0.3197 1.10499,0.40766 1.06961,0.49309 1.02762,0.5755 0.9793,0.65435 0.92494,0.72916 0.86488,0.79949 0.79949,0.86488 0.72917,0.92494 0.65434,0.9793 0.5755,1.02762 0.49309,1.06961 0.40766,1.105 0.3197,1.13357 0.22978,1.15516 0.13843,1.16963 z"
           fill-opacity="1"
           id="path67314-5"
           style="fill:#fa8072;fill-opacity:1" />
        <path
           fill="#50e2e2"
           stroke="none"
           paint-order="stroke fill markers"
           d="m 449.1991,417.30671 7.49323,14.92007 7.44013,-14.94663 z"
           fill-opacity="1"
           id="path67180-2-2-6-2"
           style="fill:#e2e250;fill-opacity:1;stroke-width:1.71648" />
        <path
           fill="#50e2e2"
           stroke="none"
           paint-order="stroke fill markers"
           d="m 333.46569,258.75745 7.49323,14.92007 7.44013,-14.94664 z"
           fill-opacity="1"
           id="path67180-2-2-6-2-0"
           style="fill:#a07be9;fill-opacity:1;stroke-width:1.71648" />
        <path
           fill="#50e2e2"
           stroke="none"
           paint-order="stroke fill markers"
           d="m 371.20801,302.25944 -6.60452,15.33419 16.23008,-3.9169 z"
           fill-opacity="1"
           id="path67180-2-2-6-2-0-9"
           style="fill:#a07be9;fill-opacity:1;stroke-width:1.71648" />
        <path
           fill="#50e2e2"
           stroke="none"
           paint-order="stroke fill markers"
           d="m 535.8739,313.17563 16.03185,4.6623 -5.88928,-15.62287 z"
           fill-opacity="1"
           id="path67180-2-2-6-2-0-9-7"
           style="fill:#a07be9;fill-opacity:1;stroke-width:1.71648" />
        <path
           fill="#50e2e2"
           stroke="none"
           paint-order="stroke fill markers"
           d="m 391.64182,258.52264 7.49323,14.92007 7.44013,-14.94663 z"
           fill-opacity="1"
           id="path67180-2-2-6-2-2"
           style="fill:#e2e250;fill-opacity:1;stroke-width:1.71648" />
        <path
           fill="#50e2e2"
           stroke="none"
           paint-order="stroke fill markers"
           d="m 506.41673,256.38012 7.49323,14.92007 7.44013,-14.94663 z"
           fill-opacity="1"
           id="path67180-2-2-6-2-2-3"
           style="fill:#e2e250;fill-opacity:1;stroke-width:1.71648" />
        <path
           fill="#50e2e2"
           stroke="none"
           paint-order="stroke fill markers"
           d="m 567.98634,255.29329 7.49323,14.92007 7.44013,-14.94663 z"
           fill-opacity="1"
           id="path67180-2-2-6-2-2-7"
           style="fill:#a07be9;fill-opacity:1;stroke-width:1.71648" />
        <path
           fill="#50e2e2"
           stroke="none"
           paint-order="stroke fill markers"
           d="m 481.8105,326.98266 -0.56565,16.68643 13.68854,-9.55935 z"
           fill-opacity="1"
           id="path67180-2-2-6-2-2-5"
           style="fill:#fa8072;fill-opacity:1;stroke-width:1.71648" />
        <path
           fill="#50e2e2"
           stroke="none"
           paint-order="stroke fill markers"
           d="m 416.30411,334.84437 14.54326,8.20063 -2.16546,-16.555 z"
           fill-opacity="1"
           id="path67180-2-2-6-2-2-5-2"
           style="fill:#fa8072;fill-opacity:1;stroke-width:1.71648" />
        <path
           fill="#50e2e2"
           stroke="none"
           paint-order="stroke fill markers"
           d="m 383.32591,365.61665 16.65149,-1.2184 -10.96562,-12.59016 z"
           fill-opacity="1"
           id="path67180-2-2-6-2-2-5-2-2"
           style="fill:#2ad4ff;fill-opacity:1;stroke-width:1.71648" />
        <path
           fill="#50e2e2"
           stroke="none"
           paint-order="stroke fill markers"
           d="m 525.84638,352.46369 -11.60817,12.00031 16.56516,2.08635 z"
           fill-opacity="1"
           id="path67180-2-2-6-2-2-5-9"
           style="fill:#2ad4ff;fill-opacity:1;stroke-width:1.71648" />
        <path
           fill="#50e2e2"
           stroke="none"
           paint-order="stroke fill markers"
           d="m 298.7791,473.34131 7.49323,14.92007 7.44013,-14.94663 z"
           fill-opacity="1"
           id="path67180-2-7-8"
           style="fill:#e2e250;fill-opacity:1;stroke-width:1.71648" />
        <text
           xml:space="preserve"
           transform="matrix(0.6890894,0,0,0.6890894,-358.59489,182.69573)"
           id="text3637-4"
           style="font-style:normal;font-weight:normal;font-size:37.3333px;line-height:1.25;font-family:sans-serif;white-space:pre;shape-inside:url(#rect3639-3);fill:#000000;fill-opacity:1;stroke:none"><tspan
             x="1443.0723"
             y="73.013644"
             id="tspan3690">Node Color</tspan></text>
        <text
           xml:space="preserve"
           transform="matrix(0.6890894,0,0,0.6890894,-358.85359,308.23559)"
           id="text3637-7-7"
           style="font-style:normal;font-weight:normal;font-size:37.3333px;line-height:1.25;font-family:sans-serif;white-space:pre;shape-inside:url(#rect3639-5-6);fill:#000000;fill-opacity:1;stroke:none"><tspan
             x="1443.0723"
             y="73.013644"
             id="tspan3692">Edge Color</tspan></text>
        <rect
           id="rect18643-7-6"
           width="37.300072"
           height="11.378932"
           x="640.94434"
           y="242.69583"
           style="fill:#e2e250;fill-opacity:1;stroke:none;stroke-width:0.467058;stroke-miterlimit:4;stroke-dasharray:none;stroke-opacity:1"
           ry="2.0146372" />
        <text
           xml:space="preserve"
           transform="matrix(0.6890894,0,0,0.6890894,-300.82539,213.10413)"
           id="text27183-1-5"
           style="font-style:normal;font-weight:normal;font-size:21.3333px;line-height:1.25;font-family:sans-serif;white-space:pre;shape-inside:url(#rect27185-7-7);fill:#000000;fill-opacity:1;stroke:none"><tspan
             x="1443.0723"
             y="58.857392"
             id="tspan3694">CDS</tspan></text>
        <rect
           id="rect18643-7-1-9-6"
           width="37.300072"
           height="11.378932"
           x="641.22998"
           y="261.96216"
           style="fill:#50e281;fill-opacity:1;stroke:none;stroke-width:0.467058;stroke-miterlimit:4;stroke-dasharray:none;stroke-opacity:1"
           ry="2.0146372" />
        <text
           xml:space="preserve"
           transform="matrix(0.6890894,0,0,0.6890894,-300.53979,232.37047)"
           id="text27183-1-7-8-9"
           style="font-style:normal;font-weight:normal;font-size:21.3333px;line-height:1.25;font-family:sans-serif;white-space:pre;shape-inside:url(#rect27185-7-6-9-5);fill:#000000;fill-opacity:1;stroke:none"><tspan
             x="1443.0723"
             y="58.857392"
             id="tspan3696">Promoter</tspan></text>
        <rect
           id="rect18643-7-1-9-4-37"
           width="37.300072"
           height="11.378932"
           x="641.36725"
           y="281.26926"
           style="fill:#fa8072;fill-opacity:1;stroke:none;stroke-width:0.467058;stroke-miterlimit:4;stroke-dasharray:none;stroke-opacity:1"
           ry="2.0146372" />
        <text
           xml:space="preserve"
           transform="matrix(0.6890894,0,0,0.6890894,-300.40259,251.67759)"
           id="text27183-1-7-8-1-4"
           style="font-style:normal;font-weight:normal;font-size:21.3333px;line-height:1.25;font-family:sans-serif;white-space:pre;shape-inside:url(#rect27185-7-6-9-4-3);fill:#000000;fill-opacity:1;stroke:none"><tspan
             x="1443.0723"
             y="58.857392"
             id="tspan3698">Protein</tspan></text>
        <rect
           id="rect18643-9-5"
           width="37.300072"
           height="11.378932"
           x="641.24915"
           y="375.12375"
           style="fill:#fa8072;fill-opacity:1;stroke:none;stroke-width:0.467058;stroke-miterlimit:4;stroke-dasharray:none;stroke-opacity:1"
           ry="2.0146372" />
        <text
           xml:space="preserve"
           transform="matrix(0.6890894,0,0,0.6890894,-300.52059,345.53207)"
           id="text27183-2-2"
           style="font-style:normal;font-weight:normal;font-size:21.3333px;line-height:1.25;font-family:sans-serif;white-space:pre;shape-inside:url(#rect27185-4-5);fill:#000000;fill-opacity:1;stroke:none"><tspan
             x="1443.0723"
             y="58.857392"
             id="tspan3700">Repression</tspan></text>
        <rect
           id="rect18643-7-1-5"
           width="37.300072"
           height="11.378932"
           x="641.78766"
           y="393.50162"
           style="fill:#2ad4ff;fill-opacity:1;stroke:none;stroke-width:0.467058;stroke-miterlimit:4;stroke-dasharray:none;stroke-opacity:1"
           ry="2.0146372" />
        <text
           xml:space="preserve"
           transform="matrix(0.6890894,0,0,0.6890894,-299.98209,363.90994)"
           id="text27183-1-1-4"
           style="font-style:normal;font-weight:normal;font-size:21.3333px;line-height:1.25;font-family:sans-serif;white-space:pre;shape-inside:url(#rect27185-7-8-6);fill:#000000;fill-opacity:1;stroke:none"><tspan
             x="1443.0723"
             y="58.857392"
             id="tspan3702">Activation</tspan></text>
        <rect
           id="rect18643-7-1-9-9-7"
           width="37.300072"
           height="11.378932"
           x="642.0733"
           y="412.76807"
           style="fill:#a07be9;fill-opacity:1;stroke:none;stroke-width:0.467058;stroke-miterlimit:4;stroke-dasharray:none;stroke-opacity:1"
           ry="2.0146372" />
        <text
           xml:space="preserve"
           transform="matrix(0.6890894,0,0,0.6890894,-299.69649,383.17628)"
           id="text27183-1-7-8-8-4"
           style="font-style:normal;font-weight:normal;font-size:21.3333px;line-height:1.25;font-family:sans-serif;white-space:pre;shape-inside:url(#rect27185-7-6-9-8-2);fill:#000000;fill-opacity:1;stroke:none"><tspan
             x="1443.0723"
             y="58.857392"
             id="tspan3704">Binding</tspan></text>
        <rect
           id="rect18643-7-1-9-4-3-4"
           width="37.300072"
           height="11.378932"
           x="642.21057"
           y="432.07513"
           style="fill:#e2e250;fill-opacity:1;stroke:none;stroke-width:0.467058;stroke-miterlimit:4;stroke-dasharray:none;stroke-opacity:1"
           ry="2.0146372" />
        <text
           xml:space="preserve"
           transform="matrix(0.6890894,0,0,0.6890894,-299.55929,402.48339)"
           id="text27183-1-7-8-1-6-3"
           style="font-style:normal;font-weight:normal;font-size:21.3333px;line-height:1.25;font-family:sans-serif;white-space:pre;shape-inside:url(#rect27185-7-6-9-4-1-9);fill:#000000;fill-opacity:1;stroke:none"><tspan
             x="1443.0723"
             y="58.857392"
             id="tspan3706">Protein Production</tspan></text>
        <rect
           id="rect18643-7-1-9-4-1-0"
           width="37.300072"
           height="11.378932"
           x="641.44232"
           y="299.77386"
           style="fill:#a07be9;fill-opacity:1;stroke:none;stroke-width:0.467058;stroke-miterlimit:4;stroke-dasharray:none;stroke-opacity:1"
           ry="2.0146372" />
        <text
           xml:space="preserve"
           transform="matrix(0.6890894,0,0,0.6890894,-300.32759,270.18217)"
           id="text27183-1-7-8-1-7-7"
           style="font-style:normal;font-weight:normal;font-size:21.3333px;line-height:1.25;font-family:sans-serif;white-space:pre;shape-inside:url(#rect27185-7-6-9-4-9-1);fill:#000000;fill-opacity:1;stroke:none"><tspan
             x="1443.0723"
             y="58.857392"
             id="tspan3708">Small Molecule</tspan></text>
        <rect
           id="rect18643-7-1-9-4-1-6-8"
           width="37.300072"
           height="11.378932"
           x="641.52295"
           y="318.1626"
           style="fill:#2ad4ff;fill-opacity:1;stroke:none;stroke-width:0.467058;stroke-miterlimit:4;stroke-dasharray:none;stroke-opacity:1"
           ry="2.0146372" />
        <text
           xml:space="preserve"
           transform="matrix(0.6890894,0,0,0.6890894,-300.24699,288.57092)"
           id="text27183-1-7-8-1-7-9-6"
           style="font-style:normal;font-weight:normal;font-size:21.3333px;line-height:1.25;font-family:sans-serif;white-space:pre;shape-inside:url(#rect27185-7-6-9-4-9-5-2);fill:#000000;fill-opacity:1;stroke:none"><tspan
             x="1443.0723"
             y="58.857392"
             id="tspan3710">Complex</tspan></text>
        <text
           fill="#000000"
           stroke="none"
           font-family="'Helvetica Neue', Helvetica, sans-serif"
           font-size="8px"
           font-style="normal"
           font-weight="normal"
           text-decoration="normal"
           x="162.07025"
           y="326.82751"
           text-anchor="middle"
           dominant-baseline="text-after-edge"
           fill-opacity="1"
           id="text67288-8"
           style="font-size:11.9442px">Ara-AraC</text>
        <text
           fill="#000000"
           stroke="none"
           font-family="'Helvetica Neue', Helvetica, sans-serif"
           font-size="8px"
           font-style="normal"
           font-weight="normal"
           text-decoration="normal"
           x="157.67249"
           y="596.50226"
           text-anchor="middle"
           dominant-baseline="text-after-edge"
           fill-opacity="1"
           id="text67244-4"
           style="font-size:11.9442px">PhlF</text>
        <text
           fill="#000000"
           stroke="none"
           font-family="'Helvetica Neue', Helvetica, sans-serif"
           font-size="8px"
           font-style="normal"
           font-weight="normal"
           text-decoration="normal"
           x="158.80029"
           y="660.60455"
           text-anchor="middle"
           dominant-baseline="text-after-edge"
           fill-opacity="1"
           id="text67280-1"
           style="font-size:11.9442px">PhlF</text>
        <text
           fill="#000000"
           stroke="none"
           font-family="'Helvetica Neue', Helvetica, sans-serif"
           font-size="8px"
           font-style="normal"
           font-weight="normal"
           text-decoration="normal"
           x="306.45319"
           y="782.90509"
           text-anchor="middle"
           dominant-baseline="text-after-edge"
           fill-opacity="1"
           id="text67312-9"
           style="font-size:11.9442px">YFP</text>
        <text
           fill="#000000"
           stroke="none"
           font-family="'Helvetica Neue', Helvetica, sans-serif"
           font-size="8px"
           font-style="normal"
           font-weight="normal"
           text-decoration="normal"
           x="308.14508"
           y="512.60663"
           text-anchor="middle"
           dominant-baseline="text-after-edge"
           fill-opacity="1"
           id="text67284-2"
           style="font-size:11.9442px">AmtR</text>
        <text
           fill="#000000"
           stroke="none"
           font-family="'Helvetica Neue', Helvetica, sans-serif"
           font-size="8px"
           font-style="normal"
           font-weight="normal"
           text-decoration="normal"
           x="306.05249"
           y="432.66476"
           text-anchor="middle"
           dominant-baseline="text-after-edge"
           fill-opacity="1"
           id="text67284-2-9"
           style="font-size:11.9442px">AmtR</text>
        <text
           fill="#000000"
           stroke="none"
           font-family="'Helvetica Neue', Helvetica, sans-serif"
           font-size="8px"
           font-style="normal"
           font-weight="normal"
           text-decoration="normal"
           x="226.00562"
           y="483.95905"
           text-anchor="middle"
           dominant-baseline="text-after-edge"
           fill-opacity="1"
           id="text67300"
           style="font-size:11.9442px">AraC</text>
        <text
           fill="#000000"
           stroke="none"
           font-family="'Helvetica Neue', Helvetica, sans-serif"
           font-size="8px"
           font-style="normal"
           font-weight="normal"
           text-decoration="normal"
           x="226.94861"
           y="407.02145"
           text-anchor="middle"
           dominant-baseline="text-after-edge"
           fill-opacity="1"
           id="text67260"
           style="font-size:11.9442px">pBAD</text>
        <text
           fill="#000000"
           stroke="none"
           font-family="'Helvetica Neue', Helvetica, sans-serif"
           font-size="8px"
           font-style="normal"
           font-weight="normal"
           text-decoration="normal"
           x="454.62097"
           y="660.94385"
           text-anchor="middle"
           dominant-baseline="text-after-edge"
           fill-opacity="1"
           id="text67292"
           style="font-size:11.9442px">BetI</text>
        <text
           fill="#000000"
           stroke="none"
           font-family="'Helvetica Neue', Helvetica, sans-serif"
           font-size="8px"
           font-style="normal"
           font-weight="normal"
           text-decoration="normal"
           x="456.50214"
           y="597.27881"
           text-anchor="middle"
           dominant-baseline="text-after-edge"
           fill-opacity="1"
           id="text67292-6"
           style="font-size:11.9442px">BetI</text>
        <text
           fill="#000000"
           stroke="none"
           font-family="'Helvetica Neue', Helvetica, sans-serif"
           font-size="8px"
           font-style="normal"
           font-weight="normal"
           text-decoration="normal"
           x="455.43768"
           y="511.12646"
           text-anchor="middle"
           dominant-baseline="text-after-edge"
           fill-opacity="1"
           id="text67316-8"
           style="font-size:11.9442px">HlyIIR</text>
        <text
           fill="#000000"
           stroke="none"
           font-family="'Helvetica Neue', Helvetica, sans-serif"
           font-size="8px"
           font-style="normal"
           font-weight="normal"
           text-decoration="normal"
           x="455.79016"
           y="372.24026"
           text-anchor="middle"
           dominant-baseline="text-after-edge"
           fill-opacity="1"
           id="text67232"
           style="font-size:11.9442px">HlyIIR</text>
        <text
           fill="#000000"
           stroke="none"
           font-family="'Helvetica Neue', Helvetica, sans-serif"
           font-size="8px"
           font-style="normal"
           font-weight="normal"
           text-decoration="normal"
           x="397.71722"
           y="218.84108"
           text-anchor="middle"
           dominant-baseline="text-after-edge"
           fill-opacity="1"
           id="text67252"
           style="font-size:11.9442px">pTac</text>
        <text
           fill="#000000"
           stroke="none"
           font-family="'Helvetica Neue', Helvetica, sans-serif"
           font-size="8px"
           font-style="normal"
           font-weight="normal"
           text-decoration="normal"
           x="512.56329"
           y="219.17728"
           text-anchor="middle"
           dominant-baseline="text-after-edge"
           fill-opacity="1"
           id="text67256"
           style="font-size:11.9442px">pTet</text>
        <text
           fill="#000000"
           stroke="none"
           font-family="'Helvetica Neue', Helvetica, sans-serif"
           font-size="8px"
           font-style="normal"
           font-weight="normal"
           text-decoration="normal"
           x="338.75372"
           y="219.1714"
           text-anchor="middle"
           dominant-baseline="text-after-edge"
           fill-opacity="1"
           id="text67264"
           style="font-size:11.9442px">IPTG</text>
        <text
           fill="#000000"
           stroke="none"
           font-family="'Helvetica Neue', Helvetica, sans-serif"
           font-size="8px"
           font-style="normal"
           font-weight="normal"
           text-decoration="normal"
           x="338.32397"
           y="326.67709"
           text-anchor="middle"
           dominant-baseline="text-after-edge"
           fill-opacity="1"
           id="text67268"
           style="font-size:11.9442px">IPTG-LacI</text>
        <text
           fill="#000000"
           stroke="none"
           font-family="'Helvetica Neue', Helvetica, sans-serif"
           font-size="8px"
           font-style="normal"
           font-weight="normal"
           text-decoration="normal"
           x="399.19318"
           y="278.83887"
           text-anchor="middle"
           dominant-baseline="text-after-edge"
           fill-opacity="1"
           id="text67272"
           style="font-size:11.9442px">LacI</text>
        <text
           fill="#000000"
           stroke="none"
           font-family="'Helvetica Neue', Helvetica, sans-serif"
           font-size="8px"
           font-style="normal"
           font-weight="normal"
           text-decoration="normal"
           x="574.34662"
           y="325.92984"
           text-anchor="middle"
           dominant-baseline="text-after-edge"
           fill-opacity="1"
           id="text67276"
           style="font-size:11.9442px">aTc-TetR</text>
        <text
           fill="#000000"
           stroke="none"
           font-family="'Helvetica Neue', Helvetica, sans-serif"
           font-size="8px"
           font-style="normal"
           font-weight="normal"
           text-decoration="normal"
           x="514.39221"
           y="279.64182"
           text-anchor="middle"
           dominant-baseline="text-after-edge"
           fill-opacity="1"
           id="text67304"
           style="font-size:11.9442px">TetR</text>
        <text
           fill="#000000"
           stroke="none"
           font-family="'Helvetica Neue', Helvetica, sans-serif"
           font-size="8px"
           font-style="normal"
           font-weight="normal"
           text-decoration="normal"
           x="573.56085"
           y="218.73537"
           text-anchor="middle"
           dominant-baseline="text-after-edge"
           fill-opacity="1"
           id="text67308"
           style="font-size:11.9442px">aTc</text>
      </g>
    </g>
    <text
       xml:space="preserve"
       transform="matrix(0.26458332,0,0,0.26458332,20.066915,7.7552789)"
       id="text3637-2"
       style="font-style:normal;font-weight:normal;font-size:21.3333px;line-height:1.25;font-family:sans-serif;white-space:pre;shape-inside:url(#rect3639-7);fill:#000000;fill-opacity:1;stroke:none" />
    <text
       xml:space="preserve"
       transform="matrix(0.26458332,0,0,0.26458332,20.066915,7.7552789)"
       id="text27596"
       style="font-style:normal;font-weight:normal;font-size:21.3333px;line-height:1.25;font-family:sans-serif;white-space:pre;shape-inside:url(#rect27598);fill:#000000;fill-opacity:1;stroke:none" />
  </g>
</svg>
