<?xml version="1.0" encoding="UTF-8" standalone="no"?>
<svg
   version="1.1"
   width="2000"
   height="1800"
   id="svg168"
   sodipodi:docname="level_4.svg"
   inkscape:version="1.1.1 (26b7af14f2, 2022-01-19)"
   xmlns:inkscape="http://www.inkscape.org/namespaces/inkscape"
   xmlns:sodipodi="http://sodipodi.sourceforge.net/DTD/sodipodi-0.dtd"
   xmlns="http://www.w3.org/2000/svg"
   xmlns:svg="http://www.w3.org/2000/svg">
  <sodipodi:namedview
     id="namedview170"
     pagecolor="#ffffff"
     bordercolor="#666666"
     borderopacity="1.0"
     inkscape:pageshadow="2"
     inkscape:pageopacity="0.0"
     inkscape:pagecheckerboard="0"
     showgrid="false"
     inkscape:zoom="0.59652251"
     inkscape:cx="1146.6457"
     inkscape:cy="834.00038"
     inkscape:window-width="2492"
     inkscape:window-height="1376"
     inkscape:window-x="1988"
     inkscape:window-y="27"
     inkscape:window-maximized="1"
     inkscape:current-layer="g166" />
  <defs
     id="defs2">
    <rect
       x="1443.0721"
       y="39.982376"
       width="235.68906"
       height="103.2741"
       id="rect3639" />
    <rect
       x="1443.0721"
       y="39.982376"
       width="235.68906"
       height="103.2741"
       id="rect3639-7" />
    <rect
       x="1443.0721"
       y="39.982376"
       width="235.68906"
       height="103.2741"
       id="rect27185" />
    <rect
       x="1443.0721"
       y="39.982376"
       width="235.68906"
       height="103.2741"
       id="rect27598" />
    <rect
       x="1443.0721"
       y="39.982376"
       width="235.68906"
       height="103.2741"
       id="rect27185-7" />
    <rect
       x="1443.0721"
       y="39.982376"
       width="235.68906"
       height="103.2741"
       id="rect27185-7-6" />
    <rect
       x="1443.0721"
       y="39.982376"
       width="235.68906"
       height="103.2741"
       id="rect27185-7-6-9" />
    <rect
       x="1443.0721"
       y="39.982376"
       width="235.68906"
       height="103.2741"
       id="rect27185-7-6-9-4" />
    <rect
       x="1443.0721"
       y="39.982376"
       width="235.68906"
       height="103.2741"
       id="rect27185-7-6-9-4-9" />
    <rect
       x="1443.0721"
       y="39.982376"
       width="235.68906"
       height="103.2741"
       id="rect27185-7-6-9-4-9-5" />
    <rect
       x="1443.0721"
       y="39.982376"
       width="235.68906"
       height="103.2741"
       id="rect3639-5" />
    <rect
       x="1443.0721"
       y="39.982376"
       width="235.68906"
       height="103.2741"
       id="rect27185-4" />
    <rect
       x="1443.0721"
       y="39.982376"
       width="235.68906"
       height="103.2741"
       id="rect27185-7-8" />
    <rect
       x="1443.0721"
       y="39.982376"
       width="235.68906"
       height="103.2741"
       id="rect27185-7-6-9-8" />
    <rect
       x="1443.0721"
       y="39.982376"
       width="235.68906"
       height="103.2741"
       id="rect27185-7-6-9-4-1" />
    <rect
       x="1443.0721"
       y="39.982376"
       width="235.68906"
       height="103.2741"
       id="rect27185-7-3" />
    <rect
       x="1443.0721"
       y="39.982376"
       width="235.68906"
       height="103.2741"
       id="rect27185-7-6-9-6" />
    <rect
       x="1443.0721"
       y="39.982376"
       width="235.68906"
       height="103.2741"
       id="rect3639-6" />
    <rect
       x="1443.0721"
       y="39.982376"
       width="235.68906"
       height="103.2741"
       id="rect27185-7-5" />
    <rect
       x="1443.0721"
       y="39.982376"
       width="235.68906"
       height="103.2741"
       id="rect27185-7-5-6" />
    <rect
       x="1443.0721"
       y="39.982376"
       width="235.68906"
       height="103.2741"
       id="rect27185-7-35" />
    <rect
       x="1443.0721"
       y="39.982376"
       width="235.68906"
       height="103.2741"
       id="rect27185-6" />
    <rect
       x="1443.0721"
       y="39.982376"
       width="235.68906"
       height="103.2741"
       id="rect3639-70" />
    <rect
       x="1443.0721"
       y="39.982376"
       width="235.68906"
       height="103.2741"
       id="rect3639-6-9" />
    <rect
       x="1443.0721"
       y="39.982376"
       width="235.68906"
       height="103.2741"
       id="rect27185-3" />
    <rect
       x="1443.0721"
       y="39.982376"
       width="235.68906"
       height="103.2741"
       id="rect27185-7-60" />
    <rect
       x="1443.0721"
       y="39.982376"
       width="235.68906"
       height="103.2741"
       id="rect27185-6-6" />
    <rect
       x="1443.0721"
       y="39.982376"
       width="235.68906"
       height="103.2741"
       id="rect27185-7-35-2" />
    <rect
       x="1443.0721"
       y="39.982376"
       width="235.68906"
       height="103.2741"
       id="rect27185-7-5-61" />
    <rect
       x="1443.0721"
       y="39.982376"
       width="235.68906"
       height="103.2741"
       id="rect27185-7-5-6-8" />
    <rect
       x="1443.0721"
       y="39.982376"
       width="235.68906"
       height="103.2741"
       id="rect3639-3-3" />
    <rect
       x="1443.0721"
       y="39.982376"
       width="235.68906"
       height="103.2741"
       id="rect3639-7-6-6" />
    <rect
       x="1443.0721"
       y="39.982376"
       width="235.68906"
       height="103.2741"
       id="rect27185-75-7" />
    <rect
       x="1443.0721"
       y="39.982376"
       width="235.68906"
       height="103.2741"
       id="rect27185-7-3-5" />
    <rect
       x="1443.0721"
       y="39.982376"
       width="235.68906"
       height="103.2741"
       id="rect27185-7-5-56-3" />
    <rect
       x="1443.0721"
       y="39.982376"
       width="235.68906"
       height="103.2741"
       id="rect27598-2-5" />
  </defs>
  <g
     transform="matrix(3.9354762,0,0,3.9354762,47.272532,49.806429)"
     id="g166">
    <path
       fill="none"
       stroke="#50e2e2"
       paint-order="fill stroke markers"
       d="M 26.636694,406.54807 111.36331,234.81556"
       stroke-opacity="1"
       stroke-linejoin="round"
       stroke-miterlimit="10"
       stroke-width="3"
       id="path4" />
    <path
       fill="#50e2e2"
       stroke="none"
       paint-order="stroke fill markers"
       d="M 69.051776,330.40858 69,320.68182 l -7.750341,5.87747 z"
       fill-opacity="1"
       id="path6" />
    <path
       fill="none"
       stroke="#e28150"
       paint-order="fill stroke markers"
       d="m 133,221.36364 h 68.25296"
       stroke-opacity="1"
       stroke-linejoin="round"
       stroke-miterlimit="10"
       stroke-width="3"
       id="path8" />
    <path
       fill="#e28150"
       stroke="none"
       paint-order="stroke fill markers"
       d="m 158.42648,225.71364 8.7,-4.35 -8.7,-4.35 z"
       fill-opacity="1"
       id="path10" />
    <path
       fill="none"
       stroke="#50e2e2"
       paint-order="fill stroke markers"
       d="m 34.998548,220.2087 68.002902,0.94624"
       stroke-opacity="1"
       stroke-linejoin="round"
       stroke-miterlimit="10"
       stroke-width="3"
       id="path12" />
    <path
       fill="#50e2e2"
       stroke="none"
       paint-order="stroke fill markers"
       d="M 60.240319,224.91035 69,220.68182 60.361365,216.21119 Z"
       fill-opacity="1"
       id="path14" />
    <path
       fill="none"
       stroke="#50e2e2"
       paint-order="fill stroke markers"
       d="M 33.436291,263.33171 104.56371,228.03193"
       stroke-opacity="1"
       stroke-linejoin="round"
       stroke-miterlimit="10"
       stroke-width="3"
       id="path20" />
    <path
       fill="#50e2e2"
       stroke="none"
       paint-order="stroke fill markers"
       d="M 63.140755,253.44595 69,245.68182 59.273147,245.6529 Z"
       fill-opacity="1"
       id="path22" />
    <path
       fill="none"
       stroke="#50e2e2"
       paint-order="fill stroke markers"
       d="M 28.256763,357.47699 109.74324,233.88665"
       stroke-opacity="1"
       stroke-linejoin="round"
       stroke-miterlimit="10"
       stroke-width="3"
       id="path24" />
    <path
       fill="#50e2e2"
       stroke="none"
       paint-order="stroke fill markers"
       d="M 67.842751,305.33963 69,295.68182 60.579403,300.5507 Z"
       fill-opacity="1"
       id="path26" />
    <path
       fill="none"
       stroke="#50e2e2"
       paint-order="fill stroke markers"
       d="m 33.285784,176.96333 71.428436,37.43698"
       stroke-opacity="1"
       stroke-linejoin="round"
       stroke-miterlimit="10"
       stroke-width="3"
       id="path28" />
    <path
       fill="#50e2e2"
       stroke="none"
       paint-order="stroke fill markers"
       d="M 59.27488,195.49597 69,195.68182 63.31361,187.79021 Z"
       fill-opacity="1"
       id="path30" />
    <path
       fill="none"
       stroke="#50e2e2"
       paint-order="fill stroke markers"
       d="m 30.426165,130.78402 77.147665,79.7956"
       stroke-opacity="1"
       stroke-linejoin="round"
       stroke-miterlimit="10"
       stroke-width="3"
       id="path32" />
    <path
       fill="#50e2e2"
       stroke="none"
       paint-order="stroke fill markers"
       d="M 59.825458,167.45067 69,170.68182 66.08019,161.4035 Z"
       fill-opacity="1"
       id="path34" />
    <path
       fill="none"
       stroke="#50e2e2"
       paint-order="fill stroke markers"
       d="M 30.572221,309.35913 107.42778,232.00451"
       stroke-opacity="1"
       stroke-linejoin="round"
       stroke-miterlimit="10"
       stroke-width="3"
       id="path36" />
    <path
       fill="#50e2e2"
       stroke="none"
       paint-order="stroke fill markers"
       d="M 65.953964,279.91947 69,270.68182 l -9.217741,3.10576 z"
       fill-opacity="1"
       id="path38" />
    <path
       fill="none"
       stroke="#50e2e2"
       paint-order="fill stroke markers"
       d="m 28.152218,82.59132 81.695562,126.181"
       stroke-opacity="1"
       stroke-linejoin="round"
       stroke-miterlimit="10"
       stroke-width="3"
       id="path40" />
    <path
       fill="#50e2e2"
       stroke="none"
       paint-order="stroke fill markers"
       d="M 60.62023,140.743 69,145.68182 67.923196,136.01471 Z"
       fill-opacity="1"
       id="path42" />
    <path
       fill="none"
       stroke="#50e2e2"
       paint-order="fill stroke markers"
       d="M 26.564115,33.48749 111.43588,207.87615"
       stroke-opacity="1"
       stroke-linejoin="round"
       stroke-miterlimit="10"
       stroke-width="3"
       id="path44" />
    <path
       fill="#50e2e2"
       stroke="none"
       paint-order="stroke fill markers"
       d="M 61.281441,114.76267 69,120.68182 l 0.104185,-9.72634 z"
       fill-opacity="1"
       id="path46" />
    <path
       fill="none"
       stroke="#50e2e2"
       paint-order="fill stroke markers"
       d="m 228.88008,221.36364 h 68.2829"
       stroke-opacity="1"
       stroke-linejoin="round"
       stroke-miterlimit="10"
       stroke-width="3.05215"
       id="path48" />
    <path
       fill="#50e2e2"
       stroke="none"
       paint-order="stroke fill markers"
       d="m 255.53773,225.71364 8.7,-4.35 -8.7,-4.35 z"
       fill-opacity="1"
       id="path50" />
    <path
       fill="none"
       stroke="#e28150"
       paint-order="fill stroke markers"
       d="m 327.22204,221.2469 40.65742,-0.31643"
       stroke-opacity="1"
       stroke-linejoin="round"
       stroke-miterlimit="10"
       stroke-width="3"
       id="path52" />
    <path
       fill="#e28150"
       stroke="none"
       paint-order="stroke fill markers"
       d="m 338.88487,225.50626 8.66588,-4.41758 -8.73359,-4.28216 z"
       fill-opacity="1"
       id="path54" />
    <path
       fill="none"
       stroke="#50e2e2"
       paint-order="fill stroke markers"
       d="m 226.99265,174.02032 72.11706,40.05945"
       stroke-opacity="1"
       stroke-linejoin="round"
       stroke-miterlimit="10"
       stroke-width="3"
       id="path56" />
    <path
       fill="#50e2e2"
       stroke="none"
       paint-order="stroke fill markers"
       d="m 253.33344,193.62811 9.71774,0.42193 -5.4931,-8.02735 z"
       fill-opacity="1"
       id="path58" />
    <path
       fill="none"
       stroke="#50e2e2"
       paint-order="fill stroke markers"
       d="m 227.12337,264.43289 71.79632,-36.13851"
       stroke-opacity="1"
       stroke-linejoin="round"
       stroke-miterlimit="10"
       stroke-width="3.05215"
       id="path60" />
    <path
       fill="#50e2e2"
       stroke="none"
       paint-order="stroke fill markers"
       d="m 258.53201,254.24128 5.70572,-7.87764 -9.72555,0.16201 z"
       fill-opacity="1"
       id="path62" />
    <path
       fill="none"
       stroke="#50e2e2"
       paint-order="fill stroke markers"
       d="m 394.03953,226.656 q 34.17428,13.88879 68.17947,-0.37816"
       stroke-opacity="1"
       stroke-linejoin="round"
       stroke-miterlimit="10"
       stroke-width="3.06017"
       id="path64" />
    <path
       fill="#50e2e2"
       stroke="none"
       paint-order="stroke fill markers"
       d="m 420.82262,237.90599 8.67475,-4.40014 -8.72496,-4.29971 z"
       fill-opacity="1"
       id="path66" />
    <path
       fill="none"
       stroke="#e28150"
       paint-order="fill stroke markers"
       d="M 462.14787,214.43424 Q 427.9736,200.54545 393.96841,214.8124"
       stroke-opacity="1"
       stroke-linejoin="round"
       stroke-miterlimit="10"
       stroke-width="3.06017"
       id="path68" />
    <path
       fill="#e28150"
       stroke="none"
       paint-order="stroke fill markers"
       d="m 438.02253,203.18425 -8.67475,4.40014 8.72495,4.29971 z"
       fill-opacity="1"
       id="path70" />
    <path
       fill="none"
       stroke="#50e2e2"
       paint-order="fill stroke markers"
       d="m 392.694,308.0434 72.94783,-76.88532"
       stroke-opacity="1"
       stroke-linejoin="round"
       stroke-miterlimit="10"
       stroke-width="3"
       id="path72" />
    <path
       fill="#50e2e2"
       stroke="none"
       paint-order="stroke fill markers"
       d="m 426.33548,278.90611 2.83244,-9.30537 -9.14376,3.31727 z"
       fill-opacity="1"
       id="path74" />
    <path
       fill="none"
       stroke="#50e2e2"
       paint-order="fill stroke markers"
       d="m 395.73505,170.13205 67.50734,42.20052"
       stroke-opacity="1"
       stroke-linejoin="round"
       stroke-miterlimit="10"
       stroke-width="3.08091"
       id="path76" />
    <path
       fill="#50e2e2"
       stroke="none"
       paint-order="stroke fill markers"
       d="m 420.67095,190.88176 9.68352,0.91759 -5.07604,-8.29737 z"
       fill-opacity="1"
       id="path78" />
    <path
       fill="none"
       stroke="#50e2e2"
       paint-order="fill stroke markers"
       d="M 395.73491,264.71876 462.83541,227.528"
       stroke-opacity="1"
       stroke-linejoin="round"
       stroke-miterlimit="10"
       stroke-width="3.03057"
       id="path80" />
    <path
       fill="#50e2e2"
       stroke="none"
       paint-order="stroke fill markers"
       d="m 424.05054,253.91633 5.51289,-8.01377 -9.71875,0.39795 z"
       fill-opacity="1"
       id="path82" />
    <path
       fill="#e2e250"
       stroke="none"
       paint-order="stroke fill markers"
       d="m 133,221.36364 -0.0462,1.17688 -0.13844,1.16963 -0.22977,1.15517 -0.3197,1.13357 -0.40766,1.105 -0.49309,1.0696 -0.5755,1.02762 -0.65435,0.97931 -0.72916,0.92494 -0.79949,0.86488 -0.86488,0.79949 -0.92494,0.72916 -0.9793,0.65435 -1.02762,0.57549 -1.06961,0.4931 -1.105,0.40765 -1.13357,0.31971 -1.15516,0.22977 -1.16963,0.13844 -1.17689,0.0462 -1.17689,-0.0462 -1.16963,-0.13844 -1.15516,-0.22977 -1.13358,-0.31971 -1.10499,-0.40765 -1.06961,-0.4931 -1.02762,-0.57549 -0.9793,-0.65435 -0.92494,-0.72916 -0.86488,-0.79949 -0.79949,-0.86488 -0.72917,-0.92494 -0.65434,-0.97931 -0.5755,-1.02762 -0.49309,-1.0696 -0.40766,-1.105 -0.3197,-1.13357 -0.22978,-1.15517 -0.13843,-1.16963 -0.0462,-1.17688 0.0462,-1.17689 0.13843,-1.16963 0.22978,-1.15516 0.3197,-1.13358 0.40766,-1.105 0.49309,-1.0696 0.5755,-1.02762 0.65434,-0.9793 0.72917,-0.92494 0.79949,-0.86489 0.86488,-0.79948 0.92494,-0.72917 0.9793,-0.65435 1.02762,-0.57549 1.06961,-0.4931 1.10499,-0.40765 1.13358,-0.3197 1.15516,-0.22978 1.16963,-0.13843 1.17689,-0.0462 1.17689,0.0462 1.16963,0.13843 1.15516,0.22978 1.13357,0.3197 1.105,0.40765 1.06961,0.4931 1.02762,0.57549 0.9793,0.65435 0.92494,0.72917 0.86488,0.79948 0.79949,0.86489 0.72916,0.92494 0.65435,0.9793 0.5755,1.02762 0.49309,1.0696 0.40766,1.105 0.3197,1.13358 0.22977,1.15516 0.13844,1.16963 z"
       fill-opacity="1"
       id="path84" />
    <path
       fill="#81e250"
       stroke="none"
       paint-order="stroke fill markers"
       d="m 327.2225,221.36364 -0.0462,1.17688 -0.13844,1.16963 -0.22977,1.15517 -0.31971,1.13357 -0.40765,1.105 -0.4931,1.0696 -0.57549,1.02762 -0.65435,0.97931 -0.72916,0.92494 -0.79949,0.86488 -0.86488,0.79949 -0.92494,0.72916 -0.9793,0.65435 -1.02763,0.57549 -1.0696,0.4931 -1.105,0.40765 -1.13357,0.31971 -1.15517,0.22977 -1.16963,0.13844 -1.17688,0.0462 -1.17689,-0.0462 -1.16963,-0.13844 -1.15516,-0.22977 -1.13358,-0.31971 -1.10499,-0.40765 -1.06961,-0.4931 -1.02762,-0.57549 -0.9793,-0.65435 -0.92494,-0.72916 -0.86489,-0.79949 -0.79948,-0.86488 -0.72917,-0.92494 -0.65435,-0.97931 -0.57549,-1.02762 -0.4931,-1.0696 -0.40765,-1.105 -0.3197,-1.13357 -0.22978,-1.15517 -0.13843,-1.16963 -0.0462,-1.17688 0.0462,-1.17689 0.13843,-1.16963 0.22978,-1.15516 0.3197,-1.13358 0.40765,-1.105 0.4931,-1.0696 0.57549,-1.02762 0.65435,-0.9793 0.72917,-0.92494 0.79948,-0.86489 0.86489,-0.79948 0.92494,-0.72917 0.9793,-0.65435 1.02762,-0.57549 1.06961,-0.4931 1.10499,-0.40765 1.13358,-0.3197 1.15516,-0.22978 1.16963,-0.13843 1.17689,-0.0462 1.17688,0.0462 1.16963,0.13843 1.15517,0.22978 1.13357,0.3197 1.105,0.40765 1.0696,0.4931 1.02763,0.57549 0.9793,0.65435 0.92494,0.72917 0.86488,0.79948 0.79949,0.86489 0.72916,0.92494 0.65435,0.9793 0.57549,1.02762 0.4931,1.0696 0.40765,1.105 0.31971,1.13358 0.22977,1.15516 0.13844,1.16963 z"
       fill-opacity="1"
       id="path88" />
    <path
       fill="#50e281"
       stroke="none"
       paint-order="stroke fill markers"
       d="m 490.96614,220.27651 -0.0462,1.17688 -0.13844,1.16963 -0.22977,1.15517 -0.3197,1.13357 -0.40766,1.105 -0.49309,1.06961 -0.5755,1.02762 -0.65435,0.9793 -0.72916,0.92494 -0.79949,0.86488 -0.86488,0.79949 -0.92494,0.72916 -0.9793,0.65435 -1.02762,0.5755 -1.06961,0.49309 -1.105,0.40766 -1.13357,0.3197 -1.15516,0.22977 -1.16963,0.13844 -1.17689,0.0462 -1.17689,-0.0462 -1.16963,-0.13844 -1.15516,-0.22977 -1.13358,-0.3197 -1.10499,-0.40766 -1.06961,-0.49309 -1.02762,-0.5755 -0.9793,-0.65435 -0.92494,-0.72916 -0.86488,-0.79949 -0.79949,-0.86488 -0.72917,-0.92494 -0.65434,-0.9793 -0.5755,-1.02762 -0.49309,-1.06961 -0.40766,-1.105 -0.3197,-1.13357 -0.22978,-1.15517 -0.13843,-1.16963 -0.0462,-1.17688 0.0462,-1.17689 0.13843,-1.16963 0.22978,-1.15516 0.3197,-1.13358 0.40766,-1.10499 0.49309,-1.06961 0.5755,-1.02762 0.65434,-0.9793 0.72917,-0.92494 0.79949,-0.86488 0.86488,-0.79949 0.92494,-0.72917 0.9793,-0.65434 1.02762,-0.5755 1.06961,-0.4931 1.10499,-0.40765 1.13358,-0.3197 1.15516,-0.22978 1.16963,-0.13843 1.17689,-0.0462 1.17689,0.0462 1.16963,0.13843 1.15516,0.22978 1.13357,0.3197 1.105,0.40765 1.06961,0.4931 1.02762,0.5755 0.9793,0.65434 0.92494,0.72917 0.86488,0.79949 0.79949,0.86488 0.72916,0.92494 0.65435,0.9793 0.5755,1.02762 0.49309,1.06961 0.40766,1.10499 0.3197,1.13358 0.22977,1.15516 0.13844,1.16963 z"
       fill-opacity="1"
       id="path92" />
    <path
       fill="#e28150"
       stroke="none"
       paint-order="stroke fill markers"
       d="m 35,420 -0.04624,1.17689 -0.138435,1.16963 -0.229776,1.15516 -0.319701,1.13357 -0.407655,1.105 -0.493095,1.06961 -0.575496,1.02762 -0.654347,0.9793 -0.729166,0.92494 -0.799487,0.86488 -0.864881,0.79949 -0.924942,0.72916 -0.979301,0.65435 -1.027621,0.5755 -1.069606,0.49309 -1.104996,0.40766 -1.133575,0.3197 -1.155163,0.22978 -1.169631,0.13843 L 20,435 l -1.176886,-0.0462 -1.169631,-0.13843 -1.155163,-0.22978 -1.133575,-0.3197 -1.104996,-0.40766 -1.069606,-0.49309 -1.027621,-0.5755 -0.979301,-0.65435 -0.924942,-0.72916 -0.8648807,-0.79949 -0.7994878,-0.86488 -0.7291654,-0.92494 -0.6543476,-0.9793 L 6.6349021,426.8099 6.141807,425.74029 5.7341523,424.63529 5.4144512,423.50168 5.1846749,422.34652 5.04624,421.17689 5,420 l 0.04624,-1.17689 0.1384349,-1.16963 0.2297763,-1.15516 0.3197011,-1.13357 0.4076547,-1.105 0.4930951,-1.06961 0.5754954,-1.02762 0.6543476,-0.9793 0.7291654,-0.92494 0.7994878,-0.86488 0.8648807,-0.79949 0.924942,-0.72916 0.979301,-0.65435 1.027621,-0.5755 1.069606,-0.49309 1.104996,-0.40766 1.133575,-0.3197 1.155163,-0.22978 1.169631,-0.13843 L 20,405 l 1.176886,0.0462 1.169631,0.13843 1.155163,0.22978 1.133575,0.3197 1.104996,0.40766 1.069606,0.49309 1.027621,0.5755 0.979301,0.65435 0.924942,0.72916 0.864881,0.79949 0.799487,0.86488 0.729166,0.92494 0.654347,0.9793 0.575496,1.02762 0.493095,1.06961 0.407655,1.105 0.319701,1.13357 0.229776,1.15516 0.138435,1.16963 z"
       fill-opacity="1"
       id="path96" />
    <text
       fill="#000000"
       stroke="none"
       font-family="'Helvetica Neue', Helvetica, sans-serif"
       font-size="8px"
       font-style="normal"
       font-weight="normal"
       text-decoration="normal"
       x="20"
       y="405"
       text-anchor="middle"
       dominant-baseline="text-after-edge"
       fill-opacity="1"
       id="text98">restriction-buffer</text>
    <path
       fill="#e28150"
       stroke="none"
       paint-order="stroke fill markers"
       d="m 35,220 -0.04624,1.17689 -0.138435,1.16963 -0.229776,1.15516 -0.319701,1.13357 -0.407655,1.105 -0.493095,1.06961 -0.575496,1.02762 -0.654347,0.9793 -0.729166,0.92494 -0.799487,0.86488 -0.864881,0.79949 -0.924942,0.72916 -0.979301,0.65435 -1.027621,0.5755 -1.069606,0.49309 -1.104996,0.40766 -1.133575,0.3197 -1.155163,0.22978 -1.169631,0.13843 L 20,235 l -1.176886,-0.0462 -1.169631,-0.13843 -1.155163,-0.22978 -1.133575,-0.3197 -1.104996,-0.40766 -1.069606,-0.49309 -1.027621,-0.5755 -0.979301,-0.65435 -0.924942,-0.72916 -0.8648807,-0.79949 -0.7994878,-0.86488 -0.7291654,-0.92494 -0.6543476,-0.9793 L 6.6349021,226.8099 6.141807,225.74029 5.7341523,224.63529 5.4144512,223.50168 5.1846749,222.34652 5.04624,221.17689 5,220 l 0.04624,-1.17689 0.1384349,-1.16963 0.2297763,-1.15516 0.3197011,-1.13357 0.4076547,-1.105 0.4930951,-1.06961 0.5754954,-1.02762 0.6543476,-0.9793 0.7291654,-0.92494 0.7994878,-0.86488 0.8648807,-0.79949 0.924942,-0.72916 0.979301,-0.65435 1.027621,-0.5755 1.069606,-0.49309 1.104996,-0.40766 1.133575,-0.3197 1.155163,-0.22978 1.169631,-0.13843 L 20,205 l 1.176886,0.0462 1.169631,0.13843 1.155163,0.22978 1.133575,0.3197 1.104996,0.40766 1.069606,0.49309 1.027621,0.5755 0.979301,0.65435 0.924942,0.72916 0.864881,0.79949 0.799487,0.86488 0.729166,0.92494 0.654347,0.9793 0.575496,1.02762 0.493095,1.06961 0.407655,1.105 0.319701,1.13357 0.229776,1.15516 0.138435,1.16963 z"
       fill-opacity="1"
       id="path100" />
    <text
       fill="#000000"
       stroke="none"
       font-family="'Helvetica Neue', Helvetica, sans-serif"
       font-size="8px"
       font-style="normal"
       font-weight="normal"
       text-decoration="normal"
       x="20"
       y="205"
       text-anchor="middle"
       dominant-baseline="text-after-edge"
       fill-opacity="1"
       id="text102">gBlock-nor</text>
    <path
       fill="#e28150"
       stroke="none"
       paint-order="stroke fill markers"
       d="m 35,270 -0.04624,1.17689 -0.138435,1.16963 -0.229776,1.15516 -0.319701,1.13357 -0.407655,1.105 -0.493095,1.06961 -0.575496,1.02762 -0.654347,0.9793 -0.729166,0.92494 -0.799487,0.86488 -0.864881,0.79949 -0.924942,0.72916 -0.979301,0.65435 -1.027621,0.5755 -1.069606,0.49309 -1.104996,0.40766 -1.133575,0.3197 -1.155163,0.22978 -1.169631,0.13843 L 20,285 l -1.176886,-0.0462 -1.169631,-0.13843 -1.155163,-0.22978 -1.133575,-0.3197 -1.104996,-0.40766 -1.069606,-0.49309 -1.027621,-0.5755 -0.979301,-0.65435 -0.924942,-0.72916 -0.8648807,-0.79949 -0.7994878,-0.86488 -0.7291654,-0.92494 -0.6543476,-0.9793 L 6.6349021,276.8099 6.141807,275.74029 5.7341523,274.63529 5.4144512,273.50168 5.1846749,272.34652 5.04624,271.17689 5,270 l 0.04624,-1.17689 0.1384349,-1.16963 0.2297763,-1.15516 0.3197011,-1.13357 0.4076547,-1.105 0.4930951,-1.06961 0.5754954,-1.02762 0.6543476,-0.9793 0.7291654,-0.92494 0.7994878,-0.86488 0.8648807,-0.79949 0.924942,-0.72916 0.979301,-0.65435 1.027621,-0.5755 1.069606,-0.49309 1.104996,-0.40766 1.133575,-0.3197 1.155163,-0.22978 1.169631,-0.13843 L 20,255 l 1.176886,0.0462 1.169631,0.13843 1.155163,0.22978 1.133575,0.3197 1.104996,0.40766 1.069606,0.49309 1.027621,0.5755 0.979301,0.65435 0.924942,0.72916 0.864881,0.79949 0.799487,0.86488 0.729166,0.92494 0.654347,0.9793 0.575496,1.02762 0.493095,1.06961 0.407655,1.105 0.319701,1.13357 0.229776,1.15516 0.138435,1.16963 z"
       fill-opacity="1"
       id="path108" />
    <text
       fill="#000000"
       stroke="none"
       font-family="'Helvetica Neue', Helvetica, sans-serif"
       font-size="8px"
       font-style="normal"
       font-weight="normal"
       text-decoration="normal"
       x="20"
       y="255"
       text-anchor="middle"
       dominant-baseline="text-after-edge"
       fill-opacity="1"
       id="text110">elution-buffer</text>
    <path
       fill="#e28150"
       stroke="none"
       paint-order="stroke fill markers"
       d="m 35,370 -0.04624,1.17689 -0.138435,1.16963 -0.229776,1.15516 -0.319701,1.13357 -0.407655,1.105 -0.493095,1.06961 -0.575496,1.02762 -0.654347,0.9793 -0.729166,0.92494 -0.799487,0.86488 -0.864881,0.79949 -0.924942,0.72916 -0.979301,0.65435 -1.027621,0.5755 -1.069606,0.49309 -1.104996,0.40766 -1.133575,0.3197 -1.155163,0.22978 -1.169631,0.13843 L 20,385 l -1.176886,-0.0462 -1.169631,-0.13843 -1.155163,-0.22978 -1.133575,-0.3197 -1.104996,-0.40766 -1.069606,-0.49309 -1.027621,-0.5755 -0.979301,-0.65435 -0.924942,-0.72916 -0.8648807,-0.79949 -0.7994878,-0.86488 -0.7291654,-0.92494 -0.6543476,-0.9793 L 6.6349021,376.8099 6.141807,375.74029 5.7341523,374.63529 5.4144512,373.50168 5.1846749,372.34652 5.04624,371.17689 5,370 l 0.04624,-1.17689 0.1384349,-1.16963 0.2297763,-1.15516 0.3197011,-1.13357 0.4076547,-1.105 0.4930951,-1.06961 0.5754954,-1.02762 0.6543476,-0.9793 0.7291654,-0.92494 0.7994878,-0.86488 0.8648807,-0.79949 0.924942,-0.72916 0.979301,-0.65435 1.027621,-0.5755 1.069606,-0.49309 1.104996,-0.40766 1.133575,-0.3197 1.155163,-0.22978 1.169631,-0.13843 L 20,355 l 1.176886,0.0462 1.169631,0.13843 1.155163,0.22978 1.133575,0.3197 1.104996,0.40766 1.069606,0.49309 1.027621,0.5755 0.979301,0.65435 0.924942,0.72916 0.864881,0.79949 0.799487,0.86488 0.729166,0.92494 0.654347,0.9793 0.575496,1.02762 0.493095,1.06961 0.407655,1.105 0.319701,1.13357 0.229776,1.15516 0.138435,1.16963 z"
       fill-opacity="1"
       id="path112" />
    <text
       fill="#000000"
       stroke="none"
       font-family="'Helvetica Neue', Helvetica, sans-serif"
       font-size="8px"
       font-style="normal"
       font-weight="normal"
       text-decoration="normal"
       x="20"
       y="355"
       text-anchor="middle"
       dominant-baseline="text-after-edge"
       fill-opacity="1"
       id="text114">restriction-enzyme</text>
    <path
       fill="#e28150"
       stroke="none"
       paint-order="stroke fill markers"
       d="m 35,170 -0.04624,1.17689 -0.138435,1.16963 -0.229776,1.15516 -0.319701,1.13357 -0.407655,1.105 -0.493095,1.06961 -0.575496,1.02762 -0.654347,0.9793 -0.729166,0.92494 -0.799487,0.86488 -0.864881,0.79949 -0.924942,0.72916 -0.979301,0.65435 -1.027621,0.5755 -1.069606,0.49309 -1.104996,0.40766 -1.133575,0.3197 -1.155163,0.22978 -1.169631,0.13843 L 20,185 l -1.176886,-0.0462 -1.169631,-0.13843 -1.155163,-0.22978 -1.133575,-0.3197 -1.104996,-0.40766 -1.069606,-0.49309 -1.027621,-0.5755 -0.979301,-0.65435 -0.924942,-0.72916 -0.8648807,-0.79949 -0.7994878,-0.86488 -0.7291654,-0.92494 -0.6543476,-0.9793 L 6.6349021,176.8099 6.141807,175.74029 5.7341523,174.63529 5.4144512,173.50168 5.1846749,172.34652 5.04624,171.17689 5,170 l 0.04624,-1.17689 0.1384349,-1.16963 0.2297763,-1.15516 0.3197011,-1.13357 0.4076547,-1.105 0.4930951,-1.06961 0.5754954,-1.02762 0.6543476,-0.9793 0.7291654,-0.92494 0.7994878,-0.86488 0.8648807,-0.79949 0.924942,-0.72916 0.979301,-0.65435 1.027621,-0.5755 1.069606,-0.49309 1.104996,-0.40766 1.133575,-0.3197 1.155163,-0.22978 1.169631,-0.13843 L 20,155 l 1.176886,0.0462 1.169631,0.13843 1.155163,0.22978 1.133575,0.3197 1.104996,0.40766 1.069606,0.49309 1.027621,0.5755 0.979301,0.65435 0.924942,0.72916 0.864881,0.79949 0.799487,0.86488 0.729166,0.92494 0.654347,0.9793 0.575496,1.02762 0.493095,1.06961 0.407655,1.105 0.319701,1.13357 0.229776,1.15516 0.138435,1.16963 z"
       fill-opacity="1"
       id="path116" />
    <text
       fill="#000000"
       stroke="none"
       font-family="'Helvetica Neue', Helvetica, sans-serif"
       font-size="8px"
       font-style="normal"
       font-weight="normal"
       text-decoration="normal"
       x="20"
       y="155"
       text-anchor="middle"
       dominant-baseline="text-after-edge"
       fill-opacity="1"
       id="text118">binding-buffer</text>
    <path
       fill="#e28150"
       stroke="none"
       paint-order="stroke fill markers"
       d="m 35,120 -0.04624,1.17689 -0.138435,1.16963 -0.229776,1.15516 -0.319701,1.13357 -0.407655,1.105 -0.493095,1.06961 -0.575496,1.02762 -0.654347,0.9793 -0.729166,0.92494 -0.799487,0.86488 -0.864881,0.79949 -0.924942,0.72916 -0.979301,0.65435 -1.027621,0.5755 -1.069606,0.49309 -1.104996,0.40766 -1.133575,0.3197 -1.155163,0.22978 -1.169631,0.13843 L 20,135 l -1.176886,-0.0462 -1.169631,-0.13843 -1.155163,-0.22978 -1.133575,-0.3197 -1.104996,-0.40766 -1.069606,-0.49309 -1.027621,-0.5755 -0.979301,-0.65435 -0.924942,-0.72916 -0.8648807,-0.79949 -0.7994878,-0.86488 -0.7291654,-0.92494 -0.6543476,-0.9793 L 6.6349021,126.8099 6.141807,125.74029 5.7341523,124.63529 5.4144512,123.50168 5.1846749,122.34652 5.04624,121.17689 5,120 l 0.04624,-1.17689 0.1384349,-1.16963 0.2297763,-1.15516 0.3197011,-1.13357 0.4076547,-1.105 0.4930951,-1.06961 0.5754954,-1.02762 0.6543476,-0.9793 0.7291654,-0.92494 0.7994878,-0.86488 0.8648807,-0.79949 0.924942,-0.72916 0.979301,-0.65435 1.027621,-0.5755 1.069606,-0.49309 1.104996,-0.40766 1.133575,-0.3197 1.155163,-0.22978 1.169631,-0.13843 L 20,105 l 1.176886,0.0462 1.169631,0.13843 1.155163,0.22978 1.133575,0.3197 1.104996,0.40766 1.069606,0.49309 1.027621,0.5755 0.979301,0.65435 0.924942,0.72916 0.864881,0.79949 0.799487,0.86488 0.729166,0.92494 0.654347,0.9793 0.575496,1.02762 0.493095,1.06961 0.407655,1.105 0.319701,1.13357 0.229776,1.15516 0.138435,1.16963 z"
       fill-opacity="1"
       id="path120" />
    <text
       fill="#000000"
       stroke="none"
       font-family="'Helvetica Neue', Helvetica, sans-serif"
       font-size="8px"
       font-style="normal"
       font-weight="normal"
       text-decoration="normal"
       x="20"
       y="105"
       text-anchor="middle"
       dominant-baseline="text-after-edge"
       fill-opacity="1"
       id="text122">wash-buffer</text>
    <path
       fill="#e28150"
       stroke="none"
       paint-order="stroke fill markers"
       d="m 35,320 -0.04624,1.17689 -0.138435,1.16963 -0.229776,1.15516 -0.319701,1.13357 -0.407655,1.105 -0.493095,1.06961 -0.575496,1.02762 -0.654347,0.9793 -0.729166,0.92494 -0.799487,0.86488 -0.864881,0.79949 -0.924942,0.72916 -0.979301,0.65435 -1.027621,0.5755 -1.069606,0.49309 -1.104996,0.40766 -1.133575,0.3197 -1.155163,0.22978 -1.169631,0.13843 L 20,335 l -1.176886,-0.0462 -1.169631,-0.13843 -1.155163,-0.22978 -1.133575,-0.3197 -1.104996,-0.40766 -1.069606,-0.49309 -1.027621,-0.5755 -0.979301,-0.65435 -0.924942,-0.72916 -0.8648807,-0.79949 -0.7994878,-0.86488 -0.7291654,-0.92494 -0.6543476,-0.9793 L 6.6349021,326.8099 6.141807,325.74029 5.7341523,324.63529 5.4144512,323.50168 5.1846749,322.34652 5.04624,321.17689 5,320 l 0.04624,-1.17689 0.1384349,-1.16963 0.2297763,-1.15516 0.3197011,-1.13357 0.4076547,-1.105 0.4930951,-1.06961 0.5754954,-1.02762 0.6543476,-0.9793 0.7291654,-0.92494 0.7994878,-0.86488 0.8648807,-0.79949 0.924942,-0.72916 0.979301,-0.65435 1.027621,-0.5755 1.069606,-0.49309 1.104996,-0.40766 1.133575,-0.3197 1.155163,-0.22978 1.169631,-0.13843 L 20,305 l 1.176886,0.0462 1.169631,0.13843 1.155163,0.22978 1.133575,0.3197 1.104996,0.40766 1.069606,0.49309 1.027621,0.5755 0.979301,0.65435 0.924942,0.72916 0.864881,0.79949 0.799487,0.86488 0.729166,0.92494 0.654347,0.9793 0.575496,1.02762 0.493095,1.06961 0.407655,1.105 0.319701,1.13357 0.229776,1.15516 0.138435,1.16963 z"
       fill-opacity="1"
       id="path124" />
    <text
       fill="#000000"
       stroke="none"
       font-family="'Helvetica Neue', Helvetica, sans-serif"
       font-size="8px"
       font-style="normal"
       font-weight="normal"
       text-decoration="normal"
       x="20"
       y="305"
       text-anchor="middle"
       dominant-baseline="text-after-edge"
       fill-opacity="1"
       id="text126">plasmid</text>
    <path
       fill="#e28150"
       stroke="none"
       paint-order="stroke fill markers"
       d="m 35,70 -0.04624,1.176886 -0.138435,1.169631 -0.229776,1.155163 -0.319701,1.133575 -0.407655,1.104996 -0.493095,1.069606 -0.575496,1.027621 -0.654347,0.979301 -0.729166,0.924942 -0.799487,0.864881 -0.864881,0.799487 -0.924942,0.729166 -0.979301,0.654347 -1.027621,0.575496 -1.069606,0.493095 -1.104996,0.407655 -1.133575,0.319701 -1.155163,0.229776 L 21.176886,84.95376 20,85 18.823114,84.95376 17.653483,84.815325 16.49832,84.585549 15.364745,84.265848 14.259749,83.858193 13.190143,83.365098 12.162522,82.789602 11.183221,82.135255 10.258279,81.406089 9.3933983,80.606602 8.5939105,79.741721 7.8647451,78.816779 7.2103975,77.837478 6.6349021,76.809857 6.141807,75.740251 5.7341523,74.635255 5.4144512,73.50168 5.1846749,72.346517 5.04624,71.176886 5,70 5.04624,68.823114 5.1846749,67.653483 5.4144512,66.49832 5.7341523,65.364745 6.141807,64.259749 l 0.4930951,-1.069606 0.5754954,-1.027621 0.6543476,-0.979301 0.7291654,-0.924942 0.7994878,-0.864881 0.8648807,-0.799487 0.924942,-0.729166 0.979301,-0.654347 1.027621,-0.575496 1.069606,-0.493095 1.104996,-0.407655 1.133575,-0.319701 1.155163,-0.229776 L 18.823114,55.04624 20,55 l 1.176886,0.04624 1.169631,0.138435 1.155163,0.229776 1.133575,0.319701 1.104996,0.407655 1.069606,0.493095 1.027621,0.575496 0.979301,0.654347 0.924942,0.729166 0.864881,0.799487 0.799487,0.864881 0.729166,0.924942 0.654347,0.979301 0.575496,1.027621 0.493095,1.069606 0.407655,1.104996 0.319701,1.133575 0.229776,1.155163 0.138435,1.169631 z"
       fill-opacity="1"
       id="path128" />
    <text
       fill="#000000"
       stroke="none"
       font-family="'Helvetica Neue', Helvetica, sans-serif"
       font-size="8px"
       font-style="normal"
       font-weight="normal"
       text-decoration="normal"
       x="20"
       y="55"
       text-anchor="middle"
       dominant-baseline="text-after-edge"
       fill-opacity="1"
       id="text130">water</text>
    <path
       fill="#e28150"
       stroke="none"
       paint-order="stroke fill markers"
       d="m 35,20 -0.04624,1.176886 -0.138435,1.169631 -0.229776,1.155163 -0.319701,1.133575 -0.407655,1.104996 -0.493095,1.069606 -0.575496,1.027621 -0.654347,0.979301 -0.729166,0.924942 -0.799487,0.864881 -0.864881,0.799487 -0.924942,0.729166 -0.979301,0.654347 -1.027621,0.575496 -1.069606,0.493095 -1.104996,0.407655 -1.133575,0.319701 -1.155163,0.229776 L 21.176886,34.95376 20,35 18.823114,34.95376 17.653483,34.815325 16.49832,34.585549 15.364745,34.265848 14.259749,33.858193 13.190143,33.365098 12.162522,32.789602 11.183221,32.135255 10.258279,31.406089 9.3933983,30.606602 8.5939105,29.741721 7.8647451,28.816779 7.2103975,27.837478 6.6349021,26.809857 6.141807,25.740251 5.7341523,24.635255 5.4144512,23.50168 5.1846749,22.346517 5.04624,21.176886 5,20 5.04624,18.823114 5.1846749,17.653483 5.4144512,16.49832 5.7341523,15.364745 6.141807,14.259749 6.6349021,13.190143 7.2103975,12.162522 7.8647451,11.183221 8.5939105,10.258279 9.3933983,9.3933983 10.258279,8.5939105 11.183221,7.8647451 12.162522,7.2103975 13.190143,6.6349021 14.259749,6.141807 15.364745,5.7341523 16.49832,5.4144512 17.653483,5.1846749 18.823114,5.04624 20,5 l 1.176886,0.04624 1.169631,0.1384349 1.155163,0.2297763 1.133575,0.3197011 1.104996,0.4076547 1.069606,0.4930951 1.027621,0.5754954 0.979301,0.6543476 0.924942,0.7291654 0.864881,0.7994878 0.799487,0.8648807 0.729166,0.924942 0.654347,0.979301 0.575496,1.027621 0.493095,1.069606 0.407655,1.104996 0.319701,1.133575 0.229776,1.155163 0.138435,1.169631 z"
       fill-opacity="1"
       id="path132" />
    <text
       fill="#000000"
       stroke="none"
       font-family="'Helvetica Neue', Helvetica, sans-serif"
       font-size="8px"
       font-style="normal"
       font-weight="normal"
       text-decoration="normal"
       x="20"
       y="5"
       text-anchor="middle"
       dominant-baseline="text-after-edge"
       fill-opacity="1"
       id="text134">ligase</text>
    <path
       fill="#e28150"
       stroke="none"
       paint-order="stroke fill markers"
       d="m 228.88008,221.36364 -0.0462,1.17688 -0.13844,1.16963 -0.22977,1.15517 -0.31971,1.13357 -0.40765,1.105 -0.4931,1.0696 -0.57549,1.02762 -0.65435,0.97931 -0.72916,0.92494 -0.79949,0.86488 -0.86488,0.79949 -0.92494,0.72916 -0.9793,0.65435 -1.02763,0.57549 -1.0696,0.4931 -1.105,0.40765 -1.13357,0.31971 -1.15517,0.22977 -1.16963,0.13844 -1.17688,0.0462 -1.17689,-0.0462 -1.16963,-0.13844 -1.15516,-0.22977 -1.13358,-0.31971 -1.10499,-0.40765 -1.06961,-0.4931 -1.02762,-0.57549 -0.9793,-0.65435 -0.92494,-0.72916 -0.86488,-0.79949 -0.79949,-0.86488 -0.72917,-0.92494 -0.65435,-0.97931 -0.57549,-1.02762 -0.4931,-1.0696 -0.40765,-1.105 -0.3197,-1.13357 -0.22978,-1.15517 -0.13843,-1.16963 -0.0462,-1.17688 0.0462,-1.17689 0.13843,-1.16963 0.22978,-1.15516 0.3197,-1.13358 0.40765,-1.105 0.4931,-1.0696 0.57549,-1.02762 0.65435,-0.9793 0.72917,-0.92494 0.79949,-0.86489 0.86488,-0.79948 0.92494,-0.72917 0.9793,-0.65435 1.02762,-0.57549 1.06961,-0.4931 1.10499,-0.40765 1.13358,-0.3197 1.15516,-0.22978 1.16963,-0.13843 1.17689,-0.0462 1.17688,0.0462 1.16963,0.13843 1.15517,0.22978 1.13357,0.3197 1.105,0.40765 1.0696,0.4931 1.02763,0.57549 0.9793,0.65435 0.92494,0.72917 0.86488,0.79948 0.79949,0.86489 0.72916,0.92494 0.65435,0.9793 0.57549,1.02762 0.4931,1.0696 0.40765,1.105 0.31971,1.13358 0.22977,1.15516 0.13844,1.16963 z"
       fill-opacity="1"
       id="path136" />
    <text
       fill="#000000"
       stroke="none"
       font-family="'Helvetica Neue', Helvetica, sans-serif"
       font-size="8px"
       font-style="normal"
       font-weight="normal"
       text-decoration="normal"
       x="214.22018"
       y="206.36363"
       text-anchor="middle"
       dominant-baseline="text-after-edge"
       fill-opacity="1"
       id="text138">ligasted-dna</text>
    <path
       fill="#e28150"
       stroke="none"
       paint-order="stroke fill markers"
       d="m 228.87986,166.73645 -0.0462,1.17689 -0.13843,1.16963 -0.22978,1.15516 -0.3197,1.13358 -0.40766,1.10499 -0.49309,1.06961 -0.5755,1.02762 -0.65434,0.9793 -0.72917,0.92494 -0.79949,0.86488 -0.86488,0.79949 -0.92494,0.72917 -0.9793,0.65434 -1.02762,0.5755 -1.06961,0.4931 -1.10499,0.40765 -1.13358,0.3197 -1.15516,0.22978 -1.16963,0.13843 -1.17689,0.0462 -1.17689,-0.0462 -1.16963,-0.13843 -1.15516,-0.22978 -1.13357,-0.3197 -1.105,-0.40765 -1.06961,-0.4931 -1.02762,-0.5755 -0.9793,-0.65434 -0.92494,-0.72917 -0.86488,-0.79949 -0.79949,-0.86488 -0.72916,-0.92494 -0.65435,-0.9793 -0.5755,-1.02762 -0.49309,-1.06961 -0.40766,-1.10499 -0.3197,-1.13358 -0.22977,-1.15516 -0.13844,-1.16963 -0.0462,-1.17689 0.0462,-1.17688 0.13844,-1.16963 0.22977,-1.15517 0.3197,-1.13357 0.40766,-1.105 0.49309,-1.06961 0.5755,-1.02762 0.65435,-0.9793 0.72916,-0.92494 0.79949,-0.86488 0.86488,-0.79949 0.92494,-0.72916 0.9793,-0.65435 1.02762,-0.5755 1.06961,-0.49309 1.105,-0.40766 1.13357,-0.3197 1.15516,-0.22977 1.16963,-0.13844 1.17689,-0.0462 1.17689,0.0462 1.16963,0.13844 1.15516,0.22977 1.13358,0.3197 1.10499,0.40766 1.06961,0.49309 1.02762,0.5755 0.9793,0.65435 0.92494,0.72916 0.86488,0.79949 0.79949,0.86488 0.72917,0.92494 0.65434,0.9793 0.5755,1.02762 0.49309,1.06961 0.40766,1.105 0.3197,1.13357 0.22978,1.15517 0.13843,1.16963 z"
       fill-opacity="1"
       id="path140" />
    <text
       fill="#000000"
       stroke="none"
       font-family="'Helvetica Neue', Helvetica, sans-serif"
       font-size="8px"
       font-style="normal"
       font-weight="normal"
       text-decoration="normal"
       x="213.87987"
       y="151.73645"
       text-anchor="middle"
       dominant-baseline="text-after-edge"
       fill-opacity="1"
       id="text142">compotent-cells</text>
    <path
       fill="#e28150"
       stroke="none"
       paint-order="stroke fill markers"
       d="m 228.88008,271.36364 -0.0462,1.17688 -0.13844,1.16963 -0.22977,1.15517 -0.31971,1.13357 -0.40765,1.105 -0.4931,1.0696 -0.57549,1.02762 -0.65435,0.97931 -0.72916,0.92494 -0.79949,0.86488 -0.86488,0.79949 -0.92494,0.72916 -0.9793,0.65435 -1.02763,0.57549 -1.0696,0.4931 -1.105,0.40765 -1.13357,0.31971 -1.15517,0.22977 -1.16963,0.13844 -1.17688,0.0462 -1.17689,-0.0462 -1.16963,-0.13844 -1.15516,-0.22977 -1.13358,-0.31971 -1.10499,-0.40765 -1.06961,-0.4931 -1.02762,-0.57549 -0.9793,-0.65435 -0.92494,-0.72916 -0.86488,-0.79949 -0.79949,-0.86488 -0.72917,-0.92494 -0.65435,-0.97931 -0.57549,-1.02762 -0.4931,-1.0696 -0.40765,-1.105 -0.3197,-1.13357 -0.22978,-1.15517 -0.13843,-1.16963 -0.0462,-1.17688 0.0462,-1.17689 0.13843,-1.16963 0.22978,-1.15516 0.3197,-1.13358 0.40765,-1.105 0.4931,-1.0696 0.57549,-1.02762 0.65435,-0.9793 0.72917,-0.92494 0.79949,-0.86489 0.86488,-0.79948 0.92494,-0.72917 0.9793,-0.65435 1.02762,-0.57549 1.06961,-0.4931 1.10499,-0.40765 1.13358,-0.3197 1.15516,-0.22978 1.16963,-0.13843 1.17689,-0.0462 1.17688,0.0462 1.16963,0.13843 1.15517,0.22978 1.13357,0.3197 1.105,0.40765 1.0696,0.4931 1.02763,0.57549 0.9793,0.65435 0.92494,0.72917 0.86488,0.79948 0.79949,0.86489 0.72916,0.92494 0.65435,0.9793 0.57549,1.02762 0.4931,1.0696 0.40765,1.105 0.31971,1.13358 0.22977,1.15516 0.13844,1.16963 z"
       fill-opacity="1"
       id="path144" />
    <text
       fill="#000000"
       stroke="none"
       font-family="'Helvetica Neue', Helvetica, sans-serif"
       font-size="8px"
       font-style="normal"
       font-weight="normal"
       text-decoration="normal"
       x="216.25296"
       y="256.36365"
       text-anchor="middle"
       dominant-baseline="text-after-edge"
       fill-opacity="1"
       id="text146">growth-media</text>
    <path
       fill="#e28150"
       stroke="none"
       paint-order="stroke fill markers"
       d="m 397.08805,220.81373 -0.0462,1.17689 -0.13844,1.16963 -0.22977,1.15516 -0.3197,1.13358 -0.40766,1.10499 -0.49309,1.06961 -0.5755,1.02762 -0.65435,0.9793 -0.72916,0.92494 -0.79949,0.86488 -0.86488,0.79949 -0.92494,0.72917 -0.9793,0.65434 -1.02762,0.5755 -1.06961,0.4931 -1.105,0.40765 -1.13357,0.3197 -1.15516,0.22978 -1.16963,0.13843 -1.17689,0.0462 -1.17689,-0.0462 -1.16963,-0.13843 -1.15516,-0.22978 -1.13358,-0.3197 -1.10499,-0.40765 -1.06961,-0.4931 -1.02762,-0.5755 -0.9793,-0.65434 -0.92494,-0.72917 -0.86488,-0.79949 -0.79949,-0.86488 -0.72917,-0.92494 -0.65434,-0.9793 -0.5755,-1.02762 -0.49309,-1.06961 -0.40766,-1.10499 -0.3197,-1.13358 -0.22978,-1.15516 -0.13843,-1.16963 -0.0462,-1.17689 0.0462,-1.17688 0.13843,-1.16963 0.22978,-1.15517 0.3197,-1.13357 0.40766,-1.105 0.49309,-1.06961 0.5755,-1.02762 0.65434,-0.9793 0.72917,-0.92494 0.79949,-0.86488 0.86488,-0.79949 0.92494,-0.72916 0.9793,-0.65435 1.02762,-0.5755 1.06961,-0.49309 1.10499,-0.40766 1.13358,-0.3197 1.15516,-0.22977 1.16963,-0.13844 1.17689,-0.0462 1.17689,0.0462 1.16963,0.13844 1.15516,0.22977 1.13357,0.3197 1.105,0.40766 1.06961,0.49309 1.02762,0.5755 0.9793,0.65435 0.92494,0.72916 0.86488,0.79949 0.79949,0.86488 0.72916,0.92494 0.65435,0.9793 0.5755,1.02762 0.49309,1.06961 0.40766,1.105 0.3197,1.13357 0.22977,1.15517 0.13844,1.16963 z"
       fill-opacity="1"
       id="path148" />
    <text
       fill="#000000"
       stroke="none"
       font-family="'Helvetica Neue', Helvetica, sans-serif"
       font-size="8px"
       font-style="normal"
       font-weight="normal"
       text-decoration="normal"
       x="382.879"
       y="205.81374"
       text-anchor="middle"
       dominant-baseline="text-after-edge"
       fill-opacity="1"
       id="text150">culture-plate</text>
    <path
       fill="#e28150"
       stroke="none"
       paint-order="stroke fill markers"
       d="m 397.3697,318.92498 -0.0462,1.17689 -0.13844,1.16963 -0.22978,1.15516 -0.3197,1.13358 -0.40765,1.10499 -0.4931,1.06961 -0.57549,1.02762 -0.65435,0.9793 -0.72917,0.92494 -0.79948,0.86488 -0.86488,0.79949 -0.92495,0.72917 -0.9793,0.65434 -1.02762,0.5755 -1.0696,0.49309 -1.105,0.40766 -1.13357,0.3197 -1.15517,0.22978 -1.16963,0.13843 -1.17688,0.0462 -1.17689,-0.0462 -1.16963,-0.13843 -1.15517,-0.22978 -1.13357,-0.3197 -1.105,-0.40766 -1.0696,-0.49309 -1.02762,-0.5755 -0.9793,-0.65434 -0.92495,-0.72917 -0.86488,-0.79949 -0.79948,-0.86488 -0.72917,-0.92494 -0.65435,-0.9793 -0.57549,-1.02762 -0.4931,-1.06961 -0.40765,-1.10499 -0.3197,-1.13358 -0.22978,-1.15516 -0.13843,-1.16963 -0.0462,-1.17689 0.0462,-1.17689 0.13843,-1.16963 0.22978,-1.15516 0.3197,-1.13357 0.40765,-1.105 0.4931,-1.06961 0.57549,-1.02762 0.65435,-0.9793 0.72917,-0.92494 0.79948,-0.86488 0.86488,-0.79949 0.92495,-0.72916 0.9793,-0.65435 1.02762,-0.5755 1.0696,-0.49309 1.105,-0.40766 1.13357,-0.3197 1.15517,-0.22977 1.16963,-0.13844 1.17689,-0.0462 1.17688,0.0462 1.16963,0.13844 1.15517,0.22977 1.13357,0.3197 1.105,0.40766 1.0696,0.49309 1.02762,0.5755 0.9793,0.65435 0.92495,0.72916 0.86488,0.79949 0.79948,0.86488 0.72917,0.92494 0.65435,0.9793 0.57549,1.02762 0.4931,1.06961 0.40765,1.105 0.3197,1.13357 0.22978,1.15516 0.13844,1.16963 z"
       fill-opacity="1"
       id="path152" />
    <text
       fill="#000000"
       stroke="none"
       font-family="'Helvetica Neue', Helvetica, sans-serif"
       font-size="8px"
       font-style="normal"
       font-weight="normal"
       text-decoration="normal"
       x="382.36969"
       y="303.92499"
       text-anchor="middle"
       dominant-baseline="text-after-edge"
       fill-opacity="1"
       id="text154">master-mix</text>
    <path
       fill="#e28150"
       stroke="none"
       paint-order="stroke fill markers"
       d="m 397.36991,163.3222 -0.0462,1.17688 -0.13843,1.16963 -0.22978,1.15517 -0.3197,1.13357 -0.40766,1.105 -0.49309,1.0696 -0.5755,1.02763 -0.65434,0.9793 -0.72917,0.92494 -0.79949,0.86488 -0.86488,0.79949 -0.92494,0.72916 -0.9793,0.65435 -1.02762,0.5755 -1.06961,0.49309 -1.10499,0.40766 -1.13358,0.3197 -1.15516,0.22977 -1.16963,0.13844 -1.17689,0.0462 -1.17688,-0.0462 -1.16964,-0.13844 -1.15516,-0.22977 -1.13357,-0.3197 -1.105,-0.40766 -1.06961,-0.49309 -1.02762,-0.5755 -0.9793,-0.65435 -0.92494,-0.72916 -0.86488,-0.79949 -0.79949,-0.86488 -0.72916,-0.92494 -0.65435,-0.9793 -0.5755,-1.02763 -0.49309,-1.0696 -0.40766,-1.105 -0.3197,-1.13357 -0.22977,-1.15517 -0.13844,-1.16963 -0.0462,-1.17688 0.0462,-1.17689 0.13844,-1.16963 0.22977,-1.15516 0.3197,-1.13358 0.40766,-1.10499 0.49309,-1.06961 0.5755,-1.02762 0.65435,-0.9793 0.72916,-0.92494 0.79949,-0.86488 0.86488,-0.79949 0.92494,-0.72917 0.9793,-0.65435 1.02762,-0.57549 1.06961,-0.4931 1.105,-0.40765 1.13357,-0.3197 1.15516,-0.22978 1.16964,-0.13843 1.17688,-0.0462 1.17689,0.0462 1.16963,0.13843 1.15516,0.22978 1.13358,0.3197 1.10499,0.40765 1.06961,0.4931 1.02762,0.57549 0.9793,0.65435 0.92494,0.72917 0.86488,0.79949 0.79949,0.86488 0.72917,0.92494 0.65434,0.9793 0.5755,1.02762 0.49309,1.06961 0.40766,1.10499 0.3197,1.13358 0.22978,1.15516 0.13843,1.16963 z"
       fill-opacity="1"
       id="path156" />
    <text
       fill="#000000"
       stroke="none"
       font-family="'Helvetica Neue', Helvetica, sans-serif"
       font-size="8px"
       font-style="normal"
       font-weight="normal"
       text-decoration="normal"
       x="384.7428"
       y="148.3222"
       text-anchor="middle"
       dominant-baseline="text-after-edge"
       fill-opacity="1"
       id="text158">forward-primer</text>
    <path
       fill="#e28150"
       stroke="none"
       paint-order="stroke fill markers"
       d="m 397.36977,271.52861 -0.0462,1.17689 -0.13844,1.16963 -0.22977,1.15517 -0.3197,1.13357 -0.40766,1.105 -0.49309,1.0696 -0.5755,1.02762 -0.65435,0.9793 -0.72916,0.92495 -0.79949,0.86488 -0.86488,0.79948 -0.92494,0.72917 -0.9793,0.65435 -1.02763,0.57549 -1.0696,0.4931 -1.105,0.40765 -1.13357,0.3197 -1.15517,0.22978 -1.16963,0.13843 -1.17688,0.0462 -1.17689,-0.0462 -1.16963,-0.13843 -1.15516,-0.22978 -1.13358,-0.3197 -1.10499,-0.40765 -1.06961,-0.4931 -1.02762,-0.57549 -0.9793,-0.65435 -0.92494,-0.72917 -0.86488,-0.79948 -0.79949,-0.86488 -0.72917,-0.92495 -0.65435,-0.9793 -0.57549,-1.02762 -0.4931,-1.0696 -0.40765,-1.105 -0.3197,-1.13357 -0.22978,-1.15517 -0.13843,-1.16963 -0.0462,-1.17689 0.0462,-1.17688 0.13843,-1.16963 0.22978,-1.15517 0.3197,-1.13357 0.40765,-1.105 0.4931,-1.0696 0.57549,-1.02762 0.65435,-0.9793 0.72917,-0.92495 0.79949,-0.86488 0.86488,-0.79948 0.92494,-0.72917 0.9793,-0.65435 1.02762,-0.57549 1.06961,-0.4931 1.10499,-0.40765 1.13358,-0.3197 1.15516,-0.22978 1.16963,-0.13844 1.17689,-0.0462 1.17688,0.0462 1.16963,0.13844 1.15517,0.22978 1.13357,0.3197 1.105,0.40765 1.0696,0.4931 1.02763,0.57549 0.9793,0.65435 0.92494,0.72917 0.86488,0.79948 0.79949,0.86488 0.72916,0.92495 0.65435,0.9793 0.5755,1.02762 0.49309,1.0696 0.40766,1.105 0.3197,1.13357 0.22977,1.15517 0.13844,1.16963 z"
       fill-opacity="1"
       id="path160" />
    <text
       fill="#000000"
       stroke="none"
       font-family="'Helvetica Neue', Helvetica, sans-serif"
       font-size="8px"
       font-style="normal"
       font-weight="normal"
       text-decoration="normal"
       x="383.16074"
       y="256.52863"
       text-anchor="middle"
       dominant-baseline="text-after-edge"
       fill-opacity="1"
       id="text162">reverse-primer</text>
    <g
       transform="matrix(0.39548023,0,0,0.39548023,-73.814509,-6.767896)"
       id="g164" />
  </g>
  <g
     inkscape:label="Layer 1"
     id="layer1-3"
     transform="matrix(9.3086203,0,0,9.3391735,-5096.4061,-1220.1454)">
    <g
       transform="matrix(0.44340211,0,0,0.44340211,17.172835,6.0168225)"
       id="g209">
      <g
         transform="matrix(0.59671195,0,0,0.59671195,-174.66258,-205.37894)"
         id="g207" />
      <g
         transform="matrix(0.86594268,0,0,0.86594268,86.434443,-71.848424)"
         id="g67320">
        <g
           transform="matrix(0.68908942,0,0,0.68908942,-367.92555,64.369515)"
           id="g67318" />
      </g>
    </g>
    <text
       xml:space="preserve"
       transform="matrix(0.26458332,0,0,0.26458332,20.066915,7.7552789)"
       id="text3637-2"
       style="font-style:normal;font-weight:normal;font-size:21.3333px;line-height:1.25;font-family:sans-serif;white-space:pre;shape-inside:url(#rect3639-7);fill:#000000;fill-opacity:1;stroke:none" />
    <text
       xml:space="preserve"
       transform="matrix(0.26458332,0,0,0.26458332,20.066915,7.7552789)"
       id="text27596"
       style="font-style:normal;font-weight:normal;font-size:21.3333px;line-height:1.25;font-family:sans-serif;white-space:pre;shape-inside:url(#rect27598);fill:#000000;fill-opacity:1;stroke:none" />
    <text
       xml:space="preserve"
       transform="matrix(0.22024129,0,0,0.20021572,386.98422,128.53341)"
       id="text3637"
       style="font-style:normal;font-weight:normal;font-size:37.3333px;line-height:1.25;font-family:sans-serif;white-space:pre;shape-inside:url(#rect3639-70);fill:#000000;fill-opacity:1;stroke:none"><tspan
         x="1443.0723"
         y="73.013644"
         id="tspan1186">Node Color</tspan></text>
    <text
       xml:space="preserve"
       transform="matrix(0.22024129,0,0,0.20021572,387.18943,158.56643)"
       id="text3637-7"
       style="font-style:normal;font-weight:normal;font-size:37.3333px;line-height:1.25;font-family:sans-serif;white-space:pre;shape-inside:url(#rect3639-6-9);fill:#000000;fill-opacity:1;stroke:none"><tspan
         x="1443.0723"
         y="73.013644"
         id="tspan1188">Edge Color</tspan></text>
    <rect
       id="rect18643"
       width="11.921554"
       height="3.3061619"
       x="706.27698"
       y="145.9449"
       style="fill:#e28150;fill-opacity:1;stroke:none;stroke-width:0.142329;stroke-miterlimit:4;stroke-dasharray:none;stroke-opacity:1"
       ry="0.58535516" />
    <text
       xml:space="preserve"
       transform="matrix(0.22024129,0,0,0.20021572,405.03025,137.32218)"
       id="text27183"
       style="font-style:normal;font-weight:normal;font-size:21.3333px;line-height:1.25;font-family:sans-serif;white-space:pre;shape-inside:url(#rect27185-3);fill:#000000;fill-opacity:1;stroke:none"><tspan
         x="1443.0723"
         y="58.857392"
         id="tspan1190">Reagent</tspan></text>
    <rect
       id="rect18643-7"
       width="11.921554"
       height="3.3061619"
       x="706.4491"
       y="151.28462"
       style="fill:#e2e250;fill-opacity:1;stroke:none;stroke-width:0.142329;stroke-miterlimit:4;stroke-dasharray:none;stroke-opacity:1"
       ry="0.58535516" />
    <text
       xml:space="preserve"
       transform="matrix(0.22024129,0,0,0.20021572,404.92803,142.80213)"
       id="text27183-1"
       style="font-style:normal;font-weight:normal;font-size:21.3333px;line-height:1.25;font-family:sans-serif;white-space:pre;shape-inside:url(#rect27185-7-60);fill:#000000;fill-opacity:1;stroke:none"><tspan
         x="1443.0723"
         y="58.857392"
         id="tspan1192">Assembly</tspan></text>
    <rect
       id="rect18643-2"
       width="11.921554"
       height="3.3061619"
       x="706.13098"
       y="175.23381"
       style="fill:#50e2e2;fill-opacity:1;stroke:none;stroke-width:0.142329;stroke-miterlimit:4;stroke-dasharray:none;stroke-opacity:1"
       ry="0.58535516" />
    <text
       xml:space="preserve"
       transform="matrix(0.22024129,0,0,0.20021572,405.12993,166.63591)"
       id="text27183-9"
       style="font-style:normal;font-weight:normal;font-size:21.3333px;line-height:1.25;font-family:sans-serif;white-space:pre;shape-inside:url(#rect27185-6-6);fill:#000000;fill-opacity:1;stroke:none"><tspan
         x="1443.0723"
         y="58.857392"
         id="tspan1194">Source</tspan></text>
    <rect
       id="rect18643-7-1"
       width="11.921554"
       height="3.3061619"
       x="706.3031"
       y="180.57353"
       style="fill:#e28150;fill-opacity:1;stroke:none;stroke-width:0.142329;stroke-miterlimit:4;stroke-dasharray:none;stroke-opacity:1"
       ry="0.58535516" />
    <text
       xml:space="preserve"
       transform="matrix(0.22024129,0,0,0.20021572,405.30204,171.97563)"
       id="text27183-1-2"
       style="font-style:normal;font-weight:normal;font-size:21.3333px;line-height:1.25;font-family:sans-serif;white-space:pre;shape-inside:url(#rect27185-7-35-2);fill:#000000;fill-opacity:1;stroke:none"><tspan
         x="1443.0723"
         y="58.857392"
         id="tspan1196">Destination</tspan></text>
    <rect
       id="rect18643-7-3"
       width="11.921554"
       height="3.3061619"
       x="706.34186"
       y="156.49216"
       style="fill:#81e250;fill-opacity:1;stroke:none;stroke-width:0.142329;stroke-miterlimit:4;stroke-dasharray:none;stroke-opacity:1"
       ry="0.58535516" />
    <text
       xml:space="preserve"
       transform="matrix(0.22024129,0,0,0.20021572,405.3086,148.16487)"
       id="text27183-1-5"
       style="font-style:normal;font-weight:normal;font-size:21.3333px;line-height:1.25;font-family:sans-serif;white-space:pre;shape-inside:url(#rect27185-7-5-61);fill:#000000;fill-opacity:1;stroke:none"><tspan
         x="1443.0723"
         y="58.857392"
         id="tspan1198">Transformation</tspan></text>
    <rect
       id="rect18643-7-3-7"
       width="11.921554"
       height="3.3061619"
       x="706.34186"
       y="161.70374"
       style="fill:#50e281;fill-opacity:1;stroke:none;stroke-width:0.142329;stroke-miterlimit:4;stroke-dasharray:none;stroke-opacity:1"
       ry="0.58535516" />
    <text
       xml:space="preserve"
       transform="matrix(0.22024129,0,0,0.20021572,405.60687,153.11899)"
       id="text27183-1-5-5"
       style="font-style:normal;font-weight:normal;font-size:21.3333px;line-height:1.25;font-family:sans-serif;white-space:pre;shape-inside:url(#rect27185-7-5-6-8);fill:#000000;fill-opacity:1;stroke:none"><tspan
         x="1443.0723"
         y="58.857392"
         id="tspan1200">Validation</tspan></text>
  </g>
</svg>
