<?xml version="1.0" encoding="UTF-8" standalone="no"?>
<svg
   version="1.1"
   width="2000"
   height="1700"
   id="svg180"
   sodipodi:docname="level_4_detail.svg"
   inkscape:version="1.1.1 (eb90963e84, 2021-10-02)"
   xmlns:inkscape="http://www.inkscape.org/namespaces/inkscape"
   xmlns:sodipodi="http://sodipodi.sourceforge.net/DTD/sodipodi-0.dtd"
   xmlns="http://www.w3.org/2000/svg"
   xmlns:svg="http://www.w3.org/2000/svg">
  <sodipodi:namedview
     id="namedview182"
     pagecolor="#ffffff"
     bordercolor="#666666"
     borderopacity="1.0"
     inkscape:pageshadow="2"
     inkscape:pageopacity="0.0"
     inkscape:pagecheckerboard="0"
     showgrid="false"
     inkscape:zoom="0.42180511"
     inkscape:cx="477.70877"
     inkscape:cy="715.97047"
     inkscape:window-width="2560"
     inkscape:window-height="1403"
     inkscape:window-x="0"
     inkscape:window-y="0"
     inkscape:window-maximized="1"
     inkscape:current-layer="g178"
     width="2000px" />
  <defs
     id="defs2">
    <rect
       x="1443.0721"
       y="39.982376"
       width="235.68906"
       height="103.2741"
       id="rect3639" />
    <rect
       x="1443.0721"
       y="39.982376"
       width="235.68906"
       height="103.2741"
       id="rect3639-6" />
    <rect
       x="1443.0721"
       y="39.982376"
       width="235.68906"
       height="103.2741"
       id="rect27185" />
    <rect
       x="1443.0721"
       y="39.982376"
       width="235.68906"
       height="103.2741"
       id="rect27185-7" />
    <rect
       x="1443.0721"
       y="39.982376"
       width="235.68906"
       height="103.2741"
       id="rect27185-6" />
    <rect
       x="1443.0721"
       y="39.982376"
       width="235.68906"
       height="103.2741"
       id="rect27185-7-35" />
    <rect
       x="1443.0721"
       y="39.982376"
       width="235.68906"
       height="103.2741"
       id="rect27185-7-5" />
    <rect
       x="1443.0721"
       y="39.982376"
       width="235.68906"
       height="103.2741"
       id="rect27185-7-5-6" />
    <rect
       x="1443.0721"
       y="39.982376"
       width="235.68906"
       height="103.2741"
       id="rect3639-7" />
    <rect
       x="1443.0721"
       y="39.982376"
       width="235.68906"
       height="103.2741"
       id="rect27598" />
    <rect
       x="1443.0721"
       y="39.982376"
       width="235.68906"
       height="103.2741"
       id="rect3639-70" />
    <rect
       x="1443.0721"
       y="39.982376"
       width="235.68906"
       height="103.2741"
       id="rect3639-6-9" />
    <rect
       x="1443.0721"
       y="39.982376"
       width="235.68906"
       height="103.2741"
       id="rect27185-3" />
    <rect
       x="1443.0721"
       y="39.982376"
       width="235.68906"
       height="103.2741"
       id="rect27185-7-60" />
    <rect
       x="1443.0721"
       y="39.982376"
       width="235.68906"
       height="103.2741"
       id="rect27185-6-6" />
    <rect
       x="1443.0721"
       y="39.982376"
       width="235.68906"
       height="103.2741"
       id="rect27185-7-35-2" />
    <rect
       x="1443.0721"
       y="39.982376"
       width="235.68906"
       height="103.2741"
       id="rect27185-7-5-61" />
    <rect
       x="1443.0721"
       y="39.982376"
       width="235.68906"
       height="103.2741"
       id="rect27185-7-5-6-8" />
  </defs>
  <g
     transform="matrix(2.5215541,0,0,2.5215541,54.394676,7.6251796)"
     id="g178">
    <path
       fill="none"
       stroke="#50e2e2"
       paint-order="fill stroke markers"
       d="M 31.189802,532.84054 151.15506,350.88959"
       stroke-opacity="1"
       stroke-linejoin="round"
       stroke-miterlimit="10"
       stroke-width="4.41663"
       id="path4" />
    <path
       fill="#50e2e2"
       stroke="none"
       paint-order="stroke fill markers"
       d="m 89.468697,456.08339 1.703713,-14.21832 -12.396889,7.16801 z"
       fill-opacity="1"
       id="path6"
       style="stroke-width:1.47221" />
    <path
       fill="none"
       stroke="#e28150"
       paint-order="fill stroke markers"
       d="m 181.75347,327.39081 q 48.65252,-20.37008 97.1322,0.408"
       stroke-opacity="1"
       stroke-linejoin="round"
       stroke-miterlimit="10"
       stroke-width="4.36237"
       id="path8" />
    <path
       fill="#e28150"
       stroke="none"
       paint-order="stroke fill markers"
       d="m 217.68544,323.58 12.67734,-6.27222 -12.62419,-6.37853 z"
       fill-opacity="1"
       id="path10"
       style="stroke-width:1.45412" />
    <path
       fill="none"
       stroke="#50e2e2"
       paint-order="fill stroke markers"
       d="M 38.815157,394.2389 143.52968,342.27022"
       stroke-opacity="1"
       stroke-linejoin="round"
       stroke-miterlimit="10"
       stroke-width="4.41663"
       id="path16" />
    <path
       fill="#50e2e2"
       stroke="none"
       paint-order="stroke fill markers"
       d="m 82.54637,379.68499 8.62604,-11.43042 -14.319972,-0.0425 z"
       fill-opacity="1"
       id="path18"
       style="stroke-width:1.47221" />
    <path
       fill="none"
       stroke="#50e2e2"
       paint-order="fill stroke markers"
       d="m 40.939553,334.13515 98.884587,1.37595"
       stroke-opacity="1"
       stroke-linejoin="round"
       stroke-miterlimit="10"
       stroke-width="4.36237"
       id="path20" />
    <path
       fill="#50e2e2"
       stroke="none"
       paint-order="stroke fill markers"
       d="m 77.64419,340.97193 12.737653,-6.14881 -12.561637,-6.50084 z"
       fill-opacity="1"
       id="path22"
       style="stroke-width:1.45412" />
    <path
       fill="none"
       stroke="#50e2e2"
       paint-order="fill stroke markers"
       d="M 28.804721,605.08349 153.54014,352.25715"
       stroke-opacity="1"
       stroke-linejoin="round"
       stroke-miterlimit="10"
       stroke-width="4.41663"
       id="path24" />
    <path
       fill="#50e2e2"
       stroke="none"
       paint-order="stroke fill markers"
       d="m 91.248635,492.99016 -0.07623,-14.31984 -11.41013,8.65288 z"
       fill-opacity="1"
       id="path26"
       style="stroke-width:1.47221" />
    <path
       fill="none"
       stroke="#50e2e2"
       paint-order="fill stroke markers"
       d="M 34.290746,204.10067 146.47296,320.13328"
       stroke-opacity="1"
       stroke-linejoin="round"
       stroke-miterlimit="10"
       stroke-width="4.36237"
       id="path28" />
    <path
       fill="#50e2e2"
       stroke="none"
       paint-order="stroke fill markers"
       d="m 77.040931,257.41849 13.340912,4.69849 -4.245763,-13.49182 z"
       fill-opacity="1"
       id="path30"
       style="stroke-width:1.45412" />
    <path
       fill="none"
       stroke="#50e2e2"
       paint-order="fill stroke markers"
       d="M 28.674851,62.619625 152.08887,316.2021"
       stroke-opacity="1"
       stroke-linejoin="round"
       stroke-miterlimit="10"
       stroke-width="4.36237"
       id="path32" />
    <path
       fill="#50e2e2"
       stroke="none"
       paint-order="stroke fill markers"
       d="m 79.15811,180.80366 11.223733,8.60717 0.151498,-14.14329 z"
       fill-opacity="1"
       id="path34"
       style="stroke-width:1.45412" />
    <path
       fill="none"
       stroke="#50e2e2"
       paint-order="fill stroke markers"
       d="M 30.984148,134.02262 149.77957,317.50525"
       stroke-opacity="1"
       stroke-linejoin="round"
       stroke-miterlimit="10"
       stroke-width="4.36237"
       id="path36" />
    <path
       fill="#50e2e2"
       stroke="none"
       paint-order="stroke fill markers"
       d="m 78.196627,218.58225 12.185216,7.18166 -1.565805,-14.05717 z"
       fill-opacity="1"
       id="path38"
       style="stroke-width:1.45412" />
    <path
       fill="none"
       stroke="#50e2e2"
       paint-order="fill stroke markers"
       d="M 38.448984,271.25107 142.31472,325.68904"
       stroke-opacity="1"
       stroke-linejoin="round"
       stroke-miterlimit="10"
       stroke-width="4.36237"
       id="path40" />
    <path
       fill="#50e2e2"
       stroke="none"
       paint-order="stroke fill markers"
       d="m 76.240323,298.1998 14.14152,0.27025 -8.26871,-11.47537 z"
       fill-opacity="1"
       id="path42"
       style="stroke-width:1.45412" />
    <path
       fill="none"
       stroke="#50e2e2"
       paint-order="fill stroke markers"
       d="M 34.598644,462.00094 147.7462,348.11869"
       stroke-opacity="1"
       stroke-linejoin="round"
       stroke-miterlimit="10"
       stroke-width="4.41663"
       id="path44" />
    <path
       fill="#50e2e2"
       stroke="none"
       paint-order="stroke fill markers"
       d="m 86.688005,418.65958 4.484405,-13.59976 -13.570452,4.57232 z"
       fill-opacity="1"
       id="path46"
       style="stroke-width:1.47221" />
    <path
       fill="none"
       stroke="#50e2e2"
       paint-order="fill stroke markers"
       d="m 280.09759,344.65468 q -49.28973,20.63687 -98.40436,-0.41334"
       stroke-opacity="1"
       stroke-linejoin="round"
       stroke-miterlimit="10"
       stroke-width="4.4195"
       id="path48" />
    <path
       fill="#50e2e2"
       stroke="none"
       paint-order="stroke fill markers"
       d="m 242.88221,348.62586 -12.67734,6.27223 12.62419,6.37852 z"
       fill-opacity="1"
       id="path50"
       style="stroke-width:1.45412" />
    <path
       fill="none"
       stroke="#50e2e2"
       paint-order="fill stroke markers"
       d="m 316.18843,344.38765 q 53.27946,20.39323 106.14445,-0.99351"
       stroke-opacity="1"
       stroke-linejoin="round"
       stroke-miterlimit="10"
       stroke-width="4.42618"
       id="path52" />
    <path
       fill="#50e2e2"
       stroke="none"
       paint-order="stroke fill markers"
       d="m 358.29124,360.78292 12.58934,-6.44704 -12.71123,-6.20324 z"
       fill-opacity="1"
       id="path54"
       style="stroke-width:1.45412" />
    <path
       fill="none"
       stroke="#e28150"
       paint-order="fill stroke markers"
       d="m 422.17504,327.01189 q -51.75426,-20.39323 -103.10591,0.9935"
       stroke-opacity="1"
       stroke-linejoin="round"
       stroke-miterlimit="10"
       stroke-width="4.36237"
       id="path56" />
    <path
       fill="#e28150"
       stroke="none"
       paint-order="stroke fill markers"
       d="m 383.11077,310.61662 -12.58933,6.44704 12.71123,6.20324 z"
       fill-opacity="1"
       id="path58"
       style="stroke-width:1.45412" />
    <path
       fill="none"
       stroke="#e28150"
       paint-order="fill stroke markers"
       d="m 462.63185,326.6904 q 49.2649,-20.32263 98.26671,0.62641"
       stroke-opacity="1"
       stroke-linejoin="round"
       stroke-miterlimit="10"
       stroke-width="4.36237"
       id="path60" />
    <path
       fill="#e28150"
       stroke="none"
       paint-order="stroke fill markers"
       d="m 499.14005,322.93035 12.69093,-6.24466 -12.6103,-6.40595 z"
       fill-opacity="1"
       id="path62"
       style="stroke-width:1.45412" />
    <path
       fill="none"
       stroke="#50e2e2"
       paint-order="fill stroke markers"
       d="M 319.83372,401.57554 423.29848,345.41381"
       stroke-opacity="1"
       stroke-linejoin="round"
       stroke-miterlimit="10"
       stroke-width="4.36237"
       id="path64" />
    <path
       fill="#50e2e2"
       stroke="none"
       paint-order="stroke fill markers"
       d="m 363.46523,385.08913 8.10086,-11.59447 -14.13608,0.476 z"
       fill-opacity="1"
       id="path66"
       style="stroke-width:1.45412" />
    <path
       fill="none"
       stroke="#50e2e2"
       paint-order="fill stroke markers"
       d="m 316.78491,264.21762 106.67874,60.08635"
       stroke-opacity="1"
       stroke-linejoin="round"
       stroke-miterlimit="10"
       stroke-width="4.36237"
       id="path68" />
    <path
       fill="#50e2e2"
       stroke="none"
       paint-order="stroke fill markers"
       d="m 355.99737,293.56367 14.1269,0.69713 -7.91842,-11.71981 z"
       fill-opacity="1"
       id="path70"
       style="stroke-width:1.45412" />
    <path
       fill="none"
       stroke="#50e2e2"
       paint-order="fill stroke markers"
       d="m 560.79089,344.20886 q -49.26492,20.32263 -98.26672,-0.62641"
       stroke-opacity="1"
       stroke-linejoin="round"
       stroke-miterlimit="10"
       stroke-width="4.36237"
       id="path72" />
    <path
       fill="#50e2e2"
       stroke="none"
       paint-order="stroke fill markers"
       d="m 524.28269,347.96892 -12.69093,6.24466 12.61028,6.40594 z"
       fill-opacity="1"
       id="path74"
       style="stroke-width:1.45412" />
    <path
       fill="none"
       stroke="#50e2e2"
       paint-order="fill stroke markers"
       d="m 601.34841,343.6395 q 60.31676,22.47959 121.27755,1.74264"
       stroke-opacity="1"
       stroke-linejoin="round"
       stroke-miterlimit="10"
       stroke-width="4.396"
       id="path76" />
    <path
       fill="#50e2e2"
       stroke="none"
       paint-order="stroke fill markers"
       d="m 648.07503,361.46292 12.74206,-6.13966 -12.55696,-6.50986 z"
       fill-opacity="1"
       id="path78"
       style="stroke-width:1.45412" />
    <path
       fill="none"
       stroke="#e28150"
       paint-order="fill stroke markers"
       d="M 720.82175,330.49621 Q 661.50982,307.98426 601.56459,328.75107"
       stroke-opacity="1"
       stroke-linejoin="round"
       stroke-miterlimit="10"
       stroke-width="4.36237"
       id="path80" />
    <path
       fill="#e28150"
       stroke="none"
       paint-order="stroke fill markers"
       d="m 674.09357,312.6643 -12.74207,6.13965 12.55696,6.50986 z"
       fill-opacity="1"
       id="path82"
       style="stroke-width:1.45412" />
    <path
       fill="none"
       stroke="#50e2e2"
       paint-order="fill stroke markers"
       d="M 601.37663,403.40909 725.02102,344.01548"
       stroke-opacity="1"
       stroke-linejoin="round"
       stroke-miterlimit="10"
       stroke-width="4.48139"
       id="path84" />
    <path
       fill="#50e2e2"
       stroke="none"
       paint-order="stroke fill markers"
       d="m 652.70807,387.76816 8.6646,-11.17947 -14.14234,-0.22398 z"
       fill-opacity="1"
       id="path86"
       style="stroke-width:1.45412" />
    <path
       fill="none"
       stroke="#50e2e2"
       paint-order="fill stroke markers"
       d="M 597.84013,271.40013 721.44481,329.0204"
       stroke-opacity="1"
       stroke-linejoin="round"
       stroke-miterlimit="10"
       stroke-width="4.36237"
       id="path88" />
    <path
       fill="#50e2e2"
       stroke="none"
       paint-order="stroke fill markers"
       d="m 645.50369,300.59822 14.13879,-0.38796 -8.79363,-11.07825 z"
       fill-opacity="1"
       id="path90"
       style="stroke-width:1.45412" />
    <path
       fill="none"
       stroke="#50e2e2"
       paint-order="fill stroke markers"
       d="M 596.00417,480.41894 729.20856,349.98986"
       stroke-opacity="1"
       stroke-linejoin="round"
       stroke-miterlimit="10"
       stroke-width="4.48139"
       id="path92" />
    <path
       fill="#50e2e2"
       stroke="none"
       paint-order="stroke fill markers"
       d="m 656.18218,430.34931 4.61375,-13.37044 -13.46461,4.33125 z"
       fill-opacity="1"
       id="path94"
       style="stroke-width:1.45412" />
    <path
       fill="#e2e250"
       stroke="none"
       paint-order="stroke fill markers"
       d="m 183.44575,333.43509 -0.0672,1.71133 -0.20131,1.70079 -0.33411,1.67976 -0.46489,1.64835 -0.59279,1.6068 -0.71701,1.55533 -0.83685,1.49429 -0.9515,1.42403 -1.06029,1.34498 -1.16256,1.25764 -1.25764,1.16256 -1.34497,1.06029 -1.42403,0.9515 -1.49428,0.83684 -1.55535,0.71702 -1.6068,0.59278 -1.64835,0.46489 -1.67975,0.33412 -1.70078,0.20131 -1.71135,0.0672 -1.71134,-0.0672 -1.70079,-0.20131 -1.67974,-0.33412 -1.64836,-0.46489 -1.6068,-0.59278 -1.55534,-0.71702 -1.49429,-0.83684 -1.42403,-0.9515 -1.34498,-1.06029 -1.25764,-1.16256 -1.16256,-1.25764 -1.06031,-1.34498 -0.95149,-1.42403 -0.83685,-1.49429 -0.71701,-1.55533 -0.59279,-1.6068 -0.46489,-1.64835 -0.33413,-1.67976 -0.20129,-1.70079 -0.0672,-1.71133 0.0672,-1.71134 0.20129,-1.70079 0.33413,-1.67974 0.46489,-1.64836 0.59279,-1.60681 0.71701,-1.55533 0.83685,-1.49429 0.95149,-1.42402 1.06031,-1.34498 1.16256,-1.25765 1.25764,-1.16254 1.34498,-1.06031 1.42403,-0.9515 1.49429,-0.83683 1.55534,-0.71703 1.6068,-0.59278 1.64836,-0.46488 1.67974,-0.33413 1.70079,-0.20129 1.71134,-0.0672 1.71135,0.0672 1.70078,0.20129 1.67975,0.33413 1.64835,0.46488 1.6068,0.59278 1.55535,0.71703 1.49428,0.83683 1.42403,0.9515 1.34497,1.06031 1.25764,1.16254 1.16256,1.25765 1.06029,1.34498 0.9515,1.42402 0.83685,1.49429 0.71701,1.55533 0.59279,1.60681 0.46489,1.64836 0.33411,1.67974 0.20131,1.70079 z"
       fill-opacity="1"
       id="path96"
       style="stroke-width:1.45412" />
    <text
       fill="#000000"
       stroke="none"
       font-family="'Helvetica Neue', Helvetica, sans-serif"
       font-size="11.633px"
       font-style="normal"
       font-weight="normal"
       text-decoration="normal"
       x="161.63391"
       y="314.00284"
       text-anchor="middle"
       dominant-baseline="text-after-edge"
       fill-opacity="1"
       id="text98"
       style="stroke-width:1.45412">Assembly</text>
    <path
       fill="#81e250"
       stroke="none"
       paint-order="stroke fill markers"
       d="m 464.28011,334.21507 -0.0672,1.71135 -0.20131,1.70078 -0.33413,1.67975 -0.46488,1.64836 -0.59277,1.60681 -0.71703,1.55533 -0.83683,1.49428 -0.95151,1.42402 -1.06029,1.34498 -1.16256,1.25766 -1.25764,1.16254 -1.34499,1.0603 -1.42402,0.95151 -1.49429,0.83683 -1.55533,0.71703 -1.6068,0.59277 -1.64835,0.46488 -1.67976,0.33413 -1.70079,0.2013 -1.71133,0.0672 -1.71134,-0.0672 -1.70078,-0.2013 -1.67975,-0.33413 -1.64836,-0.46488 -1.60681,-0.59277 -1.55533,-0.71703 -1.49428,-0.83683 -1.42403,-0.95151 -1.34499,-1.0603 -1.25764,-1.16254 -1.16254,-1.25766 -1.0603,-1.34498 -0.95151,-1.42402 -0.83683,-1.49428 -0.71703,-1.55533 -0.59277,-1.60681 -0.46489,-1.64836 -0.33413,-1.67975 -0.20129,-1.70078 -0.0672,-1.71135 0.0672,-1.71133 0.20129,-1.70078 0.33413,-1.67976 0.46489,-1.64835 0.59277,-1.60681 0.71703,-1.55533 0.83683,-1.49428 0.95151,-1.42402 1.0603,-1.345 1.16254,-1.25764 1.25764,-1.16255 1.34499,-1.06029 1.42403,-0.95151 1.49428,-0.83683 1.55533,-0.71703 1.60681,-0.59277 1.64836,-0.46488 1.67975,-0.33413 1.70078,-0.20131 1.71134,-0.0672 1.71133,0.0672 1.70079,0.20131 1.67976,0.33413 1.64835,0.46488 1.6068,0.59277 1.55533,0.71703 1.49429,0.83683 1.42402,0.95151 1.34499,1.06029 1.25764,1.16255 1.16256,1.25764 1.06029,1.345 0.95151,1.42402 0.83683,1.49428 0.71703,1.55533 0.59277,1.60681 0.46488,1.64835 0.33413,1.67976 0.20131,1.70078 z"
       fill-opacity="1"
       id="path100"
       style="stroke-width:1.45412" />
    <text
       fill="#000000"
       stroke="none"
       font-family="'Helvetica Neue', Helvetica, sans-serif"
       font-size="11.633px"
       font-style="normal"
       font-weight="normal"
       text-decoration="normal"
       x="442.46844"
       y="313.19653"
       text-anchor="middle"
       dominant-baseline="text-after-edge"
       fill-opacity="1"
       id="text102"
       style="stroke-width:1.45412">Transformation</text>
    <path
       fill="#50e281"
       stroke="none"
       paint-order="stroke fill markers"
       d="m 763.02598,333.47722 -0.0672,1.71133 -0.20131,1.70079 -0.33413,1.67975 -0.46488,1.64836 -0.59277,1.6068 -0.71703,1.55533 -0.83684,1.49429 -0.9515,1.42403 -1.06029,1.34498 -1.16256,1.25764 -1.25764,1.16256 -1.34499,1.06029 -1.42402,0.9515 -1.49429,0.83684 -1.55533,0.71702 -1.6068,0.59278 -1.64835,0.46489 -1.67976,0.33412 -1.70079,0.20131 -1.71133,0.0672 -1.71134,-0.0672 -1.70078,-0.20131 -1.67975,-0.33412 -1.64836,-0.46489 -1.60681,-0.59278 -1.55533,-0.71702 -1.49429,-0.83684 -1.42402,-0.9515 -1.34497,-1.06029 -1.25766,-1.16256 -1.16254,-1.25764 -1.06031,-1.34498 -0.9515,-1.42403 -0.83683,-1.49429 -0.71703,-1.55533 -0.59278,-1.6068 -0.46488,-1.64836 -0.33413,-1.67975 -0.20129,-1.70079 -0.0672,-1.71133 0.0672,-1.71134 0.20129,-1.70079 0.33413,-1.67974 0.46488,-1.64837 0.59278,-1.6068 0.71703,-1.55533 0.83683,-1.49429 0.9515,-1.42402 1.06031,-1.34498 1.16254,-1.25765 1.25766,-1.16254 1.34497,-1.06031 1.42402,-0.9515 1.49429,-0.83684 1.55533,-0.71702 1.60681,-0.59278 1.64836,-0.46488 1.67975,-0.33413 1.70078,-0.20129 1.71134,-0.0672 1.71133,0.0672 1.70079,0.20129 1.67976,0.33413 1.64835,0.46488 1.6068,0.59278 1.55533,0.71702 1.49429,0.83684 1.42402,0.9515 1.34499,1.06031 1.25764,1.16254 1.16256,1.25765 1.06029,1.34498 0.9515,1.42402 0.83684,1.49429 0.71703,1.55533 0.59277,1.6068 0.46488,1.64837 0.33413,1.67974 0.20131,1.70079 z"
       fill-opacity="1"
       id="path104"
       style="stroke-width:1.45412" />
    <text
       fill="#000000"
       stroke="none"
       font-family="'Helvetica Neue', Helvetica, sans-serif"
       font-size="11.633px"
       font-style="normal"
       font-weight="normal"
       text-decoration="normal"
       x="741.21429"
       y="316.42444"
       text-anchor="middle"
       dominant-baseline="text-after-edge"
       fill-opacity="1"
       id="text106"
       style="stroke-width:1.45412">Validation</text>
    <path
       fill="#e28150"
       stroke="none"
       paint-order="stroke fill markers"
       d="m 40.941665,551.95011 -0.06724,1.71134 -0.201302,1.70078 -0.334122,1.67975 -0.464885,1.64835 -0.59278,1.60681 -0.717021,1.55534 -0.836842,1.49429 -0.951501,1.42402 -1.060297,1.34497 -1.162552,1.25765 -1.257643,1.16255 -1.34498,1.06029 -1.424024,0.95151 -1.494287,0.83684 -1.555338,0.71702 -1.6068,0.59279 -1.648358,0.46488 -1.679749,0.33413 -1.700787,0.20129 -1.711336,0.0672 -1.711336,-0.0672 -1.700786,-0.20129 -1.679748,-0.33413 -1.648357,-0.46488 -1.606799,-0.59279 -1.5553379,-0.71702 -1.4942861,-0.83684 -1.4240236,-0.95151 -1.3449787,-1.06029 -1.257643,-1.16255 -1.1625535,-1.25765 -1.0602961,-1.34497 -0.95150183,-1.42402 -0.83684089,-1.49429 -0.71702098,-1.55534 -0.5927801,-1.60681 -0.4648847,-1.64841 -0.3341228,-1.67974 -0.2013014,-1.70079 -0.067239,-1.71134 0.067239,-1.71134 0.2013014,-1.70079 0.3341228,-1.67974 0.4648847,-1.64835 0.5927801,-1.60681 0.71702098,-1.55535 0.83684089,-1.49428 0.95150183,-1.42402 1.0602961,-1.34498 1.1625535,-1.25764 1.257643,-1.16256 1.3449787,-1.06029 1.4240236,-0.9515 1.4942861,-0.83685 1.5553379,-0.71701 1.606799,-0.59279 1.648357,-0.46488 1.679748,-0.33413 1.700786,-0.2013 1.711336,-0.0672 1.711336,0.0672 1.700787,0.2013 1.679749,0.33413 1.648358,0.46488 1.6068,0.59279 1.555338,0.71701 1.494287,0.83685 1.424024,0.9515 1.34498,1.06029 1.257643,1.16256 1.162552,1.25764 1.060297,1.34498 0.951501,1.42402 0.836842,1.49428 0.717021,1.55535 0.59278,1.60681 0.464885,1.64835 0.334122,1.67974 0.201302,1.70079 z"
       fill-opacity="1"
       id="path108"
       style="stroke-width:1.45412" />
    <text
       fill="#000000"
       stroke="none"
       font-family="'Helvetica Neue', Helvetica, sans-serif"
       font-size="11.633px"
       font-style="normal"
       font-weight="normal"
       text-decoration="normal"
       x="35.276791"
       y="528.98468"
       text-anchor="middle"
       dominant-baseline="text-after-edge"
       fill-opacity="1"
       id="text110"
       style="stroke-width:1.45412">restriction-enzyme</text>
    <path
       fill="#e28150"
       stroke="none"
       paint-order="stroke fill markers"
       d="m 40.941665,406.53782 -0.06724,1.71134 -0.201302,1.70079 -0.334122,1.67974 -0.464885,1.64835 -0.59278,1.60681 -0.717021,1.55534 -0.836842,1.49429 -0.951501,1.42402 -1.060297,1.34498 -1.162552,1.25764 -1.257643,1.16255 -1.34498,1.06029 -1.424024,0.95151 -1.494287,0.83685 -1.555338,0.71701 -1.6068,0.59279 -1.648358,0.46488 -1.679749,0.33413 -1.700787,0.20129 -1.711336,0.0672 -1.711336,-0.0672 -1.700786,-0.20129 -1.679748,-0.33413 -1.648357,-0.46488 -1.606799,-0.59279 -1.5553379,-0.71701 -1.4942861,-0.83685 -1.4240236,-0.95151 -1.3449787,-1.06029 -1.257643,-1.16255 -1.1625535,-1.25764 -1.0602961,-1.34498 -0.95150183,-1.42402 -0.83684089,-1.49429 -0.71702098,-1.55534 -0.5927801,-1.60681 -0.4648847,-1.64841 -0.3341228,-1.67974 -0.2013014,-1.70079 -0.067239,-1.71134 0.067239,-1.71134 0.2013014,-1.70079 0.3341228,-1.67974 0.4648847,-1.64835 0.5927801,-1.60681 0.71702098,-1.55534 0.83684089,-1.49429 0.95150183,-1.42402 1.0602961,-1.34498 1.1625535,-1.25764 1.257643,-1.16256 1.3449787,-1.06029 1.4240236,-0.9515 1.4942861,-0.83685 1.5553379,-0.71701 1.606799,-0.59279 1.648357,-0.46488 1.679748,-0.33413 1.700786,-0.2013 1.711336,-0.0672 1.711336,0.0672 1.700787,0.2013 1.679749,0.33413 1.648358,0.46488 1.6068,0.59279 1.555338,0.71701 1.494287,0.83685 1.424024,0.9515 1.34498,1.06029 1.257643,1.16256 1.162552,1.25764 1.060297,1.34498 0.951501,1.42402 0.836842,1.49429 0.717021,1.55534 0.59278,1.60681 0.464885,1.64835 0.334122,1.67974 0.201302,1.70079 z"
       fill-opacity="1"
       id="path116"
       style="stroke-width:1.45412" />
    <text
       fill="#000000"
       stroke="none"
       font-family="'Helvetica Neue', Helvetica, sans-serif"
       font-size="11.633px"
       font-style="normal"
       font-weight="normal"
       text-decoration="normal"
       x="19.129833"
       y="384.72577"
       text-anchor="middle"
       dominant-baseline="text-after-edge"
       fill-opacity="1"
       id="text118"
       style="stroke-width:1.45412">elution-buffer</text>
    <path
       fill="#e28150"
       stroke="none"
       paint-order="stroke fill markers"
       d="m 40.941665,333.83167 -0.06724,1.71135 -0.201302,1.70078 -0.334122,1.67975 -0.464885,1.64835 -0.59278,1.6068 -0.717021,1.55535 -0.836842,1.49428 -0.951501,1.42402 -1.060297,1.34498 -1.162552,1.25764 -1.257643,1.16256 -1.34498,1.06029 -1.424024,0.9515 -1.494287,0.83685 -1.555338,0.71701 -1.6068,0.59279 -1.648358,0.46488 -1.679749,0.33413 -1.700787,0.2013 -1.711336,0.0672 -1.711336,-0.0672 -1.700786,-0.2013 -1.679748,-0.33413 -1.648357,-0.46488 -1.606799,-0.59279 -1.5553379,-0.71701 -1.4942861,-0.83685 -1.4240236,-0.9515 -1.3449787,-1.06029 -1.257643,-1.16256 -1.1625535,-1.25764 -1.0602961,-1.34498 -0.95150183,-1.42402 -0.83684089,-1.49428 -0.71702098,-1.55535 -0.5927801,-1.6068 -0.4648847,-1.64841 -0.3341228,-1.67975 -0.2013014,-1.70078 -0.067239,-1.71135 0.067239,-1.71134 0.2013014,-1.70078 0.3341228,-1.67975 0.4648847,-1.64835 0.5927801,-1.6068 0.71702098,-1.55535 0.83684089,-1.49428 0.95150183,-1.42403 1.0602961,-1.34497 1.1625535,-1.25765 1.257643,-1.16255 1.3449787,-1.06029 1.4240236,-0.95151 1.4942861,-0.83684 1.5553379,-0.71702 1.606799,-0.59278 1.648357,-0.46489 1.679748,-0.33413 1.700786,-0.20129 1.711336,-0.0672 1.711336,0.0672 1.700787,0.20129 1.679749,0.33413 1.648358,0.46489 1.6068,0.59278 1.555338,0.71702 1.494287,0.83684 1.424024,0.95151 1.34498,1.06029 1.257643,1.16255 1.162552,1.25765 1.060297,1.34497 0.951501,1.42403 0.836842,1.49428 0.717021,1.55535 0.59278,1.6068 0.464885,1.64835 0.334122,1.67975 0.201302,1.70078 z"
       fill-opacity="1"
       id="path120"
       style="stroke-width:1.45412" />
    <text
       fill="#000000"
       stroke="none"
       font-family="'Helvetica Neue', Helvetica, sans-serif"
       font-size="11.633px"
       font-style="normal"
       font-weight="normal"
       text-decoration="normal"
       x="19.129833"
       y="312.01996"
       text-anchor="middle"
       dominant-baseline="text-after-edge"
       fill-opacity="1"
       id="text122"
       style="stroke-width:1.45412">gBlock-nor</text>
    <path
       fill="#e28150"
       stroke="none"
       paint-order="stroke fill markers"
       d="m 40.941665,624.65625 -0.06724,1.71134 -0.201302,1.70079 -0.334122,1.67974 -0.464885,1.64835 -0.59278,1.60681 -0.717021,1.55534 -0.836842,1.49429 -0.951501,1.42402 -1.060297,1.34498 -1.162552,1.25764 -1.257643,1.16256 -1.34498,1.06029 -1.424024,0.9515 -1.494287,0.83685 -1.555338,0.71701 -1.6068,0.59279 -1.648358,0.46488 -1.679749,0.33413 -1.700787,0.2013 -1.711336,0.0672 -1.711336,-0.0672 -1.700786,-0.2013 -1.679748,-0.33413 -1.648357,-0.46488 -1.606799,-0.59279 -1.5553379,-0.71701 -1.4942861,-0.83685 -1.4240236,-0.9515 -1.3449787,-1.06029 -1.257643,-1.16256 -1.1625535,-1.25764 -1.0602961,-1.34498 -0.95150183,-1.42402 -0.83684089,-1.49429 -0.71702098,-1.55534 -0.5927801,-1.60681 -0.4648847,-1.6484 -0.3341228,-1.67975 -0.2013014,-1.70078 -0.067239,-1.71135 0.067239,-1.71134 0.2013014,-1.70079 0.3341228,-1.67974 0.4648847,-1.64835 0.5927801,-1.60681 0.71702098,-1.55534 0.83684089,-1.49429 0.95150183,-1.42402 1.0602961,-1.34498 1.1625535,-1.25764 1.257643,-1.16255 1.3449787,-1.06029 1.4240236,-0.95151 1.4942861,-0.83684 1.5553379,-0.71702 1.606799,-0.59279 1.648357,-0.46488 1.679748,-0.33413 1.700786,-0.20129 1.711336,-0.0672 1.711336,0.0672 1.700787,0.20129 1.679749,0.33413 1.648358,0.46488 1.6068,0.59279 1.555338,0.71702 1.494287,0.83684 1.424024,0.95151 1.34498,1.06029 1.257643,1.16255 1.162552,1.25764 1.060297,1.34498 0.951501,1.42402 0.836842,1.49429 0.717021,1.55534 0.59278,1.60681 0.464885,1.64835 0.334122,1.67974 0.201302,1.70079 z"
       fill-opacity="1"
       id="path124"
       style="stroke-width:1.45412" />
    <text
       fill="#000000"
       stroke="none"
       font-family="'Helvetica Neue', Helvetica, sans-serif"
       font-size="11.633px"
       font-style="normal"
       font-weight="normal"
       text-decoration="normal"
       x="19.129833"
       y="602.84418"
       text-anchor="middle"
       dominant-baseline="text-after-edge"
       fill-opacity="1"
       id="text126"
       style="stroke-width:1.45412">restriction-buffer</text>
    <path
       fill="#e28150"
       stroke="none"
       paint-order="stroke fill markers"
       d="m 40.941665,188.41938 -0.06724,1.71135 -0.201302,1.70078 -0.334122,1.67975 -0.464885,1.64835 -0.59278,1.6068 -0.717021,1.55535 -0.836842,1.49428 -0.951501,1.42403 -1.060297,1.34497 -1.162552,1.25764 -1.257643,1.16256 -1.34498,1.06029 -1.424024,0.9515 -1.494287,0.83685 -1.555338,0.71701 -1.6068,0.59279 -1.648358,0.46489 -1.679749,0.33412 -1.700787,0.2013 -1.711336,0.0672 -1.711336,-0.0672 -1.700786,-0.2013 -1.679748,-0.33412 -1.648357,-0.46489 -1.606799,-0.59279 -1.5553379,-0.71701 -1.4942861,-0.83685 -1.4240236,-0.9515 -1.3449787,-1.06029 -1.257643,-1.16256 -1.1625535,-1.25764 -1.0602961,-1.34497 -0.95150183,-1.42403 -0.83684089,-1.49428 -0.71702098,-1.55535 -0.5927801,-1.6068 -0.4648847,-1.64841 -0.3341228,-1.67975 -0.2013014,-1.70078 -0.067239,-1.71134 0.067239,-1.71135 0.2013014,-1.70078 0.3341228,-1.67975 0.4648847,-1.64835 0.5927801,-1.6068 0.71702098,-1.55535 0.83684089,-1.49428 0.95150183,-1.42403 1.0602961,-1.34497 1.1625535,-1.25764 1.257643,-1.16256 1.3449787,-1.06029 1.4240236,-0.9515 1.4942861,-0.83685 1.5553379,-0.71702 1.606799,-0.59278 1.648357,-0.46489 1.679748,-0.33413 1.700786,-0.20129 1.711336,-0.0672 1.711336,0.0672 1.700787,0.20129 1.679749,0.33413 1.648358,0.46489 1.6068,0.59278 1.555338,0.71702 1.494287,0.83685 1.424024,0.9515 1.34498,1.06029 1.257643,1.16256 1.162552,1.25764 1.060297,1.34497 0.951501,1.42403 0.836842,1.49428 0.717021,1.55535 0.59278,1.6068 0.464885,1.64835 0.334122,1.67975 0.201302,1.70078 z"
       fill-opacity="1"
       id="path128"
       style="stroke-width:1.45412" />
    <text
       fill="#000000"
       stroke="none"
       font-family="'Helvetica Neue', Helvetica, sans-serif"
       font-size="11.633px"
       font-style="normal"
       font-weight="normal"
       text-decoration="normal"
       x="19.129833"
       y="166.60759"
       text-anchor="middle"
       dominant-baseline="text-after-edge"
       fill-opacity="1"
       id="text130"
       style="stroke-width:1.45412">wash-buffer</text>
    <path
       fill="#e28150"
       stroke="none"
       paint-order="stroke fill markers"
       d="m 40.941665,43.007157 -0.06724,1.711337 -0.201302,1.700787 -0.334122,1.679749 -0.464885,1.648358 -0.59278,1.6068 -0.717021,1.555338 -0.836842,1.494287 -0.951501,1.424024 -1.060297,1.34498 -1.162552,1.257643 -1.257643,1.162552 -1.34498,1.060297 -1.424024,0.951501 -1.494287,0.836842 -1.555338,0.717021 -1.6068,0.59278 -1.648358,0.464885 -1.679749,0.334123 -1.700787,0.201301 -1.711336,0.06724 -1.711335,-0.06724 L 15.7177,64.550461 14.037952,64.216338 12.389595,63.751453 10.782796,63.158673 9.2274581,62.441652 7.733172,61.60481 6.3091484,60.653309 4.9641697,59.593012 3.7065267,58.43046 2.5439732,57.172817 1.4836771,55.827837 0.53217527,54.403813 -0.30466562,52.909526 -1.0216866,51.354188 l -0.5927801,-1.6068 -0.4648847,-1.648358 -0.3341228,-1.679749 -0.2013014,-1.700787 -0.067239,-1.711337 0.067239,-1.711337 0.2013014,-1.700787 0.3341228,-1.679749 0.4648847,-1.648357 0.5927801,-1.6068 0.71702098,-1.555339 0.83684089,-1.494287 0.95150183,-1.424024 1.0602961,-1.344979 1.1625535,-1.257643 1.257643,-1.162554 1.3449787,-1.060297 1.4240236,-0.951503 1.4942861,-0.836842 1.5553379,-0.71702 1.606799,-0.592781 1.648357,-0.464884 1.679748,-0.334124 1.700786,-0.201302 1.711336,-0.06724 1.711336,0.06724 1.700787,0.201302 1.679749,0.334124 1.648358,0.464884 1.6068,0.592781 1.555338,0.71702 1.494287,0.836842 1.424024,0.951503 1.34498,1.060297 1.257643,1.162554 1.162552,1.257643 1.060297,1.344979 0.951501,1.424024 0.836842,1.494287 0.717021,1.555339 0.59278,1.6068 0.464885,1.648357 0.334122,1.679749 0.201302,1.700787 z"
       fill-opacity="1"
       id="path132"
       style="stroke-width:1.45412" />
    <text
       fill="#000000"
       stroke="none"
       font-family="'Helvetica Neue', Helvetica, sans-serif"
       font-size="11.633px"
       font-style="normal"
       font-weight="normal"
       text-decoration="normal"
       x="19.129833"
       y="21.195297"
       text-anchor="middle"
       dominant-baseline="text-after-edge"
       fill-opacity="1"
       id="text134"
       style="stroke-width:1.45412">ligase</text>
    <path
       fill="#e28150"
       stroke="none"
       paint-order="stroke fill markers"
       d="m 40.941665,115.71329 -0.06724,1.71134 -0.201302,1.70078 -0.334122,1.67975 -0.464885,1.64836 -0.59278,1.6068 -0.717021,1.55534 -0.836842,1.49429 -0.951501,1.42402 -1.060297,1.34498 -1.162552,1.25764 -1.257643,1.16255 -1.34498,1.0603 -1.424024,0.9515 -1.494287,0.83684 -1.555338,0.71703 -1.6068,0.59278 -1.648358,0.46488 -1.679749,0.33412 -1.700787,0.2013 -1.711336,0.0672 -1.711336,-0.0672 -1.700786,-0.2013 -1.679748,-0.33412 -1.648357,-0.46488 -1.606799,-0.59278 -1.5553379,-0.71703 -1.4942861,-0.83684 -1.4240236,-0.9515 -1.3449787,-1.0603 -1.257643,-1.16255 -1.1625535,-1.25764 -1.0602961,-1.34498 -0.95150183,-1.42402 -0.83684089,-1.49429 -0.71702098,-1.55534 -0.5927801,-1.6068 -0.4648847,-1.64836 -0.3341228,-1.67975 -0.2013014,-1.70078 -0.067239,-1.71134 0.067239,-1.71134 0.2013014,-1.70078 0.3341228,-1.67975 0.4648847,-1.64836 0.5927801,-1.6068 0.71702098,-1.55534 0.83684089,-1.49428 0.95150183,-1.42402 1.0602961,-1.34498 1.1625535,-1.25764 1.257643,-1.162553 1.3449787,-1.060297 1.4240236,-0.951501 1.4942861,-0.836842 1.5553379,-0.717021 1.606799,-0.59278 1.648357,-0.464885 1.679748,-0.334122 1.700786,-0.201302 1.711336,-0.06724 1.711336,0.06724 1.700787,0.201302 1.679749,0.334122 1.648358,0.464885 1.6068,0.59278 1.555338,0.717021 1.494287,0.836842 1.424024,0.951501 1.34498,1.060297 1.257643,1.162553 1.162552,1.25764 1.060297,1.34498 0.951501,1.42402 0.836842,1.49428 0.717021,1.55534 0.59278,1.6068 0.464885,1.64836 0.334122,1.67975 0.201302,1.70078 z"
       fill-opacity="1"
       id="path136"
       style="stroke-width:1.45412" />
    <text
       fill="#000000"
       stroke="none"
       font-family="'Helvetica Neue', Helvetica, sans-serif"
       font-size="11.633px"
       font-style="normal"
       font-weight="normal"
       text-decoration="normal"
       x="19.129833"
       y="93.901443"
       text-anchor="middle"
       dominant-baseline="text-after-edge"
       fill-opacity="1"
       id="text138"
       style="stroke-width:1.45412">water</text>
    <path
       fill="#e28150"
       stroke="none"
       paint-order="stroke fill markers"
       d="m 40.941665,261.12553 -0.06724,1.71134 -0.201302,1.70079 -0.334122,1.67974 -0.464885,1.64835 -0.59278,1.60681 -0.717021,1.55534 -0.836842,1.49429 -0.951501,1.42402 -1.060297,1.34498 -1.162552,1.25764 -1.257643,1.16255 -1.34498,1.06029 -1.424024,0.95151 -1.494287,0.83685 -1.555338,0.71701 -1.6068,0.59279 -1.648358,0.46488 -1.679749,0.33413 -1.700787,0.20129 -1.711336,0.0672 -1.711336,-0.0672 -1.700786,-0.20129 -1.679748,-0.33413 -1.648357,-0.46488 -1.606799,-0.59279 -1.5553379,-0.71701 -1.4942861,-0.83685 -1.4240236,-0.95151 -1.3449787,-1.06029 -1.257643,-1.16255 -1.1625535,-1.25764 -1.0602961,-1.34498 -0.95150183,-1.42402 -0.83684089,-1.49429 -0.71702098,-1.55534 -0.5927801,-1.60681 -0.4648847,-1.64841 -0.3341228,-1.67974 -0.2013014,-1.70079 -0.067239,-1.71134 0.067239,-1.71134 0.2013014,-1.70079 0.3341228,-1.67974 0.4648847,-1.64835 0.5927801,-1.60681 0.71702098,-1.55534 0.83684089,-1.49429 0.95150183,-1.42402 1.0602961,-1.34498 1.1625535,-1.25764 1.257643,-1.16256 1.3449787,-1.06028 1.4240236,-0.95151 1.4942861,-0.83685 1.5553379,-0.71701 1.606799,-0.59279 1.648357,-0.46488 1.679748,-0.33413 1.700786,-0.20129 1.711336,-0.0672 1.711336,0.0672 1.700787,0.20129 1.679749,0.33413 1.648358,0.46488 1.6068,0.59279 1.555338,0.71701 1.494287,0.83685 1.424024,0.95151 1.34498,1.06028 1.257643,1.16256 1.162552,1.25764 1.060297,1.34498 0.951501,1.42402 0.836842,1.49429 0.717021,1.55534 0.59278,1.60681 0.464885,1.64835 0.334122,1.67974 0.201302,1.70079 z"
       fill-opacity="1"
       id="path140"
       style="stroke-width:1.45412" />
    <text
       fill="#000000"
       stroke="none"
       font-family="'Helvetica Neue', Helvetica, sans-serif"
       font-size="11.633px"
       font-style="normal"
       font-weight="normal"
       text-decoration="normal"
       x="19.129833"
       y="239.3139"
       text-anchor="middle"
       dominant-baseline="text-after-edge"
       fill-opacity="1"
       id="text142"
       style="stroke-width:1.45412">binding-buffer</text>
    <path
       fill="#e28150"
       stroke="none"
       paint-order="stroke fill markers"
       d="m 40.941665,479.24396 -0.06724,1.71134 -0.201302,1.70079 -0.334122,1.67974 -0.464885,1.64836 -0.59278,1.6068 -0.717021,1.55535 -0.836842,1.49428 -0.951501,1.42402 -1.060297,1.34498 -1.162552,1.25764 -1.257643,1.16256 -1.34498,1.06029 -1.424024,0.9515 -1.494287,0.83685 -1.555338,0.71701 -1.6068,0.59279 -1.648358,0.46488 -1.679749,0.33413 -1.700787,0.2013 -1.711336,0.0672 -1.711336,-0.0672 -1.700786,-0.2013 -1.679748,-0.33413 -1.648357,-0.46488 -1.606799,-0.59279 -1.5553379,-0.71701 -1.4942861,-0.83685 -1.4240236,-0.9515 -1.3449787,-1.06029 -1.257643,-1.16256 -1.1625535,-1.25764 -1.0602961,-1.34498 -0.95150183,-1.42402 -0.83684089,-1.49428 -0.71702098,-1.55535 -0.5927801,-1.6068 -0.4648847,-1.64841 -0.3341228,-1.67975 -0.2013014,-1.70078 -0.067239,-1.71135 0.067239,-1.71134 0.2013014,-1.70078 0.3341228,-1.67975 0.4648847,-1.64835 0.5927801,-1.60681 0.71702098,-1.55534 0.83684089,-1.49429 0.95150183,-1.42402 1.0602961,-1.34497 1.1625535,-1.25765 1.257643,-1.16255 1.3449787,-1.06029 1.4240236,-0.95151 1.4942861,-0.83684 1.5553379,-0.71702 1.606799,-0.59279 1.648357,-0.46488 1.679748,-0.33413 1.700786,-0.20129 1.711336,-0.0672 1.711336,0.0672 1.700787,0.20129 1.679749,0.33413 1.648358,0.46488 1.6068,0.59279 1.555338,0.71702 1.494287,0.83684 1.424024,0.95151 1.34498,1.06029 1.257643,1.16255 1.162552,1.25765 1.060297,1.34497 0.951501,1.42402 0.836842,1.49429 0.717021,1.55534 0.59278,1.60681 0.464885,1.64835 0.334122,1.67975 0.201302,1.70078 z"
       fill-opacity="1"
       id="path144"
       style="stroke-width:1.45412" />
    <text
       fill="#000000"
       stroke="none"
       font-family="'Helvetica Neue', Helvetica, sans-serif"
       font-size="11.633px"
       font-style="normal"
       font-weight="normal"
       text-decoration="normal"
       x="19.129833"
       y="457.43188"
       text-anchor="middle"
       dominant-baseline="text-after-edge"
       fill-opacity="1"
       id="text146"
       style="stroke-width:1.45412">plasmid</text>
    <path
       fill="#e28150"
       stroke="none"
       paint-order="stroke fill markers"
       d="m 320.74559,334.01181 -0.0672,1.71135 -0.2013,1.70078 -0.33413,1.67975 -0.46488,1.64836 -0.59277,1.60679 -0.71703,1.55535 -0.83683,1.49428 -0.95151,1.42402 -1.0603,1.34498 -1.16254,1.25764 -1.25766,1.16256 -1.34498,1.0603 -1.42402,0.95151 -1.49428,0.83683 -1.55533,0.71703 -1.60681,0.59277 -1.64836,0.46488 -1.67975,0.33413 -1.70078,0.2013 -1.71135,0.0672 -1.71133,-0.0672 -1.70078,-0.2013 -1.67976,-0.33413 -1.64835,-0.46488 -1.60681,-0.59277 -1.55533,-0.71703 -1.49428,-0.83683 -1.42402,-0.95151 -1.345,-1.0603 -1.25764,-1.16256 -1.16255,-1.25764 -1.06029,-1.34498 -0.95151,-1.42402 -0.83683,-1.49428 -0.71703,-1.55535 -0.59277,-1.60679 -0.46488,-1.64836 -0.33413,-1.67975 -0.20131,-1.70078 -0.0672,-1.71135 0.0672,-1.71133 0.20131,-1.70078 0.33413,-1.67976 0.46488,-1.64835 0.59277,-1.60681 0.71703,-1.55533 0.83683,-1.4943 0.95151,-1.42402 1.06029,-1.34498 1.16255,-1.25764 1.25764,-1.16255 1.345,-1.06029 1.42402,-0.95151 1.49428,-0.83683 1.55533,-0.71703 1.60681,-0.59277 1.64835,-0.4649 1.67976,-0.33411 1.70078,-0.20131 1.71133,-0.0672 1.71135,0.0672 1.70078,0.20131 1.67975,0.33411 1.64836,0.4649 1.60681,0.59277 1.55533,0.71703 1.49428,0.83683 1.42402,0.95151 1.34498,1.06029 1.25766,1.16255 1.16254,1.25764 1.0603,1.34498 0.95151,1.42402 0.83683,1.4943 0.71703,1.55533 0.59277,1.60681 0.46488,1.64835 0.33413,1.67976 0.2013,1.70078 z"
       fill-opacity="1"
       id="path148"
       style="stroke-width:1.45412" />
    <text
       fill="#000000"
       stroke="none"
       font-family="'Helvetica Neue', Helvetica, sans-serif"
       font-size="11.633px"
       font-style="normal"
       font-weight="normal"
       text-decoration="normal"
       x="298.93362"
       y="314.57959"
       text-anchor="middle"
       dominant-baseline="text-after-edge"
       fill-opacity="1"
       id="text150"
       style="stroke-width:1.45412">ligased-dna</text>
    <path
       fill="#e28150"
       stroke="none"
       paint-order="stroke fill markers"
       d="m 322.47578,411.98109 -0.0672,1.71133 -0.2013,1.70079 -0.33413,1.67976 -0.46488,1.64835 -0.59277,1.6068 -0.71703,1.55533 -0.83683,1.4943 -0.95151,1.42403 -1.0603,1.34497 -1.16254,1.25764 -1.25765,1.16256 -1.34499,1.06029 -1.42402,0.9515 -1.49429,0.83684 -1.55533,0.71702 -1.6068,0.59278 -1.64837,0.4649 -1.67974,0.33411 -1.70079,0.20131 -1.71134,0.0672 -1.71133,-0.0672 -1.70078,-0.20131 -1.67976,-0.33411 -1.64835,-0.4649 -1.60681,-0.59278 -1.55533,-0.71702 -1.49428,-0.83684 -1.42403,-0.9515 -1.34499,-1.06029 -1.25764,-1.16256 -1.16256,-1.25764 -1.06028,-1.34497 -0.95151,-1.42403 -0.83683,-1.4943 -0.71703,-1.55533 -0.59277,-1.6068 -0.46489,-1.64835 -0.33413,-1.67976 -0.2013,-1.70079 -0.0672,-1.71133 0.0672,-1.71134 0.2013,-1.70078 0.33413,-1.67975 0.46489,-1.64836 0.59277,-1.6068 0.71703,-1.55534 0.83683,-1.49429 0.95151,-1.42402 1.06028,-1.34497 1.16256,-1.25765 1.25764,-1.16255 1.34499,-1.06031 1.42403,-0.9515 1.49428,-0.83683 1.55533,-0.71703 1.60681,-0.59278 1.64835,-0.46488 1.67976,-0.33413 1.70078,-0.20129 1.71133,-0.0672 1.71134,0.0672 1.70079,0.20129 1.67974,0.33413 1.64837,0.46488 1.6068,0.59278 1.55533,0.71703 1.49429,0.83683 1.42402,0.9515 1.34499,1.06031 1.25765,1.16255 1.16254,1.25765 1.0603,1.34497 0.95151,1.42402 0.83683,1.49429 0.71703,1.55534 0.59277,1.6068 0.46488,1.64836 0.33413,1.67975 0.2013,1.70078 z"
       fill-opacity="1"
       id="path152"
       style="stroke-width:1.45412" />
    <text
       fill="#000000"
       stroke="none"
       font-family="'Helvetica Neue', Helvetica, sans-serif"
       font-size="11.633px"
       font-style="normal"
       font-weight="normal"
       text-decoration="normal"
       x="300.66382"
       y="390.16904"
       text-anchor="middle"
       dominant-baseline="text-after-edge"
       fill-opacity="1"
       id="text154"
       style="stroke-width:1.45412">compotent-cells</text>
    <path
       fill="#e28150"
       stroke="none"
       paint-order="stroke fill markers"
       d="m 319.59213,253.51335 -0.0672,1.71135 -0.20129,1.70078 -0.33413,1.67975 -0.46488,1.64835 -0.59279,1.6068 -0.71701,1.55535 -0.83685,1.49428 -0.95149,1.42403 -1.0603,1.34497 -1.16256,1.25764 -1.25764,1.16256 -1.34498,1.06029 -1.42402,0.9515 -1.49429,0.83685 -1.55534,0.71702 -1.60679,0.59278 -1.64837,0.46489 -1.67974,0.33411 -1.70079,0.20131 -1.71134,0.0672 -1.71134,-0.0672 -1.70079,-0.20131 -1.67974,-0.33411 -1.64835,-0.46489 -1.60681,-0.59278 -1.55534,-0.71702 -1.49429,-0.83685 -1.42402,-0.9515 -1.34498,-1.06029 -1.25764,-1.16256 -1.16256,-1.25764 -1.06029,-1.34497 -0.9515,-1.42403 -0.83685,-1.49428 -0.71701,-1.55535 -0.59279,-1.6068 -0.46488,-1.64835 -0.33412,-1.67975 -0.20131,-1.70078 -0.0672,-1.71135 0.0672,-1.71134 0.20131,-1.70078 0.33412,-1.67975 0.46488,-1.64836 0.59279,-1.60679 0.71701,-1.55535 0.83685,-1.49428 0.9515,-1.42403 1.06029,-1.34497 1.16256,-1.25765 1.25764,-1.16255 1.34498,-1.0603 1.42402,-0.9515 1.49429,-0.83684 1.55534,-0.71702 1.60681,-0.59278 1.64835,-0.46489 1.67974,-0.33413 1.70079,-0.20129 1.71134,-0.0672 1.71134,0.0672 1.70079,0.20129 1.67974,0.33413 1.64837,0.46489 1.60679,0.59278 1.55534,0.71702 1.49429,0.83684 1.42402,0.9515 1.34498,1.0603 1.25764,1.16255 1.16256,1.25765 1.0603,1.34497 0.95149,1.42403 0.83685,1.49428 0.71701,1.55535 0.59279,1.60679 0.46488,1.64836 0.33413,1.67975 0.20129,1.70078 z"
       fill-opacity="1"
       id="path156"
       style="stroke-width:1.45412" />
    <text
       fill="#000000"
       stroke="none"
       font-family="'Helvetica Neue', Helvetica, sans-serif"
       font-size="11.633px"
       font-style="normal"
       font-weight="normal"
       text-decoration="normal"
       x="297.78015"
       y="231.70172"
       text-anchor="middle"
       dominant-baseline="text-after-edge"
       fill-opacity="1"
       id="text158"
       style="stroke-width:1.45412">growth-media</text>
    <path
       fill="#e28150"
       stroke="none"
       paint-order="stroke fill markers"
       d="m 602.76631,334.30471 -0.0672,1.71133 -0.20131,1.7008 -0.33411,1.67974 -0.46489,1.64835 -0.59278,1.60681 -0.71702,1.55534 -0.83684,1.49429 -0.95151,1.42402 -1.06029,1.34498 -1.16256,1.25764 -1.25764,1.16256 -1.34497,1.06029 -1.42403,0.9515 -1.49428,0.83685 -1.55535,0.71701 -1.6068,0.59279 -1.64835,0.46488 -1.67975,0.33412 -1.70078,0.20131 -1.71135,0.0672 -1.71134,-0.0672 -1.70078,-0.20131 -1.67975,-0.33412 -1.64836,-0.46488 -1.60679,-0.59279 -1.55535,-0.71701 -1.49428,-0.83685 -1.42403,-0.9515 -1.34497,-1.06029 -1.25764,-1.16256 -1.16256,-1.25764 -1.0603,-1.34498 -0.9515,-1.42402 -0.83684,-1.49429 -0.71702,-1.55534 -0.59278,-1.60681 -0.46489,-1.64835 -0.33413,-1.67974 -0.20129,-1.7008 -0.0672,-1.71133 0.0672,-1.71134 0.20129,-1.70079 0.33413,-1.67974 0.46489,-1.64837 0.59278,-1.60679 0.71702,-1.55534 0.83684,-1.49429 0.9515,-1.42402 1.0603,-1.34498 1.16256,-1.25764 1.25764,-1.16256 1.34497,-1.0603 1.42403,-0.95149 1.49428,-0.83685 1.55535,-0.71701 1.60679,-0.59279 1.64836,-0.46488 1.67975,-0.33413 1.70078,-0.20129 1.71134,-0.0672 1.71135,0.0672 1.70078,0.20129 1.67975,0.33413 1.64835,0.46488 1.6068,0.59279 1.55535,0.71701 1.49428,0.83685 1.42403,0.95149 1.34497,1.0603 1.25764,1.16256 1.16256,1.25764 1.06029,1.34498 0.95151,1.42402 0.83684,1.49429 0.71702,1.55534 0.59278,1.60679 0.46489,1.64837 0.33411,1.67974 0.20131,1.70079 z"
       fill-opacity="1"
       id="path160"
       style="stroke-width:1.45412" />
    <text
       fill="#000000"
       stroke="none"
       font-family="'Helvetica Neue', Helvetica, sans-serif"
       font-size="11.633px"
       font-style="normal"
       font-weight="normal"
       text-decoration="normal"
       x="580.95465"
       y="314.07928"
       text-anchor="middle"
       dominant-baseline="text-after-edge"
       fill-opacity="1"
       id="text162"
       style="stroke-width:1.45412">culture-plate</text>
    <path
       fill="#e28150"
       stroke="none"
       paint-order="stroke fill markers"
       d="m 603.34304,414.94119 -0.0672,1.71135 -0.2013,1.70078 -0.33413,1.67975 -0.46489,1.64836 -0.59277,1.60679 -0.71703,1.55535 -0.83683,1.49428 -0.95151,1.42403 -1.06028,1.34497 -1.16256,1.25764 -1.25764,1.16256 -1.34499,1.0603 -1.42403,0.95151 -1.49428,0.83683 -1.55533,0.71703 -1.60681,0.59277 -1.64835,0.46489 -1.67976,0.33412 -1.70078,0.2013 -1.71133,0.0672 -1.71134,-0.0672 -1.70079,-0.2013 -1.67974,-0.33412 -1.64837,-0.46489 -1.6068,-0.59277 -1.55533,-0.71703 -1.49429,-0.83683 -1.42402,-0.95151 -1.34499,-1.0603 -1.25765,-1.16256 -1.16254,-1.25764 -1.0603,-1.34497 -0.95151,-1.42403 -0.83683,-1.49428 -0.71703,-1.55535 -0.59277,-1.60679 -0.46488,-1.64836 -0.33413,-1.67975 -0.2013,-1.70078 -0.0672,-1.71135 0.0672,-1.71132 0.2013,-1.70079 0.33413,-1.67976 0.46488,-1.64835 0.59277,-1.60681 0.71703,-1.55533 0.83683,-1.4943 0.95151,-1.42402 1.0603,-1.34497 1.16254,-1.25765 1.25765,-1.16255 1.34499,-1.06029 1.42402,-0.95151 1.49429,-0.83684 1.55533,-0.71702 1.6068,-0.59279 1.64837,-0.46488 1.67974,-0.33411 1.70079,-0.20131 1.71134,-0.0672 1.71133,0.0672 1.70078,0.20131 1.67976,0.33411 1.64835,0.46488 1.60681,0.59279 1.55533,0.71702 1.49428,0.83684 1.42403,0.95151 1.34499,1.06029 1.25764,1.16255 1.16256,1.25765 1.06028,1.34497 0.95151,1.42402 0.83683,1.4943 0.71703,1.55533 0.59277,1.60681 0.46489,1.64835 0.33413,1.67976 0.2013,1.70079 z"
       fill-opacity="1"
       id="path164"
       style="stroke-width:1.45412" />
    <text
       fill="#000000"
       stroke="none"
       font-family="'Helvetica Neue', Helvetica, sans-serif"
       font-size="11.633px"
       font-style="normal"
       font-weight="normal"
       text-decoration="normal"
       x="581.53137"
       y="393.12909"
       text-anchor="middle"
       dominant-baseline="text-after-edge"
       fill-opacity="1"
       id="text166"
       style="stroke-width:1.45412">master-mix</text>
    <path
       fill="#e28150"
       stroke="none"
       paint-order="stroke fill markers"
       d="m 599.88267,262.18435 -0.0672,1.71134 -0.20131,1.70079 -0.33413,1.67974 -0.46488,1.64835 -0.59278,1.60681 -0.71702,1.55534 -0.83684,1.49429 -0.9515,1.42402 -1.06031,1.34498 -1.16254,1.25764 -1.25764,1.16255 -1.34499,1.06029 -1.42402,0.95151 -1.49429,0.83685 -1.55533,0.71701 -1.6068,0.59279 -1.64835,0.46488 -1.67976,0.33411 -1.70079,0.20131 -1.71133,0.0672 -1.71134,-0.0672 -1.70079,-0.20131 -1.67975,-0.33411 -1.64835,-0.46488 -1.60681,-0.59279 -1.55533,-0.71701 -1.49429,-0.83685 -1.42402,-0.95151 -1.34499,-1.06029 -1.25764,-1.16255 -1.16254,-1.25764 -1.06031,-1.34498 -0.9515,-1.42402 -0.83683,-1.49429 -0.71703,-1.55534 -0.59278,-1.60681 -0.46488,-1.64835 -0.33413,-1.67974 -0.20129,-1.70079 -0.0672,-1.71134 0.0672,-1.71134 0.20129,-1.70079 0.33413,-1.67975 0.46488,-1.64836 0.59278,-1.60679 0.71703,-1.55535 0.83683,-1.49428 0.9515,-1.42402 1.06031,-1.34498 1.16254,-1.25764 1.25764,-1.16256 1.34499,-1.0603 1.42402,-0.95149 1.49429,-0.83685 1.55533,-0.71701 1.60681,-0.59279 1.64835,-0.46488 1.67975,-0.33413 1.70079,-0.2013 1.71134,-0.0672 1.71133,0.0672 1.70079,0.2013 1.67976,0.33413 1.64835,0.46488 1.6068,0.59279 1.55533,0.71701 1.49429,0.83685 1.42402,0.95149 1.34499,1.0603 1.25764,1.16256 1.16254,1.25764 1.06031,1.34498 0.9515,1.42402 0.83684,1.49428 0.71702,1.55535 0.59278,1.60679 0.46488,1.64836 0.33413,1.67975 0.20131,1.70079 z"
       fill-opacity="1"
       id="path168"
       style="stroke-width:1.45412" />
    <text
       fill="#000000"
       stroke="none"
       font-family="'Helvetica Neue', Helvetica, sans-serif"
       font-size="11.633px"
       font-style="normal"
       font-weight="normal"
       text-decoration="normal"
       x="578.07098"
       y="240.37271"
       text-anchor="middle"
       dominant-baseline="text-after-edge"
       fill-opacity="1"
       id="text170"
       style="stroke-width:1.45412">forward-primer</text>
    <path
       fill="#e28150"
       stroke="none"
       paint-order="stroke fill markers"
       d="m 602.18958,495.72156 -0.0672,1.71133 -0.2013,1.70078 -0.33413,1.67976 -0.46488,1.64835 -0.59277,1.60681 -0.71703,1.55533 -0.83685,1.4943 -0.95149,1.42402 -1.0603,1.34498 -1.16256,1.25764 -1.25764,1.16256 -1.34498,1.06028 -1.42402,0.95151 -1.49429,0.83683 -1.55534,0.71703 -1.60679,0.59277 -1.64837,0.4649 -1.67974,0.33411 -1.70079,0.20131 -1.71134,0.0672 -1.71133,-0.0672 -1.70078,-0.20131 -1.67976,-0.33411 -1.64835,-0.4649 -1.60681,-0.59277 -1.55534,-0.71703 -1.49429,-0.83683 -1.42402,-0.95151 -1.34498,-1.06028 -1.25764,-1.16256 -1.16256,-1.25764 -1.06028,-1.34498 -0.95151,-1.42402 -0.83685,-1.4943 -0.71701,-1.55533 -0.59279,-1.60681 -0.46488,-1.64835 -0.33412,-1.67976 -0.2013,-1.70078 -0.0672,-1.71133 0.0672,-1.71134 0.2013,-1.70079 0.33412,-1.67974 0.46488,-1.64837 0.59279,-1.60679 0.71701,-1.55534 0.83685,-1.49429 0.95151,-1.42402 1.06028,-1.34498 1.16256,-1.25764 1.25764,-1.16256 1.34498,-1.0603 1.42402,-0.95151 1.49429,-0.83683 1.55534,-0.71703 1.60681,-0.59277 1.64835,-0.46488 1.67976,-0.33413 1.70078,-0.2013 1.71133,-0.0672 1.71134,0.0672 1.70079,0.2013 1.67974,0.33413 1.64837,0.46488 1.60679,0.59277 1.55534,0.71703 1.49429,0.83683 1.42402,0.95151 1.34498,1.0603 1.25764,1.16256 1.16256,1.25764 1.0603,1.34498 0.95149,1.42402 0.83685,1.49429 0.71703,1.55534 0.59277,1.60679 0.46488,1.64837 0.33413,1.67974 0.2013,1.70079 z"
       fill-opacity="1"
       id="path172"
       style="stroke-width:1.45412" />
    <text
       fill="#000000"
       stroke="none"
       font-family="'Helvetica Neue', Helvetica, sans-serif"
       font-size="11.633px"
       font-style="normal"
       font-weight="normal"
       text-decoration="normal"
       x="580.37787"
       y="473.90948"
       text-anchor="middle"
       dominant-baseline="text-after-edge"
       fill-opacity="1"
       id="text174"
       style="stroke-width:1.45412">reverse-primer</text>
    <g
       transform="matrix(0.39658082,0,0,0.39658082,-104.01529,-20.657185)"
       id="g176" />
    <g
       inkscape:label="Layer 1"
       id="layer1-3"
       transform="matrix(3.6916203,0,0,3.7037371,-2043.3107,-490.15644)">
      <g
         transform="matrix(0.44340211,0,0,0.44340211,17.172835,6.0168225)"
         id="g209">
        <g
           transform="matrix(0.59671195,0,0,0.59671195,-174.66258,-205.37894)"
           id="g207" />
        <g
           transform="matrix(0.86594268,0,0,0.86594268,86.434443,-71.848424)"
           id="g67320">
          <g
             transform="matrix(0.68908942,0,0,0.68908942,-367.92555,64.369515)"
             id="g67318" />
        </g>
      </g>
      <text
         xml:space="preserve"
         transform="matrix(0.26458332,0,0,0.26458332,20.066915,7.7552789)"
         id="text3637-2"
         style="font-style:normal;font-weight:normal;font-size:21.3333px;line-height:1.25;font-family:sans-serif;white-space:pre;shape-inside:url(#rect3639-7);fill:#000000;fill-opacity:1;stroke:none" />
      <text
         xml:space="preserve"
         transform="matrix(0.26458332,0,0,0.26458332,20.066915,7.7552789)"
         id="text27596"
         style="font-style:normal;font-weight:normal;font-size:21.3333px;line-height:1.25;font-family:sans-serif;white-space:pre;shape-inside:url(#rect27598);fill:#000000;fill-opacity:1;stroke:none" />
      <text
         xml:space="preserve"
         transform="matrix(0.22024129,0,0,0.20021572,386.98422,128.53341)"
         id="text3637-3"
         style="font-style:normal;font-weight:normal;font-size:37.3333px;line-height:1.25;font-family:sans-serif;white-space:pre;shape-inside:url(#rect3639-70);fill:#000000;fill-opacity:1;stroke:none"><tspan
           x="1443.0723"
           y="73.013644"
           id="tspan7748">Node Color</tspan></text>
      <text
         xml:space="preserve"
         transform="matrix(0.22024129,0,0,0.20021572,387.18943,158.56643)"
         id="text3637-7-6"
         style="font-style:normal;font-weight:normal;font-size:37.3333px;line-height:1.25;font-family:sans-serif;white-space:pre;shape-inside:url(#rect3639-6-9);fill:#000000;fill-opacity:1;stroke:none"><tspan
           x="1443.0723"
           y="73.013644"
           id="tspan7750">Edge Color</tspan></text>
      <rect
         id="rect18643-75"
         width="11.921554"
         height="3.3061619"
         x="706.27698"
         y="145.9449"
         style="fill:#e28150;fill-opacity:1;stroke:none;stroke-width:0.142329;stroke-miterlimit:4;stroke-dasharray:none;stroke-opacity:1"
         ry="0.58535516" />
      <text
         xml:space="preserve"
         transform="matrix(0.22024129,0,0,0.20021572,405.03025,137.32218)"
         id="text27183-3"
         style="font-style:normal;font-weight:normal;font-size:21.3333px;line-height:1.25;font-family:sans-serif;white-space:pre;shape-inside:url(#rect27185-3);fill:#000000;fill-opacity:1;stroke:none"><tspan
           x="1443.0723"
           y="58.857392"
           id="tspan7752">Reagent</tspan></text>
      <rect
         id="rect18643-7-5"
         width="11.921554"
         height="3.3061619"
         x="706.4491"
         y="151.28462"
         style="fill:#e2e250;fill-opacity:1;stroke:none;stroke-width:0.142329;stroke-miterlimit:4;stroke-dasharray:none;stroke-opacity:1"
         ry="0.58535516" />
      <text
         xml:space="preserve"
         transform="matrix(0.22024129,0,0,0.20021572,404.92803,142.80213)"
         id="text27183-1-6"
         style="font-style:normal;font-weight:normal;font-size:21.3333px;line-height:1.25;font-family:sans-serif;white-space:pre;shape-inside:url(#rect27185-7-60);fill:#000000;fill-opacity:1;stroke:none"><tspan
           x="1443.0723"
           y="58.857392"
           id="tspan7754">Assembly</tspan></text>
      <rect
         id="rect18643-2-2"
         width="11.921554"
         height="3.3061619"
         x="706.13098"
         y="175.23381"
         style="fill:#50e2e2;fill-opacity:1;stroke:none;stroke-width:0.142329;stroke-miterlimit:4;stroke-dasharray:none;stroke-opacity:1"
         ry="0.58535516" />
      <text
         xml:space="preserve"
         transform="matrix(0.22024129,0,0,0.20021572,405.12993,166.63591)"
         id="text27183-9-9"
         style="font-style:normal;font-weight:normal;font-size:21.3333px;line-height:1.25;font-family:sans-serif;white-space:pre;shape-inside:url(#rect27185-6-6);fill:#000000;fill-opacity:1;stroke:none"><tspan
           x="1443.0723"
           y="58.857392"
           id="tspan7756">Source</tspan></text>
      <rect
         id="rect18643-7-1-1"
         width="11.921554"
         height="3.3061619"
         x="706.3031"
         y="180.57353"
         style="fill:#e28150;fill-opacity:1;stroke:none;stroke-width:0.142329;stroke-miterlimit:4;stroke-dasharray:none;stroke-opacity:1"
         ry="0.58535516" />
      <text
         xml:space="preserve"
         transform="matrix(0.22024129,0,0,0.20021572,405.30204,171.97563)"
         id="text27183-1-2-2"
         style="font-style:normal;font-weight:normal;font-size:21.3333px;line-height:1.25;font-family:sans-serif;white-space:pre;shape-inside:url(#rect27185-7-35-2);fill:#000000;fill-opacity:1;stroke:none"><tspan
           x="1443.0723"
           y="58.857392"
           id="tspan7758">Destination</tspan></text>
      <rect
         id="rect18643-7-3-70"
         width="11.921554"
         height="3.3061619"
         x="706.34186"
         y="156.49216"
         style="fill:#81e250;fill-opacity:1;stroke:none;stroke-width:0.142329;stroke-miterlimit:4;stroke-dasharray:none;stroke-opacity:1"
         ry="0.58535516" />
      <text
         xml:space="preserve"
         transform="matrix(0.22024129,0,0,0.20021572,405.3086,148.16487)"
         id="text27183-1-5-9"
         style="font-style:normal;font-weight:normal;font-size:21.3333px;line-height:1.25;font-family:sans-serif;white-space:pre;shape-inside:url(#rect27185-7-5-61);fill:#000000;fill-opacity:1;stroke:none"><tspan
           x="1443.0723"
           y="58.857392"
           id="tspan7760">Transformation</tspan></text>
      <rect
         id="rect18643-7-3-7-3"
         width="11.921554"
         height="3.3061619"
         x="706.34186"
         y="161.70374"
         style="fill:#50e281;fill-opacity:1;stroke:none;stroke-width:0.142329;stroke-miterlimit:4;stroke-dasharray:none;stroke-opacity:1"
         ry="0.58535516" />
      <text
         xml:space="preserve"
         transform="matrix(0.22024129,0,0,0.20021572,405.60687,153.11899)"
         id="text27183-1-5-5-6"
         style="font-style:normal;font-weight:normal;font-size:21.3333px;line-height:1.25;font-family:sans-serif;white-space:pre;shape-inside:url(#rect27185-7-5-6-8);fill:#000000;fill-opacity:1;stroke:none"><tspan
           x="1443.0723"
           y="58.857392"
           id="tspan7762">Validation</tspan></text>
    </g>
  </g>
</svg>
