<?xml version="1.0" encoding="UTF-8" standalone="no"?>
<svg
   version="1.1"
   width="2000"
   height="1000"
   id="svg272"
   sodipodi:docname="level_3_parent.svg"
   inkscape:version="1.1.1 (eb90963e84, 2021-10-02)"
   xmlns:inkscape="http://www.inkscape.org/namespaces/inkscape"
   xmlns:sodipodi="http://sodipodi.sourceforge.net/DTD/sodipodi-0.dtd"
   xmlns="http://www.w3.org/2000/svg"
   xmlns:svg="http://www.w3.org/2000/svg">
  <sodipodi:namedview
     id="namedview274"
     pagecolor="#ffffff"
     bordercolor="#666666"
     borderopacity="1.0"
     inkscape:pageshadow="2"
     inkscape:pageopacity="0.0"
     inkscape:pagecheckerboard="0"
     showgrid="false"
     inkscape:zoom="0.59652253"
     inkscape:cx="1103.898"
     inkscape:cy="503.75298"
     inkscape:window-width="2492"
     inkscape:window-height="1376"
     inkscape:window-x="2628"
     inkscape:window-y="542"
     inkscape:window-maximized="1"
     inkscape:current-layer="g270"
     height="650px"
     width="2000px" />
  <defs
     id="defs2">
    <rect
       x="1443.0721"
       y="39.982376"
       width="235.68906"
       height="103.2741"
       id="rect3639" />
    <rect
       x="1443.0721"
       y="39.982376"
       width="235.68906"
       height="103.2741"
       id="rect3639-6" />
    <rect
       x="1443.0721"
       y="39.982376"
       width="235.68906"
       height="103.2741"
       id="rect27185" />
    <rect
       x="1443.0721"
       y="39.982376"
       width="235.68906"
       height="103.2741"
       id="rect27185-7" />
    <rect
       x="1443.0721"
       y="39.982376"
       width="235.68906"
       height="103.2741"
       id="rect27185-6" />
    <rect
       x="1443.0721"
       y="39.982376"
       width="235.68906"
       height="103.2741"
       id="rect27185-7-35" />
    <rect
       x="1443.0721"
       y="39.982376"
       width="235.68906"
       height="103.2741"
       id="rect27185-7-5" />
    <rect
       x="1443.0721"
       y="39.982376"
       width="235.68906"
       height="103.2741"
       id="rect27185-7-5-6" />
    <rect
       x="1443.0721"
       y="39.982376"
       width="235.68906"
       height="103.2741"
       id="rect3639-5" />
    <rect
       x="1443.0721"
       y="39.982376"
       width="235.68906"
       height="103.2741"
       id="rect3639-6-3" />
    <rect
       x="1443.0721"
       y="39.982376"
       width="235.68906"
       height="103.2741"
       id="rect27185-5" />
    <rect
       x="1443.0721"
       y="39.982376"
       width="235.68906"
       height="103.2741"
       id="rect27185-7-6" />
    <rect
       x="1443.0721"
       y="39.982376"
       width="235.68906"
       height="103.2741"
       id="rect27185-6-2" />
    <rect
       x="1443.0721"
       y="39.982376"
       width="235.68906"
       height="103.2741"
       id="rect27185-7-35-9" />
    <rect
       x="1443.0721"
       y="39.982376"
       width="235.68906"
       height="103.2741"
       id="rect27185-7-5-1" />
    <rect
       x="1443.0721"
       y="39.982376"
       width="235.68906"
       height="103.2741"
       id="rect27185-7-5-6-2" />
    <rect
       x="1443.0721"
       y="39.982376"
       width="235.68906"
       height="103.2741"
       id="rect27185-63" />
    <rect
       x="1443.0721"
       y="39.982376"
       width="235.68906"
       height="103.2741"
       id="rect27185-7-1" />
    <rect
       x="1443.0721"
       y="39.982376"
       width="235.68906"
       height="103.2741"
       id="rect27185-7-5-7" />
    <rect
       x="1443.0721"
       y="39.982376"
       width="235.68906"
       height="103.2741"
       id="rect27185-7-5-6-5" />
    <rect
       x="1443.0721"
       y="39.982376"
       width="235.68906"
       height="103.2741"
       id="rect27185-7-5-6-5-8" />
    <rect
       x="1443.0721"
       y="39.982376"
       width="235.68906"
       height="103.2741"
       id="rect3639-7" />
    <rect
       x="1443.0721"
       y="39.982376"
       width="235.68906"
       height="103.2741"
       id="rect27598" />
    <rect
       x="1443.0721"
       y="39.982376"
       width="235.68906"
       height="103.2741"
       id="rect3639-70" />
    <rect
       x="1443.0721"
       y="39.982376"
       width="235.68906"
       height="103.2741"
       id="rect3639-6-9" />
    <rect
       x="1443.0721"
       y="39.982376"
       width="235.68906"
       height="103.2741"
       id="rect27185-3" />
    <rect
       x="1443.0721"
       y="39.982376"
       width="235.68906"
       height="103.2741"
       id="rect27185-7-60" />
    <rect
       x="1443.0721"
       y="39.982376"
       width="235.68906"
       height="103.2741"
       id="rect27185-6-6" />
    <rect
       x="1443.0721"
       y="39.982376"
       width="235.68906"
       height="103.2741"
       id="rect27185-7-35-2" />
    <rect
       x="1443.0721"
       y="39.982376"
       width="235.68906"
       height="103.2741"
       id="rect27185-7-5-61" />
    <rect
       x="1443.0721"
       y="39.982376"
       width="235.68906"
       height="103.2741"
       id="rect27185-7-5-6-8" />
    <rect
       x="1443.0721"
       y="39.982376"
       width="235.68906"
       height="103.2741"
       id="rect3639-7-3" />
    <rect
       x="1443.0721"
       y="39.982376"
       width="235.68906"
       height="103.2741"
       id="rect27598-6" />
    <rect
       x="1443.0721"
       y="39.982376"
       width="235.68906"
       height="103.2741"
       id="rect3639-70-7" />
    <rect
       x="1443.0721"
       y="39.982376"
       width="235.68906"
       height="103.2741"
       id="rect3639-6-9-5" />
    <rect
       x="1443.0721"
       y="39.982376"
       width="235.68906"
       height="103.2741"
       id="rect27185-3-3" />
    <rect
       x="1443.0721"
       y="39.982376"
       width="235.68906"
       height="103.2741"
       id="rect27185-7-60-5" />
    <rect
       x="1443.0721"
       y="39.982376"
       width="235.68906"
       height="103.2741"
       id="rect27185-6-6-6" />
    <rect
       x="1443.0721"
       y="39.982376"
       width="235.68906"
       height="103.2741"
       id="rect27185-7-35-2-2" />
    <rect
       x="1443.0721"
       y="39.982376"
       width="235.68906"
       height="103.2741"
       id="rect27185-7-5-61-9" />
    <rect
       x="1443.0721"
       y="39.982376"
       width="235.68906"
       height="103.2741"
       id="rect27185-7-5-6-8-1" />
  </defs>
  <g
     transform="matrix(1.6229062,0,0,1.6229062,34.638538,131.41482)"
     id="g270">
    <path
       fill="none"
       stroke="#50e2e2"
       paint-order="fill stroke markers"
       d="m 19.347897,226.25704 65.39011,117.27395"
       stroke-opacity="1"
       stroke-linejoin="round"
       stroke-miterlimit="10"
       stroke-width="3"
       id="path4" />
    <path
       fill="#50e2e2"
       stroke="none"
       paint-order="stroke fill markers"
       d="m 44.275387,279.56503 8.036176,5.48018 -0.437561,-9.71705 z"
       fill-opacity="1"
       id="path6" />
    <path
       fill="none"
       stroke="#e28150"
       paint-order="fill stroke markers"
       d="M 103.00281,366.42331 156.19195,418.835"
       stroke-opacity="1"
       stroke-linejoin="round"
       stroke-miterlimit="10"
       stroke-width="2.93994"
       id="path8" />
    <path
       fill="#e28150"
       stroke="none"
       paint-order="stroke fill markers"
       d="m 121.08918,390.28359 8.5082,2.34556 -3.52991,-9.51658 z"
       fill-opacity="1"
       id="path10"
       style="stroke-width:0.979979" />
    <path
       fill="none"
       stroke="#e28150"
       paint-order="fill stroke markers"
       d="m 101.51368,345.76608 54.55967,-60.96384"
       stroke-opacity="1"
       stroke-linejoin="round"
       stroke-miterlimit="10"
       stroke-width="3"
       id="path12" />
    <path
       fill="#e28150"
       stroke="none"
       paint-order="stroke fill markers"
       d="m 126.23308,324.66802 2.56043,-9.38386 -9.04334,3.58197 z"
       fill-opacity="1"
       id="path14" />
    <path
       fill="none"
       stroke="#50e2e2"
       paint-order="fill stroke markers"
       d="M 18.218623,503.5271 84.802215,370.35992"
       stroke-opacity="1"
       stroke-linejoin="round"
       stroke-miterlimit="10"
       stroke-width="3"
       id="path16" />
    <path
       fill="#50e2e2"
       stroke="none"
       paint-order="stroke fill markers"
       d="m 51.510419,446.67041 v -9.7269 l -7.781517,5.83614 z"
       fill-opacity="1"
       id="path18" />
    <path
       fill="none"
       stroke="#50e2e2"
       paint-order="fill stroke markers"
       d="m 22.117021,426.33691 58.786796,-58.7868"
       stroke-opacity="1"
       stroke-linejoin="round"
       stroke-miterlimit="10"
       stroke-width="3"
       id="path20" />
    <path
       fill="#50e2e2"
       stroke="none"
       paint-order="stroke fill markers"
       d="m 48.434505,406.17125 3.075914,-9.22774 -9.227743,3.07591 z"
       fill-opacity="1"
       id="path22" />
    <path
       fill="none"
       stroke="#50e2e2"
       paint-order="fill stroke markers"
       d="m 26.510419,356.94351 h 50"
       stroke-opacity="1"
       stroke-linejoin="round"
       stroke-miterlimit="10"
       stroke-width="3"
       id="path24" />
    <path
       fill="#50e2e2"
       stroke="none"
       paint-order="stroke fill markers"
       d="m 42.810419,361.29351 8.7,-4.35 -8.7,-4.35 z"
       fill-opacity="1"
       id="path26" />
    <path
       fill="none"
       stroke="#50e2e2"
       paint-order="fill stroke markers"
       d="m 22.117021,287.55011 58.786796,58.7868"
       stroke-opacity="1"
       stroke-linejoin="round"
       stroke-miterlimit="10"
       stroke-width="3"
       id="path28" />
    <path
       fill="#50e2e2"
       stroke="none"
       paint-order="stroke fill markers"
       d="m 42.282676,313.8676 9.227743,3.07591 -3.075914,-9.22774 z"
       fill-opacity="1"
       id="path30" />
    <path
       fill="none"
       stroke="#50e2e2"
       paint-order="fill stroke markers"
       d="M 172.8462,418.61891 Q 246.43644,374.5794 334.20744,360.17742"
       stroke-opacity="1"
       stroke-linejoin="round"
       stroke-miterlimit="10"
       stroke-width="3.0545"
       id="path32" />
    <path
       fill="#50e2e2"
       stroke="none"
       paint-order="stroke fill markers"
       d="m 248.4373,386.8534 6.47748,-6.98928 -9.88274,-0.63857 z"
       fill-opacity="1"
       id="path34"
       style="stroke-width:0.983476" />
    <path
       fill="none"
       stroke="#50e2e2"
       paint-order="fill stroke markers"
       d="m 179.41672,275.97133 q 85.37397,19.01881 157.15016,71.41179"
       stroke-opacity="1"
       stroke-linejoin="round"
       stroke-miterlimit="10"
       stroke-width="3.1117"
       id="path36" />
    <path
       fill="#50e2e2"
       stroke="none"
       paint-order="stroke fill markers"
       d="m 252.31421,304.43192 9.71782,-0.58779 -6.27672,-7.84339 z"
       fill-opacity="1"
       id="path38"
       style="stroke-width:1.02749" />
    <path
       fill="none"
       stroke="#50e2e2"
       paint-order="fill stroke markers"
       d="m 274.45575,283.04256 65.52046,61.49793"
       stroke-opacity="1"
       stroke-linejoin="round"
       stroke-miterlimit="10"
       stroke-width="3.19412"
       id="path40" />
    <path
       fill="#50e2e2"
       stroke="none"
       paint-order="stroke fill markers"
       d="m 297.31095,310.82575 9.3488,2.68561 -3.46079,-9.0904 z"
       fill-opacity="1"
       id="path42" />
    <path
       fill="none"
       stroke="#e28150"
       paint-order="fill stroke markers"
       d="m 336.80703,365.61052 q -73.59023,44.0395 -161.36124,58.44149"
       stroke-opacity="1"
       stroke-linejoin="round"
       stroke-miterlimit="10"
       stroke-width="3.0545"
       id="path44" />
    <path
       fill="#e28150"
       stroke="none"
       paint-order="stroke fill markers"
       d="m 269.96783,393.83498 -6.47749,6.98929 9.88274,0.63857 z"
       fill-opacity="1"
       id="path46"
       style="stroke-width:0.983476" />
    <path
       fill="none"
       stroke="#e28150"
       paint-order="fill stroke markers"
       d="m 359.93863,362.28357 68.01389,62.61703"
       stroke-opacity="1"
       stroke-linejoin="round"
       stroke-miterlimit="10"
       stroke-width="2.90386"
       id="path48" />
    <path
       fill="#e28150"
       stroke="none"
       paint-order="stroke fill markers"
       d="m 386.08328,391.68567 9.37569,2.59015 -3.55329,-9.05465 z"
       fill-opacity="1"
       id="path50" />
    <path
       fill="none"
       stroke="#e28150"
       paint-order="fill stroke markers"
       d="M 334.20744,353.17406 Q 248.83349,334.15525 177.05729,281.76228"
       stroke-opacity="1"
       stroke-linejoin="round"
       stroke-miterlimit="10"
       stroke-width="3.1117"
       id="path52" />
    <path
       fill="#e28150"
       stroke="none"
       paint-order="stroke fill markers"
       d="m 262.66961,325.50416 -9.71783,0.58778 6.27672,7.84339 z"
       fill-opacity="1"
       id="path54"
       style="stroke-width:1.02749" />
    <path
       fill="none"
       stroke="#e28150"
       paint-order="fill stroke markers"
       d="M 357.60977,344.54049 425.9421,283.46902"
       stroke-opacity="1"
       stroke-linejoin="round"
       stroke-miterlimit="10"
       stroke-width="3.11222"
       id="path56" />
    <path
       fill="#e28150"
       stroke="none"
       paint-order="stroke fill markers"
       d="m 389.36644,321.90258 3.59948,-9.03638 -9.38879,2.54224 z"
       fill-opacity="1"
       id="path58" />
    <path
       fill="none"
       stroke="#50e2e2"
       paint-order="fill stroke markers"
       d="m 278.61977,357.0492 55.1734,-0.29363"
       stroke-opacity="1"
       stroke-linejoin="round"
       stroke-miterlimit="10"
       stroke-width="3"
       id="path60" />
    <path
       fill="#50e2e2"
       stroke="none"
       paint-order="stroke fill markers"
       d="m 297.52974,361.29862 8.67673,-4.39624 -8.72303,-4.30364 z"
       fill-opacity="1"
       id="path62" />
    <path
       fill="none"
       stroke="#50e2e2"
       paint-order="fill stroke markers"
       d="m 275.38053,421.31066 67.98899,-56.20544"
       stroke-opacity="1"
       stroke-linejoin="round"
       stroke-miterlimit="10"
       stroke-width="3.09781"
       id="path64" />
    <path
       fill="#50e2e2"
       stroke="none"
       paint-order="stroke fill markers"
       d="m 304.72017,402.64442 3.385,-9.22681 -9.4567,2.84422 z"
       fill-opacity="1"
       id="path66"
       style="stroke-width:1.01272" />
    <path
       fill="none"
       stroke="#50e2e2"
       paint-order="fill stroke markers"
       d="m 449.58356,429.49557 78.45706,-71.069"
       stroke-opacity="1"
       stroke-linejoin="round"
       stroke-miterlimit="10"
       stroke-width="3.14796"
       id="path68" />
    <path
       fill="#50e2e2"
       stroke="none"
       paint-order="stroke fill markers"
       d="m 485.57739,402.84228 3.68348,-9.39807 -9.68767,2.67595 z"
       fill-opacity="1"
       id="path70"
       style="stroke-width:1.03569" />
    <path
       fill="none"
       stroke="#50e2e2"
       paint-order="fill stroke markers"
       d="m 448.45161,281.32492 81.50131,69.10085"
       stroke-opacity="1"
       stroke-linejoin="round"
       stroke-miterlimit="10"
       stroke-width="3.31172"
       id="path72"
       style="stroke-width:2.9925;stroke-miterlimit:10;stroke-dasharray:none" />
    <path
       fill="#50e2e2"
       stroke="none"
       paint-order="stroke fill markers"
       d="m 479.19575,313.55769 9.81101,1.86993 -4.53404,-9.80278 z"
       fill-opacity="1"
       id="path74"
       style="stroke-width:1.0764" />
    <path
       fill="none"
       stroke="#e28150"
       paint-order="fill stroke markers"
       d="m 552.77482,356.42019 69.35881,0.0289"
       stroke-opacity="1"
       stroke-linejoin="round"
       stroke-miterlimit="10"
       stroke-width="3.07416"
       id="path76" />
    <path
       fill="#e28150"
       stroke="none"
       paint-order="stroke fill markers"
       d="m 578.29733,360.74356 9.1569,-4.30889 -9.1138,-4.39101 z"
       fill-opacity="1"
       id="path78"
       style="stroke-width:1.02472" />
    <path
       fill="none"
       stroke="#50e2e2"
       paint-order="fill stroke markers"
       d="m 449.32403,330.55467 78.87383,23.37313"
       stroke-opacity="1"
       stroke-linejoin="round"
       stroke-miterlimit="10"
       stroke-width="3.92998"
       id="path80"
       style="stroke-width:2.95385;stroke-miterlimit:10;stroke-dasharray:none" />
    <path
       fill="#50e2e2"
       stroke="none"
       paint-order="stroke fill markers"
       d="m 476.48767,344.65872 10.36709,-3.09072 -8.31471,-7.93643 z"
       fill-opacity="1"
       id="path82"
       style="stroke-width:1.19438" />
    <path
       fill="none"
       stroke="#50e2e2"
       paint-order="fill stroke markers"
       d="m 449.65407,377.92588 79.87876,-21.80537"
       stroke-opacity="1"
       stroke-linejoin="round"
       stroke-miterlimit="10"
       stroke-width="3.04754"
       id="path84" />
    <path
       fill="#50e2e2"
       stroke="none"
       paint-order="stroke fill markers"
       d="m 481.7802,373.55268 8.20042,-5.83963 -10.5155,-2.32283 z"
       fill-opacity="1"
       id="path86"
       style="stroke-width:1.031" />
    <path
       fill="none"
       stroke="#50e2e2"
       paint-order="fill stroke markers"
       d="m 650.58639,356.28627 74.56852,0.0482"
       stroke-opacity="1"
       stroke-linejoin="round"
       stroke-miterlimit="10"
       stroke-width="3.05346"
       id="path88" />
    <path
       fill="#50e2e2"
       stroke="none"
       paint-order="stroke fill markers"
       d="m 677.89063,360.72016 8.66984,-4.4098 -8.72974,-4.29 z"
       fill-opacity="1"
       id="path90" />
    <path
       fill="none"
       stroke="#e28150"
       paint-order="fill stroke markers"
       d="m 751.93247,356.58186 44.81199,-0.10416"
       stroke-opacity="1"
       stroke-linejoin="round"
       stroke-miterlimit="10"
       stroke-width="3.01992"
       id="path92" />
    <path
       fill="#e28150"
       stroke="none"
       paint-order="stroke fill markers"
       d="m 766.04191,361.09101 8.59114,-4.56123 -8.80366,-4.13617 z"
       fill-opacity="1"
       id="path94" />
    <path
       fill="none"
       stroke="#50e2e2"
       paint-order="fill stroke markers"
       d="m 648.94498,282.08564 78.846,65.42155"
       stroke-opacity="1"
       stroke-linejoin="round"
       stroke-miterlimit="10"
       stroke-width="3.24718"
       id="path96" />
    <path
       fill="#50e2e2"
       stroke="none"
       paint-order="stroke fill markers"
       d="m 678.51682,312.81238 9.85115,1.98404 -4.47495,-9.90289 z"
       fill-opacity="1"
       id="path98"
       style="stroke-width:1.08239" />
    <path
       fill="none"
       stroke="#50e2e2"
       paint-order="fill stroke markers"
       d="m 826.73344,357.10852 85.44942,0.0477"
       stroke-opacity="1"
       stroke-linejoin="round"
       stroke-miterlimit="10"
       stroke-width="3"
       id="path100" />
    <path
       fill="#50e2e2"
       stroke="none"
       paint-order="stroke fill markers"
       d="m 860.75573,361.4775 8.70242,-4.34515 -8.69757,-4.35485 z"
       fill-opacity="1"
       id="path102" />
    <path
       fill="none"
       stroke="#50e2e2"
       paint-order="fill stroke markers"
       d="m 818.14559,360.32882 q 13.93329,30.2701 0.50763,60.78053"
       stroke-opacity="1"
       stroke-linejoin="round"
       stroke-miterlimit="10"
       stroke-width="3.03081"
       id="path104" />
    <path
       fill="#50e2e2"
       stroke="none"
       paint-order="stroke fill markers"
       d="m 820.82319,381.30878 4.42435,8.66242 4.27533,-8.73694 z"
       fill-opacity="1"
       id="path106" />
    <path
       fill="none"
       stroke="#e28150"
       paint-order="fill stroke markers"
       d="m 942.18286,357.16455 h 56.64676"
       stroke-opacity="1"
       stroke-linejoin="round"
       stroke-miterlimit="10"
       stroke-width="3"
       id="path108" />
    <path
       fill="#e28150"
       stroke="none"
       paint-order="stroke fill markers"
       d="m 961.80625,361.51455 8.7,-4.35 -8.7,-4.35 z"
       fill-opacity="1"
       id="path110" />
    <path
       fill="none"
       stroke="#50e2e2"
       paint-order="fill stroke markers"
       d="m 824.52321,280.24643 92.91797,65.51203"
       stroke-opacity="1"
       stroke-linejoin="round"
       stroke-miterlimit="10"
       stroke-width="3.26004"
       id="path112" />
    <path
       fill="#50e2e2"
       stroke="none"
       paint-order="stroke fill markers"
       d="m 861.63637,311.93299 9.96934,1.2511 -5.06205,-9.43143 z"
       fill-opacity="1"
       id="path114"
       style="stroke-width:1.07637" />
    <path
       fill="none"
       stroke="#50e2e2"
       paint-order="fill stroke markers"
       d="m 1026.8562,351.08716 q 71.9194,-15.1359 143.1567,2.87879"
       stroke-opacity="1"
       stroke-linejoin="round"
       stroke-miterlimit="10"
       stroke-width="3.01738"
       id="path116" />
    <path
       fill="#50e2e2"
       stroke="none"
       paint-order="stroke fill markers"
       d="m 1090.6387,348.41106 8.7867,-4.17215 -8.6097,-4.52605 z"
       fill-opacity="1"
       id="path118" />
    <path
       fill="none"
       stroke="#50e2e2"
       paint-order="fill stroke markers"
       d="m 1020.041,360.47954 q 13.9292,30.61817 0.1947,61.32414"
       stroke-opacity="1"
       stroke-linejoin="round"
       stroke-miterlimit="10"
       stroke-width="3"
       id="path120" />
    <path
       fill="#50e2e2"
       stroke="none"
       paint-order="stroke fill markers"
       d="m 1022.6767,382.43351 4.3776,8.68615 4.3224,-8.71376 z"
       fill-opacity="1"
       id="path122" />
    <path
       fill="none"
       stroke="#e28150"
       paint-order="fill stroke markers"
       d="m 1169.8737,360.80709 q -71.0932,15.1359 -141.5121,-2.87879"
       stroke-opacity="1"
       stroke-linejoin="round"
       stroke-miterlimit="10"
       stroke-width="3"
       id="path124" />
    <path
       fill="#e28150"
       stroke="none"
       paint-order="stroke fill markers"
       d="m 1107.7357,363.48319 -8.7866,4.17215 8.6097,4.52605 z"
       fill-opacity="1"
       id="path126" />
    <path
       fill="none"
       stroke="#50e2e2"
       paint-order="fill stroke markers"
       d="m 1128.4205,391.51242 43.3351,-25.99138"
       stroke-opacity="1"
       stroke-linejoin="round"
       stroke-miterlimit="10"
       stroke-width="2.66823"
       id="path128"
       style="stroke-width:2.95385;stroke-miterlimit:10;stroke-dasharray:none" />
    <path
       fill="#50e2e2"
       stroke="none"
       paint-order="stroke fill markers"
       d="m 1145.9998,385.47731 4.4377,-8.65559 -9.5871,1.64319 z"
       fill-opacity="1"
       id="path130" />
    <path
       fill="none"
       stroke="#50e2e2"
       paint-order="fill stroke markers"
       d="m 1121.0026,274.62843 55.7051,70.26553"
       stroke-opacity="1"
       stroke-linejoin="round"
       stroke-miterlimit="10"
       stroke-width="2.78846"
       id="path132"
       style="stroke-width:3.14565;stroke-miterlimit:10;stroke-dasharray:none" />
    <path
       fill="#50e2e2"
       stroke="none"
       paint-order="stroke fill markers"
       d="m 1138.4686,304.15564 9.2642,2.96445 -3.1869,-9.18999 z"
       fill-opacity="1"
       id="path134" />
    <path
       fill="none"
       stroke="#50e2e2"
       paint-order="fill stroke markers"
       d="m 1125.6359,430.88148 51.0718,-60.40832"
       stroke-opacity="1"
       stroke-linejoin="round"
       stroke-miterlimit="10"
       stroke-width="2.84622"
       id="path136"
       style="stroke-width:2.95385;stroke-miterlimit:10;stroke-dasharray:none" />
    <path
       fill="#50e2e2"
       stroke="none"
       paint-order="stroke fill markers"
       d="m 1151.9953,406.23544 1.6227,-9.59059 -8.6461,4.45621 z"
       fill-opacity="1"
       id="path138" />
    <path
       fill="none"
       stroke="#e28150"
       paint-order="fill stroke markers"
       d="m 806.07215,419.8414 q -13.9669,-29.58632 -0.50885,-59.40755"
       stroke-opacity="1"
       stroke-linejoin="round"
       stroke-miterlimit="10"
       stroke-width="3"
       id="path140" />
    <path
       fill="#e28150"
       stroke="none"
       paint-order="stroke fill markers"
       d="m 803.38584,398.85878 -4.42435,-8.66243 -4.27533,8.73694 z"
       fill-opacity="1"
       id="path142" />
    <path
       fill="none"
       stroke="#e28150"
       paint-order="fill stroke markers"
       d="M 1007.8996,421.84284 Q 993.97046,391.22468 1007.705,360.5187"
       stroke-opacity="1"
       stroke-linejoin="round"
       stroke-miterlimit="10"
       stroke-width="3"
       id="path144" />
    <path
       fill="#e28150"
       stroke="none"
       paint-order="stroke fill markers"
       d="m 1005.264,399.88887 -4.3776,-8.68615 -4.32238,8.71377 z"
       fill-opacity="1"
       id="path146" />
    <path
       fill="#e28150"
       stroke="none"
       paint-order="stroke fill markers"
       d="m 1131.7835,442.99079 -0.046,1.17689 -0.1384,1.16963 -0.2298,1.15516 -0.3197,1.13358 -0.4076,1.10499 -0.4931,1.06961 -0.5755,1.02762 -0.6544,0.9793 -0.7291,0.92494 -0.7995,0.86488 -0.8649,0.79949 -0.9249,0.72917 -0.9793,0.65434 -1.0277,0.5755 -1.0696,0.49309 -1.105,0.40766 -1.1335,0.3197 -1.1552,0.22978 -1.1696,0.13843 -1.1769,0.0462 -1.1769,-0.0462 -1.1696,-0.13843 -1.1552,-0.22978 -1.1336,-0.3197 -1.105,-0.40766 -1.0696,-0.49309 -1.0276,-0.5755 -0.9793,-0.65434 -0.9249,-0.72917 -0.8649,-0.79949 -0.7995,-0.86488 -0.7292,-0.92494 -0.6543,-0.9793 -0.5755,-1.02762 -0.4931,-1.06961 -0.4077,-1.10499 -0.3197,-1.13358 -0.2298,-1.15516 -0.1384,-1.16963 -0.046,-1.17689 0.046,-1.17689 0.1384,-1.16963 0.2298,-1.15516 0.3197,-1.13357 0.4077,-1.105 0.4931,-1.06961 0.5755,-1.02762 0.6543,-0.9793 0.7292,-0.92494 0.7995,-0.86488 0.8649,-0.79949 0.9249,-0.72916 0.9793,-0.65435 1.0276,-0.5755 1.0696,-0.49309 1.105,-0.40766 1.1336,-0.3197 1.1552,-0.22977 1.1696,-0.13844 1.1769,-0.0462 1.1769,0.0462 1.1696,0.13844 1.1552,0.22977 1.1335,0.3197 1.105,0.40766 1.0696,0.49309 1.0277,0.5755 0.9793,0.65435 0.9249,0.72916 0.8649,0.79949 0.7995,0.86488 0.7291,0.92494 0.6544,0.9793 0.5755,1.02762 0.4931,1.06961 0.4076,1.105 0.3197,1.13357 0.2298,1.15516 0.1384,1.16963 z"
       fill-opacity="1"
       id="path148" />
    <text
       fill="#000000"
       stroke="none"
       font-family="'Helvetica Neue', Helvetica, sans-serif"
       font-size="8px"
       font-style="normal"
       font-weight="normal"
       text-decoration="normal"
       x="1116.7834"
       y="427.99078"
       text-anchor="middle"
       dominant-baseline="text-after-edge"
       fill-opacity="1"
       id="text150">reverse-primer</text>
    <path
       fill="#e28150"
       stroke="none"
       paint-order="stroke fill markers"
       d="m 1131.8283,272.80285 -0.046,1.17689 -0.1385,1.16963 -0.2298,1.15516 -0.3197,1.13358 -0.4076,1.10499 -0.4931,1.06961 -0.5755,1.02762 -0.6543,0.9793 -0.7292,0.92494 -0.7995,0.86488 -0.8649,0.79949 -0.9249,0.72917 -0.9793,0.65434 -1.0276,0.5755 -1.0697,0.49309 -1.1049,0.40766 -1.1336,0.3197 -1.1552,0.22978 -1.1696,0.13843 -1.1769,0.0462 -1.1769,-0.0462 -1.1696,-0.13843 -1.1552,-0.22978 -1.1336,-0.3197 -1.105,-0.40766 -1.0696,-0.49309 -1.0276,-0.5755 -0.9793,-0.65434 -0.9249,-0.72917 -0.8649,-0.79949 -0.7995,-0.86488 -0.7292,-0.92494 -0.6543,-0.9793 -0.5755,-1.02762 -0.4931,-1.06961 -0.4077,-1.10499 -0.3197,-1.13358 -0.2297,-1.15516 -0.1385,-1.16963 -0.046,-1.17689 0.046,-1.17689 0.1385,-1.16963 0.2297,-1.15516 0.3197,-1.13357 0.4077,-1.105 0.4931,-1.06961 0.5755,-1.02762 0.6543,-0.9793 0.7292,-0.92494 0.7995,-0.86488 0.8649,-0.79949 0.9249,-0.72916 0.9793,-0.65435 1.0276,-0.5755 1.0696,-0.49309 1.105,-0.40766 1.1336,-0.3197 1.1552,-0.22977 1.1696,-0.13844 1.1769,-0.0462 1.1769,0.0462 1.1696,0.13844 1.1552,0.22977 1.1336,0.3197 1.1049,0.40766 1.0697,0.49309 1.0276,0.5755 0.9793,0.65435 0.9249,0.72916 0.8649,0.79949 0.7995,0.86488 0.7292,0.92494 0.6543,0.9793 0.5755,1.02762 0.4931,1.06961 0.4076,1.105 0.3197,1.13357 0.2298,1.15516 0.1385,1.16963 z"
       fill-opacity="1"
       id="path152" />
    <text
       fill="#000000"
       stroke="none"
       font-family="'Helvetica Neue', Helvetica, sans-serif"
       font-size="8px"
       font-style="normal"
       font-weight="normal"
       text-decoration="normal"
       x="1115.7421"
       y="258.4985"
       text-anchor="middle"
       dominant-baseline="text-after-edge"
       fill-opacity="1"
       id="text154">forward-primer</text>
    <path
       fill="#e28150"
       stroke="none"
       paint-order="stroke fill markers"
       d="m 1131.3302,400.39068 -0.046,1.17688 -0.1385,1.16963 -0.2298,1.15517 -0.3197,1.13357 -0.4076,1.105 -0.4931,1.0696 -0.5755,1.02762 -0.6544,0.9793 -0.7291,0.92495 -0.7995,0.86488 -0.8649,0.79948 -0.9249,0.72917 -0.9793,0.65435 -1.0277,0.57549 -1.0696,0.4931 -1.105,0.40765 -1.1335,0.3197 -1.1552,0.22978 -1.1696,0.13844 -1.1769,0.0462 -1.1769,-0.0462 -1.1696,-0.13844 -1.1552,-0.22978 -1.1336,-0.3197 -1.105,-0.40765 -1.0696,-0.4931 -1.0276,-0.57549 -0.9793,-0.65435 -0.9249,-0.72917 -0.8649,-0.79948 -0.7995,-0.86488 -0.7292,-0.92495 -0.6543,-0.9793 -0.5755,-1.02762 -0.4931,-1.0696 -0.4077,-1.105 -0.3197,-1.13357 -0.2297,-1.15517 -0.1385,-1.16963 -0.046,-1.17688 0.046,-1.17689 0.1385,-1.16963 0.2297,-1.15517 0.3197,-1.13357 0.4077,-1.105 0.4931,-1.0696 0.5755,-1.02762 0.6543,-0.9793 0.7292,-0.92495 0.7995,-0.86488 0.8649,-0.79948 0.9249,-0.72917 0.9793,-0.65435 1.0276,-0.57549 1.0696,-0.4931 1.105,-0.40765 1.1336,-0.3197 1.1552,-0.22978 1.1696,-0.13843 1.1769,-0.0462 1.1769,0.0462 1.1696,0.13843 1.1552,0.22978 1.1335,0.3197 1.105,0.40765 1.0696,0.4931 1.0277,0.57549 0.9793,0.65435 0.9249,0.72917 0.8649,0.79948 0.7995,0.86488 0.7291,0.92495 0.6544,0.9793 0.5755,1.02762 0.4931,1.0696 0.4076,1.105 0.3197,1.13357 0.2298,1.15517 0.1385,1.16963 z"
       fill-opacity="1"
       id="path156" />
    <text
       fill="#000000"
       stroke="none"
       font-family="'Helvetica Neue', Helvetica, sans-serif"
       font-size="8px"
       font-style="normal"
       font-weight="normal"
       text-decoration="normal"
       x="1116.3302"
       y="385.39069"
       text-anchor="middle"
       dominant-baseline="text-after-edge"
       fill-opacity="1"
       id="text158">master-mix</text>
    <path
       fill="#e28150"
       stroke="none"
       paint-order="stroke fill markers"
       d="m 26.510419,213.46744 -0.04624,1.17688 -0.138435,1.16963 -0.229776,1.15517 -0.319701,1.13357 -0.407655,1.105 -0.493095,1.0696 -0.575496,1.02763 -0.654347,0.9793 -0.729166,0.92494 -0.799487,0.86488 -0.864881,0.79949 -0.924942,0.72916 -0.979301,0.65435 -1.027621,0.5755 -1.069606,0.49309 -1.104996,0.40765 -1.133575,0.31971 -1.155163,0.22977 -1.169631,0.13844 -1.176886,0.0462 -1.176886,-0.0462 -1.1696315,-0.13844 -1.155163,-0.22977 -1.133575,-0.31971 -1.1049965,-0.40765 -1.069606,-0.49309 -1.027621,-0.5755 -0.9793003,-0.65435 -0.9249419,-0.72916 -0.86488096,-0.79949 -0.7994878,-0.86488 -0.7291654,-0.92494 -0.65434764,-0.9793 -0.5754954,-1.02763 -0.4930951,-1.0696 -0.4076547,-1.105 -0.3197011,-1.13357 -0.2297763,-1.15517 -0.1384349,-1.16963 -0.04624,-1.17688 0.04624,-1.17689 0.1384349,-1.16963 0.2297763,-1.15516 0.3197011,-1.13358 0.4076547,-1.10499 0.4930951,-1.06961 0.5754954,-1.02762 0.65434764,-0.9793 0.7291654,-0.92494 0.7994878,-0.86488 0.86488096,-0.79949 0.9249419,-0.72917 0.9793003,-0.65435 1.027621,-0.57549 1.069606,-0.4931 1.1049965,-0.40765 1.133575,-0.3197 1.155163,-0.22978 1.1696315,-0.13843 1.176886,-0.0462 1.176886,0.0462 1.169631,0.13843 1.155163,0.22978 1.133575,0.3197 1.104996,0.40765 1.069606,0.4931 1.027621,0.57549 0.979301,0.65435 0.924942,0.72917 0.864881,0.79949 0.799487,0.86488 0.729166,0.92494 0.654347,0.9793 0.575496,1.02762 0.493095,1.06961 0.407655,1.10499 0.319701,1.13358 0.229776,1.15516 0.138435,1.16963 z"
       fill-opacity="1"
       id="path160" />
    <text
       fill="#000000"
       stroke="none"
       font-family="'Helvetica Neue', Helvetica, sans-serif"
       font-size="8px"
       font-style="normal"
       font-weight="normal"
       text-decoration="normal"
       x="11.510419"
       y="198.46745"
       text-anchor="middle"
       dominant-baseline="text-after-edge"
       fill-opacity="1"
       id="text162">restriction-enzyme</text>
    <path
       fill="#e28150"
       stroke="none"
       paint-order="stroke fill markers"
       d="m 26.510419,516.94351 -0.04624,1.17689 -0.138435,1.16963 -0.229776,1.15516 -0.319701,1.13357 -0.407655,1.105 -0.493095,1.06961 -0.575496,1.02762 -0.654347,0.9793 -0.729166,0.92494 -0.799487,0.86488 -0.864881,0.79949 -0.924942,0.72916 -0.979301,0.65435 -1.027621,0.5755 -1.069606,0.49309 -1.104996,0.40766 -1.133575,0.3197 -1.155163,0.22978 -1.169631,0.13843 -1.176886,0.0462 -1.176886,-0.0462 -1.1696315,-0.13843 -1.155163,-0.22978 -1.133575,-0.3197 -1.1049965,-0.40766 -1.069606,-0.49309 -1.027621,-0.5755 -0.9793003,-0.65435 -0.9249419,-0.72916 -0.86488096,-0.79949 -0.7994878,-0.86488 -0.7291654,-0.92494 -0.65434764,-0.9793 -0.5754954,-1.02762 -0.4930951,-1.06961 -0.4076547,-1.105 -0.3197011,-1.13357 -0.2297763,-1.15516 -0.1384349,-1.16963 -0.04624,-1.17693 0.04624,-1.17689 0.1384349,-1.16963 0.2297763,-1.15516 0.3197011,-1.13357 0.4076547,-1.105 0.4930951,-1.06961 0.5754954,-1.02762 0.65434764,-0.9793 0.7291654,-0.92494 0.7994878,-0.86488 0.86488096,-0.79949 0.9249419,-0.72916 0.9793003,-0.65435 1.027621,-0.5755 1.069606,-0.49309 1.1049965,-0.40766 1.133575,-0.3197 1.155163,-0.22978 1.1696315,-0.13843 1.176886,-0.0462 1.176886,0.0462 1.169631,0.13843 1.155163,0.22978 1.133575,0.3197 1.104996,0.40766 1.069606,0.49309 1.027621,0.5755 0.979301,0.65435 0.924942,0.72916 0.864881,0.79949 0.799487,0.86488 0.729166,0.92494 0.654347,0.9793 0.575496,1.02762 0.493095,1.06961 0.407655,1.105 0.319701,1.13357 0.229776,1.15516 0.138435,1.16963 z"
       fill-opacity="1"
       id="path164" />
    <text
       fill="#000000"
       stroke="none"
       font-family="'Helvetica Neue', Helvetica, sans-serif"
       font-size="8px"
       font-style="normal"
       font-weight="normal"
       text-decoration="normal"
       x="11.510419"
       y="501.94348"
       text-anchor="middle"
       dominant-baseline="text-after-edge"
       fill-opacity="1"
       id="text166">water</text>
    <path
       fill="#e28150"
       stroke="none"
       paint-order="stroke fill markers"
       d="m 26.510419,436.94351 -0.04624,1.17689 -0.138435,1.16963 -0.229776,1.15516 -0.319701,1.13357 -0.407655,1.105 -0.493095,1.06961 -0.575496,1.02762 -0.654347,0.9793 -0.729166,0.92494 -0.799487,0.86488 -0.864881,0.79949 -0.924942,0.72916 -0.979301,0.65435 -1.027621,0.5755 -1.069606,0.49309 -1.104996,0.40766 -1.133575,0.3197 -1.155163,0.22978 -1.169631,0.13843 -1.176886,0.0462 -1.176886,-0.0462 -1.1696315,-0.13843 -1.155163,-0.22978 -1.133575,-0.3197 -1.1049965,-0.40766 -1.069606,-0.49309 -1.027621,-0.5755 -0.9793003,-0.65435 -0.9249419,-0.72916 -0.86488096,-0.79949 -0.7994878,-0.86488 -0.7291654,-0.92494 -0.65434764,-0.9793 -0.5754954,-1.02762 -0.4930951,-1.06961 -0.4076547,-1.105 -0.3197011,-1.13357 -0.2297763,-1.15516 -0.1384349,-1.16963 -0.04624,-1.17693 0.04624,-1.17689 0.1384349,-1.16963 0.2297763,-1.15516 0.3197011,-1.13357 0.4076547,-1.105 0.4930951,-1.06961 0.5754954,-1.02762 0.65434764,-0.9793 0.7291654,-0.92494 0.7994878,-0.86488 0.86488096,-0.79949 0.9249419,-0.72916 0.9793003,-0.65435 1.027621,-0.5755 1.069606,-0.49309 1.1049965,-0.40766 1.133575,-0.3197 1.155163,-0.22978 1.1696315,-0.13843 1.176886,-0.0462 1.176886,0.0462 1.169631,0.13843 1.155163,0.22978 1.133575,0.3197 1.104996,0.40766 1.069606,0.49309 1.027621,0.5755 0.979301,0.65435 0.924942,0.72916 0.864881,0.79949 0.799487,0.86488 0.729166,0.92494 0.654347,0.9793 0.575496,1.02762 0.493095,1.06961 0.407655,1.105 0.319701,1.13357 0.229776,1.15516 0.138435,1.16963 z"
       fill-opacity="1"
       id="path168" />
    <text
       fill="#000000"
       stroke="none"
       font-family="'Helvetica Neue', Helvetica, sans-serif"
       font-size="8px"
       font-style="normal"
       font-weight="normal"
       text-decoration="normal"
       x="11.510419"
       y="421.94351"
       text-anchor="middle"
       dominant-baseline="text-after-edge"
       fill-opacity="1"
       id="text170">restriction-buffer</text>
    <path
       fill="#e28150"
       stroke="none"
       paint-order="stroke fill markers"
       d="m 26.510419,356.94351 -0.04624,1.17689 -0.138435,1.16963 -0.229776,1.15516 -0.319701,1.13357 -0.407655,1.105 -0.493095,1.06961 -0.575496,1.02762 -0.654347,0.9793 -0.729166,0.92494 -0.799487,0.86488 -0.864881,0.79949 -0.924942,0.72916 -0.979301,0.65435 -1.027621,0.5755 -1.069606,0.49309 -1.104996,0.40766 -1.133575,0.3197 -1.155163,0.22978 -1.169631,0.13843 -1.176886,0.0462 -1.176886,-0.0462 -1.1696315,-0.13843 -1.155163,-0.22978 -1.133575,-0.3197 -1.1049965,-0.40766 -1.069606,-0.49309 -1.027621,-0.5755 -0.9793003,-0.65435 -0.9249419,-0.72916 -0.86488096,-0.79949 -0.7994878,-0.86488 -0.7291654,-0.92494 -0.65434764,-0.9793 -0.5754954,-1.02762 -0.4930951,-1.06961 -0.4076547,-1.105 -0.3197011,-1.13357 -0.2297763,-1.15516 -0.1384349,-1.16963 -0.04624,-1.17693 0.04624,-1.17689 0.1384349,-1.16963 0.2297763,-1.15516 0.3197011,-1.13357 0.4076547,-1.105 0.4930951,-1.06961 0.5754954,-1.02762 0.65434764,-0.9793 0.7291654,-0.92494 0.7994878,-0.86488 0.86488096,-0.79949 0.9249419,-0.72916 0.9793003,-0.65435 1.027621,-0.5755 1.069606,-0.49309 1.1049965,-0.40766 1.133575,-0.3197 1.155163,-0.22978 1.1696315,-0.13843 1.176886,-0.0462 1.176886,0.0462 1.169631,0.13843 1.155163,0.22978 1.133575,0.3197 1.104996,0.40766 1.069606,0.49309 1.027621,0.5755 0.979301,0.65435 0.924942,0.72916 0.864881,0.79949 0.799487,0.86488 0.729166,0.92494 0.654347,0.9793 0.575496,1.02762 0.493095,1.06961 0.407655,1.105 0.319701,1.13357 0.229776,1.15516 0.138435,1.16963 z"
       fill-opacity="1"
       id="path172" />
    <text
       fill="#000000"
       stroke="none"
       font-family="'Helvetica Neue', Helvetica, sans-serif"
       font-size="8px"
       font-style="normal"
       font-weight="normal"
       text-decoration="normal"
       x="11.510419"
       y="341.94351"
       text-anchor="middle"
       dominant-baseline="text-after-edge"
       fill-opacity="1"
       id="text174">gBlock-nor</text>
    <path
       fill="#e28150"
       stroke="none"
       paint-order="stroke fill markers"
       d="m 26.510419,276.94351 -0.04624,1.17689 -0.138435,1.16963 -0.229776,1.15516 -0.319701,1.13357 -0.407655,1.105 -0.493095,1.06961 -0.575496,1.02762 -0.654347,0.9793 -0.729166,0.92494 -0.799487,0.86488 -0.864881,0.79949 -0.924942,0.72916 -0.979301,0.65435 -1.027621,0.5755 -1.069606,0.49309 -1.104996,0.40766 -1.133575,0.3197 -1.155163,0.22978 -1.169631,0.13843 -1.176886,0.0462 -1.176886,-0.0462 -1.1696315,-0.13843 -1.155163,-0.22978 -1.133575,-0.3197 -1.1049965,-0.40766 -1.069606,-0.49309 -1.027621,-0.5755 -0.9793003,-0.65435 -0.9249419,-0.72916 -0.86488096,-0.79949 -0.7994878,-0.86488 -0.7291654,-0.92494 -0.65434764,-0.9793 -0.5754954,-1.02762 -0.4930951,-1.06961 -0.4076547,-1.105 -0.3197011,-1.13357 -0.2297763,-1.15516 -0.1384349,-1.16963 -0.04624,-1.17693 0.04624,-1.17689 0.1384349,-1.16963 0.2297763,-1.15516 0.3197011,-1.13357 0.4076547,-1.105 0.4930951,-1.06961 0.5754954,-1.02762 0.65434764,-0.9793 0.7291654,-0.92494 0.7994878,-0.86488 0.86488096,-0.79949 0.9249419,-0.72916 0.9793003,-0.65435 1.027621,-0.5755 1.069606,-0.49309 1.1049965,-0.40766 1.133575,-0.3197 1.155163,-0.22978 1.1696315,-0.13843 1.176886,-0.0462 1.176886,0.0462 1.169631,0.13843 1.155163,0.22978 1.133575,0.3197 1.104996,0.40766 1.069606,0.49309 1.027621,0.5755 0.979301,0.65435 0.924942,0.72916 0.864881,0.79949 0.799487,0.86488 0.729166,0.92494 0.654347,0.9793 0.575496,1.02762 0.493095,1.06961 0.407655,1.105 0.319701,1.13357 0.229776,1.15516 0.138435,1.16963 z"
       fill-opacity="1"
       id="path176" />
    <text
       fill="#000000"
       stroke="none"
       font-family="'Helvetica Neue', Helvetica, sans-serif"
       font-size="8px"
       font-style="normal"
       font-weight="normal"
       text-decoration="normal"
       x="11.510419"
       y="261.94351"
       text-anchor="middle"
       dominant-baseline="text-after-edge"
       fill-opacity="1"
       id="text178">plasmid</text>
    <path
       fill="#e28150"
       stroke="none"
       paint-order="stroke fill markers"
       d="m 278.04962,273.30084 -0.0462,1.17688 -0.13844,1.16963 -0.22977,1.15517 -0.31971,1.13357 -0.40765,1.105 -0.4931,1.0696 -0.57549,1.02763 -0.65435,0.9793 -0.72916,0.92494 -0.79949,0.86488 -0.86488,0.79949 -0.92495,0.72916 -0.9793,0.65435 -1.02762,0.57549 -1.0696,0.4931 -1.105,0.40765 -1.13357,0.31971 -1.15517,0.22977 -1.16963,0.13844 -1.17688,0.0462 -1.17689,-0.0462 -1.16963,-0.13844 -1.15516,-0.22977 -1.13358,-0.31971 -1.105,-0.40765 -1.0696,-0.4931 -1.02762,-0.57549 -0.9793,-0.65435 -0.92494,-0.72916 -0.86489,-0.79949 -0.79948,-0.86488 -0.72917,-0.92494 -0.65435,-0.9793 -0.57549,-1.02763 -0.4931,-1.0696 -0.40765,-1.105 -0.3197,-1.13357 -0.22978,-1.15517 -0.13843,-1.16963 -0.0462,-1.17688 0.0462,-1.17689 0.13843,-1.16963 0.22978,-1.15516 0.3197,-1.13358 0.40765,-1.10499 0.4931,-1.06961 0.57549,-1.02762 0.65435,-0.9793 0.72917,-0.92494 0.79948,-0.86488 0.86489,-0.79949 0.92494,-0.72917 0.9793,-0.65435 1.02762,-0.57549 1.0696,-0.4931 1.105,-0.40765 1.13358,-0.3197 1.15516,-0.22978 1.16963,-0.13843 1.17689,-0.0462 1.17688,0.0462 1.16963,0.13843 1.15517,0.22978 1.13357,0.3197 1.105,0.40765 1.0696,0.4931 1.02762,0.57549 0.9793,0.65435 0.92495,0.72917 0.86488,0.79949 0.79949,0.86488 0.72916,0.92494 0.65435,0.9793 0.57549,1.02762 0.4931,1.06961 0.40765,1.10499 0.31971,1.13358 0.22977,1.15516 0.13844,1.16963 z"
       fill-opacity="1"
       id="path180" />
    <text
       fill="#000000"
       stroke="none"
       font-family="'Helvetica Neue', Helvetica, sans-serif"
       font-size="8px"
       font-style="normal"
       font-weight="normal"
       text-decoration="normal"
       x="264.52652"
       y="258.30084"
       text-anchor="middle"
       dominant-baseline="text-after-edge"
       fill-opacity="1"
       id="text182">binding-buffer</text>
    <path
       fill="#e28150"
       stroke="none"
       paint-order="stroke fill markers"
       d="m 278.61998,357.12902 -0.0462,1.17689 -0.13843,1.16963 -0.22978,1.15516 -0.3197,1.13358 -0.40765,1.105 -0.4931,1.0696 -0.57549,1.02762 -0.65435,0.9793 -0.72917,0.92495 -0.79948,0.86488 -0.86489,0.79948 -0.92494,0.72917 -0.9793,0.65435 -1.02762,0.57549 -1.06961,0.4931 -1.10499,0.40765 -1.13358,0.3197 -1.15516,0.22978 -1.16963,0.13843 -1.17689,0.0462 -1.17688,-0.0462 -1.16963,-0.13843 -1.15517,-0.22978 -1.13357,-0.3197 -1.105,-0.40765 -1.0696,-0.4931 -1.02763,-0.57549 -0.9793,-0.65435 -0.92494,-0.72917 -0.86488,-0.79948 -0.79949,-0.86488 -0.72916,-0.92495 -0.65435,-0.9793 -0.57549,-1.02762 -0.4931,-1.0696 -0.40765,-1.105 -0.31971,-1.13358 -0.22977,-1.15516 -0.13844,-1.16963 -0.0462,-1.17689 0.0462,-1.17688 0.13844,-1.16963 0.22977,-1.15517 0.31971,-1.13357 0.40765,-1.105 0.4931,-1.0696 0.57549,-1.02762 0.65435,-0.9793 0.72916,-0.92495 0.79949,-0.86488 0.86488,-0.79949 0.92494,-0.72916 0.9793,-0.65435 1.02763,-0.57549 1.0696,-0.4931 1.105,-0.40765 1.13357,-0.3197 1.15517,-0.22978 1.16963,-0.13844 1.17688,-0.0462 1.17689,0.0462 1.16963,0.13844 1.15516,0.22978 1.13358,0.3197 1.10499,0.40765 1.06961,0.4931 1.02762,0.57549 0.9793,0.65435 0.92494,0.72916 0.86489,0.79949 0.79948,0.86488 0.72917,0.92495 0.65435,0.9793 0.57549,1.02762 0.4931,1.0696 0.40765,1.105 0.3197,1.13357 0.22978,1.15517 0.13843,1.16963 z"
       fill-opacity="1"
       id="path184" />
    <text
       fill="#000000"
       stroke="none"
       font-family="'Helvetica Neue', Helvetica, sans-serif"
       font-size="8px"
       font-style="normal"
       font-weight="normal"
       text-decoration="normal"
       x="263.61996"
       y="343.60596"
       text-anchor="middle"
       dominant-baseline="text-after-edge"
       fill-opacity="1"
       id="text186">wash-buffer</text>
    <path
       fill="#e28150"
       stroke="none"
       paint-order="stroke fill markers"
       d="m 278.95618,431.07198 -0.0462,1.17689 -0.13844,1.16963 -0.22977,1.15516 -0.3197,1.13358 -0.40766,1.10499 -0.49309,1.06961 -0.5755,1.02762 -0.65435,0.9793 -0.72916,0.92494 -0.79949,0.86488 -0.86488,0.79949 -0.92494,0.72917 -0.9793,0.65435 -1.02762,0.57549 -1.06961,0.4931 -1.105,0.40765 -1.13357,0.3197 -1.15516,0.22978 -1.16963,0.13843 -1.17689,0.0462 -1.17689,-0.0462 -1.16963,-0.13843 -1.15516,-0.22978 -1.13358,-0.3197 -1.10499,-0.40765 -1.06961,-0.4931 -1.02762,-0.57549 -0.9793,-0.65435 -0.92494,-0.72917 -0.86488,-0.79949 -0.79949,-0.86488 -0.72917,-0.92494 -0.65434,-0.9793 -0.5755,-1.02762 -0.49309,-1.06961 -0.40766,-1.10499 -0.3197,-1.13358 -0.22978,-1.15516 -0.13843,-1.16963 -0.0462,-1.17689 0.0462,-1.17688 0.13843,-1.16963 0.22978,-1.15517 0.3197,-1.13357 0.40766,-1.105 0.49309,-1.0696 0.5755,-1.02763 0.65434,-0.9793 0.72917,-0.92494 0.79949,-0.86488 0.86488,-0.79949 0.92494,-0.72916 0.9793,-0.65435 1.02762,-0.57549 1.06961,-0.4931 1.10499,-0.40765 1.13358,-0.31971 1.15516,-0.22977 1.16963,-0.13844 1.17689,-0.0462 1.17689,0.0462 1.16963,0.13844 1.15516,0.22977 1.13357,0.31971 1.105,0.40765 1.06961,0.4931 1.02762,0.57549 0.9793,0.65435 0.92494,0.72916 0.86488,0.79949 0.79949,0.86488 0.72916,0.92494 0.65435,0.9793 0.5755,1.02763 0.49309,1.0696 0.40766,1.105 0.3197,1.13357 0.22977,1.15517 0.13844,1.16963 z"
       fill-opacity="1"
       id="path188" />
    <text
       fill="#000000"
       stroke="none"
       font-family="'Helvetica Neue', Helvetica, sans-serif"
       font-size="8px"
       font-style="normal"
       font-weight="normal"
       text-decoration="normal"
       x="265.43311"
       y="416.07199"
       text-anchor="middle"
       dominant-baseline="text-after-edge"
       fill-opacity="1"
       id="text190">elution-buffer</text>
    <path
       fill="#e28150"
       stroke="none"
       paint-order="stroke fill markers"
       d="m 450.88107,327.02193 -0.0462,1.17689 -0.13843,1.16963 -0.22978,1.15516 -0.3197,1.13358 -0.40765,1.10499 -0.4931,1.06961 -0.57549,1.02762 -0.65435,0.9793 -0.72917,0.92494 -0.79949,0.86488 -0.86488,0.79949 -0.92494,0.72917 -0.9793,0.65434 -1.02762,0.5755 -1.06961,0.49309 -1.10499,0.40766 -1.13358,0.3197 -1.15516,0.22978 -1.16963,0.13843 -1.17689,0.0462 -1.17688,-0.0462 -1.16963,-0.13843 -1.15517,-0.22978 -1.13357,-0.3197 -1.105,-0.40766 -1.0696,-0.49309 -1.02763,-0.5755 -0.9793,-0.65434 -0.92494,-0.72917 -0.86488,-0.79949 -0.79949,-0.86488 -0.72916,-0.92494 -0.65435,-0.9793 -0.57549,-1.02762 -0.4931,-1.06961 -0.40765,-1.10499 -0.31971,-1.13358 -0.22977,-1.15516 -0.13844,-1.16963 -0.0462,-1.17689 0.0462,-1.17688 0.13844,-1.16964 0.22977,-1.15516 0.31971,-1.13357 0.40765,-1.105 0.4931,-1.06961 0.57549,-1.02762 0.65435,-0.9793 0.72916,-0.92494 0.79949,-0.86488 0.86488,-0.79949 0.92494,-0.72916 0.9793,-0.65435 1.02763,-0.5755 1.0696,-0.49309 1.105,-0.40766 1.13357,-0.3197 1.15517,-0.22977 1.16963,-0.13844 1.17688,-0.0462 1.17689,0.0462 1.16963,0.13844 1.15516,0.22977 1.13358,0.3197 1.10499,0.40766 1.06961,0.49309 1.02762,0.5755 0.9793,0.65435 0.92494,0.72916 0.86488,0.79949 0.79949,0.86488 0.72917,0.92494 0.65435,0.9793 0.57549,1.02762 0.4931,1.06961 0.40765,1.105 0.3197,1.13357 0.22978,1.15516 0.13843,1.16964 z"
       fill-opacity="1"
       id="path192" />
    <text
       fill="#000000"
       stroke="none"
       font-family="'Helvetica Neue', Helvetica, sans-serif"
       font-size="8px"
       font-style="normal"
       font-weight="normal"
       text-decoration="normal"
       x="435.88107"
       y="312.02194"
       text-anchor="middle"
       dominant-baseline="text-after-edge"
       fill-opacity="1"
       id="text194">water</text>
    <path
       fill="#e28150"
       stroke="none"
       paint-order="stroke fill markers"
       d="m 450.31071,382.73161 -0.0462,1.17689 -0.13844,1.16963 -0.22978,1.15516 -0.3197,1.13357 -0.40765,1.105 -0.4931,1.06961 -0.57549,1.02762 -0.65435,0.9793 -0.72916,0.92494 -0.79949,0.86488 -0.86488,0.79949 -0.92495,0.72916 -0.9793,0.65435 -1.02762,0.5755 -1.0696,0.49309 -1.105,0.40766 -1.13357,0.3197 -1.15517,0.22978 -1.16963,0.13843 -1.17688,0.0462 -1.17689,-0.0462 -1.16963,-0.13843 -1.15516,-0.22978 -1.13358,-0.3197 -1.105,-0.40766 -1.0696,-0.49309 -1.02762,-0.5755 -0.9793,-0.65435 -0.92495,-0.72916 -0.86488,-0.79949 -0.79948,-0.86488 -0.72917,-0.92494 -0.65435,-0.9793 -0.57549,-1.02762 -0.4931,-1.06961 -0.40765,-1.105 -0.3197,-1.13357 -0.22978,-1.15516 -0.13843,-1.16963 -0.0462,-1.17689 0.0462,-1.17689 0.13843,-1.16963 0.22978,-1.15516 0.3197,-1.13357 0.40765,-1.105 0.4931,-1.06961 0.57549,-1.02762 0.65435,-0.9793 0.72917,-0.92494 0.79948,-0.86488 0.86488,-0.79949 0.92495,-0.72916 0.9793,-0.65435 1.02762,-0.5755 1.0696,-0.49309 1.105,-0.40766 1.13358,-0.3197 1.15516,-0.22978 1.16963,-0.13843 1.17689,-0.0462 1.17688,0.0462 1.16963,0.13843 1.15517,0.22978 1.13357,0.3197 1.105,0.40766 1.0696,0.49309 1.02762,0.5755 0.9793,0.65435 0.92495,0.72916 0.86488,0.79949 0.79949,0.86488 0.72916,0.92494 0.65435,0.9793 0.57549,1.02762 0.4931,1.06961 0.40765,1.105 0.3197,1.13357 0.22978,1.15516 0.13844,1.16963 z"
       fill-opacity="1"
       id="path196" />
    <text
       fill="#000000"
       stroke="none"
       font-family="'Helvetica Neue', Helvetica, sans-serif"
       font-size="8px"
       font-style="normal"
       font-weight="normal"
       text-decoration="normal"
       x="436.78763"
       y="367.7316"
       text-anchor="middle"
       dominant-baseline="text-after-edge"
       fill-opacity="1"
       id="text198">ligase</text>
    <path
       fill="#e28150"
       stroke="none"
       paint-order="stroke fill markers"
       d="m 650.58828,356.66131 -0.0462,1.17688 -0.13843,1.16963 -0.22978,1.15517 -0.3197,1.13357 -0.40766,1.105 -0.49309,1.0696 -0.5755,1.02762 -0.65434,0.9793 -0.72917,0.92495 -0.79949,0.86488 -0.86488,0.79949 -0.92494,0.72916 -0.9793,0.65435 -1.02762,0.57549 -1.06961,0.4931 -1.10499,0.40765 -1.13358,0.3197 -1.15516,0.22978 -1.16963,0.13844 -1.17689,0.0462 -1.17689,-0.0462 -1.16963,-0.13844 -1.15516,-0.22978 -1.13357,-0.3197 -1.105,-0.40765 -1.06961,-0.4931 -1.02762,-0.57549 -0.9793,-0.65435 -0.92494,-0.72916 -0.86488,-0.79949 -0.79949,-0.86488 -0.72916,-0.92495 -0.65435,-0.9793 -0.5755,-1.02762 -0.49309,-1.0696 -0.40766,-1.105 -0.3197,-1.13357 -0.22977,-1.15517 -0.13844,-1.16963 -0.0462,-1.17688 0.0462,-1.17689 0.13844,-1.16963 0.22977,-1.15516 0.3197,-1.13358 0.40766,-1.105 0.49309,-1.0696 0.5755,-1.02762 0.65435,-0.9793 0.72916,-0.92494 0.79949,-0.86489 0.86488,-0.79948 0.92494,-0.72917 0.9793,-0.65435 1.02762,-0.57549 1.06961,-0.4931 1.105,-0.40765 1.13357,-0.3197 1.15516,-0.22978 1.16963,-0.13843 1.17689,-0.0462 1.17689,0.0462 1.16963,0.13843 1.15516,0.22978 1.13358,0.3197 1.10499,0.40765 1.06961,0.4931 1.02762,0.57549 0.9793,0.65435 0.92494,0.72917 0.86488,0.79948 0.79949,0.86489 0.72917,0.92494 0.65434,0.9793 0.5755,1.02762 0.49309,1.0696 0.40766,1.105 0.3197,1.13358 0.22978,1.15516 0.13843,1.16963 z"
       fill-opacity="1"
       id="path200" />
    <text
       fill="#000000"
       stroke="none"
       font-family="'Helvetica Neue', Helvetica, sans-serif"
       font-size="8px"
       font-style="normal"
       font-weight="normal"
       text-decoration="normal"
       x="635.58832"
       y="341.66132"
       text-anchor="middle"
       dominant-baseline="text-after-edge"
       fill-opacity="1"
       id="text202">ligased-dna</text>
    <path
       fill="#e28150"
       stroke="none"
       paint-order="stroke fill markers"
       d="m 651.94812,273.08144 -0.0462,1.17689 -0.13843,1.16963 -0.22978,1.15516 -0.3197,1.13358 -0.40765,1.105 -0.4931,1.0696 -0.57549,1.02762 -0.65435,0.9793 -0.72917,0.92494 -0.79948,0.86489 -0.86488,0.79948 -0.92495,0.72917 -0.9793,0.65435 -1.02762,0.57549 -1.0696,0.4931 -1.105,0.40765 -1.13358,0.3197 -1.15516,0.22978 -1.16963,0.13843 -1.17689,0.0462 -1.17688,-0.0462 -1.16963,-0.13843 -1.15517,-0.22978 -1.13357,-0.3197 -1.105,-0.40765 -1.0696,-0.4931 -1.02762,-0.57549 -0.9793,-0.65435 -0.92495,-0.72917 -0.86488,-0.79948 -0.79949,-0.86489 -0.72916,-0.92494 -0.65435,-0.9793 -0.57549,-1.02762 -0.4931,-1.0696 -0.40765,-1.105 -0.3197,-1.13358 -0.22978,-1.15516 -0.13844,-1.16963 -0.0462,-1.17689 0.0462,-1.17688 0.13844,-1.16963 0.22978,-1.15517 0.3197,-1.13357 0.40765,-1.105 0.4931,-1.0696 0.57549,-1.02762 0.65435,-0.9793 0.72916,-0.92495 0.79949,-0.86488 0.86488,-0.79949 0.92495,-0.72916 0.9793,-0.65435 1.02762,-0.57549 1.0696,-0.4931 1.105,-0.40765 1.13357,-0.3197 1.15517,-0.22978 1.16963,-0.13844 1.17688,-0.0462 1.17689,0.0462 1.16963,0.13844 1.15516,0.22978 1.13358,0.3197 1.105,0.40765 1.0696,0.4931 1.02762,0.57549 0.9793,0.65435 0.92495,0.72916 0.86488,0.79949 0.79948,0.86488 0.72917,0.92495 0.65435,0.9793 0.57549,1.02762 0.4931,1.0696 0.40765,1.105 0.3197,1.13357 0.22978,1.15517 0.13843,1.16963 z"
       fill-opacity="1"
       id="path204" />
    <text
       fill="#000000"
       stroke="none"
       font-family="'Helvetica Neue', Helvetica, sans-serif"
       font-size="8px"
       font-style="normal"
       font-weight="normal"
       text-decoration="normal"
       x="636.94812"
       y="258.08145"
       text-anchor="middle"
       dominant-baseline="text-after-edge"
       fill-opacity="1"
       id="text206">compotent-cells</text>
    <path
       fill="#e28150"
       stroke="none"
       paint-order="stroke fill markers"
       d="m 826.73357,272.40895 -0.0462,1.17689 -0.13843,1.16963 -0.22978,1.15516 -0.3197,1.13358 -0.40766,1.105 -0.49309,1.0696 -0.5755,1.02762 -0.65434,0.9793 -0.72917,0.92494 -0.79949,0.86489 -0.86488,0.79948 -0.92494,0.72917 -0.9793,0.65435 -1.02762,0.57549 -1.06961,0.4931 -1.10499,0.40765 -1.13358,0.3197 -1.15516,0.22978 -1.16963,0.13843 -1.17689,0.0462 -1.17689,-0.0462 -1.16963,-0.13843 -1.15516,-0.22978 -1.13357,-0.3197 -1.105,-0.40765 -1.06961,-0.4931 -1.02762,-0.57549 -0.9793,-0.65435 -0.92494,-0.72917 -0.86488,-0.79948 -0.79949,-0.86489 -0.72916,-0.92494 -0.65435,-0.9793 -0.5755,-1.02762 -0.49309,-1.0696 -0.40766,-1.105 -0.3197,-1.13358 -0.22977,-1.15516 -0.13844,-1.16963 -0.0462,-1.17689 0.0462,-1.17688 0.13844,-1.16963 0.22977,-1.15517 0.3197,-1.13357 0.40766,-1.105 0.49309,-1.0696 0.5755,-1.02762 0.65435,-0.97931 0.72916,-0.92494 0.79949,-0.86488 0.86488,-0.79949 0.92494,-0.72916 0.9793,-0.65435 1.02762,-0.57549 1.06961,-0.4931 1.105,-0.40765 1.13357,-0.31971 1.15516,-0.22977 1.16963,-0.13844 1.17689,-0.0462 1.17689,0.0462 1.16963,0.13844 1.15516,0.22977 1.13358,0.31971 1.10499,0.40765 1.06961,0.4931 1.02762,0.57549 0.9793,0.65435 0.92494,0.72916 0.86488,0.79949 0.79949,0.86488 0.72917,0.92494 0.65434,0.97931 0.5755,1.02762 0.49309,1.0696 0.40766,1.105 0.3197,1.13357 0.22978,1.15517 0.13843,1.16963 z"
       fill-opacity="1"
       id="path208" />
    <text
       fill="#000000"
       stroke="none"
       font-family="'Helvetica Neue', Helvetica, sans-serif"
       font-size="8px"
       font-style="normal"
       font-weight="normal"
       text-decoration="normal"
       x="813.21051"
       y="257.40897"
       text-anchor="middle"
       dominant-baseline="text-after-edge"
       fill-opacity="1"
       id="text210">growth-media</text>
    <path
       fill="#e28150"
       stroke="none"
       paint-order="stroke fill markers"
       d="m 1028.8296,357.16455 -0.046,1.17689 -0.1385,1.16963 -0.2297,1.15516 -0.3197,1.13357 -0.4077,1.105 -0.4931,1.06961 -0.5755,1.02762 -0.6543,0.9793 -0.7292,0.92494 -0.7995,0.86488 -0.8649,0.79949 -0.9249,0.72916 -0.9793,0.65435 -1.0276,0.5755 -1.0696,0.49309 -1.105,0.40766 -1.1336,0.3197 -1.1552,0.22977 -1.1696,0.13844 -1.1769,0.0462 -1.1769,-0.0462 -1.1696,-0.13844 -1.1552,-0.22977 -1.1335,-0.3197 -1.105,-0.40766 -1.0696,-0.49309 -1.0277,-0.5755 -0.9793,-0.65435 -0.9249,-0.72916 -0.8649,-0.79949 -0.7995,-0.86488 -0.7291,-0.92494 -0.6544,-0.9793 -0.5755,-1.02762 -0.49308,-1.06961 -0.4076,-1.105 -0.3197,-1.13357 -0.2298,-1.15516 -0.1385,-1.16963 -0.046,-1.17689 0.046,-1.17689 0.1385,-1.16963 0.2298,-1.15516 0.3197,-1.13358 0.4076,-1.10499 0.49308,-1.06961 0.5755,-1.02762 0.6544,-0.9793 0.7291,-0.92494 0.7995,-0.86488 0.8649,-0.79949 0.9249,-0.72917 0.9793,-0.65434 1.0277,-0.5755 1.0696,-0.49309 1.105,-0.40766 1.1335,-0.3197 1.1552,-0.22978 1.1696,-0.13843 1.1769,-0.0462 1.1769,0.0462 1.1696,0.13843 1.1552,0.22978 1.1336,0.3197 1.105,0.40766 1.0696,0.49309 1.0276,0.5755 0.9793,0.65434 0.9249,0.72917 0.8649,0.79949 0.7995,0.86488 0.7292,0.92494 0.6543,0.9793 0.5755,1.02762 0.4931,1.06961 0.4077,1.10499 0.3197,1.13358 0.2297,1.15516 0.1385,1.16963 z"
       fill-opacity="1"
       id="path212" />
    <text
       fill="#000000"
       stroke="none"
       font-family="'Helvetica Neue', Helvetica, sans-serif"
       font-size="8px"
       font-style="normal"
       font-weight="normal"
       text-decoration="normal"
       x="1013.8297"
       y="342.16455"
       text-anchor="middle"
       dominant-baseline="text-after-edge"
       fill-opacity="1"
       id="text214">culture-plate</text>
    <path
       fill="#e2e250"
       stroke="none"
       paint-order="stroke fill markers"
       d="m 106.51042,356.94351 -0.0462,1.17689 -0.13843,1.16963 -0.22978,1.15516 -0.3197,1.13357 -0.40766,1.105 -0.49309,1.06961 -0.5755,1.02762 -0.65435,0.9793 -0.72916,0.92494 -0.79949,0.86488 -0.86488,0.79949 -0.92494,0.72916 -0.979301,0.65435 -1.02762,0.5755 -1.06961,0.49309 -1.104995,0.40766 -1.133575,0.3197 -1.155163,0.22978 -1.169631,0.13843 -1.176926,0.0462 -1.176886,-0.0462 -1.169631,-0.13843 -1.155163,-0.22978 -1.133575,-0.3197 -1.104996,-0.40766 -1.069606,-0.49309 -1.027621,-0.5755 -0.979301,-0.65435 -0.924942,-0.72916 -0.864881,-0.79949 -0.799487,-0.86488 -0.729166,-0.92494 -0.654347,-0.9793 -0.575496,-1.02762 -0.493095,-1.06961 -0.407655,-1.105 -0.319701,-1.13357 -0.229776,-1.15516 -0.138435,-1.16967 -0.04624,-1.17689 0.04624,-1.17689 0.138435,-1.16963 0.229776,-1.15516 0.319701,-1.13357 0.407655,-1.105 0.493095,-1.06961 0.575496,-1.02762 0.654347,-0.9793 0.729166,-0.92494 0.799487,-0.86488 0.864881,-0.79949 0.924942,-0.72916 0.979301,-0.65435 1.027621,-0.5755 1.069606,-0.49309 1.104996,-0.40766 1.133575,-0.3197 1.155163,-0.22978 1.169631,-0.13843 1.176886,-0.0462 1.176886,0.0462 1.169631,0.13843 1.155163,0.22978 1.133575,0.3197 1.104995,0.40766 1.06961,0.49309 1.02762,0.5755 0.979301,0.65435 0.92494,0.72916 0.86488,0.79949 0.79949,0.86488 0.72916,0.92494 0.65435,0.9793 0.5755,1.02762 0.49309,1.06961 0.40766,1.105 0.3197,1.13357 0.22978,1.15516 0.13843,1.16963 z"
       fill-opacity="1"
       id="path216"
       style="fill:#e2e250;fill-opacity:1" />
    <text
       fill="#000000"
       stroke="none"
       font-family="'Helvetica Neue', Helvetica, sans-serif"
       font-size="8px"
       font-style="normal"
       font-weight="normal"
       text-decoration="normal"
       x="91.510422"
       y="343.42044"
       text-anchor="middle"
       dominant-baseline="text-after-edge"
       fill-opacity="1"
       id="text218">Restriction</text>
    <path
       fill="#e28150"
       stroke="none"
       paint-order="stroke fill markers"
       d="m 180.00868,430.97025 -0.0462,1.17689 -0.13843,1.16963 -0.22978,1.15516 -0.3197,1.13358 -0.40765,1.105 -0.4931,1.0696 -0.57549,1.02762 -0.65435,0.9793 -0.72917,0.92495 -0.79948,0.86488 -0.86489,0.79948 -0.92494,0.72917 -0.9793,0.65435 -1.02762,0.57549 -1.0696,0.4931 -1.105,0.40765 -1.13358,0.3197 -1.15516,0.22978 -1.16963,0.13843 -1.17689,0.0462 -1.17688,-0.0462 -1.16963,-0.13843 -1.15517,-0.22978 -1.13357,-0.3197 -1.105,-0.40765 -1.0696,-0.4931 -1.02762,-0.57549 -0.9793,-0.65435 -0.92495,-0.72917 -0.86488,-0.79948 -0.79949,-0.86488 -0.72916,-0.92495 -0.65435,-0.9793 -0.57549,-1.02762 -0.4931,-1.0696 -0.40765,-1.105 -0.3197,-1.13358 -0.22978,-1.15516 -0.13844,-1.16963 -0.0462,-1.17689 0.0462,-1.17688 0.13844,-1.16963 0.22978,-1.15517 0.3197,-1.13357 0.40765,-1.105 0.4931,-1.0696 0.57549,-1.02762 0.65435,-0.9793 0.72916,-0.92495 0.79949,-0.86488 0.86488,-0.79949 0.92495,-0.72916 0.9793,-0.65435 1.02762,-0.57549 1.0696,-0.4931 1.105,-0.40765 1.13357,-0.3197 1.15517,-0.22978 1.16963,-0.13844 1.17688,-0.0462 1.17689,0.0462 1.16963,0.13844 1.15516,0.22978 1.13358,0.3197 1.105,0.40765 1.0696,0.4931 1.02762,0.57549 0.9793,0.65435 0.92494,0.72916 0.86489,0.79949 0.79948,0.86488 0.72917,0.92495 0.65435,0.9793 0.57549,1.02762 0.4931,1.0696 0.40765,1.105 0.3197,1.13357 0.22978,1.15517 0.13843,1.16963 z"
       fill-opacity="1"
       id="path220" />
    <text
       fill="#000000"
       stroke="none"
       font-family="'Helvetica Neue', Helvetica, sans-serif"
       font-size="8px"
       font-style="normal"
       font-weight="normal"
       text-decoration="normal"
       x="165.0087"
       y="415.97025"
       text-anchor="middle"
       dominant-baseline="text-after-edge"
       fill-opacity="1"
       id="text222">gBlock-nor</text>
    <path
       fill="#e28150"
       stroke="none"
       paint-order="stroke fill markers"
       d="m 179.59968,273.62482 -0.0462,1.17688 -0.13844,1.16963 -0.22977,1.15517 -0.3197,1.13357 -0.40766,1.105 -0.49309,1.06961 -0.5755,1.02762 -0.65435,0.9793 -0.72916,0.92494 -0.79949,0.86488 -0.86488,0.79949 -0.92494,0.72916 -0.9793,0.65435 -1.02762,0.5755 -1.06961,0.49309 -1.105,0.40766 -1.13357,0.3197 -1.15516,0.22977 -1.16963,0.13844 -1.17689,0.0462 -1.17689,-0.0462 -1.16963,-0.13844 -1.15516,-0.22977 -1.13358,-0.3197 -1.10499,-0.40766 -1.06961,-0.49309 -1.02762,-0.5755 -0.9793,-0.65435 -0.92494,-0.72916 -0.86488,-0.79949 -0.79949,-0.86488 -0.72917,-0.92494 -0.65434,-0.9793 -0.5755,-1.02762 -0.49309,-1.06961 -0.40766,-1.105 -0.3197,-1.13357 -0.22978,-1.15517 -0.13843,-1.16963 -0.0462,-1.17688 0.0462,-1.17689 0.13843,-1.16963 0.22978,-1.15516 0.3197,-1.13358 0.40766,-1.10499 0.49309,-1.06961 0.5755,-1.02762 0.65434,-0.9793 0.72917,-0.92494 0.79949,-0.86488 0.86488,-0.79949 0.92494,-0.72917 0.9793,-0.65434 1.02762,-0.5755 1.06961,-0.4931 1.10499,-0.40765 1.13358,-0.3197 1.15516,-0.22978 1.16963,-0.13843 1.17689,-0.0462 1.17689,0.0462 1.16963,0.13843 1.15516,0.22978 1.13357,0.3197 1.105,0.40765 1.06961,0.4931 1.02762,0.5755 0.9793,0.65434 0.92494,0.72917 0.86488,0.79949 0.79949,0.86488 0.72916,0.92494 0.65435,0.9793 0.5755,1.02762 0.49309,1.06961 0.40766,1.10499 0.3197,1.13358 0.22977,1.15516 0.13844,1.16963 z"
       fill-opacity="1"
       id="path224" />
    <text
       fill="#000000"
       stroke="none"
       font-family="'Helvetica Neue', Helvetica, sans-serif"
       font-size="8px"
       font-style="normal"
       font-weight="normal"
       text-decoration="normal"
       x="166.07661"
       y="258.62482"
       text-anchor="middle"
       dominant-baseline="text-after-edge"
       fill-opacity="1"
       id="text226">plasmid</text>
    <path
       fill="#81e250"
       stroke="none"
       paint-order="stroke fill markers"
       d="m 363.79295,356.67574 -0.0462,1.17689 -0.13843,1.16963 -0.22978,1.15516 -0.3197,1.13358 -0.40765,1.10499 -0.4931,1.06961 -0.57549,1.02762 -0.65435,0.9793 -0.72917,0.92494 -0.79949,0.86488 -0.86488,0.79949 -0.92494,0.72917 -0.9793,0.65435 -1.02762,0.57549 -1.06961,0.4931 -1.10499,0.40765 -1.13358,0.3197 -1.15516,0.22978 -1.16963,0.13843 -1.17689,0.0462 -1.17688,-0.0462 -1.16963,-0.13843 -1.15517,-0.22978 -1.13357,-0.3197 -1.105,-0.40765 -1.0696,-0.4931 -1.02763,-0.57549 -0.9793,-0.65435 -0.92494,-0.72917 -0.86488,-0.79949 -0.79949,-0.86488 -0.72916,-0.92494 -0.65435,-0.9793 -0.57549,-1.02762 -0.4931,-1.06961 -0.40765,-1.10499 -0.31971,-1.13358 -0.22977,-1.15516 -0.13844,-1.16963 -0.0462,-1.17689 0.0462,-1.17688 0.13844,-1.16963 0.22977,-1.15517 0.31971,-1.13357 0.40765,-1.105 0.4931,-1.0696 0.57549,-1.02763 0.65435,-0.9793 0.72916,-0.92494 0.79949,-0.86488 0.86488,-0.79949 0.92494,-0.72916 0.9793,-0.65435 1.02763,-0.57549 1.0696,-0.4931 1.105,-0.40765 1.13357,-0.31971 1.15517,-0.22977 1.16963,-0.13844 1.17688,-0.0462 1.17689,0.0462 1.16963,0.13844 1.15516,0.22977 1.13358,0.31971 1.10499,0.40765 1.06961,0.4931 1.02762,0.57549 0.9793,0.65435 0.92494,0.72916 0.86488,0.79949 0.79949,0.86488 0.72917,0.92494 0.65435,0.9793 0.57549,1.02763 0.4931,1.0696 0.40765,1.105 0.3197,1.13357 0.22978,1.15517 0.13843,1.16963 z"
       fill-opacity="1"
       id="path228"
       style="fill:#e2e250;fill-opacity:1" />
    <text
       fill="#000000"
       stroke="none"
       font-family="'Helvetica Neue', Helvetica, sans-serif"
       font-size="8px"
       font-style="normal"
       font-weight="normal"
       text-decoration="normal"
       x="348.79294"
       y="343.15268"
       text-anchor="middle"
       dominant-baseline="text-after-edge"
       fill-opacity="1"
       id="text230">Purification</text>
    <path
       fill="#e28150"
       stroke="none"
       paint-order="stroke fill markers"
       d="m 451.21727,436.30669 -0.0462,1.17688 -0.13844,1.16963 -0.22977,1.15517 -0.3197,1.13357 -0.40766,1.105 -0.49309,1.0696 -0.5755,1.02763 -0.65435,0.9793 -0.72916,0.92494 -0.79949,0.86488 -0.86488,0.79949 -0.92494,0.72916 -0.9793,0.65435 -1.02762,0.57549 -1.06961,0.4931 -1.105,0.40765 -1.13357,0.31971 -1.15516,0.22977 -1.16964,0.13844 -1.17688,0.0462 -1.17689,-0.0462 -1.16963,-0.13844 -1.15516,-0.22977 -1.13358,-0.31971 -1.10499,-0.40765 -1.06961,-0.4931 -1.02762,-0.57549 -0.9793,-0.65435 -0.92494,-0.72916 -0.86488,-0.79949 -0.79949,-0.86488 -0.72917,-0.92494 -0.65434,-0.9793 -0.5755,-1.02763 -0.49309,-1.0696 -0.40766,-1.105 -0.3197,-1.13357 -0.22978,-1.15517 -0.13843,-1.16963 -0.0462,-1.17688 0.0462,-1.17689 0.13843,-1.16963 0.22978,-1.15516 0.3197,-1.13358 0.40766,-1.10499 0.49309,-1.06961 0.5755,-1.02762 0.65434,-0.9793 0.72917,-0.92494 0.79949,-0.86488 0.86488,-0.79949 0.92494,-0.72917 0.9793,-0.65435 1.02762,-0.57549 1.06961,-0.4931 1.10499,-0.40765 1.13358,-0.3197 1.15516,-0.22978 1.16963,-0.13843 1.17689,-0.0462 1.17688,0.0462 1.16964,0.13843 1.15516,0.22978 1.13357,0.3197 1.105,0.40765 1.06961,0.4931 1.02762,0.57549 0.9793,0.65435 0.92494,0.72917 0.86488,0.79949 0.79949,0.86488 0.72916,0.92494 0.65435,0.9793 0.5755,1.02762 0.49309,1.06961 0.40766,1.10499 0.3197,1.13358 0.22977,1.15516 0.13844,1.16963 z"
       fill-opacity="1"
       id="path232" />
    <text
       fill="#000000"
       stroke="none"
       font-family="'Helvetica Neue', Helvetica, sans-serif"
       font-size="8px"
       font-style="normal"
       font-weight="normal"
       text-decoration="normal"
       x="437.69418"
       y="421.3067"
       text-anchor="middle"
       dominant-baseline="text-after-edge"
       fill-opacity="1"
       id="text234">purified gBlock-nor</text>
    <path
       fill="#e28150"
       stroke="none"
       paint-order="stroke fill markers"
       d="m 450.66196,273.48745 -0.0462,1.17688 -0.13843,1.16963 -0.22978,1.15517 -0.3197,1.13357 -0.40765,1.105 -0.4931,1.0696 -0.57549,1.02762 -0.65435,0.9793 -0.72917,0.92495 -0.79949,0.86488 -0.86488,0.79948 -0.92494,0.72917 -0.9793,0.65435 -1.02762,0.57549 -1.06961,0.4931 -1.10499,0.40765 -1.13358,0.3197 -1.15516,0.22978 -1.16963,0.13844 -1.17689,0.0462 -1.17688,-0.0462 -1.16963,-0.13844 -1.15517,-0.22978 -1.13357,-0.3197 -1.105,-0.40765 -1.0696,-0.4931 -1.02763,-0.57549 -0.9793,-0.65435 -0.92494,-0.72917 -0.86488,-0.79948 -0.79949,-0.86488 -0.72916,-0.92495 -0.65435,-0.9793 -0.57549,-1.02762 -0.4931,-1.0696 -0.40765,-1.105 -0.31971,-1.13357 -0.22977,-1.15517 -0.13844,-1.16963 -0.0462,-1.17688 0.0462,-1.17689 0.13844,-1.16963 0.22977,-1.15517 0.31971,-1.13357 0.40765,-1.105 0.4931,-1.0696 0.57549,-1.02762 0.65435,-0.9793 0.72916,-0.92495 0.79949,-0.86488 0.86488,-0.79948 0.92494,-0.72917 0.9793,-0.65435 1.02763,-0.57549 1.0696,-0.4931 1.105,-0.40765 1.13357,-0.3197 1.15517,-0.22978 1.16963,-0.13843 1.17688,-0.0462 1.17689,0.0462 1.16963,0.13843 1.15516,0.22978 1.13358,0.3197 1.10499,0.40765 1.06961,0.4931 1.02762,0.57549 0.9793,0.65435 0.92494,0.72917 0.86488,0.79948 0.79949,0.86488 0.72917,0.92495 0.65435,0.9793 0.57549,1.02762 0.4931,1.0696 0.40765,1.105 0.3197,1.13357 0.22978,1.15517 0.13843,1.16963 z"
       fill-opacity="1"
       id="path236" />
    <text
       fill="#000000"
       stroke="none"
       font-family="'Helvetica Neue', Helvetica, sans-serif"
       font-size="8px"
       font-style="normal"
       font-weight="normal"
       text-decoration="normal"
       x="437.13889"
       y="258.48746"
       text-anchor="middle"
       dominant-baseline="text-after-edge"
       fill-opacity="1"
       id="text238">purified plasmid</text>
    <path
       fill="#50e281"
       stroke="none"
       paint-order="stroke fill markers"
       d="m 554.53656,357.68495 -0.0462,1.17689 -0.13844,1.16963 -0.22977,1.15517 -0.31971,1.13357 -0.40765,1.105 -0.4931,1.0696 -0.57549,1.02762 -0.65435,0.9793 -0.72916,0.92495 -0.79949,0.86488 -0.86488,0.79948 -0.92494,0.72917 -0.97931,0.65435 -1.02762,0.57549 -1.0696,0.4931 -1.105,0.40765 -1.13357,0.3197 -1.15517,0.22978 -1.16963,0.13843 -1.17688,0.0462 -1.17689,-0.0462 -1.16963,-0.13843 -1.15516,-0.22978 -1.13358,-0.3197 -1.105,-0.40765 -1.0696,-0.4931 -1.02762,-0.57549 -0.9793,-0.65435 -0.92494,-0.72917 -0.86489,-0.79948 -0.79948,-0.86488 -0.72917,-0.92495 -0.65435,-0.9793 -0.57549,-1.02762 -0.4931,-1.0696 -0.40765,-1.105 -0.3197,-1.13357 -0.22978,-1.15517 -0.13843,-1.16963 -0.0462,-1.17689 0.0462,-1.17688 0.13843,-1.16963 0.22978,-1.15517 0.3197,-1.13357 0.40765,-1.105 0.4931,-1.0696 0.57549,-1.02762 0.65435,-0.9793 0.72917,-0.92495 0.79948,-0.86488 0.86489,-0.79948 0.92494,-0.72917 0.9793,-0.65435 1.02762,-0.57549 1.0696,-0.4931 1.105,-0.40765 1.13358,-0.3197 1.15516,-0.22978 1.16963,-0.13844 1.17689,-0.0462 1.17688,0.0462 1.16963,0.13844 1.15517,0.22978 1.13357,0.3197 1.105,0.40765 1.0696,0.4931 1.02762,0.57549 0.97931,0.65435 0.92494,0.72917 0.86488,0.79948 0.79949,0.86488 0.72916,0.92495 0.65435,0.9793 0.57549,1.02762 0.4931,1.0696 0.40765,1.105 0.31971,1.13357 0.22977,1.15517 0.13844,1.16963 z"
       fill-opacity="1"
       id="path240"
       style="fill:#e2e250;fill-opacity:1" />
    <text
       fill="#000000"
       stroke="none"
       font-family="'Helvetica Neue', Helvetica, sans-serif"
       font-size="8px"
       font-style="normal"
       font-weight="normal"
       text-decoration="normal"
       x="539.53656"
       y="342.68497"
       text-anchor="middle"
       dominant-baseline="text-after-edge"
       fill-opacity="1"
       id="text242">Ligation</text>
    <path
       fill="#5081e2"
       stroke="none"
       paint-order="stroke fill markers"
       d="m 752.53266,358.91328 -0.0462,1.17688 -0.13843,1.16963 -0.22978,1.15517 -0.3197,1.13357 -0.40765,1.105 -0.4931,1.0696 -0.5755,1.02762 -0.65434,0.97931 -0.72917,0.92494 -0.79949,0.86488 -0.86488,0.79949 -0.92494,0.72916 -0.9793,0.65435 -1.02762,0.57549 -1.06961,0.4931 -1.10499,0.40765 -1.13358,0.31971 -1.15516,0.22977 -1.16963,0.13844 -1.17689,0.0462 -1.17688,-0.0462 -1.16963,-0.13844 -1.15517,-0.22977 -1.13357,-0.31971 -1.105,-0.40765 -1.06961,-0.4931 -1.02762,-0.57549 -0.9793,-0.65435 -0.92494,-0.72916 -0.86488,-0.79949 -0.79949,-0.86488 -0.72916,-0.92494 -0.65435,-0.97931 -0.5755,-1.02762 -0.49309,-1.0696 -0.40766,-1.105 -0.3197,-1.13357 -0.22977,-1.15517 -0.13844,-1.16963 -0.0462,-1.17688 0.0462,-1.17689 0.13844,-1.16963 0.22977,-1.15516 0.3197,-1.13358 0.40766,-1.105 0.49309,-1.0696 0.5755,-1.02762 0.65435,-0.9793 0.72916,-0.92494 0.79949,-0.86489 0.86488,-0.79948 0.92494,-0.72917 0.9793,-0.65435 1.02762,-0.57549 1.06961,-0.4931 1.105,-0.40765 1.13357,-0.3197 1.15517,-0.22978 1.16963,-0.13843 1.17688,-0.0462 1.17689,0.0462 1.16963,0.13843 1.15516,0.22978 1.13358,0.3197 1.10499,0.40765 1.06961,0.4931 1.02762,0.57549 0.9793,0.65435 0.92494,0.72917 0.86488,0.79948 0.79949,0.86489 0.72917,0.92494 0.65434,0.9793 0.5755,1.02762 0.4931,1.0696 0.40765,1.105 0.3197,1.13358 0.22978,1.15516 0.13843,1.16963 z"
       fill-opacity="1"
       id="path244"
       style="fill:#81e250;fill-opacity:1" />
    <text
       fill="#000000"
       stroke="none"
       font-family="'Helvetica Neue', Helvetica, sans-serif"
       font-size="8px"
       font-style="normal"
       font-weight="normal"
       text-decoration="normal"
       x="737.53265"
       y="343.91327"
       text-anchor="middle"
       dominant-baseline="text-after-edge"
       fill-opacity="1"
       id="text246">Prepare cells</text>
    <path
       fill="#e28150"
       stroke="none"
       paint-order="stroke fill markers"
       d="m 826.73344,357.10015 -0.0462,1.17689 -0.13843,1.16963 -0.22978,1.15516 -0.3197,1.13358 -0.40766,1.10499 -0.49309,1.06961 -0.5755,1.02762 -0.65434,0.9793 -0.72917,0.92494 -0.79949,0.86488 -0.86488,0.79949 -0.92494,0.72917 -0.9793,0.65434 -1.02762,0.5755 -1.06961,0.49309 -1.10499,0.40766 -1.13358,0.3197 -1.15516,0.22978 -1.16963,0.13843 -1.17689,0.0462 -1.17689,-0.0462 -1.16963,-0.13843 -1.15516,-0.22978 -1.13357,-0.3197 -1.105,-0.40766 -1.06961,-0.49309 -1.02762,-0.5755 -0.9793,-0.65434 -0.92494,-0.72917 -0.86488,-0.79949 -0.79949,-0.86488 -0.72916,-0.92494 -0.65435,-0.9793 -0.5755,-1.02762 -0.49309,-1.06961 -0.40766,-1.10499 -0.3197,-1.13358 -0.22977,-1.15516 -0.13844,-1.16963 -0.0462,-1.17689 0.0462,-1.17689 0.13844,-1.16963 0.22977,-1.15516 0.3197,-1.13357 0.40766,-1.105 0.49309,-1.06961 0.5755,-1.02762 0.65435,-0.9793 0.72916,-0.92494 0.79949,-0.86488 0.86488,-0.79949 0.92494,-0.72916 0.9793,-0.65435 1.02762,-0.5755 1.06961,-0.49309 1.105,-0.40766 1.13357,-0.3197 1.15516,-0.22977 1.16963,-0.13844 1.17689,-0.0462 1.17689,0.0462 1.16963,0.13844 1.15516,0.22977 1.13358,0.3197 1.10499,0.40766 1.06961,0.49309 1.02762,0.5755 0.9793,0.65435 0.92494,0.72916 0.86488,0.79949 0.79949,0.86488 0.72917,0.92494 0.65434,0.9793 0.5755,1.02762 0.49309,1.06961 0.40766,1.105 0.3197,1.13357 0.22978,1.15516 0.13843,1.16963 z"
       fill-opacity="1"
       id="path248" />
    <text
       fill="#000000"
       stroke="none"
       font-family="'Helvetica Neue', Helvetica, sans-serif"
       font-size="8px"
       font-style="normal"
       font-weight="normal"
       text-decoration="normal"
       x="811.73346"
       y="343.57709"
       text-anchor="middle"
       dominant-baseline="text-after-edge"
       fill-opacity="1"
       id="text250">proto-clones</text>
    <path
       fill="#8150e2"
       stroke="none"
       paint-order="stroke fill markers"
       d="m 942.18286,357.16455 -0.0462,1.17689 -0.13843,1.16963 -0.22978,1.15516 -0.3197,1.13357 -0.40766,1.105 -0.49309,1.06961 -0.5755,1.02762 -0.65434,0.9793 -0.72917,0.92494 -0.79949,0.86488 -0.86488,0.79949 -0.92494,0.72916 -0.9793,0.65435 -1.02762,0.5755 -1.06961,0.49309 -1.10499,0.40766 -1.13358,0.3197 -1.15516,0.22977 -1.16963,0.13844 -1.17689,0.0462 -1.17688,-0.0462 -1.16964,-0.13844 -1.15516,-0.22977 -1.13357,-0.3197 -1.105,-0.40766 -1.06961,-0.49309 -1.02762,-0.5755 -0.9793,-0.65435 -0.92494,-0.72916 -0.86488,-0.79949 -0.79949,-0.86488 -0.72916,-0.92494 -0.65435,-0.9793 -0.5755,-1.02762 -0.49309,-1.06961 -0.40766,-1.105 -0.3197,-1.13357 -0.22977,-1.15516 -0.13844,-1.16963 -0.0462,-1.17689 0.0462,-1.17689 0.13844,-1.16963 0.22977,-1.15516 0.3197,-1.13358 0.40766,-1.10499 0.49309,-1.06961 0.5755,-1.02762 0.65435,-0.9793 0.72916,-0.92494 0.79949,-0.86488 0.86488,-0.79949 0.92494,-0.72917 0.9793,-0.65434 1.02762,-0.5755 1.06961,-0.49309 1.105,-0.40766 1.13357,-0.3197 1.15516,-0.22978 1.16964,-0.13843 1.17688,-0.0462 1.17689,0.0462 1.16963,0.13843 1.15516,0.22978 1.13358,0.3197 1.10499,0.40766 1.06961,0.49309 1.02762,0.5755 0.9793,0.65434 0.92494,0.72917 0.86488,0.79949 0.79949,0.86488 0.72917,0.92494 0.65434,0.9793 0.5755,1.02762 0.49309,1.06961 0.40766,1.10499 0.3197,1.13358 0.22978,1.15516 0.13843,1.16963 z"
       fill-opacity="1"
       id="path252"
       style="fill:#81e250;fill-opacity:1" />
    <text
       fill="#000000"
       stroke="none"
       font-family="'Helvetica Neue', Helvetica, sans-serif"
       font-size="8px"
       font-style="normal"
       font-weight="normal"
       text-decoration="normal"
       x="927.18286"
       y="342.16455"
       text-anchor="middle"
       dominant-baseline="text-after-edge"
       fill-opacity="1"
       id="text254">Outgrowth</text>
    <path
       fill="#e250e2"
       stroke="none"
       paint-order="stroke fill markers"
       d="m 1199.5449,357.68356 -0.046,1.17689 -0.1384,1.16963 -0.2298,1.15516 -0.3197,1.13358 -0.4076,1.10499 -0.4931,1.06961 -0.5755,1.02762 -0.6544,0.9793 -0.7291,0.92494 -0.7995,0.86488 -0.8649,0.79949 -0.9249,0.72917 -0.9793,0.65434 -1.0277,0.5755 -1.0696,0.49309 -1.105,0.40766 -1.1335,0.3197 -1.1552,0.22978 -1.1696,0.13843 -1.1769,0.0462 -1.1769,-0.0462 -1.1696,-0.13843 -1.1552,-0.22978 -1.1336,-0.3197 -1.105,-0.40766 -1.0696,-0.49309 -1.0276,-0.5755 -0.9793,-0.65434 -0.9249,-0.72917 -0.8649,-0.79949 -0.7995,-0.86488 -0.7292,-0.92494 -0.6543,-0.9793 -0.5755,-1.02762 -0.4931,-1.06961 -0.4077,-1.10499 -0.3197,-1.13358 -0.2298,-1.15516 -0.1384,-1.16963 -0.046,-1.17689 0.046,-1.17689 0.1384,-1.16963 0.2298,-1.15516 0.3197,-1.13357 0.4077,-1.105 0.4931,-1.06961 0.5755,-1.02762 0.6543,-0.9793 0.7292,-0.92494 0.7995,-0.86488 0.8649,-0.79949 0.9249,-0.72916 0.9793,-0.65435 1.0276,-0.5755 1.0696,-0.49309 1.105,-0.40766 1.1336,-0.3197 1.1552,-0.22977 1.1696,-0.13844 1.1769,-0.0462 1.1769,0.0462 1.1696,0.13844 1.1552,0.22977 1.1335,0.3197 1.105,0.40766 1.0696,0.49309 1.0277,0.5755 0.9793,0.65435 0.9249,0.72916 0.8649,0.79949 0.7995,0.86488 0.7291,0.92494 0.6544,0.9793 0.5755,1.02762 0.4931,1.06961 0.4076,1.105 0.3197,1.13357 0.2298,1.15516 0.1384,1.16963 z"
       fill-opacity="1"
       id="path256"
       style="fill:#50e281;fill-opacity:1" />
    <text
       fill="#000000"
       stroke="none"
       font-family="'Helvetica Neue', Helvetica, sans-serif"
       font-size="8px"
       font-style="normal"
       font-weight="normal"
       text-decoration="normal"
       x="1183.0679"
       y="342.68356"
       text-anchor="middle"
       dominant-baseline="text-after-edge"
       fill-opacity="1"
       id="text258">Colony PCR</text>
    <path
       fill="#e25081"
       stroke="none"
       paint-order="stroke fill markers"
       d="m 825.99866,433.40591 -0.0462,1.17689 -0.13843,1.16963 -0.22978,1.15516 -0.3197,1.13358 -0.40766,1.10499 -0.49309,1.06961 -0.5755,1.02762 -0.65434,0.9793 -0.72917,0.92494 -0.79949,0.86488 -0.86488,0.79949 -0.92494,0.72917 -0.9793,0.65435 -1.02762,0.57549 -1.06961,0.4931 -1.10499,0.40765 -1.13358,0.3197 -1.15516,0.22978 -1.16963,0.13843 -1.17689,0.0462 -1.17689,-0.0462 -1.16963,-0.13843 -1.15516,-0.22978 -1.13357,-0.3197 -1.105,-0.40765 -1.06961,-0.4931 -1.02762,-0.57549 -0.9793,-0.65435 -0.92494,-0.72917 -0.86488,-0.79949 -0.79949,-0.86488 -0.72916,-0.92494 -0.65435,-0.9793 -0.5755,-1.02762 -0.49309,-1.06961 -0.40766,-1.10499 -0.3197,-1.13358 -0.22977,-1.15516 -0.13844,-1.16963 -0.0462,-1.17689 0.0462,-1.17688 0.13844,-1.16963 0.22977,-1.15517 0.3197,-1.13357 0.40766,-1.105 0.49309,-1.0696 0.5755,-1.02763 0.65435,-0.9793 0.72916,-0.92494 0.79949,-0.86488 0.86488,-0.79949 0.92494,-0.72916 0.9793,-0.65435 1.02762,-0.5755 1.06961,-0.49309 1.105,-0.40766 1.13357,-0.3197 1.15516,-0.22977 1.16963,-0.13844 1.17689,-0.0462 1.17689,0.0462 1.16963,0.13844 1.15516,0.22977 1.13358,0.3197 1.10499,0.40766 1.06961,0.49309 1.02762,0.5755 0.9793,0.65435 0.92494,0.72916 0.86488,0.79949 0.79949,0.86488 0.72917,0.92494 0.65434,0.9793 0.5755,1.02763 0.49309,1.0696 0.40766,1.105 0.3197,1.13357 0.22978,1.15517 0.13843,1.16963 z"
       fill-opacity="1"
       id="path260"
       style="fill:#81e250;fill-opacity:1" />
    <text
       fill="#000000"
       stroke="none"
       font-family="'Helvetica Neue', Helvetica, sans-serif"
       font-size="8px"
       font-style="normal"
       font-weight="normal"
       text-decoration="normal"
       x="812.47559"
       y="418.40591"
       text-anchor="middle"
       dominant-baseline="text-after-edge"
       fill-opacity="1"
       id="text262">Heat shock</text>
    <path
       fill="#50b1e2"
       stroke="none"
       paint-order="stroke fill markers"
       d="m 1029.1111,432.54248 -0.046,1.17689 -0.1384,1.16963 -0.2298,1.15517 -0.3197,1.13357 -0.4076,1.105 -0.4931,1.0696 -0.5755,1.02762 -0.6544,0.9793 -0.7291,0.92495 -0.7995,0.86488 -0.8649,0.79948 -0.925,0.72917 -0.9793,0.65435 -1.0276,0.57549 -1.0696,0.4931 -1.105,0.40765 -1.1336,0.3197 -1.1551,0.22978 -1.1696,0.13843 -1.1769,0.0462 -1.1769,-0.0462 -1.1697,-0.13843 -1.1551,-0.22978 -1.1336,-0.3197 -1.105,-0.40765 -1.0696,-0.4931 -1.0276,-0.57549 -0.9793,-0.65435 -0.925,-0.72917 -0.8648,-0.79948 -0.7995,-0.86488 -0.7292,-0.92495 -0.6543,-0.9793 -0.5755,-1.02762 -0.4931,-1.0696 -0.40768,-1.105 -0.3197,-1.13357 -0.2298,-1.15517 -0.1384,-1.16963 -0.046,-1.17689 0.046,-1.17688 0.1384,-1.16963 0.2298,-1.15517 0.3197,-1.13357 0.40768,-1.105 0.4931,-1.0696 0.5755,-1.02762 0.6543,-0.9793 0.7292,-0.92495 0.7995,-0.86488 0.8648,-0.79948 0.925,-0.72917 0.9793,-0.65435 1.0276,-0.57549 1.0696,-0.4931 1.105,-0.40765 1.1336,-0.3197 1.1551,-0.22978 1.1697,-0.13844 1.1769,-0.0462 1.1769,0.0462 1.1696,0.13844 1.1551,0.22978 1.1336,0.3197 1.105,0.40765 1.0696,0.4931 1.0276,0.57549 0.9793,0.65435 0.925,0.72917 0.8649,0.79948 0.7995,0.86488 0.7291,0.92495 0.6544,0.9793 0.5755,1.02762 0.4931,1.0696 0.4076,1.105 0.3197,1.13357 0.2298,1.15517 0.1384,1.16963 z"
       fill-opacity="1"
       id="path264"
       style="fill:#50e281;fill-opacity:1" />
    <text
       fill="#000000"
       stroke="none"
       font-family="'Helvetica Neue', Helvetica, sans-serif"
       font-size="8px"
       font-style="normal"
       font-weight="normal"
       text-decoration="normal"
       x="1014.111"
       y="417.54248"
       text-anchor="middle"
       dominant-baseline="text-after-edge"
       fill-opacity="1"
       id="text266">Sequencing</text>
    <g
       transform="matrix(0.73846272,0,0,0.73846272,-146.01754,-132.63919)"
       id="g268" />
  </g>
  <g
     inkscape:label="Layer 1"
     id="layer1-3"
     transform="matrix(9.3086203,0,0,9.3391735,-5106.7082,-1234.2595)">
    <g
       transform="matrix(0.44340211,0,0,0.44340211,17.172835,6.0168225)"
       id="g209">
      <g
         transform="matrix(0.59671195,0,0,0.59671195,-174.66258,-205.37894)"
         id="g207" />
      <g
         transform="matrix(0.86594268,0,0,0.86594268,86.434443,-71.848424)"
         id="g67320">
        <g
           transform="matrix(0.68908942,0,0,0.68908942,-367.92555,64.369515)"
           id="g67318" />
      </g>
    </g>
    <text
       xml:space="preserve"
       transform="matrix(0.26458332,0,0,0.26458332,20.066915,7.7552789)"
       id="text3637-2"
       style="font-style:normal;font-weight:normal;font-size:21.3333px;line-height:1.25;font-family:sans-serif;white-space:pre;shape-inside:url(#rect3639-7-3);fill:#000000;fill-opacity:1;stroke:none" />
    <text
       xml:space="preserve"
       transform="matrix(0.26458332,0,0,0.26458332,20.066915,7.7552789)"
       id="text27596"
       style="font-style:normal;font-weight:normal;font-size:21.3333px;line-height:1.25;font-family:sans-serif;white-space:pre;shape-inside:url(#rect27598-6);fill:#000000;fill-opacity:1;stroke:none" />
    <text
       xml:space="preserve"
       transform="matrix(0.22024129,0,0,0.20021572,386.98422,128.53341)"
       id="text3637-27"
       style="font-style:normal;font-weight:normal;font-size:37.3333px;line-height:1.25;font-family:sans-serif;white-space:pre;shape-inside:url(#rect3639-70-7);fill:#000000;fill-opacity:1;stroke:none"><tspan
         x="1443.0723"
         y="73.013644"
         id="tspan8683">Node Color</tspan></text>
    <text
       xml:space="preserve"
       transform="matrix(0.22024129,0,0,0.20021572,387.18943,158.56643)"
       id="text3637-7-0"
       style="font-style:normal;font-weight:normal;font-size:37.3333px;line-height:1.25;font-family:sans-serif;white-space:pre;shape-inside:url(#rect3639-6-9-5);fill:#000000;fill-opacity:1;stroke:none"><tspan
         x="1443.0723"
         y="73.013644"
         id="tspan8685">Edge Color</tspan></text>
    <rect
       id="rect18643-93"
       width="11.921554"
       height="3.3061619"
       x="706.27698"
       y="145.9449"
       style="fill:#e28150;fill-opacity:1;stroke:none;stroke-width:0.142329;stroke-miterlimit:4;stroke-dasharray:none;stroke-opacity:1"
       ry="0.58535516" />
    <text
       xml:space="preserve"
       transform="matrix(0.22024129,0,0,0.20021572,405.03025,137.32218)"
       id="text27183-60"
       style="font-style:normal;font-weight:normal;font-size:21.3333px;line-height:1.25;font-family:sans-serif;white-space:pre;shape-inside:url(#rect27185-3-3);fill:#000000;fill-opacity:1;stroke:none"><tspan
         x="1443.0723"
         y="58.857392"
         id="tspan8687">Reagent</tspan></text>
    <rect
       id="rect18643-7-6"
       width="11.921554"
       height="3.3061619"
       x="706.4491"
       y="151.28462"
       style="fill:#e2e250;fill-opacity:1;stroke:none;stroke-width:0.142329;stroke-miterlimit:4;stroke-dasharray:none;stroke-opacity:1"
       ry="0.58535516" />
    <text
       xml:space="preserve"
       transform="matrix(0.22024129,0,0,0.20021572,404.92803,142.80213)"
       id="text27183-1-26"
       style="font-style:normal;font-weight:normal;font-size:21.3333px;line-height:1.25;font-family:sans-serif;white-space:pre;shape-inside:url(#rect27185-7-60-5);fill:#000000;fill-opacity:1;stroke:none"><tspan
         x="1443.0723"
         y="58.857392"
         id="tspan8689">Assembly</tspan></text>
    <rect
       id="rect18643-2-1"
       width="11.921554"
       height="3.3061619"
       x="706.13098"
       y="175.23381"
       style="fill:#50e2e2;fill-opacity:1;stroke:none;stroke-width:0.142329;stroke-miterlimit:4;stroke-dasharray:none;stroke-opacity:1"
       ry="0.58535516" />
    <text
       xml:space="preserve"
       transform="matrix(0.22024129,0,0,0.20021572,405.12993,166.63591)"
       id="text27183-9-8"
       style="font-style:normal;font-weight:normal;font-size:21.3333px;line-height:1.25;font-family:sans-serif;white-space:pre;shape-inside:url(#rect27185-6-6-6);fill:#000000;fill-opacity:1;stroke:none"><tspan
         x="1443.0723"
         y="58.857392"
         id="tspan8691">Source</tspan></text>
    <rect
       id="rect18643-7-1-7"
       width="11.921554"
       height="3.3061619"
       x="706.3031"
       y="180.57353"
       style="fill:#e28150;fill-opacity:1;stroke:none;stroke-width:0.142329;stroke-miterlimit:4;stroke-dasharray:none;stroke-opacity:1"
       ry="0.58535516" />
    <text
       xml:space="preserve"
       transform="matrix(0.22024129,0,0,0.20021572,405.30204,171.97563)"
       id="text27183-1-2-9"
       style="font-style:normal;font-weight:normal;font-size:21.3333px;line-height:1.25;font-family:sans-serif;white-space:pre;shape-inside:url(#rect27185-7-35-2-2);fill:#000000;fill-opacity:1;stroke:none"><tspan
         x="1443.0723"
         y="58.857392"
         id="tspan8693">Destination</tspan></text>
    <rect
       id="rect18643-7-3-2"
       width="11.921554"
       height="3.3061619"
       x="706.34186"
       y="156.49216"
       style="fill:#81e250;fill-opacity:1;stroke:none;stroke-width:0.142329;stroke-miterlimit:4;stroke-dasharray:none;stroke-opacity:1"
       ry="0.58535516" />
    <text
       xml:space="preserve"
       transform="matrix(0.22024129,0,0,0.20021572,405.3086,148.16487)"
       id="text27183-1-5-0"
       style="font-style:normal;font-weight:normal;font-size:21.3333px;line-height:1.25;font-family:sans-serif;white-space:pre;shape-inside:url(#rect27185-7-5-61-9);fill:#000000;fill-opacity:1;stroke:none"><tspan
         x="1443.0723"
         y="58.857392"
         id="tspan8695">Transformation</tspan></text>
    <rect
       id="rect18643-7-3-7-2"
       width="11.921554"
       height="3.3061619"
       x="706.34186"
       y="161.70374"
       style="fill:#50e281;fill-opacity:1;stroke:none;stroke-width:0.142329;stroke-miterlimit:4;stroke-dasharray:none;stroke-opacity:1"
       ry="0.58535516" />
    <text
       xml:space="preserve"
       transform="matrix(0.22024129,0,0,0.20021572,405.60687,153.11899)"
       id="text27183-1-5-5-3"
       style="font-style:normal;font-weight:normal;font-size:21.3333px;line-height:1.25;font-family:sans-serif;white-space:pre;shape-inside:url(#rect27185-7-5-6-8-1);fill:#000000;fill-opacity:1;stroke:none"><tspan
         x="1443.0723"
         y="58.857392"
         id="tspan8697">Validation</tspan></text>
  </g>
</svg>
