<?xml version="1.0" encoding="UTF-8" standalone="no"?>
<svg
   version="1.1"
   width="2642.4915"
   height="1635.5938"
   id="svg132"
   sodipodi:docname="2_arabinose-pathway--standard.svg"
   inkscape:version="1.1.1 (26b7af14f2, 2022-01-19)"
   xmlns:inkscape="http://www.inkscape.org/namespaces/inkscape"
   xmlns:sodipodi="http://sodipodi.sourceforge.net/DTD/sodipodi-0.dtd"
   xmlns="http://www.w3.org/2000/svg"
   xmlns:svg="http://www.w3.org/2000/svg">
  <sodipodi:namedview
     id="namedview134"
     pagecolor="#ffffff"
     bordercolor="#666666"
     borderopacity="1.0"
     inkscape:pageshadow="2"
     inkscape:pageopacity="0.0"
     inkscape:pagecheckerboard="0"
     showgrid="false"
     inkscape:zoom="0.84361024"
     inkscape:cx="772.27607"
     inkscape:cy="567.20507"
     inkscape:window-width="2492"
     inkscape:window-height="1376"
     inkscape:window-x="1988"
     inkscape:window-y="27"
     inkscape:window-maximized="1"
     inkscape:current-layer="svg132" />
  <defs
     id="defs2">
    <rect
       x="-997.11371"
       y="-284.67545"
       width="1004.8584"
       height="1352.8665"
       id="rect7946" />
    <rect
       x="1443.0721"
       y="39.982376"
       width="235.68906"
       height="103.2741"
       id="rect3639-3" />
    <rect
       x="1443.0721"
       y="39.982376"
       width="235.68906"
       height="103.2741"
       id="rect3639-5-6" />
    <rect
       x="1443.0721"
       y="39.982376"
       width="235.68906"
       height="103.2741"
       id="rect27185-7-7" />
    <rect
       x="1443.0721"
       y="39.982376"
       width="235.68906"
       height="103.2741"
       id="rect27185-7-6-9-5" />
    <rect
       x="1443.0721"
       y="39.982376"
       width="235.68906"
       height="103.2741"
       id="rect27185-4-5" />
    <rect
       x="1443.0721"
       y="39.982376"
       width="235.68906"
       height="103.2741"
       id="rect27185-7-8-6" />
    <rect
       x="1443.0721"
       y="39.982376"
       width="235.68906"
       height="103.2741"
       id="rect27185-7-6-9-5-3" />
    <rect
       x="1443.0721"
       y="39.982376"
       width="235.68906"
       height="103.2741"
       id="rect27185-7-6-9-5-5" />
    <rect
       x="1443.0721"
       y="39.982376"
       width="235.68906"
       height="103.2741"
       id="rect27185-7-6-9-5-3-3" />
    <rect
       x="1443.0721"
       y="39.982376"
       width="235.68906"
       height="103.2741"
       id="rect3639-3-2" />
    <rect
       x="1443.0721"
       y="39.982376"
       width="235.68906"
       height="103.2741"
       id="rect27185-7-7-7" />
    <rect
       x="1443.0721"
       y="39.982376"
       width="235.68906"
       height="103.2741"
       id="rect27185-7-6-9-5-0" />
    <rect
       x="1443.0721"
       y="39.982376"
       width="235.68906"
       height="103.2741"
       id="rect27185-7-6-9-4-3" />
    <rect
       x="1443.0721"
       y="39.982376"
       width="235.68906"
       height="103.2741"
       id="rect27185-7-6-9-4-9-1" />
    <rect
       x="1443.0721"
       y="39.982376"
       width="235.68906"
       height="103.2741"
       id="rect27185-7-6-9-4-9-5-2" />
    <rect
       x="1443.0721"
       y="39.982376"
       width="235.68906"
       height="103.2741"
       id="rect3639-7" />
    <rect
       x="1443.0721"
       y="39.982376"
       width="235.68906"
       height="103.2741"
       id="rect27598" />
    <rect
       x="1443.0721"
       y="39.982376"
       width="235.68906"
       height="103.2741"
       id="rect3639-3-5" />
    <rect
       x="1443.0721"
       y="39.982376"
       width="235.68906"
       height="103.2741"
       id="rect3639-5-6-9" />
    <rect
       x="1443.0721"
       y="39.982376"
       width="235.68906"
       height="103.2741"
       id="rect27185-7-7-3" />
    <rect
       x="1443.0721"
       y="39.982376"
       width="235.68906"
       height="103.2741"
       id="rect27185-7-6-9-5-5-3" />
    <rect
       x="1443.0721"
       y="39.982376"
       width="235.68906"
       height="103.2741"
       id="rect27185-7-6-9-4-3-6" />
    <rect
       x="1443.0721"
       y="39.982376"
       width="235.68906"
       height="103.2741"
       id="rect27185-4-5-6" />
    <rect
       x="1443.0721"
       y="39.982376"
       width="235.68906"
       height="103.2741"
       id="rect27185-7-8-6-0" />
    <rect
       x="1443.0721"
       y="39.982376"
       width="235.68906"
       height="103.2741"
       id="rect27185-7-6-9-8-2" />
    <rect
       x="1443.0721"
       y="39.982376"
       width="235.68906"
       height="103.2741"
       id="rect27185-7-6-9-4-1-9" />
    <rect
       x="1443.0721"
       y="39.982376"
       width="235.68906"
       height="103.2741"
       id="rect27185-7-6-9-4-9-1-2" />
    <rect
       x="1443.0721"
       y="39.982376"
       width="235.68906"
       height="103.2741"
       id="rect27185-7-6-9-4-9-5-2-9" />
    <rect
       x="1443.0721"
       y="39.982376"
       width="235.68906"
       height="103.2741"
       id="rect27185-7-8-6-2" />
    <rect
       x="1443.0721"
       y="39.982376"
       width="235.68906"
       height="103.2741"
       id="rect27185-4-5-0" />
    <rect
       x="1443.0721"
       y="39.982376"
       width="235.68906"
       height="103.2741"
       id="rect27185-7-8-6-2-7" />
    <rect
       x="1443.0721"
       y="39.982376"
       width="235.68906"
       height="103.2741"
       id="rect27185-4-5-0-8" />
    <rect
       x="1443.0721"
       y="39.982376"
       width="235.68906"
       height="103.2741"
       id="rect27185-7-6-9-5-3-6" />
    <rect
       x="1443.0721"
       y="39.982376"
       width="235.68906"
       height="103.2741"
       id="rect27185-7-6-9-5-5-1" />
    <rect
       x="1443.0721"
       y="39.982376"
       width="235.68906"
       height="103.2741"
       id="rect27185-7-6-9-5-5-1-0" />
    <rect
       x="1443.0721"
       y="39.982376"
       width="235.68906"
       height="103.2741"
       id="rect3639-3-3" />
    <rect
       x="1443.0721"
       y="39.982376"
       width="235.68906"
       height="103.2741"
       id="rect3639-5-6-6" />
    <rect
       x="1443.0721"
       y="39.982376"
       width="235.68906"
       height="103.2741"
       id="rect27185-7-7-75" />
    <rect
       x="1443.0721"
       y="39.982376"
       width="235.68906"
       height="103.2741"
       id="rect27185-7-6-9-5-35" />
    <rect
       x="1443.0721"
       y="39.982376"
       width="235.68906"
       height="103.2741"
       id="rect27185-7-6-9-5-3-62" />
    <rect
       x="1443.0721"
       y="39.982376"
       width="235.68906"
       height="103.2741"
       id="rect27185-7-6-9-5-5-9" />
    <rect
       x="1443.0721"
       y="39.982376"
       width="235.68906"
       height="103.2741"
       id="rect27185-7-6-9-5-3-3-1" />
    <rect
       x="1443.0721"
       y="39.982376"
       width="235.68906"
       height="103.2741"
       id="rect27185-4-5-2" />
    <rect
       x="1443.0721"
       y="39.982376"
       width="235.68906"
       height="103.2741"
       id="rect27185-7-8-6-7" />
    <rect
       x="1443.0721"
       y="39.982376"
       width="235.68906"
       height="103.2741"
       id="rect27185-4-5-0-0" />
    <rect
       x="1443.0721"
       y="39.982376"
       width="235.68906"
       height="103.2741"
       id="rect27185-7-8-6-2-9" />
    <rect
       x="1443.0721"
       y="39.982376"
       width="235.68906"
       height="103.2741"
       id="rect27185-4-5-2-6" />
    <rect
       x="1443.0721"
       y="39.982376"
       width="235.68906"
       height="103.2741"
       id="rect27185-4-5-0-0-8" />
    <rect
       x="1443.0721"
       y="39.982376"
       width="235.68906"
       height="103.2741"
       id="rect27185-7-6-9-5-3-3-1-4" />
    <rect
       x="1443.0721"
       y="39.982376"
       width="235.68906"
       height="103.2741"
       id="rect27185-7-6-9-5-35-9" />
  </defs>
  <g
     transform="matrix(2.7704545,0,0,2.7704545,-364.33392,97.719904)"
     id="g130">
    <path
       fill="none"
       stroke="#50e2e2"
       paint-order="fill stroke markers"
       d="M 431.41268,4.017597 V 52.872642"
       stroke-opacity="1"
       stroke-linejoin="round"
       stroke-miterlimit="10"
       stroke-width="2.93076"
       id="path4"
       style="stroke:#e2e250;stroke-opacity:1" />
    <path
       fill="#50e2e2"
       stroke="none"
       paint-order="stroke fill markers"
       d="m 435.66148,19.944346 -4.2488,8.500766 -4.24881,-8.500766 z"
       fill-opacity="1"
       id="path6"
       style="fill:#e2e250;fill-opacity:1;stroke-width:0.976923" />
    <path
       fill="none"
       stroke="#e28150"
       paint-order="fill stroke markers"
       d="M 498.77968,66.352028 470.8852,120.07472"
       stroke-opacity="1"
       stroke-linejoin="round"
       stroke-miterlimit="10"
       stroke-width="4.2133"
       id="path8"
       style="stroke:#a07be9;stroke-width:3.24856445;stroke-miterlimit:10;stroke-dasharray:none;stroke-opacity:1" />
    <path
       fill="#e28150"
       stroke="none"
       paint-order="stroke fill markers"
       d="m 490.17156,92.305345 -7.99313,5.137702 0.68757,-9.479266 z"
       fill-opacity="1"
       id="path10"
       style="fill:#a07be9;fill-opacity:1;stroke-width:0.976923" />
    <path
       fill="none"
       stroke="#e28150"
       paint-order="fill stroke markers"
       d="M 453.07147,138.07518 322.66207,205.2872"
       stroke-opacity="1"
       stroke-linejoin="round"
       stroke-miterlimit="10"
       stroke-width="2.93076"
       id="path12"
       style="stroke:#a07be9;stroke-opacity:1" />
    <path
       fill="#e28150"
       stroke="none"
       paint-order="stroke fill markers"
       d="m 397.36669,171.56633 -9.49991,0.11487 5.60808,-7.6717 z"
       fill-opacity="1"
       id="path14"
       style="fill:#a07be9;fill-opacity:1;stroke-width:0.976923" />
    <path
       fill="none"
       stroke="#e28150"
       paint-order="fill stroke markers"
       d="m 465.32096,146.01152 -0.0337,52.75021"
       stroke-opacity="1"
       stroke-linejoin="round"
       stroke-miterlimit="10"
       stroke-width="2.93076"
       id="path16"
       style="stroke:#a07be9;stroke-opacity:1" />
    <path
       fill="#e28150"
       stroke="none"
       paint-order="stroke fill markers"
       d="m 469.7161,163.96945 -4.412,8.41717 -4.08402,-8.58121 z"
       fill-opacity="1"
       id="path18"
       style="fill:#a07be9;fill-opacity:1;stroke-width:0.976923" />
    <path
       fill="none"
       stroke="#e28150"
       paint-order="fill stroke markers"
       d="M 455.73577,141.72635 398.31657,199.167"
       stroke-opacity="1"
       stroke-linejoin="round"
       stroke-miterlimit="10"
       stroke-width="2.93076"
       id="path20"
       style="stroke:#a07be9;stroke-opacity:1" />
    <path
       fill="#e28150"
       stroke="none"
       paint-order="stroke fill markers"
       d="m 436.03924,167.4412 -9.01308,3.00548 3.00436,-9.01644 z"
       fill-opacity="1"
       id="path22"
       style="fill:#a07be9;fill-opacity:1;stroke-width:0.976923" />
    <path
       fill="none"
       stroke="#e28150"
       paint-order="fill stroke markers"
       d="m 375.97492,217.96535 -84.5726,59.53524"
       stroke-opacity="1"
       stroke-linejoin="round"
       stroke-miterlimit="10"
       stroke-width="2.93076"
       id="path24"
       style="stroke:#a07be9;stroke-opacity:1" />
    <path
       fill="#e28150"
       stroke="none"
       paint-order="stroke fill markers"
       d="m 343.0832,246.3169 -9.39457,1.41607 4.5043,-8.3681 z"
       fill-opacity="1"
       id="path26"
       style="fill:#a07be9;fill-opacity:1;stroke-width:0.976923" />
    <path
       fill="none"
       stroke="#e28150"
       paint-order="fill stroke markers"
       d="M 377.74708,141.87448 319.84756,201.4879"
       stroke-opacity="1"
       stroke-linejoin="round"
       stroke-miterlimit="10"
       stroke-width="2.93076"
       id="path28"
       style="stroke:#a07be9;stroke-opacity:1" />
    <path
       fill="#e28150"
       stroke="none"
       paint-order="stroke fill markers"
       d="m 357.7662,168.54622 -8.96888,3.13498 2.87428,-9.05878 z"
       fill-opacity="1"
       id="path30"
       style="fill:#a07be9;fill-opacity:1;stroke-width:0.976923" />
    <path
       fill="none"
       stroke="#e28150"
       paint-order="fill stroke markers"
       d="m 397.95383,142.07695 56.56163,60.61936"
       stroke-opacity="1"
       stroke-linejoin="round"
       stroke-miterlimit="10"
       stroke-width="2.93076"
       id="path32"
       style="stroke:#a07be9;stroke-opacity:1" />
    <path
       fill="#e28150"
       stroke="none"
       paint-order="stroke fill markers"
       d="m 423.54231,163.27208 2.69233,9.11454 -8.90431,-3.31405 z"
       fill-opacity="1"
       id="path34"
       style="fill:#a07be9;fill-opacity:1;stroke-width:0.976923" />
    <path
       fill="none"
       stroke="#e28150"
       paint-order="fill stroke markers"
       d="m 387.95671,146.01915 v 48.85506"
       stroke-opacity="1"
       stroke-linejoin="round"
       stroke-miterlimit="10"
       stroke-width="2.93076"
       id="path36"
       style="stroke:#a07be9;stroke-opacity:1" />
    <path
       fill="#e28150"
       stroke="none"
       paint-order="stroke fill markers"
       d="m 392.20551,161.9459 -4.2488,8.50078 -4.2488,-8.50078 z"
       fill-opacity="1"
       id="path38"
       style="fill:#a07be9;fill-opacity:1;stroke-width:0.976923" />
    <path
       fill="none"
       stroke="#e28150"
       paint-order="fill stroke markers"
       d="m 309.78511,146.01911 -0.11449,51.32416"
       stroke-opacity="1"
       stroke-linejoin="round"
       stroke-miterlimit="10"
       stroke-width="2.93076"
       id="path40"
       style="stroke:#a07be9;stroke-opacity:1" />
    <path
       fill="#e28150"
       stroke="none"
       paint-order="stroke fill markers"
       d="m 313.99561,163.18991 -4.26775,8.49129 -4.22984,-8.51025 z"
       fill-opacity="1"
       id="path42"
       style="fill:#a07be9;fill-opacity:1;stroke-width:0.976923" />
    <path
       fill="none"
       stroke="#e28150"
       paint-order="fill stroke markers"
       d="m 322.76206,138.22809 128.80626,68.31707"
       stroke-opacity="1"
       stroke-linejoin="round"
       stroke-miterlimit="10"
       stroke-width="2.93076"
       id="path44"
       style="stroke:#a07be9;stroke-opacity:1" />
    <path
       fill="#e28150"
       stroke="none"
       paint-order="stroke fill markers"
       d="m 381.64776,164.64943 5.51743,7.73719 -9.4979,-0.22672 z"
       fill-opacity="1"
       id="path46"
       style="fill:#a07be9;fill-opacity:1;stroke-width:0.976923" />
    <path
       fill="none"
       stroke="#e28150"
       paint-order="fill stroke markers"
       d="M 320.17765,141.72635 377.59687,199.167"
       stroke-opacity="1"
       stroke-linejoin="round"
       stroke-miterlimit="10"
       stroke-width="2.93076"
       id="path48"
       style="stroke:#a07be9;stroke-opacity:1" />
    <path
       fill="#e28150"
       stroke="none"
       paint-order="stroke fill markers"
       d="m 345.88291,161.43024 3.00435,9.01644 -9.01307,-3.00548 z"
       fill-opacity="1"
       id="path50"
       style="fill:#a07be9;fill-opacity:1;stroke-width:0.976923" />
    <path
       fill="none"
       stroke="#e2e250"
       paint-order="fill stroke markers"
       d="M 279.42053,300.59174 V 349.4468"
       stroke-opacity="1"
       stroke-linejoin="round"
       stroke-miterlimit="10"
       stroke-width="2.93076"
       id="path52"
       style="stroke:#2ad4ff;stroke-opacity:1" />
    <path
       fill="#e2e250"
       stroke="none"
       paint-order="stroke fill markers"
       d="m 283.66933,316.51849 -4.2488,8.50078 -4.24881,-8.50078 z"
       fill-opacity="1"
       id="path54"
       style="fill:#2ad4ff;fill-opacity:1;stroke-width:0.976923" />
    <path
       fill="none"
       stroke="#e28150"
       paint-order="fill stroke markers"
       d="m 433.57832,66.303726 25.96516,51.949714"
       stroke-opacity="1"
       stroke-linejoin="round"
       stroke-miterlimit="10"
       stroke-width="2.93076"
       id="path56"
       style="stroke:#a07be9;stroke-opacity:1" />
    <path
       fill="#e28150"
       stroke="none"
       paint-order="stroke fill markers"
       d="m 450.1704,88.54964 v 9.50417 l -7.6005,-5.7025 z"
       fill-opacity="1"
       id="path58"
       style="fill:#a07be9;fill-opacity:1;stroke-width:0.976923" />
    <path
       fill="none"
       stroke="#50e2e2"
       paint-order="fill stroke markers"
       d="M 309.8178,67.851056 V 116.70612"
       stroke-opacity="1"
       stroke-linejoin="round"
       stroke-miterlimit="10"
       stroke-width="2.93076"
       id="path60"
       style="stroke:#e2e250;stroke-opacity:1" />
    <path
       fill="#50e2e2"
       stroke="none"
       paint-order="stroke fill markers"
       d="m 314.0666,83.777806 -4.2488,8.50078 -4.24881,-8.50078 z"
       fill-opacity="1"
       id="path62"
       style="fill:#e2e250;fill-opacity:1;stroke-width:0.976923" />
    <path
       fill="none"
       stroke="#50e2e2"
       paint-order="fill stroke markers"
       d="m 182.84206,146.01915 v 48.85506"
       stroke-opacity="1"
       stroke-linejoin="round"
       stroke-miterlimit="10"
       stroke-width="2.93076"
       id="path64"
       style="stroke:#e2e250;stroke-opacity:1" />
    <path
       fill="#50e2e2"
       stroke="none"
       paint-order="stroke fill markers"
       d="m 187.09087,161.9459 -4.24881,8.50078 -4.2488,-8.50078 z"
       fill-opacity="1"
       id="path66"
       style="fill:#e2e250;fill-opacity:1;stroke-width:0.976923" />
    <path
       fill="none"
       stroke="#e28150"
       paint-order="fill stroke markers"
       d="m 194.3339,218.62206 73.5948,58.22181"
       stroke-opacity="1"
       stroke-linejoin="round"
       stroke-miterlimit="10"
       stroke-width="2.93076"
       id="path68"
       style="stroke:#a07be9;stroke-opacity:1" />
    <path
       fill="#e28150"
       stroke="none"
       paint-order="stroke fill markers"
       d="m 227.10153,239.12612 4.02976,8.60685 -9.30076,-1.9391 z"
       fill-opacity="1"
       id="path70"
       style="fill:#a07be9;fill-opacity:1;stroke-width:0.976923" />
    <path
       fill="#5081e2"
       stroke="none"
       paint-order="stroke fill markers"
       d="m 416.76164,-10.638923 0.0451,1.1499362 0.13521,1.1428484 0.22443,1.1287112 0.31227,1.1076174 0.39817,1.0796932 0.48162,1.0451134 0.56211,1.0040902 0.63913,0.9568764 0.7122,0.9037622 0.78088,0.84507622 0.84476,0.78118017 0.90343,0.71246921 0.95652,0.6393632 1.00371,0.5623182 1.04473,0.481803 1.07928,0.3983212 1.10722,0.31238 1.12828,0.2245142 1.14243,0.135265 1.1495,0.04518 1.14951,-0.04518 1.14242,-0.135265 1.12829,-0.2245142 1.1072,-0.31238 1.07929,-0.3983212 1.04472,-0.481803 1.00372,-0.5623182 0.95651,-0.6393632 0.90343,-0.71246921 0.84476,-0.78118017 0.78089,-0.84507622 0.7122,-0.9037622 0.63912,-0.9568764 0.56211,-1.0040902 0.48163,-1.0451134 0.39817,-1.0796932 0.31227,-1.1076174 0.22443,-1.1287112 0.13521,-1.1428484 0.0451,-1.1499362 -0.0451,-1.149937 -0.13521,-1.142848 -0.22443,-1.128711 -0.31227,-1.107617 -0.39817,-1.079693 -0.48163,-1.045113 -0.56211,-1.00409 -0.63912,-0.956875 -0.7122,-0.903762 -0.78089,-0.845076 -0.84476,-0.781181 -0.90343,-0.712469 -0.95651,-0.639363 -1.00372,-0.562318 -1.04472,-0.481803 -1.0793,-0.39832 -1.1072,-0.31238 -1.12828,-0.224515 -1.14243,-0.135265 -1.1495,-0.04518 -1.14951,0.04518 -1.14242,0.135265 -1.12829,0.224515 -1.10721,0.31238 -1.07928,0.39832 -1.04473,0.481803 -1.00371,0.562318 -0.95653,0.639363 -0.90342,0.712469 -0.84476,0.781181 -0.78089,0.845076 -0.7122,0.903762 -0.63912,0.956875 -0.56212,1.00409 -0.48161,1.045113 -0.39818,1.079693 -0.31226,1.107617 -0.22443,1.128711 -0.13522,1.142848 z"
       fill-opacity="1"
       id="path72"
       style="fill:#e2e250;fill-opacity:1;stroke-width:0.976923" />
    <text
       fill="#000000"
       stroke="none"
       font-family="'Helvetica Neue', Helvetica, sans-serif"
       font-size="8px"
       font-style="normal"
       font-weight="normal"
       text-decoration="normal"
       x="432.55154"
       y="-23.231012"
       text-anchor="middle"
       dominant-baseline="text-after-edge"
       fill-opacity="1"
       id="text74"
       style="font-size:10.5879px">AraA</text>
    <path
       fill="#5081e2"
       stroke="none"
       paint-order="stroke fill markers"
       d="m 264.76948,364.10331 0.0451,1.14993 0.13522,1.14286 0.22442,1.12871 0.31227,1.10761 0.39817,1.0797 0.48163,1.04511 0.5621,1.00409 0.63912,0.95688 0.7122,0.90376 0.7809,0.84507 0.84476,0.78119 0.90342,0.71246 0.95651,0.63936 1.00373,0.56233 1.04471,0.4818 1.0793,0.39832 1.1072,0.31238 1.12829,0.22451 1.14242,0.13527 1.1495,0.0451 1.14951,-0.0451 1.14243,-0.13527 1.12829,-0.22451 1.10721,-0.31238 1.07928,-0.39832 1.04472,-0.4818 1.00371,-0.56233 0.95653,-0.63936 0.90342,-0.71246 0.84476,-0.78119 0.78089,-0.84507 0.71221,-0.90376 0.63912,-0.95688 0.56211,-1.00409 0.48163,-1.04511 0.39816,-1.0797 0.31226,-1.10761 0.22444,-1.12871 0.13521,-1.14286 0.0451,-1.14993 -0.0451,-1.14994 -0.13521,-1.14285 -0.22444,-1.1287 -0.31226,-1.10763 -0.39816,-1.07968 -0.48163,-1.04512 -0.56211,-1.00409 -0.63912,-0.95687 -0.71221,-0.90376 -0.78089,-0.84508 -0.84476,-0.78118 -0.90342,-0.71247 -0.95653,-0.63936 -1.00371,-0.56232 -1.04472,-0.4818 -1.07928,-0.39833 -1.10721,-0.31237 -1.12829,-0.22452 -1.14243,-0.13526 -1.14951,-0.0451 -1.1495,0.0451 -1.14242,0.13526 -1.12829,0.22452 -1.1072,0.31237 -1.0793,0.39833 -1.04471,0.4818 -1.00373,0.56232 -0.95651,0.63936 -0.90342,0.71247 -0.84476,0.78118 -0.7809,0.84508 -0.7122,0.90376 -0.63912,0.95687 -0.5621,1.00409 -0.48163,1.04512 -0.39817,1.07968 -0.31227,1.10763 -0.22442,1.1287 -0.13522,1.14285 z"
       fill-opacity="1"
       id="path76"
       style="stroke-width:0.976923" />
    <text
       fill="#000000"
       stroke="none"
       font-family="'Helvetica Neue', Helvetica, sans-serif"
       font-size="8px"
       font-style="normal"
       font-weight="normal"
       text-decoration="normal"
       x="287.22992"
       y="349.51749"
       text-anchor="middle"
       dominant-baseline="text-after-edge"
       fill-opacity="1"
       id="text78"
       style="font-size:10.5879px">pentose_phosphate_pathway</text>
    <path
       fill="#5081e2"
       stroke="none"
       paint-order="stroke fill markers"
       d="m 295.16675,53.194536 0.0451,1.14993 0.13521,1.14285 0.22444,1.12872 0.31226,1.10761 0.39817,1.0797 0.48162,1.04511 0.56212,1.00409 0.63913,0.95688 0.71219,0.90376 0.78089,0.84507 0.84476,0.78119 0.90342,0.71246 0.95652,0.63937 1.00371,0.56232 1.04474,0.4818 1.07928,0.39832 1.10721,0.31238 1.12828,0.22452 1.14243,0.13526 1.14955,0.0451 1.14951,-0.0451 1.14242,-0.13526 1.12829,-0.22452 1.1072,-0.31238 1.0793,-0.39832 1.04472,-0.4818 1.00371,-0.56232 0.95652,-0.63937 0.90343,-0.71246 0.84475,-0.78119 0.78089,-0.84507 0.71221,-0.90376 0.63912,-0.95688 0.56211,-1.00409 0.48162,-1.04511 0.39818,-1.0797 0.31226,-1.10761 0.22443,-1.12872 0.13521,-1.14285 0.0451,-1.14997 -0.0451,-1.14994 -0.13521,-1.14284 -0.22444,-1.12871 -0.31226,-1.10762 -0.39817,-1.07969 -0.48162,-1.04512 -0.56211,-1.00409 -0.63913,-0.95687 -0.7122,-0.90376 -0.78089,-0.84508 -0.84476,-0.78118 -0.90342,-0.71247 -0.95653,-0.63936 -1.00371,-0.56232 -1.04472,-0.48181 -1.07929,-0.39831 -1.1072,-0.31238 -1.12829,-0.22452 -1.14243,-0.13526 -1.14954,-0.0451 -1.14952,0.0451 -1.14242,0.13526 -1.12829,0.22452 -1.1072,0.31238 -1.07929,0.39831 -1.04473,0.48181 -1.00371,0.56232 -0.95653,0.63936 -0.90342,0.71247 -0.84476,0.78118 -0.78089,0.84508 -0.71219,0.90376 -0.63913,0.95687 -0.56212,1.00409 -0.48161,1.04512 -0.39818,1.07969 -0.31226,1.10762 -0.22444,1.12871 -0.13521,1.14284 z"
       fill-opacity="1"
       id="path80"
       style="fill:#e2e250;fill-opacity:1;stroke-width:0.976923" />
    <text
       fill="#000000"
       stroke="none"
       font-family="'Helvetica Neue', Helvetica, sans-serif"
       font-size="8px"
       font-style="normal"
       font-weight="normal"
       text-decoration="normal"
       x="308.90558"
       y="38.131519"
       text-anchor="middle"
       dominant-baseline="text-after-edge"
       fill-opacity="1"
       id="text82"
       style="font-size:10.5879px">AraB</text>
    <path
       fill="#5081e2"
       stroke="none"
       paint-order="stroke fill markers"
       d="m 168.19103,131.36271 0.0451,1.14994 0.13521,1.14285 0.22444,1.12871 0.31226,1.10761 0.39818,1.0797 0.48162,1.04511 0.56211,1.00409 0.63913,0.95688 0.7122,0.90376 0.78088,0.84507 0.84476,0.78119 0.90343,0.71246 0.95652,0.63937 1.00371,0.56232 1.04473,0.4818 1.0793,0.39832 1.10719,0.31238 1.12829,0.22452 1.14242,0.13526 1.14955,0.0451 1.14951,-0.0451 1.14242,-0.13526 1.12829,-0.22452 1.1072,-0.31238 1.07929,-0.39832 1.04473,-0.4818 1.00372,-0.56232 0.95651,-0.63937 0.90342,-0.71246 0.84476,-0.78119 0.78089,-0.84507 0.7122,-0.90376 0.63913,-0.95688 0.56211,-1.00409 0.48162,-1.04511 0.39817,-1.0797 0.31226,-1.10761 0.22444,-1.12871 0.13521,-1.14285 0.0451,-1.14998 -0.0451,-1.14994 -0.13521,-1.14284 -0.22443,-1.12871 -0.31227,-1.10761 -0.39817,-1.0797 -0.48162,-1.04512 -0.56211,-1.00409 -0.63913,-0.95687 -0.7122,-0.90376 -0.78089,-0.84508 -0.84476,-0.78118 -0.90342,-0.71246 -0.95651,-0.63937 -1.00372,-0.56232 -1.04472,-0.4818 -1.0793,-0.39832 -1.1072,-0.31238 -1.12829,-0.22452 -1.14241,-0.13526 -1.14956,-0.0451 -1.14951,0.0451 -1.14242,0.13526 -1.12828,0.22452 -1.1072,0.31238 -1.07929,0.39832 -1.04474,0.4818 -1.00371,0.56232 -0.95652,0.63937 -0.90342,0.71246 -0.84476,0.78118 -0.78089,0.84508 -0.71219,0.90376 -0.63913,0.95687 -0.56211,1.00409 -0.48162,1.04512 -0.39818,1.0797 -0.31227,1.10761 -0.22443,1.12871 -0.13521,1.14284 z"
       fill-opacity="1"
       id="path84"
       style="fill:#e2e250;fill-opacity:1;stroke-width:0.976923" />
    <text
       fill="#000000"
       stroke="none"
       font-family="'Helvetica Neue', Helvetica, sans-serif"
       font-size="8px"
       font-style="normal"
       font-weight="normal"
       text-decoration="normal"
       x="183.15419"
       y="118.00084"
       text-anchor="middle"
       dominant-baseline="text-after-edge"
       fill-opacity="1"
       id="text86"
       style="font-size:10.5879px">AraD</text>
    <path
       fill="#8150e2"
       stroke="none"
       paint-order="stroke fill markers"
       d="m 416.76164,67.529152 0.0451,1.14993 0.13521,1.14285 0.22443,1.12872 0.31227,1.10761 0.39817,1.0797 0.48162,1.04511 0.56211,1.00409 0.63913,0.95688 0.7122,0.90376 0.78088,0.84507 0.84476,0.78119 0.90343,0.71246 0.95652,0.63937 1.00371,0.56232 1.04473,0.4818 1.07928,0.39832 1.10722,0.31238 1.12828,0.22452 1.14243,0.13526 1.1495,0.0451 1.14951,-0.0451 1.14242,-0.13526 1.12829,-0.22452 1.1072,-0.31238 1.07929,-0.39832 1.04472,-0.4818 1.00372,-0.56232 0.95652,-0.63937 0.90342,-0.71246 0.84476,-0.78119 0.7809,-0.84507 0.71219,-0.90376 0.63913,-0.95688 0.56211,-1.00409 0.48162,-1.04511 0.39817,-1.0797 0.31227,-1.10761 0.22443,-1.12872 0.13521,-1.14285 0.0451,-1.14993 -0.0451,-1.14994 -0.13521,-1.14284 -0.22443,-1.12871 -0.31227,-1.10762 -0.39817,-1.07969 -0.48163,-1.04512 -0.56211,-1.00409 -0.63912,-0.95687 -0.7122,-0.90376 -0.78089,-0.84508 -0.84476,-0.78118 -0.90343,-0.71247 -0.95651,-0.63936 -1.00372,-0.56232 -1.04472,-0.48181 -1.0793,-0.39831 -1.1072,-0.31238 -1.12828,-0.22452 -1.14243,-0.13526 -1.1495,-0.0451 -1.14951,0.0451 -1.14242,0.13526 -1.12829,0.22452 -1.10721,0.31238 -1.07928,0.39831 -1.04473,0.48181 -1.00371,0.56232 -0.95653,0.63936 -0.90342,0.71247 -0.84476,0.78118 -0.78089,0.84508 -0.7122,0.90376 -0.63912,0.95687 -0.56212,1.00409 -0.48161,1.04512 -0.39818,1.07969 -0.31226,1.10762 -0.22443,1.12871 -0.13522,1.14284 z"
       fill-opacity="1"
       id="path88"
       style="fill:#fa8072;fill-opacity:1;stroke-width:0.976923" />
    <text
       fill="#000000"
       stroke="none"
       font-family="'Helvetica Neue', Helvetica, sans-serif"
       font-size="8px"
       font-style="normal"
       font-weight="normal"
       text-decoration="normal"
       x="417.48328"
       y="52.804676"
       text-anchor="middle"
       dominant-baseline="text-after-edge"
       fill-opacity="1"
       id="text90"
       style="font-size:10.5879px">l_arabinose_isomerase</text>
    <path
       fill="#50e281"
       stroke="none"
       paint-order="stroke fill markers"
       d="m 451.44458,131.36263 0.0451,1.14994 0.13522,1.14285 0.22443,1.12871 0.31226,1.10761 0.39817,1.0797 0.48162,1.04511 0.56212,1.00409 0.63912,0.95688 0.7122,0.90376 0.78089,0.84507 0.84476,0.78119 0.90342,0.71246 0.95653,0.63937 1.00371,0.56232 1.04473,0.4818 1.07928,0.39832 1.10721,0.31238 1.12828,0.22452 1.14243,0.13526 1.14951,0.0451 1.1495,-0.0451 1.14243,-0.13526 1.12828,-0.22452 1.1072,-0.31238 1.0793,-0.39832 1.04471,-0.4818 1.00372,-0.56232 0.95652,-0.63937 0.90342,-0.71246 0.84476,-0.78119 0.7809,-0.84507 0.7122,-0.90376 0.63912,-0.95688 0.56211,-1.00409 0.48162,-1.04511 0.39818,-1.0797 0.31226,-1.10761 0.22443,-1.12871 0.13521,-1.14289 0.0451,-1.14994 -0.0451,-1.14994 -0.13521,-1.14284 -0.22443,-1.12871 -0.31226,-1.10761 -0.39818,-1.0797 -0.48162,-1.04512 -0.56211,-1.00409 -0.63912,-0.95687 -0.7122,-0.90376 -0.7809,-0.84508 -0.84476,-0.78118 -0.90342,-0.71246 -0.95652,-0.63937 -1.00372,-0.56232 -1.04471,-0.4818 -1.0793,-0.39832 -1.1072,-0.31238 -1.12828,-0.22452 -1.14243,-0.13526 -1.1495,-0.0451 -1.14951,0.0451 -1.14243,0.13526 -1.12828,0.22452 -1.10721,0.31238 -1.07928,0.39832 -1.04473,0.4818 -1.00371,0.56232 -0.95653,0.63937 -0.90342,0.71246 -0.84476,0.78118 -0.78089,0.84508 -0.7122,0.90376 -0.63912,0.95687 -0.56212,1.00409 -0.48162,1.04512 -0.39817,1.0797 -0.31226,1.10761 -0.22443,1.12871 -0.13522,1.14284 z"
       fill-opacity="1"
       id="path92"
       style="fill:#a07be9;fill-opacity:1;stroke-width:0.976923" />
    <text
       fill="#000000"
       stroke="none"
       font-family="'Helvetica Neue', Helvetica, sans-serif"
       font-size="8px"
       font-style="normal"
       font-weight="normal"
       text-decoration="normal"
       x="465.04562"
       y="118.26139"
       text-anchor="middle"
       dominant-baseline="text-after-edge"
       fill-opacity="1"
       id="text94"
       style="font-size:10.5879px">l_ribulose</text>
    <path
       fill="#50e281"
       stroke="none"
       paint-order="stroke fill markers"
       d="m 294.98686,211.99975 0.0451,1.14994 0.13522,1.14285 0.22442,1.1287 0.31227,1.10762 0.39817,1.07969 0.48162,1.04512 0.56211,1.00409 0.63912,0.95688 0.71221,0.90375 0.78089,0.84508 0.84476,0.78118 0.90342,0.71247 0.95652,0.63936 1.00371,0.56232 1.04472,0.4818 1.0793,0.39833 1.1072,0.31238 1.1283,0.22451 1.14241,0.13527 1.14951,0.0451 1.14952,-0.0451 1.14242,-0.13527 1.12829,-0.22451 1.10721,-0.31238 1.07928,-0.39833 1.04473,-0.4818 1.00371,-0.56232 0.95652,-0.63936 0.90342,-0.71247 0.84476,-0.78118 0.78089,-0.84508 0.71221,-0.90375 0.63912,-0.95688 0.56211,-1.00409 0.48163,-1.04512 0.39816,-1.07969 0.31226,-1.10762 0.22444,-1.1287 0.13521,-1.14285 0.0451,-1.14994 -0.0451,-1.14994 -0.13521,-1.14285 -0.22444,-1.12871 -0.31226,-1.10761 -0.39816,-1.0797 -0.48163,-1.04511 -0.56211,-1.00409 -0.63912,-0.95688 -0.71221,-0.90376 -0.78089,-0.84507 -0.84476,-0.78118 -0.90342,-0.71247 -0.95652,-0.63936 -1.00371,-0.56232 -1.04473,-0.4818 -1.07928,-0.39833 -1.10721,-0.31238 -1.12829,-0.22452 -1.14242,-0.13526 -1.14952,-0.0451 -1.14951,0.0451 -1.14241,0.13526 -1.1283,0.22452 -1.1072,0.31238 -1.0793,0.39833 -1.04472,0.4818 -1.00371,0.56232 -0.95652,0.63936 -0.90342,0.71247 -0.84476,0.78118 -0.78089,0.84507 -0.71221,0.90376 -0.63912,0.95688 -0.56211,1.00409 -0.48162,1.04511 -0.39817,1.0797 -0.31227,1.10761 -0.22442,1.12871 -0.13522,1.14285 z"
       fill-opacity="1"
       id="path96"
       style="fill:#a07be9;fill-opacity:1;stroke-width:0.976923" />
    <text
       fill="#000000"
       stroke="none"
       font-family="'Helvetica Neue', Helvetica, sans-serif"
       font-size="8px"
       font-style="normal"
       font-weight="normal"
       text-decoration="normal"
       x="308.19333"
       y="198.07788"
       text-anchor="middle"
       dominant-baseline="text-after-edge"
       fill-opacity="1"
       id="text98"
       style="font-size:10.5879px">hydrogen</text>
    <path
       fill="#50e281"
       stroke="none"
       paint-order="stroke fill markers"
       d="m 449.86153,213.41062 0.0451,1.14994 0.13521,1.14284 0.22443,1.12872 0.31226,1.10761 0.39817,1.0797 0.48163,1.04511 0.5621,1.0041 0.63913,0.95687 0.7122,0.90376 0.7809,0.84508 0.84476,0.78118 0.90342,0.71246 0.95651,0.63937 1.00372,0.56232 1.04472,0.4818 1.07929,0.39831 1.10721,0.31239 1.12828,0.22451 1.14243,0.13527 1.1495,0.0451 1.14951,-0.0451 1.14242,-0.13527 1.12829,-0.22451 1.10721,-0.31239 1.07929,-0.39831 1.04472,-0.4818 1.00371,-0.56232 0.95653,-0.63937 0.90342,-0.71246 0.84476,-0.78118 0.78089,-0.84508 0.7122,-0.90376 0.63912,-0.95687 0.56212,-1.0041 0.48162,-1.04511 0.39817,-1.0797 0.31226,-1.10761 0.22443,-1.12872 0.13522,-1.14284 0.0451,-1.14994 -0.0451,-1.14994 -0.13522,-1.14284 -0.22443,-1.12871 -0.31226,-1.10762 -0.39817,-1.07969 -0.48162,-1.04512 -0.56212,-1.00409 -0.63912,-0.95687 -0.7122,-0.90376 -0.78089,-0.84508 -0.84476,-0.78118 -0.90342,-0.71247 -0.95653,-0.63937 -1.00371,-0.56231 -1.04472,-0.48181 -1.07929,-0.39831 -1.10721,-0.31238 -1.12829,-0.22452 -1.14242,-0.13526 -1.14951,-0.0451 -1.1495,0.0451 -1.14243,0.13526 -1.12828,0.22452 -1.10721,0.31238 -1.07929,0.39831 -1.04472,0.48181 -1.00372,0.56231 -0.95651,0.63937 -0.90342,0.71247 -0.84476,0.78118 -0.7809,0.84508 -0.7122,0.90376 -0.63913,0.95687 -0.5621,1.00409 -0.48163,1.04512 -0.39817,1.07969 -0.31226,1.10762 -0.22443,1.12871 -0.13521,1.14284 z"
       fill-opacity="1"
       id="path100"
       style="fill:#a07be9;fill-opacity:1;stroke-width:0.976923" />
    <text
       fill="#000000"
       stroke="none"
       font-family="'Helvetica Neue', Helvetica, sans-serif"
       font-size="8px"
       font-style="normal"
       font-weight="normal"
       text-decoration="normal"
       x="465.69391"
       y="199.78635"
       text-anchor="middle"
       dominant-baseline="text-after-edge"
       fill-opacity="1"
       id="text102"
       style="font-size:10.5879px">ADP</text>
    <path
       fill="#50e281"
       stroke="none"
       paint-order="stroke fill markers"
       d="m 373.30567,209.53072 0.0451,1.14994 0.13521,1.14285 0.22444,1.12871 0.31226,1.10761 0.39817,1.0797 0.48162,1.04511 0.56212,1.00409 0.63912,0.95688 0.7122,0.90376 0.78089,0.84507 0.84476,0.78119 0.90342,0.71246 0.95653,0.63936 1.00371,0.56233 1.04472,0.4818 1.0793,0.39832 1.1072,0.31238 1.12828,0.22452 1.14243,0.13526 1.14954,0.0451 1.14951,-0.0451 1.14243,-0.13526 1.12828,-0.22452 1.1072,-0.31238 1.0793,-0.39832 1.04472,-0.4818 1.00371,-0.56233 0.95653,-0.63936 0.90342,-0.71246 0.84476,-0.78119 0.78089,-0.84507 0.7122,-0.90376 0.63913,-0.95688 0.56211,-1.00409 0.48162,-1.04511 0.39817,-1.0797 0.31226,-1.10761 0.22444,-1.12871 0.13521,-1.14285 0.0451,-1.14998 -0.0451,-1.14994 -0.13521,-1.14284 -0.22444,-1.12871 -0.31226,-1.10761 -0.39817,-1.0797 -0.48162,-1.04512 -0.56211,-1.00409 -0.63913,-0.95687 -0.7122,-0.90376 -0.78089,-0.84508 -0.84476,-0.78118 -0.90342,-0.71246 -0.95652,-0.63937 -1.00371,-0.56232 -1.04473,-0.4818 -1.07929,-0.39832 -1.10721,-0.31238 -1.12828,-0.22452 -1.14242,-0.13526 -1.14955,-0.0451 -1.14951,0.0451 -1.14242,0.13526 -1.12829,0.22452 -1.1072,0.31238 -1.0793,0.39832 -1.04472,0.4818 -1.00371,0.56232 -0.95652,0.63937 -0.90342,0.71246 -0.84476,0.78118 -0.78089,0.84508 -0.71221,0.90376 -0.63912,0.95687 -0.56211,1.00409 -0.48162,1.04512 -0.39818,1.0797 -0.31226,1.10761 -0.22443,1.12871 -0.13521,1.14284 z"
       fill-opacity="1"
       id="path104"
       style="fill:#a07be9;fill-opacity:1;stroke-width:0.976923" />
    <text
       fill="#000000"
       stroke="none"
       font-family="'Helvetica Neue', Helvetica, sans-serif"
       font-size="8px"
       font-style="normal"
       font-weight="normal"
       text-decoration="normal"
       x="388.9863"
       y="196.6312"
       text-anchor="middle"
       dominant-baseline="text-after-edge"
       fill-opacity="1"
       id="text106"
       style="font-size:10.5879px">rib5p</text>
    <path
       fill="#50e281"
       stroke="none"
       paint-order="stroke fill markers"
       d="m 373.30567,131.36263 0.0451,1.14994 0.13521,1.14285 0.22444,1.12871 0.31226,1.10761 0.39817,1.0797 0.48162,1.04511 0.56212,1.00409 0.63912,0.95688 0.7122,0.90376 0.78089,0.84507 0.84476,0.78119 0.90342,0.71246 0.95653,0.63937 1.00371,0.56232 1.04472,0.4818 1.0793,0.39832 1.1072,0.31238 1.12828,0.22452 1.14243,0.13526 1.14954,0.0451 1.14951,-0.0451 1.14243,-0.13526 1.12828,-0.22452 1.1072,-0.31238 1.0793,-0.39832 1.04472,-0.4818 1.00371,-0.56232 0.95653,-0.63937 0.90342,-0.71246 0.84476,-0.78119 0.78089,-0.84507 0.7122,-0.90376 0.63913,-0.95688 0.56211,-1.00409 0.48162,-1.04511 0.39817,-1.0797 0.31226,-1.10761 0.22444,-1.12871 0.13521,-1.14285 0.0451,-1.14998 -0.0451,-1.14994 -0.13521,-1.14284 -0.22444,-1.12871 -0.31226,-1.10761 -0.39817,-1.0797 -0.48162,-1.04512 -0.56211,-1.00409 -0.63913,-0.95687 -0.7122,-0.90376 -0.78089,-0.84508 -0.84476,-0.78118 -0.90342,-0.71246 -0.95652,-0.63937 -1.00371,-0.56232 -1.04473,-0.4818 -1.07929,-0.39832 -1.10721,-0.31238 -1.12828,-0.22452 -1.14242,-0.13526 -1.14955,-0.0451 -1.14951,0.0451 -1.14242,0.13526 -1.12829,0.22452 -1.1072,0.31238 -1.0793,0.39832 -1.04472,0.4818 -1.00371,0.56232 -0.95652,0.63937 -0.90342,0.71246 -0.84476,0.78118 -0.78089,0.84508 -0.71221,0.90376 -0.63912,0.95687 -0.56211,1.00409 -0.48162,1.04512 -0.39818,1.0797 -0.31226,1.10761 -0.22443,1.12871 -0.13521,1.14284 z"
       fill-opacity="1"
       id="path108"
       style="fill:#a07be9;fill-opacity:1;stroke-width:0.976923" />
    <text
       fill="#000000"
       stroke="none"
       font-family="'Helvetica Neue', Helvetica, sans-serif"
       font-size="8px"
       font-style="normal"
       font-weight="normal"
       text-decoration="normal"
       x="389.20044"
       y="118.99612"
       text-anchor="middle"
       dominant-baseline="text-after-edge"
       fill-opacity="1"
       id="text110"
       style="font-size:10.5879px">ATP</text>
    <path
       fill="#8150e2"
       stroke="none"
       paint-order="stroke fill markers"
       d="m 295.16675,131.36263 0.0451,1.14994 0.13521,1.14285 0.22444,1.12871 0.31226,1.10761 0.39817,1.0797 0.48162,1.04511 0.56212,1.00409 0.63913,0.95688 0.71219,0.90376 0.78089,0.84507 0.84476,0.78119 0.90342,0.71246 0.95652,0.63937 1.00371,0.56232 1.04474,0.4818 1.07928,0.39832 1.10721,0.31238 1.12828,0.22452 1.14243,0.13526 1.14955,0.0451 1.14951,-0.0451 1.14242,-0.13526 1.12829,-0.22452 1.1072,-0.31238 1.0793,-0.39832 1.04472,-0.4818 1.00371,-0.56232 0.95652,-0.63937 0.90343,-0.71246 0.84475,-0.78119 0.78089,-0.84507 0.71221,-0.90376 0.63912,-0.95688 0.56211,-1.00409 0.48162,-1.04511 0.39818,-1.0797 0.31226,-1.10761 0.22443,-1.12871 0.13521,-1.14285 0.0451,-1.14998 -0.0451,-1.14994 -0.13521,-1.14284 -0.22444,-1.12871 -0.31226,-1.10761 -0.39817,-1.0797 -0.48162,-1.04512 -0.56211,-1.00409 -0.63913,-0.95687 -0.7122,-0.90376 -0.78089,-0.84508 -0.84476,-0.78118 -0.90342,-0.71246 -0.95653,-0.63937 -1.00371,-0.56232 -1.04472,-0.4818 -1.07929,-0.39832 -1.1072,-0.31238 -1.12829,-0.22452 -1.14243,-0.13526 -1.14954,-0.0451 -1.14952,0.0451 -1.14242,0.13526 -1.12829,0.22452 -1.1072,0.31238 -1.07929,0.39832 -1.04473,0.4818 -1.00371,0.56232 -0.95653,0.63937 -0.90342,0.71246 -0.84476,0.78118 -0.78089,0.84508 -0.71219,0.90376 -0.63913,0.95687 -0.56212,1.00409 -0.48161,1.04512 -0.39818,1.0797 -0.31226,1.10761 -0.22444,1.12871 -0.13521,1.14284 z"
       fill-opacity="1"
       id="path112"
       style="fill:#fa8072;fill-opacity:1;stroke-width:0.976923" />
    <text
       fill="#000000"
       stroke="none"
       font-family="'Helvetica Neue', Helvetica, sans-serif"
       font-size="8px"
       font-style="normal"
       font-weight="normal"
       text-decoration="normal"
       x="310.11987"
       y="118.43671"
       text-anchor="middle"
       dominant-baseline="text-after-edge"
       fill-opacity="1"
       id="text114"
       style="font-size:10.5879px">ribulokinase</text>
    <path
       fill="#50e281"
       stroke="none"
       paint-order="stroke fill markers"
       d="m 264.76948,285.93522 0.0451,1.14993 0.13522,1.14286 0.22442,1.12871 0.31227,1.10761 0.39817,1.0797 0.48163,1.04511 0.5621,1.00409 0.63912,0.95688 0.7122,0.90376 0.7809,0.84507 0.84476,0.78119 0.90342,0.71246 0.95651,0.63937 1.00373,0.56232 1.04471,0.4818 1.0793,0.39832 1.1072,0.31238 1.12829,0.22451 1.14242,0.13527 1.1495,0.0451 1.14951,-0.0451 1.14243,-0.13527 1.12829,-0.22451 1.10721,-0.31238 1.07928,-0.39832 1.04472,-0.4818 1.00371,-0.56232 0.95653,-0.63937 0.90342,-0.71246 0.84476,-0.78119 0.78089,-0.84507 0.71221,-0.90376 0.63912,-0.95688 0.56211,-1.00409 0.48163,-1.04511 0.39816,-1.0797 0.31226,-1.10761 0.22444,-1.12871 0.13521,-1.14286 0.0451,-1.14993 -0.0451,-1.14994 -0.13521,-1.14284 -0.22444,-1.12871 -0.31226,-1.10763 -0.39816,-1.07968 -0.48163,-1.04512 -0.56211,-1.00409 -0.63912,-0.95687 -0.71221,-0.90376 -0.78089,-0.84508 -0.84476,-0.78118 -0.90342,-0.71247 -0.95653,-0.63936 -1.00371,-0.56232 -1.04472,-0.4818 -1.07928,-0.39833 -1.10721,-0.31237 -1.12829,-0.22452 -1.14243,-0.13526 -1.14951,-0.0451 -1.1495,0.0451 -1.14242,0.13526 -1.12829,0.22452 -1.1072,0.31237 -1.0793,0.39833 -1.04471,0.4818 -1.00373,0.56232 -0.95651,0.63936 -0.90342,0.71247 -0.84476,0.78118 -0.7809,0.84508 -0.7122,0.90376 -0.63912,0.95687 -0.5621,1.00409 -0.48163,1.04512 -0.39817,1.07968 -0.31227,1.10763 -0.22442,1.12871 -0.13522,1.14284 z"
       fill-opacity="1"
       id="path116"
       style="fill:#a07be9;fill-opacity:1;stroke-width:0.976923" />
    <text
       fill="#000000"
       stroke="none"
       font-family="'Helvetica Neue', Helvetica, sans-serif"
       font-size="8px"
       font-style="normal"
       font-weight="normal"
       text-decoration="normal"
       x="279.67871"
       y="270.69662"
       text-anchor="middle"
       dominant-baseline="text-after-edge"
       fill-opacity="1"
       id="text118"
       style="font-size:10.5879px">Xyl5p</text>
    <path
       fill="#8150e2"
       stroke="none"
       paint-order="stroke fill markers"
       d="m 168.19101,209.53072 0.0451,1.14994 0.13521,1.14285 0.22444,1.12871 0.31226,1.10761 0.39818,1.0797 0.48162,1.04511 0.56211,1.00409 0.63913,0.95688 0.7122,0.90376 0.78088,0.84507 0.84476,0.78119 0.90343,0.71246 0.95652,0.63936 1.00371,0.56233 1.04473,0.4818 1.0793,0.39832 1.10719,0.31238 1.12829,0.22452 1.14242,0.13526 1.14955,0.0451 1.14951,-0.0451 1.14242,-0.13526 1.12829,-0.22452 1.1072,-0.31238 1.07929,-0.39832 1.04473,-0.4818 1.00372,-0.56233 0.95651,-0.63936 0.90342,-0.71246 0.84476,-0.78119 0.78089,-0.84507 0.7122,-0.90376 0.63913,-0.95688 0.56211,-1.00409 0.48162,-1.04511 0.39817,-1.0797 0.31226,-1.10761 0.22444,-1.12871 0.13521,-1.14285 0.0451,-1.14998 -0.0451,-1.14994 -0.13521,-1.14284 -0.22443,-1.12871 -0.31227,-1.10761 -0.39817,-1.0797 -0.48162,-1.04512 -0.56211,-1.00409 -0.63913,-0.95687 -0.7122,-0.90376 -0.78089,-0.84508 -0.84476,-0.78118 -0.90342,-0.71246 -0.95651,-0.63937 -1.00372,-0.56232 -1.04472,-0.4818 -1.0793,-0.39832 -1.1072,-0.31238 -1.12829,-0.22452 -1.14241,-0.13526 -1.14956,-0.0451 -1.14951,0.0451 -1.14242,0.13526 -1.12828,0.22452 -1.1072,0.31238 -1.07929,0.39832 -1.04474,0.4818 -1.00371,0.56232 -0.95652,0.63937 -0.90342,0.71246 -0.84476,0.78118 -0.78089,0.84508 -0.71219,0.90376 -0.63913,0.95687 -0.56211,1.00409 -0.48162,1.04512 -0.39818,1.0797 -0.31227,1.10761 -0.22443,1.12871 -0.13521,1.14284 z"
       fill-opacity="1"
       id="path124"
       style="fill:#fa8072;fill-opacity:1;stroke-width:0.976923" />
    <text
       fill="#000000"
       stroke="none"
       font-family="'Helvetica Neue', Helvetica, sans-serif"
       font-size="8px"
       font-style="normal"
       font-weight="normal"
       text-decoration="normal"
       x="176.0713"
       y="193.48914"
       text-anchor="middle"
       dominant-baseline="text-after-edge"
       fill-opacity="1"
       id="text126"
       style="font-size:10.5879px">rib5p_4_epimerase</text>
    <g
       transform="matrix(0.3609516,0,0,0.3609516,-98.460435,-8.9990193)"
       id="g128" />
  </g>
  <g
     transform="matrix(1.4511905,0,0,1.4511905,3039.7013,-71.665816)"
     id="g170">
    <g
       transform="matrix(0.68908942,0,0,0.68908942,-361.85448,-15.692344)"
       id="g168" />
    <g
       transform="matrix(1.0725989,-2.13846,2.13846,1.0725989,-4742.0024,2388.6526)"
       id="g138">
      <g
         transform="matrix(0.49896716,0,0,0.49896716,646.66531,243.82713)"
         id="g136" />
      <g
         id="g1778"
         transform="matrix(0.37416109,0.74597176,-0.74597176,0.37416109,1587.8209,587.36003)">
        <text
           xml:space="preserve"
           transform="matrix(0.53875344,0,0,0.53875344,-169.3424,189.42348)"
           id="text3637-4"
           style="font-style:normal;font-weight:normal;font-size:37.3333px;line-height:1.25;font-family:sans-serif;white-space:pre;shape-inside:url(#rect3639-3);fill:#000000;fill-opacity:1;stroke:none"><tspan
             x="1443.0723"
             y="73.013644"
             id="tspan15753">Node Color</tspan></text>
        <text
           xml:space="preserve"
           transform="matrix(0.53875344,0,0,0.53875344,-171.30482,296.6661)"
           id="text3637-7-7"
           style="font-style:normal;font-weight:normal;font-size:37.3333px;line-height:1.25;font-family:sans-serif;white-space:pre;shape-inside:url(#rect3639-5-6);fill:#000000;fill-opacity:1;stroke:none"><tspan
             x="1443.0723"
             y="73.013644"
             id="tspan15755">Edge Color</tspan></text>
        <rect
           id="rect18643-7-6"
           width="29.16246"
           height="8.8964348"
           x="612.1308"
           y="236.3336"
           style="fill:#e2e250;fill-opacity:1;stroke:none;stroke-width:0.365162;stroke-miterlimit:4;stroke-dasharray:none;stroke-opacity:1"
           ry="1.5751116" />
        <text
           xml:space="preserve"
           transform="matrix(0.53875344,0,0,0.53875344,-124.17624,213.1978)"
           id="text27183-1-5"
           style="font-style:normal;font-weight:normal;font-size:21.3333px;line-height:1.25;font-family:sans-serif;white-space:pre;shape-inside:url(#rect27185-7-7);fill:#000000;fill-opacity:1;stroke:none"><tspan
             x="1443.0723"
             y="58.857392"
             id="tspan15757">CDS</tspan></text>
        <rect
           id="rect18643-7-1-9-6"
           width="29.16246"
           height="8.8964348"
           x="612.35413"
           y="251.39667"
           style="fill:#5081e2;fill-opacity:1;stroke:none;stroke-width:0.365162;stroke-miterlimit:4;stroke-dasharray:none;stroke-opacity:1"
           ry="1.5751116" />
        <text
           xml:space="preserve"
           transform="matrix(0.53875344,0,0,0.53875344,-123.95295,228.26088)"
           id="text27183-1-7-8-9"
           style="font-style:normal;font-weight:normal;font-size:21.3333px;line-height:1.25;font-family:sans-serif;white-space:pre;shape-inside:url(#rect27185-7-6-9-5);fill:#000000;fill-opacity:1;stroke:none"><tspan
             x="1443.0723"
             y="58.857392"
             id="tspan15759">Pathway</tspan></text>
        <rect
           id="rect18643-7-1-9-6-6"
           width="29.16246"
           height="8.8964348"
           x="612.0473"
           y="266.79379"
           style="fill:#fa8072;fill-opacity:1;stroke:none;stroke-width:0.365162;stroke-miterlimit:4;stroke-dasharray:none;stroke-opacity:1"
           ry="1.5751116" />
        <text
           xml:space="preserve"
           transform="matrix(0.53875344,0,0,0.53875344,-124.25869,243.65799)"
           id="text27183-1-7-8-9-7"
           style="font-style:normal;font-weight:normal;font-size:21.3333px;line-height:1.25;font-family:sans-serif;white-space:pre;shape-inside:url(#rect27185-7-6-9-5-3);fill:#000000;fill-opacity:1;stroke:none"><tspan
             x="1443.0723"
             y="58.857392"
             id="tspan15761">Protein</tspan></text>
        <rect
           id="rect18643-7-1-9-6-5"
           width="29.16246"
           height="8.8964348"
           x="612.0473"
           y="281.52429"
           style="fill:#a07be9;fill-opacity:1;stroke:none;stroke-width:0.365162;stroke-miterlimit:4;stroke-dasharray:none;stroke-opacity:1"
           ry="1.5751116" />
        <text
           xml:space="preserve"
           transform="matrix(0.53875344,0,0,0.53875344,-124.25978,258.38852)"
           id="text27183-1-7-8-9-6"
           style="font-style:normal;font-weight:normal;font-size:21.3333px;line-height:1.25;font-family:sans-serif;white-space:pre;shape-inside:url(#rect27185-7-6-9-5-5);fill:#000000;fill-opacity:1;stroke:none"><tspan
             x="1443.0723"
             y="58.857392"
             id="tspan15763">Small Molecule</tspan></text>
        <rect
           id="rect18643-9-5"
           width="29.16246"
           height="8.8964348"
           x="611.98956"
           y="345.50992"
           style="fill:#e2e250;fill-opacity:1;stroke:none;stroke-width:0.365162;stroke-miterlimit:4;stroke-dasharray:none;stroke-opacity:1"
           ry="1.5751116" />
        <text
           xml:space="preserve"
           transform="matrix(0.53875344,0,0,0.53875344,-125.6981,322.37435)"
           id="text27183-2-2"
           style="font-style:normal;font-weight:normal;font-size:21.3333px;line-height:1.25;font-family:sans-serif;white-space:pre;shape-inside:url(#rect27185-4-5);fill:#000000;fill-opacity:1;stroke:none"><tspan
             x="1443.0723"
             y="58.857392"
             id="tspan15765">Protein Production</tspan></text>
        <rect
           id="rect18643-7-1-5"
           width="29.16246"
           height="8.8964348"
           x="611.72028"
           y="359.87836"
           style="fill:#a07be9;fill-opacity:1;stroke:none;stroke-width:0.365162;stroke-miterlimit:4;stroke-dasharray:none;stroke-opacity:1"
           ry="1.5751116" />
        <text
           xml:space="preserve"
           transform="matrix(0.53875344,0,0,0.53875344,-125.27708,336.74279)"
           id="text27183-1-1-4"
           style="font-style:normal;font-weight:normal;font-size:21.3333px;line-height:1.25;font-family:sans-serif;white-space:pre;shape-inside:url(#rect27185-7-8-6);fill:#000000;fill-opacity:1;stroke:none"><tspan
             x="1443.0723"
             y="58.857392"
             id="tspan15767">Conversion</tspan></text>
        <rect
           id="rect18643-9-5-2"
           width="29.16246"
           height="8.8964348"
           x="611.72028"
           y="374.60889"
           style="fill:#2ad4ff;fill-opacity:1;stroke:none;stroke-width:0.365162;stroke-miterlimit:4;stroke-dasharray:none;stroke-opacity:1"
           ry="1.5751116" />
        <text
           xml:space="preserve"
           transform="matrix(0.53875344,0,0,0.53875344,-125.27707,351.47333)"
           id="text27183-2-2-3"
           style="font-style:normal;font-weight:normal;font-size:21.3333px;line-height:1.25;font-family:sans-serif;white-space:pre;shape-inside:url(#rect27185-4-5-0);fill:#000000;fill-opacity:1;stroke:none"><tspan
             x="1443.0723"
             y="58.857392"
             id="tspan15769">Activation</tspan></text>
      </g>
    </g>
  </g>
  <path
     fill="none"
     stroke="#50e2e2"
     paint-order="fill stroke markers"
     d="m 1121.3185,822.54279 213.908,-218.76603"
     stroke-opacity="1"
     stroke-linejoin="round"
     stroke-miterlimit="10"
     stroke-width="4.21145"
     id="path4-3"
     style="stroke:#fa8072;stroke-width:9.07087;stroke-miterlimit:10;stroke-dasharray:none;stroke-opacity:1" />
  <path
     fill="none"
     stroke="#e28150"
     paint-order="fill stroke markers"
     d="m 1092.1398,803.14079 0.1711,-297.91171"
     stroke-opacity="1"
     stroke-linejoin="round"
     stroke-miterlimit="10"
     stroke-width="3.39797"
     id="path8-6"
     style="stroke:#ec78e7;stroke-width:9.071;stroke-miterlimit:10;stroke-dasharray:none;stroke-opacity:1" />
  <path
     fill="none"
     stroke="#e2e250"
     paint-order="fill stroke markers"
     d="m 1399.6144,592.95008 149.0948,56.99009"
     stroke-opacity="1"
     stroke-linejoin="round"
     stroke-miterlimit="10"
     stroke-width="3.38063"
     id="path12-2"
     style="stroke:#2ad4ff;stroke-width:9.07087;stroke-miterlimit:10;stroke-dasharray:none;stroke-opacity:1" />
  <path
     fill="none"
     stroke="#e2e250"
     paint-order="fill stroke markers"
     d="m 1619.6479,649.90794 148.5513,-59.72281"
     stroke-opacity="1"
     stroke-linejoin="round"
     stroke-miterlimit="10"
     stroke-width="2.59786"
     id="path12-5-8"
     style="stroke:#2ad4ff;stroke-width:9.07087;stroke-miterlimit:10;stroke-dasharray:none;stroke-opacity:1" />
  <path
     fill="none"
     stroke="#81e250"
     paint-order="fill stroke markers"
     d="m 2077.3014,1032.3367 0.8482,-150.99564"
     stroke-opacity="1"
     stroke-linejoin="round"
     stroke-miterlimit="10"
     stroke-width="2.36496"
     id="path16-0"
     style="stroke:#e2e250;stroke-width:9.07087;stroke-miterlimit:10;stroke-dasharray:none;stroke-opacity:1" />
  <path
     fill="none"
     stroke="#e28150"
     paint-order="fill stroke markers"
     d="m 2077.1858,805.00562 0.4596,-299.86679"
     stroke-opacity="1"
     stroke-linejoin="round"
     stroke-miterlimit="10"
     stroke-width="3.38445"
     id="path20-6"
     style="stroke:#ec78e7;stroke-width:9.07087;stroke-miterlimit:10;stroke-dasharray:none;stroke-opacity:1" />
  <path
     fill="none"
     stroke="#50e2e2"
     paint-order="fill stroke markers"
     d="M 2048.6283,811.55181 1819.1585,586.87702"
     stroke-opacity="1"
     stroke-linejoin="round"
     stroke-miterlimit="10"
     stroke-width="4.24081"
     id="path24-2"
     style="stroke:#fa8072;stroke-width:9.07087;stroke-miterlimit:10;stroke-dasharray:none;stroke-opacity:1" />
  <path
     fill="none"
     stroke="#50e2e2"
     paint-order="fill stroke markers"
     d="m 1583.8564,884.76103 -0.5188,303.75567"
     stroke-opacity="1"
     stroke-linejoin="round"
     stroke-miterlimit="10"
     stroke-width="3.55412"
     id="path32-6"
     style="stroke:#fa8072;stroke-width:9.07087;stroke-miterlimit:10;stroke-dasharray:none;stroke-opacity:1" />
  <path
     fill="none"
     stroke="#e2e250"
     paint-order="fill stroke markers"
     d="M 1543.0183,1213.0864 1122.7755,1078.4442"
     stroke-opacity="1"
     stroke-linejoin="round"
     stroke-miterlimit="10"
     stroke-width="6.26648"
     id="path36-1"
     style="stroke:#2ad4ff;stroke-width:9.07087;stroke-miterlimit:10;stroke-dasharray:none;stroke-opacity:1" />
  <path
     fill="none"
     stroke="#e2e250"
     paint-order="fill stroke markers"
     d="m 1622.8712,1214.0687 420.9624,-136.4026"
     stroke-opacity="1"
     stroke-linejoin="round"
     stroke-miterlimit="10"
     stroke-width="6.81826"
     id="path40-8"
     style="stroke:#2ad4ff;stroke-width:9.07087;stroke-miterlimit:10;stroke-dasharray:none;stroke-opacity:1" />
  <path
     fill="none"
     stroke="#e2e250"
     paint-order="fill stroke markers"
     d="m 1582.38,1183.8451 -2.6146,229.2503"
     stroke-opacity="1"
     stroke-linejoin="round"
     stroke-miterlimit="10"
     stroke-width="3"
     id="path44-7"
     style="stroke:#2ad4ff;stroke-width:9.07087;stroke-miterlimit:10;stroke-dasharray:none;stroke-opacity:1" />
  <path
     fill="none"
     stroke="#e28150"
     paint-order="fill stroke markers"
     d="m 2074.787,247.92365 0.027,240.49695"
     stroke-opacity="1"
     stroke-linejoin="round"
     stroke-miterlimit="10"
     stroke-width="3"
     id="path48-9"
     style="stroke:#ec78e7;stroke-width:9.07087;stroke-miterlimit:10;stroke-dasharray:none;stroke-opacity:1" />
  <path
     fill="#e28150"
     stroke="none"
     paint-order="stroke fill markers"
     d="m 2061.2475,382.29977 13.856,26.2985 13.5545,-26.43926 z"
     fill-opacity="1"
     id="path50-20"
     style="fill:#ec78e7;fill-opacity:1;stroke-width:3.09022" />
  <path
     fill="#e28150"
     stroke="none"
     paint-order="stroke fill markers"
     d="m 1567.0851,1308.2121 13.7855,26.3355 13.6252,-26.4028 z"
     fill-opacity="1"
     id="path50-36"
     style="fill:#2ad4ff;fill-opacity:1;stroke-width:3.09022" />
  <path
     fill="#e28150"
     stroke="none"
     paint-order="stroke fill markers"
     d="m 1569.708,1002.7465 13.7028,26.3785 13.708,-26.3599 z"
     fill-opacity="1"
     id="path50-36-2"
     style="fill:#fa8072;fill-opacity:1;stroke-width:3.09022" />
  <path
     fill="#e28150"
     stroke="none"
     paint-order="stroke fill markers"
     d="m 1569.7053,752.13079 13.8866,26.28217 13.5236,-26.45476 z"
     fill-opacity="1"
     id="path50-36-2-6"
     style="fill:#e2e250;fill-opacity:1;stroke-width:3.09022" />
  <path
     fill="#e28150"
     stroke="none"
     paint-order="stroke fill markers"
     d="m 1564.0113,1483.6126 13.9138,26.2678 13.4963,-26.4689 z"
     fill-opacity="1"
     id="path50-36-6"
     style="fill:#e2e250;fill-opacity:1;stroke-width:3.09022" />
  <path
     fill="#e28150"
     stroke="none"
     paint-order="stroke fill markers"
     d="m 2091.175,666.9311 -13.474,-26.49616 -13.9355,26.24027 z"
     fill-opacity="1"
     id="path50-5"
     style="fill:#ec78e7;fill-opacity:1;stroke-width:3.09022" />
  <path
     fill="#e28150"
     stroke="none"
     paint-order="stroke fill markers"
     d="m 2091.6157,965.24408 -13.4741,-26.49616 -13.9355,26.24026 z"
     fill-opacity="1"
     id="path50-5-2"
     style="fill:#e2e250;fill-opacity:1;stroke-width:3.09022" />
  <path
     fill="#e28150"
     stroke="none"
     paint-order="stroke fill markers"
     d="m 1031.0401,349.09785 20.5329,21.49384 5.7893,-29.14158 z"
     fill-opacity="1"
     id="path50-2"
     style="fill:#ec78e7;fill-opacity:1;stroke-width:3.09022" />
  <path
     fill="#e28150"
     stroke="none"
     paint-order="stroke fill markers"
     d="m 1105.6999,657.66293 -13.4741,-26.49616 -13.9355,26.24027 z"
     fill-opacity="1"
     id="path50-5-7"
     style="fill:#ec78e7;fill-opacity:1;stroke-width:3.09022" />
  <path
     fill="#e28150"
     stroke="none"
     paint-order="stroke fill markers"
     d="m 1247.189,713.47096 10.3468,-27.86638 -28.738,7.54126 z"
     fill-opacity="1"
     id="path50-5-7-1"
     style="fill:#fa8072;fill-opacity:1;stroke-width:3.09022" />
  <path
     fill="#e28150"
     stroke="none"
     paint-order="stroke fill markers"
     d="m 1214.7859,534.39408 29.724,-0.27317 -17.2956,-24.15795 z"
     fill-opacity="1"
     id="path50-5-7-1-8"
     style="fill:#2ad4ff;fill-opacity:1;stroke-width:3.09022" />
  <path
     fill="#e28150"
     stroke="none"
     paint-order="stroke fill markers"
     d="m 1444.6309,623.97233 29.6834,-1.57564 -18.3379,-23.37662 z"
     fill-opacity="1"
     id="path50-5-7-1-8-7"
     style="fill:#2ad4ff;fill-opacity:1;stroke-width:3.09022" />
  <path
     fill="#e28150"
     stroke="none"
     paint-order="stroke fill markers"
     d="m 1106.305,955.80708 -13.7621,-26.34758 -13.6486,26.39048 z"
     fill-opacity="1"
     id="path50-5-2-0"
     style="fill:#e2e250;fill-opacity:1;stroke-width:3.09022" />
  <path
     fill="#e28150"
     stroke="none"
     paint-order="stroke fill markers"
     d="m 1867.7688,1148.5777 22.2634,-19.696 -28.8989,-6.8995 z"
     fill-opacity="1"
     id="path50-5-2-1"
     style="fill:#2ad4ff;fill-opacity:1;stroke-width:3.09022" />
  <path
     fill="#e28150"
     stroke="none"
     paint-order="stroke fill markers"
     d="m 1284.3141,1116.0336 -29.1382,5.8781 21.5441,20.4596 z"
     fill-opacity="1"
     id="path50-5-2-1-9"
     style="fill:#2ad4ff;fill-opacity:1;stroke-width:3.09022" />
  <path
     fill="#e28150"
     stroke="none"
     paint-order="stroke fill markers"
     d="m 1952.0473,696.52886 -28.991,-6.56647 11.2796,27.48679 z"
     fill-opacity="1"
     id="path50-5-6"
     style="fill:#fa8072;fill-opacity:1;stroke-width:3.09022" />
  <path
     fill="#e28150"
     stroke="none"
     paint-order="stroke fill markers"
     d="m 1946.2069,501.74783 -17.7522,23.84231 29.6996,0.8277 z"
     fill-opacity="1"
     id="path50-3"
     style="fill:#2ad4ff;fill-opacity:1;stroke-width:3.09022" />
  <path
     fill="#e28150"
     stroke="none"
     paint-order="stroke fill markers"
     d="m 1707.4244,599.63828 -17.0991,24.31452 29.7112,0.0221 z"
     fill-opacity="1"
     id="path50-3-9"
     style="fill:#2ad4ff;fill-opacity:1;stroke-width:3.09022" />
  <path
     fill="none"
     stroke="#81e250"
     paint-order="fill stroke markers"
     d="m 1092.4739,1032.0872 0.1829,-206.85854"
     stroke-opacity="1"
     stroke-linejoin="round"
     stroke-miterlimit="10"
     stroke-width="2.75442"
     id="path56-2"
     style="stroke:#e2e250;stroke-width:9.07087;stroke-miterlimit:10;stroke-dasharray:none;stroke-opacity:1" />
  <path
     fill="none"
     stroke="#81e250"
     paint-order="fill stroke markers"
     d="M 1577.9504,1407.8455 1577.407,1553.93"
     stroke-opacity="1"
     stroke-linejoin="round"
     stroke-miterlimit="10"
     stroke-width="2.51715"
     id="path60-3"
     style="stroke:#e2e250;stroke-width:9.07087;stroke-miterlimit:10;stroke-dasharray:none;stroke-opacity:1" />
  <path
     fill="none"
     stroke="#81e250"
     paint-order="fill stroke markers"
     d="m 1583.3885,709.45701 -0.019,96.77723"
     stroke-opacity="1"
     stroke-linejoin="round"
     stroke-miterlimit="10"
     stroke-width="1.93707"
     id="path64-7"
     style="stroke:#e2e250;stroke-width:9.07087;stroke-miterlimit:10;stroke-dasharray:none;stroke-opacity:1" />
  <path
     fill="none"
     stroke="#e28150"
     paint-order="fill stroke markers"
     d="m 1013.4989,262.08349 60.3025,167.32319"
     stroke-opacity="1"
     stroke-linejoin="round"
     stroke-miterlimit="10"
     stroke-width="3"
     id="path68-5"
     style="stroke:#ec78e7;stroke-width:9;stroke-miterlimit:10;stroke-dasharray:none;stroke-opacity:1" />
  <path
     fill="#8150e2"
     stroke="none"
     paint-order="stroke fill markers"
     d="m 1595.9724,1558.2632 2.8073,1.5487 2.677,1.7644 2.5304,1.9689 2.3681,2.1614 2.1912,2.3406 2.0008,2.5052 1.7981,2.6544 1.5843,2.7875 1.3607,2.903 1.1287,3.001 0.8898,3.0802 0.6454,3.1405 0.397,3.1815 0.1462,3.2028 -0.1056,3.2044 -0.3567,3.1865 -0.6055,3.1483 -0.8507,3.0913 -1.0907,3.015 -1.3239,2.92 -1.5488,2.8073 -1.7643,2.677 -1.969,2.5304 -2.1614,2.3681 -2.3405,2.1912 -2.5052,2.0008 -2.6545,1.7981 -2.7874,1.5843 -2.9031,1.3608 -3.0009,1.1287 -3.0802,0.8898 -3.1406,0.6453 -3.1815,0.3971 -3.2028,0.1461 -3.2044,-0.1059 -3.1863,-0.3567 -3.1485,-0.6056 -3.0912,-0.8508 -3.015,-1.0906 -2.92,-1.324 -2.8073,-1.5487 -2.6771,-1.7644 -2.5303,-1.9688 -2.3681,-2.1615 -2.1912,-2.3405 -2.0008,-2.5052 -1.7981,-2.6546 -1.5844,-2.7874 -1.3606,-2.9031 -1.1288,-3.0009 -0.8898,-3.0802 -0.6454,-3.1404 -0.397,-3.1816 -0.1461,-3.2029 0.1055,-3.2043 0.3567,-3.1863 0.6056,-3.1485 0.8507,-3.0913 1.0906,-3.015 1.324,-2.92 1.5487,-2.8072 1.7644,-2.677 1.9689,-2.5304 2.1614,-2.3682 2.3405,-2.1911 2.5053,-2.0009 2.6545,-1.7982 2.7874,-1.5843 2.903,-1.3607 3.001,-1.1287 3.0802,-0.8899 3.1405,-0.6453 3.1815,-0.397 3.2029,-0.1461 3.2044,0.1059 3.1863,0.3566 3.1484,0.6058 3.0913,0.8506 3.0149,1.0908 z"
     fill-opacity="1"
     id="path76-9"
     style="fill:#fa8072;fill-opacity:1;stroke-width:2.72219" />
  <text
     fill="#000000"
     stroke="none"
     font-family="'Helvetica Neue', Helvetica, sans-serif"
     font-size="21.7774px"
     font-style="normal"
     font-weight="normal"
     text-decoration="normal"
     x="1568.4565"
     y="1567.3148"
     text-anchor="middle"
     dominant-baseline="text-after-edge"
     fill-opacity="1"
     id="text78-2"
     transform="rotate(-0.30912039)"
     style="font-size:29.3333px;stroke-width:2.72219">GFP</text>
  <path
     fill="#8d5235"
     stroke="none"
     paint-order="stroke fill markers"
     d="m 1597.6069,1373.9616 2.8072,1.5488 2.6771,1.7644 2.5304,1.9689 2.3681,2.1613 2.1912,2.3407 2.0008,2.5051 1.7981,2.6545 1.5843,2.7875 1.3607,2.903 1.1287,3.001 0.8898,3.0801 0.6454,3.1406 0.397,3.1816 0.1462,3.2027 -0.1057,3.2045 -0.3567,3.1863 -0.6055,3.1484 -0.8508,3.0913 -1.0906,3.0149 -1.3239,2.9201 -1.5488,2.8073 -1.7643,2.677 -1.969,2.5303 -2.1614,2.3682 -2.3405,2.1912 -2.5052,2.0008 -2.6545,1.7982 -2.7874,1.5842 -2.9031,1.3607 -3.0009,1.1288 -3.0803,0.8897 -3.1405,0.6454 -3.1815,0.3969 -3.2028,0.1463 -3.2045,-0.1055 -3.1862,-0.3567 -3.1485,-0.6056 -3.0912,-0.8508 -3.015,-1.0906 -2.92,-1.3239 -2.8073,-1.5488 -2.6771,-1.7644 -2.5303,-1.9688 -2.3682,-2.1615 -2.1912,-2.3405 -2.0008,-2.5052 -1.7981,-2.6545 -1.5843,-2.7875 -1.3607,-2.903 -1.1287,-3.001 -0.8898,-3.0802 -0.6454,-3.1405 -0.397,-3.1815 -0.1461,-3.2028 0.1055,-3.2045 0.3567,-3.1862 0.6056,-3.1484 0.8507,-3.0913 1.0906,-3.015 1.3239,-2.92 1.5488,-2.8074 1.7643,-2.677 1.969,-2.5304 2.1614,-2.368 2.3405,-2.1913 2.5053,-2.0009 2.6545,-1.798 2.7873,-1.5842 2.9031,-1.3607 3.001,-1.1288 3.0802,-0.8897 3.1405,-0.6454 3.1815,-0.3972 3.2028,-0.146 3.2045,0.1055 3.1862,0.3567 3.1485,0.6055 3.0912,0.8508 3.015,1.0906 z"
     fill-opacity="1"
     id="path80-2"
     style="fill:#e2e250;fill-opacity:1;stroke-width:2.72219" />
  <text
     fill="#000000"
     stroke="none"
     font-family="'Helvetica Neue', Helvetica, sans-serif"
     font-size="21.7774px"
     font-style="normal"
     font-weight="normal"
     text-decoration="normal"
     x="1571.184"
     y="1383.9725"
     text-anchor="middle"
     dominant-baseline="text-after-edge"
     fill-opacity="1"
     id="text82-8"
     transform="rotate(-0.36787236)"
     style="font-size:29.3333px;stroke-width:2.72219">GFP</text>
  <path
     fill="#8150e2"
     stroke="none"
     paint-order="stroke fill markers"
     d="m 1110.7049,804.93714 2.8075,1.54827 2.6769,1.7645 2.5305,1.96874 2.3682,2.16139 2.191,2.34064 2.0009,2.50525 1.7981,2.65451 1.5843,2.78729 1.3607,2.90318 1.1287,3.00094 0.8898,3.08027 0.6455,3.14044 0.3969,3.18149 0.1463,3.20278 -0.106,3.20443 -0.3567,3.18627 -0.6056,3.14851 -0.8509,3.09133 -1.0905,3.01489 -1.3239,2.92008 -1.5489,2.80732 -1.7642,2.677 -1.969,2.53045 -2.1613,2.36791 -2.3406,2.19124 -2.5052,2.00079 -2.6546,1.79829 -2.7873,1.58428 -2.9031,1.36059 -3.0009,1.12879 -3.0804,0.88983 -3.1403,0.64524 -3.1816,0.39711 -3.2028,0.14616 -3.2045,-0.10553 -3.1862,-0.3568 -3.1485,-0.60558 -3.0912,-0.85066 -3.015,-1.09072 -2.9197,-1.32442 -2.8076,-1.54827 -2.6771,-1.76424 -2.5304,-1.96901 -2.368,-2.16139 -2.1913,-2.34042 -2.0008,-2.50523 -1.7982,-2.65453 -1.5841,-2.78752 -1.3608,-2.90294 -1.1287,-3.00094 -0.8898,-3.08026 -0.6455,-3.14043 -0.397,-3.18151 -0.146,-3.20302 0.1059,-3.20442 0.3567,-3.18626 0.6056,-3.14829 0.8506,-3.09133 1.0907,-3.01489 1.324,-2.92009 1.5487,-2.80731 1.7644,-2.67696 1.9689,-2.53048 2.1615,-2.36816 2.3404,-2.19121 2.5053,-2.00081 2.6545,-1.79805 2.7873,-1.58428 2.9031,-1.3606 3.001,-1.12877 3.0801,-0.88984 3.1407,-0.64548 3.1814,-0.39688 3.2029,-0.14616 3.2044,0.10554 3.1863,0.35658 3.1485,0.60556 3.0911,0.85092 3.0151,1.09048 z"
     fill-opacity="1"
     id="path84-9"
     style="fill:#fa8072;fill-opacity:1;stroke-width:2.72219" />
  <text
     fill="#000000"
     stroke="none"
     font-family="'Helvetica Neue', Helvetica, sans-serif"
     font-size="21.7774px"
     font-style="normal"
     font-weight="normal"
     text-decoration="normal"
     x="2083.7881"
     y="786.26239"
     text-anchor="middle"
     dominant-baseline="text-after-edge"
     fill-opacity="1"
     id="text86-7"
     transform="rotate(0.48668666)"
     style="font-size:29.3333px;stroke-width:2.72219">tetR</text>
  <path
     fill="#8150e2"
     stroke="none"
     paint-order="stroke fill markers"
     d="m 1601.9046,807.43081 2.8075,1.54826 2.6771,1.76427 2.5303,1.96899 2.3682,2.1614 2.1911,2.34064 2.0008,2.50523 1.7981,2.65452 1.5843,2.78729 1.3607,2.90317 1.1287,3.00096 0.8899,3.08002 0.6454,3.14067 0.397,3.1815 0.1461,3.20278 -0.1055,3.20442 -0.3567,3.18627 -0.6056,3.14852 -0.8507,3.09109 -1.0907,3.01513 -1.3239,2.92008 -1.5487,2.80708 -1.7644,2.67723 -1.9689,2.53021 -2.1614,2.36816 -2.3405,2.19123 -2.5053,2.00079 -2.6544,1.79806 -2.7874,1.58428 -2.9032,1.36083 -3.0009,1.12879 -3.0802,0.88958 -3.1405,0.64548 -3.1816,0.39712 -3.2028,0.14617 -3.2043,-0.10581 -3.1863,-0.35657 -3.1485,-0.60558 -3.0913,-0.85067 -3.0149,-1.09071 -2.9198,-1.32442 -2.8075,-1.54828 -2.6771,-1.76423 -2.5304,-1.96902 -2.3681,-2.16139 -2.1911,-2.34064 -2.001,-2.50501 -1.7981,-2.65451 -1.5842,-2.78752 -1.3607,-2.9032 -1.1288,-3.00069 -0.8898,-3.08026 -0.6453,-3.14068 -0.397,-3.1815 -0.1462,-3.20278 0.1056,-3.20443 0.3567,-3.18625 0.6056,-3.14854 0.8506,-3.09108 1.0907,-3.01514 1.3239,-2.91984 1.5487,-2.80732 1.7645,-2.6772 1.9688,-2.53024 2.1615,-2.36815 2.3405,-2.19122 2.5052,-2.0008 2.6545,-1.79805 2.7874,-1.58429 2.9032,-1.36084 3.0008,-1.12854 3.0802,-0.88983 3.1406,-0.64546 3.1814,-0.39689 3.2029,-0.14616 3.2044,0.10553 3.1863,0.35658 3.1485,0.60557 3.0913,0.85068 3.0149,1.09071 z"
     fill-opacity="1"
     id="path88-3"
     style="fill:#fa8072;fill-opacity:1;stroke-width:2.72219" />
  <text
     fill="#000000"
     stroke="none"
     font-family="'Helvetica Neue', Helvetica, sans-serif"
     font-size="21.7774px"
     font-style="normal"
     font-weight="normal"
     text-decoration="normal"
     x="1573.4886"
     y="825.42535"
     text-anchor="middle"
     dominant-baseline="text-after-edge"
     fill-opacity="1"
     id="text90-6"
     transform="rotate(-0.63528938)"
     style="font-size:29.3333px;stroke-width:2.72219">CI</text>
  <path
     fill="#81e250"
     stroke="none"
     paint-order="stroke fill markers"
     d="m 2095.6955,430.17709 2.8076,1.54828 2.6769,1.76449 2.5305,1.96875 2.3681,2.16139 2.1911,2.34065 2.0009,2.50525 1.7981,2.65451 1.5843,2.78727 1.3607,2.90319 1.1287,3.00094 0.8898,3.08028 0.6454,3.14042 0.397,3.1815 0.1462,3.20278 -0.1056,3.20441 -0.3566,3.1863 -0.6056,3.14851 -0.8508,3.09131 -1.0906,3.01491 -1.3239,2.92008 -1.5488,2.80731 -1.7643,2.67699 -1.969,2.53046 -2.1613,2.36792 -2.3406,2.19121 -2.5052,2.00081 -2.6546,1.79829 -2.7874,1.58427 -2.903,1.36061 -3.001,1.12877 -3.0802,0.88985 -3.1405,0.64522 -3.1815,0.39713 -3.2028,0.14617 -3.2045,-0.10554 -3.1862,-0.35681 -3.1484,-0.60558 -3.0913,-0.85066 -3.0149,-1.09073 -2.9198,-1.32442 -2.8076,-1.54826 -2.6771,-1.76426 -2.5303,-1.96898 -2.3681,-2.16143 -2.1913,-2.34037 -2.0008,-2.50526 -1.7981,-2.65451 -1.5842,-2.78752 -1.3608,-2.90295 -1.1287,-3.00094 -0.8898,-3.08026 -0.6455,-3.14044 -0.3969,-3.18148 -0.1461,-3.20304 0.1055,-3.20441 0.3567,-3.18628 0.6055,-3.14826 0.8507,-3.09136 1.0906,-3.01487 1.324,-2.9201 1.5488,-2.8073 1.7643,-2.67699 1.969,-2.53045 2.1614,-2.36816 2.3405,-2.19121 2.5053,-2.00081 2.6545,-1.79806 2.7873,-1.58428 2.9031,-1.3606 3.0009,-1.12877 3.0803,-0.88984 3.1406,-0.64547 3.1814,-0.39689 3.2028,-0.14617 3.2045,0.10554 3.1863,0.35656 3.1484,0.60557 3.0912,0.85091 3.015,1.0905 z"
     fill-opacity="1"
     id="path92-1"
     style="fill:#2ad4ff;fill-opacity:0.999275;stroke-width:2.72219" />
  <text
     fill="#000000"
     stroke="none"
     font-family="'Helvetica Neue', Helvetica, sans-serif"
     font-size="21.7774px"
     font-style="normal"
     font-weight="normal"
     text-decoration="normal"
     x="1097.8774"
     y="424.72849"
     text-anchor="middle"
     dominant-baseline="text-after-edge"
     fill-opacity="1"
     id="text94-2"
     transform="rotate(0.1861766)"
     style="font-size:29.3333px;stroke-width:2.72219">Ara-arac</text>
  <path
     fill="#8d5235"
     stroke="none"
     paint-order="stroke fill markers"
     d="m 2095.1961,1034.8125 2.8075,1.5482 2.6771,1.7643 2.5304,1.969 2.3681,2.1614 2.1913,2.3404 2.0008,2.5053 1.7981,2.6545 1.5842,2.7875 1.3608,2.9029 1.1287,3.001 0.8898,3.0802 0.6454,3.1405 0.397,3.1815 0.1461,3.203 -0.1056,3.2044 -0.3566,3.1863 -0.6055,3.1483 -0.8508,3.0913 -1.0906,3.0149 -1.3239,2.9201 -1.5488,2.8073 -1.7643,2.6769 -1.969,2.5305 -2.1614,2.3682 -2.3406,2.1912 -2.5052,2.0008 -2.6545,1.7981 -2.7874,1.5842 -2.903,1.3606 -3.001,1.1288 -3.0802,0.8898 -3.1406,0.6455 -3.1814,0.3969 -3.2028,0.1462 -3.2045,-0.1056 -3.1863,-0.3565 -3.1485,-0.6056 -3.0911,-0.8509 -3.0151,-1.0905 -2.9198,-1.3244 -2.8075,-1.5483 -2.677,-1.7645 -2.5304,-1.9687 -2.3681,-2.1614 -2.1912,-2.3407 -2.0008,-2.5052 -1.7981,-2.6545 -1.5844,-2.7873 -1.3606,-2.9032 -1.1287,-3.0009 -0.8898,-3.0803 -0.6455,-3.1404 -0.3969,-3.1815 -0.1462,-3.2028 0.1055,-3.2044 0.3567,-3.1863 0.6056,-3.1485 0.8508,-3.0914 1.0906,-3.0149 1.3239,-2.92 1.5488,-2.8073 1.7643,-2.677 1.969,-2.5305 2.1613,-2.3679 2.3405,-2.1912 2.5053,-2.0008 2.6546,-1.7983 2.7874,-1.5843 2.903,-1.3606 3.001,-1.1288 3.0802,-0.8898 3.1404,-0.6453 3.1816,-0.3971 3.2028,-0.1461 3.2045,0.1055 3.1862,0.3568 3.1484,0.6056 3.0913,0.8506 3.0149,1.0908 z"
     fill-opacity="1"
     id="path96-9"
     style="fill:#e2e250;fill-opacity:1;stroke-width:2.72219" />
  <text
     fill="#000000"
     stroke="none"
     font-family="'Helvetica Neue', Helvetica, sans-serif"
     font-size="21.7774px"
     font-style="normal"
     font-weight="normal"
     text-decoration="normal"
     x="2087.5225"
     y="1016.7557"
     text-anchor="middle"
     dominant-baseline="text-after-edge"
     fill-opacity="1"
     id="text98-3"
     transform="rotate(0.48085464)"
     style="font-size:29.3333px;stroke-width:2.72219">araC</text>
  <path
     fill="#50e281"
     stroke="none"
     paint-order="stroke fill markers"
     d="m 1039.6593,241.70177 2.8075,1.54828 2.6771,1.76425 2.5303,1.96899 2.368,2.16139 2.1912,2.34065 2.0009,2.50525 1.7982,2.65427 1.5842,2.78752 1.3607,2.90318 1.1289,3.0007 0.8896,3.08027 0.6453,3.14067 0.3971,3.1815 0.1463,3.20279 -0.106,3.2044 -0.3567,3.18628 -0.6056,3.14852 -0.8507,3.09108 -1.0907,3.01514 -1.3239,2.92009 -1.5487,2.80707 -1.7644,2.67722 -1.9689,2.53022 -2.1614,2.36817 -2.3406,2.19121 -2.5052,2.00081 -2.6545,1.79803 -2.7874,1.58428 -2.9031,1.36084 -3.001,1.12878 -3.0801,0.8896 -3.1406,0.64548 -3.1815,0.39712 -3.2028,0.14592 -3.2044,-0.10553 -3.1863,-0.35657 -3.1485,-0.60558 -3.0912,-0.85066 -3.015,-1.09073 -2.9199,-1.32441 -2.8074,-1.54828 -2.6772,-1.76423 -2.5303,-1.96901 -2.368,-2.1614 -2.1912,-2.34064 -2.0009,-2.50525 -1.7982,-2.65426 -1.5842,-2.78752 -1.3607,-2.90319 -1.1287,-3.0007 -0.8898,-3.08026 -0.6453,-3.14069 -0.3971,-3.18148 -0.1461,-3.20279 0.1059,-3.20441 0.3567,-3.18628 0.6057,-3.14852 0.8505,-3.09109 1.0907,-3.01513 1.324,-2.91984 1.5487,-2.80731 1.7644,-2.67724 1.9689,-2.53021 2.1614,-2.36816 2.3405,-2.19121 2.5052,-2.00082 2.6546,-1.79803 2.7873,-1.5843 2.9032,-1.36083 3.001,-1.12878 3.08,-0.88959 3.1407,-0.64548 3.1814,-0.39712 3.2029,-0.14593 3.2044,0.10558 3.1863,0.35656 3.1485,0.60558 3.0913,0.85066 3.0149,1.09073 z"
     fill-opacity="1"
     id="path100-1"
     style="fill:#a07be9;fill-opacity:1;stroke-width:2.72219" />
  <text
     fill="#000000"
     stroke="none"
     font-family="'Helvetica Neue', Helvetica, sans-serif"
     font-size="21.7774px"
     font-style="normal"
     font-weight="normal"
     text-decoration="normal"
     x="2074.8748"
     y="248.42731"
     text-anchor="middle"
     dominant-baseline="text-after-edge"
     fill-opacity="1"
     id="text102-9"
     transform="rotate(0.01521358)"
     style="font-size:29.3333px;stroke-width:2.72219">ATC</text>
  <path
     fill="#8150e2"
     stroke="none"
     paint-order="stroke fill markers"
     d="m 2096.1928,803.97457 2.8075,1.54828 2.677,1.76449 2.5305,1.96874 2.3681,2.16141 2.1911,2.34064 2.0008,2.50525 1.7981,2.65451 1.5844,2.78728 1.3606,2.90318 1.1287,3.00094 0.8898,3.08027 0.6455,3.14044 0.397,3.18148 0.1461,3.20279 -0.1055,3.20441 -0.3566,3.18629 -0.6057,3.14852 -0.8507,3.09133 -1.0906,3.01489 -1.324,2.92008 -1.5488,2.80731 -1.7642,2.67699 -1.969,2.53046 -2.1613,2.36792 -2.3406,2.19121 -2.5052,2.00081 -2.6546,1.79828 -2.7874,1.5843 -2.9031,1.36058 -3.0009,1.12879 -3.0802,0.88983 -3.1405,0.64524 -3.1815,0.39712 -3.2029,0.14617 -3.2044,-0.10555 -3.1862,-0.35679 -3.1485,-0.60559 -3.0912,-0.85066 -3.015,-1.09073 -2.9198,-1.32441 -2.8075,-1.54829 -2.6771,-1.76424 -2.5303,-1.969 -2.3681,-2.16139 -2.1913,-2.3404 -2.0008,-2.50525 -1.7981,-2.65451 -1.5843,-2.78753 -1.3607,-2.90293 -1.1288,-3.00094 -0.8897,-3.08027 -0.6455,-3.14044 -0.397,-3.18148 -0.146,-3.20304 0.1055,-3.20441 0.3567,-3.18628 0.6055,-3.14828 0.8507,-3.09131 1.0906,-3.0149 1.324,-2.92009 1.5488,-2.80731 1.7643,-2.67699 1.9689,-2.53045 2.1615,-2.36816 2.3405,-2.19122 2.5052,-2.00083 2.6545,-1.79803 2.7874,-1.58427 2.9031,-1.36061 3.0009,-1.12878 3.0802,-0.88984 3.1406,-0.64547 3.1814,-0.39688 3.2029,-0.14617 3.2044,0.10554 3.1864,0.35658 3.1484,0.60555 3.0911,0.85091 3.0151,1.09048 z"
     fill-opacity="1"
     id="path104-4"
     style="fill:#fa8072;fill-opacity:1;stroke-width:2.72126;stroke-miterlimit:10;stroke-dasharray:none" />
  <text
     fill="#000000"
     stroke="none"
     font-family="'Helvetica Neue', Helvetica, sans-serif"
     font-size="21.7774px"
     font-style="normal"
     font-weight="normal"
     text-decoration="normal"
     x="1107.7207"
     y="780.75995"
     text-anchor="middle"
     dominant-baseline="text-after-edge"
     fill-opacity="1"
     id="text106-7"
     transform="rotate(1.2305145)"
     style="font-size:29.3333px;stroke-width:2.72219">araC</text>
  <path
     fill="#8d5235"
     stroke="none"
     paint-order="stroke fill markers"
     d="m 1109.9058,1036.0554 2.8073,1.5488 2.677,1.7643 2.5305,1.969 2.368,2.1614 2.1912,2.3405 2.0009,2.5052 1.7981,2.6545 1.5843,2.7874 1.3607,2.9031 1.1287,3.0009 0.8898,3.0803 0.6453,3.1405 0.3971,3.1815 0.1461,3.2028 -0.1059,3.2044 -0.3567,3.1863 -0.6055,3.1485 -0.8507,3.0912 -1.0907,3.015 -1.3239,2.92 -1.5489,2.8073 -1.7643,2.6771 -1.9689,2.5303 -2.1614,2.3681 -2.3405,2.1912 -2.5053,2.0009 -2.6545,1.7981 -2.7873,1.5843 -2.9032,1.3606 -3.0009,1.1288 -3.0801,0.8898 -3.1406,0.6454 -3.1815,0.397 -3.2029,0.1461 -3.2044,-0.1055 -3.1862,-0.3567 -3.1485,-0.6056 -3.0913,-0.8507 -3.015,-1.0906 -2.92,-1.324 -2.8073,-1.5487 -2.6771,-1.7643 -2.5303,-1.969 -2.3682,-2.1614 -2.1911,-2.3405 -2.0009,-2.5053 -1.7981,-2.6544 -1.5843,-2.7875 -1.3607,-2.9031 -1.1287,-3.0009 -0.8898,-3.0802 -0.6454,-3.1405 -0.397,-3.1815 -0.1461,-3.2029 0.1059,-3.2044 0.3565,-3.1862 0.6057,-3.1485 0.8507,-3.0912 1.0907,-3.015 1.3239,-2.9201 1.5487,-2.8072 1.7644,-2.6771 1.9688,-2.5304 2.1615,-2.3681 2.3406,-2.1912 2.5052,-2.0008 2.6544,-1.7981 2.7875,-1.5843 2.903,-1.3607 3.001,-1.1287 3.0802,-0.8898 3.1405,-0.6454 3.1815,-0.397 3.2028,-0.1462 3.2044,0.1056 3.1864,0.3567 3.1485,0.6055 3.0912,0.8508 3.0149,1.0906 z"
     fill-opacity="1"
     id="path108-8"
     style="fill:#e2e250;fill-opacity:1;stroke-width:2.72219" />
  <text
     fill="#000000"
     stroke="none"
     font-family="'Helvetica Neue', Helvetica, sans-serif"
     font-size="21.7774px"
     font-style="normal"
     font-weight="normal"
     text-decoration="normal"
     x="1099.1447"
     y="1028.3337"
     text-anchor="middle"
     dominant-baseline="text-after-edge"
     fill-opacity="1"
     id="text110-4"
     transform="rotate(0.32192862)"
     style="font-size:29.3333px;stroke-width:2.72219">tetR</text>
  <path
     fill="#81e250"
     stroke="none"
     paint-order="stroke fill markers"
     d="m 1110.8758,429.17243 2.8075,1.54829 2.677,1.76424 2.5304,1.969 2.368,2.16138 2.1913,2.34041 2.0009,2.50525 1.7981,2.65451 1.5841,2.78753 1.3609,2.90294 1.1287,3.00093 0.8897,3.08027 0.6453,3.14068 0.397,3.18149 0.1463,3.20279 -0.1059,3.20441 -0.3567,3.18628 -0.6057,3.14853 -0.8506,3.09107 -1.0906,3.0149 -1.3239,2.92008 -1.5489,2.80732 -1.7642,2.67698 -1.969,2.53046 -2.1614,2.36816 -2.3406,2.19122 -2.5052,2.00082 -2.6545,1.79802 -2.7874,1.58429 -2.9031,1.36084 -3.0008,1.12854 -3.0803,0.88983 -3.1405,0.64548 -3.1815,0.39689 -3.203,0.14615 -3.2043,-0.10553 -3.1864,-0.35658 -3.1485,-0.60556 -3.0911,-0.85066 -3.015,-1.09072 -2.9199,-1.32443 -2.8074,-1.54828 -2.6772,-1.76425 -2.5303,-1.96899 -2.368,-2.1614 -2.1912,-2.34064 -2.0009,-2.50525 -1.7981,-2.6545 -1.5843,-2.78729 -1.3607,-2.90318 -1.1287,-3.00094 -0.8898,-3.08003 -0.6453,-3.14068 -0.3971,-3.18148 -0.1461,-3.20279 0.1059,-3.20441 0.3567,-3.18627 0.6057,-3.14855 0.8506,-3.09132 1.0906,-3.01489 1.3241,-2.92008 1.5487,-2.80731 1.7642,-2.67699 1.969,-2.53022 2.1614,-2.36815 2.3405,-2.19123 2.5052,-2.0008 2.6545,-1.79803 2.7874,-1.5843 2.9032,-1.36083 3.001,-1.12879 3.0802,-0.88983 3.1404,-0.64524 3.1815,-0.39712 3.203,-0.14616 3.2043,0.10553 3.1862,0.35682 3.1485,0.60557 3.0913,0.85066 3.015,1.09072 z"
     fill-opacity="1"
     id="path112-5"
     style="fill:#2ad4ff;fill-opacity:1;stroke-width:2.72219" />
  <text
     fill="#000000"
     stroke="none"
     font-family="'Helvetica Neue', Helvetica, sans-serif"
     font-size="21.7774px"
     font-style="normal"
     font-weight="normal"
     text-decoration="normal"
     x="2077.5969"
     y="428.4136"
     text-anchor="middle"
     dominant-baseline="text-after-edge"
     fill-opacity="1"
     id="text114-0"
     transform="rotate(0.09320754)"
     style="font-size:29.3333px;stroke-width:2.72219">atc-tetr</text>
  <path
     fill="#8d5235"
     stroke="none"
     paint-order="stroke fill markers"
     d="m 1603.5147,631.74868 2.8075,1.54829 2.677,1.76449 2.5303,1.969 2.3681,2.16139 2.1913,2.34039 2.0008,2.50527 1.7981,2.65451 1.5843,2.78728 1.3607,2.90319 1.1287,3.00093 0.8898,3.08027 0.6454,3.14042 0.397,3.18151 0.1462,3.20279 -0.1055,3.20441 -0.3567,3.18628 -0.6056,3.14851 -0.8508,3.09133 -1.0906,3.01489 -1.3239,2.92009 -1.5488,2.80731 -1.7643,2.67698 -1.969,2.53046 -2.1614,2.36816 -2.3406,2.19121 -2.5052,2.00082 -2.6545,1.79805 -2.7874,1.58427 -2.903,1.36061 -3.0009,1.12876 -3.0803,0.88984 -3.1405,0.64548 -3.1815,0.3969 -3.2028,0.14616 -3.2045,-0.10554 -3.1862,-0.35682 -3.1484,-0.60557 -3.0913,-0.85066 -3.015,-1.09049 -2.9198,-1.32442 -2.8076,-1.54827 -2.6769,-1.7645 -2.5304,-1.96899 -2.3681,-2.1614 -2.1912,-2.34039 -2.0009,-2.50526 -1.7981,-2.6545 -1.5843,-2.78728 -1.3607,-2.90318 -1.1287,-3.00094 -0.8898,-3.08028 -0.6454,-3.14043 -0.397,-3.1815 -0.1462,-3.20278 0.1055,-3.20441 0.3567,-3.18628 0.6056,-3.14852 0.8508,-3.09133 1.0906,-3.01489 1.3239,-2.92008 1.5488,-2.80732 1.7643,-2.67699 1.969,-2.53046 2.1614,-2.36815 2.3406,-2.19122 2.5052,-2.0008 2.6545,-1.79804 2.7874,-1.5843 2.903,-1.3606 3.001,-1.12877 3.0802,-0.88983 3.1406,-0.64548 3.1814,-0.39687 3.2028,-0.14617 3.2045,0.10553 3.1862,0.3568 3.1484,0.60558 3.0913,0.85067 3.015,1.09047 z"
     fill-opacity="1"
     id="path116-3"
     style="fill:#e2e250;fill-opacity:1;stroke-width:2.72219" />
  <text
     fill="#000000"
     stroke="none"
     font-family="'Helvetica Neue', Helvetica, sans-serif"
     font-size="21.7774px"
     font-style="normal"
     font-weight="normal"
     text-decoration="normal"
     x="1585.4403"
     y="629.47333"
     text-anchor="middle"
     dominant-baseline="text-after-edge"
     fill-opacity="1"
     id="text118-6"
     transform="rotate(0.0805736)"
     style="font-size:29.3333px;stroke-width:2.72219">CI-LVA</text>
  <path
     fill="#c06335"
     stroke="none"
     paint-order="stroke fill markers"
     d="m 1382.2228,538.22323 2.8075,1.54827 2.6771,1.76426 2.5304,1.96898 2.3681,2.1614 2.1912,2.34039 2.0009,2.50526 1.798,2.65451 1.5843,2.78752 1.3607,2.90294 1.1288,3.00094 0.8897,3.08027 0.6454,3.14068 0.397,3.18151 0.1462,3.20276 -0.1056,3.20443 -0.3567,3.18627 -0.6054,3.14827 -0.8508,3.09133 -1.0906,3.01489 -1.324,2.92008 -1.5487,2.80732 -1.7643,2.67699 -1.969,2.53045 -2.1615,2.36816 -2.3405,2.19124 -2.5052,2.00079 -2.6545,1.79805 -2.7874,1.58428 -2.9032,1.36083 -3.0008,1.12854 -3.0802,0.88984 -3.1406,0.64548 -3.1814,0.39687 -3.2029,0.14618 -3.2044,-0.10554 -3.1863,-0.35656 -3.1485,-0.60559 -3.0913,-0.85065 -3.0149,-1.09073 -2.9198,-1.32442 -2.8075,-1.54827 -2.6771,-1.76424 -2.5304,-1.969 -2.368,-2.1614 -2.1912,-2.34065 -2.0008,-2.50524 -1.7981,-2.65454 -1.5843,-2.78725 -1.3608,-2.90319 -1.1287,-3.00095 -0.8898,-3.08002 -0.6453,-3.14068 -0.397,-3.1815 -0.1462,-3.20278 0.106,-3.20441 0.3566,-3.18627 0.6056,-3.14852 0.8508,-3.09134 1.0906,-3.01489 1.3239,-2.9201 1.5488,-2.8073 1.7643,-2.67696 1.9689,-2.53049 2.1615,-2.36789 2.3404,-2.19123 2.5052,-2.00081 2.6545,-1.79804 2.7875,-1.58428 2.9031,-1.36085 3.0009,-1.12877 3.0803,-0.88983 3.1404,-0.64525 3.1816,-0.39713 3.2028,-0.14615 3.2045,0.10554 3.1862,0.35682 3.1484,0.60556 3.0913,0.85068 3.0149,1.09072 z"
     fill-opacity="1"
     id="path120-1"
     style="fill:#50e281;fill-opacity:1;stroke-width:2.72219" />
  <text
     fill="#000000"
     stroke="none"
     font-family="'Helvetica Neue', Helvetica, sans-serif"
     font-size="21.7774px"
     font-style="normal"
     font-weight="normal"
     text-decoration="normal"
     x="1818.4961"
     y="492.32599"
     text-anchor="middle"
     dominant-baseline="text-after-edge"
     fill-opacity="1"
     id="text122-0"
     transform="rotate(1.3975815)"
     style="font-size:29.3333px;stroke-width:2.72219">pTet</text>
  <path
     fill="#50e281"
     stroke="none"
     paint-order="stroke fill markers"
     d="m 2092.8354,249.37248 2.8075,1.54827 2.6771,1.76425 2.5303,1.969 2.3681,2.16139 2.1913,2.34041 2.0008,2.50524 1.7981,2.65452 1.5843,2.78752 1.3606,2.90319 1.1288,3.00069 0.8898,3.08027 0.6453,3.14068 0.397,3.18149 0.1462,3.20278 -0.1055,3.20442 -0.3567,3.18627 -0.6056,3.14853 -0.8507,3.09108 -1.0907,3.01514 -1.3238,2.91983 -1.5488,2.80732 -1.7644,2.67722 -1.9689,2.53023 -2.1614,2.36813 -2.3405,2.19123 -2.5053,2.0008 -2.6544,1.79806 -2.7874,1.58428 -2.9032,1.36085 -3.0008,1.12853 -3.0802,0.88983 -3.1406,0.64549 -3.1815,0.39688 -3.2028,0.14616 -3.2044,-0.10554 -3.1864,-0.35658 -3.1484,-0.60556 -3.0913,-0.8507 -3.0149,-1.09071 -2.9198,-1.32441 -2.8076,-1.54828 -2.6771,-1.76425 -2.5303,-1.96899 -2.3681,-2.1614 -2.1911,-2.34062 -2.0009,-2.50527 -1.7981,-2.6545 -1.5843,-2.78727 -1.3607,-2.90319 -1.1287,-3.00096 -0.8899,-3.08001 -0.6453,-3.14069 -0.397,-3.18149 -0.1462,-3.20278 0.1056,-3.20442 0.3566,-3.18627 0.6056,-3.14852 0.8507,-3.09109 1.0907,-3.01513 1.324,-2.92008 1.5486,-2.80707 1.7644,-2.67723 1.9689,-2.53022 2.1614,-2.36815 2.3406,-2.19123 2.5052,-2.0008 2.6545,-1.79805 2.7874,-1.58428 2.9032,-1.36084 3.0009,-1.12879 3.0801,-0.88958 3.1406,-0.64548 3.1816,-0.39712 3.2028,-0.14617 3.2044,0.10558 3.1862,0.3568 3.1485,0.60558 3.0912,0.85067 3.015,1.09072 z"
     fill-opacity="1"
     id="path124-6"
     style="fill:#a07be9;fill-opacity:1;stroke-width:2.72219" />
  <text
     fill="#000000"
     stroke="none"
     font-family="'Helvetica Neue', Helvetica, sans-serif"
     font-size="21.7774px"
     font-style="normal"
     font-weight="normal"
     text-decoration="normal"
     x="1029.5485"
     y="242.83334"
     text-anchor="middle"
     dominant-baseline="text-after-edge"
     fill-opacity="1"
     id="text126-3"
     transform="rotate(0.06434463)"
     style="font-size:29.3333px;stroke-width:2.72219">arabinose</text>
  <path
     fill="#c06335"
     stroke="none"
     paint-order="stroke fill markers"
     d="m 1824.1306,537.82245 2.8075,1.54827 2.6771,1.76426 2.5303,1.96899 2.3681,2.1614 2.1912,2.34064 2.0008,2.50526 1.7981,2.65451 1.5843,2.78727 1.3607,2.9032 1.1287,3.00094 0.8899,3.08 0.6453,3.14069 0.397,3.18148 0.1462,3.20281 -0.1055,3.2044 -0.3567,3.18628 -0.6056,3.14852 -0.8507,3.09107 -1.0907,3.01514 -1.3239,2.9201 -1.5487,2.80706 -1.7644,2.67722 -1.9688,2.53023 -2.1615,2.36815 -2.3405,2.19122 -2.5052,2.00082 -2.6545,1.79804 -2.7874,1.58428 -2.9032,1.36084 -3.0009,1.12877 -3.0801,0.88961 -3.1406,0.64546 -3.1816,0.39714 -3.2028,0.14616 -3.2043,-0.10581 -3.1863,-0.35657 -3.1485,-0.60556 -3.0913,-0.85067 -3.0149,-1.09074 -2.9198,-1.32442 -2.8075,-1.54827 -2.6771,-1.76425 -2.5304,-1.96898 -2.3681,-2.16141 -2.1911,-2.34063 -2.001,-2.50501 -1.7981,-2.6545 -1.5842,-2.78754 -1.3606,-2.90318 -1.1289,-3.00069 -0.8898,-3.08028 -0.6453,-3.14068 -0.397,-3.18147 -0.1461,-3.2028 0.1055,-3.20441 0.3567,-3.18629 0.6056,-3.14851 0.8506,-3.0911 1.0908,-3.01513 1.3238,-2.91983 1.5487,-2.80732 1.7645,-2.67723 1.9688,-2.53021 2.1615,-2.36817 2.3405,-2.19121 2.5052,-2.00081 2.6545,-1.79804 2.7874,-1.58429 2.9032,-1.36083 3.0008,-1.12855 3.0802,-0.88983 3.1406,-0.64548 3.1814,-0.39687 3.2029,-0.14617 3.2044,0.10555 3.1863,0.35654 3.1485,0.60558 3.0913,0.85067 3.0149,1.09072 z"
     fill-opacity="1"
     id="path128"
     style="fill:#50e281;fill-opacity:1;stroke-width:2.72219" />
  <text
     fill="#000000"
     stroke="none"
     font-family="'Helvetica Neue', Helvetica, sans-serif"
     font-size="21.7774px"
     font-style="normal"
     font-weight="normal"
     text-decoration="normal"
     x="1352.9313"
     y="564.94513"
     text-anchor="middle"
     dominant-baseline="text-after-edge"
     fill-opacity="1"
     id="text130"
     transform="rotate(-1.1244974)"
     style="font-size:29.3333px;stroke-width:2.72219">PBad</text>
  <path
     fill="#c06335"
     stroke="none"
     paint-order="stroke fill markers"
     d="m 1601.1528,1185.2951 2.8075,1.5482 2.6771,1.7643 2.5304,1.969 2.3681,2.1614 2.1911,2.3406 2.0009,2.5053 1.798,2.6546 1.5843,2.7872 1.3607,2.9032 1.1287,3.0011 0.8899,3.0801 0.6453,3.1406 0.3969,3.1816 0.1462,3.2028 -0.1056,3.2045 -0.3567,3.1863 -0.6056,3.1486 -0.8507,3.0911 -1.0907,3.0153 -1.324,2.9201 -1.5487,2.8072 -1.7644,2.6773 -1.969,2.5303 -2.1614,2.3682 -2.3406,2.1912 -2.5052,2.0008 -2.6545,1.7982 -2.7875,1.5844 -2.9032,1.3608 -3.0009,1.1289 -3.0803,0.8898 -3.1404,0.6453 -3.1816,0.3971 -3.2028,0.1461 -3.2044,-0.1055 -3.1863,-0.3566 -3.1485,-0.6057 -3.0913,-0.8506 -3.0149,-1.0907 -2.9198,-1.3245 -2.8075,-1.5482 -2.6771,-1.7643 -2.5304,-1.969 -2.3681,-2.1614 -2.1911,-2.3406 -2.0008,-2.5053 -1.7982,-2.6543 -1.5842,-2.7876 -1.3608,-2.903 -1.1287,-3.0009 -0.8897,-3.0804 -0.6453,-3.1406 -0.397,-3.1817 -0.1461,-3.2027 0.1055,-3.2045 0.3567,-3.1863 0.6057,-3.1486 0.8506,-3.0912 1.0908,-3.0153 1.3238,-2.9198 1.5489,-2.8074 1.7644,-2.6772 1.9689,-2.5303 2.1615,-2.3683 2.3405,-2.1913 2.5053,-2.0008 2.6545,-1.7982 2.7874,-1.5843 2.9032,-1.3608 3.0008,-1.1287 3.0803,-0.8898 3.1406,-0.6455 3.1815,-0.397 3.2028,-0.1461 3.2044,0.1055 3.1864,0.3566 3.1484,0.6055 3.0913,0.8507 3.0149,1.0908 z"
     fill-opacity="1"
     id="path132"
     style="fill:#50e281;fill-opacity:1;stroke-width:2.72219" />
  <text
     fill="#000000"
     stroke="none"
     font-family="'Helvetica Neue', Helvetica, sans-serif"
     font-size="21.7774px"
     font-style="normal"
     font-weight="normal"
     text-decoration="normal"
     x="1595.317"
     y="1185.226"
     text-anchor="middle"
     dominant-baseline="text-after-edge"
     fill-opacity="1"
     id="text134"
     transform="rotate(-0.1624004)"
     style="font-size:29.3333px;stroke-width:2.72219">BBa_J23117</text>
  <path
     fill="none"
     stroke="#e2e250"
     paint-order="fill stroke markers"
     d="m 2038.6353,479.53906 -195.1866,78.91719"
     stroke-opacity="1"
     stroke-linejoin="round"
     stroke-miterlimit="10"
     stroke-width="3.16869"
     id="path52-2"
     style="stroke:#2ad4ff;stroke-width:9.07087;stroke-miterlimit:10;stroke-dasharray:none;stroke-opacity:1" />
  <path
     fill="none"
     stroke="#e2e250"
     paint-order="fill stroke markers"
     d="m 1127.5191,486.78473 196.8151,76.13526"
     stroke-opacity="1"
     stroke-linejoin="round"
     stroke-miterlimit="10"
     stroke-width="3.47711"
     id="path28-2"
     style="stroke:#2ad4ff;stroke-width:9.07087;stroke-miterlimit:10;stroke-dasharray:none;stroke-opacity:1" />
  <rect
     id="rect18643-7-1-9-6-54-2"
     width="83.38842"
     height="25.438858"
     x="2226.8711"
     y="240.9315"
     style="fill:#50e281;fill-opacity:1;stroke:none;stroke-width:1.04416;stroke-miterlimit:4;stroke-dasharray:none;stroke-opacity:1"
     ry="4.5039434" />
  <text
     xml:space="preserve"
     transform="matrix(1.5405354,0,0,1.5405354,121.44246,174.77608)"
     id="text27183-1-7-8-9-76-0"
     style="font-style:normal;font-weight:normal;font-size:21.3333px;line-height:1.25;font-family:sans-serif;white-space:pre;shape-inside:url(#rect27185-7-6-9-5-35-9);fill:#000000;fill-opacity:1;stroke:none"><tspan
       x="1443.0723"
       y="58.857392"
       id="tspan15771">Promoter</tspan></text>
  <rect
     id="rect18643-7-1-9-6-6-2-6"
     width="83.38842"
     height="25.438858"
     x="2225.1165"
     y="279.10699"
     style="fill:#2ad4ff;fill-opacity:1;stroke:none;stroke-width:1.04416;stroke-miterlimit:4;stroke-dasharray:none;stroke-opacity:1"
     ry="4.5039434" />
  <text
     xml:space="preserve"
     transform="matrix(1.5405354,0,0,1.5405354,119.69097,212.95156)"
     id="text27183-1-7-8-9-7-9-8"
     style="font-style:normal;font-weight:normal;font-size:21.3333px;line-height:1.25;font-family:sans-serif;white-space:pre;shape-inside:url(#rect27185-7-6-9-5-3-3-1-4);fill:#000000;fill-opacity:1;stroke:none"><tspan
       x="1443.0723"
       y="58.857392"
       id="tspan15773">Complex</tspan></text>
  <rect
     id="rect18643-9-5-7-8"
     width="83.38842"
     height="25.438858"
     x="2224.064"
     y="508.21994"
     style="fill:#fa8072;fill-opacity:1;stroke:none;stroke-width:1.04416;stroke-miterlimit:4;stroke-dasharray:none;stroke-opacity:1"
     ry="4.5039434" />
  <text
     xml:space="preserve"
     transform="matrix(1.5405354,0,0,1.5405354,116.63538,442.06462)"
     id="text27183-2-2-4-4"
     style="font-style:normal;font-weight:normal;font-size:21.3333px;line-height:1.25;font-family:sans-serif;white-space:pre;shape-inside:url(#rect27185-4-5-2-6);fill:#000000;fill-opacity:1;stroke:none"><tspan
       x="1443.0723"
       y="58.857392"
       id="tspan15775">Repression</tspan></text>
  <rect
     id="rect18643-9-5-2-5-3"
     width="83.38842"
     height="25.438858"
     x="2225.0125"
     y="549.67719"
     style="fill:#ec78e7;fill-opacity:1;stroke:none;stroke-width:1.04416;stroke-miterlimit:4;stroke-dasharray:none;stroke-opacity:1"
     ry="4.5039434" />
  <text
     xml:space="preserve"
     transform="matrix(1.5405354,0,0,1.5405354,117.58387,483.52193)"
     id="text27183-2-2-3-4-1"
     style="font-style:normal;font-weight:normal;font-size:21.3333px;line-height:1.25;font-family:sans-serif;white-space:pre;shape-inside:url(#rect27185-4-5-0-0-8);fill:#000000;fill-opacity:1;stroke:none"><tspan
       x="1443.0723"
       y="58.857392"
       id="tspan15777">Bind</tspan></text>
  <text
     xml:space="preserve"
     id="text7944"
     style="font-size:37.3333px;line-height:1.25;font-family:sans-serif;white-space:pre;shape-inside:url(#rect7946)"
     transform="translate(1042.5761,180.48401)" />
</svg>
