<?xml version="1.0" encoding="UTF-8" standalone="no"?>
<svg
   version="1.1"
   width="2679.6128"
   height="1652.9229"
   id="svg132"
   sodipodi:docname="2_arabinose-pathway--standard.svg"
   inkscape:version="1.1.1 (26b7af14f2, 2022-01-19)"
   xmlns:inkscape="http://www.inkscape.org/namespaces/inkscape"
   xmlns:sodipodi="http://sodipodi.sourceforge.net/DTD/sodipodi-0.dtd"
   xmlns="http://www.w3.org/2000/svg"
   xmlns:svg="http://www.w3.org/2000/svg">
  <sodipodi:namedview
     id="namedview134"
     pagecolor="#ffffff"
     bordercolor="#666666"
     borderopacity="1.0"
     inkscape:pageshadow="2"
     inkscape:pageopacity="0.0"
     inkscape:pagecheckerboard="0"
     showgrid="false"
     inkscape:zoom="0.59652252"
     inkscape:cx="1141.6166"
     inkscape:cy="783.70889"
     inkscape:window-width="2492"
     inkscape:window-height="1376"
     inkscape:window-x="1988"
     inkscape:window-y="27"
     inkscape:window-maximized="1"
     inkscape:current-layer="svg132" />
  <defs
     id="defs2">
    <rect
       x="-997.11371"
       y="-284.67545"
       width="1004.8584"
       height="1352.8665"
       id="rect7946" />
    <rect
       x="1443.0721"
       y="39.982376"
       width="235.68906"
       height="103.2741"
       id="rect3639-3" />
    <rect
       x="1443.0721"
       y="39.982376"
       width="235.68906"
       height="103.2741"
       id="rect3639-5-6" />
    <rect
       x="1443.0721"
       y="39.982376"
       width="235.68906"
       height="103.2741"
       id="rect27185-7-7" />
    <rect
       x="1443.0721"
       y="39.982376"
       width="235.68906"
       height="103.2741"
       id="rect27185-7-6-9-5" />
    <rect
       x="1443.0721"
       y="39.982376"
       width="235.68906"
       height="103.2741"
       id="rect27185-4-5" />
    <rect
       x="1443.0721"
       y="39.982376"
       width="235.68906"
       height="103.2741"
       id="rect27185-7-8-6" />
    <rect
       x="1443.0721"
       y="39.982376"
       width="235.68906"
       height="103.2741"
       id="rect27185-7-6-9-5-3" />
    <rect
       x="1443.0721"
       y="39.982376"
       width="235.68906"
       height="103.2741"
       id="rect27185-7-6-9-5-5" />
    <rect
       x="1443.0721"
       y="39.982376"
       width="235.68906"
       height="103.2741"
       id="rect27185-7-6-9-5-3-3" />
    <rect
       x="1443.0721"
       y="39.982376"
       width="235.68906"
       height="103.2741"
       id="rect3639-3-2" />
    <rect
       x="1443.0721"
       y="39.982376"
       width="235.68906"
       height="103.2741"
       id="rect27185-7-7-7" />
    <rect
       x="1443.0721"
       y="39.982376"
       width="235.68906"
       height="103.2741"
       id="rect27185-7-6-9-5-0" />
    <rect
       x="1443.0721"
       y="39.982376"
       width="235.68906"
       height="103.2741"
       id="rect27185-7-6-9-4-3" />
    <rect
       x="1443.0721"
       y="39.982376"
       width="235.68906"
       height="103.2741"
       id="rect27185-7-6-9-4-9-1" />
    <rect
       x="1443.0721"
       y="39.982376"
       width="235.68906"
       height="103.2741"
       id="rect27185-7-6-9-4-9-5-2" />
    <rect
       x="1443.0721"
       y="39.982376"
       width="235.68906"
       height="103.2741"
       id="rect3639-7" />
    <rect
       x="1443.0721"
       y="39.982376"
       width="235.68906"
       height="103.2741"
       id="rect27598" />
    <rect
       x="1443.0721"
       y="39.982376"
       width="235.68906"
       height="103.2741"
       id="rect3639-3-5" />
    <rect
       x="1443.0721"
       y="39.982376"
       width="235.68906"
       height="103.2741"
       id="rect3639-5-6-9" />
    <rect
       x="1443.0721"
       y="39.982376"
       width="235.68906"
       height="103.2741"
       id="rect27185-7-7-3" />
    <rect
       x="1443.0721"
       y="39.982376"
       width="235.68906"
       height="103.2741"
       id="rect27185-7-6-9-5-5-3" />
    <rect
       x="1443.0721"
       y="39.982376"
       width="235.68906"
       height="103.2741"
       id="rect27185-7-6-9-4-3-6" />
    <rect
       x="1443.0721"
       y="39.982376"
       width="235.68906"
       height="103.2741"
       id="rect27185-4-5-6" />
    <rect
       x="1443.0721"
       y="39.982376"
       width="235.68906"
       height="103.2741"
       id="rect27185-7-8-6-0" />
    <rect
       x="1443.0721"
       y="39.982376"
       width="235.68906"
       height="103.2741"
       id="rect27185-7-6-9-8-2" />
    <rect
       x="1443.0721"
       y="39.982376"
       width="235.68906"
       height="103.2741"
       id="rect27185-7-6-9-4-1-9" />
    <rect
       x="1443.0721"
       y="39.982376"
       width="235.68906"
       height="103.2741"
       id="rect27185-7-6-9-4-9-1-2" />
    <rect
       x="1443.0721"
       y="39.982376"
       width="235.68906"
       height="103.2741"
       id="rect27185-7-6-9-4-9-5-2-9" />
    <rect
       x="1443.0721"
       y="39.982376"
       width="235.68906"
       height="103.2741"
       id="rect27185-7-8-6-2" />
    <rect
       x="1443.0721"
       y="39.982376"
       width="235.68906"
       height="103.2741"
       id="rect27185-4-5-0" />
    <rect
       x="1443.0721"
       y="39.982376"
       width="235.68906"
       height="103.2741"
       id="rect27185-7-8-6-2-7" />
    <rect
       x="1443.0721"
       y="39.982376"
       width="235.68906"
       height="103.2741"
       id="rect27185-4-5-0-8" />
    <rect
       x="1443.0721"
       y="39.982376"
       width="235.68906"
       height="103.2741"
       id="rect27185-7-6-9-5-3-6" />
    <rect
       x="1443.0721"
       y="39.982376"
       width="235.68906"
       height="103.2741"
       id="rect27185-7-6-9-5-5-1" />
    <rect
       x="1443.0721"
       y="39.982376"
       width="235.68906"
       height="103.2741"
       id="rect27185-7-6-9-5-5-1-0" />
    <rect
       x="1443.0721"
       y="39.982376"
       width="235.68906"
       height="103.2741"
       id="rect3639-3-3" />
    <rect
       x="1443.0721"
       y="39.982376"
       width="235.68906"
       height="103.2741"
       id="rect3639-5-6-6" />
    <rect
       x="1443.0721"
       y="39.982376"
       width="235.68906"
       height="103.2741"
       id="rect27185-7-7-75" />
    <rect
       x="1443.0721"
       y="39.982376"
       width="235.68906"
       height="103.2741"
       id="rect27185-7-6-9-5-35" />
    <rect
       x="1443.0721"
       y="39.982376"
       width="235.68906"
       height="103.2741"
       id="rect27185-7-6-9-5-3-62" />
    <rect
       x="1443.0721"
       y="39.982376"
       width="235.68906"
       height="103.2741"
       id="rect27185-7-6-9-5-5-9" />
    <rect
       x="1443.0721"
       y="39.982376"
       width="235.68906"
       height="103.2741"
       id="rect27185-7-6-9-5-3-3-1" />
    <rect
       x="1443.0721"
       y="39.982376"
       width="235.68906"
       height="103.2741"
       id="rect27185-4-5-2" />
    <rect
       x="1443.0721"
       y="39.982376"
       width="235.68906"
       height="103.2741"
       id="rect27185-7-8-6-7" />
    <rect
       x="1443.0721"
       y="39.982376"
       width="235.68906"
       height="103.2741"
       id="rect27185-4-5-0-0" />
    <rect
       x="1443.0721"
       y="39.982376"
       width="235.68906"
       height="103.2741"
       id="rect27185-7-8-6-2-9" />
    <rect
       x="1443.0721"
       y="39.982376"
       width="235.68906"
       height="103.2741"
       id="rect27185-4-5-2-6" />
    <rect
       x="1443.0721"
       y="39.982376"
       width="235.68906"
       height="103.2741"
       id="rect27185-4-5-0-0-8" />
    <rect
       x="1443.0721"
       y="39.982376"
       width="235.68906"
       height="103.2741"
       id="rect27185-7-6-9-5-3-3-1-4" />
    <rect
       x="1443.0721"
       y="39.982376"
       width="235.68906"
       height="103.2741"
       id="rect27185-7-6-9-5-35-9" />
  </defs>
  <g
     transform="matrix(2.7704545,0,0,2.7704545,-280.66904,103.97577)"
     id="g130">
    <path
       fill="none"
       stroke="#50e2e2"
       paint-order="fill stroke markers"
       d="M 431.41268,4.017597 V 52.872642"
       stroke-opacity="1"
       stroke-linejoin="round"
       stroke-miterlimit="10"
       stroke-width="2.93076"
       id="path4"
       style="stroke:#e2e250;stroke-opacity:1" />
    <path
       fill="#50e2e2"
       stroke="none"
       paint-order="stroke fill markers"
       d="m 435.66148,19.944346 -4.2488,8.500766 -4.24881,-8.500766 z"
       fill-opacity="1"
       id="path6"
       style="fill:#e2e250;fill-opacity:1;stroke-width:0.976923" />
    <path
       fill="none"
       stroke="#e28150"
       paint-order="fill stroke markers"
       d="M 498.77968,66.352028 490.4316,82.429815 470.8852,120.07472"
       stroke-opacity="1"
       stroke-linejoin="round"
       stroke-miterlimit="10"
       stroke-width="4.2133"
       id="path8"
       style="stroke:#a07be9;stroke-width:3.24856;stroke-miterlimit:10;stroke-dasharray:none;stroke-opacity:1"
       sodipodi:nodetypes="ccc" />
    <path
       fill="#e28150"
       stroke="none"
       paint-order="stroke fill markers"
       d="m 490.17156,92.305345 -7.99313,5.137702 0.68757,-9.479266 z"
       fill-opacity="1"
       id="path10"
       style="fill:#a07be9;fill-opacity:1;stroke-width:0.976923" />
    <path
       fill="none"
       stroke="#e28150"
       paint-order="fill stroke markers"
       d="M 453.07147,138.07518 322.66207,205.2872"
       stroke-opacity="1"
       stroke-linejoin="round"
       stroke-miterlimit="10"
       stroke-width="2.93076"
       id="path12"
       style="stroke:#a07be9;stroke-opacity:1" />
    <path
       fill="#e28150"
       stroke="none"
       paint-order="stroke fill markers"
       d="m 397.36669,171.56633 -9.49991,0.11487 5.60808,-7.6717 z"
       fill-opacity="1"
       id="path14"
       style="fill:#a07be9;fill-opacity:1;stroke-width:0.976923" />
    <path
       fill="none"
       stroke="#e28150"
       paint-order="fill stroke markers"
       d="m 465.32096,146.01152 -0.0337,52.75021"
       stroke-opacity="1"
       stroke-linejoin="round"
       stroke-miterlimit="10"
       stroke-width="2.93076"
       id="path16"
       style="stroke:#a07be9;stroke-opacity:1" />
    <path
       fill="#e28150"
       stroke="none"
       paint-order="stroke fill markers"
       d="m 469.7161,163.96945 -4.412,8.41717 -4.08402,-8.58121 z"
       fill-opacity="1"
       id="path18"
       style="fill:#a07be9;fill-opacity:1;stroke-width:0.976923" />
    <path
       fill="none"
       stroke="#e28150"
       paint-order="fill stroke markers"
       d="M 455.73577,141.72635 398.31657,199.167"
       stroke-opacity="1"
       stroke-linejoin="round"
       stroke-miterlimit="10"
       stroke-width="2.93076"
       id="path20"
       style="stroke:#a07be9;stroke-opacity:1" />
    <path
       fill="#e28150"
       stroke="none"
       paint-order="stroke fill markers"
       d="m 436.03924,167.4412 -9.01308,3.00548 3.00436,-9.01644 z"
       fill-opacity="1"
       id="path22"
       style="fill:#a07be9;fill-opacity:1;stroke-width:0.976923" />
    <path
       fill="none"
       stroke="#e28150"
       paint-order="fill stroke markers"
       d="m 375.97492,217.96535 -84.5726,59.53524"
       stroke-opacity="1"
       stroke-linejoin="round"
       stroke-miterlimit="10"
       stroke-width="2.93076"
       id="path24"
       style="stroke:#a07be9;stroke-opacity:1" />
    <path
       fill="#e28150"
       stroke="none"
       paint-order="stroke fill markers"
       d="m 343.0832,246.3169 -9.39457,1.41607 4.5043,-8.3681 z"
       fill-opacity="1"
       id="path26"
       style="fill:#a07be9;fill-opacity:1;stroke-width:0.976923" />
    <path
       fill="none"
       stroke="#e28150"
       paint-order="fill stroke markers"
       d="M 377.74708,141.87448 319.84756,201.4879"
       stroke-opacity="1"
       stroke-linejoin="round"
       stroke-miterlimit="10"
       stroke-width="2.93076"
       id="path28"
       style="stroke:#a07be9;stroke-opacity:1" />
    <path
       fill="#e28150"
       stroke="none"
       paint-order="stroke fill markers"
       d="m 357.7662,168.54622 -8.96888,3.13498 2.87428,-9.05878 z"
       fill-opacity="1"
       id="path30"
       style="fill:#a07be9;fill-opacity:1;stroke-width:0.976923" />
    <path
       fill="none"
       stroke="#e28150"
       paint-order="fill stroke markers"
       d="m 397.95383,142.07695 56.56163,60.61936"
       stroke-opacity="1"
       stroke-linejoin="round"
       stroke-miterlimit="10"
       stroke-width="2.93076"
       id="path32"
       style="stroke:#a07be9;stroke-opacity:1" />
    <path
       fill="#e28150"
       stroke="none"
       paint-order="stroke fill markers"
       d="m 423.54231,163.27208 2.69233,9.11454 -8.90431,-3.31405 z"
       fill-opacity="1"
       id="path34"
       style="fill:#a07be9;fill-opacity:1;stroke-width:0.976923" />
    <path
       fill="none"
       stroke="#e28150"
       paint-order="fill stroke markers"
       d="m 387.95671,146.01915 v 48.85506"
       stroke-opacity="1"
       stroke-linejoin="round"
       stroke-miterlimit="10"
       stroke-width="2.93076"
       id="path36"
       style="stroke:#a07be9;stroke-opacity:1" />
    <path
       fill="#e28150"
       stroke="none"
       paint-order="stroke fill markers"
       d="m 392.20551,161.9459 -4.2488,8.50078 -4.2488,-8.50078 z"
       fill-opacity="1"
       id="path38"
       style="fill:#a07be9;fill-opacity:1;stroke-width:0.976923" />
    <path
       fill="none"
       stroke="#e28150"
       paint-order="fill stroke markers"
       d="m 309.78511,146.01911 -0.11449,51.32416"
       stroke-opacity="1"
       stroke-linejoin="round"
       stroke-miterlimit="10"
       stroke-width="2.93076"
       id="path40"
       style="stroke:#a07be9;stroke-opacity:1" />
    <path
       fill="#e28150"
       stroke="none"
       paint-order="stroke fill markers"
       d="m 313.99561,163.18991 -4.26775,8.49129 -4.22984,-8.51025 z"
       fill-opacity="1"
       id="path42"
       style="fill:#a07be9;fill-opacity:1;stroke-width:0.976923" />
    <path
       fill="none"
       stroke="#e28150"
       paint-order="fill stroke markers"
       d="m 322.76206,138.22809 128.80626,68.31707"
       stroke-opacity="1"
       stroke-linejoin="round"
       stroke-miterlimit="10"
       stroke-width="2.93076"
       id="path44"
       style="stroke:#a07be9;stroke-opacity:1" />
    <path
       fill="#e28150"
       stroke="none"
       paint-order="stroke fill markers"
       d="m 381.64776,164.64943 5.51743,7.73719 -9.4979,-0.22672 z"
       fill-opacity="1"
       id="path46"
       style="fill:#a07be9;fill-opacity:1;stroke-width:0.976923" />
    <path
       fill="none"
       stroke="#e28150"
       paint-order="fill stroke markers"
       d="M 320.17765,141.72635 377.59687,199.167"
       stroke-opacity="1"
       stroke-linejoin="round"
       stroke-miterlimit="10"
       stroke-width="2.93076"
       id="path48"
       style="stroke:#a07be9;stroke-opacity:1" />
    <path
       fill="#e28150"
       stroke="none"
       paint-order="stroke fill markers"
       d="m 345.88291,161.43024 3.00435,9.01644 -9.01307,-3.00548 z"
       fill-opacity="1"
       id="path50"
       style="fill:#a07be9;fill-opacity:1;stroke-width:0.976923" />
    <path
       fill="none"
       stroke="#e2e250"
       paint-order="fill stroke markers"
       d="M 279.42053,300.59174 V 349.4468"
       stroke-opacity="1"
       stroke-linejoin="round"
       stroke-miterlimit="10"
       stroke-width="2.93076"
       id="path52"
       style="stroke:#2ad4ff;stroke-opacity:1" />
    <path
       fill="#e2e250"
       stroke="none"
       paint-order="stroke fill markers"
       d="m 283.66933,316.51849 -4.2488,8.50078 -4.24881,-8.50078 z"
       fill-opacity="1"
       id="path54"
       style="fill:#2ad4ff;fill-opacity:1;stroke-width:0.976923" />
    <path
       fill="none"
       stroke="#e28150"
       paint-order="fill stroke markers"
       d="m 433.57832,66.303726 25.96516,51.949714"
       stroke-opacity="1"
       stroke-linejoin="round"
       stroke-miterlimit="10"
       stroke-width="2.93076"
       id="path56"
       style="stroke:#a07be9;stroke-opacity:1" />
    <path
       fill="#e28150"
       stroke="none"
       paint-order="stroke fill markers"
       d="m 450.1704,88.54964 v 9.50417 l -7.6005,-5.7025 z"
       fill-opacity="1"
       id="path58"
       style="fill:#a07be9;fill-opacity:1;stroke-width:0.976923" />
    <path
       fill="none"
       stroke="#50e2e2"
       paint-order="fill stroke markers"
       d="M 309.8178,67.851056 V 116.70612"
       stroke-opacity="1"
       stroke-linejoin="round"
       stroke-miterlimit="10"
       stroke-width="2.93076"
       id="path60"
       style="stroke:#e2e250;stroke-opacity:1" />
    <path
       fill="#50e2e2"
       stroke="none"
       paint-order="stroke fill markers"
       d="m 314.0666,83.777806 -4.2488,8.50078 -4.24881,-8.50078 z"
       fill-opacity="1"
       id="path62"
       style="fill:#e2e250;fill-opacity:1;stroke-width:0.976923" />
    <path
       fill="none"
       stroke="#50e2e2"
       paint-order="fill stroke markers"
       d="m 182.84206,146.01915 v 48.85506"
       stroke-opacity="1"
       stroke-linejoin="round"
       stroke-miterlimit="10"
       stroke-width="2.93076"
       id="path64"
       style="stroke:#e2e250;stroke-opacity:1" />
    <path
       fill="#50e2e2"
       stroke="none"
       paint-order="stroke fill markers"
       d="m 187.09087,161.9459 -4.24881,8.50078 -4.2488,-8.50078 z"
       fill-opacity="1"
       id="path66"
       style="fill:#e2e250;fill-opacity:1;stroke-width:0.976923" />
    <path
       fill="none"
       stroke="#e28150"
       paint-order="fill stroke markers"
       d="m 194.3339,218.62206 73.5948,58.22181"
       stroke-opacity="1"
       stroke-linejoin="round"
       stroke-miterlimit="10"
       stroke-width="2.93076"
       id="path68"
       style="stroke:#a07be9;stroke-opacity:1" />
    <path
       fill="#e28150"
       stroke="none"
       paint-order="stroke fill markers"
       d="m 227.10153,239.12612 4.02976,8.60685 -9.30076,-1.9391 z"
       fill-opacity="1"
       id="path70"
       style="fill:#a07be9;fill-opacity:1;stroke-width:0.976923" />
    <path
       fill="#5081e2"
       stroke="none"
       paint-order="stroke fill markers"
       d="m 416.76164,-10.638923 0.0451,1.1499362 0.13521,1.1428484 0.22443,1.1287112 0.31227,1.1076174 0.39817,1.0796932 0.48162,1.0451134 0.56211,1.0040902 0.63913,0.9568764 0.7122,0.9037622 0.78088,0.84507622 0.84476,0.78118017 0.90343,0.71246921 0.95652,0.6393632 1.00371,0.5623182 1.04473,0.481803 1.07928,0.3983212 1.10722,0.31238 1.12828,0.2245142 1.14243,0.135265 1.1495,0.04518 1.14951,-0.04518 1.14242,-0.135265 1.12829,-0.2245142 1.1072,-0.31238 1.07929,-0.3983212 1.04472,-0.481803 1.00372,-0.5623182 0.95651,-0.6393632 0.90343,-0.71246921 0.84476,-0.78118017 0.78089,-0.84507622 0.7122,-0.9037622 0.63912,-0.9568764 0.56211,-1.0040902 0.48163,-1.0451134 0.39817,-1.0796932 0.31227,-1.1076174 0.22443,-1.1287112 0.13521,-1.1428484 0.0451,-1.1499362 -0.0451,-1.149937 -0.13521,-1.142848 -0.22443,-1.128711 -0.31227,-1.107617 -0.39817,-1.079693 -0.48163,-1.045113 -0.56211,-1.00409 -0.63912,-0.956875 -0.7122,-0.903762 -0.78089,-0.845076 -0.84476,-0.781181 -0.90343,-0.712469 -0.95651,-0.639363 -1.00372,-0.562318 -1.04472,-0.481803 -1.0793,-0.39832 -1.1072,-0.31238 -1.12828,-0.224515 -1.14243,-0.135265 -1.1495,-0.04518 -1.14951,0.04518 -1.14242,0.135265 -1.12829,0.224515 -1.10721,0.31238 -1.07928,0.39832 -1.04473,0.481803 -1.00371,0.562318 -0.95653,0.639363 -0.90342,0.712469 -0.84476,0.781181 -0.78089,0.845076 -0.7122,0.903762 -0.63912,0.956875 -0.56212,1.00409 -0.48161,1.045113 -0.39818,1.079693 -0.31226,1.107617 -0.22443,1.128711 -0.13522,1.142848 z"
       fill-opacity="1"
       id="path72"
       style="fill:#e2e250;fill-opacity:1;stroke-width:0.976923" />
    <text
       fill="#000000"
       stroke="none"
       font-family="'Helvetica Neue', Helvetica, sans-serif"
       font-size="8px"
       font-style="normal"
       font-weight="normal"
       text-decoration="normal"
       x="432.55154"
       y="-23.231012"
       text-anchor="middle"
       dominant-baseline="text-after-edge"
       fill-opacity="1"
       id="text74"
       style="font-size:10.5879px">AraA</text>
    <path
       fill="#5081e2"
       stroke="none"
       paint-order="stroke fill markers"
       d="m 264.76948,364.10331 0.0451,1.14993 0.13522,1.14286 0.22442,1.12871 0.31227,1.10761 0.39817,1.0797 0.48163,1.04511 0.5621,1.00409 0.63912,0.95688 0.7122,0.90376 0.7809,0.84507 0.84476,0.78119 0.90342,0.71246 0.95651,0.63936 1.00373,0.56233 1.04471,0.4818 1.0793,0.39832 1.1072,0.31238 1.12829,0.22451 1.14242,0.13527 1.1495,0.0451 1.14951,-0.0451 1.14243,-0.13527 1.12829,-0.22451 1.10721,-0.31238 1.07928,-0.39832 1.04472,-0.4818 1.00371,-0.56233 0.95653,-0.63936 0.90342,-0.71246 0.84476,-0.78119 0.78089,-0.84507 0.71221,-0.90376 0.63912,-0.95688 0.56211,-1.00409 0.48163,-1.04511 0.39816,-1.0797 0.31226,-1.10761 0.22444,-1.12871 0.13521,-1.14286 0.0451,-1.14993 -0.0451,-1.14994 -0.13521,-1.14285 -0.22444,-1.1287 -0.31226,-1.10763 -0.39816,-1.07968 -0.48163,-1.04512 -0.56211,-1.00409 -0.63912,-0.95687 -0.71221,-0.90376 -0.78089,-0.84508 -0.84476,-0.78118 -0.90342,-0.71247 -0.95653,-0.63936 -1.00371,-0.56232 -1.04472,-0.4818 -1.07928,-0.39833 -1.10721,-0.31237 -1.12829,-0.22452 -1.14243,-0.13526 -1.14951,-0.0451 -1.1495,0.0451 -1.14242,0.13526 -1.12829,0.22452 -1.1072,0.31237 -1.0793,0.39833 -1.04471,0.4818 -1.00373,0.56232 -0.95651,0.63936 -0.90342,0.71247 -0.84476,0.78118 -0.7809,0.84508 -0.7122,0.90376 -0.63912,0.95687 -0.5621,1.00409 -0.48163,1.04512 -0.39817,1.07968 -0.31227,1.10763 -0.22442,1.1287 -0.13522,1.14285 z"
       fill-opacity="1"
       id="path76"
       style="stroke-width:0.976923" />
    <text
       fill="#000000"
       stroke="none"
       font-family="'Helvetica Neue', Helvetica, sans-serif"
       font-size="8px"
       font-style="normal"
       font-weight="normal"
       text-decoration="normal"
       x="278.71637"
       y="390.23724"
       text-anchor="middle"
       dominant-baseline="text-after-edge"
       fill-opacity="1"
       id="text78"
       style="font-size:11.5505px">pentose_phosphate_pathway</text>
    <path
       fill="#5081e2"
       stroke="none"
       paint-order="stroke fill markers"
       d="m 295.16675,53.194536 0.0451,1.14993 0.13521,1.14285 0.22444,1.12872 0.31226,1.10761 0.39817,1.0797 0.48162,1.04511 0.56212,1.00409 0.63913,0.95688 0.71219,0.90376 0.78089,0.84507 0.84476,0.78119 0.90342,0.71246 0.95652,0.63937 1.00371,0.56232 1.04474,0.4818 1.07928,0.39832 1.10721,0.31238 1.12828,0.22452 1.14243,0.13526 1.14955,0.0451 1.14951,-0.0451 1.14242,-0.13526 1.12829,-0.22452 1.1072,-0.31238 1.0793,-0.39832 1.04472,-0.4818 1.00371,-0.56232 0.95652,-0.63937 0.90343,-0.71246 0.84475,-0.78119 0.78089,-0.84507 0.71221,-0.90376 0.63912,-0.95688 0.56211,-1.00409 0.48162,-1.04511 0.39818,-1.0797 0.31226,-1.10761 0.22443,-1.12872 0.13521,-1.14285 0.0451,-1.14997 -0.0451,-1.14994 -0.13521,-1.14284 -0.22444,-1.12871 -0.31226,-1.10762 -0.39817,-1.07969 -0.48162,-1.04512 -0.56211,-1.00409 -0.63913,-0.95687 -0.7122,-0.90376 -0.78089,-0.84508 -0.84476,-0.78118 -0.90342,-0.71247 -0.95653,-0.63936 -1.00371,-0.56232 -1.04472,-0.48181 -1.07929,-0.39831 -1.1072,-0.31238 -1.12829,-0.22452 -1.14243,-0.13526 -1.14954,-0.0451 -1.14952,0.0451 -1.14242,0.13526 -1.12829,0.22452 -1.1072,0.31238 -1.07929,0.39831 -1.04473,0.48181 -1.00371,0.56232 -0.95653,0.63936 -0.90342,0.71247 -0.84476,0.78118 -0.78089,0.84508 -0.71219,0.90376 -0.63913,0.95687 -0.56212,1.00409 -0.48161,1.04512 -0.39818,1.07969 -0.31226,1.10762 -0.22444,1.12871 -0.13521,1.14284 z"
       fill-opacity="1"
       id="path80"
       style="fill:#e2e250;fill-opacity:1;stroke-width:0.976923" />
    <text
       fill="#000000"
       stroke="none"
       font-family="'Helvetica Neue', Helvetica, sans-serif"
       font-size="8px"
       font-style="normal"
       font-weight="normal"
       text-decoration="normal"
       x="308.90558"
       y="38.131519"
       text-anchor="middle"
       dominant-baseline="text-after-edge"
       fill-opacity="1"
       id="text82"
       style="font-size:11.5505px">AraB</text>
    <path
       fill="#5081e2"
       stroke="none"
       paint-order="stroke fill markers"
       d="m 168.19103,131.36271 0.0451,1.14994 0.13521,1.14285 0.22444,1.12871 0.31226,1.10761 0.39818,1.0797 0.48162,1.04511 0.56211,1.00409 0.63913,0.95688 0.7122,0.90376 0.78088,0.84507 0.84476,0.78119 0.90343,0.71246 0.95652,0.63937 1.00371,0.56232 1.04473,0.4818 1.0793,0.39832 1.10719,0.31238 1.12829,0.22452 1.14242,0.13526 1.14955,0.0451 1.14951,-0.0451 1.14242,-0.13526 1.12829,-0.22452 1.1072,-0.31238 1.07929,-0.39832 1.04473,-0.4818 1.00372,-0.56232 0.95651,-0.63937 0.90342,-0.71246 0.84476,-0.78119 0.78089,-0.84507 0.7122,-0.90376 0.63913,-0.95688 0.56211,-1.00409 0.48162,-1.04511 0.39817,-1.0797 0.31226,-1.10761 0.22444,-1.12871 0.13521,-1.14285 0.0451,-1.14998 -0.0451,-1.14994 -0.13521,-1.14284 -0.22443,-1.12871 -0.31227,-1.10761 -0.39817,-1.0797 -0.48162,-1.04512 -0.56211,-1.00409 -0.63913,-0.95687 -0.7122,-0.90376 -0.78089,-0.84508 -0.84476,-0.78118 -0.90342,-0.71246 -0.95651,-0.63937 -1.00372,-0.56232 -1.04472,-0.4818 -1.0793,-0.39832 -1.1072,-0.31238 -1.12829,-0.22452 -1.14241,-0.13526 -1.14956,-0.0451 -1.14951,0.0451 -1.14242,0.13526 -1.12828,0.22452 -1.1072,0.31238 -1.07929,0.39832 -1.04474,0.4818 -1.00371,0.56232 -0.95652,0.63937 -0.90342,0.71246 -0.84476,0.78118 -0.78089,0.84508 -0.71219,0.90376 -0.63913,0.95687 -0.56211,1.00409 -0.48162,1.04512 -0.39818,1.0797 -0.31227,1.10761 -0.22443,1.12871 -0.13521,1.14284 z"
       fill-opacity="1"
       id="path84"
       style="fill:#e2e250;fill-opacity:1;stroke-width:0.976923" />
    <text
       fill="#000000"
       stroke="none"
       font-family="'Helvetica Neue', Helvetica, sans-serif"
       font-size="8px"
       font-style="normal"
       font-weight="normal"
       text-decoration="normal"
       x="183.15419"
       y="118.00084"
       text-anchor="middle"
       dominant-baseline="text-after-edge"
       fill-opacity="1"
       id="text86"
       style="font-size:11.5505px">AraD</text>
    <path
       fill="#8150e2"
       stroke="none"
       paint-order="stroke fill markers"
       d="m 416.76164,67.529152 0.0451,1.14993 0.13521,1.14285 0.22443,1.12872 0.31227,1.10761 0.39817,1.0797 0.48162,1.04511 0.56211,1.00409 0.63913,0.95688 0.7122,0.90376 0.78088,0.84507 0.84476,0.78119 0.90343,0.71246 0.95652,0.63937 1.00371,0.56232 1.04473,0.4818 1.07928,0.39832 1.10722,0.31238 1.12828,0.22452 1.14243,0.13526 1.1495,0.0451 1.14951,-0.0451 1.14242,-0.13526 1.12829,-0.22452 1.1072,-0.31238 1.07929,-0.39832 1.04472,-0.4818 1.00372,-0.56232 0.95652,-0.63937 0.90342,-0.71246 0.84476,-0.78119 0.7809,-0.84507 0.71219,-0.90376 0.63913,-0.95688 0.56211,-1.00409 0.48162,-1.04511 0.39817,-1.0797 0.31227,-1.10761 0.22443,-1.12872 0.13521,-1.14285 0.0451,-1.14993 -0.0451,-1.14994 -0.13521,-1.14284 -0.22443,-1.12871 -0.31227,-1.10762 -0.39817,-1.07969 -0.48163,-1.04512 -0.56211,-1.00409 -0.63912,-0.95687 -0.7122,-0.90376 -0.78089,-0.84508 -0.84476,-0.78118 -0.90343,-0.71247 -0.95651,-0.63936 -1.00372,-0.56232 -1.04472,-0.48181 -1.0793,-0.39831 -1.1072,-0.31238 -1.12828,-0.22452 -1.14243,-0.13526 -1.1495,-0.0451 -1.14951,0.0451 -1.14242,0.13526 -1.12829,0.22452 -1.10721,0.31238 -1.07928,0.39831 -1.04473,0.48181 -1.00371,0.56232 -0.95653,0.63936 -0.90342,0.71247 -0.84476,0.78118 -0.78089,0.84508 -0.7122,0.90376 -0.63912,0.95687 -0.56212,1.00409 -0.48161,1.04512 -0.39818,1.07969 -0.31226,1.10762 -0.22443,1.12871 -0.13522,1.14284 z"
       fill-opacity="1"
       id="path88"
       style="fill:#fa8072;fill-opacity:1;stroke-width:0.976923" />
    <text
       fill="#000000"
       stroke="none"
       font-family="'Helvetica Neue', Helvetica, sans-serif"
       font-size="8px"
       font-style="normal"
       font-weight="normal"
       text-decoration="normal"
       x="380.97382"
       y="93.855179"
       text-anchor="middle"
       dominant-baseline="text-after-edge"
       fill-opacity="1"
       id="text90"
       style="font-size:11.5505px">l_arabinose_isomerase</text>
    <path
       fill="#50e281"
       stroke="none"
       paint-order="stroke fill markers"
       d="m 451.44458,131.36263 0.0451,1.14994 0.13522,1.14285 0.22443,1.12871 0.31226,1.10761 0.39817,1.0797 0.48162,1.04511 0.56212,1.00409 0.63912,0.95688 0.7122,0.90376 0.78089,0.84507 0.84476,0.78119 0.90342,0.71246 0.95653,0.63937 1.00371,0.56232 1.04473,0.4818 1.07928,0.39832 1.10721,0.31238 1.12828,0.22452 1.14243,0.13526 1.14951,0.0451 1.1495,-0.0451 1.14243,-0.13526 1.12828,-0.22452 1.1072,-0.31238 1.0793,-0.39832 1.04471,-0.4818 1.00372,-0.56232 0.95652,-0.63937 0.90342,-0.71246 0.84476,-0.78119 0.7809,-0.84507 0.7122,-0.90376 0.63912,-0.95688 0.56211,-1.00409 0.48162,-1.04511 0.39818,-1.0797 0.31226,-1.10761 0.22443,-1.12871 0.13521,-1.14289 0.0451,-1.14994 -0.0451,-1.14994 -0.13521,-1.14284 -0.22443,-1.12871 -0.31226,-1.10761 -0.39818,-1.0797 -0.48162,-1.04512 -0.56211,-1.00409 -0.63912,-0.95687 -0.7122,-0.90376 -0.7809,-0.84508 -0.84476,-0.78118 -0.90342,-0.71246 -0.95652,-0.63937 -1.00372,-0.56232 -1.04471,-0.4818 -1.0793,-0.39832 -1.1072,-0.31238 -1.12828,-0.22452 -1.14243,-0.13526 -1.1495,-0.0451 -1.14951,0.0451 -1.14243,0.13526 -1.12828,0.22452 -1.10721,0.31238 -1.07928,0.39832 -1.04473,0.4818 -1.00371,0.56232 -0.95653,0.63937 -0.90342,0.71246 -0.84476,0.78118 -0.78089,0.84508 -0.7122,0.90376 -0.63912,0.95687 -0.56212,1.00409 -0.48162,1.04512 -0.39817,1.0797 -0.31226,1.10761 -0.22443,1.12871 -0.13522,1.14284 z"
       fill-opacity="1"
       id="path92"
       style="fill:#a07be9;fill-opacity:1;stroke-width:0.976923" />
    <text
       fill="#000000"
       stroke="none"
       font-family="'Helvetica Neue', Helvetica, sans-serif"
       font-size="8px"
       font-style="normal"
       font-weight="normal"
       text-decoration="normal"
       x="427.3486"
       y="144.50069"
       text-anchor="middle"
       dominant-baseline="text-after-edge"
       fill-opacity="1"
       id="text94"
       style="font-size:11.5505px">l_ribulose</text>
    <path
       fill="#50e281"
       stroke="none"
       paint-order="stroke fill markers"
       d="m 294.98686,209.83405 0.0451,1.14994 0.13522,1.14285 0.22442,1.1287 0.31227,1.10762 0.39817,1.07969 0.48162,1.04512 0.56211,1.00409 0.63912,0.95688 0.71221,0.90375 0.78089,0.84508 0.84476,0.78118 0.90342,0.71247 0.95652,0.63936 1.00371,0.56232 1.04472,0.4818 1.0793,0.39833 1.1072,0.31238 1.1283,0.22451 1.14241,0.13527 1.14951,0.0451 1.14952,-0.0451 1.14242,-0.13527 1.12829,-0.22451 1.10721,-0.31238 1.07928,-0.39833 1.04473,-0.4818 1.00371,-0.56232 0.95652,-0.63936 0.90342,-0.71247 0.84476,-0.78118 0.78089,-0.84508 0.71221,-0.90375 0.63912,-0.95688 0.56211,-1.00409 0.48163,-1.04512 0.39816,-1.07969 0.31226,-1.10762 0.22444,-1.1287 0.13521,-1.14285 0.0451,-1.14994 -0.0451,-1.14994 -0.13521,-1.14285 -0.22444,-1.12871 -0.31226,-1.10761 -0.39816,-1.0797 -0.48163,-1.04511 -0.56211,-1.00409 -0.63912,-0.95688 -0.71221,-0.90376 -0.78089,-0.84507 -0.84476,-0.78118 -0.90342,-0.71247 -0.95652,-0.63936 -1.00371,-0.56232 -1.04473,-0.4818 -1.07928,-0.39833 -1.10721,-0.31238 -1.12829,-0.22452 -1.14242,-0.13526 -1.14952,-0.0451 -1.14951,0.0451 -1.14241,0.13526 -1.1283,0.22452 -1.1072,0.31238 -1.0793,0.39833 -1.04472,0.4818 -1.00371,0.56232 -0.95652,0.63936 -0.90342,0.71247 -0.84476,0.78118 -0.78089,0.84507 -0.71221,0.90376 -0.63912,0.95688 -0.56211,1.00409 -0.48162,1.04511 -0.39817,1.0797 -0.31227,1.10761 -0.22442,1.12871 -0.13522,1.14285 z"
       fill-opacity="1"
       id="path96"
       style="fill:#a07be9;fill-opacity:1;stroke-width:0.976923" />
    <text
       fill="#000000"
       stroke="none"
       font-family="'Helvetica Neue', Helvetica, sans-serif"
       font-size="8px"
       font-style="normal"
       font-weight="normal"
       text-decoration="normal"
       x="308.19333"
       y="235.61713"
       text-anchor="middle"
       dominant-baseline="text-after-edge"
       fill-opacity="1"
       id="text98"
       style="font-size:11.5505px">hydrogen</text>
    <path
       fill="#50e281"
       stroke="none"
       paint-order="stroke fill markers"
       d="m 449.86153,209.80112 0.0451,1.14994 0.13521,1.14284 0.22443,1.12872 0.31226,1.10761 0.39817,1.0797 0.48163,1.04511 0.5621,1.0041 0.63913,0.95687 0.7122,0.90376 0.7809,0.84508 0.84476,0.78118 0.90342,0.71246 0.95651,0.63937 1.00372,0.56232 1.04472,0.4818 1.07929,0.39831 1.10721,0.31239 1.12828,0.22451 1.14243,0.13527 1.1495,0.0451 1.14951,-0.0451 1.14242,-0.13527 1.12829,-0.22451 1.10721,-0.31239 1.07929,-0.39831 1.04472,-0.4818 1.00371,-0.56232 0.95653,-0.63937 0.90342,-0.71246 0.84476,-0.78118 0.78089,-0.84508 0.7122,-0.90376 0.63912,-0.95687 0.56212,-1.0041 0.48162,-1.04511 0.39817,-1.0797 0.31226,-1.10761 0.22443,-1.12872 0.13522,-1.14284 0.0451,-1.14994 -0.0451,-1.14994 -0.13522,-1.14284 -0.22443,-1.12871 -0.31226,-1.10762 -0.39817,-1.07969 -0.48162,-1.04512 -0.56212,-1.00409 -0.63912,-0.95687 -0.7122,-0.90376 -0.78089,-0.84508 -0.84476,-0.78118 -0.90342,-0.71247 -0.95653,-0.63937 -1.00371,-0.56231 -1.04472,-0.48181 -1.07929,-0.39831 -1.10721,-0.31238 -1.12829,-0.22452 -1.14242,-0.13526 -1.14951,-0.0451 -1.1495,0.0451 -1.14243,0.13526 -1.12828,0.22452 -1.10721,0.31238 -1.07929,0.39831 -1.04472,0.48181 -1.00372,0.56231 -0.95651,0.63937 -0.90342,0.71247 -0.84476,0.78118 -0.7809,0.84508 -0.7122,0.90376 -0.63913,0.95687 -0.5621,1.00409 -0.48163,1.04512 -0.39817,1.07969 -0.31226,1.10762 -0.22443,1.12871 -0.13521,1.14284 z"
       fill-opacity="1"
       id="path100"
       style="fill:#a07be9;fill-opacity:1;stroke-width:0.976923" />
    <text
       fill="#000000"
       stroke="none"
       font-family="'Helvetica Neue', Helvetica, sans-serif"
       font-size="8px"
       font-style="normal"
       font-weight="normal"
       text-decoration="normal"
       x="465.69391"
       y="236.60368"
       text-anchor="middle"
       dominant-baseline="text-after-edge"
       fill-opacity="1"
       id="text102"
       style="font-size:11.5505px">ADP</text>
    <path
       fill="#50e281"
       stroke="none"
       paint-order="stroke fill markers"
       d="m 373.30567,209.53072 0.0451,1.14994 0.13521,1.14285 0.22444,1.12871 0.31226,1.10761 0.39817,1.0797 0.48162,1.04511 0.56212,1.00409 0.63912,0.95688 0.7122,0.90376 0.78089,0.84507 0.84476,0.78119 0.90342,0.71246 0.95653,0.63936 1.00371,0.56233 1.04472,0.4818 1.0793,0.39832 1.1072,0.31238 1.12828,0.22452 1.14243,0.13526 1.14954,0.0451 1.14951,-0.0451 1.14243,-0.13526 1.12828,-0.22452 1.1072,-0.31238 1.0793,-0.39832 1.04472,-0.4818 1.00371,-0.56233 0.95653,-0.63936 0.90342,-0.71246 0.84476,-0.78119 0.78089,-0.84507 0.7122,-0.90376 0.63913,-0.95688 0.56211,-1.00409 0.48162,-1.04511 0.39817,-1.0797 0.31226,-1.10761 0.22444,-1.12871 0.13521,-1.14285 0.0451,-1.14998 -0.0451,-1.14994 -0.13521,-1.14284 -0.22444,-1.12871 -0.31226,-1.10761 -0.39817,-1.0797 -0.48162,-1.04512 -0.56211,-1.00409 -0.63913,-0.95687 -0.7122,-0.90376 -0.78089,-0.84508 -0.84476,-0.78118 -0.90342,-0.71246 -0.95652,-0.63937 -1.00371,-0.56232 -1.04473,-0.4818 -1.07929,-0.39832 -1.10721,-0.31238 -1.12828,-0.22452 -1.14242,-0.13526 -1.14955,-0.0451 -1.14951,0.0451 -1.14242,0.13526 -1.12829,0.22452 -1.1072,0.31238 -1.0793,0.39832 -1.04472,0.4818 -1.00371,0.56232 -0.95652,0.63937 -0.90342,0.71246 -0.84476,0.78118 -0.78089,0.84508 -0.71221,0.90376 -0.63912,0.95687 -0.56211,1.00409 -0.48162,1.04512 -0.39818,1.0797 -0.31226,1.10761 -0.22443,1.12871 -0.13521,1.14284 z"
       fill-opacity="1"
       id="path104"
       style="fill:#a07be9;fill-opacity:1;stroke-width:0.976923" />
    <text
       fill="#000000"
       stroke="none"
       font-family="'Helvetica Neue', Helvetica, sans-serif"
       font-size="8px"
       font-style="normal"
       font-weight="normal"
       text-decoration="normal"
       x="388.9863"
       y="235.61426"
       text-anchor="middle"
       dominant-baseline="text-after-edge"
       fill-opacity="1"
       id="text106"
       style="font-size:11.5505px">rib5p</text>
    <path
       fill="#50e281"
       stroke="none"
       paint-order="stroke fill markers"
       d="m 373.30567,131.36263 0.0451,1.14994 0.13521,1.14285 0.22444,1.12871 0.31226,1.10761 0.39817,1.0797 0.48162,1.04511 0.56212,1.00409 0.63912,0.95688 0.7122,0.90376 0.78089,0.84507 0.84476,0.78119 0.90342,0.71246 0.95653,0.63937 1.00371,0.56232 1.04472,0.4818 1.0793,0.39832 1.1072,0.31238 1.12828,0.22452 1.14243,0.13526 1.14954,0.0451 1.14951,-0.0451 1.14243,-0.13526 1.12828,-0.22452 1.1072,-0.31238 1.0793,-0.39832 1.04472,-0.4818 1.00371,-0.56232 0.95653,-0.63937 0.90342,-0.71246 0.84476,-0.78119 0.78089,-0.84507 0.7122,-0.90376 0.63913,-0.95688 0.56211,-1.00409 0.48162,-1.04511 0.39817,-1.0797 0.31226,-1.10761 0.22444,-1.12871 0.13521,-1.14285 0.0451,-1.14998 -0.0451,-1.14994 -0.13521,-1.14284 -0.22444,-1.12871 -0.31226,-1.10761 -0.39817,-1.0797 -0.48162,-1.04512 -0.56211,-1.00409 -0.63913,-0.95687 -0.7122,-0.90376 -0.78089,-0.84508 -0.84476,-0.78118 -0.90342,-0.71246 -0.95652,-0.63937 -1.00371,-0.56232 -1.04473,-0.4818 -1.07929,-0.39832 -1.10721,-0.31238 -1.12828,-0.22452 -1.14242,-0.13526 -1.14955,-0.0451 -1.14951,0.0451 -1.14242,0.13526 -1.12829,0.22452 -1.1072,0.31238 -1.0793,0.39832 -1.04472,0.4818 -1.00371,0.56232 -0.95652,0.63937 -0.90342,0.71246 -0.84476,0.78118 -0.78089,0.84508 -0.71221,0.90376 -0.63912,0.95687 -0.56211,1.00409 -0.48162,1.04512 -0.39818,1.0797 -0.31226,1.10761 -0.22443,1.12871 -0.13521,1.14284 z"
       fill-opacity="1"
       id="path108"
       style="fill:#a07be9;fill-opacity:1;stroke-width:0.976923" />
    <text
       fill="#000000"
       stroke="none"
       font-family="'Helvetica Neue', Helvetica, sans-serif"
       font-size="8px"
       font-style="normal"
       font-weight="normal"
       text-decoration="normal"
       x="363.7197"
       y="146.34122"
       text-anchor="middle"
       dominant-baseline="text-after-edge"
       fill-opacity="1"
       id="text110"
       style="font-size:11.5505px">ATP</text>
    <path
       fill="#8150e2"
       stroke="none"
       paint-order="stroke fill markers"
       d="m 295.16675,131.36263 0.0451,1.14994 0.13521,1.14285 0.22444,1.12871 0.31226,1.10761 0.39817,1.0797 0.48162,1.04511 0.56212,1.00409 0.63913,0.95688 0.71219,0.90376 0.78089,0.84507 0.84476,0.78119 0.90342,0.71246 0.95652,0.63937 1.00371,0.56232 1.04474,0.4818 1.07928,0.39832 1.10721,0.31238 1.12828,0.22452 1.14243,0.13526 1.14955,0.0451 1.14951,-0.0451 1.14242,-0.13526 1.12829,-0.22452 1.1072,-0.31238 1.0793,-0.39832 1.04472,-0.4818 1.00371,-0.56232 0.95652,-0.63937 0.90343,-0.71246 0.84475,-0.78119 0.78089,-0.84507 0.71221,-0.90376 0.63912,-0.95688 0.56211,-1.00409 0.48162,-1.04511 0.39818,-1.0797 0.31226,-1.10761 0.22443,-1.12871 0.13521,-1.14285 0.0451,-1.14998 -0.0451,-1.14994 -0.13521,-1.14284 -0.22444,-1.12871 -0.31226,-1.10761 -0.39817,-1.0797 -0.48162,-1.04512 -0.56211,-1.00409 -0.63913,-0.95687 -0.7122,-0.90376 -0.78089,-0.84508 -0.84476,-0.78118 -0.90342,-0.71246 -0.95653,-0.63937 -1.00371,-0.56232 -1.04472,-0.4818 -1.07929,-0.39832 -1.1072,-0.31238 -1.12829,-0.22452 -1.14243,-0.13526 -1.14954,-0.0451 -1.14952,0.0451 -1.14242,0.13526 -1.12829,0.22452 -1.1072,0.31238 -1.07929,0.39832 -1.04473,0.4818 -1.00371,0.56232 -0.95653,0.63937 -0.90342,0.71246 -0.84476,0.78118 -0.78089,0.84508 -0.71219,0.90376 -0.63913,0.95687 -0.56212,1.00409 -0.48161,1.04512 -0.39818,1.0797 -0.31226,1.10761 -0.22444,1.12871 -0.13521,1.14284 z"
       fill-opacity="1"
       id="path112"
       style="fill:#fa8072;fill-opacity:1;stroke-width:0.976923" />
    <text
       fill="#000000"
       stroke="none"
       font-family="'Helvetica Neue', Helvetica, sans-serif"
       font-size="8px"
       font-style="normal"
       font-weight="normal"
       text-decoration="normal"
       x="266.33017"
       y="145.5"
       text-anchor="middle"
       dominant-baseline="text-after-edge"
       fill-opacity="1"
       id="text114"
       style="font-size:11.5505px">ribulokinase</text>
    <path
       fill="#50e281"
       stroke="none"
       paint-order="stroke fill markers"
       d="m 264.76948,285.93522 0.0451,1.14993 0.13522,1.14286 0.22442,1.12871 0.31227,1.10761 0.39817,1.0797 0.48163,1.04511 0.5621,1.00409 0.63912,0.95688 0.7122,0.90376 0.7809,0.84507 0.84476,0.78119 0.90342,0.71246 0.95651,0.63937 1.00373,0.56232 1.04471,0.4818 1.0793,0.39832 1.1072,0.31238 1.12829,0.22451 1.14242,0.13527 1.1495,0.0451 1.14951,-0.0451 1.14243,-0.13527 1.12829,-0.22451 1.10721,-0.31238 1.07928,-0.39832 1.04472,-0.4818 1.00371,-0.56232 0.95653,-0.63937 0.90342,-0.71246 0.84476,-0.78119 0.78089,-0.84507 0.71221,-0.90376 0.63912,-0.95688 0.56211,-1.00409 0.48163,-1.04511 0.39816,-1.0797 0.31226,-1.10761 0.22444,-1.12871 0.13521,-1.14286 0.0451,-1.14993 -0.0451,-1.14994 -0.13521,-1.14284 -0.22444,-1.12871 -0.31226,-1.10763 -0.39816,-1.07968 -0.48163,-1.04512 -0.56211,-1.00409 -0.63912,-0.95687 -0.71221,-0.90376 -0.78089,-0.84508 -0.84476,-0.78118 -0.90342,-0.71247 -0.95653,-0.63936 -1.00371,-0.56232 -1.04472,-0.4818 -1.07928,-0.39833 -1.10721,-0.31237 -1.12829,-0.22452 -1.14243,-0.13526 -1.14951,-0.0451 -1.1495,0.0451 -1.14242,0.13526 -1.12829,0.22452 -1.1072,0.31237 -1.0793,0.39833 -1.04471,0.4818 -1.00373,0.56232 -0.95651,0.63936 -0.90342,0.71247 -0.84476,0.78118 -0.7809,0.84508 -0.7122,0.90376 -0.63912,0.95687 -0.5621,1.00409 -0.48163,1.04512 -0.39817,1.07968 -0.31227,1.10763 -0.22442,1.12871 -0.13522,1.14284 z"
       fill-opacity="1"
       id="path116"
       style="fill:#a07be9;fill-opacity:1;stroke-width:0.976923" />
    <text
       fill="#000000"
       stroke="none"
       font-family="'Helvetica Neue', Helvetica, sans-serif"
       font-size="8px"
       font-style="normal"
       font-weight="normal"
       text-decoration="normal"
       x="279.67871"
       y="270.69662"
       text-anchor="middle"
       dominant-baseline="text-after-edge"
       fill-opacity="1"
       id="text118"
       style="font-size:11.5505px">Xyl5p</text>
    <path
       fill="#8150e2"
       stroke="none"
       paint-order="stroke fill markers"
       d="m 168.19101,209.53072 0.0451,1.14994 0.13521,1.14285 0.22444,1.12871 0.31226,1.10761 0.39818,1.0797 0.48162,1.04511 0.56211,1.00409 0.63913,0.95688 0.7122,0.90376 0.78088,0.84507 0.84476,0.78119 0.90343,0.71246 0.95652,0.63936 1.00371,0.56233 1.04473,0.4818 1.0793,0.39832 1.10719,0.31238 1.12829,0.22452 1.14242,0.13526 1.14955,0.0451 1.14951,-0.0451 1.14242,-0.13526 1.12829,-0.22452 1.1072,-0.31238 1.07929,-0.39832 1.04473,-0.4818 1.00372,-0.56233 0.95651,-0.63936 0.90342,-0.71246 0.84476,-0.78119 0.78089,-0.84507 0.7122,-0.90376 0.63913,-0.95688 0.56211,-1.00409 0.48162,-1.04511 0.39817,-1.0797 0.31226,-1.10761 0.22444,-1.12871 0.13521,-1.14285 0.0451,-1.14998 -0.0451,-1.14994 -0.13521,-1.14284 -0.22443,-1.12871 -0.31227,-1.10761 -0.39817,-1.0797 -0.48162,-1.04512 -0.56211,-1.00409 -0.63913,-0.95687 -0.7122,-0.90376 -0.78089,-0.84508 -0.84476,-0.78118 -0.90342,-0.71246 -0.95651,-0.63937 -1.00372,-0.56232 -1.04472,-0.4818 -1.0793,-0.39832 -1.1072,-0.31238 -1.12829,-0.22452 -1.14241,-0.13526 -1.14956,-0.0451 -1.14951,0.0451 -1.14242,0.13526 -1.12828,0.22452 -1.1072,0.31238 -1.07929,0.39832 -1.04474,0.4818 -1.00371,0.56232 -0.95652,0.63937 -0.90342,0.71246 -0.84476,0.78118 -0.78089,0.84508 -0.71219,0.90376 -0.63913,0.95687 -0.56211,1.00409 -0.48162,1.04512 -0.39818,1.0797 -0.31227,1.10761 -0.22443,1.12871 -0.13521,1.14284 z"
       fill-opacity="1"
       id="path124"
       style="fill:#fa8072;fill-opacity:1;stroke-width:0.976923" />
    <text
       fill="#000000"
       stroke="none"
       font-family="'Helvetica Neue', Helvetica, sans-serif"
       font-size="8px"
       font-style="normal"
       font-weight="normal"
       text-decoration="normal"
       x="145.87233"
       y="236.50873"
       text-anchor="middle"
       dominant-baseline="text-after-edge"
       fill-opacity="1"
       id="text126"
       style="font-size:11.5505px">rib5p_4_epimerase</text>
    <g
       transform="matrix(0.3609516,0,0,0.3609516,-98.460435,-8.9990193)"
       id="g128" />
  </g>
  <g
     transform="matrix(1.4511905,0,0,1.4511905,3076.8227,-43.341308)"
     id="g170">
    <g
       transform="matrix(0.68908942,0,0,0.68908942,-361.85448,-15.692344)"
       id="g168" />
    <g
       transform="matrix(1.0725989,-2.13846,2.13846,1.0725989,-4742.0024,2388.6526)"
       id="g138">
      <g
         transform="matrix(0.49896716,0,0,0.49896716,646.66531,243.82713)"
         id="g136" />
      <g
         id="g1778"
         transform="matrix(0.37416109,0.74597176,-0.74597176,0.37416109,1587.8209,587.36003)">
        <text
           xml:space="preserve"
           transform="matrix(0.53875344,0,0,0.53875344,-169.3424,189.42348)"
           id="text3637-4"
           style="font-style:normal;font-weight:normal;font-size:37.3333px;line-height:1.25;font-family:sans-serif;white-space:pre;shape-inside:url(#rect3639-3);fill:#000000;fill-opacity:1;stroke:none"><tspan
             x="1443.0723"
             y="73.013644"
             id="tspan40045">Node Color</tspan></text>
        <text
           xml:space="preserve"
           transform="matrix(0.53875344,0,0,0.53875344,-171.30482,296.6661)"
           id="text3637-7-7"
           style="font-style:normal;font-weight:normal;font-size:37.3333px;line-height:1.25;font-family:sans-serif;white-space:pre;shape-inside:url(#rect3639-5-6);fill:#000000;fill-opacity:1;stroke:none"><tspan
             x="1443.0723"
             y="73.013644"
             id="tspan40047">Edge Color</tspan></text>
        <rect
           id="rect18643-7-6"
           width="29.16246"
           height="8.8964348"
           x="612.1308"
           y="236.3336"
           style="fill:#e2e250;fill-opacity:1;stroke:none;stroke-width:0.365162;stroke-miterlimit:4;stroke-dasharray:none;stroke-opacity:1"
           ry="1.5751116" />
        <text
           xml:space="preserve"
           transform="matrix(0.53875344,0,0,0.53875344,-124.17624,213.1978)"
           id="text27183-1-5"
           style="font-style:normal;font-weight:normal;font-size:21.3333px;line-height:1.25;font-family:sans-serif;white-space:pre;shape-inside:url(#rect27185-7-7);fill:#000000;fill-opacity:1;stroke:none"><tspan
             x="1443.0723"
             y="58.857392"
             id="tspan40049">CDS</tspan></text>
        <rect
           id="rect18643-7-1-9-6"
           width="29.16246"
           height="8.8964348"
           x="612.35413"
           y="251.39667"
           style="fill:#5081e2;fill-opacity:1;stroke:none;stroke-width:0.365162;stroke-miterlimit:4;stroke-dasharray:none;stroke-opacity:1"
           ry="1.5751116" />
        <text
           xml:space="preserve"
           transform="matrix(0.53875344,0,0,0.53875344,-123.95295,228.26088)"
           id="text27183-1-7-8-9"
           style="font-style:normal;font-weight:normal;font-size:21.3333px;line-height:1.25;font-family:sans-serif;white-space:pre;shape-inside:url(#rect27185-7-6-9-5);fill:#000000;fill-opacity:1;stroke:none"><tspan
             x="1443.0723"
             y="58.857392"
             id="tspan40051">Pathway</tspan></text>
        <rect
           id="rect18643-7-1-9-6-6"
           width="29.16246"
           height="8.8964348"
           x="612.0473"
           y="266.79379"
           style="fill:#fa8072;fill-opacity:1;stroke:none;stroke-width:0.365162;stroke-miterlimit:4;stroke-dasharray:none;stroke-opacity:1"
           ry="1.5751116" />
        <text
           xml:space="preserve"
           transform="matrix(0.53875344,0,0,0.53875344,-124.25869,243.65799)"
           id="text27183-1-7-8-9-7"
           style="font-style:normal;font-weight:normal;font-size:21.3333px;line-height:1.25;font-family:sans-serif;white-space:pre;shape-inside:url(#rect27185-7-6-9-5-3);fill:#000000;fill-opacity:1;stroke:none"><tspan
             x="1443.0723"
             y="58.857392"
             id="tspan40053">Protein</tspan></text>
        <rect
           id="rect18643-7-1-9-6-5"
           width="29.16246"
           height="8.8964348"
           x="612.0473"
           y="281.52429"
           style="fill:#a07be9;fill-opacity:1;stroke:none;stroke-width:0.365162;stroke-miterlimit:4;stroke-dasharray:none;stroke-opacity:1"
           ry="1.5751116" />
        <text
           xml:space="preserve"
           transform="matrix(0.53875344,0,0,0.53875344,-124.25978,258.38852)"
           id="text27183-1-7-8-9-6"
           style="font-style:normal;font-weight:normal;font-size:21.3333px;line-height:1.25;font-family:sans-serif;white-space:pre;shape-inside:url(#rect27185-7-6-9-5-5);fill:#000000;fill-opacity:1;stroke:none"><tspan
             x="1443.0723"
             y="58.857392"
             id="tspan40055">Small Molecule</tspan></text>
        <rect
           id="rect18643-9-5"
           width="29.16246"
           height="8.8964348"
           x="611.98956"
           y="345.50992"
           style="fill:#e2e250;fill-opacity:1;stroke:none;stroke-width:0.365162;stroke-miterlimit:4;stroke-dasharray:none;stroke-opacity:1"
           ry="1.5751116" />
        <text
           xml:space="preserve"
           transform="matrix(0.53875344,0,0,0.53875344,-125.6981,322.37435)"
           id="text27183-2-2"
           style="font-style:normal;font-weight:normal;font-size:21.3333px;line-height:1.25;font-family:sans-serif;white-space:pre;shape-inside:url(#rect27185-4-5);fill:#000000;fill-opacity:1;stroke:none"><tspan
             x="1443.0723"
             y="58.857392"
             id="tspan40057">Protein Production</tspan></text>
        <rect
           id="rect18643-7-1-5"
           width="29.16246"
           height="8.8964348"
           x="611.72028"
           y="359.87836"
           style="fill:#a07be9;fill-opacity:1;stroke:none;stroke-width:0.365162;stroke-miterlimit:4;stroke-dasharray:none;stroke-opacity:1"
           ry="1.5751116" />
        <text
           xml:space="preserve"
           transform="matrix(0.53875344,0,0,0.53875344,-125.27708,336.74279)"
           id="text27183-1-1-4"
           style="font-style:normal;font-weight:normal;font-size:21.3333px;line-height:1.25;font-family:sans-serif;white-space:pre;shape-inside:url(#rect27185-7-8-6);fill:#000000;fill-opacity:1;stroke:none"><tspan
             x="1443.0723"
             y="58.857392"
             id="tspan40059">Conversion</tspan></text>
        <rect
           id="rect18643-9-5-2"
           width="29.16246"
           height="8.8964348"
           x="611.72028"
           y="374.60889"
           style="fill:#2ad4ff;fill-opacity:1;stroke:none;stroke-width:0.365162;stroke-miterlimit:4;stroke-dasharray:none;stroke-opacity:1"
           ry="1.5751116" />
        <text
           xml:space="preserve"
           transform="matrix(0.53875344,0,0,0.53875344,-125.27707,351.47333)"
           id="text27183-2-2-3"
           style="font-style:normal;font-weight:normal;font-size:21.3333px;line-height:1.25;font-family:sans-serif;white-space:pre;shape-inside:url(#rect27185-4-5-0);fill:#000000;fill-opacity:1;stroke:none"><tspan
             x="1443.0723"
             y="58.857392"
             id="tspan40061">Activation</tspan></text>
      </g>
    </g>
  </g>
  <path
     fill="#50e281"
     stroke="none"
     paint-order="stroke fill markers"
     d="m 1123.3242,247.95763 2.8075,1.54828 2.6771,1.76425 2.5303,1.96899 2.368,2.16139 2.1912,2.34065 2.0009,2.50525 1.7982,2.65427 1.5842,2.78752 1.3607,2.90318 1.1289,3.0007 0.8896,3.08027 0.6453,3.14067 0.3971,3.1815 0.1463,3.20279 -0.106,3.2044 -0.3567,3.18628 -0.6056,3.14852 -0.8507,3.09108 -1.0907,3.01514 -1.3239,2.92009 -1.5487,2.80707 -1.7644,2.67722 -1.9689,2.53022 -2.1614,2.36817 -2.3406,2.19121 -2.5052,2.00081 -2.6545,1.79803 -2.7874,1.58428 -2.9031,1.36084 -3.001,1.12878 -3.0801,0.8896 -3.1406,0.64548 -3.1815,0.39712 -3.2028,0.14592 -3.2044,-0.10553 -3.1863,-0.35657 -3.1485,-0.60558 -3.0912,-0.85066 -3.015,-1.09073 -2.9199,-1.32441 -2.8074,-1.54828 -2.6772,-1.76423 -2.5303,-1.96901 -2.368,-2.1614 -2.1912,-2.34064 -2.0009,-2.50525 -1.7982,-2.65426 -1.5842,-2.78752 -1.3607,-2.90319 -1.1287,-3.0007 -0.8898,-3.08026 -0.6453,-3.14069 -0.3971,-3.18148 -0.1461,-3.20279 0.1059,-3.20441 0.3567,-3.18628 0.6057,-3.14852 0.8505,-3.09109 1.0907,-3.01513 1.324,-2.91984 1.5487,-2.80731 1.7644,-2.67724 1.9689,-2.53021 2.1614,-2.36816 2.3405,-2.19121 2.5052,-2.00082 2.6546,-1.79803 2.7873,-1.5843 2.9032,-1.36083 3.001,-1.12878 3.08,-0.88959 3.1407,-0.64548 3.1814,-0.39712 3.2029,-0.14593 3.2044,0.10558 3.1863,0.35656 3.1485,0.60558 3.0913,0.85066 3.0149,1.09073 z"
     fill-opacity="1"
     id="path100-1"
     style="fill:#a07be9;fill-opacity:1;stroke-width:2.72219" />
  <text
     fill="#000000"
     stroke="none"
     font-family="'Helvetica Neue', Helvetica, sans-serif"
     font-size="21.7774px"
     font-style="normal"
     font-weight="normal"
     text-decoration="normal"
     x="1113.2203"
     y="248.99524"
     text-anchor="middle"
     dominant-baseline="text-after-edge"
     fill-opacity="1"
     id="text126-3"
     transform="rotate(0.06434463)"
     style="font-size:32px;stroke-width:2.72219">arabinose</text>
  <rect
     id="rect18643-7-1-9-6-54-2"
     width="83.38842"
     height="25.438858"
     x="2263.9924"
     y="269.25604"
     style="fill:#50e281;fill-opacity:1;stroke:none;stroke-width:1.04416;stroke-miterlimit:4;stroke-dasharray:none;stroke-opacity:1"
     ry="4.5039434" />
  <text
     xml:space="preserve"
     transform="matrix(1.5405354,0,0,1.5405354,158.56385,203.10058)"
     id="text27183-1-7-8-9-76-0"
     style="font-style:normal;font-weight:normal;font-size:21.3333px;line-height:1.25;font-family:sans-serif;white-space:pre;shape-inside:url(#rect27185-7-6-9-5-35-9);fill:#000000;fill-opacity:1;stroke:none"><tspan
       x="1443.0723"
       y="58.857392"
       id="tspan40063">Promoter</tspan></text>
  <rect
     id="rect18643-7-1-9-6-6-2-6"
     width="83.38842"
     height="25.438858"
     x="2262.2378"
     y="307.43152"
     style="fill:#2ad4ff;fill-opacity:1;stroke:none;stroke-width:1.04416;stroke-miterlimit:4;stroke-dasharray:none;stroke-opacity:1"
     ry="4.5039434" />
  <text
     xml:space="preserve"
     transform="matrix(1.5405354,0,0,1.5405354,156.81236,241.27606)"
     id="text27183-1-7-8-9-7-9-8"
     style="font-style:normal;font-weight:normal;font-size:21.3333px;line-height:1.25;font-family:sans-serif;white-space:pre;shape-inside:url(#rect27185-7-6-9-5-3-3-1-4);fill:#000000;fill-opacity:1;stroke:none"><tspan
       x="1443.0723"
       y="58.857392"
       id="tspan40065">Complex</tspan></text>
  <rect
     id="rect18643-9-5-7-8"
     width="83.38842"
     height="25.438858"
     x="2261.1853"
     y="536.54443"
     style="fill:#fa8072;fill-opacity:1;stroke:none;stroke-width:1.04416;stroke-miterlimit:4;stroke-dasharray:none;stroke-opacity:1"
     ry="4.5039434" />
  <text
     xml:space="preserve"
     transform="matrix(1.5405354,0,0,1.5405354,153.75677,470.38912)"
     id="text27183-2-2-4-4"
     style="font-style:normal;font-weight:normal;font-size:21.3333px;line-height:1.25;font-family:sans-serif;white-space:pre;shape-inside:url(#rect27185-4-5-2-6);fill:#000000;fill-opacity:1;stroke:none"><tspan
       x="1443.0723"
       y="58.857392"
       id="tspan40067">Repression</tspan></text>
  <rect
     id="rect18643-9-5-2-5-3"
     width="83.38842"
     height="25.438858"
     x="2262.1338"
     y="578.00165"
     style="fill:#ec78e7;fill-opacity:1;stroke:none;stroke-width:1.04416;stroke-miterlimit:4;stroke-dasharray:none;stroke-opacity:1"
     ry="4.5039434" />
  <text
     xml:space="preserve"
     transform="matrix(1.5405354,0,0,1.5405354,154.70526,511.84643)"
     id="text27183-2-2-3-4-1"
     style="font-style:normal;font-weight:normal;font-size:21.3333px;line-height:1.25;font-family:sans-serif;white-space:pre;shape-inside:url(#rect27185-4-5-0-0-8);fill:#000000;fill-opacity:1;stroke:none"><tspan
       x="1443.0723"
       y="58.857392"
       id="tspan40069">Bind</tspan></text>
  <text
     xml:space="preserve"
     id="text7944"
     style="font-size:37.3333px;line-height:1.25;font-family:sans-serif;white-space:pre;shape-inside:url(#rect7946)"
     transform="translate(1126.241,186.73987)" />
  <text
     xml:space="preserve"
     style="font-size:48px;line-height:1.25;font-family:sans-serif"
     x="23.679785"
     y="54.02763"
     id="text3488"><tspan
       sodipodi:role="line"
       id="tspan3486"
       x="23.679785"
       y="54.02763"
       style="font-size:48px">Arabinose Metabolic Pathway</tspan></text>
  <text
     xml:space="preserve"
     style="font-size:48px;line-height:1.25;font-family:sans-serif"
     x="1129.0298"
     y="49.035679"
     id="text3488-6"><tspan
       sodipodi:role="line"
       id="tspan3486-7"
       x="1129.0298"
       y="49.035679"
       style="font-size:48px">NOR</tspan></text>
  <path
     style="fill:none;stroke:#000000;stroke-width:6.09691;stroke-linecap:butt;stroke-linejoin:miter;stroke-miterlimit:4;stroke-dasharray:6.09691, 18.2907;stroke-dashoffset:0;stroke-opacity:1"
     d="M 1103.8682,1.2024716e-4 C 1103.803,1652.9228 1103.803,1652.9228 1103.803,1652.9228"
     id="path8702" />
  <path
     fill="none"
     stroke="#50e2e2"
     paint-order="fill stroke markers"
     d="m 1221.2247,820.82569 211.847,-216.65826"
     stroke-opacity="1"
     stroke-linejoin="round"
     stroke-miterlimit="10"
     stroke-width="4.21145"
     id="path4-36"
     style="stroke:#fa8072;stroke-width:10.1683;stroke-miterlimit:10;stroke-dasharray:none;stroke-opacity:1" />
  <path
     fill="none"
     stroke="#e28150"
     paint-order="fill stroke markers"
     d="m 1192.327,801.61072 0.1695,-295.04148"
     stroke-opacity="1"
     stroke-linejoin="round"
     stroke-miterlimit="10"
     stroke-width="3.39797"
     id="path8-7"
     style="stroke:#a07be9;stroke-width:10.1683;stroke-miterlimit:10;stroke-dasharray:none;stroke-opacity:1" />
  <path
     fill="none"
     stroke="#e2e250"
     paint-order="fill stroke markers"
     d="m 1496.8393,593.44506 147.6584,56.44097"
     stroke-opacity="1"
     stroke-linejoin="round"
     stroke-miterlimit="10"
     stroke-width="3.38063"
     id="path12-2-5"
     style="stroke:#2ad4ff;stroke-width:10.1683;stroke-miterlimit:10;stroke-dasharray:none;stroke-opacity:1" />
  <path
     fill="none"
     stroke="#e2e250"
     paint-order="fill stroke markers"
     d="m 1714.7528,649.85413 147.12,-59.14733"
     stroke-opacity="1"
     stroke-linejoin="round"
     stroke-miterlimit="10"
     stroke-width="2.59786"
     id="path12-5-8-3"
     style="stroke:#2ad4ff;stroke-width:10.1683;stroke-miterlimit:10;stroke-dasharray:none;stroke-opacity:1" />
  <path
     fill="none"
     stroke="#81e250"
     paint-order="fill stroke markers"
     d="m 2167.9968,1028.5982 0.84,-149.54059"
     stroke-opacity="1"
     stroke-linejoin="round"
     stroke-miterlimit="10"
     stroke-width="2.36496"
     id="path16-5"
     style="stroke:#e2e250;stroke-width:10.1683;stroke-miterlimit:10;stroke-dasharray:none;stroke-opacity:1" />
  <path
     fill="none"
     stroke="#e28150"
     paint-order="fill stroke markers"
     d="m 2167.8823,803.45752 0.4554,-296.97759"
     stroke-opacity="1"
     stroke-linejoin="round"
     stroke-miterlimit="10"
     stroke-width="3.38445"
     id="path20-62"
     style="stroke:#a07be9;stroke-width:10.1683;stroke-miterlimit:10;stroke-dasharray:none;stroke-opacity:1" />
  <path
     fill="none"
     stroke="#50e2e2"
     paint-order="fill stroke markers"
     d="M 2139.6,809.94071 1912.341,587.43057"
     stroke-opacity="1"
     stroke-linejoin="round"
     stroke-miterlimit="10"
     stroke-width="4.24081"
     id="path24-9"
     style="stroke:#fa8072;stroke-width:10.1683;stroke-miterlimit:10;stroke-dasharray:none;stroke-opacity:1" />
  <path
     fill="none"
     stroke="#50e2e2"
     paint-order="fill stroke markers"
     d="m 1679.3062,882.44446 -0.5139,300.82904"
     stroke-opacity="1"
     stroke-linejoin="round"
     stroke-miterlimit="10"
     stroke-width="3.55412"
     id="path32-1"
     style="stroke:#fa8072;stroke-width:10.1683;stroke-miterlimit:10;stroke-dasharray:none;stroke-opacity:1" />
  <path
     fill="none"
     stroke="#e2e250"
     paint-order="fill stroke markers"
     d="M 1638.8615,1207.6065 1222.6677,1074.2616"
     stroke-opacity="1"
     stroke-linejoin="round"
     stroke-miterlimit="10"
     stroke-width="6.26648"
     id="path36-2"
     style="stroke:#2ad4ff;stroke-width:10.1683;stroke-miterlimit:10;stroke-dasharray:none;stroke-opacity:1" />
  <path
     fill="none"
     stroke="#e2e250"
     paint-order="fill stroke markers"
     d="m 1717.9448,1208.5791 416.9066,-135.0883"
     stroke-opacity="1"
     stroke-linejoin="round"
     stroke-miterlimit="10"
     stroke-width="6.81826"
     id="path40-7"
     style="stroke:#2ad4ff;stroke-width:10.1683;stroke-miterlimit:10;stroke-dasharray:none;stroke-opacity:1" />
  <path
     fill="none"
     stroke="#e2e250"
     paint-order="fill stroke markers"
     d="m 1677.8438,1178.6468 -2.5894,227.0416"
     stroke-opacity="1"
     stroke-linejoin="round"
     stroke-miterlimit="10"
     stroke-width="3"
     id="path44-0"
     style="stroke:#2ad4ff;stroke-width:10.1683;stroke-miterlimit:10;stroke-dasharray:none;stroke-opacity:1" />
  <path
     fill="none"
     stroke="#e28150"
     paint-order="fill stroke markers"
     d="m 2165.5065,251.7429 0.027,238.17988"
     stroke-opacity="1"
     stroke-linejoin="round"
     stroke-miterlimit="10"
     stroke-width="3"
     id="path48-93"
     style="stroke:#a07be9;stroke-width:10.1683;stroke-miterlimit:10;stroke-dasharray:none;stroke-opacity:1" />
  <path
     fill="#e28150"
     stroke="none"
     paint-order="stroke fill markers"
     d="m 2152.0976,384.82427 13.7224,26.04522 13.4241,-26.18452 z"
     fill-opacity="1"
     id="path50-6"
     style="fill:#a07be9;fill-opacity:1;stroke-width:3.06044" />
  <path
     fill="#e28150"
     stroke="none"
     paint-order="stroke fill markers"
     d="m 1662.6964,1301.8157 13.6526,26.0816 13.4941,-26.1481 z"
     fill-opacity="1"
     id="path50-36-0"
     style="fill:#2ad4ff;fill-opacity:1;stroke-width:3.06044" />
  <path
     fill="#e28150"
     stroke="none"
     paint-order="stroke fill markers"
     d="m 1665.294,999.29314 13.5708,26.12436 13.5758,-26.10596 z"
     fill-opacity="1"
     id="path50-36-2-62"
     style="fill:#fa8072;fill-opacity:1;stroke-width:3.06044" />
  <path
     fill="#e28150"
     stroke="none"
     paint-order="stroke fill markers"
     d="m 1665.2913,751.09223 13.7529,26.02892 13.3932,-26.19994 z"
     fill-opacity="1"
     id="path50-36-2-6-6"
     style="fill:#e2e250;fill-opacity:1;stroke-width:3.06044" />
  <path
     fill="#e28150"
     stroke="none"
     paint-order="stroke fill markers"
     d="m 1659.6523,1475.5261 13.7797,26.0147 13.3663,-26.2136 z"
     fill-opacity="1"
     id="path50-36-6-1"
     style="fill:#e2e250;fill-opacity:1;stroke-width:3.06044" />
  <path
     fill="#e28150"
     stroke="none"
     paint-order="stroke fill markers"
     d="m 2181.7366,666.71328 -13.3441,-26.24088 -13.8013,25.98753 z"
     fill-opacity="1"
     id="path50-5-8"
     style="fill:#a07be9;fill-opacity:1;stroke-width:3.06044" />
  <path
     fill="#e28150"
     stroke="none"
     paint-order="stroke fill markers"
     d="m 2182.1731,962.15208 -13.3442,-26.24087 -13.8013,25.98743 z"
     fill-opacity="1"
     id="path50-5-2-7"
     style="fill:#e2e250;fill-opacity:1;stroke-width:3.06044" />
  <path
     fill="#e28150"
     stroke="none"
     paint-order="stroke fill markers"
     d="m 1128.6603,356.49057 23.9697,17.09094 0.2137,-29.42417 z"
     fill-opacity="1"
     id="path50-2-9"
     style="fill:#a07be9;fill-opacity:1;stroke-width:3.06044" />
  <path
     fill="#e28150"
     stroke="none"
     paint-order="stroke fill markers"
     d="m 1205.7565,657.53446 -13.3442,-26.24079 -13.8013,25.98744 z"
     fill-opacity="1"
     id="path50-5-7-2"
     style="fill:#a07be9;fill-opacity:1;stroke-width:3.06044" />
  <path
     fill="#e28150"
     stroke="none"
     paint-order="stroke fill markers"
     d="m 1345.8824,712.80482 10.2473,-27.59792 -28.4613,7.46863 z"
     fill-opacity="1"
     id="path50-5-7-1-0"
     style="fill:#fa8072;fill-opacity:1;stroke-width:3.06044" />
  <path
     fill="#e28150"
     stroke="none"
     paint-order="stroke fill markers"
     d="m 1313.7917,535.45336 29.4377,-0.27055 -17.1292,-23.9253 z"
     fill-opacity="1"
     id="path50-5-7-1-8-2"
     style="fill:#2ad4ff;fill-opacity:1;stroke-width:3.06044" />
  <path
     fill="#e28150"
     stroke="none"
     paint-order="stroke fill markers"
     d="m 1541.4222,624.16842 29.3973,-1.56041 -18.1614,-23.15142 z"
     fill-opacity="1"
     id="path50-5-7-1-8-7-3"
     style="fill:#2ad4ff;fill-opacity:1;stroke-width:3.06044" />
  <path
     fill="#e28150"
     stroke="none"
     paint-order="stroke fill markers"
     d="m 1206.3559,952.80592 -13.6295,-26.09369 -13.5171,26.13623 z"
     fill-opacity="1"
     id="path50-5-2-0-7"
     style="fill:#e2e250;fill-opacity:1;stroke-width:3.06044" />
  <path
     fill="#e28150"
     stroke="none"
     paint-order="stroke fill markers"
     d="m 1960.4831,1143.7193 22.0489,-19.5064 -28.6206,-6.8329 z"
     fill-opacity="1"
     id="path50-5-2-1-5"
     style="fill:#2ad4ff;fill-opacity:1;stroke-width:3.06044" />
  <path
     fill="#e28150"
     stroke="none"
     paint-order="stroke fill markers"
     d="m 1382.65,1111.4888 -28.8576,5.8215 21.3366,20.2624 z"
     fill-opacity="1"
     id="path50-5-2-1-9-9"
     style="fill:#2ad4ff;fill-opacity:1;stroke-width:3.06044" />
  <path
     fill="#e28150"
     stroke="none"
     paint-order="stroke fill markers"
     d="m 2043.9495,696.02594 -28.7117,-6.50317 11.171,27.22201 z"
     fill-opacity="1"
     id="path50-5-6-2"
     style="fill:#fa8072;fill-opacity:1;stroke-width:3.06044" />
  <path
     fill="#e28150"
     stroke="none"
     paint-order="stroke fill markers"
     d="m 2038.1653,503.12147 -17.5811,23.61274 29.4135,0.81978 z"
     fill-opacity="1"
     id="path50-3-2"
     style="fill:#2ad4ff;fill-opacity:1;stroke-width:3.06044" />
  <path
     fill="#e28150"
     stroke="none"
     paint-order="stroke fill markers"
     d="m 1801.6837,600.0689 -16.9346,24.08017 29.425,0.0216 z"
     fill-opacity="1"
     id="path50-3-9-8"
     style="fill:#2ad4ff;fill-opacity:1;stroke-width:3.06044" />
  <path
     fill="none"
     stroke="#81e250"
     paint-order="fill stroke markers"
     d="m 1192.6581,1028.3512 0.181,-204.86555"
     stroke-opacity="1"
     stroke-linejoin="round"
     stroke-miterlimit="10"
     stroke-width="2.75442"
     id="path56-9"
     style="stroke:#e2e250;stroke-width:10.1683;stroke-miterlimit:10;stroke-dasharray:none;stroke-opacity:1" />
  <path
     fill="none"
     stroke="#81e250"
     paint-order="fill stroke markers"
     d="m 1673.4569,1400.4892 -0.538,144.6769"
     stroke-opacity="1"
     stroke-linejoin="round"
     stroke-miterlimit="10"
     stroke-width="2.51715"
     id="path60-7"
     style="stroke:#e2e250;stroke-width:10.1683;stroke-miterlimit:10;stroke-dasharray:none;stroke-opacity:1" />
  <path
     fill="none"
     stroke="#81e250"
     paint-order="fill stroke markers"
     d="m 1678.8428,708.82947 -0.019,95.84488"
     stroke-opacity="1"
     stroke-linejoin="round"
     stroke-miterlimit="10"
     stroke-width="1.93707"
     id="path64-3"
     style="stroke:#e2e250;stroke-width:10.1683;stroke-miterlimit:10;stroke-dasharray:none;stroke-opacity:1" />
  <path
     fill="none"
     stroke="#e28150"
     paint-order="fill stroke markers"
     d="m 1118.4552,302.43442 62.5752,139.06618"
     stroke-opacity="1"
     stroke-linejoin="round"
     stroke-miterlimit="10"
     stroke-width="3"
     id="path68-6"
     style="stroke:#a07be9;stroke-width:9;stroke-miterlimit:10;stroke-dasharray:none;stroke-opacity:1" />
  <path
     fill="#8150e2"
     stroke="none"
     paint-order="stroke fill markers"
     d="m 1691.3053,1549.4575 2.7803,1.5339 2.6512,1.7473 2.506,1.9498 2.3453,2.1406 2.17,2.3181 1.9816,2.4811 1.7808,2.6289 1.569,2.7605 1.3477,2.8751 1.1178,2.9721 0.8813,3.0505 0.6391,3.1102 0.3931,3.1509 0.1447,3.1719 -0.1047,3.1736 -0.3533,3.1557 -0.5997,3.1181 -0.8426,3.0615 -1.08,2.9859 -1.3112,2.8918 -1.5339,2.7803 -1.7472,2.6513 -1.9501,2.5058 -2.1405,2.3454 -2.318,2.17 -2.4813,1.9817 -2.6288,1.7807 -2.7605,1.569 -2.8752,1.3477 -2.972,1.1178 -3.0505,0.8813 -3.1103,0.6391 -3.1509,0.3931 -3.1719,0.1448 -3.1735,-0.1047 -3.1556,-0.3533 -3.1182,-0.5997 -3.0614,-0.8426 -2.9858,-1.0801 -2.8921,-1.3112 -2.7801,-1.5338 -2.6513,-1.7473 -2.506,-1.95 -2.3454,-2.1405 -2.17,-2.3181 -1.9815,-2.4811 -1.7808,-2.6288 -1.569,-2.7606 -1.3476,-2.8752 -1.1178,-2.9719 -0.8814,-3.0505 -0.6392,-3.1102 -0.3931,-3.151 -0.1445,-3.1721 0.1046,-3.1734 0.3533,-3.1556 0.5998,-3.1182 0.8425,-3.0615 1.0801,-2.9857 1.3111,-2.892 1.5338,-2.7802 1.7475,-2.6513 1.9499,-2.506 2.1406,-2.3454 2.3179,-2.17 2.4813,-1.9815 2.629,-1.7809 2.7603,-1.5689 2.8751,-1.3477 2.9721,-1.1177 3.0504,-0.8814 3.1103,-0.6391 3.1509,-0.3931 3.1721,-0.1448 3.1735,0.1046 3.1555,0.3533 3.1182,0.5999 3.0614,0.8425 2.986,1.0801 z"
     fill-opacity="1"
     id="path76-1"
     style="fill:#fa8072;fill-opacity:1;stroke-width:2.69595" />
  <text
     fill="#000000"
     stroke="none"
     font-family="'Helvetica Neue', Helvetica, sans-serif"
     font-size="8px"
     font-style="normal"
     font-weight="normal"
     text-decoration="normal"
     x="1703.9711"
     y="1558.818"
     text-anchor="middle"
     dominant-baseline="text-after-edge"
     fill-opacity="1"
     id="text78-29"
     transform="rotate(-0.30912039)"
     style="font-size:32.2846px;stroke-width:2.69595">YFP</text>
  <path
     fill="#8d5235"
     stroke="none"
     paint-order="stroke fill markers"
     d="m 1692.9241,1366.9317 2.7802,1.5338 2.6512,1.7474 2.5061,1.95 2.3453,2.1405 2.1699,2.3181 1.9817,2.4811 1.7807,2.6288 1.5692,2.7605 1.3474,2.8752 1.118,2.972 0.8812,3.0505 0.639,3.1103 0.3934,3.1509 0.1448,3.172 -0.1047,3.1735 -0.3533,3.1556 -0.5998,3.118 -0.8425,3.0616 -1.0803,2.9859 -1.3111,2.8919 -1.5338,2.7802 -1.7473,2.6512 -1.9499,2.5062 -2.1406,2.3451 -2.318,2.17 -2.4812,1.9816 -2.6287,1.781 -2.7607,1.5689 -2.8751,1.3477 -2.9721,1.1177 -3.0505,0.8814 -3.1103,0.6392 -3.1507,0.393 -3.1721,0.1447 -3.1736,-0.1047 -3.1556,-0.3533 -3.118,-0.5997 -3.0614,-0.8425 -2.986,-1.0802 -2.8918,-1.3111 -2.7803,-1.5339 -2.6512,-1.7472 -2.506,-1.95 -2.3454,-2.1406 -2.1701,-2.3181 -1.9815,-2.4811 -1.7808,-2.6289 -1.569,-2.7604 -1.3476,-2.8752 -1.1178,-2.9721 -0.8813,-3.0504 -0.6391,-3.1103 -0.3932,-3.1507 -0.1448,-3.1721 0.1047,-3.1735 0.3532,-3.1555 0.5998,-3.1182 0.8426,-3.0616 1.0801,-2.9859 1.3112,-2.892 1.5337,-2.7801 1.7473,-2.6512 1.95,-2.5061 2.1407,-2.3452 2.318,-2.1702 2.481,-1.9814 2.6288,-1.7809 2.7607,-1.5691 2.875,-1.3474 2.9721,-1.1178 3.0505,-0.8814 3.1102,-0.6392 3.1509,-0.3931 3.172,-0.1447 3.1736,0.1047 3.1556,0.3531 3.1181,0.5999 3.0615,0.8424 2.986,1.0801 z"
     fill-opacity="1"
     id="path80-3"
     style="fill:#e2e250;fill-opacity:1;stroke-width:2.69595" />
  <text
     fill="#000000"
     stroke="none"
     font-family="'Helvetica Neue', Helvetica, sans-serif"
     font-size="8px"
     font-style="normal"
     font-weight="normal"
     text-decoration="normal"
     x="1694.4902"
     y="1375.6932"
     text-anchor="middle"
     dominant-baseline="text-after-edge"
     fill-opacity="1"
     id="text82-1"
     transform="rotate(-0.36787236)"
     style="font-size:32.2846px;stroke-width:2.69595">yfp</text>
  <path
     fill="#8150e2"
     stroke="none"
     paint-order="stroke fill markers"
     d="m 1210.7132,803.38971 2.7805,1.53342 2.6513,1.74737 2.5061,1.94991 2.3452,2.14055 2.17,2.31802 1.9817,2.48106 1.7806,2.62897 1.5693,2.76047 1.3473,2.87516 1.1178,2.97208 0.8814,3.05065 0.6391,3.11005 0.3932,3.15088 0.1448,3.17195 -0.1047,3.17356 -0.3533,3.15556 -0.5999,3.11811 -0.8425,3.06157 -1.0802,2.98588 -1.3111,2.8919 -1.5338,2.78032 -1.7474,2.6512 -1.95,2.50614 -2.1405,2.34507 -2.3178,2.17021 -2.4813,1.98145 -2.6289,1.78104 -2.7605,1.5689 -2.8752,1.34746 -2.9721,1.11793 -3.0504,0.88126 -3.1102,0.63901 -3.151,0.39327 -3.1721,0.14478 -3.1735,-0.1049 -3.1553,-0.35341 -3.1182,-0.59969 -3.0615,-0.84246 -2.9859,-1.08021 -2.8917,-1.3117 -2.7804,-1.53336 -2.6513,-1.74727 -2.5061,-1.94999 -2.3453,-2.14065 -2.1701,-2.31775 -1.9815,-2.48115 -1.781,-2.62897 -1.5688,-2.76062 -1.3477,-2.87506 -1.1179,-2.9719 -0.8811,-3.05065 -0.6392,-3.11022 -0.3932,-3.1509 -0.1447,-3.17204 0.1047,-3.17356 0.3532,-3.15554 0.5996,-3.11802 0.8427,-3.06158 1.08,-2.98578 1.3111,-2.892 1.5339,-2.78027 1.7473,-2.65119 1.9501,-2.50615 2.1405,-2.34516 2.318,-2.17021 2.4811,-1.98145 2.629,-1.78077 2.7606,-1.569 2.8751,-1.34754 2.972,-1.11785 3.0506,-0.88133 3.1103,-0.6393 3.1508,-0.393 3.172,-0.14477 3.1735,0.10489 3.1557,0.35315 3.118,0.59968 3.0616,0.84274 2.9858,1.07994 z"
     fill-opacity="1"
     id="path84-94"
     style="fill:#fa8072;fill-opacity:1;stroke-width:2.69595" />
  <text
     fill="#000000"
     stroke="none"
     font-family="'Helvetica Neue', Helvetica, sans-serif"
     font-size="8px"
     font-style="normal"
     font-weight="normal"
     text-decoration="normal"
     x="2129.6633"
     y="893.11664"
     text-anchor="middle"
     dominant-baseline="text-after-edge"
     fill-opacity="1"
     id="text86-78"
     transform="rotate(0.48668666)"
     style="font-size:32.2846px;stroke-width:2.69595">TetR</text>
  <path
     fill="#8150e2"
     stroke="none"
     paint-order="stroke fill markers"
     d="m 1697.1803,805.8594 2.7806,1.53333 2.6512,1.74727 2.506,1.95001 2.3453,2.14063 2.1702,2.31803 1.9813,2.48105 1.7808,2.62907 1.5691,2.7603 1.3475,2.87524 1.118,2.97208 0.8812,3.0503 0.6392,3.11039 0.3933,3.15081 0.1447,3.17194 -0.1047,3.17357 -0.3532,3.15554 -0.5997,3.1182 -0.8425,3.0614 -1.0802,2.98606 -1.3111,2.89194 -1.5338,2.78011 -1.7474,2.65136 -1.9499,2.50579 -2.1405,2.34535 -2.3181,2.17019 -2.4812,1.98145 -2.6288,1.78078 -2.7606,1.56909 -2.8751,1.34771 -2.972,1.11785 -3.0505,0.88099 -3.1104,0.63918 -3.1509,0.39338 -3.1719,0.14467 -3.1734,-0.1049 -3.1558,-0.35305 -3.1182,-0.59968 -3.0613,-0.84256 -2.9858,-1.08011 -2.8917,-1.31171 -2.7804,-1.53343 -2.6513,-1.74728 -2.5062,-1.95 -2.3452,-2.14055 -2.1699,-2.31803 -1.9817,-2.48096 -1.7808,-2.62888 -1.569,-2.76059 -1.3476,-2.87527 -1.1178,-2.97182 -0.8813,-3.05064 -0.639,-3.11032 -0.3933,-3.15097 -0.1448,-3.17186 0.1047,-3.17357 0.3534,-3.15555 0.5998,-3.1181 0.8423,-3.06141 1.0803,-2.98604 1.3111,-2.89181 1.5338,-2.7802 1.7475,-2.65137 1.9498,-2.50587 2.1406,-2.34534 2.3181,-2.17021 2.4811,-1.98146 2.6288,-1.78076 2.7605,-1.569 2.8753,-1.34772 2.9718,-1.11759 3.0505,-0.88123 3.1104,-0.63937 3.1509,-0.39293 3.1718,-0.14495 3.1737,0.10501 3.1555,0.35305 3.1182,0.59969 3.0615,0.84255 2.9859,1.08012 z"
     fill-opacity="1"
     id="path88-4"
     style="fill:#fa8072;fill-opacity:1;stroke-width:2.69595" />
  <text
     fill="#000000"
     stroke="none"
     font-family="'Helvetica Neue', Helvetica, sans-serif"
     font-size="8px"
     font-style="normal"
     font-weight="normal"
     text-decoration="normal"
     x="1690.6549"
     y="824.6261"
     text-anchor="middle"
     dominant-baseline="text-after-edge"
     fill-opacity="1"
     id="text90-5"
     transform="rotate(-0.63528938)"
     style="font-size:32.2846px;stroke-width:2.69595">CI</text>
  <path
     fill="#81e250"
     stroke="none"
     paint-order="stroke fill markers"
     d="m 2186.2137,432.24042 2.7805,1.53334 2.6511,1.74745 2.5062,1.94982 2.3452,2.14064 2.1701,2.31802 1.9816,2.48107 1.7806,2.62905 1.5691,2.76032 1.3477,2.87523 1.1177,2.97208 0.8811,3.05056 0.6393,3.11013 0.3932,3.1508 0.1448,3.17205 -0.1047,3.17355 -0.3533,3.15555 -0.5997,3.11811 -0.8426,3.06157 -1.0802,2.98589 -1.311,2.8919 -1.5339,2.78019 -1.7475,2.65127 -1.9499,2.50606 -2.1405,2.34508 -2.3178,2.1702 -2.4813,1.98145 -2.629,1.78104 -2.7605,1.56891 -2.875,1.34764 -2.9722,1.11783 -3.0504,0.88126 -3.1102,0.63892 -3.1508,0.39337 -3.1721,0.14477 -3.1736,-0.1049 -3.1554,-0.35341 -3.1183,-0.59968 -3.0614,-0.84245 -2.9859,-1.08023 -2.8916,-1.31171 -2.7806,-1.53343 -2.6511,-1.74718 -2.5061,-1.95001 -2.3453,-2.14063 -2.17,-2.31776 -1.9817,-2.48124 -1.7808,-2.62888 -1.5689,-2.76057 -1.3477,-2.87506 -1.118,-2.972 -0.881,-3.05065 -0.6392,-3.11012 -0.3933,-3.1509 -0.1447,-3.17212 0.1047,-3.17356 0.3532,-3.15556 0.5996,-3.11801 0.8425,-3.06149 1.0802,-2.98579 1.3114,-2.89199 1.5336,-2.78028 1.7473,-2.65128 1.9501,-2.50588 2.1405,-2.34534 2.318,-2.17019 2.481,-1.98154 2.6289,-1.7807 2.7608,-1.56908 2.875,-1.34745 2.972,-1.11784 3.0506,-0.88126 3.1103,-0.63937 3.1507,-0.3931 3.172,-0.14467 3.1735,0.10489 3.1558,0.35314 3.118,0.59969 3.0614,0.84273 2.986,1.07996 z"
     fill-opacity="1"
     id="path92-0"
     style="fill:#2ad4ff;fill-opacity:0.999275;stroke-width:2.69595" />
  <text
     fill="#000000"
     stroke="none"
     font-family="'Helvetica Neue', Helvetica, sans-serif"
     font-size="8px"
     font-style="normal"
     font-weight="normal"
     text-decoration="normal"
     x="1267.9788"
     y="426.25766"
     text-anchor="middle"
     dominant-baseline="text-after-edge"
     fill-opacity="1"
     id="text94-3"
     transform="rotate(0.1861766)"
     style="font-size:32.2846px;stroke-width:2.69595">Ara-arac</text>
  <path
     fill="#8d5235"
     stroke="none"
     paint-order="stroke fill markers"
     d="m 2185.719,1031.0501 2.7805,1.5334 2.6514,1.7473 2.5059,1.9499 2.3452,2.1407 2.1702,2.3178 1.9817,2.481 1.7807,2.629 1.569,2.7607 1.3477,2.875 1.1179,2.972 0.881,3.0505 0.6392,3.1103 0.3933,3.1508 0.1445,3.1723 -0.1047,3.1734 -0.3531,3.1557 -0.5998,3.1178 -0.8424,3.0616 -1.0801,2.986 -1.3114,2.8918 -1.5336,2.7802 -1.7475,2.6514 -1.95,2.506 -2.1407,2.3453 -2.3178,2.17 -2.4811,1.9816 -2.6288,1.7806 -2.7607,1.5692 -2.875,1.3473 -2.9722,1.1181 -3.0504,0.8811 -3.1103,0.6394 -3.1508,0.3931 -3.1722,0.1447 -3.1736,-0.1047 -3.1554,-0.3532 -3.1181,-0.5998 -3.0614,-0.8426 -2.9861,-1.0801 -2.8917,-1.3115 -2.7803,-1.5334 -2.6513,-1.7475 -2.5059,-1.9497 -2.3455,-2.1407 -2.1699,-2.3181 -1.9816,-2.4812 -1.7807,-2.6288 -1.569,-2.7606 -1.3477,-2.8751 -1.1178,-2.9721 -0.8811,-3.0505 -0.6393,-3.1102 -0.3931,-3.1509 -0.1449,-3.1718 0.1047,-3.1735 0.3532,-3.1557 0.5997,-3.1181 0.8426,-3.0616 1.0801,-2.9857 1.3112,-2.8921 1.5338,-2.7803 1.7473,-2.6511 1.9501,-2.5061 2.1406,-2.345 2.3178,-2.1703 2.4811,-1.9813 2.6291,-1.7811 2.7606,-1.5689 2.875,-1.3475 2.9721,-1.1181 3.0505,-0.8812 3.1102,-0.639 3.1508,-0.3933 3.1719,-0.1447 3.1737,0.1047 3.1555,0.3533 3.1182,0.5999 3.0615,0.8424 2.9858,1.0803 z"
     fill-opacity="1"
     id="path96-6"
     style="fill:#e2e250;fill-opacity:1;stroke-width:2.69595" />
  <text
     fill="#000000"
     stroke="none"
     font-family="'Helvetica Neue', Helvetica, sans-serif"
     font-size="8px"
     font-style="normal"
     font-weight="normal"
     text-decoration="normal"
     x="2127.0486"
     y="1012.666"
     text-anchor="middle"
     dominant-baseline="text-after-edge"
     fill-opacity="1"
     id="text98-1"
     transform="rotate(0.48085464)"
     style="font-size:32.2846px;stroke-width:2.69595">tetR</text>
  <text
     fill="#000000"
     stroke="none"
     font-family="'Helvetica Neue', Helvetica, sans-serif"
     font-size="8px"
     font-style="normal"
     font-weight="normal"
     text-decoration="normal"
     x="2165.5952"
     y="252.2121"
     text-anchor="middle"
     dominant-baseline="text-after-edge"
     fill-opacity="1"
     id="text102-6"
     transform="rotate(0.01521358)"
     style="font-size:32.2846px;stroke-width:2.69595">ATC</text>
  <path
     fill="#8150e2"
     stroke="none"
     paint-order="stroke fill markers"
     d="m 2186.7063,802.43642 2.7802,1.53334 2.6514,1.74755 2.506,1.94973 2.3452,2.14064 2.1701,2.31802 1.9816,2.48116 1.7808,2.62888 1.5691,2.76039 1.3475,2.87523 1.1179,2.97201 0.8811,3.05064 0.6392,3.11022 0.3932,3.1508 0.1448,3.17186 -0.1047,3.17355 -0.3533,3.15557 -0.5998,3.11828 -0.8425,3.06157 -1.0802,2.98579 -1.3112,2.89199 -1.5337,2.78028 -1.7473,2.65115 -1.9502,2.50606 -2.1404,2.34525 -2.3179,2.17002 -2.4812,1.98144 -2.6289,1.78105 -2.7606,1.569 -2.8751,1.34754 -2.9721,1.11785 -3.0504,0.88125 -3.1102,0.63911 -3.151,0.39327 -3.172,0.14477 -3.1736,-0.10489 -3.1555,-0.35341 -3.118,-0.59969 -3.0616,-0.84246 -2.9858,-1.08022 -2.8916,-1.31171 -2.7805,-1.53334 -2.6513,-1.74718 -2.5061,-1.95009 -2.345,-2.14048 -2.1704,-2.31792 -1.9815,-2.48107 -1.7808,-2.62905 -1.5689,-2.76062 -1.3478,-2.87497 -1.1177,-2.97208 -0.8812,-3.05056 -0.6393,-3.11012 -0.393,-3.15082 -0.1448,-3.17221 0.1046,-3.17365 0.3533,-3.15554 0.5997,-3.11785 0.8425,-3.06148 1.0801,-2.98597 1.3112,-2.89191 1.5339,-2.78036 1.7473,-2.6511 1.9499,-2.50606 2.1407,-2.34534 2.3178,-2.17012 2.4812,-1.98153 2.629,-1.78078 2.7605,-1.5689 2.8751,-1.34764 2.972,-1.11784 3.0505,-0.88126 3.1103,-0.63919 3.1508,-0.39309 3.1719,-0.14477 3.1737,0.105 3.1556,0.35306 3.1182,0.59969 3.0614,0.84281 2.9859,1.07987 z"
     fill-opacity="1"
     id="path104-3"
     style="fill:#fa8072;fill-opacity:1;stroke-width:2.69595" />
  <text
     fill="#000000"
     stroke="none"
     font-family="'Helvetica Neue', Helvetica, sans-serif"
     font-size="8px"
     font-style="normal"
     font-weight="normal"
     text-decoration="normal"
     x="1260.8575"
     y="882.06647"
     text-anchor="middle"
     dominant-baseline="text-after-edge"
     fill-opacity="1"
     id="text106-2"
     transform="rotate(1.2305145)"
     style="font-size:32.2846px;stroke-width:2.69595">AraC</text>
  <path
     fill="#8d5235"
     stroke="none"
     paint-order="stroke fill markers"
     d="m 1209.9221,1032.2811 2.7801,1.5339 2.6514,1.7473 2.5058,1.95 2.3454,2.1405 2.1701,2.318 1.9814,2.4813 1.7809,2.6287 1.569,2.7606 1.3475,2.8751 1.1178,2.972 0.8813,3.0505 0.6392,3.1103 0.3932,3.1509 0.1448,3.1719 -0.1047,3.1735 -0.3533,3.1557 -0.5996,3.118 -0.8425,3.0616 -1.0802,2.9859 -1.3111,2.8919 -1.5339,2.7801 -1.7473,2.6513 -1.9501,2.506 -2.1407,2.3455 -2.3178,2.17 -2.481,1.9815 -2.6291,1.7806 -2.7605,1.5691 -2.8751,1.3476 -2.9721,1.1179 -3.0504,0.8812 -3.1104,0.6393 -3.1508,0.3931 -3.1719,0.1449 -3.1735,-0.1047 -3.1557,-0.3531 -3.1181,-0.5997 -3.0615,-0.8424 -2.9858,-1.0804 -2.8919,-1.311 -2.7803,-1.534 -2.6513,-1.7473 -2.506,-1.9498 -2.3454,-2.1409 -2.1701,-2.3177 -1.9816,-2.4812 -1.7806,-2.6289 -1.569,-2.7606 -1.3477,-2.8751 -1.1178,-2.972 -0.8813,-3.0505 -0.6391,-3.1103 -0.3931,-3.1508 -0.1447,-3.172 0.1046,-3.1736 0.3532,-3.1556 0.5999,-3.1181 0.8424,-3.0614 1.0801,-2.9858 1.3112,-2.8918 1.5339,-2.7804 1.7473,-2.6512 1.9499,-2.5062 2.1407,-2.3451 2.3179,-2.1702 2.4812,-1.9816 2.6289,-1.7806 2.7605,-1.569 2.8753,-1.3477 2.9719,-1.1178 3.0505,-0.8813 3.1102,-0.6392 3.1509,-0.3932 3.1721,-0.1446 3.1736,0.1047 3.1555,0.3532 3.1181,0.5996 3.0614,0.8426 2.9861,1.0801 z"
     fill-opacity="1"
     id="path108-0"
     style="fill:#e2e250;fill-opacity:1;stroke-width:2.69595" />
  <text
     fill="#000000"
     stroke="none"
     font-family="'Helvetica Neue', Helvetica, sans-serif"
     font-size="8px"
     font-style="normal"
     font-weight="normal"
     text-decoration="normal"
     x="1245.0649"
     y="1029.1355"
     text-anchor="middle"
     dominant-baseline="text-after-edge"
     fill-opacity="1"
     id="text110-6"
     transform="rotate(0.32192862)"
     style="font-size:32.2846px;stroke-width:2.69595">araC</text>
  <path
     fill="#81e250"
     stroke="none"
     paint-order="stroke fill markers"
     d="m 1210.8824,431.24539 2.7805,1.53335 2.6515,1.74727 2.5059,1.95 2.3452,2.14065 2.1702,2.31784 1.9815,2.48105 1.7807,2.62898 1.5692,2.76075 1.3474,2.87488 1.118,2.97207 0.8812,3.05048 0.6391,3.11049 0.3932,3.15089 0.1448,3.17195 -0.1047,3.17339 -0.3533,3.15572 -0.5998,3.1182 -0.8425,3.06122 -1.08,2.98587 -1.3113,2.89191 -1.5338,2.78027 -1.7473,2.6512 -1.9501,2.50614 -2.1406,2.34535 -2.3179,2.17002 -2.4812,1.98162 -2.6288,1.7806 -2.7606,1.56909 -2.8751,1.34771 -2.972,1.11767 -3.0504,0.88125 -3.1103,0.63929 -3.151,0.39301 -3.1718,0.14477 -3.1737,-0.10489 -3.1556,-0.35314 -3.1181,-0.59977 -3.0615,-0.84256 -2.986,-1.08012 -2.8916,-1.31171 -2.7805,-1.53326 -2.6511,-1.74727 -2.5061,-1.95 -2.3454,-2.14064 -2.1701,-2.3181 -1.9814,-2.48107 -1.7809,-2.62897 -1.5691,-2.7604 -1.3474,-2.87523 -1.1178,-2.97208 -0.8814,-3.05038 -0.6392,-3.11032 -0.3929,-3.15088 -0.145,-3.17195 0.1047,-3.17356 0.3532,-3.15555 0.5997,-3.11812 0.8426,-3.06158 1.0801,-2.98587 1.3112,-2.8919 1.5338,-2.78028 1.7473,-2.65118 1.9499,-2.50589 2.1405,-2.34534 2.3181,-2.17003 2.4812,-1.98162 2.6289,-1.7806 2.7604,-1.569 2.8753,-1.3478 2.9721,-1.11794 3.0506,-0.88125 3.1102,-0.63901 3.1508,-0.39329 3.172,-0.14475 3.1737,0.10489 3.1555,0.35341 3.1181,0.59978 3.0615,0.84237 2.9859,1.08031 z"
     fill-opacity="1"
     id="path112-1"
     style="fill:#2ad4ff;fill-opacity:1;stroke-width:2.69595" />
  <text
     fill="#000000"
     stroke="none"
     font-family="'Helvetica Neue', Helvetica, sans-serif"
     font-size="8px"
     font-style="normal"
     font-weight="normal"
     text-decoration="normal"
     x="2109.1113"
     y="430.41104"
     text-anchor="middle"
     dominant-baseline="text-after-edge"
     fill-opacity="1"
     id="text114-5"
     transform="rotate(0.09320754)"
     style="font-size:32.2846px;stroke-width:2.69595">atc-tetr</text>
  <path
     fill="#8d5235"
     stroke="none"
     paint-order="stroke fill markers"
     d="m 1698.7751,631.86988 2.7803,1.53343 2.6512,1.74755 2.5059,1.95 2.3455,2.14045 2.1699,2.31784 1.9817,2.48108 1.7807,2.62906 1.5691,2.7603 1.3476,2.87524 1.1178,2.97208 0.8812,3.05065 0.6391,3.11003 0.3932,3.151 0.1449,3.17185 -0.1047,3.17356 -0.3532,3.15555 -0.5996,3.11811 -0.8428,3.06166 -1.08,2.98579 -1.3113,2.89191 -1.5338,2.78036 -1.7471,2.6511 -1.9501,2.50615 -2.1407,2.34535 -2.318,2.17019 -2.481,1.98145 -2.629,1.78078 -2.7606,1.569 -2.875,1.34745 -2.972,1.11784 -3.0507,0.88126 -3.1103,0.63928 -3.1507,0.393 -3.1719,0.14477 -3.1736,-0.10489 -3.1555,-0.35341 -3.1183,-0.59969 -3.0613,-0.84246 -2.9861,-1.07996 -2.8915,-1.31171 -2.7806,-1.53333 -2.6513,-1.74755 -2.5058,-1.95 -2.3453,-2.14064 -2.1702,-2.31775 -1.9816,-2.48116 -1.7806,-2.62897 -1.5692,-2.76029 -1.3476,-2.87525 -1.1178,-2.97199 -0.8811,-3.05065 -0.6392,-3.11021 -0.3933,-3.15091 -0.1447,-3.17176 0.1047,-3.17356 0.3532,-3.15555 0.5998,-3.11828 0.8425,-3.06158 1.0802,-2.9858 1.3113,-2.89198 1.5336,-2.78029 1.7473,-2.65109 1.9501,-2.50606 2.1407,-2.34534 2.3179,-2.1702 2.481,-1.98145 2.6291,-1.78079 2.7605,-1.56907 2.875,-1.34746 2.972,-1.11784 3.0506,-0.88126 3.1104,-0.63918 3.1509,-0.39311 3.1719,-0.14485 3.1736,0.10489 3.1554,0.35342 3.1182,0.59969 3.0615,0.84245 2.9859,1.07996 z"
     fill-opacity="1"
     id="path116-5"
     style="fill:#e2e250;fill-opacity:1;stroke-width:2.69595" />
  <text
     fill="#000000"
     stroke="none"
     font-family="'Helvetica Neue', Helvetica, sans-serif"
     font-size="8px"
     font-style="normal"
     font-weight="normal"
     text-decoration="normal"
     x="1680.8834"
     y="629.46082"
     text-anchor="middle"
     dominant-baseline="text-after-edge"
     fill-opacity="1"
     id="text118-4"
     transform="rotate(0.0805736)"
     style="font-size:32.2846px;stroke-width:2.69595">CI-LVA</text>
  <path
     fill="#c06335"
     stroke="none"
     paint-order="stroke fill markers"
     d="m 1479.6153,539.2456 2.7805,1.53334 2.6512,1.74727 2.5059,1.94999 2.3454,2.14065 2.1701,2.31775 1.9816,2.48116 1.7806,2.62898 1.5689,2.76056 1.3478,2.87496 1.1179,2.97201 0.8812,3.05064 0.6391,3.11039 0.3932,3.15082 0.1449,3.17194 -0.1047,3.17356 -0.3532,3.15555 -0.5996,3.11802 -0.8425,3.06157 -1.0802,2.98579 -1.3113,2.892 -1.5337,2.78027 -1.7473,2.65111 -1.95,2.50605 -2.1408,2.34534 -2.3179,2.17021 -2.4811,1.98144 -2.6289,1.78078 -2.7605,1.569 -2.8752,1.34781 -2.9719,1.11758 -3.0505,0.88125 -3.1104,0.63919 -3.1507,0.39309 -3.1719,0.14487 -3.1737,-0.1049 -3.1557,-0.35314 -3.1181,-0.59968 -3.0614,-0.84247 -2.9859,-1.08021 -2.8917,-1.31171 -2.7804,-1.53334 -2.6512,-1.74728 -2.5061,-1.95 -2.3453,-2.14065 -2.1701,-2.31801 -1.9815,-2.48107 -1.7808,-2.62906 -1.5691,-2.76029 -1.3475,-2.87524 -1.1177,-2.97209 -0.8815,-3.05029 -0.6391,-3.11039 -0.3931,-3.15081 -0.1449,-3.17195 0.1047,-3.17365 0.3532,-3.15555 0.5998,-3.11811 0.8425,-3.06166 1.0803,-2.98579 1.3111,-2.89191 1.5338,-2.78036 1.7474,-2.6511 1.9499,-2.50606 2.1406,-2.34507 2.318,-2.17021 2.4811,-1.98144 2.6288,-1.78078 2.7606,-1.56908 2.8751,-1.34773 2.9722,-1.11784 3.0504,-0.88126 3.1102,-0.63909 3.1509,-0.39319 3.172,-0.14477 3.1736,0.10501 3.1555,0.35333 3.118,0.59969 3.0617,0.84254 2.9859,1.08013 z"
     fill-opacity="1"
     id="path120"
     style="fill:#50e281;fill-opacity:1;stroke-width:2.69595" />
  <text
     fill="#000000"
     stroke="none"
     font-family="'Helvetica Neue', Helvetica, sans-serif"
     font-size="8px"
     font-style="normal"
     font-weight="normal"
     text-decoration="normal"
     x="1911.8029"
     y="491.0892"
     text-anchor="middle"
     dominant-baseline="text-after-edge"
     fill-opacity="1"
     id="text122"
     transform="rotate(1.3975815)"
     style="font-size:28.6973px;stroke-width:2.69595">pTet</text>
  <path
     fill="#50e281"
     stroke="none"
     paint-order="stroke fill markers"
     d="m 2183.3811,253.17788 2.7805,1.53334 2.6513,1.74718 2.506,1.9501 2.3451,2.14046 2.1703,2.31793 1.9815,2.48106 1.7808,2.62898 1.569,2.76065 1.3474,2.87516 1.1179,2.97181 0.8814,3.05064 0.6391,3.11041 0.3932,3.1508 0.1447,3.17194 -0.1046,3.17356 -0.3533,3.15556 -0.5998,3.11819 -0.8425,3.06139 -1.0802,2.98607 -1.3109,2.89163 -1.5341,2.78037 -1.7473,2.65137 -1.9498,2.50578 -2.1407,2.34535 -2.3181,2.1702 -2.4809,1.98146 -2.629,1.78077 -2.7604,1.56899 -2.8753,1.34763 -2.9719,1.11776 -3.0505,0.88125 -3.1103,0.63919 -3.1508,0.3931 -3.172,0.14467 -3.1736,-0.10489 -3.1554,-0.35306 -3.1183,-0.59977 -3.0615,-0.84246 -2.9859,-1.08013 -2.8916,-1.31171 -2.7805,-1.53343 -2.6513,-1.74728 -2.5059,-1.95 -2.3454,-2.14054 -2.17,-2.31802 -1.9816,-2.48125 -1.7807,-2.62887 -1.569,-2.7604 -1.3478,-2.87515 -1.1178,-2.97208 -0.8812,-3.05038 -0.6391,-3.11049 -0.3933,-3.15081 -0.1446,-3.17186 0.1047,-3.17356 0.3531,-3.15554 0.5998,-3.11829 0.8424,-3.06122 1.0803,-2.98606 1.3112,-2.89208 1.5336,-2.77992 1.7475,-2.65136 1.9499,-2.50597 2.1405,-2.34535 2.3181,-2.17011 2.4809,-1.98145 2.6289,-1.78076 2.7608,-1.56901 2.8752,-1.34772 2.9719,-1.11785 3.0505,-0.88116 3.1103,-0.63919 3.151,-0.39319 3.172,-0.14495 3.1735,0.105 3.1555,0.35333 3.118,0.59967 3.0614,0.84256 2.986,1.08012 z"
     fill-opacity="1"
     id="path124-7"
     style="fill:#a07be9;fill-opacity:1;stroke-width:2.69595" />
  <path
     fill="#c06335"
     stroke="none"
     paint-order="stroke fill markers"
     d="m 1917.2653,538.84855 2.7804,1.53343 2.6513,1.74728 2.506,1.95 2.3453,2.14055 2.1701,2.31803 1.9815,2.48123 1.7807,2.62888 1.5692,2.76048 1.3473,2.87525 1.1179,2.9719 0.8816,3.05038 0.639,3.11049 0.3931,3.1508 0.1448,3.17194 -0.1047,3.17347 -0.3533,3.15575 -0.5998,3.11809 -0.8425,3.06131 -1.0801,2.98606 -1.3111,2.89199 -1.5339,2.77992 -1.7473,2.65155 -1.9499,2.50579 -2.1406,2.34534 -2.3179,2.17012 -2.4813,1.98162 -2.6289,1.7806 -2.7605,1.569 -2.8751,1.3478 -2.9722,1.11785 -3.0503,0.88107 -3.1103,0.63919 -3.1509,0.39337 -3.172,0.14478 -3.1735,-0.10501 -3.1557,-0.35305 -3.118,-0.59987 -3.0616,-0.84246 -2.9859,-1.08022 -2.8915,-1.31171 -2.7805,-1.53316 -2.6514,-1.74728 -2.506,-1.95 -2.3452,-2.14064 -2.1701,-2.31819 -1.9816,-2.48081 -1.7806,-2.62887 -1.5692,-2.76074 -1.3473,-2.87516 -1.1181,-2.97181 -0.8813,-3.05065 -0.639,-3.11031 -0.3931,-3.15089 -0.1449,-3.17195 0.1047,-3.17356 0.3532,-3.15555 0.5998,-3.1182 0.8424,-3.06122 1.0803,-2.98624 1.3111,-2.89154 1.5338,-2.78028 1.7474,-2.65154 1.95,-2.5058 2.1406,-2.34534 2.318,-2.17002 2.4812,-1.98162 2.6289,-1.78061 2.7603,-1.56908 2.8752,-1.34772 2.972,-1.11775 3.0505,-0.88126 3.1102,-0.63919 3.151,-0.3931 3.172,-0.14467 3.1736,0.10489 3.1555,0.35314 3.1182,0.59979 3.0615,0.84236 2.9857,1.08032 z"
     fill-opacity="1"
     id="path128-5"
     style="fill:#50e281;fill-opacity:1;stroke-width:2.69595" />
  <text
     fill="#000000"
     stroke="none"
     font-family="'Helvetica Neue', Helvetica, sans-serif"
     font-size="8px"
     font-style="normal"
     font-weight="normal"
     text-decoration="normal"
     x="1450.4634"
     y="567.88129"
     text-anchor="middle"
     dominant-baseline="text-after-edge"
     fill-opacity="1"
     id="text130-6"
     transform="rotate(-1.1244974)"
     style="font-size:28.6973px;stroke-width:2.69595">PBad</text>
  <path
     fill="#c06335"
     stroke="none"
     paint-order="stroke fill markers"
     d="m 1696.4359,1180.0829 2.7804,1.5334 2.6512,1.7473 2.5061,1.95 2.3453,2.1405 2.1701,2.3181 1.9814,2.481 1.7808,2.6291 1.5691,2.7604 1.3476,2.8752 1.1177,2.9722 0.8813,3.0503 0.6392,3.1105 0.393,3.151 0.1448,3.172 -0.1046,3.1735 -0.3533,3.1556 -0.5999,3.1181 -0.8424,3.0616 -1.0801,2.9862 -1.3115,2.8919 -1.5336,2.78 -1.7475,2.6514 -1.9501,2.5061 -2.1405,2.3455 -2.3179,2.17 -2.4812,1.9816 -2.6289,1.7808 -2.7605,1.5692 -2.8753,1.3478 -2.972,1.118 -3.0506,0.8811 -3.1102,0.639 -3.151,0.3934 -3.1718,0.1445 -3.1736,-0.1047 -3.1557,-0.353 -3.1181,-0.5996 -3.0617,-0.8425 -2.9856,-1.0802 -2.8918,-1.3118 -2.7804,-1.5334 -2.6513,-1.7471 -2.506,-1.95 -2.3451,-2.1406 -2.1701,-2.3182 -1.9817,-2.4811 -1.7807,-2.6286 -1.569,-2.7608 -1.3476,-2.8752 -1.1178,-2.9719 -0.8814,-3.0508 -0.639,-3.1103 -0.3931,-3.1509 -0.1447,-3.172 0.1047,-3.1735 0.3533,-3.1557 0.5998,-3.1183 0.8424,-3.0614 1.0803,-2.9861 1.311,-2.8916 1.534,-2.7805 1.7474,-2.6515 1.9498,-2.5058 2.1407,-2.3455 2.318,-2.1702 2.4813,-1.9815 2.6288,-1.7809 2.7606,-1.569 2.8752,-1.3478 2.972,-1.1177 3.0504,-0.8815 3.1103,-0.6392 3.151,-0.393 3.1719,-0.1447 3.1735,0.1047 3.1558,0.353 3.1179,0.5997 3.0616,0.8425 2.9858,1.0801 z"
     fill-opacity="1"
     id="path132-9"
     style="fill:#50e281;fill-opacity:1;stroke-width:2.69595" />
  <text
     fill="#000000"
     stroke="none"
     font-family="'Helvetica Neue', Helvetica, sans-serif"
     font-size="8px"
     font-style="normal"
     font-weight="normal"
     text-decoration="normal"
     x="1771.1561"
     y="1168.9115"
     text-anchor="middle"
     dominant-baseline="text-after-edge"
     fill-opacity="1"
     id="text134-3"
     transform="rotate(-0.1624004)"
     style="font-size:32.2846px;stroke-width:2.69595">BBa_J23117</text>
  <path
     fill="none"
     stroke="#e2e250"
     paint-order="fill stroke markers"
     d="m 2129.7031,481.12684 -193.306,78.15684"
     stroke-opacity="1"
     stroke-linejoin="round"
     stroke-miterlimit="10"
     stroke-width="3.16869"
     id="path52-7"
     style="stroke:#2ad4ff;stroke-width:10.1683;stroke-miterlimit:10;stroke-dasharray:none;stroke-opacity:1" />
  <path
     fill="none"
     stroke="#e2e250"
     paint-order="fill stroke markers"
     d="m 1227.3655,488.30262 194.919,75.40173"
     stroke-opacity="1"
     stroke-linejoin="round"
     stroke-miterlimit="10"
     stroke-width="3.47711"
     id="path28-2-4"
     style="stroke:#2ad4ff;stroke-width:10.1683;stroke-miterlimit:10;stroke-dasharray:none;stroke-opacity:1" />
</svg>
