<?xml version="1.0" encoding="UTF-8" standalone="no"?>
<svg
   version="1.1"
   width="1686.1815"
   height="1242.9584"
   id="svg132"
   sodipodi:docname="2_arabinose-pathway--standard.svg"
   inkscape:version="1.1.1 (26b7af14f2, 2022-01-19)"
   xmlns:inkscape="http://www.inkscape.org/namespaces/inkscape"
   xmlns:sodipodi="http://sodipodi.sourceforge.net/DTD/sodipodi-0.dtd"
   xmlns="http://www.w3.org/2000/svg"
   xmlns:svg="http://www.w3.org/2000/svg">
  <sodipodi:namedview
     id="namedview134"
     pagecolor="#ffffff"
     bordercolor="#666666"
     borderopacity="1.0"
     inkscape:pageshadow="2"
     inkscape:pageopacity="0.0"
     inkscape:pagecheckerboard="0"
     showgrid="false"
     inkscape:zoom="0.84361023"
     inkscape:cx="548.83166"
     inkscape:cy="701.15319"
     inkscape:window-width="2492"
     inkscape:window-height="1376"
     inkscape:window-x="1988"
     inkscape:window-y="27"
     inkscape:window-maximized="1"
     inkscape:current-layer="g130" />
  <defs
     id="defs2">
    <rect
       x="1443.0721"
       y="39.982376"
       width="235.68906"
       height="103.2741"
       id="rect3639-3" />
    <rect
       x="1443.0721"
       y="39.982376"
       width="235.68906"
       height="103.2741"
       id="rect3639-5-6" />
    <rect
       x="1443.0721"
       y="39.982376"
       width="235.68906"
       height="103.2741"
       id="rect27185-7-7" />
    <rect
       x="1443.0721"
       y="39.982376"
       width="235.68906"
       height="103.2741"
       id="rect27185-7-6-9-5" />
    <rect
       x="1443.0721"
       y="39.982376"
       width="235.68906"
       height="103.2741"
       id="rect27185-4-5" />
    <rect
       x="1443.0721"
       y="39.982376"
       width="235.68906"
       height="103.2741"
       id="rect27185-7-8-6" />
    <rect
       x="1443.0721"
       y="39.982376"
       width="235.68906"
       height="103.2741"
       id="rect27185-7-6-9-5-3" />
    <rect
       x="1443.0721"
       y="39.982376"
       width="235.68906"
       height="103.2741"
       id="rect27185-7-6-9-5-5" />
    <rect
       x="1443.0721"
       y="39.982376"
       width="235.68906"
       height="103.2741"
       id="rect27185-7-6-9-5-3-3" />
    <rect
       x="1443.0721"
       y="39.982376"
       width="235.68906"
       height="103.2741"
       id="rect3639-3-2" />
    <rect
       x="1443.0721"
       y="39.982376"
       width="235.68906"
       height="103.2741"
       id="rect27185-7-7-7" />
    <rect
       x="1443.0721"
       y="39.982376"
       width="235.68906"
       height="103.2741"
       id="rect27185-7-6-9-5-0" />
    <rect
       x="1443.0721"
       y="39.982376"
       width="235.68906"
       height="103.2741"
       id="rect27185-7-6-9-4-3" />
    <rect
       x="1443.0721"
       y="39.982376"
       width="235.68906"
       height="103.2741"
       id="rect27185-7-6-9-4-9-1" />
    <rect
       x="1443.0721"
       y="39.982376"
       width="235.68906"
       height="103.2741"
       id="rect27185-7-6-9-4-9-5-2" />
    <rect
       x="1443.0721"
       y="39.982376"
       width="235.68906"
       height="103.2741"
       id="rect3639-7" />
    <rect
       x="1443.0721"
       y="39.982376"
       width="235.68906"
       height="103.2741"
       id="rect27598" />
    <rect
       x="1443.0721"
       y="39.982376"
       width="235.68906"
       height="103.2741"
       id="rect3639-3-5" />
    <rect
       x="1443.0721"
       y="39.982376"
       width="235.68906"
       height="103.2741"
       id="rect3639-5-6-9" />
    <rect
       x="1443.0721"
       y="39.982376"
       width="235.68906"
       height="103.2741"
       id="rect27185-7-7-3" />
    <rect
       x="1443.0721"
       y="39.982376"
       width="235.68906"
       height="103.2741"
       id="rect27185-7-6-9-5-5-3" />
    <rect
       x="1443.0721"
       y="39.982376"
       width="235.68906"
       height="103.2741"
       id="rect27185-7-6-9-4-3-6" />
    <rect
       x="1443.0721"
       y="39.982376"
       width="235.68906"
       height="103.2741"
       id="rect27185-4-5-6" />
    <rect
       x="1443.0721"
       y="39.982376"
       width="235.68906"
       height="103.2741"
       id="rect27185-7-8-6-0" />
    <rect
       x="1443.0721"
       y="39.982376"
       width="235.68906"
       height="103.2741"
       id="rect27185-7-6-9-8-2" />
    <rect
       x="1443.0721"
       y="39.982376"
       width="235.68906"
       height="103.2741"
       id="rect27185-7-6-9-4-1-9" />
    <rect
       x="1443.0721"
       y="39.982376"
       width="235.68906"
       height="103.2741"
       id="rect27185-7-6-9-4-9-1-2" />
    <rect
       x="1443.0721"
       y="39.982376"
       width="235.68906"
       height="103.2741"
       id="rect27185-7-6-9-4-9-5-2-9" />
    <rect
       x="1443.0721"
       y="39.982376"
       width="235.68906"
       height="103.2741"
       id="rect27185-7-8-6-2" />
    <rect
       x="1443.0721"
       y="39.982376"
       width="235.68906"
       height="103.2741"
       id="rect27185-4-5-0" />
    <rect
       x="1443.0721"
       y="39.982376"
       width="235.68906"
       height="103.2741"
       id="rect27185-7-8-6-2-7" />
    <rect
       x="1443.0721"
       y="39.982376"
       width="235.68906"
       height="103.2741"
       id="rect27185-4-5-0-8" />
    <rect
       x="1443.0721"
       y="39.982376"
       width="235.68906"
       height="103.2741"
       id="rect27185-7-6-9-5-3-6" />
    <rect
       x="1443.0721"
       y="39.982376"
       width="235.68906"
       height="103.2741"
       id="rect27185-7-6-9-5-5-1" />
    <rect
       x="1443.0721"
       y="39.982376"
       width="235.68906"
       height="103.2741"
       id="rect27185-7-6-9-5-5-1-0" />
  </defs>
  <g
     transform="matrix(2.7704545,0,0,2.7704545,217.16683,29.333295)"
     id="g130">
    <path
       fill="none"
       stroke="#50e2e2"
       paint-order="fill stroke markers"
       d="M 25,30 V 80"
       stroke-opacity="1"
       stroke-linejoin="round"
       stroke-miterlimit="10"
       stroke-width="3"
       id="path4"
       style="stroke:#e2e250;stroke-opacity:1" />
    <path
       fill="#50e2e2"
       stroke="none"
       paint-order="stroke fill markers"
       d="M 20.65,46.3 25,55 29.35,46.3 Z"
       fill-opacity="1"
       id="path6"
       style="fill:#e2e250;fill-opacity:1" />
    <path
       fill="none"
       stroke="#e28150"
       paint-order="fill stroke markers"
       d="m 31.708204,108.41641 26.583592,53.16718"
       stroke-opacity="1"
       stroke-linejoin="round"
       stroke-miterlimit="10"
       stroke-width="3"
       id="path8"
       style="stroke:#a07be9;stroke-opacity:1" />
    <path
       fill="#e28150"
       stroke="none"
       paint-order="stroke fill markers"
       d="M 37.218483,129.16386 45,135 v -9.7269 z"
       fill-opacity="1"
       id="path10"
       style="fill:#a07be9;fill-opacity:1" />
    <path
       fill="none"
       stroke="#e28150"
       paint-order="fill stroke markers"
       d="M 78.334355,181.86986 211.84981,250.65703"
       stroke-opacity="1"
       stroke-linejoin="round"
       stroke-miterlimit="10"
       stroke-width="3"
       id="path12"
       style="stroke:#a07be9;stroke-opacity:1" />
    <path
       fill="#e28150"
       stroke="none"
       paint-order="stroke fill markers"
       d="m 135.3659,216.14589 9.72618,0.11756 -5.74166,-7.85149 z"
       fill-opacity="1"
       id="path14"
       style="fill:#a07be9;fill-opacity:1" />
    <path
       fill="none"
       stroke="#e28150"
       paint-order="fill stroke markers"
       d="m 65.289467,189.99721 1.04182,53.97641"
       stroke-opacity="1"
       stroke-linejoin="round"
       stroke-miterlimit="10"
       stroke-width="3"
       id="path16"
       style="stroke:#a07be9;stroke-opacity:1" />
    <path
       fill="#e28150"
       stroke="none"
       paint-order="stroke fill markers"
       d="m 61.293296,208.37098 4.517081,8.61443 4.181299,-8.78232 z"
       fill-opacity="1"
       id="path18"
       style="fill:#a07be9;fill-opacity:1" />
    <path
       fill="none"
       stroke="#e28150"
       paint-order="fill stroke markers"
       d="M 75.606602,185.6066 134.3934,244.3934"
       stroke-opacity="1"
       stroke-linejoin="round"
       stroke-miterlimit="10"
       stroke-width="3"
       id="path20"
       style="stroke:#a07be9;stroke-opacity:1" />
    <path
       fill="#e28150"
       stroke="none"
       paint-order="stroke fill markers"
       d="M 95.772257,211.92409 105,215 l -3.07591,-9.22774 z"
       fill-opacity="1"
       id="path22"
       style="fill:#a07be9;fill-opacity:1" />
    <path
       fill="none"
       stroke="#e28150"
       paint-order="fill stroke markers"
       d="m 157.26717,263.6323 86.58692,60.93048"
       stroke-opacity="1"
       stroke-linejoin="round"
       stroke-miterlimit="10"
       stroke-width="3"
       id="path24"
       style="stroke:#a07be9;stroke-opacity:1" />
    <path
       fill="#e28150"
       stroke="none"
       paint-order="stroke fill markers"
       d="m 190.9423,292.64828 9.61833,1.44926 -4.61159,-8.56421 z"
       fill-opacity="1"
       id="path26"
       style="fill:#a07be9;fill-opacity:1" />
    <path
       fill="none"
       stroke="#e28150"
       paint-order="fill stroke markers"
       d="m 155.4528,185.7582 59.27856,61.01049"
       stroke-opacity="1"
       stroke-linejoin="round"
       stroke-miterlimit="10"
       stroke-width="3"
       id="path28"
       style="stroke:#a07be9;stroke-opacity:1" />
    <path
       fill="#e28150"
       stroke="none"
       paint-order="stroke fill markers"
       d="m 175.90958,213.055 9.1825,3.20845 -2.94274,-9.27107 z"
       fill-opacity="1"
       id="path30"
       style="fill:#a07be9;fill-opacity:1" />
    <path
       fill="none"
       stroke="#e28150"
       paint-order="fill stroke markers"
       d="M 134.76477,185.96541 76.855979,248.00542"
       stroke-opacity="1"
       stroke-linejoin="round"
       stroke-miterlimit="10"
       stroke-width="3"
       id="path32"
       style="stroke:#a07be9;stroke-opacity:1" />
    <path
       fill="#e28150"
       stroke="none"
       paint-order="stroke fill markers"
       d="m 108.56684,207.65726 -2.75646,9.32815 9.1164,-3.39172 z"
       fill-opacity="1"
       id="path34"
       style="fill:#a07be9;fill-opacity:1" />
    <path
       fill="none"
       stroke="#e28150"
       paint-order="fill stroke markers"
       d="m 145,190 v 50"
       stroke-opacity="1"
       stroke-linejoin="round"
       stroke-miterlimit="10"
       stroke-width="3"
       id="path36"
       style="stroke:#a07be9;stroke-opacity:1" />
    <path
       fill="#e28150"
       stroke="none"
       paint-order="stroke fill markers"
       d="m 140.65,206.3 4.35,8.7 4.35,-8.7 z"
       fill-opacity="1"
       id="path38"
       style="fill:#a07be9;fill-opacity:1" />
    <path
       fill="none"
       stroke="#e28150"
       paint-order="fill stroke markers"
       d="m 225.03347,189.99996 0.11722,52.52697"
       stroke-opacity="1"
       stroke-linejoin="round"
       stroke-miterlimit="10"
       stroke-width="3"
       id="path40"
       style="stroke:#a07be9;stroke-opacity:1" />
    <path
       fill="#e28150"
       stroke="none"
       paint-order="stroke fill markers"
       d="m 220.72268,207.57317 4.3694,8.69028 4.33058,-8.70969 z"
       fill-opacity="1"
       id="path42"
       style="fill:#a07be9;fill-opacity:1" />
    <path
       fill="none"
       stroke="#e28150"
       paint-order="fill stroke markers"
       d="M 211.74744,182.02635 79.873314,251.94447"
       stroke-opacity="1"
       stroke-linejoin="round"
       stroke-miterlimit="10"
       stroke-width="3"
       id="path44"
       style="stroke:#a07be9;stroke-opacity:1" />
    <path
       fill="#e28150"
       stroke="none"
       paint-order="stroke fill markers"
       d="m 151.45922,209.06689 -5.64884,7.91852 9.72412,-0.23204 z"
       fill-opacity="1"
       id="path46"
       style="fill:#a07be9;fill-opacity:1" />
    <path
       fill="none"
       stroke="#e28150"
       paint-order="fill stroke markers"
       d="m 214.3934,185.6066 -58.7868,58.7868"
       stroke-opacity="1"
       stroke-linejoin="round"
       stroke-miterlimit="10"
       stroke-width="3"
       id="path48"
       style="stroke:#a07be9;stroke-opacity:1" />
    <path
       fill="#e28150"
       stroke="none"
       paint-order="stroke fill markers"
       d="M 188.07591,205.77226 185,215 l 9.22774,-3.07591 z"
       fill-opacity="1"
       id="path50"
       style="fill:#a07be9;fill-opacity:1" />
    <path
       fill="none"
       stroke="#e2e250"
       paint-order="fill stroke markers"
       d="m 256.12126,348.19508 v 50"
       stroke-opacity="1"
       stroke-linejoin="round"
       stroke-miterlimit="10"
       stroke-width="3"
       id="path52"
       style="stroke:#2ad4ff;stroke-opacity:1" />
    <path
       fill="#e2e250"
       stroke="none"
       paint-order="stroke fill markers"
       d="m 251.77126,364.49508 4.35,8.7 4.35,-8.7 z"
       fill-opacity="1"
       id="path54"
       style="fill:#2ad4ff;fill-opacity:1" />
    <path
       fill="none"
       stroke="#e28150"
       paint-order="fill stroke markers"
       d="M 98.291796,108.41641 71.708204,161.58359"
       stroke-opacity="1"
       stroke-linejoin="round"
       stroke-miterlimit="10"
       stroke-width="3"
       id="path56"
       style="stroke:#a07be9;stroke-opacity:1" />
    <path
       fill="#e28150"
       stroke="none"
       paint-order="stroke fill markers"
       d="M 85,125.2731 V 135 l 7.781517,-5.83614 z"
       fill-opacity="1"
       id="path58"
       style="fill:#a07be9;fill-opacity:1" />
    <path
       fill="none"
       stroke="#50e2e2"
       paint-order="fill stroke markers"
       d="m 225,110 v 50"
       stroke-opacity="1"
       stroke-linejoin="round"
       stroke-miterlimit="10"
       stroke-width="3"
       id="path60"
       style="stroke:#e2e250;stroke-opacity:1" />
    <path
       fill="#50e2e2"
       stroke="none"
       paint-order="stroke fill markers"
       d="m 220.65,126.3 4.35,8.7 4.35,-8.7 z"
       fill-opacity="1"
       id="path62"
       style="fill:#e2e250;fill-opacity:1" />
    <path
       fill="none"
       stroke="#50e2e2"
       paint-order="fill stroke markers"
       d="m 355,190 v 50"
       stroke-opacity="1"
       stroke-linejoin="round"
       stroke-miterlimit="10"
       stroke-width="3"
       id="path64"
       style="stroke:#e2e250;stroke-opacity:1" />
    <path
       fill="#50e2e2"
       stroke="none"
       paint-order="stroke fill markers"
       d="m 350.65,206.3 4.35,8.7 4.35,-8.7 z"
       fill-opacity="1"
       id="path66"
       style="fill:#e2e250;fill-opacity:1" />
    <path
       fill="none"
       stroke="#e28150"
       paint-order="fill stroke markers"
       d="M 343.23445,264.3044 267.8868,323.89067"
       stroke-opacity="1"
       stroke-linejoin="round"
       stroke-miterlimit="10"
       stroke-width="3"
       id="path68"
       style="stroke:#a07be9;stroke-opacity:1" />
    <path
       fill="#e28150"
       stroke="none"
       paint-order="stroke fill markers"
       d="m 309.68637,285.28898 -4.12574,8.80856 9.52229,-1.98455 z"
       fill-opacity="1"
       id="path70"
       style="fill:#a07be9;fill-opacity:1" />
    <path
       fill="#5081e2"
       stroke="none"
       paint-order="stroke fill markers"
       d="m 40,15 -0.04624,1.176886 -0.138435,1.169631 -0.229776,1.155163 -0.319701,1.133575 -0.407655,1.104996 -0.493095,1.069606 -0.575496,1.027621 -0.654347,0.979301 -0.729166,0.924942 -0.799487,0.864881 -0.864881,0.799487 -0.924942,0.729166 -0.979301,0.654347 -1.027621,0.575496 -1.069606,0.493095 -1.104996,0.407655 -1.133575,0.319701 -1.155163,0.229776 L 26.176886,29.95376 25,30 23.823114,29.95376 22.653483,29.815325 21.49832,29.585549 20.364745,29.265848 19.259749,28.858193 18.190143,28.365098 17.162522,27.789602 16.183221,27.135255 15.258279,26.406089 14.393398,25.606602 13.593911,24.741721 12.864745,23.816779 12.210398,22.837478 11.634902,21.809857 11.141807,20.740251 10.734152,19.635255 10.414451,18.50168 10.184675,17.346517 10.04624,16.176886 10,15 l 0.04624,-1.176886 0.138435,-1.169631 0.229776,-1.155163 0.319701,-1.133575 0.407655,-1.1049965 0.493095,-1.069606 0.575496,-1.027621 0.654347,-0.9793003 0.729166,-0.9249419 0.799487,-0.864881 L 15.258279,3.5939105 16.183221,2.8647451 17.162522,2.2103975 18.190143,1.6349021 19.259749,1.141807 20.364745,0.73415226 21.49832,0.41445119 22.653483,0.18467489 23.823114,0.04623999 25,0 l 1.176886,0.04623999 1.169631,0.1384349 1.155163,0.2297763 1.133575,0.31970107 1.104996,0.40765474 1.069606,0.4930951 1.027621,0.5754954 0.979301,0.6543476 0.924942,0.7291654 0.864881,0.7994878 0.799487,0.864881 0.729166,0.9249419 0.654347,0.9793003 0.575496,1.027621 0.493095,1.069606 0.407655,1.1049965 0.319701,1.133575 0.229776,1.155163 0.138435,1.169631 z"
       fill-opacity="1"
       id="path72"
       style="fill:#e2e250;fill-opacity:1" />
    <text
       fill="#000000"
       stroke="none"
       font-family="'Helvetica Neue', Helvetica, sans-serif"
       font-size="8px"
       font-style="normal"
       font-weight="normal"
       text-decoration="normal"
       x="25"
       y="0"
       text-anchor="middle"
       dominant-baseline="text-after-edge"
       fill-opacity="1"
       id="text74"
       style="font-size:10.5879px">AraA</text>
    <path
       fill="#5081e2"
       stroke="none"
       paint-order="stroke fill markers"
       d="m 271.12126,413.19508 -0.0462,1.17688 -0.13844,1.16964 -0.22977,1.15516 -0.31971,1.13357 -0.40765,1.105 -0.4931,1.06961 -0.57549,1.02762 -0.65435,0.9793 -0.72916,0.92494 -0.79949,0.86488 -0.86488,0.79949 -0.92494,0.72916 -0.9793,0.65435 -1.02763,0.5755 -1.0696,0.49309 -1.105,0.40766 -1.13357,0.3197 -1.15517,0.22977 -1.16963,0.13844 -1.17688,0.0462 -1.17689,-0.0462 -1.16963,-0.13844 -1.15516,-0.22977 -1.13358,-0.3197 -1.10499,-0.40766 -1.06961,-0.49309 -1.02762,-0.5755 -0.9793,-0.65435 -0.92494,-0.72916 -0.86488,-0.79949 -0.79949,-0.86488 -0.72917,-0.92494 -0.65435,-0.9793 -0.57549,-1.02762 -0.4931,-1.06961 -0.40765,-1.105 -0.3197,-1.13357 -0.22978,-1.15516 -0.13843,-1.16964 -0.0462,-1.17688 0.0462,-1.17689 0.13843,-1.16963 0.22978,-1.15516 0.3197,-1.13358 0.40765,-1.10499 0.4931,-1.06961 0.57549,-1.02762 0.65435,-0.9793 0.72917,-0.92494 0.79949,-0.86488 0.86488,-0.79949 0.92494,-0.72917 0.9793,-0.65434 1.02762,-0.5755 1.06961,-0.49309 1.10499,-0.40766 1.13358,-0.3197 1.15516,-0.22978 1.16963,-0.13843 1.17689,-0.0462 1.17688,0.0462 1.16963,0.13843 1.15517,0.22978 1.13357,0.3197 1.105,0.40766 1.0696,0.49309 1.02763,0.5755 0.9793,0.65434 0.92494,0.72917 0.86488,0.79949 0.79949,0.86488 0.72916,0.92494 0.65435,0.9793 0.57549,1.02762 0.4931,1.06961 0.40765,1.10499 0.31971,1.13358 0.22977,1.15516 0.13844,1.16963 z"
       fill-opacity="1"
       id="path76" />
    <text
       fill="#000000"
       stroke="none"
       font-family="'Helvetica Neue', Helvetica, sans-serif"
       font-size="8px"
       font-style="normal"
       font-weight="normal"
       text-decoration="normal"
       x="256.12125"
       y="438.62109"
       text-anchor="middle"
       dominant-baseline="text-after-edge"
       fill-opacity="1"
       id="text78"
       style="font-size:10.5879px">pentose_phosphate_pathway</text>
    <path
       fill="#5081e2"
       stroke="none"
       paint-order="stroke fill markers"
       d="m 240,95 -0.0462,1.176886 -0.13843,1.169631 -0.22978,1.155163 -0.3197,1.133575 -0.40766,1.104995 -0.49309,1.06961 -0.5755,1.02762 -0.65435,0.9793 -0.72916,0.92494 -0.79949,0.86488 -0.86488,0.79949 -0.92494,0.72916 -0.9793,0.65435 -1.02762,0.5755 -1.06961,0.49309 -1.105,0.40766 -1.13357,0.3197 -1.15516,0.22978 -1.16963,0.13843 L 225,110 l -1.17689,-0.0462 -1.16963,-0.13843 -1.15516,-0.22978 -1.13357,-0.3197 -1.105,-0.40766 -1.06961,-0.49309 -1.02762,-0.5755 -0.9793,-0.65435 -0.92494,-0.72916 -0.86488,-0.79949 -0.79949,-0.86488 -0.72916,-0.92494 -0.65435,-0.9793 -0.5755,-1.02762 -0.49309,-1.06961 -0.40766,-1.104995 -0.3197,-1.133575 -0.22978,-1.155163 -0.13843,-1.169631 L 210,95 l 0.0462,-1.176886 0.13843,-1.169631 0.22978,-1.155163 0.3197,-1.133575 0.40766,-1.104996 0.49309,-1.069606 0.5755,-1.027621 0.65435,-0.979301 0.72916,-0.924942 0.79949,-0.864881 0.86488,-0.799487 0.92494,-0.729166 0.9793,-0.654347 1.02762,-0.575496 1.06961,-0.493095 1.105,-0.407655 1.13357,-0.319701 1.15516,-0.229776 1.16963,-0.138435 L 225,80 l 1.17689,0.04624 1.16963,0.138435 1.15516,0.229776 1.13357,0.319701 1.105,0.407655 1.06961,0.493095 1.02762,0.575496 0.9793,0.654347 0.92494,0.729166 0.86488,0.799487 0.79949,0.864881 0.72916,0.924942 0.65435,0.979301 0.5755,1.027621 0.49309,1.069606 0.40766,1.104996 0.3197,1.133575 0.22978,1.155163 0.13843,1.169631 z"
       fill-opacity="1"
       id="path80"
       style="fill:#e2e250;fill-opacity:1" />
    <text
       fill="#000000"
       stroke="none"
       font-family="'Helvetica Neue', Helvetica, sans-serif"
       font-size="8px"
       font-style="normal"
       font-weight="normal"
       text-decoration="normal"
       x="225"
       y="80"
       text-anchor="middle"
       dominant-baseline="text-after-edge"
       fill-opacity="1"
       id="text82"
       style="font-size:10.5879px">AraB</text>
    <path
       fill="#5081e2"
       stroke="none"
       paint-order="stroke fill markers"
       d="m 370,175 -0.0462,1.17689 -0.13843,1.16963 -0.22978,1.15516 -0.3197,1.13357 -0.40766,1.105 -0.49309,1.06961 -0.5755,1.02762 -0.65435,0.9793 -0.72916,0.92494 -0.79949,0.86488 -0.86488,0.79949 -0.92494,0.72916 -0.9793,0.65435 -1.02762,0.5755 -1.06961,0.49309 -1.105,0.40766 -1.13357,0.3197 -1.15516,0.22978 -1.16963,0.13843 L 355,190 l -1.17689,-0.0462 -1.16963,-0.13843 -1.15516,-0.22978 -1.13357,-0.3197 -1.105,-0.40766 -1.06961,-0.49309 -1.02762,-0.5755 -0.9793,-0.65435 -0.92494,-0.72916 -0.86488,-0.79949 -0.79949,-0.86488 -0.72916,-0.92494 -0.65435,-0.9793 -0.5755,-1.02762 -0.49309,-1.06961 -0.40766,-1.105 -0.3197,-1.13357 -0.22978,-1.15516 -0.13843,-1.16963 L 340,175 l 0.0462,-1.17689 0.13843,-1.16963 0.22978,-1.15516 0.3197,-1.13357 0.40766,-1.105 0.49309,-1.06961 0.5755,-1.02762 0.65435,-0.9793 0.72916,-0.92494 0.79949,-0.86488 0.86488,-0.79949 0.92494,-0.72916 0.9793,-0.65435 1.02762,-0.5755 1.06961,-0.49309 1.105,-0.40766 1.13357,-0.3197 1.15516,-0.22978 1.16963,-0.13843 L 355,160 l 1.17689,0.0462 1.16963,0.13843 1.15516,0.22978 1.13357,0.3197 1.105,0.40766 1.06961,0.49309 1.02762,0.5755 0.9793,0.65435 0.92494,0.72916 0.86488,0.79949 0.79949,0.86488 0.72916,0.92494 0.65435,0.9793 0.5755,1.02762 0.49309,1.06961 0.40766,1.105 0.3197,1.13357 0.22978,1.15516 0.13843,1.16963 z"
       fill-opacity="1"
       id="path84"
       style="fill:#e2e250;fill-opacity:1" />
    <text
       fill="#000000"
       stroke="none"
       font-family="'Helvetica Neue', Helvetica, sans-serif"
       font-size="8px"
       font-style="normal"
       font-weight="normal"
       text-decoration="normal"
       x="355"
       y="160"
       text-anchor="middle"
       dominant-baseline="text-after-edge"
       fill-opacity="1"
       id="text86"
       style="font-size:10.5879px">AraD</text>
    <path
       fill="#8150e2"
       stroke="none"
       paint-order="stroke fill markers"
       d="m 40,95 -0.04624,1.176886 -0.138435,1.169631 -0.229776,1.155163 -0.319701,1.133575 -0.407655,1.104995 -0.493095,1.06961 -0.575496,1.02762 -0.654347,0.9793 -0.729166,0.92494 -0.799487,0.86488 -0.864881,0.79949 -0.924942,0.72916 -0.979301,0.65435 -1.027621,0.5755 -1.069606,0.49309 -1.104996,0.40766 -1.133575,0.3197 -1.155163,0.22978 -1.169631,0.13843 L 25,110 l -1.176886,-0.0462 -1.169631,-0.13843 -1.155163,-0.22978 -1.133575,-0.3197 -1.104996,-0.40766 -1.069606,-0.49309 -1.027621,-0.5755 -0.979301,-0.65435 -0.924942,-0.72916 -0.864881,-0.79949 -0.799487,-0.86488 -0.729166,-0.92494 -0.654347,-0.9793 -0.575496,-1.02762 -0.493095,-1.06961 L 10.734152,99.635255 10.414451,98.50168 10.184675,97.346517 10.04624,96.176886 10,95 l 0.04624,-1.176886 0.138435,-1.169631 0.229776,-1.155163 0.319701,-1.133575 0.407655,-1.104996 0.493095,-1.069606 0.575496,-1.027621 0.654347,-0.979301 0.729166,-0.924942 0.799487,-0.864881 0.864881,-0.799487 0.924942,-0.729166 0.979301,-0.654347 1.027621,-0.575496 1.069606,-0.493095 1.104996,-0.407655 1.133575,-0.319701 1.155163,-0.229776 L 23.823114,80.04624 25,80 l 1.176886,0.04624 1.169631,0.138435 1.155163,0.229776 1.133575,0.319701 1.104996,0.407655 1.069606,0.493095 1.027621,0.575496 0.979301,0.654347 0.924942,0.729166 0.864881,0.799487 0.799487,0.864881 0.729166,0.924942 0.654347,0.979301 0.575496,1.027621 0.493095,1.069606 0.407655,1.104996 0.319701,1.133575 0.229776,1.155163 0.138435,1.169631 z"
       fill-opacity="1"
       id="path88"
       style="fill:#fa8072;fill-opacity:1" />
    <text
       fill="#000000"
       stroke="none"
       font-family="'Helvetica Neue', Helvetica, sans-serif"
       font-size="8px"
       font-style="normal"
       font-weight="normal"
       text-decoration="normal"
       x="-24.425602"
       y="121.34759"
       text-anchor="middle"
       dominant-baseline="text-after-edge"
       fill-opacity="1"
       id="text90"
       style="font-size:10.5879px">l_arabinose_isomerase</text>
    <path
       fill="#50e281"
       stroke="none"
       paint-order="stroke fill markers"
       d="m 80,175 -0.04624,1.17689 -0.138435,1.16963 -0.229776,1.15516 -0.319701,1.13357 -0.407655,1.105 -0.493095,1.06961 -0.575496,1.02762 -0.654347,0.9793 -0.729166,0.92494 -0.799487,0.86488 -0.864881,0.79949 -0.924942,0.72916 -0.979301,0.65435 -1.027621,0.5755 -1.069606,0.49309 -1.104996,0.40766 -1.133575,0.3197 -1.155163,0.22978 -1.169631,0.13843 L 65,190 l -1.176886,-0.0462 -1.169631,-0.13843 -1.155163,-0.22978 -1.133575,-0.3197 -1.104996,-0.40766 -1.069606,-0.49309 -1.027621,-0.5755 -0.979301,-0.65435 -0.924942,-0.72916 -0.864881,-0.79949 -0.799487,-0.86488 -0.729166,-0.92494 -0.654347,-0.9793 -0.575496,-1.02762 -0.493095,-1.06961 -0.407655,-1.105 -0.319701,-1.13357 -0.229776,-1.15516 L 50.04624,176.17689 50,175 l 0.04624,-1.17689 0.138435,-1.16963 0.229776,-1.15516 0.319701,-1.13357 0.407655,-1.105 0.493095,-1.06961 0.575496,-1.02762 0.654347,-0.9793 0.729166,-0.92494 0.799487,-0.86488 0.864881,-0.79949 0.924942,-0.72916 0.979301,-0.65435 1.027621,-0.5755 1.069606,-0.49309 1.104996,-0.40766 1.133575,-0.3197 1.155163,-0.22978 1.169631,-0.13843 L 65,160 l 1.176886,0.0462 1.169631,0.13843 1.155163,0.22978 1.133575,0.3197 1.104996,0.40766 1.069606,0.49309 1.027621,0.5755 0.979301,0.65435 0.924942,0.72916 0.864881,0.79949 0.799487,0.86488 0.729166,0.92494 0.654347,0.9793 0.575496,1.02762 0.493095,1.06961 0.407655,1.105 0.319701,1.13357 0.229776,1.15516 0.138435,1.16963 z"
       fill-opacity="1"
       id="path92"
       style="fill:#a07be9;fill-opacity:1" />
    <text
       fill="#000000"
       stroke="none"
       font-family="'Helvetica Neue', Helvetica, sans-serif"
       font-size="8px"
       font-style="normal"
       font-weight="normal"
       text-decoration="normal"
       x="30.049374"
       y="162.2128"
       text-anchor="middle"
       dominant-baseline="text-after-edge"
       fill-opacity="1"
       id="text94"
       style="font-size:10.5879px">l_ribulose</text>
    <path
       fill="#50e281"
       stroke="none"
       paint-order="stroke fill markers"
       d="m 240.18417,257.52689 -0.0462,1.17689 -0.13844,1.16963 -0.22977,1.15516 -0.3197,1.13357 -0.40766,1.105 -0.49309,1.06961 -0.5755,1.02762 -0.65435,0.9793 -0.72916,0.92494 -0.79949,0.86488 -0.86488,0.79949 -0.92494,0.72916 -0.9793,0.65435 -1.02762,0.5755 -1.06961,0.49309 -1.105,0.40766 -1.13357,0.3197 -1.15517,0.22978 -1.16963,0.13843 -1.17688,0.0462 -1.17689,-0.0462 -1.16963,-0.13843 -1.15516,-0.22978 -1.13358,-0.3197 -1.10499,-0.40766 -1.06961,-0.49309 -1.02762,-0.5755 -0.9793,-0.65435 -0.92494,-0.72916 -0.86488,-0.79949 -0.79949,-0.86488 -0.72917,-0.92494 -0.65434,-0.9793 -0.5755,-1.02762 -0.4931,-1.06961 -0.40765,-1.105 -0.3197,-1.13357 -0.22978,-1.15516 -0.13843,-1.16963 -0.0462,-1.17689 0.0462,-1.17689 0.13843,-1.16963 0.22978,-1.15516 0.3197,-1.13357 0.40765,-1.105 0.4931,-1.06961 0.5755,-1.02762 0.65434,-0.9793 0.72917,-0.92494 0.79949,-0.86488 0.86488,-0.79949 0.92494,-0.72916 0.9793,-0.65435 1.02762,-0.5755 1.06961,-0.49309 1.10499,-0.40766 1.13358,-0.3197 1.15516,-0.22978 1.16963,-0.13843 1.17689,-0.0462 1.17688,0.0462 1.16963,0.13843 1.15517,0.22978 1.13357,0.3197 1.105,0.40766 1.06961,0.49309 1.02762,0.5755 0.9793,0.65435 0.92494,0.72916 0.86488,0.79949 0.79949,0.86488 0.72916,0.92494 0.65435,0.9793 0.5755,1.02762 0.49309,1.06961 0.40766,1.105 0.3197,1.13357 0.22977,1.15516 0.13844,1.16963 z"
       fill-opacity="1"
       id="path96"
       style="fill:#a07be9;fill-opacity:1" />
    <text
       fill="#000000"
       stroke="none"
       font-family="'Helvetica Neue', Helvetica, sans-serif"
       font-size="8px"
       font-style="normal"
       font-weight="normal"
       text-decoration="normal"
       x="225.18417"
       y="283.67508"
       text-anchor="middle"
       dominant-baseline="text-after-edge"
       fill-opacity="1"
       id="text98"
       style="font-size:10.5879px">hydrogen</text>
    <path
       fill="#50e281"
       stroke="none"
       paint-order="stroke fill markers"
       d="m 81.620754,258.97083 -0.04624,1.17688 -0.138435,1.16963 -0.229777,1.15517 -0.319701,1.13357 -0.407655,1.105 -0.493095,1.0696 -0.575495,1.02763 -0.654348,0.9793 -0.729165,0.92494 -0.799488,0.86488 -0.864881,0.79949 -0.924942,0.72916 -0.9793,0.65435 -1.027621,0.5755 -1.069606,0.49309 -1.104997,0.40765 -1.133574,0.31971 -1.155164,0.22977 -1.16963,0.13844 -1.176886,0.0462 -1.176887,-0.0462 -1.16963,-0.13844 -1.155164,-0.22977 -1.133574,-0.31971 -1.104997,-0.40765 -1.069606,-0.49309 -1.027621,-0.5755 -0.9793,-0.65435 -0.924942,-0.72916 -0.864881,-0.79949 -0.799488,-0.86488 -0.729165,-0.92494 -0.654348,-0.9793 -0.575495,-1.02763 -0.493095,-1.0696 -0.407655,-1.105 -0.319701,-1.13357 -0.229777,-1.15517 -0.138435,-1.16963 -0.04624,-1.17688 0.04624,-1.17689 0.138435,-1.16963 0.229777,-1.15516 0.319701,-1.13358 0.407655,-1.10499 0.493095,-1.06961 0.575495,-1.02762 0.654348,-0.9793 0.729165,-0.92494 0.799488,-0.86488 0.864881,-0.79949 0.924942,-0.72917 0.9793,-0.65435 1.027621,-0.57549 1.069606,-0.4931 1.104997,-0.40765 1.133574,-0.3197 1.155164,-0.22978 1.16963,-0.13843 1.176887,-0.0462 1.176886,0.0462 1.16963,0.13843 1.155164,0.22978 1.133574,0.3197 1.104997,0.40765 1.069606,0.4931 1.027621,0.57549 0.9793,0.65435 0.924942,0.72917 0.864881,0.79949 0.799488,0.86488 0.729165,0.92494 0.654348,0.9793 0.575495,1.02762 0.493095,1.06961 0.407655,1.10499 0.319701,1.13358 0.229777,1.15516 0.138435,1.16963 z"
       fill-opacity="1"
       id="path100"
       style="fill:#a07be9;fill-opacity:1" />
    <text
       fill="#000000"
       stroke="none"
       font-family="'Helvetica Neue', Helvetica, sans-serif"
       font-size="8px"
       font-style="normal"
       font-weight="normal"
       text-decoration="normal"
       x="66.62075"
       y="285.11899"
       text-anchor="middle"
       dominant-baseline="text-after-edge"
       fill-opacity="1"
       id="text102"
       style="font-size:10.5879px">ADP</text>
    <path
       fill="#50e281"
       stroke="none"
       paint-order="stroke fill markers"
       d="m 160,255 -0.0462,1.17689 -0.13843,1.16963 -0.22978,1.15516 -0.3197,1.13357 -0.40766,1.105 -0.49309,1.06961 -0.5755,1.02762 -0.65435,0.9793 -0.72916,0.92494 -0.79949,0.86488 -0.86488,0.79949 -0.92494,0.72916 -0.9793,0.65435 -1.02762,0.5755 -1.06961,0.49309 -1.105,0.40766 -1.13357,0.3197 -1.15516,0.22978 -1.16963,0.13843 L 145,270 l -1.17689,-0.0462 -1.16963,-0.13843 -1.15516,-0.22978 -1.13357,-0.3197 -1.105,-0.40766 -1.06961,-0.49309 -1.02762,-0.5755 -0.9793,-0.65435 -0.92494,-0.72916 -0.86488,-0.79949 -0.79949,-0.86488 -0.72916,-0.92494 -0.65435,-0.9793 -0.5755,-1.02762 -0.49309,-1.06961 -0.40766,-1.105 -0.3197,-1.13357 -0.22978,-1.15516 -0.13843,-1.16963 L 130,255 l 0.0462,-1.17689 0.13843,-1.16963 0.22978,-1.15516 0.3197,-1.13357 0.40766,-1.105 0.49309,-1.06961 0.5755,-1.02762 0.65435,-0.9793 0.72916,-0.92494 0.79949,-0.86488 0.86488,-0.79949 0.92494,-0.72916 0.9793,-0.65435 1.02762,-0.5755 1.06961,-0.49309 1.105,-0.40766 1.13357,-0.3197 1.15516,-0.22978 1.16963,-0.13843 L 145,240 l 1.17689,0.0462 1.16963,0.13843 1.15516,0.22978 1.13357,0.3197 1.105,0.40766 1.06961,0.49309 1.02762,0.5755 0.9793,0.65435 0.92494,0.72916 0.86488,0.79949 0.79949,0.86488 0.72916,0.92494 0.65435,0.9793 0.5755,1.02762 0.49309,1.06961 0.40766,1.105 0.3197,1.13357 0.22978,1.15516 0.13843,1.16963 z"
       fill-opacity="1"
       id="path104"
       style="fill:#a07be9;fill-opacity:1" />
    <text
       fill="#000000"
       stroke="none"
       font-family="'Helvetica Neue', Helvetica, sans-serif"
       font-size="8px"
       font-style="normal"
       font-weight="normal"
       text-decoration="normal"
       x="145"
       y="281.14825"
       text-anchor="middle"
       dominant-baseline="text-after-edge"
       fill-opacity="1"
       id="text106"
       style="font-size:10.5879px">rib5p</text>
    <path
       fill="#50e281"
       stroke="none"
       paint-order="stroke fill markers"
       d="m 160,175 -0.0462,1.17689 -0.13843,1.16963 -0.22978,1.15516 -0.3197,1.13357 -0.40766,1.105 -0.49309,1.06961 -0.5755,1.02762 -0.65435,0.9793 -0.72916,0.92494 -0.79949,0.86488 -0.86488,0.79949 -0.92494,0.72916 -0.9793,0.65435 -1.02762,0.5755 -1.06961,0.49309 -1.105,0.40766 -1.13357,0.3197 -1.15516,0.22978 -1.16963,0.13843 L 145,190 l -1.17689,-0.0462 -1.16963,-0.13843 -1.15516,-0.22978 -1.13357,-0.3197 -1.105,-0.40766 -1.06961,-0.49309 -1.02762,-0.5755 -0.9793,-0.65435 -0.92494,-0.72916 -0.86488,-0.79949 -0.79949,-0.86488 -0.72916,-0.92494 -0.65435,-0.9793 -0.5755,-1.02762 -0.49309,-1.06961 -0.40766,-1.105 -0.3197,-1.13357 -0.22978,-1.15516 -0.13843,-1.16963 L 130,175 l 0.0462,-1.17689 0.13843,-1.16963 0.22978,-1.15516 0.3197,-1.13357 0.40766,-1.105 0.49309,-1.06961 0.5755,-1.02762 0.65435,-0.9793 0.72916,-0.92494 0.79949,-0.86488 0.86488,-0.79949 0.92494,-0.72916 0.9793,-0.65435 1.02762,-0.5755 1.06961,-0.49309 1.105,-0.40766 1.13357,-0.3197 1.15516,-0.22978 1.16963,-0.13843 L 145,160 l 1.17689,0.0462 1.16963,0.13843 1.15516,0.22978 1.13357,0.3197 1.105,0.40766 1.06961,0.49309 1.02762,0.5755 0.9793,0.65435 0.92494,0.72916 0.86488,0.79949 0.79949,0.86488 0.72916,0.92494 0.65435,0.9793 0.5755,1.02762 0.49309,1.06961 0.40766,1.105 0.3197,1.13357 0.22978,1.15516 0.13843,1.16963 z"
       fill-opacity="1"
       id="path108"
       style="fill:#a07be9;fill-opacity:1" />
    <text
       fill="#000000"
       stroke="none"
       font-family="'Helvetica Neue', Helvetica, sans-serif"
       font-size="8px"
       font-style="normal"
       font-weight="normal"
       text-decoration="normal"
       x="145"
       y="162.16573"
       text-anchor="middle"
       dominant-baseline="text-after-edge"
       fill-opacity="1"
       id="text110"
       style="font-size:10.5879px">ATP</text>
    <path
       fill="#8150e2"
       stroke="none"
       paint-order="stroke fill markers"
       d="m 240,175 -0.0462,1.17689 -0.13843,1.16963 -0.22978,1.15516 -0.3197,1.13357 -0.40766,1.105 -0.49309,1.06961 -0.5755,1.02762 -0.65435,0.9793 -0.72916,0.92494 -0.79949,0.86488 -0.86488,0.79949 -0.92494,0.72916 -0.9793,0.65435 -1.02762,0.5755 -1.06961,0.49309 -1.105,0.40766 -1.13357,0.3197 -1.15516,0.22978 -1.16963,0.13843 L 225,190 l -1.17689,-0.0462 -1.16963,-0.13843 -1.15516,-0.22978 -1.13357,-0.3197 -1.105,-0.40766 -1.06961,-0.49309 -1.02762,-0.5755 -0.9793,-0.65435 -0.92494,-0.72916 -0.86488,-0.79949 -0.79949,-0.86488 -0.72916,-0.92494 -0.65435,-0.9793 -0.5755,-1.02762 -0.49309,-1.06961 -0.40766,-1.105 -0.3197,-1.13357 -0.22978,-1.15516 -0.13843,-1.16963 L 210,175 l 0.0462,-1.17689 0.13843,-1.16963 0.22978,-1.15516 0.3197,-1.13357 0.40766,-1.105 0.49309,-1.06961 0.5755,-1.02762 0.65435,-0.9793 0.72916,-0.92494 0.79949,-0.86488 0.86488,-0.79949 0.92494,-0.72916 0.9793,-0.65435 1.02762,-0.5755 1.06961,-0.49309 1.105,-0.40766 1.13357,-0.3197 1.15516,-0.22978 1.16963,-0.13843 L 225,160 l 1.17689,0.0462 1.16963,0.13843 1.15516,0.22978 1.13357,0.3197 1.105,0.40766 1.06961,0.49309 1.02762,0.5755 0.9793,0.65435 0.92494,0.72916 0.86488,0.79949 0.79949,0.86488 0.72916,0.92494 0.65435,0.9793 0.5755,1.02762 0.49309,1.06961 0.40766,1.105 0.3197,1.13357 0.22978,1.15516 0.13843,1.16963 z"
       fill-opacity="1"
       id="path112"
       style="fill:#fa8072;fill-opacity:1" />
    <text
       fill="#000000"
       stroke="none"
       font-family="'Helvetica Neue', Helvetica, sans-serif"
       font-size="8px"
       font-style="normal"
       font-weight="normal"
       text-decoration="normal"
       x="256.04205"
       y="162.16573"
       text-anchor="middle"
       dominant-baseline="text-after-edge"
       fill-opacity="1"
       id="text114"
       style="font-size:10.5879px">ribulokinase</text>
    <path
       fill="#50e281"
       stroke="none"
       paint-order="stroke fill markers"
       d="m 271.12126,333.19508 -0.0462,1.17688 -0.13844,1.16964 -0.22977,1.15516 -0.31971,1.13357 -0.40765,1.105 -0.4931,1.06961 -0.57549,1.02762 -0.65435,0.9793 -0.72916,0.92494 -0.79949,0.86488 -0.86488,0.79949 -0.92494,0.72916 -0.9793,0.65435 -1.02763,0.5755 -1.0696,0.49309 -1.105,0.40766 -1.13357,0.3197 -1.15517,0.22977 -1.16963,0.13844 -1.17688,0.0462 -1.17689,-0.0462 -1.16963,-0.13844 -1.15516,-0.22977 -1.13358,-0.3197 -1.10499,-0.40766 -1.06961,-0.49309 -1.02762,-0.5755 -0.9793,-0.65435 -0.92494,-0.72916 -0.86488,-0.79949 -0.79949,-0.86488 -0.72917,-0.92494 -0.65435,-0.9793 -0.57549,-1.02762 -0.4931,-1.06961 -0.40765,-1.105 -0.3197,-1.13357 -0.22978,-1.15516 -0.13843,-1.16964 -0.0462,-1.17688 0.0462,-1.17689 0.13843,-1.16963 0.22978,-1.15516 0.3197,-1.13358 0.40765,-1.10499 0.4931,-1.06961 0.57549,-1.02762 0.65435,-0.9793 0.72917,-0.92494 0.79949,-0.86488 0.86488,-0.79949 0.92494,-0.72917 0.9793,-0.65434 1.02762,-0.5755 1.06961,-0.49309 1.10499,-0.40766 1.13358,-0.3197 1.15516,-0.22978 1.16963,-0.13843 1.17689,-0.0462 1.17688,0.0462 1.16963,0.13843 1.15517,0.22978 1.13357,0.3197 1.105,0.40766 1.0696,0.49309 1.02763,0.5755 0.9793,0.65434 0.92494,0.72917 0.86488,0.79949 0.79949,0.86488 0.72916,0.92494 0.65435,0.9793 0.57549,1.02762 0.4931,1.06961 0.40765,1.10499 0.31971,1.13358 0.22977,1.15516 0.13844,1.16963 z"
       fill-opacity="1"
       id="path116"
       style="fill:#a07be9;fill-opacity:1" />
    <text
       fill="#000000"
       stroke="none"
       font-family="'Helvetica Neue', Helvetica, sans-serif"
       font-size="8px"
       font-style="normal"
       font-weight="normal"
       text-decoration="normal"
       x="256.12125"
       y="318.19507"
       text-anchor="middle"
       dominant-baseline="text-after-edge"
       fill-opacity="1"
       id="text118"
       style="font-size:10.5879px">Xyl5p</text>
    <path
       fill="#50e281"
       stroke="none"
       paint-order="stroke fill markers"
       d="m 120,95 -0.0462,1.176886 -0.13843,1.169631 -0.22978,1.155163 -0.3197,1.133575 -0.40766,1.104995 -0.49309,1.06961 -0.5755,1.02762 -0.65435,0.9793 -0.72916,0.92494 -0.79949,0.86488 -0.86488,0.79949 -0.92494,0.72916 -0.9793,0.65435 -1.02762,0.5755 -1.06961,0.49309 -1.105,0.40766 -1.13357,0.3197 -1.15516,0.22978 -1.16963,0.13843 L 105,110 l -1.17689,-0.0462 -1.16963,-0.13843 -1.15516,-0.22978 -1.13357,-0.3197 -1.105001,-0.40766 -1.069606,-0.49309 -1.027621,-0.5755 -0.979301,-0.65435 -0.924942,-0.72916 -0.864881,-0.79949 -0.799487,-0.86488 -0.729166,-0.92494 -0.654347,-0.9793 -0.575496,-1.02762 -0.493095,-1.06961 L 90.734152,99.635255 90.414451,98.50168 90.184675,97.346517 90.04624,96.176886 90,95 l 0.04624,-1.176886 0.138435,-1.169631 0.229776,-1.155163 0.319701,-1.133575 0.407655,-1.104996 0.493095,-1.069606 0.575496,-1.027621 0.654347,-0.979301 0.729166,-0.924942 0.799487,-0.864881 0.864881,-0.799487 0.924942,-0.729166 0.979301,-0.654347 1.027621,-0.575496 1.069606,-0.493095 1.105001,-0.407655 1.13357,-0.319701 1.15516,-0.229776 1.16963,-0.138435 L 105,80 l 1.17689,0.04624 1.16963,0.138435 1.15516,0.229776 1.13357,0.319701 1.105,0.407655 1.06961,0.493095 1.02762,0.575496 0.9793,0.654347 0.92494,0.729166 0.86488,0.799487 0.79949,0.864881 0.72916,0.924942 0.65435,0.979301 0.5755,1.027621 0.49309,1.069606 0.40766,1.104996 0.3197,1.133575 0.22978,1.155163 0.13843,1.169631 z"
       fill-opacity="1"
       id="path120"
       style="fill:#a07be9;fill-opacity:1" />
    <text
       fill="#000000"
       stroke="none"
       font-family="'Helvetica Neue', Helvetica, sans-serif"
       font-size="8px"
       font-style="normal"
       font-weight="normal"
       text-decoration="normal"
       x="125.59549"
       y="123.28763"
       text-anchor="middle"
       dominant-baseline="text-after-edge"
       fill-opacity="1"
       id="text122"
       style="font-size:10.5879px">l_arabinose</text>
    <path
       fill="#8150e2"
       stroke="none"
       paint-order="stroke fill markers"
       d="m 370,255 -0.0462,1.17689 -0.13843,1.16963 -0.22978,1.15516 -0.3197,1.13357 -0.40766,1.105 -0.49309,1.06961 -0.5755,1.02762 -0.65435,0.9793 -0.72916,0.92494 -0.79949,0.86488 -0.86488,0.79949 -0.92494,0.72916 -0.9793,0.65435 -1.02762,0.5755 -1.06961,0.49309 -1.105,0.40766 -1.13357,0.3197 -1.15516,0.22978 -1.16963,0.13843 L 355,270 l -1.17689,-0.0462 -1.16963,-0.13843 -1.15516,-0.22978 -1.13357,-0.3197 -1.105,-0.40766 -1.06961,-0.49309 -1.02762,-0.5755 -0.9793,-0.65435 -0.92494,-0.72916 -0.86488,-0.79949 -0.79949,-0.86488 -0.72916,-0.92494 -0.65435,-0.9793 -0.5755,-1.02762 -0.49309,-1.06961 -0.40766,-1.105 -0.3197,-1.13357 -0.22978,-1.15516 -0.13843,-1.16963 L 340,255 l 0.0462,-1.17689 0.13843,-1.16963 0.22978,-1.15516 0.3197,-1.13357 0.40766,-1.105 0.49309,-1.06961 0.5755,-1.02762 0.65435,-0.9793 0.72916,-0.92494 0.79949,-0.86488 0.86488,-0.79949 0.92494,-0.72916 0.9793,-0.65435 1.02762,-0.5755 1.06961,-0.49309 1.105,-0.40766 1.13357,-0.3197 1.15516,-0.22978 1.16963,-0.13843 L 355,240 l 1.17689,0.0462 1.16963,0.13843 1.15516,0.22978 1.13357,0.3197 1.105,0.40766 1.06961,0.49309 1.02762,0.5755 0.9793,0.65435 0.92494,0.72916 0.86488,0.79949 0.79949,0.86488 0.72916,0.92494 0.65435,0.9793 0.5755,1.02762 0.49309,1.06961 0.40766,1.105 0.3197,1.13357 0.22978,1.15516 0.13843,1.16963 z"
       fill-opacity="1"
       id="path124"
       style="fill:#fa8072;fill-opacity:1" />
    <text
       fill="#000000"
       stroke="none"
       font-family="'Helvetica Neue', Helvetica, sans-serif"
       font-size="8px"
       font-style="normal"
       font-weight="normal"
       text-decoration="normal"
       x="384.33588"
       y="281.96286"
       text-anchor="middle"
       dominant-baseline="text-after-edge"
       fill-opacity="1"
       id="text126"
       style="font-size:10.5879px">rib5p_4_epimerase</text>
    <g
       transform="matrix(0.3609516,0,0,0.3609516,-98.460435,-8.9990193)"
       id="g128" />
  </g>
  <g
     transform="matrix(1.4511905,0,0,1.4511905,2083.3914,-31.342132)"
     id="g170">
    <g
       transform="matrix(0.68908942,0,0,0.68908942,-361.85448,-15.692344)"
       id="g168" />
    <g
       transform="matrix(1.0725989,-2.13846,2.13846,1.0725989,-4742.0024,2388.6526)"
       id="g138">
      <g
         transform="matrix(0.49896716,0,0,0.49896716,646.66531,243.82713)"
         id="g136" />
      <g
         id="g1778"
         transform="matrix(0.37416109,0.74597176,-0.74597176,0.37416109,1587.8209,587.36003)">
        <text
           xml:space="preserve"
           transform="matrix(0.53875344,0,0,0.53875344,-169.3424,189.42348)"
           id="text3637-4"
           style="font-style:normal;font-weight:normal;font-size:37.3333px;line-height:1.25;font-family:sans-serif;white-space:pre;shape-inside:url(#rect3639-3);fill:#000000;fill-opacity:1;stroke:none"><tspan
             x="1443.0723"
             y="73.013644"
             id="tspan3240">Node Color</tspan></text>
        <text
           xml:space="preserve"
           transform="matrix(0.53875344,0,0,0.53875344,-171.30482,274.57714)"
           id="text3637-7-7"
           style="font-style:normal;font-weight:normal;font-size:37.3333px;line-height:1.25;font-family:sans-serif;white-space:pre;shape-inside:url(#rect3639-5-6);fill:#000000;fill-opacity:1;stroke:none"><tspan
             x="1443.0723"
             y="73.013644"
             id="tspan3242">Edge Color</tspan></text>
        <rect
           id="rect18643-7-6"
           width="29.16246"
           height="8.8964348"
           x="612.1308"
           y="236.3336"
           style="fill:#e2e250;fill-opacity:1;stroke:none;stroke-width:0.365162;stroke-miterlimit:4;stroke-dasharray:none;stroke-opacity:1"
           ry="1.5751116" />
        <text
           xml:space="preserve"
           transform="matrix(0.53875344,0,0,0.53875344,-124.17624,213.1978)"
           id="text27183-1-5"
           style="font-style:normal;font-weight:normal;font-size:21.3333px;line-height:1.25;font-family:sans-serif;white-space:pre;shape-inside:url(#rect27185-7-7);fill:#000000;fill-opacity:1;stroke:none"><tspan
             x="1443.0723"
             y="58.857392"
             id="tspan3244">CDS</tspan></text>
        <rect
           id="rect18643-7-1-9-6"
           width="29.16246"
           height="8.8964348"
           x="612.35413"
           y="251.39667"
           style="fill:#5081e2;fill-opacity:1;stroke:none;stroke-width:0.365162;stroke-miterlimit:4;stroke-dasharray:none;stroke-opacity:1"
           ry="1.5751116" />
        <text
           xml:space="preserve"
           transform="matrix(0.53875344,0,0,0.53875344,-123.95295,228.26088)"
           id="text27183-1-7-8-9"
           style="font-style:normal;font-weight:normal;font-size:21.3333px;line-height:1.25;font-family:sans-serif;white-space:pre;shape-inside:url(#rect27185-7-6-9-5);fill:#000000;fill-opacity:1;stroke:none"><tspan
             x="1443.0723"
             y="58.857392"
             id="tspan3246">Pathway</tspan></text>
        <rect
           id="rect18643-7-1-9-6-6"
           width="29.16246"
           height="8.8964348"
           x="612.0473"
           y="266.79379"
           style="fill:#fa8072;fill-opacity:1;stroke:none;stroke-width:0.365162;stroke-miterlimit:4;stroke-dasharray:none;stroke-opacity:1"
           ry="1.5751116" />
        <text
           xml:space="preserve"
           transform="matrix(0.53875344,0,0,0.53875344,-124.25869,243.65799)"
           id="text27183-1-7-8-9-7"
           style="font-style:normal;font-weight:normal;font-size:21.3333px;line-height:1.25;font-family:sans-serif;white-space:pre;shape-inside:url(#rect27185-7-6-9-5-3);fill:#000000;fill-opacity:1;stroke:none"><tspan
             x="1443.0723"
             y="58.857392"
             id="tspan3248">Protein</tspan></text>
        <rect
           id="rect18643-7-1-9-6-5"
           width="29.16246"
           height="8.8964348"
           x="612.0473"
           y="281.52429"
           style="fill:#a07be9;fill-opacity:1;stroke:none;stroke-width:0.365162;stroke-miterlimit:4;stroke-dasharray:none;stroke-opacity:1"
           ry="1.5751116" />
        <text
           xml:space="preserve"
           transform="matrix(0.53875344,0,0,0.53875344,-124.25978,258.38852)"
           id="text27183-1-7-8-9-6"
           style="font-style:normal;font-weight:normal;font-size:21.3333px;line-height:1.25;font-family:sans-serif;white-space:pre;shape-inside:url(#rect27185-7-6-9-5-5);fill:#000000;fill-opacity:1;stroke:none"><tspan
             x="1443.0723"
             y="58.857392"
             id="tspan3250">Small Molecule</tspan></text>
        <rect
           id="rect18643-9-5"
           width="29.16246"
           height="8.8964348"
           x="610.60895"
           y="323.42105"
           style="fill:#e2e250;fill-opacity:1;stroke:none;stroke-width:0.365162;stroke-miterlimit:4;stroke-dasharray:none;stroke-opacity:1"
           ry="1.5751116" />
        <text
           xml:space="preserve"
           transform="matrix(0.53875344,0,0,0.53875344,-125.6981,300.28539)"
           id="text27183-2-2"
           style="font-style:normal;font-weight:normal;font-size:21.3333px;line-height:1.25;font-family:sans-serif;white-space:pre;shape-inside:url(#rect27185-4-5);fill:#000000;fill-opacity:1;stroke:none"><tspan
             x="1443.0723"
             y="58.857392"
             id="tspan3252">Protein Production</tspan></text>
        <rect
           id="rect18643-7-1-5"
           width="29.16246"
           height="8.8964348"
           x="611.02997"
           y="337.78949"
           style="fill:#a07be9;fill-opacity:1;stroke:none;stroke-width:0.365162;stroke-miterlimit:4;stroke-dasharray:none;stroke-opacity:1"
           ry="1.5751116" />
        <text
           xml:space="preserve"
           transform="matrix(0.53875344,0,0,0.53875344,-125.27708,314.65383)"
           id="text27183-1-1-4"
           style="font-style:normal;font-weight:normal;font-size:21.3333px;line-height:1.25;font-family:sans-serif;white-space:pre;shape-inside:url(#rect27185-7-8-6);fill:#000000;fill-opacity:1;stroke:none"><tspan
             x="1443.0723"
             y="58.857392"
             id="tspan3254">Conversion</tspan></text>
        <rect
           id="rect18643-9-5-2"
           width="29.16246"
           height="8.8964348"
           x="611.02997"
           y="352.52002"
           style="fill:#2ad4ff;fill-opacity:1;stroke:none;stroke-width:0.365162;stroke-miterlimit:4;stroke-dasharray:none;stroke-opacity:1"
           ry="1.5751116" />
        <text
           xml:space="preserve"
           transform="matrix(0.53875344,0,0,0.53875344,-125.27707,329.38437)"
           id="text27183-2-2-3"
           style="font-style:normal;font-weight:normal;font-size:21.3333px;line-height:1.25;font-family:sans-serif;white-space:pre;shape-inside:url(#rect27185-4-5-0);fill:#000000;fill-opacity:1;stroke:none"><tspan
             x="1443.0723"
             y="58.857392"
             id="tspan3256">Activation</tspan></text>
      </g>
    </g>
  </g>
</svg>
