<?xml version="1.0" encoding="UTF-8" standalone="no"?>
<svg
   version="1.1"
   width="654.04584"
   height="821.47961"
   id="svg132"
   sodipodi:docname="3_arabinose-pathway--compound.svg"
   inkscape:version="1.1.1 (26b7af14f2, 2022-01-19)"
   xmlns:inkscape="http://www.inkscape.org/namespaces/inkscape"
   xmlns:sodipodi="http://sodipodi.sourceforge.net/DTD/sodipodi-0.dtd"
   xmlns="http://www.w3.org/2000/svg"
   xmlns:svg="http://www.w3.org/2000/svg">
  <sodipodi:namedview
     id="namedview134"
     pagecolor="#ffffff"
     bordercolor="#666666"
     borderopacity="1.0"
     inkscape:pageshadow="2"
     inkscape:pageopacity="0.0"
     inkscape:pagecheckerboard="0"
     showgrid="false"
     inkscape:zoom="0.84361023"
     inkscape:cx="-178.99261"
     inkscape:cy="532.82901"
     inkscape:window-width="2492"
     inkscape:window-height="1376"
     inkscape:window-x="1988"
     inkscape:window-y="27"
     inkscape:window-maximized="1"
     inkscape:current-layer="g130" />
  <defs
     id="defs2">
    <rect
       x="1443.0721"
       y="39.982376"
       width="235.68906"
       height="103.2741"
       id="rect3639-3" />
    <rect
       x="1443.0721"
       y="39.982376"
       width="235.68906"
       height="103.2741"
       id="rect3639-5-6" />
    <rect
       x="1443.0721"
       y="39.982376"
       width="235.68906"
       height="103.2741"
       id="rect27185-7-7" />
    <rect
       x="1443.0721"
       y="39.982376"
       width="235.68906"
       height="103.2741"
       id="rect27185-7-6-9-5" />
    <rect
       x="1443.0721"
       y="39.982376"
       width="235.68906"
       height="103.2741"
       id="rect27185-4-5" />
    <rect
       x="1443.0721"
       y="39.982376"
       width="235.68906"
       height="103.2741"
       id="rect27185-7-8-6" />
    <rect
       x="1443.0721"
       y="39.982376"
       width="235.68906"
       height="103.2741"
       id="rect27185-7-6-9-5-3" />
    <rect
       x="1443.0721"
       y="39.982376"
       width="235.68906"
       height="103.2741"
       id="rect27185-7-6-9-5-5" />
    <rect
       x="1443.0721"
       y="39.982376"
       width="235.68906"
       height="103.2741"
       id="rect27185-7-6-9-5-3-3" />
    <rect
       x="1443.0721"
       y="39.982376"
       width="235.68906"
       height="103.2741"
       id="rect3639-3-2" />
    <rect
       x="1443.0721"
       y="39.982376"
       width="235.68906"
       height="103.2741"
       id="rect27185-7-7-7" />
    <rect
       x="1443.0721"
       y="39.982376"
       width="235.68906"
       height="103.2741"
       id="rect27185-7-6-9-5-0" />
    <rect
       x="1443.0721"
       y="39.982376"
       width="235.68906"
       height="103.2741"
       id="rect27185-7-6-9-4-3" />
    <rect
       x="1443.0721"
       y="39.982376"
       width="235.68906"
       height="103.2741"
       id="rect27185-7-6-9-4-9-1" />
    <rect
       x="1443.0721"
       y="39.982376"
       width="235.68906"
       height="103.2741"
       id="rect27185-7-6-9-4-9-5-2" />
    <rect
       x="1443.0721"
       y="39.982376"
       width="235.68906"
       height="103.2741"
       id="rect3639-7" />
    <rect
       x="1443.0721"
       y="39.982376"
       width="235.68906"
       height="103.2741"
       id="rect27598" />
    <rect
       x="1443.0721"
       y="39.982376"
       width="235.68906"
       height="103.2741"
       id="rect3639-3-5" />
    <rect
       x="1443.0721"
       y="39.982376"
       width="235.68906"
       height="103.2741"
       id="rect3639-5-6-9" />
    <rect
       x="1443.0721"
       y="39.982376"
       width="235.68906"
       height="103.2741"
       id="rect27185-7-7-3" />
    <rect
       x="1443.0721"
       y="39.982376"
       width="235.68906"
       height="103.2741"
       id="rect27185-7-6-9-5-5-3" />
    <rect
       x="1443.0721"
       y="39.982376"
       width="235.68906"
       height="103.2741"
       id="rect27185-7-6-9-4-3-6" />
    <rect
       x="1443.0721"
       y="39.982376"
       width="235.68906"
       height="103.2741"
       id="rect27185-4-5-6" />
    <rect
       x="1443.0721"
       y="39.982376"
       width="235.68906"
       height="103.2741"
       id="rect27185-7-8-6-0" />
    <rect
       x="1443.0721"
       y="39.982376"
       width="235.68906"
       height="103.2741"
       id="rect27185-7-6-9-8-2" />
    <rect
       x="1443.0721"
       y="39.982376"
       width="235.68906"
       height="103.2741"
       id="rect27185-7-6-9-4-1-9" />
    <rect
       x="1443.0721"
       y="39.982376"
       width="235.68906"
       height="103.2741"
       id="rect27185-7-6-9-4-9-1-2" />
    <rect
       x="1443.0721"
       y="39.982376"
       width="235.68906"
       height="103.2741"
       id="rect27185-7-6-9-4-9-5-2-9" />
    <rect
       x="1443.0721"
       y="39.982376"
       width="235.68906"
       height="103.2741"
       id="rect27185-7-8-6-2" />
    <rect
       x="1443.0721"
       y="39.982376"
       width="235.68906"
       height="103.2741"
       id="rect27185-4-5-0" />
    <rect
       x="1443.0721"
       y="39.982376"
       width="235.68906"
       height="103.2741"
       id="rect27185-7-8-6-2-7" />
    <rect
       x="1443.0721"
       y="39.982376"
       width="235.68906"
       height="103.2741"
       id="rect27185-4-5-0-8" />
    <rect
       x="1443.0721"
       y="39.982376"
       width="235.68906"
       height="103.2741"
       id="rect27185-7-6-9-5-3-6" />
    <rect
       x="1443.0721"
       y="39.982376"
       width="235.68906"
       height="103.2741"
       id="rect27185-7-6-9-5-5-1" />
    <rect
       x="1443.0721"
       y="39.982376"
       width="235.68906"
       height="103.2741"
       id="rect27185-7-6-9-5-5-1-0" />
  </defs>
  <g
     transform="matrix(2.7704545,0,0,2.7704545,-98.040633,-170.22443)"
     id="g130">
    <path
       fill="none"
       stroke="#e28150"
       paint-order="fill stroke markers"
       d="M 78.334355,181.86986 211.84981,250.65703"
       stroke-opacity="1"
       stroke-linejoin="round"
       stroke-miterlimit="10"
       stroke-width="3"
       id="path12"
       style="stroke:#a07be9;stroke-opacity:1" />
    <path
       fill="#e28150"
       stroke="none"
       paint-order="stroke fill markers"
       d="m 135.3659,216.14589 9.72618,0.11756 -5.74166,-7.85149 z"
       fill-opacity="1"
       id="path14"
       style="fill:#a07be9;fill-opacity:1" />
    <path
       fill="none"
       stroke="#e28150"
       paint-order="fill stroke markers"
       d="m 64.355611,189.99219 0.02192,53.98645"
       stroke-opacity="1"
       stroke-linejoin="round"
       stroke-miterlimit="10"
       stroke-width="3"
       id="path16"
       style="stroke:#a07be9;stroke-opacity:1" />
    <path
       fill="#e28150"
       stroke="none"
       paint-order="stroke fill markers"
       d="m 60.103364,208.41 4.350553,8.69972 4.349447,-8.70027 z"
       fill-opacity="1"
       id="path18"
       style="fill:#a07be9;fill-opacity:1" />
    <path
       fill="none"
       stroke="#e28150"
       paint-order="fill stroke markers"
       d="m 64.455045,270.36129 0.02192,57.59595"
       stroke-opacity="1"
       stroke-linejoin="round"
       stroke-miterlimit="10"
       stroke-width="3.09867"
       id="path16-3"
       style="stroke:#a07be9;stroke-opacity:1" />
    <path
       fill="#e28150"
       stroke="none"
       paint-order="stroke fill markers"
       d="m 60.035771,292.41534 4.350553,8.69972 4.349447,-8.70027 z"
       fill-opacity="1"
       id="path18-6"
       style="fill:#a07be9;fill-opacity:1" />
    <path
       fill="none"
       stroke="#e28150"
       paint-order="fill stroke markers"
       d="M 75.606602,185.6066 134.3934,244.3934"
       stroke-opacity="1"
       stroke-linejoin="round"
       stroke-miterlimit="10"
       stroke-width="3"
       id="path20"
       style="stroke:#a07be9;stroke-opacity:1" />
    <path
       fill="#e28150"
       stroke="none"
       paint-order="stroke fill markers"
       d="M 95.772257,211.92409 105,215 l -3.07591,-9.22774 z"
       fill-opacity="1"
       id="path22"
       style="fill:#a07be9;fill-opacity:1" />
    <path
       fill="none"
       stroke="#e28150"
       paint-order="fill stroke markers"
       d="m 155.4528,185.7582 59.27856,61.01049"
       stroke-opacity="1"
       stroke-linejoin="round"
       stroke-miterlimit="10"
       stroke-width="3"
       id="path28"
       style="stroke:#a07be9;stroke-opacity:1" />
    <path
       fill="#e28150"
       stroke="none"
       paint-order="stroke fill markers"
       d="m 175.90958,213.055 9.1825,3.20845 -2.94274,-9.27107 z"
       fill-opacity="1"
       id="path30"
       style="fill:#a07be9;fill-opacity:1" />
    <path
       fill="none"
       stroke="#e28150"
       paint-order="fill stroke markers"
       d="m 134.76477,185.96541 -58.903636,63.2637"
       stroke-opacity="1"
       stroke-linejoin="round"
       stroke-miterlimit="10"
       stroke-width="3.05535"
       id="path32"
       style="stroke:#a07be9;stroke-opacity:1" />
    <path
       fill="#e28150"
       stroke="none"
       paint-order="stroke fill markers"
       d="m 108.56684,207.65726 -2.75646,9.32815 9.1164,-3.39172 z"
       fill-opacity="1"
       id="path34"
       style="fill:#a07be9;fill-opacity:1" />
    <path
       fill="none"
       stroke="#e28150"
       paint-order="fill stroke markers"
       d="m 145,190 v 50"
       stroke-opacity="1"
       stroke-linejoin="round"
       stroke-miterlimit="10"
       stroke-width="3"
       id="path36"
       style="stroke:#a07be9;stroke-opacity:1" />
    <path
       fill="#e28150"
       stroke="none"
       paint-order="stroke fill markers"
       d="m 140.65,206.3 4.35,8.7 4.35,-8.7 z"
       fill-opacity="1"
       id="path38"
       style="fill:#a07be9;fill-opacity:1" />
    <path
       fill="none"
       stroke="#e28150"
       paint-order="fill stroke markers"
       d="m 64.025719,105.27867 0.07819,59.44266"
       stroke-opacity="1"
       stroke-linejoin="round"
       stroke-miterlimit="10"
       stroke-width="3"
       id="path56"
       style="stroke:#a07be9;stroke-opacity:1" />
    <path
       fill="#e28150"
       stroke="none"
       paint-order="stroke fill markers"
       d="m 59.804131,127.44073 4.314696,8.71757 4.385233,-8.68229 z"
       fill-opacity="1"
       id="path58"
       style="fill:#a07be9;fill-opacity:1" />
    <path
       fill="#50e281"
       stroke="none"
       paint-order="stroke fill markers"
       d="m 80,175 -0.04624,1.17689 -0.138435,1.16963 -0.229776,1.15516 -0.319701,1.13357 -0.407655,1.105 -0.493095,1.06961 -0.575496,1.02762 -0.654347,0.9793 -0.729166,0.92494 -0.799487,0.86488 -0.864881,0.79949 -0.924942,0.72916 -0.979301,0.65435 -1.027621,0.5755 -1.069606,0.49309 -1.104996,0.40766 -1.133575,0.3197 -1.155163,0.22978 -1.169631,0.13843 L 65,190 l -1.176886,-0.0462 -1.169631,-0.13843 -1.155163,-0.22978 -1.133575,-0.3197 -1.104996,-0.40766 -1.069606,-0.49309 -1.027621,-0.5755 -0.979301,-0.65435 -0.924942,-0.72916 -0.864881,-0.79949 -0.799487,-0.86488 -0.729166,-0.92494 -0.654347,-0.9793 -0.575496,-1.02762 -0.493095,-1.06961 -0.407655,-1.105 -0.319701,-1.13357 -0.229776,-1.15516 L 50.04624,176.17689 50,175 l 0.04624,-1.17689 0.138435,-1.16963 0.229776,-1.15516 0.319701,-1.13357 0.407655,-1.105 0.493095,-1.06961 0.575496,-1.02762 0.654347,-0.9793 0.729166,-0.92494 0.799487,-0.86488 0.864881,-0.79949 0.924942,-0.72916 0.979301,-0.65435 1.027621,-0.5755 1.069606,-0.49309 1.104996,-0.40766 1.133575,-0.3197 1.155163,-0.22978 1.169631,-0.13843 L 65,160 l 1.176886,0.0462 1.169631,0.13843 1.155163,0.22978 1.133575,0.3197 1.104996,0.40766 1.069606,0.49309 1.027621,0.5755 0.979301,0.65435 0.924942,0.72916 0.864881,0.79949 0.799487,0.86488 0.729166,0.92494 0.654347,0.9793 0.575496,1.02762 0.493095,1.06961 0.407655,1.105 0.319701,1.13357 0.229776,1.15516 0.138435,1.16963 z"
       fill-opacity="1"
       id="path92"
       style="fill:#a07be9;fill-opacity:1" />
    <text
       fill="#000000"
       stroke="none"
       font-family="'Helvetica Neue', Helvetica, sans-serif"
       font-size="8px"
       font-style="normal"
       font-weight="normal"
       text-decoration="normal"
       x="90.912979"
       y="160.87405"
       text-anchor="middle"
       dominant-baseline="text-after-edge"
       fill-opacity="1"
       id="text94"
       style="font-size:11.5505px">l_ribulose</text>
    <path
       fill="#50e281"
       stroke="none"
       paint-order="stroke fill markers"
       d="m 240.18417,255.36119 -0.0462,1.17689 -0.13844,1.16963 -0.22977,1.15516 -0.3197,1.13357 -0.40766,1.105 -0.49309,1.06961 -0.5755,1.02762 -0.65435,0.9793 -0.72916,0.92494 -0.79949,0.86488 -0.86488,0.79949 -0.92494,0.72916 -0.9793,0.65435 -1.02762,0.5755 -1.06961,0.49309 -1.105,0.40766 -1.13357,0.3197 -1.15517,0.22978 -1.16963,0.13843 -1.17688,0.0462 -1.17689,-0.0462 -1.16963,-0.13843 -1.15516,-0.22978 -1.13358,-0.3197 -1.10499,-0.40766 -1.06961,-0.49309 -1.02762,-0.5755 -0.9793,-0.65435 -0.92494,-0.72916 -0.86488,-0.79949 -0.79949,-0.86488 -0.72917,-0.92494 -0.65434,-0.9793 -0.5755,-1.02762 -0.4931,-1.06961 -0.40765,-1.105 -0.3197,-1.13357 -0.22978,-1.15516 -0.13843,-1.16963 -0.0462,-1.17689 0.0462,-1.17689 0.13843,-1.16963 0.22978,-1.15516 0.3197,-1.13357 0.40765,-1.105 0.4931,-1.06961 0.5755,-1.02762 0.65434,-0.9793 0.72917,-0.92494 0.79949,-0.86488 0.86488,-0.79949 0.92494,-0.72916 0.9793,-0.65435 1.02762,-0.5755 1.06961,-0.49309 1.10499,-0.40766 1.13358,-0.3197 1.15516,-0.22978 1.16963,-0.13843 1.17689,-0.0462 1.17688,0.0462 1.16963,0.13843 1.15517,0.22978 1.13357,0.3197 1.105,0.40766 1.06961,0.49309 1.02762,0.5755 0.9793,0.65435 0.92494,0.72916 0.86488,0.79949 0.79949,0.86488 0.72916,0.92494 0.65435,0.9793 0.5755,1.02762 0.49309,1.06961 0.40766,1.105 0.3197,1.13357 0.22977,1.15516 0.13844,1.16963 z"
       fill-opacity="1"
       id="path96"
       style="fill:#a07be9;fill-opacity:1" />
    <text
       fill="#000000"
       stroke="none"
       font-family="'Helvetica Neue', Helvetica, sans-serif"
       font-size="8px"
       font-style="normal"
       font-weight="normal"
       text-decoration="normal"
       x="226.62799"
       y="280.78751"
       text-anchor="middle"
       dominant-baseline="text-after-edge"
       fill-opacity="1"
       id="text98"
       style="font-size:11.5505px">hydrogen</text>
    <path
       fill="#50e281"
       stroke="none"
       paint-order="stroke fill markers"
       d="m 79.455045,255.36133 -0.04624,1.17688 -0.138435,1.16963 -0.229777,1.15517 -0.319701,1.13357 -0.407655,1.105 -0.493095,1.0696 -0.575495,1.02763 -0.654348,0.9793 -0.729165,0.92494 -0.799488,0.86488 -0.864881,0.79949 -0.924942,0.72916 -0.9793,0.65435 -1.027621,0.5755 -1.069606,0.49309 -1.104997,0.40765 -1.133574,0.31971 -1.155164,0.22977 -1.16963,0.13844 -1.176886,0.0462 -1.176887,-0.0462 -1.16963,-0.13844 -1.155164,-0.22977 -1.133574,-0.31971 -1.104997,-0.40765 -1.069606,-0.49309 -1.027621,-0.5755 -0.9793,-0.65435 -0.924942,-0.72916 -0.864881,-0.79949 -0.799488,-0.86488 -0.729165,-0.92494 -0.654348,-0.9793 -0.575495,-1.02763 -0.493095,-1.0696 -0.407655,-1.105 -0.319701,-1.13357 -0.229777,-1.15517 -0.138435,-1.16963 -0.04624,-1.17688 0.04624,-1.17689 0.138435,-1.16963 0.229777,-1.15516 0.319701,-1.13358 0.407655,-1.10499 0.493095,-1.06961 0.575495,-1.02762 0.654348,-0.9793 0.729165,-0.92494 0.799488,-0.86488 0.864881,-0.79949 0.924942,-0.72917 0.9793,-0.65435 1.027621,-0.57549 1.069606,-0.4931 1.104997,-0.40765 1.133574,-0.3197 1.155164,-0.22978 1.16963,-0.13843 1.176887,-0.0462 1.176886,0.0462 1.16963,0.13843 1.155164,0.22978 1.133574,0.3197 1.104997,0.40765 1.069606,0.4931 1.027621,0.57549 0.9793,0.65435 0.924942,0.72917 0.864881,0.79949 0.799488,0.86488 0.729165,0.92494 0.654348,0.9793 0.575495,1.02762 0.493095,1.06961 0.407655,1.10499 0.319701,1.13358 0.229777,1.15516 0.138435,1.16963 z"
       fill-opacity="1"
       id="path100"
       style="fill:#a07be9;fill-opacity:1" />
    <text
       fill="#000000"
       stroke="none"
       font-family="'Helvetica Neue', Helvetica, sans-serif"
       font-size="8px"
       font-style="normal"
       font-weight="normal"
       text-decoration="normal"
       x="79.605827"
       y="281.82062"
       text-anchor="middle"
       dominant-baseline="text-after-edge"
       fill-opacity="1"
       id="text102"
       style="font-size:11.5505px">rib5p</text>
    <path
       fill="#50e281"
       stroke="none"
       paint-order="stroke fill markers"
       d="m 160,255 -0.0462,1.17689 -0.13843,1.16963 -0.22978,1.15516 -0.3197,1.13357 -0.40766,1.105 -0.49309,1.06961 -0.5755,1.02762 -0.65435,0.9793 -0.72916,0.92494 -0.79949,0.86488 -0.86488,0.79949 -0.92494,0.72916 -0.9793,0.65435 -1.02762,0.5755 -1.06961,0.49309 -1.105,0.40766 -1.13357,0.3197 -1.15516,0.22978 -1.16963,0.13843 L 145,270 l -1.17689,-0.0462 -1.16963,-0.13843 -1.15516,-0.22978 -1.13357,-0.3197 -1.105,-0.40766 -1.06961,-0.49309 -1.02762,-0.5755 -0.9793,-0.65435 -0.92494,-0.72916 -0.86488,-0.79949 -0.79949,-0.86488 -0.72916,-0.92494 -0.65435,-0.9793 -0.5755,-1.02762 -0.49309,-1.06961 -0.40766,-1.105 -0.3197,-1.13357 -0.22978,-1.15516 -0.13843,-1.16963 L 130,255 l 0.0462,-1.17689 0.13843,-1.16963 0.22978,-1.15516 0.3197,-1.13357 0.40766,-1.105 0.49309,-1.06961 0.5755,-1.02762 0.65435,-0.9793 0.72916,-0.92494 0.79949,-0.86488 0.86488,-0.79949 0.92494,-0.72916 0.9793,-0.65435 1.02762,-0.5755 1.06961,-0.49309 1.105,-0.40766 1.13357,-0.3197 1.15516,-0.22978 1.16963,-0.13843 L 145,240 l 1.17689,0.0462 1.16963,0.13843 1.15516,0.22978 1.13357,0.3197 1.105,0.40766 1.06961,0.49309 1.02762,0.5755 0.9793,0.65435 0.92494,0.72916 0.86488,0.79949 0.79949,0.86488 0.72916,0.92494 0.65435,0.9793 0.5755,1.02762 0.49309,1.06961 0.40766,1.105 0.3197,1.13357 0.22978,1.15516 0.13843,1.16963 z"
       fill-opacity="1"
       id="path104"
       style="fill:#a07be9;fill-opacity:1" />
    <text
       fill="#000000"
       stroke="none"
       font-family="'Helvetica Neue', Helvetica, sans-serif"
       font-size="8px"
       font-style="normal"
       font-weight="normal"
       text-decoration="normal"
       x="145"
       y="240"
       text-anchor="middle"
       dominant-baseline="text-after-edge"
       fill-opacity="1"
       id="text106"
       style="font-size:10.5879px" />
    <path
       fill="#50e281"
       stroke="none"
       paint-order="stroke fill markers"
       d="m 160,175 -0.0462,1.17689 -0.13843,1.16963 -0.22978,1.15516 -0.3197,1.13357 -0.40766,1.105 -0.49309,1.06961 -0.5755,1.02762 -0.65435,0.9793 -0.72916,0.92494 -0.79949,0.86488 -0.86488,0.79949 -0.92494,0.72916 -0.9793,0.65435 -1.02762,0.5755 -1.06961,0.49309 -1.105,0.40766 -1.13357,0.3197 -1.15516,0.22978 -1.16963,0.13843 L 145,190 l -1.17689,-0.0462 -1.16963,-0.13843 -1.15516,-0.22978 -1.13357,-0.3197 -1.105,-0.40766 -1.06961,-0.49309 -1.02762,-0.5755 -0.9793,-0.65435 -0.92494,-0.72916 -0.86488,-0.79949 -0.79949,-0.86488 -0.72916,-0.92494 -0.65435,-0.9793 -0.5755,-1.02762 -0.49309,-1.06961 -0.40766,-1.105 -0.3197,-1.13357 -0.22978,-1.15516 -0.13843,-1.16963 L 130,175 l 0.0462,-1.17689 0.13843,-1.16963 0.22978,-1.15516 0.3197,-1.13357 0.40766,-1.105 0.49309,-1.06961 0.5755,-1.02762 0.65435,-0.9793 0.72916,-0.92494 0.79949,-0.86488 0.86488,-0.79949 0.92494,-0.72916 0.9793,-0.65435 1.02762,-0.5755 1.06961,-0.49309 1.105,-0.40766 1.13357,-0.3197 1.15516,-0.22978 1.16963,-0.13843 L 145,160 l 1.17689,0.0462 1.16963,0.13843 1.15516,0.22978 1.13357,0.3197 1.105,0.40766 1.06961,0.49309 1.02762,0.5755 0.9793,0.65435 0.92494,0.72916 0.86488,0.79949 0.79949,0.86488 0.72916,0.92494 0.65435,0.9793 0.5755,1.02762 0.49309,1.06961 0.40766,1.105 0.3197,1.13357 0.22978,1.15516 0.13843,1.16963 z"
       fill-opacity="1"
       id="path108"
       style="fill:#a07be9;fill-opacity:1" />
    <text
       fill="#000000"
       stroke="none"
       font-family="'Helvetica Neue', Helvetica, sans-serif"
       font-size="8px"
       font-style="normal"
       font-weight="normal"
       text-decoration="normal"
       x="145.72191"
       y="162.16573"
       text-anchor="middle"
       dominant-baseline="text-after-edge"
       fill-opacity="1"
       id="text110"
       style="font-size:11.5505px">ATP</text>
    <path
       fill="#50e281"
       stroke="none"
       paint-order="stroke fill markers"
       d="m 79.476925,342.9572 -0.0462,1.17688 -0.13844,1.16964 -0.22977,1.15516 -0.31971,1.13357 -0.40765,1.105 -0.4931,1.06961 -0.57549,1.02762 -0.65435,0.9793 -0.72916,0.92494 -0.79949,0.86488 -0.86488,0.79949 -0.92494,0.72916 -0.9793,0.65435 -1.02763,0.5755 -1.0696,0.49309 -1.105,0.40766 -1.13357,0.3197 -1.15517,0.22977 -1.16963,0.13844 -1.17688,0.0462 -1.17689,-0.0462 -1.16963,-0.13844 -1.15516,-0.22977 -1.13358,-0.3197 -1.10499,-0.40766 -1.06961,-0.49309 -1.02762,-0.5755 -0.9793,-0.65435 -0.92494,-0.72916 -0.86488,-0.79949 -0.79949,-0.86488 -0.72917,-0.92494 -0.65435,-0.9793 -0.57549,-1.02762 -0.4931,-1.06961 -0.40765,-1.105 -0.3197,-1.13357 -0.22978,-1.15516 -0.13843,-1.16964 -0.0462,-1.17688 0.0462,-1.17689 0.13843,-1.16963 0.22978,-1.15516 0.3197,-1.13358 0.40765,-1.10499 0.4931,-1.06961 0.57549,-1.02762 0.65435,-0.9793 0.72917,-0.92494 0.79949,-0.86488 0.86488,-0.79949 0.92494,-0.72917 0.9793,-0.65434 1.02762,-0.5755 1.06961,-0.49309 1.10499,-0.40766 1.13358,-0.3197 1.15516,-0.22978 1.16963,-0.13843 1.17689,-0.0462 1.17688,0.0462 1.16963,0.13843 1.15517,0.22978 1.13357,0.3197 1.105,0.40766 1.0696,0.49309 1.02763,0.5755 0.9793,0.65434 0.92494,0.72917 0.86488,0.79949 0.79949,0.86488 0.72916,0.92494 0.65435,0.9793 0.57549,1.02762 0.4931,1.06961 0.40765,1.10499 0.31971,1.13358 0.22977,1.15516 0.13844,1.16963 z"
       fill-opacity="1"
       id="path116"
       style="fill:#a07be9;fill-opacity:1" />
    <text
       fill="#000000"
       stroke="none"
       font-family="'Helvetica Neue', Helvetica, sans-serif"
       font-size="8px"
       font-style="normal"
       font-weight="normal"
       text-decoration="normal"
       x="79.561104"
       y="327.66519"
       text-anchor="middle"
       dominant-baseline="text-after-edge"
       fill-opacity="1"
       id="text118"
       style="font-size:11.5505px">Xyl5p</text>
    <path
       fill="#50e281"
       stroke="none"
       paint-order="stroke fill markers"
       d="m 79.573513,95 -0.0462,1.176886 -0.13843,1.169631 -0.22978,1.155163 -0.319703,1.133575 -0.40766,1.104995 -0.493093,1.06961 -0.575503,1.02762 -0.654353,0.9793 -0.729163,0.92494 -0.799493,0.86488 -0.864883,0.79949 -0.924943,0.72916 -0.979306,0.65435 -1.027623,0.5755 -1.069616,0.49309 -1.105003,0.40766 -1.133576,0.3197 -1.155163,0.22978 -1.169636,0.13843 -1.176936,0.0462 -1.176893,-0.0462 -1.169636,-0.13843 -1.155163,-0.22978 -1.133576,-0.3197 -1.105001,-0.40766 -1.069606,-0.49309 -1.027621,-0.5755 -0.979301,-0.65435 -0.924942,-0.72916 -0.864881,-0.79949 -0.799487,-0.86488 -0.729166,-0.92494 -0.654347,-0.9793 -0.575496,-1.02762 -0.493095,-1.06961 L 50.307584,99.635255 49.987883,98.50168 49.758107,97.346517 49.619672,96.176886 49.573432,95 l 0.04624,-1.176886 0.138435,-1.169631 0.229776,-1.155163 0.319701,-1.133575 0.407655,-1.104996 0.493095,-1.069606 0.575496,-1.027621 0.654347,-0.979301 0.729166,-0.924942 0.799487,-0.864881 0.864881,-0.799487 0.924942,-0.729166 0.979301,-0.654347 1.027621,-0.575496 1.069606,-0.493095 1.105001,-0.407655 1.133576,-0.319701 1.155163,-0.229776 L 63.396557,80.04624 64.57345,80 l 1.176896,0.04624 1.169636,0.138435 1.155163,0.229776 1.133576,0.319701 1.105003,0.407655 1.069616,0.493095 1.027623,0.575496 0.979306,0.654347 0.924943,0.729166 0.864883,0.799487 0.799493,0.864881 0.729163,0.924942 0.654353,0.979301 0.575503,1.027621 0.493093,1.069606 0.40766,1.104996 0.319703,1.133575 0.22978,1.155163 0.13843,1.169631 z"
       fill-opacity="1"
       id="path120"
       style="fill:#a07be9;fill-opacity:1" />
    <text
       fill="#000000"
       stroke="none"
       font-family="'Helvetica Neue', Helvetica, sans-serif"
       font-size="8px"
       font-style="normal"
       font-weight="normal"
       text-decoration="normal"
       x="64.431473"
       y="81.039047"
       text-anchor="middle"
       dominant-baseline="text-after-edge"
       fill-opacity="1"
       id="text122"
       style="font-size:11.5505px">l_arabinose</text>
    <g
       transform="matrix(0.3609516,0,0,0.3609516,-98.460435,-8.9990193)"
       id="g128" />
    <text
       xml:space="preserve"
       style="font-size:11.5505px;line-height:1.25;font-family:sans-serif;stroke-width:0.360952"
       x="133.68745"
       y="279.19565"
       id="text9238"><tspan
         sodipodi:role="line"
         id="tspan9236"
         style="font-size:11.5505px;stroke-width:0.360952"
         x="133.68745"
         y="279.19565">ADP</tspan></text>
  </g>
  <g
     transform="matrix(1.4511905,0,0,1.4511905,1768.1839,-230.89985)"
     id="g170">
    <g
       transform="matrix(0.68908942,0,0,0.68908942,-361.85448,-15.692344)"
       id="g168" />
    <g
       transform="matrix(1.0725989,-2.13846,2.13846,1.0725989,-4742.0024,2388.6526)"
       id="g138">
      <g
         transform="matrix(0.49896716,0,0,0.49896716,646.66531,243.82713)"
         id="g136" />
      <g
         id="g1778"
         transform="matrix(0.37416109,0.74597176,-0.74597176,0.37416109,1587.8209,587.36003)">
        <text
           xml:space="preserve"
           transform="matrix(0.53875344,0,0,0.53875344,-400.15002,244.38137)"
           id="text3637-4"
           style="font-style:normal;font-weight:normal;font-size:37.3333px;line-height:1.25;font-family:sans-serif;white-space:pre;shape-inside:url(#rect3639-3);fill:#000000;fill-opacity:1;stroke:none"><tspan
             x="1443.0723"
             y="73.013644"
             id="tspan1175">Node Color</tspan></text>
        <text
           xml:space="preserve"
           transform="matrix(0.53875344,0,0,0.53875344,-402.11244,283.97655)"
           id="text3637-7-7"
           style="font-style:normal;font-weight:normal;font-size:37.3333px;line-height:1.25;font-family:sans-serif;white-space:pre;shape-inside:url(#rect3639-5-6);fill:#000000;fill-opacity:1;stroke:none"><tspan
             x="1443.0723"
             y="73.013644"
             id="tspan1177">Edge Color</tspan></text>
        <rect
           id="rect18643-7-1-9-6-5"
           width="29.16246"
           height="8.8964348"
           x="381.23965"
           y="290.92389"
           style="fill:#a07be9;fill-opacity:1;stroke:none;stroke-width:0.365162;stroke-miterlimit:4;stroke-dasharray:none;stroke-opacity:1"
           ry="1.5751116" />
        <text
           xml:space="preserve"
           transform="matrix(0.53875344,0,0,0.53875344,-355.0674,267.78793)"
           id="text27183-1-7-8-9-6"
           style="font-style:normal;font-weight:normal;font-size:21.3333px;line-height:1.25;font-family:sans-serif;white-space:pre;shape-inside:url(#rect27185-7-6-9-5-5);fill:#000000;fill-opacity:1;stroke:none"><tspan
             x="1443.0723"
             y="58.857392"
             id="tspan1179">Small Molecule</tspan></text>
        <rect
           id="rect18643-7-1-5"
           width="29.16246"
           height="8.8964348"
           x="380.22232"
           y="331.31271"
           style="fill:#a07be9;fill-opacity:1;stroke:none;stroke-width:0.365162;stroke-miterlimit:4;stroke-dasharray:none;stroke-opacity:1"
           ry="1.5751116" />
        <text
           xml:space="preserve"
           transform="matrix(0.53875344,0,0,0.53875344,-356.0847,308.1768)"
           id="text27183-1-1-4"
           style="font-style:normal;font-weight:normal;font-size:21.3333px;line-height:1.25;font-family:sans-serif;white-space:pre;shape-inside:url(#rect27185-7-8-6);fill:#000000;fill-opacity:1;stroke:none"><tspan
             x="1443.0723"
             y="58.857392"
             id="tspan1181">Conversion</tspan></text>
      </g>
    </g>
  </g>
</svg>
