<?xml version="1.0" encoding="UTF-8" standalone="no"?>
<svg
   version="1.1"
   width="1185.3071"
   height="438.16989"
   id="svg92"
   sodipodi:docname="cyto.svg"
   inkscape:version="1.1.1 (26b7af14f2, 2022-01-19)"
   xmlns:inkscape="http://www.inkscape.org/namespaces/inkscape"
   xmlns:sodipodi="http://sodipodi.sourceforge.net/DTD/sodipodi-0.dtd"
   xmlns="http://www.w3.org/2000/svg"
   xmlns:svg="http://www.w3.org/2000/svg">
  <sodipodi:namedview
     id="namedview94"
     pagecolor="#ffffff"
     bordercolor="#666666"
     borderopacity="1.0"
     inkscape:pageshadow="2"
     inkscape:pageopacity="0.0"
     inkscape:pagecheckerboard="0"
     showgrid="false"
     inkscape:zoom="0.93841336"
     inkscape:cx="677.2069"
     inkscape:cy="335.14016"
     inkscape:window-width="2492"
     inkscape:window-height="1376"
     inkscape:window-x="1988"
     inkscape:window-y="27"
     inkscape:window-maximized="1"
     inkscape:current-layer="g1778" />
  <defs
     id="defs2">
    <rect
       x="1443.0721"
       y="39.982376"
       width="235.68906"
       height="103.2741"
       id="rect3639-3" />
    <rect
       x="1443.0721"
       y="39.982376"
       width="235.68906"
       height="103.2741"
       id="rect3639-5-6" />
    <rect
       x="1443.0721"
       y="39.982376"
       width="235.68906"
       height="103.2741"
       id="rect27185-7-7" />
    <rect
       x="1443.0721"
       y="39.982376"
       width="235.68906"
       height="103.2741"
       id="rect27185-7-6-9-5" />
    <rect
       x="1443.0721"
       y="39.982376"
       width="235.68906"
       height="103.2741"
       id="rect27185-7-6-9-5-3" />
    <rect
       x="1443.0721"
       y="39.982376"
       width="235.68906"
       height="103.2741"
       id="rect27185-7-6-9-5-5" />
    <rect
       x="1443.0721"
       y="39.982376"
       width="235.68906"
       height="103.2741"
       id="rect27185-4-5" />
    <rect
       x="1443.0721"
       y="39.982376"
       width="235.68906"
       height="103.2741"
       id="rect27185-7-8-6" />
    <rect
       x="1443.0721"
       y="39.982376"
       width="235.68906"
       height="103.2741"
       id="rect27185-4-5-0" />
  </defs>
  <g
     transform="matrix(2.7485242,0,0,2.7485242,567.21831,340.90596)"
     id="g90">
    <path
       fill="none"
       stroke="#e28150"
       paint-order="fill stroke markers"
       d="m -118.36686,-59.183078 42.205079,57.9895678"
       stroke-opacity="1"
       stroke-linejoin="round"
       stroke-miterlimit="10"
       stroke-width="3"
       id="path12"
       style="stroke:#5081e2;stroke-opacity:1" />
    <path
       fill="#e28150"
       stroke="none"
       paint-order="stroke fill markers"
       d="m -105.90097,-34.662747 8.636649,4.474453 -1.60243,-9.593994 z"
       fill-opacity="1"
       id="path14"
       style="fill:#5081e2;fill-opacity:1" />
    <path
       fill="none"
       stroke="#50e2e2"
       paint-order="fill stroke markers"
       d="M -25.738871,-64.81371 -172.56572,5.7483478"
       stroke-opacity="1"
       stroke-linejoin="round"
       stroke-miterlimit="10"
       stroke-width="3"
       id="path16"
       style="stroke:#a07be9;stroke-opacity:1" />
    <path
       fill="#50e2e2"
       stroke="none"
       paint-order="stroke fill markers"
       d="m -93.195051,-37.221876 -5.95724,7.689195 9.7257,0.152281 z"
       fill-opacity="1"
       id="path18"
       style="fill:#a07be9;fill-opacity:1" />
    <path
       fill="none"
       stroke="#50e2e2"
       paint-order="fill stroke markers"
       d="M -3.7414508,-58.936493 36.112789,-0.76244915"
       stroke-opacity="1"
       stroke-linejoin="round"
       stroke-miterlimit="10"
       stroke-width="3"
       id="path20"
       style="stroke:#a07be9;stroke-opacity:1" />
    <path
       fill="#50e2e2"
       stroke="none"
       paint-order="stroke fill markers"
       d="m 7.6800192,-34.568198 8.5056498,4.718727 -1.32841,-9.635758 z"
       fill-opacity="1"
       id="path22"
       style="fill:#a07be9;fill-opacity:1" />
    <path
       fill="none"
       stroke="#e28150"
       paint-order="fill stroke markers"
       d="m -20.569511,-58.850299 -38.41504,57.3240098"
       stroke-opacity="1"
       stroke-linejoin="round"
       stroke-miterlimit="10"
       stroke-width="3"
       id="path24"
       style="stroke:#5081e2;stroke-opacity:1" />
    <path
       fill="#e28150"
       stroke="none"
       paint-order="stroke fill markers"
       d="m -38.547401,-39.837154 -1.22963,9.64886 8.45686,-4.80561 z"
       fill-opacity="1"
       id="path26"
       style="fill:#5081e2;fill-opacity:1" />
    <path
       fill="none"
       stroke="#e28150"
       paint-order="fill stroke markers"
       d="M -175.29769,-62.297943 -79.748611,2.5141448"
       stroke-opacity="1"
       stroke-linejoin="round"
       stroke-miterlimit="10"
       stroke-width="3"
       id="path36"
       style="stroke:#5081e2;stroke-opacity:1" />
    <path
       fill="#e28150"
       stroke="none"
       paint-order="stroke fill markers"
       d="m -137.16495,-31.17573 9.6418,1.283831 -4.75802,-8.483737 z"
       fill-opacity="1"
       id="path38"
       style="fill:#5081e2;fill-opacity:1" />
    <path
       fill="none"
       stroke="#50e2e2"
       paint-order="fill stroke markers"
       d="M -78.492941,-63.285351 -173.80862,3.6271998"
       stroke-opacity="1"
       stroke-linejoin="round"
       stroke-miterlimit="10"
       stroke-width="3"
       id="path40"
       style="stroke:#a07be9;stroke-opacity:1" />
    <path
       fill="#50e2e2"
       stroke="none"
       paint-order="stroke fill markers"
       d="m -121.52955,-38.388093 -4.62123,8.559017 9.61995,-1.438429 z"
       fill-opacity="1"
       id="path42"
       style="fill:#a07be9;fill-opacity:1" />
    <path
       fill="none"
       stroke="#50e2e2"
       paint-order="fill stroke markers"
       d="M -54.237421,-62.875423 32.611799,2.5836918"
       stroke-opacity="1"
       stroke-linejoin="round"
       stroke-miterlimit="10"
       stroke-width="3"
       id="path44"
       style="stroke:#a07be9;stroke-opacity:1" />
    <path
       fill="#50e2e2"
       stroke="none"
       paint-order="stroke fill markers"
       d="m -20.378661,-31.908542 9.56585,1.762676 -4.32937,-8.710285 z"
       fill-opacity="1"
       id="path46"
       style="fill:#a07be9;fill-opacity:1" />
    <path
       fill="none"
       stroke="#e28150"
       paint-order="fill stroke markers"
       d="m -66.418651,-56.905207 -0.71374,52.8410368"
       stroke-opacity="1"
       stroke-linejoin="round"
       stroke-miterlimit="10"
       stroke-width="3"
       id="path48"
       style="stroke:#5081e2;stroke-opacity:1" />
    <path
       fill="#e28150"
       stroke="none"
       paint-order="stroke fill markers"
       d="m -71.007621,-39.242647 4.2321,8.757958 4.4671,-8.640455 z"
       fill-opacity="1"
       id="path50"
       style="fill:#5081e2;fill-opacity:1" />
    <path
       fill="none"
       stroke="#e28150"
       paint-order="fill stroke markers"
       d="M 34.113859,-63.06426 -55.216331,2.0948818"
       stroke-opacity="1"
       stroke-linejoin="round"
       stroke-miterlimit="10"
       stroke-width="3"
       id="path52"
       style="stroke:#5081e2;stroke-opacity:1" />
    <path
       fill="#e28150"
       stroke="none"
       paint-order="stroke fill markers"
       d="m -6.0858908,-39.126055 -4.4653402,8.641366 9.5923002,-1.612545 z"
       fill-opacity="1"
       id="path54"
       style="fill:#5081e2;fill-opacity:1" />
    <path
       fill="#50e2e2"
       stroke="none"
       paint-order="stroke fill markers"
       d="m -112.19366,-71.311049 -0.0462,1.176886 -0.13843,1.169631 -0.22978,1.155163 -0.3197,1.133574 -0.40766,1.104997 -0.49309,1.069606 -0.5755,1.027621 -0.65434,0.9793 -0.72917,0.924942 -0.79949,0.864881 -0.86488,0.799488 -0.92494,0.729165 -0.9793,0.654348 -1.02762,0.575495 -1.06961,0.493096 -1.10499,0.407654 -1.13358,0.319701 -1.15516,0.229777 -1.16963,0.138435 -1.17689,0.04624 -1.17689,-0.04624 -1.16963,-0.138435 -1.15516,-0.229777 -1.13357,-0.319701 -1.105,-0.407654 -1.06961,-0.493096 -1.02762,-0.575495 -0.9793,-0.654348 -0.92494,-0.729165 -0.86488,-0.799488 -0.79949,-0.864881 -0.72916,-0.924942 -0.65435,-0.9793 -0.5755,-1.027621 -0.49309,-1.069606 -0.40766,-1.104997 -0.3197,-1.133574 -0.22977,-1.155163 -0.13844,-1.169631 -0.0462,-1.176886 0.0462,-1.176887 0.13844,-1.169631 0.22977,-1.155163 0.3197,-1.133575 0.40766,-1.104996 0.49309,-1.069606 0.5755,-1.027621 0.65435,-0.9793 0.72916,-0.924942 0.79949,-0.864881 0.86488,-0.799488 0.92494,-0.729166 0.9793,-0.654347 1.02762,-0.575495 1.06961,-0.493096 1.105,-0.407654 1.13357,-0.319701 1.15516,-0.229777 1.16963,-0.138435 1.17689,-0.04624 1.17689,0.04624 1.16963,0.138435 1.15516,0.229777 1.13358,0.319701 1.10499,0.407654 1.06961,0.493096 1.02762,0.575495 0.9793,0.654347 0.92494,0.729166 0.86488,0.799488 0.79949,0.864881 0.72917,0.924942 0.65434,0.9793 0.5755,1.027621 0.49309,1.069606 0.40766,1.104996 0.3197,1.133575 0.22978,1.155163 0.13843,1.169631 z"
       fill-opacity="1"
       id="path56"
       style="fill:#e2e250;fill-opacity:1" />
    <text
       fill="#000000"
       stroke="none"
       font-family="'Helvetica Neue', Helvetica, sans-serif"
       font-size="8px"
       font-style="normal"
       font-weight="normal"
       text-decoration="normal"
       x="-127.19366"
       y="-86.31105"
       text-anchor="middle"
       dominant-baseline="text-after-edge"
       fill-opacity="1"
       id="text58">AraA</text>
    <path
       fill="#50e2e2"
       stroke="none"
       paint-order="stroke fill markers"
       d="m -51.216061,-71.903839 -0.0462,1.176887 -0.13843,1.16963 -0.22978,1.155164 -0.3197,1.133574 -0.40766,1.104997 -0.49309,1.069606 -0.5755,1.027621 -0.65434,0.9793 -0.72917,0.924942 -0.79949,0.864881 -0.86488,0.799488 -0.92494,0.729165 -0.9793,0.654348 -1.02762,0.575495 -1.06961,0.493095 -1.10499,0.407655 -1.13358,0.319701 -1.15516,0.229776 -1.16963,0.138435 -1.17689,0.04624 -1.17689,-0.04624 -1.16963,-0.138435 -1.15516,-0.229776 -1.13357,-0.319701 -1.105,-0.407655 -1.06961,-0.493095 -1.02762,-0.575495 -0.9793,-0.654348 -0.92494,-0.729165 -0.86488,-0.799488 -0.79949,-0.864881 -0.72916,-0.924942 -0.65435,-0.9793 -0.5755,-1.027621 -0.49309,-1.069606 -0.40766,-1.104997 -0.3197,-1.133574 -0.22977,-1.155164 -0.13844,-1.16963 -0.0462,-1.176887 0.0462,-1.176886 0.13844,-1.169631 0.22977,-1.155163 0.3197,-1.133575 0.40766,-1.104996 0.49309,-1.069606 0.5755,-1.027621 0.65435,-0.979301 0.72916,-0.924942 0.79949,-0.864881 0.86488,-0.799487 0.92494,-0.729166 0.9793,-0.654347 1.02762,-0.575496 1.06961,-0.493095 1.105,-0.407655 1.13357,-0.319701 1.15516,-0.229776 1.16963,-0.138435 1.17689,-0.04624 1.17689,0.04624 1.16963,0.138435 1.15516,0.229776 1.13358,0.319701 1.10499,0.407655 1.06961,0.493095 1.02762,0.575496 0.9793,0.654347 0.92494,0.729166 0.86488,0.799487 0.79949,0.864881 0.72917,0.924942 0.65434,0.979301 0.5755,1.027621 0.49309,1.069606 0.40766,1.104996 0.3197,1.133575 0.22978,1.155163 0.13843,1.169631 z"
       fill-opacity="1"
       id="path60"
       style="fill:#e2e250;fill-opacity:1" />
    <text
       fill="#000000"
       stroke="none"
       font-family="'Helvetica Neue', Helvetica, sans-serif"
       font-size="8px"
       font-style="normal"
       font-weight="normal"
       text-decoration="normal"
       x="-66.216057"
       y="-86.903839"
       text-anchor="middle"
       dominant-baseline="text-after-edge"
       fill-opacity="1"
       id="text62">AraB</text>
    <path
       fill="#50e2e2"
       stroke="none"
       paint-order="stroke fill markers"
       d="m 59.049529,-71.903839 -0.0462,1.176887 -0.13843,1.16963 -0.22978,1.155164 -0.3197,1.133574 -0.40765,1.104997 -0.4931,1.069606 -0.57549,1.027621 -0.65435,0.9793 -0.72917,0.924942 -0.79948,0.864881 -0.86488,0.799488 -0.92495,0.729165 -0.9793,0.654348 -1.02762,0.575495 -1.0696,0.493095 -1.105,0.407655 -1.13358,0.319701 -1.15516,0.229776 -1.16963,0.138435 -1.17689,0.04624 -1.17688,-0.04624 -1.16963,-0.138435 -1.15517,-0.229776 -1.13357,-0.319701 -1.105,-0.407655 -1.0696,-0.493095 -1.02762,-0.575495 -0.9793,-0.654348 -0.92495,-0.729165 -0.86488,-0.799488 -0.79948,-0.864881 -0.72917,-0.924942 -0.65435,-0.9793 -0.57549,-1.027621 -0.4931,-1.069606 -0.40765,-1.104997 -0.3197,-1.133574 -0.22978,-1.155164 -0.13844,-1.16963 -0.0462,-1.176887 0.0462,-1.176886 0.13844,-1.169631 0.22978,-1.155163 0.3197,-1.133575 0.40765,-1.104996 0.4931,-1.069606 0.57549,-1.027621 0.65435,-0.979301 0.72917,-0.924942 0.79948,-0.864881 0.86488,-0.799487 0.92495,-0.729166 0.9793,-0.654347 1.02762,-0.575496 1.0696,-0.493095 1.105,-0.407655 1.13357,-0.319701 1.15517,-0.229776 1.16963,-0.138435 1.17688,-0.04624 1.17689,0.04624 1.16963,0.138435 1.15516,0.229776 1.13358,0.319701 1.105,0.407655 1.0696,0.493095 1.02762,0.575496 0.9793,0.654347 0.92495,0.729166 0.86488,0.799487 0.79948,0.864881 0.72917,0.924942 0.65435,0.979301 0.57549,1.027621 0.4931,1.069606 0.40765,1.104996 0.3197,1.133575 0.22978,1.155163 0.13843,1.169631 z"
       fill-opacity="1"
       id="path64"
       style="fill:#e2e250;fill-opacity:1" />
    <text
       fill="#000000"
       stroke="none"
       font-family="'Helvetica Neue', Helvetica, sans-serif"
       font-size="8px"
       font-style="normal"
       font-weight="normal"
       text-decoration="normal"
       x="44.049538"
       y="-86.903839"
       text-anchor="middle"
       dominant-baseline="text-after-edge"
       fill-opacity="1"
       id="text66">AraD</text>
    <path
       fill="#50e2e2"
       stroke="none"
       paint-order="stroke fill markers"
       d="m -52.334981,10.934462 -0.0462,1.176886 -0.13844,1.169631 -0.22977,1.155163 -0.3197,1.133574 -0.40766,1.104997 -0.49309,1.069604 -0.5755,1.02762 -0.65435,0.9793 -0.72916,0.92495 -0.79949,0.86488 -0.86488,0.79948 -0.92494,0.72917 -0.9793,0.65435 -1.02762,0.57549 -1.06961,0.4931 -1.105,0.40765 -1.13357,0.3197 -1.15517,0.22978 -1.16963,0.13843 -1.17688,0.0462 -1.17689,-0.0462 -1.16963,-0.13843 -1.15516,-0.22978 -1.13358,-0.3197 -1.10499,-0.40765 -1.06961,-0.4931 -1.02762,-0.57549 -0.9793,-0.65435 -0.92494,-0.72917 -0.86488,-0.79948 -0.79949,-0.86488 -0.72917,-0.92495 -0.65434,-0.9793 -0.5755,-1.02762 -0.4931,-1.069604 -0.40765,-1.104997 -0.3197,-1.133574 -0.22978,-1.155163 -0.13843,-1.169631 -0.0462,-1.176886 0.0462,-1.1768872 0.13843,-1.16963 0.22978,-1.155164 0.3197,-1.133574 0.40765,-1.104997 0.4931,-1.069606 0.5755,-1.027621 0.65434,-0.9793 0.72917,-0.924942 0.79949,-0.86488095 0.86488,-0.799488 0.92494,-0.72916505 0.9793,-0.654348 1.02762,-0.575495 1.06961,-0.493095 1.10499,-0.407655 1.13358,-0.319701 1.15516,-0.229777 1.16963,-0.138434 1.17689,-0.04624 1.17688,0.04624 1.16963,0.138434 1.15517,0.229777 1.13357,0.319701 1.105,0.407655 1.06961,0.493095 1.02762,0.575495 0.9793,0.654348 0.92494,0.72916505 0.86488,0.799488 0.79949,0.86488095 0.72916,0.924942 0.65435,0.9793 0.5755,1.027621 0.49309,1.069606 0.40766,1.104997 0.3197,1.133574 0.22977,1.155164 0.13844,1.16963 z"
       fill-opacity="1"
       id="path68"
       style="fill:#5081e2;fill-opacity:1" />
    <text
       fill="#000000"
       stroke="none"
       font-family="'Helvetica Neue', Helvetica, sans-serif"
       font-size="8px"
       font-style="normal"
       font-weight="normal"
       text-decoration="normal"
       x="-67.334984"
       y="34.500477"
       text-anchor="middle"
       dominant-baseline="text-after-edge"
       fill-opacity="1"
       id="text70">pentose_phosphate_pathway</text>
    <path
       fill="#50e2e2"
       stroke="none"
       paint-order="stroke fill markers"
       d="m 2.7809192,-71.311049 -0.0462,1.176886 -0.13844,1.169631 -0.22978,1.155163 -0.3197,1.133574 -0.40765,1.104997 -0.4931,1.069606 -0.57549,1.027621 -0.65435,0.9793 -0.72916,0.924942 -0.79949,0.864881 -0.86488,0.799488 -0.92495,0.729165 -0.9793,0.654348 -1.02762,0.575495 -1.0696,0.493096 -1.105,0.407654 -1.13357,0.319701 -1.15517,0.229777 -1.1696302,0.138435 -1.17688,0.04624 -1.17689,-0.04624 -1.16963,-0.138435 -1.15516,-0.229777 -1.13358,-0.319701 -1.105,-0.407654 -1.0696,-0.493096 -1.02762,-0.575495 -0.9793,-0.654348 -0.92494,-0.729165 -0.86489,-0.799488 -0.79948,-0.864881 -0.72917,-0.924942 -0.65435,-0.9793 -0.57549,-1.027621 -0.4931,-1.069606 -0.40765,-1.104997 -0.3197,-1.133574 -0.22978,-1.155163 -0.13843,-1.169631 -0.0462,-1.176886 0.0462,-1.176887 0.13843,-1.169631 0.22978,-1.155163 0.3197,-1.133575 0.40765,-1.104996 0.4931,-1.069606 0.57549,-1.027621 0.65435,-0.9793 0.72917,-0.924942 0.79948,-0.864881 0.86489,-0.799488 0.92494,-0.729166 0.9793,-0.654347 1.02762,-0.575495 1.0696,-0.493096 1.105,-0.407654 1.13358,-0.319701 1.15516,-0.229777 1.16963,-0.138435 1.17689,-0.04624 1.17688,0.04624 1.1696302,0.138435 1.15517,0.229777 1.13357,0.319701 1.105,0.407654 1.0696,0.493096 1.02762,0.575495 0.9793,0.654347 0.92495,0.729166 0.86488,0.799488 0.79949,0.864881 0.72916,0.924942 0.65435,0.9793 0.57549,1.027621 0.4931,1.069606 0.40765,1.104996 0.3197,1.133575 0.22978,1.155163 0.13844,1.169631 z"
       fill-opacity="1"
       id="path72"
       style="fill:#a07be9;fill-opacity:1" />
    <text
       fill="#000000"
       stroke="none"
       font-family="'Helvetica Neue', Helvetica, sans-serif"
       font-size="8px"
       font-style="normal"
       font-weight="normal"
       text-decoration="normal"
       x="-12.219091"
       y="-86.31105"
       text-anchor="middle"
       dominant-baseline="text-after-edge"
       fill-opacity="1"
       id="text74">ATP</text>
    <path
       fill="#50e2e2"
       stroke="none"
       paint-order="stroke fill markers"
       d="m -171.25599,-70.71826 -0.0462,1.176886 -0.13844,1.169631 -0.22977,1.155163 -0.3197,1.133575 -0.40766,1.104996 -0.49309,1.069606 -0.5755,1.027621 -0.65435,0.979301 -0.72916,0.924942 -0.79949,0.864881 -0.86488,0.799487 -0.92494,0.729166 -0.9793,0.654347 -1.02763,0.575496 -1.0696,0.493095 -1.105,0.407655 -1.13357,0.319701 -1.15517,0.229776 -1.16963,0.138435 -1.17688,0.04624 -1.17689,-0.04624 -1.16963,-0.138435 -1.15516,-0.229776 -1.13358,-0.319701 -1.10499,-0.407655 -1.06961,-0.493095 -1.02762,-0.575496 -0.9793,-0.654347 -0.92494,-0.729166 -0.86488,-0.799487 -0.79949,-0.864881 -0.72917,-0.924942 -0.65435,-0.979301 -0.57549,-1.027621 -0.4931,-1.069606 -0.40765,-1.104996 -0.3197,-1.133575 -0.22978,-1.155163 -0.13843,-1.169631 -0.0462,-1.176886 0.0462,-1.176886 0.13843,-1.169631 0.22978,-1.155164 0.3197,-1.133574 0.40765,-1.104997 0.4931,-1.069606 0.57549,-1.027621 0.65435,-0.9793 0.72917,-0.924942 0.79949,-0.864881 0.86488,-0.799488 0.92494,-0.729165 0.9793,-0.654348 1.02762,-0.575495 1.06961,-0.493095 1.10499,-0.407655 1.13358,-0.319701 1.15516,-0.229776 1.16963,-0.138435 1.17689,-0.04624 1.17688,0.04624 1.16963,0.138435 1.15517,0.229776 1.13357,0.319701 1.105,0.407655 1.0696,0.493095 1.02763,0.575495 0.9793,0.654348 0.92494,0.729165 0.86488,0.799488 0.79949,0.864881 0.72916,0.924942 0.65435,0.9793 0.5755,1.027621 0.49309,1.069606 0.40766,1.104997 0.3197,1.133574 0.22977,1.155164 0.13844,1.169631 z"
       fill-opacity="1"
       id="path76"
       style="fill:#a07be9;fill-opacity:1" />
    <text
       fill="#000000"
       stroke="none"
       font-family="'Helvetica Neue', Helvetica, sans-serif"
       font-size="8px"
       font-style="normal"
       font-weight="normal"
       text-decoration="normal"
       x="-186.256"
       y="-85.718262"
       text-anchor="middle"
       dominant-baseline="text-after-edge"
       fill-opacity="1"
       id="text78">l_arabinose</text>
    <path
       fill="#50e2e2"
       stroke="none"
       paint-order="stroke fill markers"
       d="m -171.0855,12.245687 -0.0462,1.176886 -0.13844,1.169631 -0.22977,1.155163 -0.3197,1.133575 -0.40766,1.104995 -0.49309,1.06961 -0.5755,1.02762 -0.65435,0.9793 -0.72916,0.92494 -0.79949,0.86488 -0.86488,0.79949 -0.92494,0.72916 -0.9793,0.65435 -1.02762,0.5755 -1.06961,0.49309 -1.105,0.40766 -1.13357,0.3197 -1.15516,0.22978 -1.16963,0.13843 -1.17689,0.04624 -1.17689,-0.0462 -1.16963,-0.13843 -1.15516,-0.22978 -1.13358,-0.3197 -1.10499,-0.40766 -1.06961,-0.49309 -1.02762,-0.5755 -0.9793,-0.65435 -0.92494,-0.72916 -0.86488,-0.79949 -0.79949,-0.86488 -0.72917,-0.92494 -0.65434,-0.9793 -0.5755,-1.02766 -0.49309,-1.06961 -0.40766,-1.104995 -0.3197,-1.133575 -0.22978,-1.155163 -0.13843,-1.169631 -0.0462,-1.176886 0.0462,-1.176886 0.13843,-1.1696312 0.22978,-1.155163 0.3197,-1.133575 0.40766,-1.104996 0.49309,-1.069606 0.5755,-1.027621 0.65434,-0.979301 0.72917,-0.924942 0.79949,-0.864881 0.86488,-0.79948695 0.92494,-0.729166 0.9793,-0.654347 1.02762,-0.57549605 1.06961,-0.493095 1.10499,-0.407655 1.13358,-0.319701 1.15516,-0.229776 1.16963,-0.138435 1.17689,-0.04624 1.17689,0.04624 1.16963,0.138435 1.15516,0.229776 1.13357,0.319701 1.105,0.407655 1.06961,0.493095 1.02762,0.57549605 0.9793,0.654347 0.92494,0.729166 0.86488,0.79948695 0.79949,0.864881 0.72916,0.924942 0.65435,0.979301 0.5755,1.027621 0.49309,1.069606 0.40766,1.104996 0.3197,1.133575 0.22977,1.155163 0.13844,1.1696312 z"
       fill-opacity="1"
       id="path80"
       style="fill:#a07be9;fill-opacity:1" />
    <text
       fill="#000000"
       stroke="none"
       font-family="'Helvetica Neue', Helvetica, sans-serif"
       font-size="8px"
       font-style="normal"
       font-weight="normal"
       text-decoration="normal"
       x="-186.08549"
       y="35.811695"
       text-anchor="middle"
       dominant-baseline="text-after-edge"
       fill-opacity="1"
       id="text82">hydrogen</text>
    <path
       fill="#50e2e2"
       stroke="none"
       paint-order="stroke fill markers"
       d="m 59.590429,11.612108 -0.0462,1.176886 -0.13843,1.169631 -0.22978,1.155163 -0.3197,1.133575 -0.40766,1.104994 -0.49309,1.06961 -0.5755,1.02762 -0.65434,0.9793 -0.72917,0.92494 -0.79949,0.86488 -0.86488,0.79949 -0.92494,0.72917 -0.9793,0.65434 -1.02762,0.5755 -1.06961,0.49309 -1.10499,0.40766 -1.13358,0.3197 -1.15516,0.22978 -1.16963,0.13843 -1.17689,0.0462 -1.17689,-0.0462 -1.16963,-0.13843 -1.15516,-0.22978 -1.13357,-0.3197 -1.105,-0.40766 -1.06961,-0.49309 -1.02762,-0.5755 -0.9793,-0.65434 -0.92494,-0.72917 -0.86488,-0.79949 -0.79949,-0.86488 -0.72916,-0.92494 -0.65435,-0.9793 -0.5755,-1.02762 -0.49309,-1.06961 -0.40766,-1.104994 -0.3197,-1.133575 -0.22977,-1.155163 -0.13844,-1.169631 -0.0462,-1.176886 0.0462,-1.176887 0.13844,-1.1696302 0.22977,-1.155164 0.3197,-1.133574 0.40766,-1.104997 0.49309,-1.069606 0.5755,-1.027621 0.65435,-0.9793 0.72916,-0.924942 0.79949,-0.864881 0.86488,-0.79948795 0.92494,-0.729165 0.9793,-0.65434805 1.02762,-0.575495 1.06961,-0.493095 1.105,-0.407655 1.13357,-0.319701 1.15516,-0.229776 1.16963,-0.138435 1.17689,-0.04624 1.17689,0.04624 1.16963,0.138435 1.15516,0.229776 1.13358,0.319701 1.10499,0.407655 1.06961,0.493095 1.02762,0.575495 0.9793,0.65434805 0.92494,0.729165 0.86488,0.79948795 0.79949,0.864881 0.72917,0.924942 0.65434,0.9793 0.5755,1.027621 0.49309,1.069606 0.40766,1.104997 0.3197,1.133574 0.22978,1.155164 0.13843,1.1696302 z"
       fill-opacity="1"
       id="path84"
       style="fill:#a07be9;fill-opacity:1" />
    <text
       fill="#000000"
       stroke="none"
       font-family="'Helvetica Neue', Helvetica, sans-serif"
       font-size="8px"
       font-style="normal"
       font-weight="normal"
       text-decoration="normal"
       x="44.590431"
       y="35.178112"
       text-anchor="middle"
       dominant-baseline="text-after-edge"
       fill-opacity="1"
       id="text86">ADP</text>
    <g
       transform="matrix(0.36383162,0,0,0.36383162,-26.401813,-138.45951)"
       id="g88" />
    <g
       id="g1720"
       transform="matrix(0.36383162,0,0,0.36383162,-631.34181,-145.50422)">
      <g
         transform="matrix(1.4511905,0,0,1.4511905,1960.46,-31.342095)"
         id="g170">
        <g
           transform="matrix(0.68908942,0,0,0.68908942,-361.85448,-15.692344)"
           id="g168" />
        <g
           transform="matrix(1.0725989,-2.13846,2.13846,1.0725989,-4742.0024,2388.6526)"
           id="g138">
          <g
             transform="matrix(0.49896716,0,0,0.49896716,646.66531,243.82713)"
             id="g136" />
          <g
             id="g1778"
             transform="matrix(0.37416109,0.74597176,-0.74597176,0.37416109,1587.8209,587.36003)">
            <text
               xml:space="preserve"
               transform="matrix(0.53875344,0,0,0.53875344,119.9833,195.87489)"
               id="text3637-4"
               style="font-style:normal;font-weight:normal;font-size:37.3333px;line-height:1.25;font-family:sans-serif;white-space:pre;shape-inside:url(#rect3639-3);fill:#000000;fill-opacity:1;stroke:none"><tspan
                 x="1443.0723"
                 y="73.013644"
                 id="tspan39956">Node Color</tspan></text>
            <text
               xml:space="preserve"
               transform="matrix(0.53875344,0,0,0.53875344,118.02088,266.53267)"
               id="text3637-7-7"
               style="font-style:normal;font-weight:normal;font-size:37.3333px;line-height:1.25;font-family:sans-serif;white-space:pre;shape-inside:url(#rect3639-5-6);fill:#000000;fill-opacity:1;stroke:none"><tspan
                 x="1443.0723"
                 y="73.013644"
                 id="tspan39958">Edge Color</tspan></text>
            <rect
               id="rect18643-7-6"
               width="29.16246"
               height="8.8964348"
               x="901.45648"
               y="242.785"
               style="fill:#e2e250;fill-opacity:1;stroke:none;stroke-width:0.365162;stroke-miterlimit:4;stroke-dasharray:none;stroke-opacity:1"
               ry="1.5751116" />
            <text
               xml:space="preserve"
               transform="matrix(0.53875344,0,0,0.53875344,165.14946,219.64921)"
               id="text27183-1-5"
               style="font-style:normal;font-weight:normal;font-size:21.3333px;line-height:1.25;font-family:sans-serif;white-space:pre;shape-inside:url(#rect27185-7-7);fill:#000000;fill-opacity:1;stroke:none"><tspan
                 x="1443.0723"
                 y="58.857392"
                 id="tspan39960">CDS</tspan></text>
            <rect
               id="rect18643-7-1-9-6"
               width="29.16246"
               height="8.8964348"
               x="901.67981"
               y="257.84808"
               style="fill:#5081e2;fill-opacity:1;stroke:none;stroke-width:0.365162;stroke-miterlimit:4;stroke-dasharray:none;stroke-opacity:1"
               ry="1.5751116" />
            <text
               xml:space="preserve"
               transform="matrix(0.53875344,0,0,0.53875344,165.37275,234.71229)"
               id="text27183-1-7-8-9"
               style="font-style:normal;font-weight:normal;font-size:21.3333px;line-height:1.25;font-family:sans-serif;white-space:pre;shape-inside:url(#rect27185-7-6-9-5);fill:#000000;fill-opacity:1;stroke:none"><tspan
                 x="1443.0723"
                 y="58.857392"
                 id="tspan39962">Pathway</tspan></text>
            <rect
               id="rect18643-7-1-9-6-5"
               width="29.16246"
               height="8.8964348"
               x="901.37299"
               y="273.47989"
               style="fill:#a07be9;fill-opacity:1;stroke:none;stroke-width:0.365162;stroke-miterlimit:4;stroke-dasharray:none;stroke-opacity:1"
               ry="1.5751116" />
            <text
               xml:space="preserve"
               transform="matrix(0.53875344,0,0,0.53875344,165.06592,250.34405)"
               id="text27183-1-7-8-9-6"
               style="font-style:normal;font-weight:normal;font-size:21.3333px;line-height:1.25;font-family:sans-serif;white-space:pre;shape-inside:url(#rect27185-7-6-9-5-5);fill:#000000;fill-opacity:1;stroke:none"><tspan
                 x="1443.0723"
                 y="58.857392"
                 id="tspan39964">Small Molecule</tspan></text>
            <rect
               id="rect18643-7-1-5"
               width="29.16246"
               height="8.8964348"
               x="900.35565"
               y="313.86871"
               style="fill:#a07be9;fill-opacity:1;stroke:none;stroke-width:0.365162;stroke-miterlimit:4;stroke-dasharray:none;stroke-opacity:1"
               ry="1.5751116" />
            <text
               xml:space="preserve"
               transform="matrix(0.53875344,0,0,0.53875344,164.04862,290.73292)"
               id="text27183-1-1-4"
               style="font-style:normal;font-weight:normal;font-size:21.3333px;line-height:1.25;font-family:sans-serif;white-space:pre;shape-inside:url(#rect27185-7-8-6);fill:#000000;fill-opacity:1;stroke:none"><tspan
                 x="1443.0723"
                 y="58.857392"
                 id="tspan39966">Conversion</tspan></text>
            <rect
               id="rect18643-9-5-2"
               width="29.16246"
               height="8.8964348"
               x="900.35565"
               y="328.59921"
               style="fill:#5081e2;fill-opacity:1;stroke:none;stroke-width:0.365162;stroke-miterlimit:4;stroke-dasharray:none;stroke-opacity:1"
               ry="1.5751116" />
            <text
               xml:space="preserve"
               transform="matrix(0.53875344,0,0,0.53875344,164.04863,305.46346)"
               id="text27183-2-2-3"
               style="font-style:normal;font-weight:normal;font-size:21.3333px;line-height:1.25;font-family:sans-serif;white-space:pre;shape-inside:url(#rect27185-4-5-0);fill:#000000;fill-opacity:1;stroke:none"><tspan
                 x="1443.0723"
                 y="58.857392"
                 id="tspan39968">Activation</tspan></text>
          </g>
        </g>
      </g>
    </g>
  </g>
</svg>
