<?xml version="1.0" encoding="UTF-8" standalone="no"?>
<svg
   version="1.1"
   width="930.40967"
   height="891.38123"
   id="svg80"
   sodipodi:docname="2_protein.svg"
   inkscape:version="1.1.1 (26b7af14f2, 2022-01-19)"
   inkscape:export-filename="C:\Users\matty\Downloads\protein (1).png"
   inkscape:export-xdpi="96"
   inkscape:export-ydpi="96"
   xmlns:inkscape="http://www.inkscape.org/namespaces/inkscape"
   xmlns:sodipodi="http://sodipodi.sourceforge.net/DTD/sodipodi-0.dtd"
   xmlns="http://www.w3.org/2000/svg"
   xmlns:svg="http://www.w3.org/2000/svg">
  <sodipodi:namedview
     id="namedview82"
     pagecolor="#ffffff"
     bordercolor="#666666"
     borderopacity="1.0"
     inkscape:pageshadow="2"
     inkscape:pageopacity="0.0"
     inkscape:pagecheckerboard="0"
     showgrid="false"
     inkscape:zoom="1.193045"
     inkscape:cx="473.15902"
     inkscape:cy="479.86455"
     inkscape:window-width="2492"
     inkscape:window-height="1376"
     inkscape:window-x="1988"
     inkscape:window-y="27"
     inkscape:window-maximized="1"
     inkscape:current-layer="g78" />
  <defs
     id="defs2">
    <rect
       x="1443.0721"
       y="39.982376"
       width="235.68906"
       height="103.2741"
       id="rect3639" />
    <rect
       x="1443.0721"
       y="39.982376"
       width="235.68906"
       height="103.2741"
       id="rect3639-5" />
    <rect
       x="1443.0721"
       y="39.982376"
       width="235.68906"
       height="103.2741"
       id="rect27185-7" />
    <rect
       x="1443.0721"
       y="39.982376"
       width="235.68906"
       height="103.2741"
       id="rect27185-7-6-9" />
    <rect
       x="1443.0721"
       y="39.982376"
       width="235.68906"
       height="103.2741"
       id="rect27185-7-6-9-4" />
    <rect
       x="1443.0721"
       y="39.982376"
       width="235.68906"
       height="103.2741"
       id="rect27185-4" />
    <rect
       x="1443.0721"
       y="39.982376"
       width="235.68906"
       height="103.2741"
       id="rect27185-7-8" />
    <rect
       x="1443.0721"
       y="39.982376"
       width="235.68906"
       height="103.2741"
       id="rect27185-7-6-9-8" />
    <rect
       x="1443.0721"
       y="39.982376"
       width="235.68906"
       height="103.2741"
       id="rect27185-7-6-9-4-1" />
    <rect
       x="1443.0721"
       y="39.982376"
       width="235.68906"
       height="103.2741"
       id="rect27185-7-6-9-4-9" />
    <rect
       x="1443.0721"
       y="39.982376"
       width="235.68906"
       height="103.2741"
       id="rect27185-7-6-9-4-9-5" />
  </defs>
  <g
     transform="matrix(3.3861111,0,0,3.3861111,303.2876,-90.56674)"
     id="g78">
    <path
       fill="none"
       stroke="rgb(80,226,226)"
       paint-order="fill stroke markers"
       d="m -12.959521,159.49943 -52.267302,48.80112"
       stroke-opacity="1"
       stroke-linejoin="round"
       stroke-miterlimit="10"
       stroke-width="2.5825"
       id="path4"
       style="stroke:#fa8072;stroke-width:2.79046;stroke-miterlimit:10;stroke-dasharray:none;stroke-opacity:1" />
    <path
       fill="rgb(80,226,226)"
       stroke="none"
       paint-order="stroke fill markers"
       d="m -32.486203,171.90208 -2.505283,8.99193 8.69671,-3.39093 z"
       fill-opacity="1"
       id="path6"
       style="fill:#fa8072;fill-opacity:1;stroke-width:0.959649" />
    <path
       fill="none"
       stroke="rgb(80,226,226)"
       paint-order="fill stroke markers"
       d="M 6.9802224,161.28766 55.433419,208.6725"
       stroke-opacity="1"
       stroke-linejoin="round"
       stroke-miterlimit="10"
       stroke-width="2.28969"
       id="path8"
       style="stroke:#fa8072;stroke-width:2.79046;stroke-miterlimit:10;stroke-dasharray:none;stroke-opacity:1" />
    <path
       fill="rgb(80,226,226)"
       stroke="none"
       paint-order="stroke fill markers"
       d="m 19.558213,179.60825 9.051222,2.28178 -3.605311,-8.61005 z"
       fill-opacity="1"
       id="path10"
       style="fill:#fa8072;fill-opacity:1;stroke-width:0.959649" />
    <path
       fill="none"
       stroke="rgb(80,226,226)"
       paint-order="fill stroke markers"
       d="m -65.211511,223.65541 52.302429,44.40302"
       stroke-opacity="1"
       stroke-linejoin="round"
       stroke-miterlimit="10"
       stroke-width="2.49325"
       id="path12"
       style="stroke:#fa8072;stroke-width:2.79046;stroke-miterlimit:10;stroke-dasharray:none;stroke-opacity:1" />
    <path
       fill="rgb(80,226,226)"
       stroke="none"
       paint-order="stroke fill markers"
       d="m -43.87092,246.1969 8.712337,3.35057 -2.546954,-8.98021 z"
       fill-opacity="1"
       id="path14"
       style="fill:#fa8072;fill-opacity:1;stroke-width:0.959649" />
    <path
       fill="none"
       stroke="rgb(80,226,226)"
       paint-order="fill stroke markers"
       d="M 56.801009,225.34024 3.4240408,268.74513"
       stroke-opacity="1"
       stroke-linejoin="round"
       stroke-miterlimit="10"
       stroke-width="2.74433"
       id="path16"
       style="stroke:#fa8072;stroke-width:2.79046;stroke-miterlimit:10;stroke-dasharray:none;stroke-opacity:1" />
    <path
       fill="rgb(80,226,226)"
       stroke="none"
       paint-order="stroke fill markers"
       d="m 28.415389,242.88952 -3.452387,8.67249 9.009408,-2.44158 z"
       fill-opacity="1"
       id="path18"
       style="fill:#fa8072;fill-opacity:1;stroke-width:0.959649" />
    <path
       fill="none"
       stroke="rgb(80,226,226)"
       paint-order="fill stroke markers"
       d="m -66.101508,108.49923 53.9965,43.7455"
       stroke-opacity="1"
       stroke-linejoin="round"
       stroke-miterlimit="10"
       stroke-width="2.37352"
       id="path20"
       style="stroke:#fa8072;stroke-width:2.79046;stroke-miterlimit:10;stroke-dasharray:none;stroke-opacity:1" />
    <path
       fill="rgb(80,226,226)"
       stroke="none"
       paint-order="stroke fill markers"
       d="m -43.968639,131.42379 8.991037,2.50844 -3.387856,-8.69789 z"
       fill-opacity="1"
       id="path22"
       style="fill:#fa8072;fill-opacity:1;stroke-width:0.959649" />
    <path
       fill="none"
       stroke="rgb(80,226,226)"
       paint-order="fill stroke markers"
       d="m -73.710657,100.74882 -0.123859,100.99822"
       stroke-opacity="1"
       stroke-linejoin="round"
       stroke-miterlimit="10"
       stroke-width="2.87895"
       id="path24"
       style="stroke:#fa8072;stroke-width:2.79046;stroke-miterlimit:10;stroke-dasharray:none;stroke-opacity:1" />
    <path
       fill="rgb(80,226,226)"
       stroke="none"
       paint-order="stroke fill markers"
       d="m -77.708353,142.78384 3.935766,8.46409 4.409815,-8.22707 z"
       fill-opacity="1"
       id="path26"
       style="fill:#fa8072;fill-opacity:1;stroke-width:0.959649" />
    <path
       fill="none"
       stroke="rgb(80,226,226)"
       paint-order="fill stroke markers"
       d="M 101.68759,59.414613 74.374588,93.029388"
       stroke-opacity="1"
       stroke-linejoin="round"
       stroke-miterlimit="10"
       stroke-width="2.68086"
       id="path28"
       style="stroke:#fa8072;stroke-opacity:1" />
    <path
       fill="rgb(80,226,226)"
       stroke="none"
       paint-order="stroke fill markers"
       d="m 92.781536,63.792396 -0.734806,9.305439 7.885232,-4.995418 z"
       fill-opacity="1"
       id="path30"
       style="fill:#fa8072;fill-opacity:1;stroke-width:0.959649" />
    <path
       fill="none"
       stroke="rgb(80,226,226)"
       paint-order="fill stroke markers"
       d="M 30.256363,59.781403 58.97072,93.295868"
       stroke-opacity="1"
       stroke-linejoin="round"
       stroke-miterlimit="10"
       stroke-width="2.53678"
       id="path32"
       style="stroke:#fa8072;stroke-opacity:1" />
    <path
       fill="rgb(80,226,226)"
       stroke="none"
       paint-order="stroke fill markers"
       d="m 31.437491,67.532584 8.573006,3.69252 -2.189788,-9.073917 z"
       fill-opacity="1"
       id="path34"
       style="fill:#fa8072;fill-opacity:1;stroke-width:0.959649" />
    <path
       fill="none"
       stroke="rgb(80,226,226)"
       paint-order="fill stroke markers"
       d="M 60.688364,108.00807 1.2608236,152.63983"
       stroke-opacity="1"
       stroke-linejoin="round"
       stroke-miterlimit="10"
       stroke-width="2.56893"
       id="path36"
       style="stroke:#fa8072;stroke-width:2.79046;stroke-miterlimit:10;stroke-dasharray:none;stroke-opacity:1" />
    <path
       fill="rgb(80,226,226)"
       stroke="none"
       paint-order="stroke fill markers"
       d="m 34.039187,122.66043 -3.878004,8.4907 9.119357,-1.99201 z"
       fill-opacity="1"
       id="path38"
       style="fill:#fa8072;fill-opacity:1;stroke-width:0.959649" />
    <path
       fill="none"
       stroke="rgb(80,226,226)"
       paint-order="fill stroke markers"
       d="M 67.237772,97.896888 67.61921,209.65715"
       stroke-opacity="1"
       stroke-linejoin="round"
       stroke-miterlimit="10"
       stroke-width="2.97541"
       id="path40"
       style="stroke:#fa8072;stroke-opacity:1" />
    <path
       fill="rgb(80,226,226)"
       stroke="none"
       paint-order="stroke fill markers"
       d="m 63.223626,149.00807 4.204866,8.33367 4.143996,-8.36411 z"
       fill-opacity="1"
       id="path42"
       style="fill:#fa8072;fill-opacity:1;stroke-width:0.959649" />
    <path
       fill="#fa8072"
       stroke="none"
       paint-order="stroke fill markers"
       d="m 9.4257899,155.21599 -0.04437,1.12941 -0.132849,1.12243 -0.220505,1.10855 -0.3068011,1.08784 -0.391205,1.0604 -0.4731991,1.02645 -0.5522731,0.98615 -0.6279441,0.93979 -0.6997431,0.88762 -0.7672282,0.82998 -0.8299821,0.76723 -0.8876202,0.69975 -0.9397841,0.62793 -0.9861561,0.55228 -1.02644617,0.47319 -1.06040906,0.39121 -1.08783417,0.3068 -1.1085512,0.22051 -1.1224352,0.13285 -1.1293982,0.0443 -1.1293982,-0.0443 -1.1224353,-0.13285 -1.1085522,-0.22051 -1.0878329,-0.3068 -1.0604091,-0.39121 -1.026446,-0.47319 -0.986156,-0.55228 -0.939784,-0.62793 -0.88762,-0.69975 -0.829982,-0.76723 -0.767228,-0.82998 -0.699743,-0.88762 -0.627944,-0.93979 -0.552273,-0.98615 -0.473198,-1.02645 -0.391206,-1.0604 -0.306801,-1.08784 -0.220505,-1.10855 -0.132848,-1.12243 -0.04437,-1.12941 0.04437,-1.12939 0.132848,-1.12244 0.220505,-1.10855 0.306801,-1.08783 0.391206,-1.06041 0.473198,-1.02645 0.552273,-0.98616 0.627944,-0.93978 0.699743,-0.88762 0.767228,-0.82998 0.829982,-0.76723 0.88762,-0.69974 0.939784,-0.62794 0.986156,-0.55228 1.026446,-0.47319 1.0604091,-0.39121 1.0878329,-0.3068 1.1085522,-0.2205 1.1224353,-0.13286 1.1293982,-0.0443 1.1293982,0.0443 1.1224352,0.13286 1.1085512,0.2205 1.08783417,0.3068 1.06040906,0.39121 1.02644617,0.47319 0.9861561,0.55228 0.9397841,0.62794 0.8876202,0.69974 0.8299821,0.76723 0.7672282,0.82998 0.6997431,0.88762 0.6279441,0.93978 0.5522731,0.98616 0.4731991,1.02645 0.391205,1.06041 0.3068011,1.08783 0.220505,1.10855 0.132849,1.12244 z"
       fill-opacity="1"
       id="path44"
       style="stroke-width:0.959649" />
    <text
       fill="#000000"
       stroke="none"
       font-family="'Helvetica Neue', Helvetica, sans-serif"
       font-size="7.67719px"
       font-style="normal"
       font-weight="normal"
       text-decoration="normal"
       x="-4.9689684"
       y="140.82126"
       text-anchor="middle"
       dominant-baseline="text-after-edge"
       fill-opacity="1"
       id="text46"
       style="stroke-width:0.959649">AmtR</text>
    <path
       fill="#fa8072"
       stroke="none"
       paint-order="stroke fill markers"
       d="m -58.952905,216.11567 -0.04437,1.12939 -0.132849,1.12244 -0.220504,1.10855 -0.306801,1.08783 -0.391206,1.06041 -0.473198,1.02645 -0.552274,0.98616 -0.627944,0.93978 -0.699743,0.88762 -0.767228,0.82998 -0.829982,0.76723 -0.88762,0.69974 -0.939784,0.62795 -0.986157,0.55227 -1.026446,0.4732 -1.060409,0.39121 -1.087834,0.3068 -1.108552,0.2205 -1.122434,0.13285 -1.129398,0.0443 -1.129398,-0.0443 -1.122435,-0.13285 -1.108551,-0.2205 -1.087834,-0.3068 -1.060409,-0.39121 -1.026446,-0.4732 -0.986156,-0.55227 -0.939785,-0.62795 -0.88762,-0.69974 -0.829982,-0.76723 -0.767227,-0.82998 -0.699743,-0.88762 -0.627944,-0.93978 -0.552274,-0.98616 -0.473198,-1.02645 -0.391206,-1.06041 -0.306801,-1.08783 -0.220504,-1.10855 -0.132849,-1.12244 -0.04437,-1.12939 0.04437,-1.1294 0.132849,-1.12244 0.220504,-1.10855 0.306801,-1.08783 0.391206,-1.06041 0.473198,-1.02645 0.552274,-0.98615 0.627944,-0.93979 0.699743,-0.88761 0.767227,-0.82998 0.829982,-0.76723 0.88762,-0.69975 0.939785,-0.62794 0.986156,-0.55228 1.026446,-0.47319 1.060409,-0.39121 1.087834,-0.3068 1.108551,-0.22051 1.122435,-0.13284 1.129398,-0.0443 1.129398,0.0443 1.122434,0.13284 1.108552,0.22051 1.087834,0.3068 1.060409,0.39121 1.026446,0.47319 0.986157,0.55228 0.939784,0.62794 0.88762,0.69975 0.829982,0.76723 0.767228,0.82998 0.699743,0.88761 0.627944,0.93979 0.552274,0.98615 0.473198,1.02645 0.391206,1.06041 0.306801,1.08783 0.220504,1.10855 0.132849,1.12244 z"
       fill-opacity="1"
       id="path48"
       style="stroke-width:0.959649" />
    <text
       fill="#000000"
       stroke="none"
       font-family="'Helvetica Neue', Helvetica, sans-serif"
       font-size="7.67719px"
       font-style="normal"
       font-weight="normal"
       text-decoration="normal"
       x="-74.663246"
       y="238.50935"
       text-anchor="middle"
       dominant-baseline="text-after-edge"
       fill-opacity="1"
       id="text50"
       style="stroke-width:0.959649">PhIF</text>
    <path
       fill="#fa8072"
       stroke="none"
       paint-order="stroke fill markers"
       d="m 82.066372,216.11636 -0.0443,1.1294 -0.13284,1.12244 -0.220508,1.10854 -0.3068,1.08784 -0.391208,1.06041 -0.473188,1.02645 -0.55228,0.98615 -0.627946,0.93978 -0.699728,0.88762 -0.767228,0.82998 -0.829978,0.76723 -0.887616,0.69975 -0.939788,0.62794 -0.986146,0.55228 -1.026446,0.47319 -1.060406,0.39121 -1.087826,0.3068 -1.108548,0.22051 -1.122436,0.13284 -1.129396,0.0443 -1.129396,-0.0443 -1.122426,-0.13284 -1.108546,-0.22051 -1.087826,-0.3068 -1.060406,-0.39121 -1.026448,-0.47319 -0.986156,-0.55228 -0.939776,-0.62794 -0.887618,-0.69975 -0.829978,-0.76723 -0.767225,-0.82998 -0.69974,-0.88762 -0.62794,-0.93978 -0.55228,-0.98615 -0.4732,-1.02645 -0.39121,-1.06041 -0.3068,-1.08784 -0.2205,-1.10854 -0.13285,-1.12244 -0.0443,-1.1294 0.0443,-1.12939 0.13285,-1.12245 0.2205,-1.10854 0.3068,-1.08783 0.39121,-1.06042 0.4732,-1.02645 0.55228,-0.98615 0.62794,-0.93978 0.69974,-0.88762 0.767225,-0.82998 0.829978,-0.76723 0.887618,-0.69974 0.939776,-0.62795 0.986156,-0.55228 1.026448,-0.47319 1.060406,-0.39121 1.087826,-0.3068 1.108546,-0.2205 1.122426,-0.13285 1.129396,-0.0443 1.129396,0.0443 1.122436,0.13285 1.108548,0.2205 1.087826,0.3068 1.060406,0.39121 1.026446,0.47319 0.986146,0.55228 0.939788,0.62795 0.887616,0.69974 0.829978,0.76723 0.767228,0.82998 0.699728,0.88762 0.627946,0.93978 0.55228,0.98615 0.473188,1.02645 0.391208,1.06042 0.3068,1.08783 0.220508,1.10854 0.13284,1.12245 z"
       fill-opacity="1"
       id="path52"
       style="stroke-width:0.959649" />
    <text
       fill="#000000"
       stroke="none"
       font-family="'Helvetica Neue', Helvetica, sans-serif"
       font-size="7.67719px"
       font-style="normal"
       font-weight="normal"
       text-decoration="normal"
       x="67.671883"
       y="238.34204"
       text-anchor="middle"
       dominant-baseline="text-after-edge"
       fill-opacity="1"
       id="text54"
       style="stroke-width:0.959649">BetI</text>
    <path
       fill="#fa8072"
       stroke="none"
       paint-order="stroke fill markers"
       d="m -59.235978,105.281 -0.04437,1.1294 -0.132849,1.12243 -0.220505,1.10855 -0.3068,1.08784 -0.391206,1.06041 -0.473199,1.02644 -0.552273,0.98616 -0.627945,0.93978 -0.699742,0.88762 -0.767228,0.82999 -0.829983,0.76722 -0.887619,0.69975 -0.939785,0.62794 -0.986156,0.55227 -1.026446,0.4732 -1.06041,0.3912 -1.087833,0.3068 -1.108552,0.22051 -1.122434,0.13285 -1.129399,0.0443 -1.129397,-0.0443 -1.122436,-0.13285 -1.108551,-0.22051 -1.087834,-0.3068 -1.060408,-0.3912 -1.026447,-0.4732 -0.986155,-0.55227 -0.939784,-0.62794 -0.88762,-0.69975 -0.829982,-0.76722 -0.767228,-0.82999 -0.699744,-0.88762 -0.627943,-0.93978 -0.552274,-0.98616 -0.473199,-1.02644 -0.391204,-1.06041 -0.306802,-1.08784 -0.220504,-1.10855 -0.132849,-1.12243 -0.04438,-1.1294 0.04438,-1.1294 0.132849,-1.12243 0.220504,-1.10856 0.306802,-1.08783 0.391204,-1.060412 0.473199,-1.02644 0.552274,-0.98616 0.627943,-0.93978 0.699744,-0.88763 0.767228,-0.82999 0.829982,-0.76723 0.88762,-0.69974 0.939784,-0.62794 0.986155,-0.55228 1.026447,-0.4732 1.060408,-0.39121 1.087834,-0.3068 1.108551,-0.2205 1.122436,-0.13285 1.129397,-0.0444 1.129399,0.0444 1.122434,0.13285 1.108552,0.2205 1.087833,0.3068 1.06041,0.39121 1.026446,0.4732 0.986156,0.55228 0.939785,0.62794 0.887619,0.69974 0.829983,0.76723 0.767228,0.82999 0.699742,0.88763 0.627945,0.93978 0.552273,0.98616 0.473199,1.02644 0.391206,1.060412 0.3068,1.08783 0.220505,1.10856 0.132849,1.12243 z"
       fill-opacity="1"
       id="path56"
       style="stroke-width:0.959649" />
    <text
       fill="#000000"
       stroke="none"
       font-family="'Helvetica Neue', Helvetica, sans-serif"
       font-size="7.67719px"
       font-style="normal"
       font-weight="normal"
       text-decoration="normal"
       x="-73.630684"
       y="90.886101"
       text-anchor="middle"
       dominant-baseline="text-after-edge"
       fill-opacity="1"
       id="text58"
       style="stroke-width:0.959649">AraC</text>
    <path
       fill="#fa8072"
       stroke="none"
       paint-order="stroke fill markers"
       d="m 9.7311289,275.59817 -0.04437,1.1294 -0.132849,1.12244 -0.2205041,1.10855 -0.306801,1.08783 -0.3912061,1.06041 -0.4731981,1.02645 -0.5522731,0.98615 -0.6279451,0.93979 -0.6997421,0.88761 -0.7672281,0.82999 -0.8299821,0.76722 -0.8876202,0.69975 -0.9397842,0.62794 -0.9861561,0.55228 -1.02644607,0.47319 -1.06040919,0.39121 -1.08783414,0.3068 -1.1085522,0.22051 -1.1224341,0.13284 -1.1293992,0.0443 -1.1293972,-0.0443 -1.1224353,-0.13284 -1.1085512,-0.22051 -1.0878348,-0.3068 -1.0604082,-0.39121 -1.026446,-0.47319 -0.986156,-0.55228 -0.939785,-0.62794 -0.88762,-0.69975 -0.829982,-0.76722 -0.767227,-0.82999 -0.699743,-0.88761 -0.627944,-0.93979 -0.552274,-0.98615 -0.473198,-1.02645 -0.391206,-1.06041 -0.306801,-1.08783 -0.220504,-1.10855 -0.132849,-1.12244 -0.04437,-1.1294 0.04437,-1.1294 0.132849,-1.12243 0.220504,-1.10855 0.306801,-1.08783 0.391206,-1.06041 0.473198,-1.02645 0.552274,-0.98616 0.627944,-0.93978 0.699743,-0.88762 0.767227,-0.82998 0.829982,-0.76723 0.88762,-0.69974 0.939785,-0.62795 0.986156,-0.55227 1.026446,-0.4732 1.0604082,-0.39121 1.0878348,-0.3068 1.1085512,-0.2205 1.1224353,-0.13285 1.1293972,-0.0443 1.1293992,0.0443 1.1224341,0.13285 1.1085522,0.2205 1.08783414,0.3068 1.06040919,0.39121 1.02644607,0.4732 0.9861561,0.55227 0.9397842,0.62795 0.8876202,0.69974 0.8299821,0.76723 0.7672281,0.82998 0.6997421,0.88762 0.6279451,0.93978 0.5522731,0.98616 0.4731981,1.02645 0.3912061,1.06041 0.306801,1.08783 0.2205041,1.10855 0.132849,1.12243 z"
       fill-opacity="1"
       id="path60"
       style="stroke-width:0.959649" />
    <text
       fill="#000000"
       stroke="none"
       font-family="'Helvetica Neue', Helvetica, sans-serif"
       font-size="7.67719px"
       font-style="normal"
       font-weight="normal"
       text-decoration="normal"
       x="-4.6636314"
       y="261.20343"
       text-anchor="middle"
       dominant-baseline="text-after-edge"
       fill-opacity="1"
       id="text62"
       style="stroke-width:0.959649">YFP</text>
    <path
       fill="#fa8072"
       stroke="none"
       paint-order="stroke fill markers"
       d="m 121.46332,48.348455 -0.0444,1.129398 -0.13285,1.122435 -0.2205,1.108551 -0.3068,1.087834 -0.39121,1.060409 -0.4732,1.026447 -0.55228,0.986154 -0.62794,0.939786 -0.69975,0.887619 -0.76723,0.829983 -0.82998,0.767227 -0.88762,0.699743 -0.93979,0.627943 -0.98616,0.552275 -1.02645,0.473198 -1.06041,0.391205 -1.08784,0.306801 -1.10856,0.220505 -1.12243,0.132849 -1.12941,0.04437 -1.1294,-0.04437 -1.12243,-0.132849 -1.10856,-0.220505 -1.08784,-0.306801 -1.06041,-0.391205 -1.02645,-0.473198 -0.986158,-0.552275 -0.939786,-0.627943 -0.887618,-0.699743 -0.829976,-0.767227 -0.767228,-0.829983 -0.699748,-0.887619 -0.627938,-0.939786 -0.552278,-0.986154 -0.473198,-1.026447 -0.391208,-1.060409 -0.3068,-1.087834 -0.220498,-1.108551 -0.13285,-1.122435 -0.0444,-1.129398 0.0444,-1.129398 0.13285,-1.122435 0.220498,-1.108551 0.3068,-1.087834 0.391208,-1.060408 0.473198,-1.026447 0.552278,-0.986155 0.627938,-0.939786 0.699748,-0.887619 0.767228,-0.829983 0.829976,-0.767226 0.887618,-0.699744 0.939786,-0.627943 0.986158,-0.552275 1.02645,-0.473198 1.06041,-0.391205 1.08784,-0.306801 1.10856,-0.220505 1.12243,-0.132849 1.1294,-0.04437 1.12941,0.04437 1.12243,0.132849 1.10856,0.220505 1.08784,0.306801 1.06041,0.391205 1.02645,0.473198 0.98616,0.552275 0.93979,0.627943 0.88762,0.699744 0.82998,0.767226 0.76723,0.829983 0.69975,0.887619 0.62794,0.939786 0.55228,0.986155 0.4732,1.026447 0.39121,1.060408 0.3068,1.087834 0.2205,1.108551 0.13285,1.122435 z"
       fill-opacity="1"
       id="path64"
       style="stroke-width:0.959649" />
    <text
       fill="#000000"
       stroke="none"
       font-family="'Helvetica Neue', Helvetica, sans-serif"
       font-size="7.67719px"
       font-style="normal"
       font-weight="normal"
       text-decoration="normal"
       x="107.52634"
       y="35.340675"
       text-anchor="middle"
       dominant-baseline="text-after-edge"
       fill-opacity="1"
       id="text66"
       style="stroke-width:0.959649">TetR</text>
    <path
       fill="#fa8072"
       stroke="none"
       paint-order="stroke fill markers"
       d="m 36.678312,47.781588 -0.04438,1.129399 -0.132849,1.122434 -0.220504,1.108552 -0.306801,1.087833 -0.391206,1.06041 -0.473198,1.026446 -0.552274,0.986156 -0.627943,0.939784 -0.699744,0.88762 -0.767227,0.829982 -0.829982,0.767228 -0.88762,0.699742 -0.939785,0.627945 -0.986155,0.552273 -1.026447,0.473198 -1.060408,0.391206 -1.087834,0.306801 -1.108551,0.220505 -1.122436,0.132848 -1.129397,0.04437 -1.129399,-0.04437 -1.122434,-0.132848 -1.108552,-0.220505 -1.087833,-0.306801 -1.06041,-0.391206 -1.026446,-0.473198 -0.986156,-0.552273 -0.939784,-0.627945 -0.88762,-0.699742 -0.829982,-0.767228 -0.767228,-0.829982 -0.699742,-0.88762 -0.627945,-0.939784 -0.5522731,-0.986156 -0.4731981,-1.026446 -0.3912031,-1.06041 -0.3068,-1.087833 -0.2205101,-1.108552 -0.13285,-1.122434 -0.0444,-1.129399 0.0444,-1.129397 0.13285,-1.122435 0.2205101,-1.108551 0.3068,-1.087834 0.3912031,-1.060409 0.4731981,-1.026446 0.5522731,-0.986156 0.627945,-0.939784 0.699742,-0.88762 0.767228,-0.829982 0.829982,-0.767228 0.88762,-0.699743 0.939784,-0.627944 0.986156,-0.552273 1.026446,-0.473199 1.06041,-0.391205 1.087833,-0.306801 1.108552,-0.220505 1.122434,-0.132849 1.129399,-0.04437 1.129397,0.04437 1.122436,0.132849 1.108551,0.220505 1.087834,0.306801 1.060408,0.391205 1.026447,0.473199 0.986155,0.552273 0.939785,0.627944 0.88762,0.699743 0.829982,0.767228 0.767227,0.829982 0.699744,0.88762 0.627943,0.939784 0.552274,0.986156 0.473198,1.026446 0.391206,1.060409 0.306801,1.087834 0.220504,1.108551 0.132849,1.122435 z"
       fill-opacity="1"
       id="path68"
       style="stroke-width:0.959649" />
    <text
       fill="#000000"
       stroke="none"
       font-family="'Helvetica Neue', Helvetica, sans-serif"
       font-size="7.67719px"
       font-style="normal"
       font-weight="normal"
       text-decoration="normal"
       x="21.683207"
       y="34.423725"
       text-anchor="middle"
       dominant-baseline="text-after-edge"
       fill-opacity="1"
       id="text70"
       style="stroke-width:0.959649">LacI</text>
    <path
       fill="#fa8072"
       stroke="none"
       paint-order="stroke fill markers"
       d="m 81.579974,104.99797 -0.0443,1.12939 -0.13285,1.12243 -0.22051,1.10856 -0.306798,1.08783 -0.391208,1.06041 -0.47319,1.02645 -0.552278,0.98616 -0.627928,0.93978 -0.699746,0.88762 -0.767228,0.82998 -0.829978,0.76723 -0.887616,0.69974 -0.939778,0.62794 -0.986156,0.55228 -1.026446,0.47319 -1.060396,0.39122 -1.087838,0.3068 -1.108546,0.22049 -1.122426,0.13286 -1.129396,0.0443 -1.129396,-0.0443 -1.122436,-0.13286 -1.108546,-0.22049 -1.087826,-0.3068 -1.060408,-0.39122 -1.026446,-0.47319 -0.986156,-0.55228 -0.939778,-0.62794 -0.887616,-0.69974 -0.829978,-0.76723 -0.767227,-0.82998 -0.69974,-0.88762 -0.62794,-0.93978 -0.55228,-0.98616 -0.47319,-1.02645 -0.39121,-1.06041 -0.3068,-1.08783 -0.2205,-1.10856 -0.13286,-1.12243 -0.0443,-1.12939 0.0443,-1.12941 0.13286,-1.12243 0.2205,-1.10855 0.3068,-1.08784 0.39121,-1.060402 0.47319,-1.02645 0.55228,-0.98615 0.62794,-0.93979 0.69974,-0.88762 0.767227,-0.82999 0.829978,-0.76723 0.887616,-0.69974 0.939778,-0.62794 0.986156,-0.55228 1.026446,-0.4732 1.060408,-0.3912 1.087826,-0.3068 1.108546,-0.22051 1.122436,-0.13284 1.129396,-0.0443 1.129396,0.0443 1.122426,0.13284 1.108546,0.22051 1.087838,0.3068 1.060396,0.3912 1.026446,0.4732 0.986156,0.55228 0.939778,0.62794 0.887616,0.69974 0.829978,0.76723 0.767228,0.82999 0.699746,0.88762 0.627928,0.93979 0.552278,0.98615 0.47319,1.02645 0.391208,1.060402 0.306798,1.08784 0.22051,1.10855 0.13285,1.12243 z"
       fill-opacity="1"
       id="path72"
       style="stroke-width:0.959649" />
    <text
       fill="#000000"
       stroke="none"
       font-family="'Helvetica Neue', Helvetica, sans-serif"
       font-size="7.67719px"
       font-style="normal"
       font-weight="normal"
       text-decoration="normal"
       x="67.185509"
       y="90.603111"
       text-anchor="middle"
       dominant-baseline="text-after-edge"
       fill-opacity="1"
       id="text74"
       style="stroke-width:0.959649">HlyIIR</text>
    <g
       transform="matrix(0.29532404,0,0,0.29532404,-236.75468,-22.289983)"
       id="g76" />
    <text
       xml:space="preserve"
       transform="matrix(0.29532401,0,0,0.29532401,-320.84767,66.907833)"
       id="text3637"
       style="font-style:normal;font-weight:normal;font-size:37.3333px;line-height:1.25;font-family:sans-serif;white-space:pre;shape-inside:url(#rect3639);fill:#000000;fill-opacity:1;stroke:none"><tspan
         x="1443.0723"
         y="73.013644"
         id="tspan941">Node Color</tspan></text>
    <text
       xml:space="preserve"
       transform="matrix(0.29532401,0,0,0.29532401,-322.04329,89.688045)"
       id="text3637-7"
       style="font-style:normal;font-weight:normal;font-size:37.3333px;line-height:1.25;font-family:sans-serif;white-space:pre;shape-inside:url(#rect3639-5);fill:#000000;fill-opacity:1;stroke:none"><tspan
         x="1443.0723"
         y="73.013644"
         id="tspan943">Edge Color</tspan></text>
    <rect
       id="rect18643-7-1-9-4"
       width="15.985744"
       height="4.8766847"
       x="105.89458"
       y="91.731384"
       style="fill:#fa8072;fill-opacity:1;stroke:none;stroke-width:0.200168;stroke-miterlimit:4;stroke-dasharray:none;stroke-opacity:1"
       ry="0.86341584" />
    <text
       xml:space="preserve"
       transform="matrix(0.29532401,0,0,0.29532401,-297.72102,79.049245)"
       id="text27183-1-7-8-1"
       style="font-style:normal;font-weight:normal;font-size:21.3333px;line-height:1.25;font-family:sans-serif;white-space:pre;shape-inside:url(#rect27185-7-6-9-4);fill:#000000;fill-opacity:1;stroke:none"><tspan
         x="1443.0723"
         y="58.857392"
         id="tspan945">Protein</tspan></text>
    <rect
       id="rect18643-9"
       width="15.985744"
       height="4.8766847"
       x="105.89458"
       y="115.50883"
       style="fill:#fa8072;fill-opacity:1;stroke:none;stroke-width:0.200168;stroke-miterlimit:4;stroke-dasharray:none;stroke-opacity:1"
       ry="0.86341584" />
    <text
       xml:space="preserve"
       transform="matrix(0.29532401,0,0,0.29532401,-297.71054,102.53577)"
       id="text27183-2"
       style="font-style:normal;font-weight:normal;font-size:21.3333px;line-height:1.25;font-family:sans-serif;white-space:pre;shape-inside:url(#rect27185-4);fill:#000000;fill-opacity:1;stroke:none"><tspan
         x="1443.0723"
         y="58.857392"
         id="tspan947">Repression</tspan></text>
  </g>
</svg>
