<?xml version="1.0" encoding="UTF-8" standalone="no"?>
<svg
   version="1.1"
   width="1347.6375"
   height="1216.4541"
   id="svg244"
   sodipodi:docname="arabinoise-pathway-alt-layout.svg"
   inkscape:version="1.1.1 (26b7af14f2, 2022-01-19)"
   xmlns:inkscape="http://www.inkscape.org/namespaces/inkscape"
   xmlns:sodipodi="http://sodipodi.sourceforge.net/DTD/sodipodi-0.dtd"
   xmlns="http://www.w3.org/2000/svg"
   xmlns:svg="http://www.w3.org/2000/svg">
  <sodipodi:namedview
     id="namedview246"
     pagecolor="#ffffff"
     bordercolor="#666666"
     borderopacity="1.0"
     inkscape:pageshadow="2"
     inkscape:pageopacity="0.0"
     inkscape:pagecheckerboard="0"
     showgrid="false"
     inkscape:zoom="0.60454748"
     inkscape:cx="672.40376"
     inkscape:cy="607.8927"
     inkscape:window-width="2492"
     inkscape:window-height="1376"
     inkscape:window-x="1988"
     inkscape:window-y="27"
     inkscape:window-maximized="1"
     inkscape:current-layer="svg244" />
  <defs
     id="defs2" />
  <g
     transform="matrix(1.2729253,0,0,1.2729253,-847.99747,-290.62951)"
     id="g242">
    <path
       fill="none"
       stroke="#50e2e2"
       paint-order="fill stroke markers"
       d="M 695.06257,901.95624 779.71591,867.3131"
       stroke-opacity="1"
       stroke-linejoin="round"
       stroke-miterlimit="10"
       stroke-width="3"
       id="path4" />
    <path
       fill="#50e2e2"
       stroke="none"
       paint-order="stroke fill markers"
       d="m 730.98494,891.9557 6.4043,-7.32103 -9.6994,-0.73082 z"
       fill-opacity="1"
       id="path6" />
    <path
       fill="none"
       stroke="#e28150"
       paint-order="fill stroke markers"
       d="m 801.58246,848.93327 45.97011,-73.11531"
       stroke-opacity="1"
       stroke-linejoin="round"
       stroke-miterlimit="10"
       stroke-width="3"
       id="path8" />
    <path
       fill="#e28150"
       stroke="none"
       paint-order="stroke fill markers"
       d="m 823.61936,822.05619 0.94816,-9.68058 -8.31335,5.04982 z"
       fill-opacity="1"
       id="path10" />
    <path
       fill="none"
       stroke="#e28150"
       paint-order="fill stroke markers"
       d="m 793.85947,846.63416 1.25758,-72.24673"
       stroke-opacity="1"
       stroke-linejoin="round"
       stroke-miterlimit="10"
       stroke-width="3"
       id="path12" />
    <path
       fill="#e28150"
       stroke="none"
       paint-order="stroke fill markers"
       d="m 798.68618,819.28518 -4.19792,-8.77438 -4.50076,8.62297 z"
       fill-opacity="1"
       id="path14" />
    <path
       fill="none"
       stroke="#e28150"
       paint-order="fill stroke markers"
       d="m 808.59686,861.84727 114.19648,1.63992"
       stroke-opacity="1"
       stroke-linejoin="round"
       stroke-miterlimit="10"
       stroke-width="3"
       id="path16" />
    <path
       fill="#e28150"
       stroke="none"
       paint-order="stroke fill markers"
       d="m 856.93354,866.89186 8.76156,-4.22463 -8.63664,-4.47447 z"
       fill-opacity="1"
       id="path18" />
    <path
       fill="none"
       stroke="#e2e250"
       paint-order="fill stroke markers"
       d="m 1490.3499,449.92762 -96.1022,34.51096"
       stroke-opacity="1"
       stroke-linejoin="round"
       stroke-miterlimit="10"
       stroke-width="3"
       id="path20" />
    <path
       fill="#e2e250"
       stroke="none"
       paint-order="stroke fill markers"
       d="m 1449.0167,460.14869 -6.7179,7.03441 9.6583,1.15364 z"
       fill-opacity="1"
       id="path22" />
    <path
       fill="none"
       stroke="#50e2e2"
       paint-order="fill stroke markers"
       d="m 1376.0809,475.06517 -21.2008,-75.61435"
       stroke-opacity="1"
       stroke-linejoin="round"
       stroke-miterlimit="10"
       stroke-width="3"
       id="path24" />
    <path
       fill="#50e2e2"
       stroke="none"
       paint-order="stroke fill markers"
       d="m 1372.0177,444.46059 -6.5372,-7.20259 -1.8398,9.55132 z"
       fill-opacity="1"
       id="path26" />
    <path
       fill="none"
       stroke="#81e250"
       paint-order="fill stroke markers"
       d="m 1524.4926,346.56401 -17.0309,83.59591"
       stroke-opacity="1"
       stroke-linejoin="round"
       stroke-miterlimit="10"
       stroke-width="3"
       id="path28" />
    <path
       fill="#81e250"
       stroke="none"
       paint-order="stroke fill markers"
       d="m 1513.4514,378.9687 2.5257,9.39327 5.9992,-7.6565 z"
       fill-opacity="1"
       id="path30" />
    <path
       fill="none"
       stroke="#50e281"
       paint-order="fill stroke markers"
       d="m 1538.67,341.863 54.9174,49.09365"
       stroke-opacity="1"
       stroke-linejoin="round"
       stroke-miterlimit="10"
       stroke-width="3"
       id="path32" />
    <path
       fill="#50e281"
       stroke="none"
       paint-order="stroke fill markers"
       d="m 1556.7434,363.85459 9.3853,2.55523 -3.587,-9.04135 z"
       fill-opacity="1"
       id="path34" />
    <path
       fill="none"
       stroke="#50e2e2"
       paint-order="fill stroke markers"
       d="m 1114.433,1156.0977 -41.7887,-69.5018"
       stroke-opacity="1"
       stroke-linejoin="round"
       stroke-miterlimit="10"
       stroke-width="3"
       id="path36" />
    <path
       fill="#50e2e2"
       stroke="none"
       paint-order="stroke fill markers"
       d="m 1101.7497,1126.5613 -8.211,-5.2145 0.755,9.6976 z"
       fill-opacity="1"
       id="path38" />
    <path
       fill="none"
       stroke="#e28150"
       paint-order="fill stroke markers"
       d="m 1053.3039,1064.2442 -69.45831,-56.8087"
       stroke-opacity="1"
       stroke-linejoin="round"
       stroke-miterlimit="10"
       stroke-width="3"
       id="path40" />
    <path
       fill="#e28150"
       stroke="none"
       paint-order="stroke fill markers"
       d="m 1028.0631,1037.9806 -9.4884,-2.1407 3.9805,8.8751 z"
       fill-opacity="1"
       id="path42" />
    <path
       fill="none"
       stroke="#50e2e2"
       paint-order="fill stroke markers"
       d="m 766.81686,517.4469 64.77388,61.67332"
       stroke-opacity="1"
       stroke-linejoin="round"
       stroke-miterlimit="10"
       stroke-width="3"
       id="path44" />
    <path
       fill="#50e2e2"
       stroke="none"
       paint-order="stroke fill markers"
       d="m 789.90343,545.43477 9.30037,2.84879 -3.30119,-9.14957 z"
       fill-opacity="1"
       id="path46" />
    <path
       fill="none"
       stroke="#e28150"
       paint-order="fill stroke markers"
       d="m 850.59031,602.06534 58.64372,90.83064"
       stroke-opacity="1"
       stroke-linejoin="round"
       stroke-miterlimit="10"
       stroke-width="3"
       id="path48" />
    <path
       fill="#e28150"
       stroke="none"
       paint-order="stroke fill markers"
       d="m 871.53871,642.53115 8.37346,4.94951 -1.06447,-9.66848 z"
       fill-opacity="1"
       id="path50" />
    <path
       fill="none"
       stroke="#e28150"
       paint-order="fill stroke markers"
       d="m 941.51977,878.23193 26.98678,105.17779"
       stroke-opacity="1"
       stroke-linejoin="round"
       stroke-miterlimit="10"
       stroke-width="3"
       id="path52" />
    <path
       fill="#e28150"
       stroke="none"
       paint-order="stroke fill markers"
       d="m 948.63742,923.47491 6.37574,7.34591 2.05129,-9.50814 z"
       fill-opacity="1"
       id="path54" />
    <path
       fill="none"
       stroke="#e28150"
       paint-order="fill stroke markers"
       d="m 906.39642,715.72395 -39.88603,37.16913"
       stroke-opacity="1"
       stroke-linejoin="round"
       stroke-miterlimit="10"
       stroke-width="3"
       id="path56" />
    <path
       fill="#e28150"
       stroke="none"
       paint-order="stroke fill markers"
       d="m 889.85257,725.19489 -3.39917,9.11362 9.3304,-2.74884 z"
       fill-opacity="1"
       id="path58" />
    <path
       fill="none"
       stroke="#e28150"
       paint-order="fill stroke markers"
       d="m 903.64941,711.55907 -94.55053,41.76926"
       stroke-opacity="1"
       stroke-linejoin="round"
       stroke-miterlimit="10"
       stroke-width="3"
       id="path60" />
    <path
       fill="#e28150"
       stroke="none"
       paint-order="stroke fill markers"
       d="m 862.57439,724.94907 -6.20025,7.49463 9.71585,0.46342 z"
       fill-opacity="1"
       id="path62" />
    <path
       fill="none"
       stroke="#e28150"
       paint-order="fill stroke markers"
       d="m 919.2905,720.37426 16.58098,128.45175"
       stroke-opacity="1"
       stroke-linejoin="round"
       stroke-miterlimit="10"
       stroke-width="3"
       id="path64" />
    <path
       fill="#e28150"
       stroke="none"
       paint-order="stroke fill markers"
       d="m 922.153,776.52861 5.42799,8.07152 3.20042,-9.1853 z"
       fill-opacity="1"
       id="path66" />
    <path
       fill="none"
       stroke="#e28150"
       paint-order="fill stroke markers"
       d="m 864.30298,834.51444 -6.93829,-56.50691"
       stroke-opacity="1"
       stroke-linejoin="round"
       stroke-miterlimit="10"
       stroke-width="3"
       id="path68" />
    <path
       fill="#e28150"
       stroke="none"
       paint-order="stroke fill markers"
       d="m 866.21169,814.36599 -5.37785,-8.10501 -3.2573,9.16529 z"
       fill-opacity="1"
       id="path70" />
    <path
       fill="none"
       stroke="#e28150"
       paint-order="fill stroke markers"
       d="m 856.86142,837.60967 -52.21368,-66.427"
       stroke-opacity="1"
       stroke-linejoin="round"
       stroke-miterlimit="10"
       stroke-width="3"
       id="path72" />
    <path
       fill="#e28150"
       stroke="none"
       paint-order="stroke fill markers"
       d="m 839.55092,808.54789 -8.79634,-4.15172 1.95643,9.52811 z"
       fill-opacity="1"
       id="path74" />
    <path
       fill="none"
       stroke="#e28150"
       paint-order="fill stroke markers"
       d="m 880.84103,852.33801 42.24079,8.42918"
       stroke-opacity="1"
       stroke-linejoin="round"
       stroke-miterlimit="10"
       stroke-width="3"
       id="path76" />
    <path
       fill="#e28150"
       stroke="none"
       paint-order="stroke fill markers"
       d="m 892.57837,859.11597 9.38305,-2.56337 -7.68052,-5.96842 z"
       fill-opacity="1"
       id="path78" />
    <path
       fill="none"
       stroke="#e2e250"
       paint-order="fill stroke markers"
       d="m 964.56037,1010.8273 -46.11935,77.4547"
       stroke-opacity="1"
       stroke-linejoin="round"
       stroke-miterlimit="10"
       stroke-width="3"
       id="path80" />
    <path
       fill="#e2e250"
       stroke="none"
       paint-order="stroke fill markers"
       d="m 942.21411,1039.854 -0.71341,9.7007 8.1886,-5.2497 z"
       fill-opacity="1"
       id="path82" />
    <path
       fill="none"
       stroke="#e2e250"
       paint-order="fill stroke markers"
       d="m 1150.0166,554.65093 87.3792,-22.10981"
       stroke-opacity="1"
       stroke-linejoin="round"
       stroke-miterlimit="10"
       stroke-width="3"
       id="path84" />
    <path
       fill="#e2e250"
       stroke="none"
       paint-order="stroke fill markers"
       d="m 1186.3391,549.94724 7.3671,-6.35122 -9.5012,-2.08296 z"
       fill-opacity="1"
       id="path86" />
    <path
       fill="none"
       stroke="#e2e250"
       paint-order="fill stroke markers"
       d="m 1266.277,524.45956 99.5139,-30.54932"
       stroke-opacity="1"
       stroke-linejoin="round"
       stroke-miterlimit="10"
       stroke-width="3"
       id="path88" />
    <path
       fill="#e2e250"
       stroke="none"
       paint-order="stroke fill markers"
       d="m 1308.9936,515.89654 7.0403,-6.71164 -9.5935,-1.60529 z"
       fill-opacity="1"
       id="path90" />
    <path
       fill="none"
       stroke="#81e250"
       paint-order="fill stroke markers"
       d="m 1185.6914,461.97942 55.6903,56.22501"
       stroke-opacity="1"
       stroke-linejoin="round"
       stroke-miterlimit="10"
       stroke-width="3"
       id="path92" />
    <path
       fill="#81e250"
       stroke="none"
       paint-order="stroke fill markers"
       d="m 1204.3236,486.97196 9.2129,3.11996 -3.0318,-9.24233 z"
       fill-opacity="1"
       id="path94" />
    <path
       fill="none"
       stroke="#50e281"
       paint-order="fill stroke markers"
       d="m 1169.9226,465.3873 -29.2347,78.87813"
       stroke-opacity="1"
       stroke-linejoin="round"
       stroke-miterlimit="10"
       stroke-width="3"
       id="path96" />
    <path
       fill="#50e281"
       stroke="none"
       paint-order="stroke fill markers"
       d="m 1154.2499,495.15689 1.0554,9.66947 7.1023,-6.64596 z"
       fill-opacity="1"
       id="path98" />
    <path
       fill="none"
       stroke="#e2e250"
       paint-order="fill stroke markers"
       d="m 1337.9575,278.66399 90.3346,-23.56197"
       stroke-opacity="1"
       stroke-linejoin="round"
       stroke-miterlimit="10"
       stroke-width="3"
       id="path100" />
    <path
       fill="#e2e250"
       stroke="none"
       paint-order="stroke fill markers"
       d="m 1375.8043,273.28794 7.3205,-6.40493 -9.5162,-2.01342 z"
       fill-opacity="1"
       id="path102" />
    <path
       fill="none"
       stroke="#e2e250"
       paint-order="fill stroke markers"
       d="m 1309.647,288.33763 -87.609,37.38933"
       stroke-opacity="1"
       stroke-linejoin="round"
       stroke-miterlimit="10"
       stroke-width="3"
       id="path104" />
    <path
       fill="#e2e250"
       stroke="none"
       paint-order="stroke fill markers"
       d="m 1272.1367,299.61647 -6.2942,7.41582 9.7092,0.58593 z"
       fill-opacity="1"
       id="path106" />
    <path
       fill="none"
       stroke="#50e2e2"
       paint-order="fill stroke markers"
       d="m 1453.6749,261.65443 62.9437,59.87331"
       stroke-opacity="1"
       stroke-linejoin="round"
       stroke-miterlimit="10"
       stroke-width="3"
       id="path108" />
    <path
       fill="#50e2e2"
       stroke="none"
       paint-order="stroke fill markers"
       d="m 1475.845,288.74676 9.3017,2.84433 -3.3055,-9.14799 z"
       fill-opacity="1"
       id="path110" />
    <path
       fill="none"
       stroke="#50e281"
       paint-order="fill stroke markers"
       d="m 1694.9468,391.99853 -75.2499,7.47286"
       stroke-opacity="1"
       stroke-linejoin="round"
       stroke-miterlimit="10"
       stroke-width="3"
       id="path112" />
    <path
       fill="#50e281"
       stroke="none"
       paint-order="stroke fill markers"
       d="m 1665.5494,390.54651 -8.2275,5.18845 9.0873,3.46896 z"
       fill-opacity="1"
       id="path114" />
    <path
       fill="none"
       stroke="#e2e250"
       paint-order="fill stroke markers"
       d="m 1591.0291,406.96848 -72.8206,31.87474"
       stroke-opacity="1"
       stroke-linejoin="round"
       stroke-miterlimit="10"
       stroke-width="3"
       id="path116" />
    <path
       fill="#e2e250"
       stroke="none"
       paint-order="stroke fill markers"
       d="m 1560.8444,415.43231 -6.2256,7.47354 9.7142,0.4964 z"
       fill-opacity="1"
       id="path118" />
    <path
       fill="none"
       stroke="#e28150"
       paint-order="fill stroke markers"
       d="m 1016.4215,639.92392 -86.54379,57.29356"
       stroke-opacity="1"
       stroke-linejoin="round"
       stroke-miterlimit="10"
       stroke-width="3"
       id="path120" />
    <path
       fill="#e28150"
       stroke="none"
       paint-order="stroke fill markers"
       d="m 978.00271,660.141 -4.8531,8.4297 9.65562,-1.17534 z"
       fill-opacity="1"
       id="path122" />
    <path
       fill="none"
       stroke="#50e281"
       paint-order="fill stroke markers"
       d="m 1041.2863,623.14082 81.8314,-56.30747"
       stroke-opacity="1"
       stroke-linejoin="round"
       stroke-miterlimit="10"
       stroke-width="3"
       id="path124" />
    <path
       fill="#50e281"
       stroke="none"
       paint-order="stroke fill markers"
       d="m 1077.5006,603.50235 4.7014,-8.51526 -9.633,1.34808 z"
       fill-opacity="1"
       id="path126" />
    <path
       fill="none"
       stroke="#81e250"
       paint-order="fill stroke markers"
       d="m 1346.9605,370.51562 -19.6474,-73.57368"
       stroke-opacity="1"
       stroke-linejoin="round"
       stroke-miterlimit="10"
       stroke-width="3"
       id="path128" />
    <path
       fill="#81e250"
       stroke="none"
       paint-order="stroke fill markers"
       d="m 1343.5842,341.01193 -6.4474,-7.28315 -1.9581,9.52777 z"
       fill-opacity="1"
       id="path130" />
    <path
       fill="none"
       stroke="#50e2e2"
       paint-order="fill stroke markers"
       d="m 1204.2435,346.07211 -25.1096,90.79285"
       stroke-opacity="1"
       stroke-linejoin="round"
       stroke-miterlimit="10"
       stroke-width="3"
       id="path132" />
    <path
       fill="#50e2e2"
       stroke="none"
       paint-order="stroke fill markers"
       d="m 1189.8151,381.92379 1.8736,9.54475 6.5116,-7.22573 z"
       fill-opacity="1"
       id="path134" />
    <path
       fill="#35528d"
       stroke="none"
       paint-order="stroke fill markers"
       d="m 1457.8065,251.31623 -0.046,1.17689 -0.1384,1.16963 -0.2298,1.15516 -0.3197,1.13358 -0.4076,1.10499 -0.4931,1.06961 -0.5755,1.02762 -0.6544,0.9793 -0.7291,0.92494 -0.7995,0.86488 -0.8649,0.79949 -0.9249,0.72917 -0.9793,0.65434 -1.0277,0.5755 -1.0696,0.49309 -1.105,0.40766 -1.1335,0.3197 -1.1552,0.22978 -1.1696,0.13843 -1.1769,0.0462 -1.1769,-0.0462 -1.1696,-0.13843 -1.1552,-0.22978 -1.1336,-0.3197 -1.105,-0.40766 -1.0696,-0.49309 -1.0276,-0.5755 -0.9793,-0.65434 -0.9249,-0.72917 -0.8649,-0.79949 -0.7995,-0.86488 -0.7292,-0.92494 -0.6543,-0.9793 -0.5755,-1.02762 -0.4931,-1.06961 -0.4077,-1.10499 -0.3197,-1.13358 -0.2297,-1.15516 -0.1385,-1.16963 -0.046,-1.17689 0.046,-1.17688 0.1385,-1.16964 0.2297,-1.15516 0.3197,-1.13357 0.4077,-1.105 0.4931,-1.06961 0.5755,-1.02762 0.6543,-0.9793 0.7292,-0.92494 0.7995,-0.86488 0.8649,-0.79949 0.9249,-0.72916 0.9793,-0.65435 1.0276,-0.5755 1.0696,-0.49309 1.105,-0.40766 1.1336,-0.3197 1.1552,-0.22977 1.1696,-0.13844 1.1769,-0.0462 1.1769,0.0462 1.1696,0.13844 1.1552,0.22977 1.1335,0.3197 1.105,0.40766 1.0696,0.49309 1.0277,0.5755 0.9793,0.65435 0.9249,0.72916 0.8649,0.79949 0.7995,0.86488 0.7291,0.92494 0.6544,0.9793 0.5755,1.02762 0.4931,1.06961 0.4076,1.105 0.3197,1.13357 0.2298,1.15516 0.1384,1.16964 z"
       fill-opacity="1"
       id="path136" />
    <text
       fill="#000000"
       stroke="none"
       font-family="'Helvetica Neue', Helvetica, sans-serif"
       font-size="8px"
       font-style="normal"
       font-weight="normal"
       text-decoration="normal"
       x="1442.8065"
       y="236.31624"
       text-anchor="middle"
       dominant-baseline="text-after-edge"
       fill-opacity="1"
       id="text138">tetR</text>
    <path
       fill="#35528d"
       stroke="none"
       paint-order="stroke fill markers"
       d="m 1223.2418,331.61481 -0.046,1.17688 -0.1385,1.16963 -0.2297,1.15517 -0.3197,1.13357 -0.4077,1.105 -0.4931,1.0696 -0.5755,1.02762 -0.6543,0.9793 -0.7292,0.92495 -0.7995,0.86488 -0.8649,0.79948 -0.9249,0.72917 -0.9793,0.65435 -1.0276,0.57549 -1.0696,0.4931 -1.105,0.40765 -1.1336,0.3197 -1.1552,0.22978 -1.1696,0.13844 -1.1769,0.0462 -1.1769,-0.0462 -1.1696,-0.13844 -1.1552,-0.22978 -1.1335,-0.3197 -1.105,-0.40765 -1.0696,-0.4931 -1.0277,-0.57549 -0.9793,-0.65435 -0.9249,-0.72917 -0.8649,-0.79948 -0.7995,-0.86488 -0.7291,-0.92495 -0.6544,-0.9793 -0.5755,-1.02762 -0.4931,-1.0696 -0.4076,-1.105 -0.3197,-1.13357 -0.2298,-1.15517 -0.1384,-1.16963 -0.046,-1.17688 0.046,-1.17689 0.1384,-1.16963 0.2298,-1.15516 0.3197,-1.13358 0.4076,-1.105 0.4931,-1.0696 0.5755,-1.02762 0.6544,-0.9793 0.7291,-0.92495 0.7995,-0.86488 0.8649,-0.79948 0.9249,-0.72917 0.9793,-0.65435 1.0277,-0.57549 1.0696,-0.4931 1.105,-0.40765 1.1335,-0.3197 1.1552,-0.22978 1.1696,-0.13843 1.1769,-0.0462 1.1769,0.0462 1.1696,0.13843 1.1552,0.22978 1.1336,0.3197 1.105,0.40765 1.0696,0.4931 1.0276,0.57549 0.9793,0.65435 0.9249,0.72917 0.8649,0.79948 0.7995,0.86488 0.7292,0.92495 0.6543,0.9793 0.5755,1.02762 0.4931,1.0696 0.4077,1.105 0.3197,1.13358 0.2297,1.15516 0.1385,1.16963 z"
       fill-opacity="1"
       id="path140" />
    <text
       fill="#000000"
       stroke="none"
       font-family="'Helvetica Neue', Helvetica, sans-serif"
       font-size="8px"
       font-style="normal"
       font-weight="normal"
       text-decoration="normal"
       x="1208.2418"
       y="316.61481"
       text-anchor="middle"
       dominant-baseline="text-after-edge"
       fill-opacity="1"
       id="text142">araC</text>
    <path
       fill="#35528d"
       stroke="none"
       paint-order="stroke fill markers"
       d="m 1395.1304,489.50821 -0.046,1.17689 -0.1385,1.16963 -0.2298,1.15516 -0.3197,1.13357 -0.4076,1.105 -0.4931,1.06961 -0.5755,1.02762 -0.6544,0.9793 -0.7291,0.92494 -0.7995,0.86488 -0.8649,0.79949 -0.9249,0.72916 -0.9793,0.65435 -1.0277,0.5755 -1.0696,0.49309 -1.105,0.40766 -1.1335,0.3197 -1.1552,0.22977 -1.1696,0.13844 -1.1769,0.0462 -1.1769,-0.0462 -1.1696,-0.13844 -1.1552,-0.22977 -1.1336,-0.3197 -1.105,-0.40766 -1.0696,-0.49309 -1.0276,-0.5755 -0.9793,-0.65435 -0.9249,-0.72916 -0.8649,-0.79949 -0.7995,-0.86488 -0.7292,-0.92494 -0.6543,-0.9793 -0.5755,-1.02762 -0.4931,-1.06961 -0.4077,-1.105 -0.3197,-1.13357 -0.2297,-1.15516 -0.1385,-1.16963 -0.046,-1.17689 0.046,-1.17689 0.1385,-1.16963 0.2297,-1.15516 0.3197,-1.13358 0.4077,-1.10499 0.4931,-1.06961 0.5755,-1.02762 0.6543,-0.9793 0.7292,-0.92494 0.7995,-0.86488 0.8649,-0.79949 0.9249,-0.72917 0.9793,-0.65434 1.0276,-0.5755 1.0696,-0.49309 1.105,-0.40766 1.1336,-0.3197 1.1552,-0.22978 1.1696,-0.13843 1.1769,-0.0462 1.1769,0.0462 1.1696,0.13843 1.1552,0.22978 1.1335,0.3197 1.105,0.40766 1.0696,0.49309 1.0277,0.5755 0.9793,0.65434 0.9249,0.72917 0.8649,0.79949 0.7995,0.86488 0.7291,0.92494 0.6544,0.9793 0.5755,1.02762 0.4931,1.06961 0.4076,1.10499 0.3197,1.13358 0.2298,1.15516 0.1385,1.16963 z"
       fill-opacity="1"
       id="path144" />
    <text
       fill="#000000"
       stroke="none"
       font-family="'Helvetica Neue', Helvetica, sans-serif"
       font-size="8px"
       font-style="normal"
       font-weight="normal"
       text-decoration="normal"
       x="1380.1304"
       y="474.50821"
       text-anchor="middle"
       dominant-baseline="text-after-edge"
       fill-opacity="1"
       id="text146">CI_LVA</text>
    <path
       fill="#3563c0"
       stroke="none"
       paint-order="stroke fill markers"
       d="m 1519.4672,444.85799 -0.046,1.17689 -0.1384,1.16963 -0.2298,1.15516 -0.3197,1.13358 -0.4077,1.10499 -0.4931,1.06961 -0.5755,1.02762 -0.6543,0.9793 -0.7292,0.92494 -0.7995,0.86488 -0.8648,0.79949 -0.925,0.72917 -0.9793,0.65434 -1.0276,0.5755 -1.0696,0.49309 -1.105,0.40766 -1.1336,0.3197 -1.1551,0.22978 -1.1697,0.13843 -1.1769,0.0462 -1.1768,-0.0462 -1.1697,-0.13843 -1.1551,-0.22978 -1.1336,-0.3197 -1.105,-0.40766 -1.0696,-0.49309 -1.0276,-0.5755 -0.9793,-0.65434 -0.925,-0.72917 -0.8649,-0.79949 -0.7995,-0.86488 -0.7291,-0.92494 -0.6544,-0.9793 -0.5755,-1.02762 -0.4931,-1.06961 -0.4076,-1.10499 -0.3197,-1.13358 -0.2298,-1.15516 -0.1384,-1.16963 -0.046,-1.17689 0.046,-1.17689 0.1384,-1.16963 0.2298,-1.15516 0.3197,-1.13357 0.4076,-1.105 0.4931,-1.06961 0.5755,-1.02762 0.6544,-0.9793 0.7291,-0.92494 0.7995,-0.86488 0.8649,-0.79949 0.925,-0.72916 0.9793,-0.65435 1.0276,-0.5755 1.0696,-0.49309 1.105,-0.40766 1.1336,-0.3197 1.1551,-0.22977 1.1697,-0.13844 1.1768,-0.0462 1.1769,0.0462 1.1697,0.13844 1.1551,0.22977 1.1336,0.3197 1.105,0.40766 1.0696,0.49309 1.0276,0.5755 0.9793,0.65435 0.925,0.72916 0.8648,0.79949 0.7995,0.86488 0.7292,0.92494 0.6543,0.9793 0.5755,1.02762 0.4931,1.06961 0.4077,1.105 0.3197,1.13357 0.2298,1.15516 0.1384,1.16963 z"
       fill-opacity="1"
       id="path148" />
    <text
       fill="#000000"
       stroke="none"
       font-family="'Helvetica Neue', Helvetica, sans-serif"
       font-size="8px"
       font-style="normal"
       font-weight="normal"
       text-decoration="normal"
       x="1504.4673"
       y="429.858"
       text-anchor="middle"
       dominant-baseline="text-after-edge"
       fill-opacity="1"
       id="text150">pTet</text>
    <path
       fill="#3563c0"
       stroke="none"
       paint-order="stroke fill markers"
       d="m 1266.9375,528.86158 -0.046,1.17689 -0.1384,1.16963 -0.2298,1.15516 -0.3197,1.13358 -0.4076,1.105 -0.4931,1.0696 -0.5755,1.02762 -0.6544,0.9793 -0.7291,0.92495 -0.7995,0.86488 -0.8649,0.79948 -0.9249,0.72917 -0.9793,0.65435 -1.0277,0.57549 -1.0696,0.4931 -1.105,0.40765 -1.1335,0.3197 -1.1552,0.22978 -1.1696,0.13843 -1.1769,0.0462 -1.1769,-0.0462 -1.1696,-0.13843 -1.1552,-0.22978 -1.1336,-0.3197 -1.105,-0.40765 -1.0696,-0.4931 -1.0276,-0.57549 -0.9793,-0.65435 -0.9249,-0.72917 -0.8649,-0.79948 -0.7995,-0.86488 -0.7292,-0.92495 -0.6543,-0.9793 -0.5755,-1.02762 -0.4931,-1.0696 -0.4077,-1.105 -0.3197,-1.13358 -0.2297,-1.15516 -0.1385,-1.16963 -0.046,-1.17689 0.046,-1.17688 0.1385,-1.16963 0.2297,-1.15517 0.3197,-1.13357 0.4077,-1.105 0.4931,-1.0696 0.5755,-1.02762 0.6543,-0.9793 0.7292,-0.92495 0.7995,-0.86488 0.8649,-0.79949 0.9249,-0.72916 0.9793,-0.65435 1.0276,-0.57549 1.0696,-0.4931 1.105,-0.40765 1.1336,-0.3197 1.1552,-0.22978 1.1696,-0.13844 1.1769,-0.0462 1.1769,0.0462 1.1696,0.13844 1.1552,0.22978 1.1335,0.3197 1.105,0.40765 1.0696,0.4931 1.0277,0.57549 0.9793,0.65435 0.9249,0.72916 0.8649,0.79949 0.7995,0.86488 0.7291,0.92495 0.6544,0.9793 0.5755,1.02762 0.4931,1.0696 0.4076,1.105 0.3197,1.13357 0.2298,1.15517 0.1384,1.16963 z"
       fill-opacity="1"
       id="path152" />
    <text
       fill="#000000"
       stroke="none"
       font-family="'Helvetica Neue', Helvetica, sans-serif"
       font-size="8px"
       font-style="normal"
       font-weight="normal"
       text-decoration="normal"
       x="1251.9375"
       y="513.86157"
       text-anchor="middle"
       dominant-baseline="text-after-edge"
       fill-opacity="1"
       id="text154">PBad</text>
    <path
       fill="#3563c0"
       stroke="none"
       paint-order="stroke fill markers"
       d="m 1338.4431,282.44978 -0.046,1.17689 -0.1385,1.16963 -0.2297,1.15516 -0.3197,1.13358 -0.4077,1.10499 -0.4931,1.06961 -0.5755,1.02762 -0.6543,0.9793 -0.7292,0.92494 -0.7995,0.86488 -0.8649,0.79949 -0.9249,0.72917 -0.9793,0.65434 -1.0276,0.5755 -1.0696,0.49309 -1.105,0.40766 -1.1336,0.3197 -1.1552,0.22978 -1.1696,0.13843 -1.1769,0.0462 -1.1769,-0.0462 -1.1696,-0.13843 -1.1552,-0.22978 -1.1336,-0.3197 -1.1049,-0.40766 -1.0697,-0.49309 -1.0276,-0.5755 -0.9793,-0.65434 -0.9249,-0.72917 -0.8649,-0.79949 -0.7995,-0.86488 -0.7292,-0.92494 -0.6543,-0.9793 -0.5755,-1.02762 -0.4931,-1.06961 -0.4076,-1.10499 -0.3197,-1.13358 -0.2298,-1.15516 -0.1385,-1.16963 -0.046,-1.17689 0.046,-1.17688 0.1385,-1.16964 0.2298,-1.15516 0.3197,-1.13357 0.4076,-1.105 0.4931,-1.06961 0.5755,-1.02762 0.6543,-0.9793 0.7292,-0.92494 0.7995,-0.86488 0.8649,-0.79949 0.9249,-0.72916 0.9793,-0.65435 1.0276,-0.5755 1.0697,-0.49309 1.1049,-0.40766 1.1336,-0.3197 1.1552,-0.22977 1.1696,-0.13844 1.1769,-0.0462 1.1769,0.0462 1.1696,0.13844 1.1552,0.22977 1.1336,0.3197 1.105,0.40766 1.0696,0.49309 1.0276,0.5755 0.9793,0.65435 0.9249,0.72916 0.8649,0.79949 0.7995,0.86488 0.7292,0.92494 0.6543,0.9793 0.5755,1.02762 0.4931,1.06961 0.4077,1.105 0.3197,1.13357 0.2297,1.15516 0.1385,1.16964 z"
       fill-opacity="1"
       id="path156" />
    <text
       fill="#000000"
       stroke="none"
       font-family="'Helvetica Neue', Helvetica, sans-serif"
       font-size="8px"
       font-style="normal"
       font-weight="normal"
       text-decoration="normal"
       x="1323.4431"
       y="267.44977"
       text-anchor="middle"
       dominant-baseline="text-after-edge"
       fill-opacity="1"
       id="text158">BBa_J23117</text>
    <path
       fill="#5081e2"
       stroke="none"
       paint-order="stroke fill markers"
       d="m 696.18007,907.63745 -0.0462,1.17689 -0.13843,1.16963 -0.22978,1.15516 -0.3197,1.13358 -0.40766,1.10499 -0.49309,1.06961 -0.5755,1.02762 -0.65434,0.9793 -0.72917,0.92494 -0.79949,0.86488 -0.86488,0.79949 -0.92494,0.72917 -0.9793,0.65435 -1.02762,0.57549 -1.06961,0.4931 -1.10499,0.40765 -1.13358,0.3197 -1.15516,0.22978 -1.16963,0.13843 -1.17689,0.0462 -1.17689,-0.0462 -1.16963,-0.13843 -1.15516,-0.22978 -1.13357,-0.3197 -1.105,-0.40765 -1.06961,-0.4931 -1.02762,-0.57549 -0.9793,-0.65435 -0.92494,-0.72917 -0.86488,-0.79949 -0.79949,-0.86488 -0.72916,-0.92494 -0.65435,-0.9793 -0.5755,-1.02762 -0.49309,-1.06961 -0.40766,-1.10499 -0.3197,-1.13358 -0.22977,-1.15516 -0.13844,-1.16963 -0.0462,-1.17689 0.0462,-1.17688 0.13844,-1.16963 0.22977,-1.15517 0.3197,-1.13357 0.40766,-1.105 0.49309,-1.0696 0.5755,-1.02763 0.65435,-0.9793 0.72916,-0.92494 0.79949,-0.86488 0.86488,-0.79949 0.92494,-0.72916 0.9793,-0.65435 1.02762,-0.5755 1.06961,-0.49309 1.105,-0.40766 1.13357,-0.3197 1.15516,-0.22977 1.16963,-0.13844 1.17689,-0.0462 1.17689,0.0462 1.16963,0.13844 1.15516,0.22977 1.13358,0.3197 1.10499,0.40766 1.06961,0.49309 1.02762,0.5755 0.9793,0.65435 0.92494,0.72916 0.86488,0.79949 0.79949,0.86488 0.72917,0.92494 0.65434,0.9793 0.5755,1.02763 0.49309,1.0696 0.40766,1.105 0.3197,1.13357 0.22978,1.15517 0.13843,1.16963 z"
       fill-opacity="1"
       id="path160" />
    <text
       fill="#000000"
       stroke="none"
       font-family="'Helvetica Neue', Helvetica, sans-serif"
       font-size="8px"
       font-style="normal"
       font-weight="normal"
       text-decoration="normal"
       x="681.18005"
       y="892.63745"
       text-anchor="middle"
       dominant-baseline="text-after-edge"
       fill-opacity="1"
       id="text162">AraB</text>
    <path
       fill="#50e281"
       stroke="none"
       paint-order="stroke fill markers"
       d="m 881.13105,849.40263 -0.0462,1.17688 -0.13844,1.16963 -0.22977,1.15517 -0.3197,1.13357 -0.40766,1.105 -0.49309,1.0696 -0.5755,1.02762 -0.65435,0.9793 -0.72916,0.92495 -0.79949,0.86488 -0.86488,0.79949 -0.92494,0.72916 -0.9793,0.65435 -1.02762,0.57549 -1.06961,0.4931 -1.105,0.40765 -1.13357,0.3197 -1.15516,0.22978 -1.16963,0.13844 -1.17689,0.0462 -1.17689,-0.0462 -1.16963,-0.13844 -1.15516,-0.22978 -1.13358,-0.3197 -1.10499,-0.40765 -1.06961,-0.4931 -1.02762,-0.57549 -0.9793,-0.65435 -0.92494,-0.72916 -0.86488,-0.79949 -0.79949,-0.86488 -0.72917,-0.92495 -0.65434,-0.9793 -0.5755,-1.02762 -0.49309,-1.0696 -0.40766,-1.105 -0.3197,-1.13357 -0.22978,-1.15517 -0.13843,-1.16963 -0.0462,-1.17688 0.0462,-1.17689 0.13843,-1.16963 0.22978,-1.15516 0.3197,-1.13358 0.40766,-1.105 0.49309,-1.0696 0.5755,-1.02762 0.65434,-0.9793 0.72917,-0.92494 0.79949,-0.86489 0.86488,-0.79948 0.92494,-0.72917 0.9793,-0.65435 1.02762,-0.57549 1.06961,-0.4931 1.10499,-0.40765 1.13358,-0.3197 1.15516,-0.22978 1.16963,-0.13843 1.17689,-0.0462 1.17689,0.0462 1.16963,0.13843 1.15516,0.22978 1.13357,0.3197 1.105,0.40765 1.06961,0.4931 1.02762,0.57549 0.9793,0.65435 0.92494,0.72917 0.86488,0.79948 0.79949,0.86489 0.72916,0.92494 0.65435,0.9793 0.5755,1.02762 0.49309,1.0696 0.40766,1.105 0.3197,1.13358 0.22977,1.15516 0.13844,1.16963 z"
       fill-opacity="1"
       id="path164" />
    <text
       fill="#000000"
       stroke="none"
       font-family="'Helvetica Neue', Helvetica, sans-serif"
       font-size="8px"
       font-style="normal"
       font-weight="normal"
       text-decoration="normal"
       x="866.13104"
       y="834.40265"
       text-anchor="middle"
       dominant-baseline="text-after-edge"
       fill-opacity="1"
       id="text166">ATP</text>
    <path
       fill="#e250e2"
       stroke="none"
       paint-order="stroke fill markers"
       d="m 1365.8306,385.00779 -0.046,1.17688 -0.1384,1.16963 -0.2298,1.15517 -0.3197,1.13357 -0.4076,1.105 -0.4931,1.0696 -0.5755,1.02762 -0.6544,0.97931 -0.7291,0.92494 -0.7995,0.86488 -0.8649,0.79949 -0.9249,0.72916 -0.9793,0.65435 -1.0277,0.57549 -1.0696,0.4931 -1.105,0.40765 -1.1335,0.31971 -1.1552,0.22977 -1.1696,0.13844 -1.1769,0.0462 -1.1769,-0.0462 -1.1696,-0.13844 -1.1552,-0.22977 -1.1336,-0.31971 -1.105,-0.40765 -1.0696,-0.4931 -1.0276,-0.57549 -0.9793,-0.65435 -0.9249,-0.72916 -0.8649,-0.79949 -0.7995,-0.86488 -0.7292,-0.92494 -0.6543,-0.97931 -0.5755,-1.02762 -0.4931,-1.0696 -0.4077,-1.105 -0.3197,-1.13357 -0.2297,-1.15517 -0.1385,-1.16963 -0.046,-1.17688 0.046,-1.17689 0.1385,-1.16963 0.2297,-1.15516 0.3197,-1.13358 0.4077,-1.105 0.4931,-1.0696 0.5755,-1.02762 0.6543,-0.9793 0.7292,-0.92494 0.7995,-0.86489 0.8649,-0.79948 0.9249,-0.72917 0.9793,-0.65435 1.0276,-0.57549 1.0696,-0.4931 1.105,-0.40765 1.1336,-0.3197 1.1552,-0.22978 1.1696,-0.13843 1.1769,-0.0462 1.1769,0.0462 1.1696,0.13843 1.1552,0.22978 1.1335,0.3197 1.105,0.40765 1.0696,0.4931 1.0277,0.57549 0.9793,0.65435 0.9249,0.72917 0.8649,0.79948 0.7995,0.86489 0.7291,0.92494 0.6544,0.9793 0.5755,1.02762 0.4931,1.0696 0.4076,1.105 0.3197,1.13358 0.2298,1.15516 0.1384,1.16963 z"
       fill-opacity="1"
       id="path168" />
    <text
       fill="#000000"
       stroke="none"
       font-family="'Helvetica Neue', Helvetica, sans-serif"
       font-size="8px"
       font-style="normal"
       font-weight="normal"
       text-decoration="normal"
       x="1350.8306"
       y="370.00778"
       text-anchor="middle"
       dominant-baseline="text-after-edge"
       fill-opacity="1"
       id="text170">CI_p</text>
    <path
       fill="#e250e2"
       stroke="none"
       paint-order="stroke fill markers"
       d="m 808.59841,861.63188 -0.0462,1.17689 -0.13844,1.16963 -0.22977,1.15516 -0.3197,1.13358 -0.40766,1.105 -0.49309,1.0696 -0.5755,1.02762 -0.65435,0.9793 -0.72916,0.92495 -0.79949,0.86488 -0.86488,0.79948 -0.92494,0.72917 -0.9793,0.65435 -1.02762,0.57549 -1.06961,0.4931 -1.105,0.40765 -1.13357,0.3197 -1.15516,0.22978 -1.16964,0.13843 -1.17688,0.0462 -1.17689,-0.0462 -1.16963,-0.13843 -1.15516,-0.22978 -1.13358,-0.3197 -1.10499,-0.40765 -1.06961,-0.4931 -1.02762,-0.57549 -0.9793,-0.65435 -0.92494,-0.72917 -0.86488,-0.79948 -0.79949,-0.86488 -0.72917,-0.92495 -0.65434,-0.9793 -0.5755,-1.02762 -0.49309,-1.0696 -0.40766,-1.105 -0.3197,-1.13358 -0.22978,-1.15516 -0.13843,-1.16963 -0.0462,-1.17689 0.0462,-1.17688 0.13843,-1.16963 0.22978,-1.15517 0.3197,-1.13357 0.40766,-1.105 0.49309,-1.0696 0.5755,-1.02762 0.65434,-0.9793 0.72917,-0.92495 0.79949,-0.86488 0.86488,-0.79949 0.92494,-0.72916 0.9793,-0.65435 1.02762,-0.57549 1.06961,-0.4931 1.10499,-0.40765 1.13358,-0.3197 1.15516,-0.22978 1.16963,-0.13844 1.17689,-0.0462 1.17688,0.0462 1.16964,0.13844 1.15516,0.22978 1.13357,0.3197 1.105,0.40765 1.06961,0.4931 1.02762,0.57549 0.9793,0.65435 0.92494,0.72916 0.86488,0.79949 0.79949,0.86488 0.72916,0.92495 0.65435,0.9793 0.5755,1.02762 0.49309,1.0696 0.40766,1.105 0.3197,1.13357 0.22977,1.15517 0.13844,1.16963 z"
       fill-opacity="1"
       id="path172" />
    <text
       fill="#000000"
       stroke="none"
       font-family="'Helvetica Neue', Helvetica, sans-serif"
       font-size="8px"
       font-style="normal"
       font-weight="normal"
       text-decoration="normal"
       x="793.59839"
       y="846.6319"
       text-anchor="middle"
       dominant-baseline="text-after-edge"
       fill-opacity="1"
       id="text174">ribulokinase</text>
    <path
       fill="#50e281"
       stroke="none"
       paint-order="stroke fill markers"
       d="m 1724.8734,390.51621 -0.046,1.17688 -0.1384,1.16963 -0.2298,1.15517 -0.3197,1.13357 -0.4076,1.105 -0.4931,1.0696 -0.5755,1.02763 -0.6544,0.9793 -0.7291,0.92494 -0.7995,0.86488 -0.8649,0.79949 -0.9249,0.72916 -0.9793,0.65435 -1.0277,0.57549 -1.0696,0.4931 -1.105,0.40765 -1.1335,0.31971 -1.1552,0.22977 -1.1696,0.13844 -1.1769,0.0462 -1.1769,-0.0462 -1.1696,-0.13844 -1.1552,-0.22977 -1.1336,-0.31971 -1.105,-0.40765 -1.0696,-0.4931 -1.0276,-0.57549 -0.9793,-0.65435 -0.9249,-0.72916 -0.8649,-0.79949 -0.7995,-0.86488 -0.7292,-0.92494 -0.6543,-0.9793 -0.5755,-1.02763 -0.4931,-1.0696 -0.4077,-1.105 -0.3197,-1.13357 -0.2297,-1.15517 -0.1385,-1.16963 -0.046,-1.17688 0.046,-1.17689 0.1385,-1.16963 0.2297,-1.15516 0.3197,-1.13358 0.4077,-1.10499 0.4931,-1.06961 0.5755,-1.02762 0.6543,-0.9793 0.7292,-0.92494 0.7995,-0.86488 0.8649,-0.79949 0.9249,-0.72917 0.9793,-0.65435 1.0276,-0.57549 1.0696,-0.4931 1.105,-0.40765 1.1336,-0.3197 1.1552,-0.22978 1.1696,-0.13843 1.1769,-0.0462 1.1769,0.0462 1.1696,0.13843 1.1552,0.22978 1.1335,0.3197 1.105,0.40765 1.0696,0.4931 1.0277,0.57549 0.9793,0.65435 0.9249,0.72917 0.8649,0.79949 0.7995,0.86488 0.7291,0.92494 0.6544,0.9793 0.5755,1.02762 0.4931,1.06961 0.4076,1.10499 0.3197,1.13358 0.2298,1.15516 0.1384,1.16963 z"
       fill-opacity="1"
       id="path176" />
    <text
       fill="#000000"
       stroke="none"
       font-family="'Helvetica Neue', Helvetica, sans-serif"
       font-size="8px"
       font-style="normal"
       font-weight="normal"
       text-decoration="normal"
       x="1709.8734"
       y="375.5162"
       text-anchor="middle"
       dominant-baseline="text-after-edge"
       fill-opacity="1"
       id="text178">ATC</text>
    <path
       fill="#50e281"
       stroke="none"
       paint-order="stroke fill markers"
       d="m 1043.929,631.64371 -0.046,1.17689 -0.1384,1.16963 -0.2298,1.15516 -0.3197,1.13358 -0.4077,1.10499 -0.4931,1.06961 -0.5755,1.02762 -0.6543,0.9793 -0.7292,0.92494 -0.7995,0.86488 -0.8648,0.79949 -0.925,0.72917 -0.9793,0.65434 -1.0276,0.5755 -1.0696,0.49309 -1.105,0.40766 -1.1336,0.3197 -1.1551,0.22978 -1.1697,0.13843 -1.1769,0.0462 -1.1768,-0.0462 -1.1697,-0.13843 -1.1551,-0.22978 -1.1336,-0.3197 -1.105,-0.40766 -1.0696,-0.49309 -1.0276,-0.5755 -0.9793,-0.65434 -0.925,-0.72917 -0.8649,-0.79949 -0.7995,-0.86488 -0.7291,-0.92494 -0.6544,-0.9793 -0.5755,-1.02762 -0.4931,-1.06961 -0.4076,-1.10499 -0.3197,-1.13358 -0.2298,-1.15516 -0.1384,-1.16963 -0.046,-1.17689 0.046,-1.17689 0.1384,-1.16963 0.2298,-1.15516 0.3197,-1.13357 0.4076,-1.105 0.4931,-1.06961 0.5755,-1.02762 0.6544,-0.9793 0.7291,-0.92494 0.7995,-0.86488 0.8649,-0.79949 0.925,-0.72916 0.9793,-0.65435 1.0276,-0.5755 1.0696,-0.49309 1.105,-0.40766 1.1336,-0.3197 1.1551,-0.22977 1.1697,-0.13844 1.1768,-0.0462 1.1769,0.0462 1.1697,0.13844 1.1551,0.22977 1.1336,0.3197 1.105,0.40766 1.0696,0.49309 1.0276,0.5755 0.9793,0.65435 0.925,0.72916 0.8648,0.79949 0.7995,0.86488 0.7292,0.92494 0.6543,0.9793 0.5755,1.02762 0.4931,1.06961 0.4077,1.105 0.3197,1.13357 0.2298,1.15516 0.1384,1.16963 z"
       fill-opacity="1"
       id="path180" />
    <text
       fill="#000000"
       stroke="none"
       font-family="'Helvetica Neue', Helvetica, sans-serif"
       font-size="8px"
       font-style="normal"
       font-weight="normal"
       text-decoration="normal"
       x="1028.9291"
       y="616.64374"
       text-anchor="middle"
       dominant-baseline="text-after-edge"
       fill-opacity="1"
       id="text182">l_arabinose</text>
    <path
       fill="#e250e2"
       stroke="none"
       paint-order="stroke fill markers"
       d="m 1542.487,331.86594 -0.046,1.17689 -0.1385,1.16963 -0.2297,1.15516 -0.3197,1.13357 -0.4077,1.105 -0.4931,1.06961 -0.5755,1.02762 -0.6543,0.9793 -0.7292,0.92494 -0.7995,0.86488 -0.8649,0.79949 -0.9249,0.72916 -0.9793,0.65435 -1.0276,0.5755 -1.0696,0.49309 -1.105,0.40766 -1.1336,0.3197 -1.1552,0.22977 -1.1696,0.13844 -1.1769,0.0462 -1.1769,-0.0462 -1.1696,-0.13844 -1.1552,-0.22977 -1.1335,-0.3197 -1.105,-0.40766 -1.0696,-0.49309 -1.0277,-0.5755 -0.9793,-0.65435 -0.9249,-0.72916 -0.8649,-0.79949 -0.7995,-0.86488 -0.7291,-0.92494 -0.6544,-0.9793 -0.5755,-1.02762 -0.4931,-1.06961 -0.4076,-1.105 -0.3197,-1.13357 -0.2298,-1.15516 -0.1385,-1.16963 -0.046,-1.17689 0.046,-1.17689 0.1385,-1.16963 0.2298,-1.15516 0.3197,-1.13358 0.4076,-1.10499 0.4931,-1.06961 0.5755,-1.02762 0.6544,-0.9793 0.7291,-0.92494 0.7995,-0.86488 0.8649,-0.79949 0.9249,-0.72917 0.9793,-0.65434 1.0277,-0.5755 1.0696,-0.49309 1.105,-0.40766 1.1335,-0.3197 1.1552,-0.22978 1.1696,-0.13843 1.1769,-0.0462 1.1769,0.0462 1.1696,0.13843 1.1552,0.22978 1.1336,0.3197 1.105,0.40766 1.0696,0.49309 1.0276,0.5755 0.9793,0.65434 0.9249,0.72917 0.8649,0.79949 0.7995,0.86488 0.7292,0.92494 0.6543,0.9793 0.5755,1.02762 0.4931,1.06961 0.4077,1.10499 0.3197,1.13358 0.2297,1.15516 0.1385,1.16963 z"
       fill-opacity="1"
       id="path184" />
    <text
       fill="#000000"
       stroke="none"
       font-family="'Helvetica Neue', Helvetica, sans-serif"
       font-size="8px"
       font-style="normal"
       font-weight="normal"
       text-decoration="normal"
       x="1527.4871"
       y="316.86594"
       text-anchor="middle"
       dominant-baseline="text-after-edge"
       fill-opacity="1"
       id="text186">tetR_p</text>
    <path
       fill="#5081e2"
       stroke="none"
       paint-order="stroke fill markers"
       d="m 1137.1624,1168.9529 -0.046,1.1769 -0.1384,1.1697 -0.2298,1.1551 -0.3197,1.1336 -0.4076,1.105 -0.4931,1.0696 -0.5755,1.0276 -0.6544,0.9793 -0.7291,0.925 -0.7995,0.8648 -0.8649,0.7995 -0.9249,0.7292 -0.9793,0.6543 -1.0277,0.5755 -1.0696,0.4931 -1.105,0.4077 -1.1335,0.3197 -1.1552,0.2298 -1.1696,0.1384 -1.1769,0.046 -1.1769,-0.046 -1.1696,-0.1384 -1.1552,-0.2298 -1.1336,-0.3197 -1.105,-0.4077 -1.0696,-0.4931 -1.0276,-0.5755 -0.9793,-0.6543 -0.9249,-0.7292 -0.8649,-0.7995 -0.7995,-0.8648 -0.7292,-0.925 -0.6543,-0.9793 -0.5755,-1.0276 -0.4931,-1.0696 -0.4077,-1.105 -0.3197,-1.1336 -0.2297,-1.1551 -0.1385,-1.1697 -0.046,-1.1769 0.046,-1.1768 0.1385,-1.1697 0.2297,-1.1551 0.3197,-1.1336 0.4077,-1.105 0.4931,-1.0696 0.5755,-1.0276 0.6543,-0.9793 0.7292,-0.925 0.7995,-0.8649 0.8649,-0.7994 0.9249,-0.7292 0.9793,-0.6544 1.0276,-0.5755 1.0696,-0.493 1.105,-0.4077 1.1336,-0.3197 1.1552,-0.2298 1.1696,-0.1384 1.1769,-0.046 1.1769,0.046 1.1696,0.1384 1.1552,0.2298 1.1335,0.3197 1.105,0.4077 1.0696,0.493 1.0277,0.5755 0.9793,0.6544 0.9249,0.7292 0.8649,0.7994 0.7995,0.8649 0.7291,0.925 0.6544,0.9793 0.5755,1.0276 0.4931,1.0696 0.4076,1.105 0.3197,1.1336 0.2298,1.1551 0.1384,1.1697 z"
       fill-opacity="1"
       id="path188" />
    <text
       fill="#000000"
       stroke="none"
       font-family="'Helvetica Neue', Helvetica, sans-serif"
       font-size="8px"
       font-style="normal"
       font-weight="normal"
       text-decoration="normal"
       x="1122.1624"
       y="1153.953"
       text-anchor="middle"
       dominant-baseline="text-after-edge"
       fill-opacity="1"
       id="text190">AraD</text>
    <path
       fill="#50e281"
       stroke="none"
       paint-order="stroke fill markers"
       d="m 987.23453,997.93907 -0.0462,1.17689 -0.13844,1.16964 -0.22978,1.1552 -0.3197,1.1335 -0.40765,1.105 -0.4931,1.0696 -0.57549,1.0277 -0.65435,0.9793 -0.72917,0.9249 -0.79948,0.8649 -0.86488,0.7995 -0.92495,0.7291 -0.9793,0.6544 -1.02762,0.5755 -1.0696,0.4931 -1.105,0.4076 -1.13357,0.3197 -1.15517,0.2298 -1.16963,0.1384 -1.17688,0.046 -1.17689,-0.046 -1.16963,-0.1384 -1.15516,-0.2298 -1.13358,-0.3197 -1.105,-0.4076 -1.0696,-0.4931 -1.02762,-0.5755 -0.9793,-0.6544 -0.92495,-0.7291 -0.86488,-0.7995 -0.79948,-0.8649 -0.72917,-0.9249 -0.65435,-0.9793 -0.57549,-1.0277 -0.4931,-1.0696 -0.40765,-1.105 -0.3197,-1.1335 -0.22978,-1.1552 -0.13843,-1.16964 -0.0462,-1.17689 0.0462,-1.17688 0.13843,-1.16964 0.22978,-1.15516 0.3197,-1.13357 0.40765,-1.105 0.4931,-1.06961 0.57549,-1.02762 0.65435,-0.9793 0.72917,-0.92494 0.79948,-0.86488 0.86488,-0.79949 0.92495,-0.72916 0.9793,-0.65435 1.02762,-0.5755 1.0696,-0.49309 1.105,-0.40766 1.13358,-0.3197 1.15516,-0.22977 1.16963,-0.13844 1.17689,-0.0462 1.17688,0.0462 1.16963,0.13844 1.15517,0.22977 1.13357,0.3197 1.105,0.40766 1.0696,0.49309 1.02762,0.5755 0.9793,0.65435 0.92495,0.72916 0.86488,0.79949 0.79948,0.86488 0.72917,0.92494 0.65435,0.9793 0.57549,1.02762 0.4931,1.06961 0.40765,1.105 0.3197,1.13357 0.22978,1.15516 0.13844,1.16964 z"
       fill-opacity="1"
       id="path192" />
    <text
       fill="#000000"
       stroke="none"
       font-family="'Helvetica Neue', Helvetica, sans-serif"
       font-size="8px"
       font-style="normal"
       font-weight="normal"
       text-decoration="normal"
       x="972.2345"
       y="982.93909"
       text-anchor="middle"
       dominant-baseline="text-after-edge"
       fill-opacity="1"
       id="text194">Xyl5p</text>
    <path
       fill="#5081e2"
       stroke="none"
       paint-order="stroke fill markers"
       d="m 925.76687,1101.1702 -0.0462,1.1769 -0.13844,1.1696 -0.22978,1.1552 -0.3197,1.1336 -0.40765,1.105 -0.4931,1.0696 -0.57549,1.0276 -0.65435,0.9793 -0.72917,0.925 -0.79948,0.8648 -0.86488,0.7995 -0.92495,0.7292 -0.9793,0.6543 -1.02762,0.5755 -1.0696,0.4931 -1.105,0.4077 -1.13357,0.3197 -1.15517,0.2298 -1.16963,0.1384 -1.17688,0.046 -1.17689,-0.046 -1.16963,-0.1384 -1.15517,-0.2298 -1.13357,-0.3197 -1.105,-0.4077 -1.0696,-0.4931 -1.02762,-0.5755 -0.9793,-0.6543 -0.92495,-0.7292 -0.86488,-0.7995 -0.79948,-0.8648 -0.72917,-0.925 -0.65435,-0.9793 -0.57549,-1.0276 -0.4931,-1.0696 -0.40765,-1.105 -0.3197,-1.1336 -0.22978,-1.1552 -0.13843,-1.1696 -0.0462,-1.1769 0.0462,-1.1769 0.13843,-1.1696 0.22978,-1.1552 0.3197,-1.1335 0.40765,-1.105 0.4931,-1.0696 0.57549,-1.0276 0.65435,-0.9793 0.72917,-0.925 0.79948,-0.8649 0.86488,-0.7995 0.92495,-0.7291 0.9793,-0.6544 1.02762,-0.5755 1.0696,-0.4931 1.105,-0.4076 1.13357,-0.3197 1.15517,-0.2298 1.16963,-0.1384 1.17689,-0.046 1.17688,0.046 1.16963,0.1384 1.15517,0.2298 1.13357,0.3197 1.105,0.4076 1.0696,0.4931 1.02762,0.5755 0.9793,0.6544 0.92495,0.7291 0.86488,0.7995 0.79948,0.8649 0.72917,0.925 0.65435,0.9793 0.57549,1.0276 0.4931,1.0696 0.40765,1.105 0.3197,1.1335 0.22978,1.1552 0.13844,1.1696 z"
       fill-opacity="1"
       id="path196" />
    <text
       fill="#000000"
       stroke="none"
       font-family="'Helvetica Neue', Helvetica, sans-serif"
       font-size="8px"
       font-style="normal"
       font-weight="normal"
       text-decoration="normal"
       x="910.76685"
       y="1086.1703"
       text-anchor="middle"
       dominant-baseline="text-after-edge"
       fill-opacity="1"
       id="text198">pentose_phosphate_pathway</text>
    <path
       fill="#e250e2"
       stroke="none"
       paint-order="stroke fill markers"
       d="m 1079.915,1073.7407 -0.046,1.1769 -0.1384,1.1696 -0.2298,1.1552 -0.3197,1.1335 -0.4076,1.105 -0.4931,1.0696 -0.5755,1.0277 -0.6544,0.9793 -0.7291,0.9249 -0.7995,0.8649 -0.8649,0.7995 -0.925,0.7291 -0.9793,0.6544 -1.0276,0.5755 -1.0696,0.4931 -1.105,0.4076 -1.1336,0.3197 -1.1551,0.2298 -1.1697,0.1384 -1.1768,0.046 -1.1769,-0.046 -1.1697,-0.1384 -1.1551,-0.2298 -1.1336,-0.3197 -1.105,-0.4076 -1.0696,-0.4931 -1.0276,-0.5755 -0.9793,-0.6544 -0.925,-0.7291 -0.8648,-0.7995 -0.7995,-0.8649 -0.7292,-0.9249 -0.6543,-0.9793 -0.5755,-1.0277 -0.4931,-1.0696 -0.4077,-1.105 -0.3197,-1.1335 -0.2298,-1.1552 -0.1384,-1.1696 -0.046,-1.1769 0.046,-1.1769 0.1384,-1.1696 0.2298,-1.1552 0.3197,-1.1336 0.4077,-1.105 0.4931,-1.0696 0.5755,-1.0276 0.6543,-0.9793 0.7292,-0.9249 0.7995,-0.8649 0.8648,-0.7995 0.925,-0.7292 0.9793,-0.6543 1.0276,-0.5755 1.0696,-0.4931 1.105,-0.4077 1.1336,-0.3197 1.1551,-0.2297 1.1697,-0.1385 1.1769,-0.046 1.1768,0.046 1.1697,0.1385 1.1551,0.2297 1.1336,0.3197 1.105,0.4077 1.0696,0.4931 1.0276,0.5755 0.9793,0.6543 0.925,0.7292 0.8649,0.7995 0.7995,0.8649 0.7291,0.9249 0.6544,0.9793 0.5755,1.0276 0.4931,1.0696 0.4076,1.105 0.3197,1.1336 0.2298,1.1552 0.1384,1.1696 z"
       fill-opacity="1"
       id="path200" />
    <text
       fill="#000000"
       stroke="none"
       font-family="'Helvetica Neue', Helvetica, sans-serif"
       font-size="8px"
       font-style="normal"
       font-weight="normal"
       text-decoration="normal"
       x="1064.9149"
       y="1058.7407"
       text-anchor="middle"
       dominant-baseline="text-after-edge"
       fill-opacity="1"
       id="text202">rib5p_4_epimerase</text>
    <path
       fill="#5081e2"
       stroke="none"
       paint-order="stroke fill markers"
       d="m 770.95344,507.10349 -0.0462,1.17689 -0.13843,1.16963 -0.22978,1.15516 -0.3197,1.13357 -0.40765,1.105 -0.4931,1.06961 -0.57549,1.02762 -0.65435,0.9793 -0.72917,0.92494 -0.79948,0.86488 -0.86489,0.79949 -0.92494,0.72916 -0.9793,0.65435 -1.02762,0.5755 -1.0696,0.49309 -1.105,0.40766 -1.13358,0.3197 -1.15516,0.22977 -1.16963,0.13844 -1.17689,0.0462 -1.17688,-0.0462 -1.16963,-0.13844 -1.15517,-0.22977 -1.13357,-0.3197 -1.105,-0.40766 -1.0696,-0.49309 -1.02762,-0.5755 -0.9793,-0.65435 -0.92495,-0.72916 -0.86488,-0.79949 -0.79949,-0.86488 -0.72916,-0.92494 -0.65435,-0.9793 -0.57549,-1.02762 -0.4931,-1.06961 -0.40765,-1.105 -0.3197,-1.13357 -0.22978,-1.15516 -0.13844,-1.16963 -0.0462,-1.17689 0.0462,-1.17689 0.13844,-1.16963 0.22978,-1.15516 0.3197,-1.13358 0.40765,-1.10499 0.4931,-1.06961 0.57549,-1.02762 0.65435,-0.9793 0.72916,-0.92494 0.79949,-0.86488 0.86488,-0.79949 0.92495,-0.72917 0.9793,-0.65434 1.02762,-0.5755 1.0696,-0.49309 1.105,-0.40766 1.13357,-0.3197 1.15517,-0.22978 1.16963,-0.13843 1.17688,-0.0462 1.17689,0.0462 1.16963,0.13843 1.15516,0.22978 1.13358,0.3197 1.105,0.40766 1.0696,0.49309 1.02762,0.5755 0.9793,0.65434 0.92494,0.72917 0.86489,0.79949 0.79948,0.86488 0.72917,0.92494 0.65435,0.9793 0.57549,1.02762 0.4931,1.06961 0.40765,1.10499 0.3197,1.13358 0.22978,1.15516 0.13843,1.16963 z"
       fill-opacity="1"
       id="path204" />
    <text
       fill="#000000"
       stroke="none"
       font-family="'Helvetica Neue', Helvetica, sans-serif"
       font-size="8px"
       font-style="normal"
       font-weight="normal"
       text-decoration="normal"
       x="755.95343"
       y="492.10349"
       text-anchor="middle"
       dominant-baseline="text-after-edge"
       fill-opacity="1"
       id="text206">AraA</text>
    <path
       fill="#e2e250"
       stroke="none"
       paint-order="stroke fill markers"
       d="m 1150.4749,558.33046 -0.046,1.17689 -0.1384,1.16963 -0.2298,1.15516 -0.3197,1.13357 -0.4077,1.105 -0.4931,1.06961 -0.5755,1.02762 -0.6543,0.9793 -0.7292,0.92494 -0.7995,0.86488 -0.8648,0.79949 -0.925,0.72916 -0.9793,0.65435 -1.0276,0.5755 -1.0696,0.49309 -1.105,0.40766 -1.1336,0.3197 -1.1551,0.22977 -1.1697,0.13844 -1.1769,0.0462 -1.1768,-0.0462 -1.1697,-0.13844 -1.1551,-0.22977 -1.1336,-0.3197 -1.105,-0.40766 -1.0696,-0.49309 -1.0276,-0.5755 -0.9793,-0.65435 -0.925,-0.72916 -0.8649,-0.79949 -0.7995,-0.86488 -0.7291,-0.92494 -0.6544,-0.9793 -0.5755,-1.02762 -0.4931,-1.06961 -0.4076,-1.105 -0.3197,-1.13357 -0.2298,-1.15516 -0.1384,-1.16963 -0.046,-1.17689 0.046,-1.17689 0.1384,-1.16963 0.2298,-1.15516 0.3197,-1.13358 0.4076,-1.10499 0.4931,-1.06961 0.5755,-1.02762 0.6544,-0.9793 0.7291,-0.92494 0.7995,-0.86488 0.8649,-0.79949 0.925,-0.72917 0.9793,-0.65434 1.0276,-0.5755 1.0696,-0.49309 1.105,-0.40766 1.1336,-0.3197 1.1551,-0.22978 1.1697,-0.13843 1.1768,-0.0462 1.1769,0.0462 1.1697,0.13843 1.1551,0.22978 1.1336,0.3197 1.105,0.40766 1.0696,0.49309 1.0276,0.5755 0.9793,0.65434 0.925,0.72917 0.8648,0.79949 0.7995,0.86488 0.7292,0.92494 0.6543,0.9793 0.5755,1.02762 0.4931,1.06961 0.4077,1.10499 0.3197,1.13358 0.2298,1.15516 0.1384,1.16963 z"
       fill-opacity="1"
       id="path208" />
    <text
       fill="#000000"
       stroke="none"
       font-family="'Helvetica Neue', Helvetica, sans-serif"
       font-size="8px"
       font-style="normal"
       font-weight="normal"
       text-decoration="normal"
       x="1135.475"
       y="543.33044"
       text-anchor="middle"
       dominant-baseline="text-after-edge"
       fill-opacity="1"
       id="text210">Ara_arac</text>
    <path
       fill="#e2e250"
       stroke="none"
       paint-order="stroke fill markers"
       d="m 1619.7704,400.95371 -0.046,1.17689 -0.1384,1.16963 -0.2298,1.15516 -0.3197,1.13358 -0.4077,1.10499 -0.493,1.06961 -0.5755,1.02762 -0.6544,0.9793 -0.7292,0.92494 -0.7994,0.86488 -0.8649,0.79949 -0.925,0.72917 -0.9793,0.65434 -1.0276,0.5755 -1.0696,0.49309 -1.105,0.40766 -1.1336,0.3197 -1.1551,0.22978 -1.1697,0.13843 -1.1768,0.0462 -1.1769,-0.0462 -1.1697,-0.13843 -1.1551,-0.22978 -1.1336,-0.3197 -1.105,-0.40766 -1.0696,-0.49309 -1.0276,-0.5755 -0.9793,-0.65434 -0.925,-0.72917 -0.8648,-0.79949 -0.7995,-0.86488 -0.7292,-0.92494 -0.6543,-0.9793 -0.5755,-1.02762 -0.4931,-1.06961 -0.4077,-1.10499 -0.3197,-1.13358 -0.2298,-1.15516 -0.1384,-1.16963 -0.046,-1.17689 0.046,-1.17689 0.1384,-1.16963 0.2298,-1.15516 0.3197,-1.13357 0.4077,-1.105 0.4931,-1.06961 0.5755,-1.02762 0.6543,-0.9793 0.7292,-0.92494 0.7995,-0.86488 0.8648,-0.79949 0.925,-0.72916 0.9793,-0.65435 1.0276,-0.5755 1.0696,-0.49309 1.105,-0.40766 1.1336,-0.3197 1.1551,-0.22977 1.1697,-0.13844 1.1769,-0.0462 1.1768,0.0462 1.1697,0.13844 1.1551,0.22977 1.1336,0.3197 1.105,0.40766 1.0696,0.49309 1.0276,0.5755 0.9793,0.65435 0.925,0.72916 0.8649,0.79949 0.7994,0.86488 0.7292,0.92494 0.6544,0.9793 0.5755,1.02762 0.493,1.06961 0.4077,1.105 0.3197,1.13357 0.2298,1.15516 0.1384,1.16963 z"
       fill-opacity="1"
       id="path212" />
    <text
       fill="#000000"
       stroke="none"
       font-family="'Helvetica Neue', Helvetica, sans-serif"
       font-size="8px"
       font-style="normal"
       font-weight="normal"
       text-decoration="normal"
       x="1604.7704"
       y="385.9537"
       text-anchor="middle"
       dominant-baseline="text-after-edge"
       fill-opacity="1"
       id="text214">atc_tetr</text>
    <path
       fill="#e250e2"
       stroke="none"
       paint-order="stroke fill markers"
       d="m 857.45416,589.46363 -0.0462,1.17689 -0.13843,1.16963 -0.22978,1.15516 -0.3197,1.13358 -0.40766,1.10499 -0.49309,1.06961 -0.5755,1.02762 -0.65434,0.9793 -0.72917,0.92494 -0.79949,0.86488 -0.86488,0.79949 -0.92494,0.72917 -0.9793,0.65434 -1.02762,0.5755 -1.06961,0.49309 -1.10499,0.40766 -1.13358,0.3197 -1.15516,0.22978 -1.16963,0.13843 -1.17689,0.0462 -1.17689,-0.0462 -1.16963,-0.13843 -1.15516,-0.22978 -1.13357,-0.3197 -1.105,-0.40766 -1.06961,-0.49309 -1.02762,-0.5755 -0.9793,-0.65434 -0.92494,-0.72917 -0.86488,-0.79949 -0.79949,-0.86488 -0.72916,-0.92494 -0.65435,-0.9793 -0.5755,-1.02762 -0.49309,-1.06961 -0.40766,-1.10499 -0.3197,-1.13358 -0.22977,-1.15516 -0.13844,-1.16963 -0.0462,-1.17689 0.0462,-1.17689 0.13844,-1.16963 0.22977,-1.15516 0.3197,-1.13357 0.40766,-1.105 0.49309,-1.06961 0.5755,-1.02762 0.65435,-0.9793 0.72916,-0.92494 0.79949,-0.86488 0.86488,-0.79949 0.92494,-0.72916 0.9793,-0.65435 1.02762,-0.5755 1.06961,-0.49309 1.105,-0.40766 1.13357,-0.3197 1.15516,-0.22977 1.16963,-0.13844 1.17689,-0.0462 1.17689,0.0462 1.16963,0.13844 1.15516,0.22977 1.13358,0.3197 1.10499,0.40766 1.06961,0.49309 1.02762,0.5755 0.9793,0.65435 0.92494,0.72916 0.86488,0.79949 0.79949,0.86488 0.72917,0.92494 0.65434,0.9793 0.5755,1.02762 0.49309,1.06961 0.40766,1.105 0.3197,1.13357 0.22978,1.15516 0.13843,1.16963 z"
       fill-opacity="1"
       id="path216" />
    <text
       fill="#000000"
       stroke="none"
       font-family="'Helvetica Neue', Helvetica, sans-serif"
       font-size="8px"
       font-style="normal"
       font-weight="normal"
       text-decoration="normal"
       x="842.45416"
       y="574.46362"
       text-anchor="middle"
       dominant-baseline="text-after-edge"
       fill-opacity="1"
       id="text218">l_arabinose_isomerase</text>
    <path
       fill="#e250e2"
       stroke="none"
       paint-order="stroke fill markers"
       d="m 1190.1356,451.32226 -0.046,1.17689 -0.1384,1.16963 -0.2298,1.15517 -0.3197,1.13357 -0.4076,1.105 -0.4931,1.0696 -0.5755,1.02762 -0.6544,0.9793 -0.7291,0.92495 -0.7995,0.86488 -0.8649,0.79948 -0.9249,0.72917 -0.9793,0.65435 -1.0277,0.57549 -1.0696,0.4931 -1.105,0.40765 -1.1335,0.3197 -1.1552,0.22978 -1.1696,0.13843 -1.1769,0.0462 -1.1769,-0.0462 -1.1696,-0.13843 -1.1552,-0.22978 -1.1336,-0.3197 -1.105,-0.40765 -1.0696,-0.4931 -1.0276,-0.57549 -0.9793,-0.65435 -0.9249,-0.72917 -0.8649,-0.79948 -0.7995,-0.86488 -0.7292,-0.92495 -0.6543,-0.9793 -0.5755,-1.02762 -0.4931,-1.0696 -0.4077,-1.105 -0.3197,-1.13357 -0.2297,-1.15517 -0.1385,-1.16963 -0.046,-1.17689 0.046,-1.17688 0.1385,-1.16963 0.2297,-1.15517 0.3197,-1.13357 0.4077,-1.105 0.4931,-1.0696 0.5755,-1.02762 0.6543,-0.9793 0.7292,-0.92495 0.7995,-0.86488 0.8649,-0.79948 0.9249,-0.72917 0.9793,-0.65435 1.0276,-0.57549 1.0696,-0.4931 1.105,-0.40765 1.1336,-0.3197 1.1552,-0.22978 1.1696,-0.13844 1.1769,-0.0462 1.1769,0.0462 1.1696,0.13844 1.1552,0.22978 1.1335,0.3197 1.105,0.40765 1.0696,0.4931 1.0277,0.57549 0.9793,0.65435 0.9249,0.72917 0.8649,0.79948 0.7995,0.86488 0.7291,0.92495 0.6544,0.9793 0.5755,1.02762 0.4931,1.0696 0.4076,1.105 0.3197,1.13357 0.2298,1.15517 0.1384,1.16963 z"
       fill-opacity="1"
       id="path220" />
    <text
       fill="#000000"
       stroke="none"
       font-family="'Helvetica Neue', Helvetica, sans-serif"
       font-size="8px"
       font-style="normal"
       font-weight="normal"
       text-decoration="normal"
       x="1175.1356"
       y="436.32227"
       text-anchor="middle"
       dominant-baseline="text-after-edge"
       fill-opacity="1"
       id="text222">araC_p</text>
    <path
       fill="#50e281"
       stroke="none"
       paint-order="stroke fill markers"
       d="m 870.53663,763.11934 -0.0462,1.17689 -0.13844,1.16963 -0.22978,1.15516 -0.3197,1.13358 -0.40765,1.10499 -0.4931,1.06961 -0.57549,1.02762 -0.65435,0.9793 -0.72916,0.92494 -0.79949,0.86488 -0.86488,0.79949 -0.92495,0.72917 -0.9793,0.65434 -1.02762,0.5755 -1.0696,0.49309 -1.105,0.40766 -1.13357,0.3197 -1.15517,0.22978 -1.16963,0.13843 -1.17688,0.0462 -1.17689,-0.0462 -1.16963,-0.13843 -1.15516,-0.22978 -1.13358,-0.3197 -1.105,-0.40766 -1.0696,-0.49309 -1.02762,-0.5755 -0.9793,-0.65434 -0.92494,-0.72917 -0.86489,-0.79949 -0.79948,-0.86488 -0.72917,-0.92494 -0.65435,-0.9793 -0.57549,-1.02762 -0.4931,-1.06961 -0.40765,-1.10499 -0.3197,-1.13358 -0.22978,-1.15516 -0.13843,-1.16963 -0.0462,-1.17689 0.0462,-1.17688 0.13843,-1.16964 0.22978,-1.15516 0.3197,-1.13357 0.40765,-1.105 0.4931,-1.06961 0.57549,-1.02762 0.65435,-0.9793 0.72917,-0.92494 0.79948,-0.86488 0.86489,-0.79949 0.92494,-0.72916 0.9793,-0.65435 1.02762,-0.5755 1.0696,-0.49309 1.105,-0.40766 1.13358,-0.3197 1.15516,-0.22977 1.16963,-0.13844 1.17689,-0.0462 1.17688,0.0462 1.16963,0.13844 1.15517,0.22977 1.13357,0.3197 1.105,0.40766 1.0696,0.49309 1.02762,0.5755 0.9793,0.65435 0.92495,0.72916 0.86488,0.79949 0.79949,0.86488 0.72916,0.92494 0.65435,0.9793 0.57549,1.02762 0.4931,1.06961 0.40765,1.105 0.3197,1.13357 0.22978,1.15516 0.13844,1.16964 z"
       fill-opacity="1"
       id="path224" />
    <text
       fill="#000000"
       stroke="none"
       font-family="'Helvetica Neue', Helvetica, sans-serif"
       font-size="8px"
       font-style="normal"
       font-weight="normal"
       text-decoration="normal"
       x="855.53662"
       y="748.11932"
       text-anchor="middle"
       dominant-baseline="text-after-edge"
       fill-opacity="1"
       id="text226">ADP</text>
    <path
       fill="#50e281"
       stroke="none"
       paint-order="stroke fill markers"
       d="m 810.37811,759.38971 -0.0462,1.17688 -0.13844,1.16963 -0.22978,1.15517 -0.3197,1.13357 -0.40765,1.105 -0.4931,1.0696 -0.57549,1.02762 -0.65435,0.9793 -0.72916,0.92495 -0.79949,0.86488 -0.86488,0.79949 -0.92495,0.72916 -0.9793,0.65435 -1.02762,0.57549 -1.0696,0.4931 -1.105,0.40765 -1.13357,0.3197 -1.15517,0.22978 -1.16963,0.13844 -1.17688,0.0462 -1.17689,-0.0462 -1.16963,-0.13844 -1.15516,-0.22978 -1.13358,-0.3197 -1.105,-0.40765 -1.0696,-0.4931 -1.02762,-0.57549 -0.9793,-0.65435 -0.92494,-0.72916 -0.86489,-0.79949 -0.79948,-0.86488 -0.72917,-0.92495 -0.65435,-0.9793 -0.57549,-1.02762 -0.4931,-1.0696 -0.40765,-1.105 -0.3197,-1.13357 -0.22978,-1.15517 -0.13843,-1.16963 -0.0462,-1.17688 0.0462,-1.17689 0.13843,-1.16963 0.22978,-1.15516 0.3197,-1.13358 0.40765,-1.105 0.4931,-1.0696 0.57549,-1.02762 0.65435,-0.9793 0.72917,-0.92494 0.79948,-0.86489 0.86489,-0.79948 0.92494,-0.72917 0.9793,-0.65435 1.02762,-0.57549 1.0696,-0.4931 1.105,-0.40765 1.13358,-0.3197 1.15516,-0.22978 1.16963,-0.13843 1.17689,-0.0462 1.17688,0.0462 1.16963,0.13843 1.15517,0.22978 1.13357,0.3197 1.105,0.40765 1.0696,0.4931 1.02762,0.57549 0.9793,0.65435 0.92495,0.72917 0.86488,0.79948 0.79949,0.86489 0.72916,0.92494 0.65435,0.9793 0.57549,1.02762 0.4931,1.0696 0.40765,1.105 0.3197,1.13358 0.22978,1.15516 0.13844,1.16963 z"
       fill-opacity="1"
       id="path228" />
    <text
       fill="#000000"
       stroke="none"
       font-family="'Helvetica Neue', Helvetica, sans-serif"
       font-size="8px"
       font-style="normal"
       font-weight="normal"
       text-decoration="normal"
       x="795.37811"
       y="744.38971"
       text-anchor="middle"
       dominant-baseline="text-after-edge"
       fill-opacity="1"
       id="text230">hydrogen</text>
    <path
       fill="#50e281"
       stroke="none"
       paint-order="stroke fill markers"
       d="m 952.7918,863.70258 -0.0462,1.17688 -0.13844,1.16963 -0.22977,1.15517 -0.31971,1.13357 -0.40765,1.105 -0.4931,1.0696 -0.57549,1.02763 -0.65435,0.9793 -0.72916,0.92494 -0.79949,0.86488 -0.86488,0.79949 -0.92494,0.72916 -0.9793,0.65435 -1.02763,0.57549 -1.0696,0.4931 -1.105,0.40765 -1.13357,0.31971 -1.15517,0.22977 -1.16963,0.13844 -1.17688,0.0462 -1.17689,-0.0462 -1.16963,-0.13844 -1.15516,-0.22977 -1.13358,-0.31971 -1.10499,-0.40765 -1.06961,-0.4931 -1.02762,-0.57549 -0.9793,-0.65435 -0.92494,-0.72916 -0.86489,-0.79949 -0.79948,-0.86488 -0.72917,-0.92494 -0.65435,-0.9793 -0.57549,-1.02763 -0.4931,-1.0696 -0.40765,-1.105 -0.3197,-1.13357 -0.22978,-1.15517 -0.13843,-1.16963 -0.0462,-1.17688 0.0462,-1.17689 0.13843,-1.16963 0.22978,-1.15516 0.3197,-1.13358 0.40765,-1.10499 0.4931,-1.06961 0.57549,-1.02762 0.65435,-0.9793 0.72917,-0.92494 0.79948,-0.86488 0.86489,-0.79949 0.92494,-0.72917 0.9793,-0.65435 1.02762,-0.57549 1.06961,-0.4931 1.10499,-0.40765 1.13358,-0.3197 1.15516,-0.22978 1.16963,-0.13843 1.17689,-0.0462 1.17688,0.0462 1.16963,0.13843 1.15517,0.22978 1.13357,0.3197 1.105,0.40765 1.0696,0.4931 1.02763,0.57549 0.9793,0.65435 0.92494,0.72917 0.86488,0.79949 0.79949,0.86488 0.72916,0.92494 0.65435,0.9793 0.57549,1.02762 0.4931,1.06961 0.40765,1.10499 0.31971,1.13358 0.22977,1.15516 0.13844,1.16963 z"
       fill-opacity="1"
       id="path232" />
    <text
       fill="#000000"
       stroke="none"
       font-family="'Helvetica Neue', Helvetica, sans-serif"
       font-size="8px"
       font-style="normal"
       font-weight="normal"
       text-decoration="normal"
       x="937.79181"
       y="848.70258"
       text-anchor="middle"
       dominant-baseline="text-after-edge"
       fill-opacity="1"
       id="text234">rib5p</text>
    <path
       fill="#50e281"
       stroke="none"
       paint-order="stroke fill markers"
       d="m 932.37018,705.49769 -0.0462,1.17688 -0.13843,1.16964 -0.22978,1.15516 -0.3197,1.13357 -0.40766,1.105 -0.49309,1.06961 -0.5755,1.02762 -0.65434,0.9793 -0.72917,0.92494 -0.79949,0.86488 -0.86488,0.79949 -0.92494,0.72916 -0.9793,0.65435 -1.02762,0.5755 -1.06961,0.49309 -1.10499,0.40766 -1.13358,0.3197 -1.15516,0.22977 -1.16963,0.13844 -1.17689,0.0462 -1.17689,-0.0462 -1.16963,-0.13844 -1.15516,-0.22977 -1.13357,-0.3197 -1.105,-0.40766 -1.06961,-0.49309 -1.02762,-0.5755 -0.9793,-0.65435 -0.92494,-0.72916 -0.86488,-0.79949 -0.79949,-0.86488 -0.72916,-0.92494 -0.65435,-0.9793 -0.5755,-1.02762 -0.49309,-1.06961 -0.40766,-1.105 -0.3197,-1.13357 -0.22977,-1.15516 -0.13844,-1.16964 -0.0462,-1.17688 0.0462,-1.17689 0.13844,-1.16963 0.22977,-1.15516 0.3197,-1.13358 0.40766,-1.10499 0.49309,-1.06961 0.5755,-1.02762 0.65435,-0.9793 0.72916,-0.92494 0.79949,-0.86488 0.86488,-0.79949 0.92494,-0.72917 0.9793,-0.65434 1.02762,-0.5755 1.06961,-0.49309 1.105,-0.40766 1.13357,-0.3197 1.15516,-0.22978 1.16963,-0.13843 1.17689,-0.0462 1.17689,0.0462 1.16963,0.13843 1.15516,0.22978 1.13358,0.3197 1.10499,0.40766 1.06961,0.49309 1.02762,0.5755 0.9793,0.65434 0.92494,0.72917 0.86488,0.79949 0.79949,0.86488 0.72917,0.92494 0.65434,0.9793 0.5755,1.02762 0.49309,1.06961 0.40766,1.10499 0.3197,1.13358 0.22978,1.15516 0.13843,1.16963 z"
       fill-opacity="1"
       id="path236" />
    <text
       fill="#000000"
       stroke="none"
       font-family="'Helvetica Neue', Helvetica, sans-serif"
       font-size="8px"
       font-style="normal"
       font-weight="normal"
       text-decoration="normal"
       x="917.37018"
       y="690.49768"
       text-anchor="middle"
       dominant-baseline="text-after-edge"
       fill-opacity="1"
       id="text238">l_ribulose</text>
    <g
       transform="matrix(0.78559205,0,0,0.78559205,314.48524,203.74847)"
       id="g240" />
  </g>
</svg>
