<?xml version="1.0" encoding="UTF-8" standalone="no"?>
<svg
   version="1.1"
   width="868.4679"
   height="1223.1547"
   id="svg172"
   sodipodi:docname="cyto.svg"
   inkscape:version="1.1.1 (26b7af14f2, 2022-01-19)"
   xmlns:inkscape="http://www.inkscape.org/namespaces/inkscape"
   xmlns:sodipodi="http://sodipodi.sourceforge.net/DTD/sodipodi-0.dtd"
   xmlns="http://www.w3.org/2000/svg"
   xmlns:svg="http://www.w3.org/2000/svg">
  <sodipodi:namedview
     id="namedview174"
     pagecolor="#ffffff"
     bordercolor="#666666"
     borderopacity="1.0"
     inkscape:pageshadow="2"
     inkscape:pageopacity="0.0"
     inkscape:pagecheckerboard="0"
     showgrid="false"
     inkscape:zoom="0.84361023"
     inkscape:cx="894.37038"
     inkscape:cy="607.50804"
     inkscape:window-width="2492"
     inkscape:window-height="1376"
     inkscape:window-x="1988"
     inkscape:window-y="27"
     inkscape:window-maximized="1"
     inkscape:current-layer="g170" />
  <defs
     id="defs2">
    <rect
       x="1443.0721"
       y="39.982376"
       width="235.68906"
       height="103.2741"
       id="rect3639-3" />
    <rect
       x="1443.0721"
       y="39.982376"
       width="235.68906"
       height="103.2741"
       id="rect3639-5-6" />
    <rect
       x="1443.0721"
       y="39.982376"
       width="235.68906"
       height="103.2741"
       id="rect27185-7-7" />
    <rect
       x="1443.0721"
       y="39.982376"
       width="235.68906"
       height="103.2741"
       id="rect27185-7-6-9-5" />
    <rect
       x="1443.0721"
       y="39.982376"
       width="235.68906"
       height="103.2741"
       id="rect27185-4-5" />
    <rect
       x="1443.0721"
       y="39.982376"
       width="235.68906"
       height="103.2741"
       id="rect27185-7-8-6" />
    <rect
       x="1443.0721"
       y="39.982376"
       width="235.68906"
       height="103.2741"
       id="rect27185-7-6-9-5-3" />
    <rect
       x="1443.0721"
       y="39.982376"
       width="235.68906"
       height="103.2741"
       id="rect27185-7-6-9-5-5" />
    <rect
       x="1443.0721"
       y="39.982376"
       width="235.68906"
       height="103.2741"
       id="rect27185-7-6-9-5-3-3" />
    <rect
       x="1443.0721"
       y="39.982376"
       width="235.68906"
       height="103.2741"
       id="rect3639-3-2" />
    <rect
       x="1443.0721"
       y="39.982376"
       width="235.68906"
       height="103.2741"
       id="rect27185-7-7-7" />
    <rect
       x="1443.0721"
       y="39.982376"
       width="235.68906"
       height="103.2741"
       id="rect27185-7-6-9-5-0" />
    <rect
       x="1443.0721"
       y="39.982376"
       width="235.68906"
       height="103.2741"
       id="rect27185-7-6-9-4-3" />
    <rect
       x="1443.0721"
       y="39.982376"
       width="235.68906"
       height="103.2741"
       id="rect27185-7-6-9-4-9-1" />
    <rect
       x="1443.0721"
       y="39.982376"
       width="235.68906"
       height="103.2741"
       id="rect27185-7-6-9-4-9-5-2" />
    <rect
       x="1443.0721"
       y="39.982376"
       width="235.68906"
       height="103.2741"
       id="rect3639-7" />
    <rect
       x="1443.0721"
       y="39.982376"
       width="235.68906"
       height="103.2741"
       id="rect27598" />
    <rect
       x="1443.0721"
       y="39.982376"
       width="235.68906"
       height="103.2741"
       id="rect3639-3-5" />
    <rect
       x="1443.0721"
       y="39.982376"
       width="235.68906"
       height="103.2741"
       id="rect3639-5-6-9" />
    <rect
       x="1443.0721"
       y="39.982376"
       width="235.68906"
       height="103.2741"
       id="rect27185-7-7-3" />
    <rect
       x="1443.0721"
       y="39.982376"
       width="235.68906"
       height="103.2741"
       id="rect27185-7-6-9-5-5-3" />
    <rect
       x="1443.0721"
       y="39.982376"
       width="235.68906"
       height="103.2741"
       id="rect27185-7-6-9-4-3-6" />
    <rect
       x="1443.0721"
       y="39.982376"
       width="235.68906"
       height="103.2741"
       id="rect27185-4-5-6" />
    <rect
       x="1443.0721"
       y="39.982376"
       width="235.68906"
       height="103.2741"
       id="rect27185-7-8-6-0" />
    <rect
       x="1443.0721"
       y="39.982376"
       width="235.68906"
       height="103.2741"
       id="rect27185-7-6-9-8-2" />
    <rect
       x="1443.0721"
       y="39.982376"
       width="235.68906"
       height="103.2741"
       id="rect27185-7-6-9-4-1-9" />
    <rect
       x="1443.0721"
       y="39.982376"
       width="235.68906"
       height="103.2741"
       id="rect27185-7-6-9-4-9-1-2" />
    <rect
       x="1443.0721"
       y="39.982376"
       width="235.68906"
       height="103.2741"
       id="rect27185-7-6-9-4-9-5-2-9" />
    <rect
       x="1443.0721"
       y="39.982376"
       width="235.68906"
       height="103.2741"
       id="rect27185-7-8-6-2" />
    <rect
       x="1443.0721"
       y="39.982376"
       width="235.68906"
       height="103.2741"
       id="rect27185-4-5-0" />
    <rect
       x="1443.0721"
       y="39.982376"
       width="235.68906"
       height="103.2741"
       id="rect27185-7-8-6-2-7" />
    <rect
       x="1443.0721"
       y="39.982376"
       width="235.68906"
       height="103.2741"
       id="rect27185-4-5-0-8" />
    <rect
       x="1443.0721"
       y="39.982376"
       width="235.68906"
       height="103.2741"
       id="rect27185-7-6-9-5-3-6" />
    <rect
       x="1443.0721"
       y="39.982376"
       width="235.68906"
       height="103.2741"
       id="rect27185-7-6-9-5-5-1" />
    <rect
       x="1443.0721"
       y="39.982376"
       width="235.68906"
       height="103.2741"
       id="rect27185-7-6-9-5-5-1-0" />
  </defs>
  <g
     transform="matrix(1.4511905,0,0,1.4511905,195.70112,16.322383)"
     id="g170">
    <path
       fill="none"
       stroke="#50e2e2"
       paint-order="fill stroke markers"
       d="m -51.383107,31.615421 v 50"
       stroke-opacity="1"
       stroke-linejoin="round"
       stroke-miterlimit="10"
       stroke-width="3"
       id="path4"
       style="stroke:#e2e250;stroke-opacity:1" />
    <path
       fill="#50e2e2"
       stroke="none"
       paint-order="stroke fill markers"
       d="m -55.733107,47.915421 4.35,8.7 4.35,-8.7 z"
       fill-opacity="1"
       id="path6"
       style="fill:#e2e250;fill-opacity:1" />
    <path
       fill="none"
       stroke="#e28150"
       paint-order="fill stroke markers"
       d="m -51.383107,111.61542 v 50"
       stroke-opacity="1"
       stroke-linejoin="round"
       stroke-miterlimit="10"
       stroke-width="3"
       id="path8"
       style="stroke:#50e281;stroke-opacity:1" />
    <path
       fill="#e28150"
       stroke="none"
       paint-order="stroke fill markers"
       d="m -55.733107,127.91542 4.35,8.7 4.35,-8.7 z"
       fill-opacity="1"
       id="path10"
       style="fill:#50e281;fill-opacity:1" />
    <path
       fill="none"
       stroke="#e2e250"
       paint-order="fill stroke markers"
       d="m -44.674903,190.03183 26.583592,53.16718"
       stroke-opacity="1"
       stroke-linejoin="round"
       stroke-miterlimit="10"
       stroke-width="3"
       id="path12"
       style="stroke:#fa8072;stroke-opacity:1" />
    <path
       fill="#e2e250"
       stroke="none"
       paint-order="stroke fill markers"
       d="m -39.164624,210.77928 7.781517,5.83614 v -9.7269 z"
       fill-opacity="1"
       id="path14"
       style="fill:#fa8072;fill-opacity:1" />
    <path
       fill="none"
       stroke="#81e250"
       paint-order="fill stroke markers"
       d="m -0.7765052,347.22202 58.7867982,58.7868"
       stroke-opacity="1"
       stroke-linejoin="round"
       stroke-miterlimit="10"
       stroke-width="3"
       id="path16"
       style="stroke:#a07be9;stroke-opacity:1" />
    <path
       fill="#81e250"
       stroke="none"
       paint-order="stroke fill markers"
       d="m 19.38915,373.53951 9.227743,3.07591 -3.075914,-9.22774 z"
       fill-opacity="1"
       id="path18"
       style="fill:#a07be9;fill-opacity:1" />
    <path
       fill="none"
       stroke="#e28150"
       paint-order="fill stroke markers"
       d="m 80.996333,424.78273 68.108047,63.66538"
       stroke-opacity="1"
       stroke-linejoin="round"
       stroke-miterlimit="10"
       stroke-width="2.54576"
       id="path20"
       style="stroke:#50e281;stroke-opacity:1" />
    <path
       fill="#e28150"
       stroke="none"
       paint-order="stroke fill markers"
       d="m 110.65061,458.32342 9.14515,3.31342 -2.83635,-9.30417 z"
       fill-opacity="1"
       id="path22"
       style="fill:#50e281;fill-opacity:1" />
    <path
       fill="none"
       stroke="#e28150"
       paint-order="fill stroke markers"
       d="m 58.010293,427.22202 -58.7867982,58.7868"
       stroke-opacity="1"
       stroke-linejoin="round"
       stroke-miterlimit="10"
       stroke-width="3"
       id="path24"
       style="stroke:#50e281;stroke-opacity:1" />
    <path
       fill="#e28150"
       stroke="none"
       paint-order="stroke fill markers"
       d="m 31.692807,447.38768 -3.075914,9.22774 9.22774,-3.07591 z"
       fill-opacity="1"
       id="path26"
       style="fill:#50e281;fill-opacity:1" />
    <path
       fill="none"
       stroke="#e28150"
       paint-order="fill stroke markers"
       d="m 68.616893,431.61542 v 50"
       stroke-opacity="1"
       stroke-linejoin="round"
       stroke-miterlimit="10"
       stroke-width="3"
       id="path28"
       style="stroke:#50e281;stroke-opacity:1" />
    <path
       fill="#e28150"
       stroke="none"
       paint-order="stroke fill markers"
       d="m 64.266893,447.91542 4.35,8.7 4.35,-8.7 z"
       fill-opacity="1"
       id="path30"
       style="fill:#50e281;fill-opacity:1" />
    <path
       fill="none"
       stroke="#81e250"
       paint-order="fill stroke markers"
       d="m 68.616893,351.61542 v 50"
       stroke-opacity="1"
       stroke-linejoin="round"
       stroke-miterlimit="10"
       stroke-width="3"
       id="path32"
       style="stroke:#a07be9;stroke-opacity:1" />
    <path
       fill="#81e250"
       stroke="none"
       paint-order="stroke fill markers"
       d="m 64.266893,367.91542 4.35,8.7 4.35,-8.7 z"
       fill-opacity="1"
       id="path34"
       style="fill:#a07be9;fill-opacity:1" />
    <path
       fill="none"
       stroke="#e2e250"
       paint-order="fill stroke markers"
       d="M 145.79979,346.68676 79.733013,406.54408"
       stroke-opacity="1"
       stroke-linejoin="round"
       stroke-miterlimit="10"
       stroke-width="3"
       id="path36"
       style="stroke:#fa8072;stroke-opacity:1" />
    <path
       fill="#e2e250"
       stroke="none"
       paint-order="stroke fill markers"
       d="m 116.29306,367.55037 -3.52666,9.06505 9.36804,-2.6177 z"
       fill-opacity="1"
       id="path38"
       style="fill:#fa8072;fill-opacity:1" />
    <path
       fill="none"
       stroke="#81e250"
       paint-order="fill stroke markers"
       d="m 81.097643,504.93592 95.038497,63.359"
       stroke-opacity="1"
       stroke-linejoin="round"
       stroke-miterlimit="10"
       stroke-width="3"
       id="path40"
       style="stroke:#a07be9;stroke-opacity:1" />
    <path
       fill="#81e250"
       stroke="none"
       paint-order="stroke fill markers"
       d="m 118.96511,535.40895 9.65178,1.20647 -4.82589,-8.44531 z"
       fill-opacity="1"
       id="path42"
       style="fill:#a07be9;fill-opacity:1" />
    <path
       fill="none"
       stroke="#50e281"
       paint-order="fill stroke markers"
       d="m 188.61689,671.61542 v 50"
       stroke-opacity="1"
       stroke-linejoin="round"
       stroke-miterlimit="10"
       stroke-width="3"
       id="path44"
       style="stroke:#e97be9;stroke-opacity:1" />
    <path
       fill="#50e281"
       stroke="none"
       paint-order="stroke fill markers"
       d="m 184.26689,687.91542 4.35,8.7 4.35,-8.7 z"
       fill-opacity="1"
       id="path46"
       style="fill:#e97be9;fill-opacity:1" />
    <path
       fill="none"
       stroke="#5081e2"
       paint-order="fill stroke markers"
       d="m 188.61689,751.61542 v 50"
       stroke-opacity="1"
       stroke-linejoin="round"
       stroke-miterlimit="10"
       stroke-width="3"
       id="path48"
       style="stroke:#5081e2;stroke-opacity:1" />
    <path
       fill="#5081e2"
       stroke="none"
       paint-order="stroke fill markers"
       d="m 184.26689,767.91542 4.35,8.7 4.35,-8.7 z"
       fill-opacity="1"
       id="path50"
       style="fill:#5081e2;fill-opacity:1" />
    <path
       fill="none"
       stroke="#81e250"
       paint-order="fill stroke markers"
       d="M 24.375655,189.17846 -4.3560682,243.36322"
       stroke-opacity="1"
       stroke-linejoin="round"
       stroke-miterlimit="10"
       stroke-width="3"
       id="path52"
       style="stroke:#a07be9;stroke-opacity:1" />
    <path
       fill="#81e250"
       stroke="none"
       paint-order="stroke fill markers"
       d="m 10.24234,206.54673 -0.232546,9.72411 7.91882,-5.64843 z"
       fill-opacity="1"
       id="path54"
       style="fill:#a07be9;fill-opacity:1" />
    <path
       fill="none"
       stroke="#e28150"
       paint-order="fill stroke markers"
       d="m -11.383107,271.61542 v 50"
       stroke-opacity="1"
       stroke-linejoin="round"
       stroke-miterlimit="10"
       stroke-width="3"
       id="path56"
       style="stroke:#50e281;stroke-opacity:1" />
    <path
       fill="#e28150"
       stroke="none"
       paint-order="stroke fill markers"
       d="m -15.733107,287.91542 4.35,8.7 4.3499998,-8.7 z"
       fill-opacity="1"
       id="path58"
       style="fill:#50e281;fill-opacity:1" />
    <path
       fill="none"
       stroke="#50e2e2"
       paint-order="fill stroke markers"
       d="m 156.91591,191.61542 v 50"
       stroke-opacity="1"
       stroke-linejoin="round"
       stroke-miterlimit="10"
       stroke-width="3"
       id="path60"
       style="stroke:#e2e250;stroke-opacity:1" />
    <path
       fill="#50e2e2"
       stroke="none"
       paint-order="stroke fill markers"
       d="m 152.56591,207.91542 4.35,8.7 4.35,-8.7 z"
       fill-opacity="1"
       id="path62"
       style="fill:#e2e250;fill-opacity:1" />
    <path
       fill="none"
       stroke="#e28150"
       paint-order="fill stroke markers"
       d="m 156.91591,271.61542 v 50"
       stroke-opacity="1"
       stroke-linejoin="round"
       stroke-miterlimit="10"
       stroke-width="3"
       id="path64"
       style="stroke:#50e281;stroke-opacity:1" />
    <path
       fill="#e28150"
       stroke="none"
       paint-order="stroke fill markers"
       d="m 152.56591,287.91542 4.35,8.7 4.35,-8.7 z"
       fill-opacity="1"
       id="path66"
       style="fill:#50e281;fill-opacity:1" />
    <path
       fill="none"
       stroke="#50e2e2"
       paint-order="fill stroke markers"
       d="m 306.52024,352.99372 v 50"
       stroke-opacity="1"
       stroke-linejoin="round"
       stroke-miterlimit="10"
       stroke-width="3"
       id="path68"
       style="stroke:#e2e250;stroke-opacity:1" />
    <path
       fill="#50e2e2"
       stroke="none"
       paint-order="stroke fill markers"
       d="m 302.17024,369.29372 4.35,8.7 4.35,-8.7 z"
       fill-opacity="1"
       id="path70"
       style="fill:#e2e250;fill-opacity:1" />
    <path
       fill="none"
       stroke="#e28150"
       paint-order="fill stroke markers"
       d="m 306.52024,432.99372 v 50"
       stroke-opacity="1"
       stroke-linejoin="round"
       stroke-miterlimit="10"
       stroke-width="3"
       id="path72"
       style="stroke:#50e281;stroke-opacity:1" />
    <path
       fill="#e28150"
       stroke="none"
       paint-order="stroke fill markers"
       d="m 302.17024,449.29372 4.35,8.7 4.35,-8.7 z"
       fill-opacity="1"
       id="path74"
       style="fill:#50e281;fill-opacity:1" />
    <path
       fill="none"
       stroke="#e2e250"
       paint-order="fill stroke markers"
       d="m 294.04044,506.31565 -92.94375,61.97784"
       stroke-opacity="1"
       stroke-linejoin="round"
       stroke-miterlimit="10"
       stroke-width="3"
       id="path76"
       style="stroke:#fa8072;stroke-opacity:1" />
    <path
       fill="#e2e250"
       stroke="none"
       paint-order="stroke fill markers"
       d="m 252.39349,528.85871 -4.82492,8.44586 9.65164,-1.20757 z"
       fill-opacity="1"
       id="path78"
       style="fill:#fa8072;fill-opacity:1" />
    <path
       fill="none"
       stroke="#e28150"
       paint-order="fill stroke markers"
       d="m 188.61689,591.61542 v 50"
       stroke-opacity="1"
       stroke-linejoin="round"
       stroke-miterlimit="10"
       stroke-width="3"
       id="path80"
       style="stroke:#50e281;stroke-opacity:1" />
    <path
       fill="#e28150"
       stroke="none"
       paint-order="stroke fill markers"
       d="m 184.26689,607.91542 4.35,8.7 4.35,-8.7 z"
       fill-opacity="1"
       id="path82"
       style="fill:#50e281;fill-opacity:1" />
    <path
       fill="#5081e2"
       stroke="none"
       paint-order="stroke fill markers"
       d="m -36.383107,16.615421 -0.04624,1.176886 -0.138435,1.169631 -0.229776,1.155163 -0.319701,1.133575 -0.407655,1.104996 -0.493095,1.069606 -0.575496,1.027621 -0.654347,0.979301 -0.729166,0.924942 -0.799487,0.864881 -0.864881,0.799487 -0.924942,0.729166 -0.979301,0.654347 -1.027621,0.575496 -1.069606,0.493095 -1.104996,0.407655 -1.133575,0.319701 -1.155163,0.229776 -1.169631,0.138435 -1.176886,0.04624 -1.176886,-0.04624 -1.169631,-0.138435 -1.155163,-0.229776 -1.133575,-0.319701 -1.104997,-0.407655 -1.069606,-0.493095 -1.027621,-0.575496 -0.9793,-0.654347 -0.924942,-0.729166 -0.864881,-0.799487 -0.799488,-0.864881 -0.729165,-0.924942 -0.654348,-0.979301 -0.575495,-1.027621 -0.493095,-1.069606 -0.407655,-1.104996 -0.319701,-1.133575 -0.229776,-1.155163 -0.138435,-1.169631 -0.04624,-1.176886 0.04624,-1.176886 0.138435,-1.169631 0.229776,-1.155163 0.319701,-1.133575 0.407655,-1.104997 0.493095,-1.0696059 0.575495,-1.027621 0.654348,-0.9793003 0.729165,-0.9249419 0.799488,-0.864881 0.864881,-0.7994878 0.924942,-0.7291654 0.9793,-0.6543476 1.027621,-0.5754954 1.069606,-0.4930951 1.104997,-0.4076547 1.133575,-0.3197011 1.155163,-0.2297763 1.169631,-0.1384349 1.176886,-0.04624 1.176886,0.04624 1.169631,0.1384349 1.155163,0.2297763 1.133575,0.3197011 1.104996,0.4076547 1.069606,0.4930951 1.027621,0.5754954 0.979301,0.6543476 0.924942,0.7291654 0.864881,0.7994878 0.799487,0.864881 0.729166,0.9249419 0.654347,0.9793003 0.575496,1.027621 0.493095,1.0696059 0.407655,1.104997 0.319701,1.133575 0.229776,1.155163 0.138435,1.169631 z"
       fill-opacity="1"
       id="path84"
       style="fill:#e2e250;fill-opacity:1" />
    <text
       fill="#000000"
       stroke="none"
       font-family="'Helvetica Neue', Helvetica, sans-serif"
       font-size="8px"
       font-style="normal"
       font-weight="normal"
       text-decoration="normal"
       x="-51.383106"
       y="1.6154206"
       text-anchor="middle"
       dominant-baseline="text-after-edge"
       fill-opacity="1"
       id="text86"
       style="font-size:12.863px">AraA</text>
    <path
       fill="#5081e2"
       stroke="none"
       paint-order="stroke fill markers"
       d="m 203.61689,816.61542 -0.0462,1.17689 -0.13843,1.16963 -0.22978,1.15516 -0.3197,1.13357 -0.40766,1.105 -0.49309,1.06961 -0.5755,1.02762 -0.65435,0.9793 -0.72916,0.92494 -0.79949,0.86488 -0.86488,0.79949 -0.92494,0.72916 -0.9793,0.65435 -1.02762,0.5755 -1.06961,0.49309 -1.105,0.40766 -1.13357,0.3197 -1.15516,0.22978 -1.16963,0.13843 -1.17693,0.0462 -1.17689,-0.0462 -1.16963,-0.13843 -1.15516,-0.22978 -1.13357,-0.3197 -1.105,-0.40766 -1.06961,-0.49309 -1.02762,-0.5755 -0.9793,-0.65435 -0.92494,-0.72916 -0.86488,-0.79949 -0.79949,-0.86488 -0.72916,-0.92494 -0.65435,-0.9793 -0.5755,-1.02762 -0.49309,-1.06961 -0.40766,-1.105 -0.3197,-1.13357 -0.22978,-1.15516 -0.13843,-1.16963 -0.0462,-1.17693 0.0462,-1.17689 0.13843,-1.16963 0.22978,-1.15516 0.3197,-1.13357 0.40766,-1.105 0.49309,-1.06961 0.5755,-1.02762 0.65435,-0.9793 0.72916,-0.92494 0.79949,-0.86488 0.86488,-0.79949 0.92494,-0.72916 0.9793,-0.65435 1.02762,-0.5755 1.06961,-0.49309 1.105,-0.40766 1.13357,-0.3197 1.15516,-0.22978 1.16963,-0.13843 1.17693,-0.0462 1.17689,0.0462 1.16963,0.13843 1.15516,0.22978 1.13357,0.3197 1.105,0.40766 1.06961,0.49309 1.02762,0.5755 0.9793,0.65435 0.92494,0.72916 0.86488,0.79949 0.79949,0.86488 0.72916,0.92494 0.65435,0.9793 0.5755,1.02762 0.49309,1.06961 0.40766,1.105 0.3197,1.13357 0.22978,1.15516 0.13843,1.16963 z"
       fill-opacity="1"
       id="path88" />
    <text
       fill="#000000"
       stroke="none"
       font-family="'Helvetica Neue', Helvetica, sans-serif"
       font-size="8px"
       font-style="normal"
       font-weight="normal"
       text-decoration="normal"
       x="188.6169"
       y="801.61542"
       text-anchor="middle"
       dominant-baseline="text-after-edge"
       fill-opacity="1"
       id="text90"
       style="font-size:12.863px">pentose_phosphate_pathway</text>
    <path
       fill="#5081e2"
       stroke="none"
       paint-order="stroke fill markers"
       d="m 171.91591,176.61542 -0.0462,1.17689 -0.13844,1.16963 -0.22978,1.15516 -0.3197,1.13357 -0.40765,1.105 -0.4931,1.06961 -0.57549,1.02762 -0.65435,0.9793 -0.72916,0.92494 -0.79949,0.86488 -0.86488,0.79949 -0.92495,0.72916 -0.9793,0.65435 -1.02762,0.5755 -1.0696,0.49309 -1.105,0.40766 -1.13357,0.3197 -1.15517,0.22978 -1.16963,0.13843 -1.17688,0.0462 -1.17689,-0.0462 -1.16963,-0.13843 -1.15516,-0.22978 -1.13358,-0.3197 -1.105,-0.40766 -1.0696,-0.49309 -1.02762,-0.5755 -0.9793,-0.65435 -0.92494,-0.72916 -0.86489,-0.79949 -0.79948,-0.86488 -0.72917,-0.92494 -0.65435,-0.9793 -0.57549,-1.02762 -0.4931,-1.06961 -0.40765,-1.105 -0.3197,-1.13357 -0.22978,-1.15516 -0.13843,-1.16963 -0.0462,-1.17689 0.0462,-1.17689 0.13843,-1.16963 0.22978,-1.15516 0.3197,-1.13357 0.40765,-1.105 0.4931,-1.06961 0.57549,-1.02762 0.65435,-0.9793 0.72917,-0.92494 0.79948,-0.86488 0.86489,-0.79949 0.92494,-0.72916 0.9793,-0.65435 1.02762,-0.5755 1.0696,-0.49309 1.105,-0.40766 1.13358,-0.3197 1.15516,-0.22978 1.16963,-0.13843 1.17689,-0.0462 1.17688,0.0462 1.16963,0.13843 1.15517,0.22978 1.13357,0.3197 1.105,0.40766 1.0696,0.49309 1.02762,0.5755 0.9793,0.65435 0.92495,0.72916 0.86488,0.79949 0.79949,0.86488 0.72916,0.92494 0.65435,0.9793 0.57549,1.02762 0.4931,1.06961 0.40765,1.105 0.3197,1.13357 0.22978,1.15516 0.13844,1.16963 z"
       fill-opacity="1"
       id="path92"
       style="fill:#e2e250;fill-opacity:1" />
    <text
       fill="#000000"
       stroke="none"
       font-family="'Helvetica Neue', Helvetica, sans-serif"
       font-size="8px"
       font-style="normal"
       font-weight="normal"
       text-decoration="normal"
       x="156.91591"
       y="161.61542"
       text-anchor="middle"
       dominant-baseline="text-after-edge"
       fill-opacity="1"
       id="text94"
       style="font-size:12.863px">AraB</text>
    <path
       fill="#5081e2"
       stroke="none"
       paint-order="stroke fill markers"
       d="m 321.52024,337.99372 -0.0462,1.17689 -0.13843,1.16963 -0.22978,1.15516 -0.3197,1.13358 -0.40766,1.105 -0.49309,1.0696 -0.5755,1.02762 -0.65434,0.9793 -0.72917,0.92494 -0.79949,0.86489 -0.86488,0.79948 -0.92494,0.72917 -0.9793,0.65435 -1.02762,0.57549 -1.06961,0.4931 -1.10499,0.40765 -1.13358,0.3197 -1.15516,0.22978 -1.16963,0.13843 -1.17689,0.0462 -1.17689,-0.0462 -1.16963,-0.13843 -1.15516,-0.22978 -1.13357,-0.3197 -1.105,-0.40765 -1.06961,-0.4931 -1.02762,-0.57549 -0.9793,-0.65435 -0.92494,-0.72917 -0.86488,-0.79948 -0.79949,-0.86489 -0.72916,-0.92494 -0.65435,-0.9793 -0.5755,-1.02762 -0.49309,-1.0696 -0.40766,-1.105 -0.3197,-1.13358 -0.22977,-1.15516 -0.13844,-1.16963 -0.0462,-1.17689 0.0462,-1.17688 0.13844,-1.16963 0.22977,-1.15517 0.3197,-1.13357 0.40766,-1.105 0.49309,-1.0696 0.5755,-1.02762 0.65435,-0.97931 0.72916,-0.92494 0.79949,-0.86488 0.86488,-0.79949 0.92494,-0.72916 0.9793,-0.65435 1.02762,-0.57549 1.06961,-0.4931 1.105,-0.40765 1.13357,-0.31971 1.15516,-0.22977 1.16963,-0.13844 1.17689,-0.0462 1.17689,0.0462 1.16963,0.13844 1.15516,0.22977 1.13358,0.31971 1.10499,0.40765 1.06961,0.4931 1.02762,0.57549 0.9793,0.65435 0.92494,0.72916 0.86488,0.79949 0.79949,0.86488 0.72917,0.92494 0.65434,0.97931 0.5755,1.02762 0.49309,1.0696 0.40766,1.105 0.3197,1.13357 0.22978,1.15517 0.13843,1.16963 z"
       fill-opacity="1"
       id="path96"
       style="fill:#e2e250;fill-opacity:1" />
    <text
       fill="#000000"
       stroke="none"
       font-family="'Helvetica Neue', Helvetica, sans-serif"
       font-size="8px"
       font-style="normal"
       font-weight="normal"
       text-decoration="normal"
       x="306.52023"
       y="322.99371"
       text-anchor="middle"
       dominant-baseline="text-after-edge"
       fill-opacity="1"
       id="text98"
       style="font-size:12.863px">AraD</text>
    <path
       fill="#8150e2"
       stroke="none"
       paint-order="stroke fill markers"
       d="m -36.383107,176.61542 -0.04624,1.17689 -0.138435,1.16963 -0.229776,1.15516 -0.319701,1.13357 -0.407655,1.105 -0.493095,1.06961 -0.575496,1.02762 -0.654347,0.9793 -0.729166,0.92494 -0.799487,0.86488 -0.864881,0.79949 -0.924942,0.72916 -0.979301,0.65435 -1.027621,0.5755 -1.069606,0.49309 -1.104996,0.40766 -1.133575,0.3197 -1.155163,0.22978 -1.169631,0.13843 -1.176886,0.0462 -1.176886,-0.0462 -1.169631,-0.13843 -1.155163,-0.22978 -1.133575,-0.3197 -1.104997,-0.40766 -1.069606,-0.49309 -1.027621,-0.5755 -0.9793,-0.65435 -0.924942,-0.72916 -0.864881,-0.79949 -0.799488,-0.86488 -0.729165,-0.92494 -0.654348,-0.9793 -0.575495,-1.02762 -0.493095,-1.06961 -0.407655,-1.105 -0.319701,-1.13357 -0.229776,-1.15516 -0.138435,-1.16963 -0.04624,-1.17693 0.04624,-1.17689 0.138435,-1.16963 0.229776,-1.15516 0.319701,-1.13357 0.407655,-1.105 0.493095,-1.06961 0.575495,-1.02762 0.654348,-0.9793 0.729165,-0.92494 0.799488,-0.86488 0.864881,-0.79949 0.924942,-0.72916 0.9793,-0.65435 1.027621,-0.5755 1.069606,-0.49309 1.104997,-0.40766 1.133575,-0.3197 1.155163,-0.22978 1.169631,-0.13843 1.176886,-0.0462 1.176886,0.0462 1.169631,0.13843 1.155163,0.22978 1.133575,0.3197 1.104996,0.40766 1.069606,0.49309 1.027621,0.5755 0.979301,0.65435 0.924942,0.72916 0.864881,0.79949 0.799487,0.86488 0.729166,0.92494 0.654347,0.9793 0.575496,1.02762 0.493095,1.06961 0.407655,1.105 0.319701,1.13357 0.229776,1.15516 0.138435,1.16963 z"
       fill-opacity="1"
       id="path100"
       style="fill:#fa8072;fill-opacity:1" />
    <text
       fill="#000000"
       stroke="none"
       font-family="'Helvetica Neue', Helvetica, sans-serif"
       font-size="8px"
       font-style="normal"
       font-weight="normal"
       text-decoration="normal"
       x="-67.921249"
       y="161.61542"
       text-anchor="middle"
       dominant-baseline="text-after-edge"
       fill-opacity="1"
       id="text102"
       style="font-size:12.863px">l_arabinose_isomerase</text>
    <path
       fill="#50e281"
       stroke="none"
       paint-order="stroke fill markers"
       d="m 3.6168928,336.61542 -0.04624,1.17689 -0.138435,1.16963 -0.229776,1.15516 -0.319701,1.13357 -0.407655,1.105 -0.493095,1.06961 -0.575496,1.02762 -0.654347,0.9793 -0.729166,0.92494 -0.799487,0.86488 -0.864881,0.79949 -0.924942,0.72916 -0.979301,0.65435 -1.027621,0.5755 -1.069606,0.49309 -1.104996,0.40766 -1.133575,0.3197 -1.155163,0.22978 -1.1696308,0.13843 -1.176886,0.0462 -1.176886,-0.0462 -1.169631,-0.13843 -1.155163,-0.22978 -1.133575,-0.3197 -1.104996,-0.40766 -1.069606,-0.49309 -1.027621,-0.5755 -0.979301,-0.65435 -0.924942,-0.72916 -0.864881,-0.79949 -0.799487,-0.86488 -0.729166,-0.92494 -0.654347,-0.9793 -0.575496,-1.02762 -0.493095,-1.06961 -0.407655,-1.105 -0.319701,-1.13357 -0.229776,-1.15516 -0.138435,-1.16967 -0.04624,-1.17689 0.04624,-1.17689 0.138435,-1.16963 0.229776,-1.15516 0.319701,-1.13357 0.407655,-1.105 0.493095,-1.06961 0.575496,-1.02762 0.654347,-0.9793 0.729166,-0.92494 0.799487,-0.86488 0.864881,-0.79949 0.924942,-0.72916 0.979301,-0.65435 1.027621,-0.5755 1.069606,-0.49309 1.104996,-0.40766 1.133575,-0.3197 1.155163,-0.22978 1.169631,-0.13843 1.176886,-0.0462 1.176886,0.0462 1.1696308,0.13843 1.155163,0.22978 1.133575,0.3197 1.104996,0.40766 1.069606,0.49309 1.027621,0.5755 0.979301,0.65435 0.924942,0.72916 0.864881,0.79949 0.799487,0.86488 0.729166,0.92494 0.654347,0.9793 0.575496,1.02762 0.493095,1.06961 0.407655,1.105 0.319701,1.13357 0.229776,1.15516 0.138435,1.16963 z"
       fill-opacity="1"
       id="path104"
       style="fill:#a07be9;fill-opacity:1" />
    <text
       fill="#000000"
       stroke="none"
       font-family="'Helvetica Neue', Helvetica, sans-serif"
       font-size="8px"
       font-style="normal"
       font-weight="normal"
       text-decoration="normal"
       x="-11.383107"
       y="321.61542"
       text-anchor="middle"
       dominant-baseline="text-after-edge"
       fill-opacity="1"
       id="text106"
       style="font-size:12.863px">l_ribulose</text>
    <path
       fill="#50e281"
       stroke="none"
       paint-order="stroke fill markers"
       d="m 173.29693,496.61542 -0.0462,1.17689 -0.13843,1.16963 -0.22978,1.15516 -0.3197,1.13357 -0.40766,1.105 -0.49309,1.06961 -0.5755,1.02762 -0.65435,0.9793 -0.72916,0.92494 -0.79949,0.86488 -0.86488,0.79949 -0.92494,0.72916 -0.9793,0.65435 -1.02762,0.5755 -1.06961,0.49309 -1.105,0.40766 -1.13357,0.3197 -1.15516,0.22978 -1.16963,0.13843 -1.17693,0.0462 -1.17689,-0.0462 -1.16963,-0.13843 -1.15516,-0.22978 -1.13357,-0.3197 -1.105,-0.40766 -1.06961,-0.49309 -1.02762,-0.5755 -0.9793,-0.65435 -0.92494,-0.72916 -0.86488,-0.79949 -0.79949,-0.86488 -0.72916,-0.92494 -0.65435,-0.9793 -0.5755,-1.02762 -0.49309,-1.06961 -0.40766,-1.105 -0.3197,-1.13357 -0.22978,-1.15516 -0.13843,-1.16963 -0.0462,-1.17693 0.0462,-1.17689 0.13843,-1.16963 0.22978,-1.15516 0.3197,-1.13357 0.40766,-1.105 0.49309,-1.06961 0.5755,-1.02762 0.65435,-0.9793 0.72916,-0.92494 0.79949,-0.86488 0.86488,-0.79949 0.92494,-0.72916 0.9793,-0.65435 1.02762,-0.5755 1.06961,-0.49309 1.105,-0.40766 1.13357,-0.3197 1.15516,-0.22978 1.16963,-0.13843 1.17693,-0.0462 1.17689,0.0462 1.16963,0.13843 1.15516,0.22978 1.13357,0.3197 1.105,0.40766 1.06961,0.49309 1.02762,0.5755 0.9793,0.65435 0.92494,0.72916 0.86488,0.79949 0.79949,0.86488 0.72916,0.92494 0.65435,0.9793 0.5755,1.02762 0.49309,1.06961 0.40766,1.105 0.3197,1.13357 0.22978,1.15516 0.13843,1.16963 z"
       fill-opacity="1"
       id="path108"
       style="fill:#a07be9;fill-opacity:1" />
    <text
       fill="#000000"
       stroke="none"
       font-family="'Helvetica Neue', Helvetica, sans-serif"
       font-size="8px"
       font-style="normal"
       font-weight="normal"
       text-decoration="normal"
       x="158.29707"
       y="481.61542"
       text-anchor="middle"
       dominant-baseline="text-after-edge"
       fill-opacity="1"
       id="text110"
       style="font-size:12.863px">hydrogen</text>
    <path
       fill="#50e281"
       stroke="none"
       paint-order="stroke fill markers"
       d="m 3.6168928,496.61542 -0.04624,1.17689 -0.138435,1.16963 -0.229776,1.15516 -0.319701,1.13357 -0.407655,1.105 -0.493095,1.06961 -0.575496,1.02762 -0.654347,0.9793 -0.729166,0.92494 -0.799487,0.86488 -0.864881,0.79949 -0.924942,0.72916 -0.979301,0.65435 -1.027621,0.5755 -1.069606,0.49309 -1.104996,0.40766 -1.133575,0.3197 -1.155163,0.22978 -1.1696308,0.13843 -1.176886,0.0462 -1.176886,-0.0462 -1.169631,-0.13843 -1.155163,-0.22978 -1.133575,-0.3197 -1.104996,-0.40766 -1.069606,-0.49309 -1.027621,-0.5755 -0.979301,-0.65435 -0.924942,-0.72916 -0.864881,-0.79949 -0.799487,-0.86488 -0.729166,-0.92494 -0.654347,-0.9793 -0.575496,-1.02762 -0.493095,-1.06961 -0.407655,-1.105 -0.319701,-1.13357 -0.229776,-1.15516 -0.138435,-1.16967 -0.04624,-1.17689 0.04624,-1.17689 0.138435,-1.16963 0.229776,-1.15516 0.319701,-1.13357 0.407655,-1.105 0.493095,-1.06961 0.575496,-1.02762 0.654347,-0.9793 0.729166,-0.92494 0.799487,-0.86488 0.864881,-0.79949 0.924942,-0.72916 0.979301,-0.65435 1.027621,-0.5755 1.069606,-0.49309 1.104996,-0.40766 1.133575,-0.3197 1.155163,-0.22978 1.169631,-0.13843 1.176886,-0.0462 1.176886,0.0462 1.1696308,0.13843 1.155163,0.22978 1.133575,0.3197 1.104996,0.40766 1.069606,0.49309 1.027621,0.5755 0.979301,0.65435 0.924942,0.72916 0.864881,0.79949 0.799487,0.86488 0.729166,0.92494 0.654347,0.9793 0.575496,1.02762 0.493095,1.06961 0.407655,1.105 0.319701,1.13357 0.229776,1.15516 0.138435,1.16963 z"
       fill-opacity="1"
       id="path112"
       style="fill:#a07be9;fill-opacity:1" />
    <text
       fill="#000000"
       stroke="none"
       font-family="'Helvetica Neue', Helvetica, sans-serif"
       font-size="8px"
       font-style="normal"
       font-weight="normal"
       text-decoration="normal"
       x="-11.383107"
       y="481.61542"
       text-anchor="middle"
       dominant-baseline="text-after-edge"
       fill-opacity="1"
       id="text114"
       style="font-size:12.863px">ADP</text>
    <path
       fill="#50e281"
       stroke="none"
       paint-order="stroke fill markers"
       d="m 83.616893,496.61542 -0.0462,1.17689 -0.13843,1.16963 -0.22978,1.15516 -0.3197,1.13357 -0.40766,1.105 -0.49309,1.06961 -0.5755,1.02762 -0.65435,0.9793 -0.72916,0.92494 -0.79949,0.86488 -0.86488,0.79949 -0.92494,0.72916 -0.9793,0.65435 -1.02762,0.5755 -1.06961,0.49309 -1.105,0.40766 -1.13357,0.3197 -1.15516,0.22978 -1.16963,0.13843 -1.17693,0.0462 -1.17689,-0.0462 -1.16963,-0.13843 -1.15516,-0.22978 -1.13357,-0.3197 -1.105,-0.40766 -1.06961,-0.49309 -1.02762,-0.5755 -0.9793,-0.65435 -0.92494,-0.72916 -0.86488,-0.79949 -0.79949,-0.86488 -0.72916,-0.92494 -0.65435,-0.9793 -0.5755,-1.02762 -0.49309,-1.06961 -0.40766,-1.105 -0.3197,-1.13357 -0.22978,-1.15516 -0.13843,-1.16963 -0.04624,-1.17693 0.0462,-1.17689 0.13843,-1.16963 0.22978,-1.15516 0.3197,-1.13357 0.40766,-1.105 0.49309,-1.06961 0.5755,-1.02762 0.65435,-0.9793 0.72916,-0.92494 0.79949,-0.86488 0.86488,-0.79949 0.92494,-0.72916 0.9793,-0.65435 1.02762,-0.5755 1.06961,-0.49309 1.105,-0.40766 1.13357,-0.3197 1.15516,-0.22978 1.16963,-0.13843 1.17693,-0.0462 1.17689,0.0462 1.16963,0.13843 1.15516,0.22978 1.13357,0.3197 1.105,0.40766 1.06961,0.49309 1.02762,0.5755 0.9793,0.65435 0.92494,0.72916 0.86488,0.79949 0.79949,0.86488 0.72916,0.92494 0.65435,0.9793 0.5755,1.02762 0.49309,1.06961 0.40766,1.105 0.3197,1.13357 0.22978,1.15516 0.13843,1.16963 z"
       fill-opacity="1"
       id="path116"
       style="fill:#a07be9;fill-opacity:1" />
    <text
       fill="#000000"
       stroke="none"
       font-family="'Helvetica Neue', Helvetica, sans-serif"
       font-size="8px"
       font-style="normal"
       font-weight="normal"
       text-decoration="normal"
       x="68.61689"
       y="481.61542"
       text-anchor="middle"
       dominant-baseline="text-after-edge"
       fill-opacity="1"
       id="text118"
       style="font-size:12.863px">rib5p</text>
    <path
       fill="#50e281"
       stroke="none"
       paint-order="stroke fill markers"
       d="m 83.616893,336.61542 -0.0462,1.17689 -0.13843,1.16963 -0.22978,1.15516 -0.3197,1.13357 -0.40766,1.105 -0.49309,1.06961 -0.5755,1.02762 -0.65435,0.9793 -0.72916,0.92494 -0.79949,0.86488 -0.86488,0.79949 -0.92494,0.72916 -0.9793,0.65435 -1.02762,0.5755 -1.06961,0.49309 -1.105,0.40766 -1.13357,0.3197 -1.15516,0.22978 -1.16963,0.13843 -1.17693,0.0462 -1.17689,-0.0462 -1.16963,-0.13843 -1.15516,-0.22978 -1.13357,-0.3197 -1.105,-0.40766 -1.06961,-0.49309 -1.02762,-0.5755 -0.9793,-0.65435 -0.92494,-0.72916 -0.86488,-0.79949 -0.79949,-0.86488 -0.72916,-0.92494 -0.65435,-0.9793 -0.5755,-1.02762 -0.49309,-1.06961 -0.40766,-1.105 -0.3197,-1.13357 -0.22978,-1.15516 -0.13843,-1.16963 -0.04624,-1.17693 0.0462,-1.17689 0.13843,-1.16963 0.22978,-1.15516 0.3197,-1.13357 0.40766,-1.105 0.49309,-1.06961 0.5755,-1.02762 0.65435,-0.9793 0.72916,-0.92494 0.79949,-0.86488 0.86488,-0.79949 0.92494,-0.72916 0.9793,-0.65435 1.02762,-0.5755 1.06961,-0.49309 1.105,-0.40766 1.13357,-0.3197 1.15516,-0.22978 1.16963,-0.13843 1.17693,-0.0462 1.17689,0.0462 1.16963,0.13843 1.15516,0.22978 1.13357,0.3197 1.105,0.40766 1.06961,0.49309 1.02762,0.5755 0.9793,0.65435 0.92494,0.72916 0.86488,0.79949 0.79949,0.86488 0.72916,0.92494 0.65435,0.9793 0.5755,1.02762 0.49309,1.06961 0.40766,1.105 0.3197,1.13357 0.22978,1.15516 0.13843,1.16963 z"
       fill-opacity="1"
       id="path120"
       style="fill:#a07be9;fill-opacity:1" />
    <text
       fill="#000000"
       stroke="none"
       font-family="'Helvetica Neue', Helvetica, sans-serif"
       font-size="8px"
       font-style="normal"
       font-weight="normal"
       text-decoration="normal"
       x="68.61689"
       y="321.61542"
       text-anchor="middle"
       dominant-baseline="text-after-edge"
       fill-opacity="1"
       id="text122"
       style="font-size:12.863px">ATP</text>
    <path
       fill="#8150e2"
       stroke="none"
       paint-order="stroke fill markers"
       d="m 171.91591,336.61542 -0.0462,1.17689 -0.13844,1.16963 -0.22978,1.15516 -0.3197,1.13357 -0.40765,1.105 -0.4931,1.06961 -0.57549,1.02762 -0.65435,0.9793 -0.72916,0.92494 -0.79949,0.86488 -0.86488,0.79949 -0.92495,0.72916 -0.9793,0.65435 -1.02762,0.5755 -1.0696,0.49309 -1.105,0.40766 -1.13357,0.3197 -1.15517,0.22978 -1.16963,0.13843 -1.17688,0.0462 -1.17689,-0.0462 -1.16963,-0.13843 -1.15516,-0.22978 -1.13358,-0.3197 -1.105,-0.40766 -1.0696,-0.49309 -1.02762,-0.5755 -0.9793,-0.65435 -0.92494,-0.72916 -0.86489,-0.79949 -0.79948,-0.86488 -0.72917,-0.92494 -0.65435,-0.9793 -0.57549,-1.02762 -0.4931,-1.06961 -0.40765,-1.105 -0.3197,-1.13357 -0.22978,-1.15516 -0.13843,-1.16963 -0.0462,-1.17689 0.0462,-1.17689 0.13843,-1.16963 0.22978,-1.15516 0.3197,-1.13357 0.40765,-1.105 0.4931,-1.06961 0.57549,-1.02762 0.65435,-0.9793 0.72917,-0.92494 0.79948,-0.86488 0.86489,-0.79949 0.92494,-0.72916 0.9793,-0.65435 1.02762,-0.5755 1.0696,-0.49309 1.105,-0.40766 1.13358,-0.3197 1.15516,-0.22978 1.16963,-0.13843 1.17689,-0.0462 1.17688,0.0462 1.16963,0.13843 1.15517,0.22978 1.13357,0.3197 1.105,0.40766 1.0696,0.49309 1.02762,0.5755 0.9793,0.65435 0.92495,0.72916 0.86488,0.79949 0.79949,0.86488 0.72916,0.92494 0.65435,0.9793 0.57549,1.02762 0.4931,1.06961 0.40765,1.105 0.3197,1.13357 0.22978,1.15516 0.13844,1.16963 z"
       fill-opacity="1"
       id="path124"
       style="fill:#fa8072;fill-opacity:1" />
    <text
       fill="#000000"
       stroke="none"
       font-family="'Helvetica Neue', Helvetica, sans-serif"
       font-size="8px"
       font-style="normal"
       font-weight="normal"
       text-decoration="normal"
       x="156.91591"
       y="321.61542"
       text-anchor="middle"
       dominant-baseline="text-after-edge"
       fill-opacity="1"
       id="text126"
       style="font-size:12.863px">ribulokinase</text>
    <path
       fill="#50e281"
       stroke="none"
       paint-order="stroke fill markers"
       d="m 203.61689,656.61542 -0.0462,1.17689 -0.13843,1.16963 -0.22978,1.15516 -0.3197,1.13357 -0.40766,1.105 -0.49309,1.06961 -0.5755,1.02762 -0.65435,0.9793 -0.72916,0.92494 -0.79949,0.86488 -0.86488,0.79949 -0.92494,0.72916 -0.9793,0.65435 -1.02762,0.5755 -1.06961,0.49309 -1.105,0.40766 -1.13357,0.3197 -1.15516,0.22978 -1.16963,0.13843 -1.17693,0.0462 -1.17689,-0.0462 -1.16963,-0.13843 -1.15516,-0.22978 -1.13357,-0.3197 -1.105,-0.40766 -1.06961,-0.49309 -1.02762,-0.5755 -0.9793,-0.65435 -0.92494,-0.72916 -0.86488,-0.79949 -0.79949,-0.86488 -0.72916,-0.92494 -0.65435,-0.9793 -0.5755,-1.02762 -0.49309,-1.06961 -0.40766,-1.105 -0.3197,-1.13357 -0.22978,-1.15516 -0.13843,-1.16963 -0.0462,-1.17693 0.0462,-1.17689 0.13843,-1.16963 0.22978,-1.15516 0.3197,-1.13357 0.40766,-1.105 0.49309,-1.06961 0.5755,-1.02762 0.65435,-0.9793 0.72916,-0.92494 0.79949,-0.86488 0.86488,-0.79949 0.92494,-0.72916 0.9793,-0.65435 1.02762,-0.5755 1.06961,-0.49309 1.105,-0.40766 1.13357,-0.3197 1.15516,-0.22978 1.16963,-0.13843 1.17693,-0.0462 1.17689,0.0462 1.16963,0.13843 1.15516,0.22978 1.13357,0.3197 1.105,0.40766 1.06961,0.49309 1.02762,0.5755 0.9793,0.65435 0.92494,0.72916 0.86488,0.79949 0.79949,0.86488 0.72916,0.92494 0.65435,0.9793 0.5755,1.02762 0.49309,1.06961 0.40766,1.105 0.3197,1.13357 0.22978,1.15516 0.13843,1.16963 z"
       fill-opacity="1"
       id="path128"
       style="fill:#a07be9;fill-opacity:1" />
    <text
       fill="#000000"
       stroke="none"
       font-family="'Helvetica Neue', Helvetica, sans-serif"
       font-size="8px"
       font-style="normal"
       font-weight="normal"
       text-decoration="normal"
       x="188.6169"
       y="641.61542"
       text-anchor="middle"
       dominant-baseline="text-after-edge"
       fill-opacity="1"
       id="text130"
       style="font-size:12.863px">Xyl5p</text>
    <path
       fill="#50e281"
       stroke="none"
       paint-order="stroke fill markers"
       d="m 46.402693,175.92627 -0.0462,1.17688 -0.13843,1.16964 -0.22978,1.15516 -0.3197,1.13357 -0.40766,1.105 -0.49309,1.06961 -0.5755,1.02762 -0.65434,0.9793 -0.72917,0.92494 -0.79949,0.86488 -0.86488,0.79949 -0.92494,0.72916 -0.9793,0.65435 -1.02762,0.5755 -1.06961,0.49309 -1.10499,0.40766 -1.13358,0.3197 -1.15516,0.22977 -1.169632,0.13844 -1.176887,0.0462 -1.176886,-0.0462 -1.169631,-0.13844 -1.155163,-0.22977 -1.133575,-0.3197 -1.104996,-0.40766 -1.069606,-0.49309 -1.027621,-0.5755 -0.9793,-0.65435 -0.924942,-0.72916 -0.864881,-0.79949 -0.799488,-0.86488 -0.729166,-0.92494 -0.654347,-0.9793 -0.575496,-1.02762 -0.493095,-1.06961 -0.407654,-1.105 -0.319701,-1.13357 -0.229777,-1.15516 -0.138435,-1.16964 -0.04624,-1.17688 0.04624,-1.17689 0.138435,-1.16963 0.229777,-1.15516 0.319701,-1.13358 0.407654,-1.10499 0.493095,-1.06961 0.575496,-1.02762 0.654347,-0.9793 0.729166,-0.92494 0.799488,-0.86488 0.864881,-0.79949 0.924942,-0.72917 0.9793,-0.65434 1.027621,-0.5755 1.069606,-0.49309 1.104996,-0.40766 1.133575,-0.3197 1.155163,-0.22978 1.169631,-0.13843 1.176886,-0.0462 1.176887,0.0462 1.169632,0.13843 1.15516,0.22978 1.13358,0.3197 1.10499,0.40766 1.06961,0.49309 1.02762,0.5755 0.9793,0.65434 0.92494,0.72917 0.86488,0.79949 0.79949,0.86488 0.72917,0.92494 0.65434,0.9793 0.5755,1.02762 0.49309,1.06961 0.40766,1.10499 0.3197,1.13358 0.22978,1.15516 0.13843,1.16963 z"
       fill-opacity="1"
       id="path132"
       style="fill:#a07be9;fill-opacity:1" />
    <text
       fill="#000000"
       stroke="none"
       font-family="'Helvetica Neue', Helvetica, sans-serif"
       font-size="8px"
       font-style="normal"
       font-weight="normal"
       text-decoration="normal"
       x="39.671764"
       y="160.92627"
       text-anchor="middle"
       dominant-baseline="text-after-edge"
       fill-opacity="1"
       id="text134"
       style="font-size:12.863px">l_arabinose</text>
    <path
       fill="#8150e2"
       stroke="none"
       paint-order="stroke fill markers"
       d="m 321.52024,497.99372 -0.0462,1.17689 -0.13843,1.16963 -0.22978,1.15516 -0.3197,1.13358 -0.40766,1.105 -0.49309,1.0696 -0.5755,1.02762 -0.65434,0.9793 -0.72917,0.92494 -0.79949,0.86489 -0.86488,0.79948 -0.92494,0.72917 -0.9793,0.65435 -1.02762,0.57549 -1.06961,0.4931 -1.10499,0.40765 -1.13358,0.3197 -1.15516,0.22978 -1.16963,0.13843 -1.17689,0.0462 -1.17689,-0.0462 -1.16963,-0.13843 -1.15516,-0.22978 -1.13357,-0.3197 -1.105,-0.40765 -1.06961,-0.4931 -1.02762,-0.57549 -0.9793,-0.65435 -0.92494,-0.72917 -0.86488,-0.79948 -0.79949,-0.86489 -0.72916,-0.92494 -0.65435,-0.9793 -0.5755,-1.02762 -0.49309,-1.0696 -0.40766,-1.105 -0.3197,-1.13358 -0.22977,-1.15516 -0.13844,-1.16963 -0.0462,-1.17689 0.0462,-1.17688 0.13844,-1.16963 0.22977,-1.15517 0.3197,-1.13357 0.40766,-1.105 0.49309,-1.0696 0.5755,-1.02762 0.65435,-0.97931 0.72916,-0.92494 0.79949,-0.86488 0.86488,-0.79949 0.92494,-0.72916 0.9793,-0.65435 1.02762,-0.57549 1.06961,-0.4931 1.105,-0.40765 1.13357,-0.31971 1.15516,-0.22977 1.16963,-0.13844 1.17689,-0.0462 1.17689,0.0462 1.16963,0.13844 1.15516,0.22977 1.13358,0.31971 1.10499,0.40765 1.06961,0.4931 1.02762,0.57549 0.9793,0.65435 0.92494,0.72916 0.86488,0.79949 0.79949,0.86488 0.72917,0.92494 0.65434,0.97931 0.5755,1.02762 0.49309,1.0696 0.40766,1.105 0.3197,1.13357 0.22978,1.15517 0.13843,1.16963 z"
       fill-opacity="1"
       id="path136"
       style="fill:#fa8072;fill-opacity:1" />
    <text
       fill="#000000"
       stroke="none"
       font-family="'Helvetica Neue', Helvetica, sans-serif"
       font-size="8px"
       font-style="normal"
       font-weight="normal"
       text-decoration="normal"
       x="306.52023"
       y="482.99371"
       text-anchor="middle"
       dominant-baseline="text-after-edge"
       fill-opacity="1"
       id="text138"
       style="font-size:12.863px">rib5p_4_epimerase</text>
    <path
       fill="#c06335"
       stroke="none"
       paint-order="stroke fill markers"
       d="m -36.383107,96.615421 -0.04624,1.176886 -0.138435,1.169631 -0.229776,1.155162 -0.319701,1.13358 -0.407655,1.10499 -0.493095,1.06961 -0.575496,1.02762 -0.654347,0.9793 -0.729166,0.92494 -0.799487,0.86488 -0.864881,0.79949 -0.924942,0.72916 -0.979301,0.65435 -1.027621,0.5755 -1.069606,0.49309 -1.104996,0.40766 -1.133575,0.3197 -1.155163,0.22978 -1.169631,0.13843 -1.176886,0.0462 -1.176886,-0.0462 -1.169631,-0.13843 -1.155163,-0.22978 -1.133575,-0.3197 -1.104997,-0.40766 -1.069606,-0.49309 -1.027621,-0.5755 -0.9793,-0.65435 -0.924942,-0.72916 -0.864881,-0.79949 -0.799488,-0.86488 -0.729165,-0.92494 -0.654348,-0.9793 -0.575495,-1.02766 -0.493095,-1.06961 -0.407655,-1.10499 -0.319701,-1.13358 -0.229776,-1.155162 -0.138435,-1.169631 -0.04624,-1.176886 0.04624,-1.176886 0.138435,-1.169631 0.229776,-1.155163 0.319701,-1.133575 0.407655,-1.104996 0.493095,-1.069606 0.575495,-1.027621 0.654348,-0.979301 0.729165,-0.924942 0.799488,-0.864881 0.864881,-0.799487 0.924942,-0.729166 0.9793,-0.654347 1.027621,-0.575496 1.069606,-0.493095 1.104997,-0.407655 1.133575,-0.319701 1.155163,-0.229776 1.169631,-0.138435 1.176886,-0.04624 1.176886,0.04624 1.169631,0.138435 1.155163,0.229776 1.133575,0.319701 1.104996,0.407655 1.069606,0.493095 1.027621,0.575496 0.979301,0.654347 0.924942,0.729166 0.864881,0.799487 0.799487,0.864881 0.729166,0.924942 0.654347,0.979301 0.575496,1.027621 0.493095,1.069606 0.407655,1.104996 0.319701,1.133575 0.229776,1.155163 0.138435,1.169631 z"
       fill-opacity="1"
       id="path140"
       style="fill:#67ecfd;fill-opacity:1" />
    <path
       fill="#8d5235"
       stroke="none"
       paint-order="stroke fill markers"
       d="m 83.616893,416.61542 -0.0462,1.17689 -0.13843,1.16963 -0.22978,1.15516 -0.3197,1.13357 -0.40766,1.105 -0.49309,1.06961 -0.5755,1.02762 -0.65435,0.9793 -0.72916,0.92494 -0.79949,0.86488 -0.86488,0.79949 -0.92494,0.72916 -0.9793,0.65435 -1.02762,0.5755 -1.06961,0.49309 -1.105,0.40766 -1.13357,0.3197 -1.15516,0.22978 -1.16963,0.13843 -1.17693,0.0462 -1.17689,-0.0462 -1.16963,-0.13843 -1.15516,-0.22978 -1.13357,-0.3197 -1.105,-0.40766 -1.06961,-0.49309 -1.02762,-0.5755 -0.9793,-0.65435 -0.92494,-0.72916 -0.86488,-0.79949 -0.79949,-0.86488 -0.72916,-0.92494 -0.65435,-0.9793 -0.5755,-1.02762 -0.49309,-1.06961 -0.40766,-1.105 -0.3197,-1.13357 -0.22978,-1.15516 -0.13843,-1.16963 -0.04624,-1.17693 0.0462,-1.17689 0.13843,-1.16963 0.22978,-1.15516 0.3197,-1.13357 0.40766,-1.105 0.49309,-1.06961 0.5755,-1.02762 0.65435,-0.9793 0.72916,-0.92494 0.79949,-0.86488 0.86488,-0.79949 0.92494,-0.72916 0.9793,-0.65435 1.02762,-0.5755 1.06961,-0.49309 1.105,-0.40766 1.13357,-0.3197 1.15516,-0.22978 1.16963,-0.13843 1.17693,-0.0462 1.17689,0.0462 1.16963,0.13843 1.15516,0.22978 1.13357,0.3197 1.105,0.40766 1.06961,0.49309 1.02762,0.5755 0.9793,0.65435 0.92494,0.72916 0.86488,0.79949 0.79949,0.86488 0.72916,0.92494 0.65435,0.9793 0.5755,1.02762 0.49309,1.06961 0.40766,1.105 0.3197,1.13357 0.22978,1.15516 0.13843,1.16963 z"
       fill-opacity="1"
       id="path144"
       style="fill:#50e281;fill-opacity:1" />
    <path
       fill="#684331"
       stroke="none"
       paint-order="stroke fill markers"
       d="m 203.61689,736.61542 -0.0462,1.17689 -0.13843,1.16963 -0.22978,1.15516 -0.3197,1.13357 -0.40766,1.105 -0.49309,1.06961 -0.5755,1.02762 -0.65435,0.9793 -0.72916,0.92494 -0.79949,0.86488 -0.86488,0.79949 -0.92494,0.72916 -0.9793,0.65435 -1.02762,0.5755 -1.06961,0.49309 -1.105,0.40766 -1.13357,0.3197 -1.15516,0.22978 -1.16963,0.13843 -1.17693,0.0462 -1.17689,-0.0462 -1.16963,-0.13843 -1.15516,-0.22978 -1.13357,-0.3197 -1.105,-0.40766 -1.06961,-0.49309 -1.02762,-0.5755 -0.9793,-0.65435 -0.92494,-0.72916 -0.86488,-0.79949 -0.79949,-0.86488 -0.72916,-0.92494 -0.65435,-0.9793 -0.5755,-1.02762 -0.49309,-1.06961 -0.40766,-1.105 -0.3197,-1.13357 -0.22978,-1.15516 -0.13843,-1.16963 -0.0462,-1.17693 0.0462,-1.17689 0.13843,-1.16963 0.22978,-1.15516 0.3197,-1.13357 0.40766,-1.105 0.49309,-1.06961 0.5755,-1.02762 0.65435,-0.9793 0.72916,-0.92494 0.79949,-0.86488 0.86488,-0.79949 0.92494,-0.72916 0.9793,-0.65435 1.02762,-0.5755 1.06961,-0.49309 1.105,-0.40766 1.13357,-0.3197 1.15516,-0.22978 1.16963,-0.13843 1.17693,-0.0462 1.17689,0.0462 1.16963,0.13843 1.15516,0.22978 1.13357,0.3197 1.105,0.40766 1.06961,0.49309 1.02762,0.5755 0.9793,0.65435 0.92494,0.72916 0.86488,0.79949 0.79949,0.86488 0.72916,0.92494 0.65435,0.9793 0.5755,1.02762 0.49309,1.06961 0.40766,1.105 0.3197,1.13357 0.22978,1.15516 0.13843,1.16963 z"
       fill-opacity="1"
       id="path148"
       style="fill:#e97be9;fill-opacity:1" />
    <path
       fill="#8d5235"
       stroke="none"
       paint-order="stroke fill markers"
       d="m 3.6168928,256.61542 -0.04624,1.17689 -0.138435,1.16963 -0.229776,1.15516 -0.319701,1.13357 -0.407655,1.105 -0.493095,1.06961 -0.575496,1.02762 -0.654347,0.9793 -0.729166,0.92494 -0.799487,0.86488 -0.864881,0.79949 -0.924942,0.72916 -0.979301,0.65435 -1.027621,0.5755 -1.069606,0.49309 -1.104996,0.40766 -1.133575,0.3197 -1.155163,0.22978 -1.1696308,0.13843 -1.176886,0.0462 -1.176886,-0.0462 -1.169631,-0.13843 -1.155163,-0.22978 -1.133575,-0.3197 -1.104996,-0.40766 -1.069606,-0.49309 -1.027621,-0.5755 -0.979301,-0.65435 -0.924942,-0.72916 -0.864881,-0.79949 -0.799487,-0.86488 -0.729166,-0.92494 -0.654347,-0.9793 -0.575496,-1.02762 -0.493095,-1.06961 -0.407655,-1.105 -0.319701,-1.13357 -0.229776,-1.15516 -0.138435,-1.16967 -0.04624,-1.17689 0.04624,-1.17689 0.138435,-1.16963 0.229776,-1.15516 0.319701,-1.13357 0.407655,-1.105 0.493095,-1.06961 0.575496,-1.02762 0.654347,-0.9793 0.729166,-0.92494 0.799487,-0.86488 0.864881,-0.79949 0.924942,-0.72916 0.979301,-0.65435 1.027621,-0.5755 1.069606,-0.49309 1.104996,-0.40766 1.133575,-0.3197 1.155163,-0.22978 1.169631,-0.13843 1.176886,-0.0462 1.176886,0.0462 1.1696308,0.13843 1.155163,0.22978 1.133575,0.3197 1.104996,0.40766 1.069606,0.49309 1.027621,0.5755 0.979301,0.65435 0.924942,0.72916 0.864881,0.79949 0.799487,0.86488 0.729166,0.92494 0.654347,0.9793 0.575496,1.02762 0.493095,1.06961 0.407655,1.105 0.319701,1.13357 0.229776,1.15516 0.138435,1.16963 z"
       fill-opacity="1"
       id="path152"
       style="fill:#50e281;fill-opacity:1" />
    <path
       fill="#c06335"
       stroke="none"
       paint-order="stroke fill markers"
       d="m 171.91591,256.61542 -0.0462,1.17689 -0.13844,1.16963 -0.22978,1.15516 -0.3197,1.13357 -0.40765,1.105 -0.4931,1.06961 -0.57549,1.02762 -0.65435,0.9793 -0.72916,0.92494 -0.79949,0.86488 -0.86488,0.79949 -0.92495,0.72916 -0.9793,0.65435 -1.02762,0.5755 -1.0696,0.49309 -1.105,0.40766 -1.13357,0.3197 -1.15517,0.22978 -1.16963,0.13843 -1.17688,0.0462 -1.17689,-0.0462 -1.16963,-0.13843 -1.15516,-0.22978 -1.13358,-0.3197 -1.105,-0.40766 -1.0696,-0.49309 -1.02762,-0.5755 -0.9793,-0.65435 -0.92494,-0.72916 -0.86489,-0.79949 -0.79948,-0.86488 -0.72917,-0.92494 -0.65435,-0.9793 -0.57549,-1.02762 -0.4931,-1.06961 -0.40765,-1.105 -0.3197,-1.13357 -0.22978,-1.15516 -0.13843,-1.16963 -0.0462,-1.17689 0.0462,-1.17689 0.13843,-1.16963 0.22978,-1.15516 0.3197,-1.13357 0.40765,-1.105 0.4931,-1.06961 0.57549,-1.02762 0.65435,-0.9793 0.72917,-0.92494 0.79948,-0.86488 0.86489,-0.79949 0.92494,-0.72916 0.9793,-0.65435 1.02762,-0.5755 1.0696,-0.49309 1.105,-0.40766 1.13358,-0.3197 1.15516,-0.22978 1.16963,-0.13843 1.17689,-0.0462 1.17688,0.0462 1.16963,0.13843 1.15517,0.22978 1.13357,0.3197 1.105,0.40766 1.0696,0.49309 1.02762,0.5755 0.9793,0.65435 0.92495,0.72916 0.86488,0.79949 0.79949,0.86488 0.72916,0.92494 0.65435,0.9793 0.57549,1.02762 0.4931,1.06961 0.40765,1.105 0.3197,1.13357 0.22978,1.15516 0.13844,1.16963 z"
       fill-opacity="1"
       id="path156"
       style="fill:#67ecfd;fill-opacity:1" />
    <path
       fill="#c06335"
       stroke="none"
       paint-order="stroke fill markers"
       d="m 321.52024,417.99372 -0.0462,1.17689 -0.13843,1.16963 -0.22978,1.15516 -0.3197,1.13358 -0.40766,1.105 -0.49309,1.0696 -0.5755,1.02762 -0.65434,0.9793 -0.72917,0.92494 -0.79949,0.86489 -0.86488,0.79948 -0.92494,0.72917 -0.9793,0.65435 -1.02762,0.57549 -1.06961,0.4931 -1.10499,0.40765 -1.13358,0.3197 -1.15516,0.22978 -1.16963,0.13843 -1.17689,0.0462 -1.17689,-0.0462 -1.16963,-0.13843 -1.15516,-0.22978 -1.13357,-0.3197 -1.105,-0.40765 -1.06961,-0.4931 -1.02762,-0.57549 -0.9793,-0.65435 -0.92494,-0.72917 -0.86488,-0.79948 -0.79949,-0.86489 -0.72916,-0.92494 -0.65435,-0.9793 -0.5755,-1.02762 -0.49309,-1.0696 -0.40766,-1.105 -0.3197,-1.13358 -0.22977,-1.15516 -0.13844,-1.16963 -0.0462,-1.17689 0.0462,-1.17688 0.13844,-1.16963 0.22977,-1.15517 0.3197,-1.13357 0.40766,-1.105 0.49309,-1.0696 0.5755,-1.02762 0.65435,-0.97931 0.72916,-0.92494 0.79949,-0.86488 0.86488,-0.79949 0.92494,-0.72916 0.9793,-0.65435 1.02762,-0.57549 1.06961,-0.4931 1.105,-0.40765 1.13357,-0.31971 1.15516,-0.22977 1.16963,-0.13844 1.17689,-0.0462 1.17689,0.0462 1.16963,0.13844 1.15516,0.22977 1.13358,0.31971 1.10499,0.40765 1.06961,0.4931 1.02762,0.57549 0.9793,0.65435 0.92494,0.72916 0.86488,0.79949 0.79949,0.86488 0.72917,0.92494 0.65434,0.97931 0.5755,1.02762 0.49309,1.0696 0.40766,1.105 0.3197,1.13357 0.22978,1.15517 0.13843,1.16963 z"
       fill-opacity="1"
       id="path160"
       style="fill:#67ecfd;fill-opacity:1" />
    <path
       fill="#8d5235"
       stroke="none"
       paint-order="stroke fill markers"
       d="m 203.61689,576.61542 -0.0462,1.17689 -0.13843,1.16963 -0.22978,1.15516 -0.3197,1.13357 -0.40766,1.105 -0.49309,1.06961 -0.5755,1.02762 -0.65435,0.9793 -0.72916,0.92494 -0.79949,0.86488 -0.86488,0.79949 -0.92494,0.72916 -0.9793,0.65435 -1.02762,0.5755 -1.06961,0.49309 -1.105,0.40766 -1.13357,0.3197 -1.15516,0.22978 -1.16963,0.13843 -1.17693,0.0462 -1.17689,-0.0462 -1.16963,-0.13843 -1.15516,-0.22978 -1.13357,-0.3197 -1.105,-0.40766 -1.06961,-0.49309 -1.02762,-0.5755 -0.9793,-0.65435 -0.92494,-0.72916 -0.86488,-0.79949 -0.79949,-0.86488 -0.72916,-0.92494 -0.65435,-0.9793 -0.5755,-1.02762 -0.49309,-1.06961 -0.40766,-1.105 -0.3197,-1.13357 -0.22978,-1.15516 -0.13843,-1.16963 -0.0462,-1.17693 0.0462,-1.17689 0.13843,-1.16963 0.22978,-1.15516 0.3197,-1.13357 0.40766,-1.105 0.49309,-1.06961 0.5755,-1.02762 0.65435,-0.9793 0.72916,-0.92494 0.79949,-0.86488 0.86488,-0.79949 0.92494,-0.72916 0.9793,-0.65435 1.02762,-0.5755 1.06961,-0.49309 1.105,-0.40766 1.13357,-0.3197 1.15516,-0.22978 1.16963,-0.13843 1.17693,-0.0462 1.17689,0.0462 1.16963,0.13843 1.15516,0.22978 1.13357,0.3197 1.105,0.40766 1.06961,0.49309 1.02762,0.5755 0.9793,0.65435 0.92494,0.72916 0.86488,0.79949 0.79949,0.86488 0.72916,0.92494 0.65435,0.9793 0.5755,1.02762 0.49309,1.06961 0.40766,1.105 0.3197,1.13357 0.22978,1.15516 0.13843,1.16963 z"
       fill-opacity="1"
       id="path164"
       style="fill:#50e281;fill-opacity:1" />
    <g
       transform="matrix(0.68908942,0,0,0.68908942,-361.85448,-15.692344)"
       id="g168" />
    <g
       transform="matrix(0.6191714,-1.2344533,1.2344533,0.6191714,-2153.3659,1367.4068)"
       id="g138">
      <g
         transform="matrix(0.49896716,0,0,0.49896716,646.66531,243.82713)"
         id="g136" />
      <g
         id="g1778"
         transform="matrix(0.37416109,0.74597176,-0.74597176,0.37416109,1587.8209,587.36003)">
        <text
           xml:space="preserve"
           transform="matrix(0.53875344,0,0,0.53875344,-160.76151,178.41179)"
           id="text3637-4"
           style="font-style:normal;font-weight:normal;font-size:37.3333px;line-height:1.25;font-family:sans-serif;white-space:pre;shape-inside:url(#rect3639-3);fill:#000000;fill-opacity:1;stroke:none"><tspan
             x="1443.0723"
             y="73.013644"
             id="tspan165026">Node Color</tspan></text>
        <text
           xml:space="preserve"
           transform="matrix(0.53875344,0,0,0.53875344,-162.72393,312.57533)"
           id="text3637-7-7"
           style="font-style:normal;font-weight:normal;font-size:37.3333px;line-height:1.25;font-family:sans-serif;white-space:pre;shape-inside:url(#rect3639-5-6);fill:#000000;fill-opacity:1;stroke:none"><tspan
             x="1443.0723"
             y="73.013644"
             id="tspan165028">Edge Color</tspan></text>
        <rect
           id="rect18643-7-6"
           width="29.16246"
           height="8.8964348"
           x="620.71167"
           y="225.32191"
           style="fill:#e2e250;fill-opacity:1;stroke:none;stroke-width:0.365162;stroke-miterlimit:4;stroke-dasharray:none;stroke-opacity:1"
           ry="1.5751116" />
        <text
           xml:space="preserve"
           transform="matrix(0.53875344,0,0,0.53875344,-115.59535,202.18611)"
           id="text27183-1-5"
           style="font-style:normal;font-weight:normal;font-size:21.3333px;line-height:1.25;font-family:sans-serif;white-space:pre;shape-inside:url(#rect27185-7-7);fill:#000000;fill-opacity:1;stroke:none"><tspan
             x="1443.0723"
             y="58.857392"
             id="tspan165030">CDS</tspan></text>
        <rect
           id="rect18643-7-1-9-6"
           width="29.16246"
           height="8.8964348"
           x="620.935"
           y="240.38498"
           style="fill:#5081e2;fill-opacity:1;stroke:none;stroke-width:0.365162;stroke-miterlimit:4;stroke-dasharray:none;stroke-opacity:1"
           ry="1.5751116" />
        <text
           xml:space="preserve"
           transform="matrix(0.53875344,0,0,0.53875344,-115.37206,217.24919)"
           id="text27183-1-7-8-9"
           style="font-style:normal;font-weight:normal;font-size:21.3333px;line-height:1.25;font-family:sans-serif;white-space:pre;shape-inside:url(#rect27185-7-6-9-5);fill:#000000;fill-opacity:1;stroke:none"><tspan
             x="1443.0723"
             y="58.857392"
             id="tspan165032">Pathway</tspan></text>
        <rect
           id="rect18643-7-1-9-6-6"
           width="29.16246"
           height="8.8964348"
           x="620.62817"
           y="255.78209"
           style="fill:#fa8072;fill-opacity:1;stroke:none;stroke-width:0.365162;stroke-miterlimit:4;stroke-dasharray:none;stroke-opacity:1"
           ry="1.5751116" />
        <text
           xml:space="preserve"
           transform="matrix(0.53875344,0,0,0.53875344,-115.6778,232.6463)"
           id="text27183-1-7-8-9-7"
           style="font-style:normal;font-weight:normal;font-size:21.3333px;line-height:1.25;font-family:sans-serif;white-space:pre;shape-inside:url(#rect27185-7-6-9-5-3);fill:#000000;fill-opacity:1;stroke:none"><tspan
             x="1443.0723"
             y="58.857392"
             id="tspan165034">Protein</tspan></text>
        <rect
           id="rect18643-7-1-9-6-5"
           width="29.16246"
           height="8.8964348"
           x="620.62817"
           y="270.5126"
           style="fill:#a07be9;fill-opacity:1;stroke:none;stroke-width:0.365162;stroke-miterlimit:4;stroke-dasharray:none;stroke-opacity:1"
           ry="1.5751116" />
        <text
           xml:space="preserve"
           transform="matrix(0.53875344,0,0,0.53875344,-115.67889,247.37683)"
           id="text27183-1-7-8-9-6"
           style="font-style:normal;font-weight:normal;font-size:21.3333px;line-height:1.25;font-family:sans-serif;white-space:pre;shape-inside:url(#rect27185-7-6-9-5-5);fill:#000000;fill-opacity:1;stroke:none"><tspan
             x="1443.0723"
             y="58.857392"
             id="tspan165036">Small Molecule</tspan></text>
        <rect
           id="rect18643-7-1-9-6-6-0"
           width="29.16246"
           height="8.8964348"
           x="620.49982"
           y="284.96765"
           style="fill:#50e281;fill-opacity:1;stroke:none;stroke-width:0.365162;stroke-miterlimit:4;stroke-dasharray:none;stroke-opacity:1"
           ry="1.5751116" />
        <text
           xml:space="preserve"
           transform="matrix(0.53875344,0,0,0.53875344,-115.80614,261.83186)"
           id="text27183-1-7-8-9-7-6"
           style="font-style:normal;font-weight:normal;font-size:21.3333px;line-height:1.25;font-family:sans-serif;white-space:pre;shape-inside:url(#rect27185-7-6-9-5-3-6);fill:#000000;fill-opacity:1;stroke:none"><tspan
             x="1443.0723"
             y="58.857392"
             id="tspan165038">Conversion</tspan></text>
        <rect
           id="rect18643-7-1-9-6-5-3"
           width="29.16246"
           height="8.8964348"
           x="620.49982"
           y="299.69815"
           style="fill:#67ecfd;fill-opacity:1;stroke:none;stroke-width:0.365162;stroke-miterlimit:4;stroke-dasharray:none;stroke-opacity:1"
           ry="1.5751116" />
        <text
           xml:space="preserve"
           transform="matrix(0.53875344,0,0,0.53875344,-115.80723,276.56239)"
           id="text27183-1-7-8-9-6-2"
           style="font-style:normal;font-weight:normal;font-size:21.3333px;line-height:1.25;font-family:sans-serif;white-space:pre;shape-inside:url(#rect27185-7-6-9-5-5-1);fill:#000000;fill-opacity:1;stroke:none"><tspan
             x="1443.0723"
             y="58.857392"
             id="tspan165040">Protein Production</tspan></text>
        <rect
           id="rect18643-7-1-9-6-5-3-6"
           width="29.16246"
           height="8.8964348"
           x="619.99908"
           y="315.31259"
           style="fill:#e97be9;fill-opacity:1;stroke:none;stroke-width:0.365162;stroke-miterlimit:4;stroke-dasharray:none;stroke-opacity:1"
           ry="1.5751116" />
        <text
           xml:space="preserve"
           transform="matrix(0.53875344,0,0,0.53875344,-116.30801,292.1769)"
           id="text27183-1-7-8-9-6-2-1"
           style="font-style:normal;font-weight:normal;font-size:21.3333px;line-height:1.25;font-family:sans-serif;white-space:pre;shape-inside:url(#rect27185-7-6-9-5-5-1-0);fill:#000000;fill-opacity:1;stroke:none"><tspan
             x="1443.0723"
             y="58.857392"
             id="tspan165042">Activation</tspan></text>
        <rect
           id="rect18643-9-5"
           width="29.16246"
           height="8.8964348"
           x="619.18982"
           y="364.87042"
           style="fill:#e2e250;fill-opacity:1;stroke:none;stroke-width:0.365162;stroke-miterlimit:4;stroke-dasharray:none;stroke-opacity:1"
           ry="1.5751116" />
        <text
           xml:space="preserve"
           transform="matrix(0.53875344,0,0,0.53875344,-117.11721,341.73498)"
           id="text27183-2-2"
           style="font-style:normal;font-weight:normal;font-size:21.3333px;line-height:1.25;font-family:sans-serif;white-space:pre;shape-inside:url(#rect27185-4-5);fill:#000000;fill-opacity:1;stroke:none"><tspan
             x="1443.0723"
             y="58.857392"
             id="tspan165044">Template</tspan></text>
        <rect
           id="rect18643-7-1-5"
           width="29.16246"
           height="8.8964348"
           x="619.61084"
           y="379.23886"
           style="fill:#50e281;fill-opacity:1;stroke:none;stroke-width:0.365162;stroke-miterlimit:4;stroke-dasharray:none;stroke-opacity:1"
           ry="1.5751116" />
        <text
           xml:space="preserve"
           transform="matrix(0.53875344,0,0,0.53875344,-116.69619,356.10342)"
           id="text27183-1-1-4"
           style="font-style:normal;font-weight:normal;font-size:21.3333px;line-height:1.25;font-family:sans-serif;white-space:pre;shape-inside:url(#rect27185-7-8-6);fill:#000000;fill-opacity:1;stroke:none"><tspan
             x="1443.0723"
             y="58.857392"
             id="tspan165046">Product</tspan></text>
        <rect
           id="rect18643-9-5-2"
           width="29.16246"
           height="8.8964348"
           x="619.61084"
           y="393.96939"
           style="fill:#fa8072;fill-opacity:1;stroke:none;stroke-width:0.365162;stroke-miterlimit:4;stroke-dasharray:none;stroke-opacity:1"
           ry="1.5751116" />
        <text
           xml:space="preserve"
           transform="matrix(0.53875344,0,0,0.53875344,-116.69618,370.83396)"
           id="text27183-2-2-3"
           style="font-style:normal;font-weight:normal;font-size:21.3333px;line-height:1.25;font-family:sans-serif;white-space:pre;shape-inside:url(#rect27185-4-5-0);fill:#000000;fill-opacity:1;stroke:none"><tspan
             x="1443.0723"
             y="58.857392"
             id="tspan165048">Modifier</tspan></text>
        <rect
           id="rect18643-7-1-5-7"
           width="29.16246"
           height="8.8964348"
           x="620.03186"
           y="408.33786"
           style="fill:#a07be9;fill-opacity:1;stroke:none;stroke-width:0.365162;stroke-miterlimit:4;stroke-dasharray:none;stroke-opacity:1"
           ry="1.5751116" />
        <text
           xml:space="preserve"
           transform="matrix(0.53875344,0,0,0.53875344,-116.27516,385.20241)"
           id="text27183-1-1-4-5"
           style="font-style:normal;font-weight:normal;font-size:21.3333px;line-height:1.25;font-family:sans-serif;white-space:pre;shape-inside:url(#rect27185-7-8-6-2);fill:#000000;fill-opacity:1;stroke:none"><tspan
             x="1443.0723"
             y="58.857392"
             id="tspan165050">Reactant</tspan></text>
        <rect
           id="rect18643-9-5-2-4"
           width="29.16246"
           height="8.8964348"
           x="619.53558"
           y="421.68869"
           style="fill:#e97be9;fill-opacity:1;stroke:none;stroke-width:0.365162;stroke-miterlimit:4;stroke-dasharray:none;stroke-opacity:1"
           ry="1.5751116" />
        <text
           xml:space="preserve"
           transform="matrix(0.53875344,0,0,0.53875344,-116.76928,398.55351)"
           id="text27183-2-2-3-5"
           style="font-style:normal;font-weight:normal;font-size:21.3333px;line-height:1.25;font-family:sans-serif;white-space:pre;shape-inside:url(#rect27185-4-5-0-8);fill:#000000;fill-opacity:1;stroke:none"><tspan
             x="1443.0723"
             y="58.857392"
             id="tspan165052">Activator</tspan></text>
        <rect
           id="rect18643-7-1-5-7-0"
           width="29.16246"
           height="8.8964348"
           x="619.9566"
           y="436.05716"
           style="fill:#5081e2;fill-opacity:1;stroke:none;stroke-width:0.365162;stroke-miterlimit:4;stroke-dasharray:none;stroke-opacity:1"
           ry="1.5751116" />
        <text
           xml:space="preserve"
           transform="matrix(0.53875344,0,0,0.53875344,-116.34825,412.92196)"
           id="text27183-1-1-4-5-3"
           style="font-style:normal;font-weight:normal;font-size:21.3333px;line-height:1.25;font-family:sans-serif;white-space:pre;shape-inside:url(#rect27185-7-8-6-2-7);fill:#000000;fill-opacity:1;stroke:none"><tspan
             x="1443.0723"
             y="58.857392"
             id="tspan165054">Activated</tspan></text>
      </g>
    </g>
  </g>
</svg>
